<?xml version="1.0" encoding="utf-8" standalone="no"?>
<!DOCTYPE svg PUBLIC "-//W3C//DTD SVG 1.1//EN"
  "http://www.w3.org/Graphics/SVG/1.1/DTD/svg11.dtd">
<svg xmlns:xlink="http://www.w3.org/1999/xlink" width="1000.596094pt" height="567.313625pt" viewBox="0 0 1000.596094 567.313625" xmlns="http://www.w3.org/2000/svg" version="1.1">
 <metadata>
  <rdf:RDF xmlns:dc="http://purl.org/dc/elements/1.1/" xmlns:cc="http://creativecommons.org/ns#" xmlns:rdf="http://www.w3.org/1999/02/22-rdf-syntax-ns#">
   <cc:Work>
    <dc:type rdf:resource="http://purl.org/dc/dcmitype/StillImage"/>
    <dc:date>2026-03-05T15:11:03.689066</dc:date>
    <dc:format>image/svg+xml</dc:format>
    <dc:creator>
     <cc:Agent>
      <dc:title>Matplotlib v3.10.8, https://matplotlib.org/</dc:title>
     </cc:Agent>
    </dc:creator>
   </cc:Work>
  </rdf:RDF>
 </metadata>
 <defs>
  <style type="text/css">*{stroke-linejoin: round; stroke-linecap: butt}</style>
 </defs>
 <g id="figure_1">
  <g id="patch_1">
   <path d="M 0 567.313625 
L 1000.596094 567.313625 
L 1000.596094 0 
L 0 0 
z
" style="fill: #ffffff"/>
  </g>
  <g id="axes_1">
   <g id="patch_2">
    <path d="M 202.276094 527.34175 
L 993.396094 527.34175 
L 993.396094 24.14175 
L 202.276094 24.14175 
z
" style="fill: #e5e5e5"/>
   </g>
   <g id="matplotlib.axis_1">
    <g id="xtick_1">
     <g id="line2d_1">
      <path d="M 202.276094 527.34175 
L 202.276094 24.14175 
" clip-path="url(#p9e3e343e7d)" style="fill: none; stroke: #ffffff; stroke-width: 0.8; stroke-linecap: square"/>
     </g>
     <g id="line2d_2">
      <defs>
       <path id="me82abb488f" d="M 0 0 
L 0 3.5 
" style="stroke: #555555; stroke-width: 0.8"/>
      </defs>
      <g>
       <use xlink:href="#me82abb488f" x="202.276094" y="527.34175" style="fill: #555555; stroke: #555555; stroke-width: 0.8"/>
      </g>
     </g>
     <g id="text_1">
      <!-- 0.0 -->
      <g style="fill: #555555" transform="translate(194.324531 541.940187) scale(0.1 -0.1)">
       <defs>
        <path id="DejaVuSans-30" d="M 2034 4250 
Q 1547 4250 1301 3770 
Q 1056 3291 1056 2328 
Q 1056 1369 1301 889 
Q 1547 409 2034 409 
Q 2525 409 2770 889 
Q 3016 1369 3016 2328 
Q 3016 3291 2770 3770 
Q 2525 4250 2034 4250 
z
M 2034 4750 
Q 2819 4750 3233 4129 
Q 3647 3509 3647 2328 
Q 3647 1150 3233 529 
Q 2819 -91 2034 -91 
Q 1250 -91 836 529 
Q 422 1150 422 2328 
Q 422 3509 836 4129 
Q 1250 4750 2034 4750 
z
" transform="scale(0.015625)"/>
        <path id="DejaVuSans-2e" d="M 684 794 
L 1344 794 
L 1344 0 
L 684 0 
L 684 794 
z
" transform="scale(0.015625)"/>
       </defs>
       <use xlink:href="#DejaVuSans-30"/>
       <use xlink:href="#DejaVuSans-2e" transform="translate(63.623047 0)"/>
       <use xlink:href="#DejaVuSans-30" transform="translate(95.410156 0)"/>
      </g>
     </g>
    </g>
    <g id="xtick_2">
     <g id="line2d_3">
      <path d="M 327.850697 527.34175 
L 327.850697 24.14175 
" clip-path="url(#p9e3e343e7d)" style="fill: none; stroke: #ffffff; stroke-width: 0.8; stroke-linecap: square"/>
     </g>
     <g id="line2d_4">
      <g>
       <use xlink:href="#me82abb488f" x="327.850697" y="527.34175" style="fill: #555555; stroke: #555555; stroke-width: 0.8"/>
      </g>
     </g>
     <g id="text_2">
      <!-- 0.5 -->
      <g style="fill: #555555" transform="translate(319.899134 541.940187) scale(0.1 -0.1)">
       <defs>
        <path id="DejaVuSans-35" d="M 691 4666 
L 3169 4666 
L 3169 4134 
L 1269 4134 
L 1269 2991 
Q 1406 3038 1543 3061 
Q 1681 3084 1819 3084 
Q 2600 3084 3056 2656 
Q 3513 2228 3513 1497 
Q 3513 744 3044 326 
Q 2575 -91 1722 -91 
Q 1428 -91 1123 -41 
Q 819 9 494 109 
L 494 744 
Q 775 591 1075 516 
Q 1375 441 1709 441 
Q 2250 441 2565 725 
Q 2881 1009 2881 1497 
Q 2881 1984 2565 2268 
Q 2250 2553 1709 2553 
Q 1456 2553 1204 2497 
Q 953 2441 691 2322 
L 691 4666 
z
" transform="scale(0.015625)"/>
       </defs>
       <use xlink:href="#DejaVuSans-30"/>
       <use xlink:href="#DejaVuSans-2e" transform="translate(63.623047 0)"/>
       <use xlink:href="#DejaVuSans-35" transform="translate(95.410156 0)"/>
      </g>
     </g>
    </g>
    <g id="xtick_3">
     <g id="line2d_5">
      <path d="M 453.4253 527.34175 
L 453.4253 24.14175 
" clip-path="url(#p9e3e343e7d)" style="fill: none; stroke: #ffffff; stroke-width: 0.8; stroke-linecap: square"/>
     </g>
     <g id="line2d_6">
      <g>
       <use xlink:href="#me82abb488f" x="453.4253" y="527.34175" style="fill: #555555; stroke: #555555; stroke-width: 0.8"/>
      </g>
     </g>
     <g id="text_3">
      <!-- 1.0 -->
      <g style="fill: #555555" transform="translate(445.473738 541.940187) scale(0.1 -0.1)">
       <defs>
        <path id="DejaVuSans-31" d="M 794 531 
L 1825 531 
L 1825 4091 
L 703 3866 
L 703 4441 
L 1819 4666 
L 2450 4666 
L 2450 531 
L 3481 531 
L 3481 0 
L 794 0 
L 794 531 
z
" transform="scale(0.015625)"/>
       </defs>
       <use xlink:href="#DejaVuSans-31"/>
       <use xlink:href="#DejaVuSans-2e" transform="translate(63.623047 0)"/>
       <use xlink:href="#DejaVuSans-30" transform="translate(95.410156 0)"/>
      </g>
     </g>
    </g>
    <g id="xtick_4">
     <g id="line2d_7">
      <path d="M 578.999903 527.34175 
L 578.999903 24.14175 
" clip-path="url(#p9e3e343e7d)" style="fill: none; stroke: #ffffff; stroke-width: 0.8; stroke-linecap: square"/>
     </g>
     <g id="line2d_8">
      <g>
       <use xlink:href="#me82abb488f" x="578.999903" y="527.34175" style="fill: #555555; stroke: #555555; stroke-width: 0.8"/>
      </g>
     </g>
     <g id="text_4">
      <!-- 1.5 -->
      <g style="fill: #555555" transform="translate(571.048341 541.940187) scale(0.1 -0.1)">
       <use xlink:href="#DejaVuSans-31"/>
       <use xlink:href="#DejaVuSans-2e" transform="translate(63.623047 0)"/>
       <use xlink:href="#DejaVuSans-35" transform="translate(95.410156 0)"/>
      </g>
     </g>
    </g>
    <g id="xtick_5">
     <g id="line2d_9">
      <path d="M 704.574506 527.34175 
L 704.574506 24.14175 
" clip-path="url(#p9e3e343e7d)" style="fill: none; stroke: #ffffff; stroke-width: 0.8; stroke-linecap: square"/>
     </g>
     <g id="line2d_10">
      <g>
       <use xlink:href="#me82abb488f" x="704.574506" y="527.34175" style="fill: #555555; stroke: #555555; stroke-width: 0.8"/>
      </g>
     </g>
     <g id="text_5">
      <!-- 2.0 -->
      <g style="fill: #555555" transform="translate(696.622944 541.940187) scale(0.1 -0.1)">
       <defs>
        <path id="DejaVuSans-32" d="M 1228 531 
L 3431 531 
L 3431 0 
L 469 0 
L 469 531 
Q 828 903 1448 1529 
Q 2069 2156 2228 2338 
Q 2531 2678 2651 2914 
Q 2772 3150 2772 3378 
Q 2772 3750 2511 3984 
Q 2250 4219 1831 4219 
Q 1534 4219 1204 4116 
Q 875 4013 500 3803 
L 500 4441 
Q 881 4594 1212 4672 
Q 1544 4750 1819 4750 
Q 2544 4750 2975 4387 
Q 3406 4025 3406 3419 
Q 3406 3131 3298 2873 
Q 3191 2616 2906 2266 
Q 2828 2175 2409 1742 
Q 1991 1309 1228 531 
z
" transform="scale(0.015625)"/>
       </defs>
       <use xlink:href="#DejaVuSans-32"/>
       <use xlink:href="#DejaVuSans-2e" transform="translate(63.623047 0)"/>
       <use xlink:href="#DejaVuSans-30" transform="translate(95.410156 0)"/>
      </g>
     </g>
    </g>
    <g id="xtick_6">
     <g id="line2d_11">
      <path d="M 830.14911 527.34175 
L 830.14911 24.14175 
" clip-path="url(#p9e3e343e7d)" style="fill: none; stroke: #ffffff; stroke-width: 0.8; stroke-linecap: square"/>
     </g>
     <g id="line2d_12">
      <g>
       <use xlink:href="#me82abb488f" x="830.14911" y="527.34175" style="fill: #555555; stroke: #555555; stroke-width: 0.8"/>
      </g>
     </g>
     <g id="text_6">
      <!-- 2.5 -->
      <g style="fill: #555555" transform="translate(822.197547 541.940187) scale(0.1 -0.1)">
       <use xlink:href="#DejaVuSans-32"/>
       <use xlink:href="#DejaVuSans-2e" transform="translate(63.623047 0)"/>
       <use xlink:href="#DejaVuSans-35" transform="translate(95.410156 0)"/>
      </g>
     </g>
    </g>
    <g id="xtick_7">
     <g id="line2d_13">
      <path d="M 955.723713 527.34175 
L 955.723713 24.14175 
" clip-path="url(#p9e3e343e7d)" style="fill: none; stroke: #ffffff; stroke-width: 0.8; stroke-linecap: square"/>
     </g>
     <g id="line2d_14">
      <g>
       <use xlink:href="#me82abb488f" x="955.723713" y="527.34175" style="fill: #555555; stroke: #555555; stroke-width: 0.8"/>
      </g>
     </g>
     <g id="text_7">
      <!-- 3.0 -->
      <g style="fill: #555555" transform="translate(947.77215 541.940187) scale(0.1 -0.1)">
       <defs>
        <path id="DejaVuSans-33" d="M 2597 2516 
Q 3050 2419 3304 2112 
Q 3559 1806 3559 1356 
Q 3559 666 3084 287 
Q 2609 -91 1734 -91 
Q 1441 -91 1130 -33 
Q 819 25 488 141 
L 488 750 
Q 750 597 1062 519 
Q 1375 441 1716 441 
Q 2309 441 2620 675 
Q 2931 909 2931 1356 
Q 2931 1769 2642 2001 
Q 2353 2234 1838 2234 
L 1294 2234 
L 1294 2753 
L 1863 2753 
Q 2328 2753 2575 2939 
Q 2822 3125 2822 3475 
Q 2822 3834 2567 4026 
Q 2313 4219 1838 4219 
Q 1578 4219 1281 4162 
Q 984 4106 628 3988 
L 628 4550 
Q 988 4650 1302 4700 
Q 1616 4750 1894 4750 
Q 2613 4750 3031 4423 
Q 3450 4097 3450 3541 
Q 3450 3153 3228 2886 
Q 3006 2619 2597 2516 
z
" transform="scale(0.015625)"/>
       </defs>
       <use xlink:href="#DejaVuSans-33"/>
       <use xlink:href="#DejaVuSans-2e" transform="translate(63.623047 0)"/>
       <use xlink:href="#DejaVuSans-30" transform="translate(95.410156 0)"/>
      </g>
     </g>
    </g>
    <g id="text_8">
     <!-- Número de egresos -->
     <g style="fill: #555555" transform="translate(539.244219 557.618) scale(0.12 -0.12)">
      <defs>
       <path id="DejaVuSans-4e" d="M 628 4666 
L 1478 4666 
L 3547 763 
L 3547 4666 
L 4159 4666 
L 4159 0 
L 3309 0 
L 1241 3903 
L 1241 0 
L 628 0 
L 628 4666 
z
" transform="scale(0.015625)"/>
       <path id="DejaVuSans-fa" d="M 544 1381 
L 544 3500 
L 1119 3500 
L 1119 1403 
Q 1119 906 1312 657 
Q 1506 409 1894 409 
Q 2359 409 2629 706 
Q 2900 1003 2900 1516 
L 2900 3500 
L 3475 3500 
L 3475 0 
L 2900 0 
L 2900 538 
Q 2691 219 2414 64 
Q 2138 -91 1772 -91 
Q 1169 -91 856 284 
Q 544 659 544 1381 
z
M 1991 3584 
L 1991 3584 
z
M 2418 5119 
L 3040 5119 
L 2022 3944 
L 1543 3944 
L 2418 5119 
z
" transform="scale(0.015625)"/>
       <path id="DejaVuSans-6d" d="M 3328 2828 
Q 3544 3216 3844 3400 
Q 4144 3584 4550 3584 
Q 5097 3584 5394 3201 
Q 5691 2819 5691 2113 
L 5691 0 
L 5113 0 
L 5113 2094 
Q 5113 2597 4934 2840 
Q 4756 3084 4391 3084 
Q 3944 3084 3684 2787 
Q 3425 2491 3425 1978 
L 3425 0 
L 2847 0 
L 2847 2094 
Q 2847 2600 2669 2842 
Q 2491 3084 2119 3084 
Q 1678 3084 1418 2786 
Q 1159 2488 1159 1978 
L 1159 0 
L 581 0 
L 581 3500 
L 1159 3500 
L 1159 2956 
Q 1356 3278 1631 3431 
Q 1906 3584 2284 3584 
Q 2666 3584 2933 3390 
Q 3200 3197 3328 2828 
z
" transform="scale(0.015625)"/>
       <path id="DejaVuSans-65" d="M 3597 1894 
L 3597 1613 
L 953 1613 
Q 991 1019 1311 708 
Q 1631 397 2203 397 
Q 2534 397 2845 478 
Q 3156 559 3463 722 
L 3463 178 
Q 3153 47 2828 -22 
Q 2503 -91 2169 -91 
Q 1331 -91 842 396 
Q 353 884 353 1716 
Q 353 2575 817 3079 
Q 1281 3584 2069 3584 
Q 2775 3584 3186 3129 
Q 3597 2675 3597 1894 
z
M 3022 2063 
Q 3016 2534 2758 2815 
Q 2500 3097 2075 3097 
Q 1594 3097 1305 2825 
Q 1016 2553 972 2059 
L 3022 2063 
z
" transform="scale(0.015625)"/>
       <path id="DejaVuSans-72" d="M 2631 2963 
Q 2534 3019 2420 3045 
Q 2306 3072 2169 3072 
Q 1681 3072 1420 2755 
Q 1159 2438 1159 1844 
L 1159 0 
L 581 0 
L 581 3500 
L 1159 3500 
L 1159 2956 
Q 1341 3275 1631 3429 
Q 1922 3584 2338 3584 
Q 2397 3584 2469 3576 
Q 2541 3569 2628 3553 
L 2631 2963 
z
" transform="scale(0.015625)"/>
       <path id="DejaVuSans-6f" d="M 1959 3097 
Q 1497 3097 1228 2736 
Q 959 2375 959 1747 
Q 959 1119 1226 758 
Q 1494 397 1959 397 
Q 2419 397 2687 759 
Q 2956 1122 2956 1747 
Q 2956 2369 2687 2733 
Q 2419 3097 1959 3097 
z
M 1959 3584 
Q 2709 3584 3137 3096 
Q 3566 2609 3566 1747 
Q 3566 888 3137 398 
Q 2709 -91 1959 -91 
Q 1206 -91 779 398 
Q 353 888 353 1747 
Q 353 2609 779 3096 
Q 1206 3584 1959 3584 
z
" transform="scale(0.015625)"/>
       <path id="DejaVuSans-20" transform="scale(0.015625)"/>
       <path id="DejaVuSans-64" d="M 2906 2969 
L 2906 4863 
L 3481 4863 
L 3481 0 
L 2906 0 
L 2906 525 
Q 2725 213 2448 61 
Q 2172 -91 1784 -91 
Q 1150 -91 751 415 
Q 353 922 353 1747 
Q 353 2572 751 3078 
Q 1150 3584 1784 3584 
Q 2172 3584 2448 3432 
Q 2725 3281 2906 2969 
z
M 947 1747 
Q 947 1113 1208 752 
Q 1469 391 1925 391 
Q 2381 391 2643 752 
Q 2906 1113 2906 1747 
Q 2906 2381 2643 2742 
Q 2381 3103 1925 3103 
Q 1469 3103 1208 2742 
Q 947 2381 947 1747 
z
" transform="scale(0.015625)"/>
       <path id="DejaVuSans-67" d="M 2906 1791 
Q 2906 2416 2648 2759 
Q 2391 3103 1925 3103 
Q 1463 3103 1205 2759 
Q 947 2416 947 1791 
Q 947 1169 1205 825 
Q 1463 481 1925 481 
Q 2391 481 2648 825 
Q 2906 1169 2906 1791 
z
M 3481 434 
Q 3481 -459 3084 -895 
Q 2688 -1331 1869 -1331 
Q 1566 -1331 1297 -1286 
Q 1028 -1241 775 -1147 
L 775 -588 
Q 1028 -725 1275 -790 
Q 1522 -856 1778 -856 
Q 2344 -856 2625 -561 
Q 2906 -266 2906 331 
L 2906 616 
Q 2728 306 2450 153 
Q 2172 0 1784 0 
Q 1141 0 747 490 
Q 353 981 353 1791 
Q 353 2603 747 3093 
Q 1141 3584 1784 3584 
Q 2172 3584 2450 3431 
Q 2728 3278 2906 2969 
L 2906 3500 
L 3481 3500 
L 3481 434 
z
" transform="scale(0.015625)"/>
       <path id="DejaVuSans-73" d="M 2834 3397 
L 2834 2853 
Q 2591 2978 2328 3040 
Q 2066 3103 1784 3103 
Q 1356 3103 1142 2972 
Q 928 2841 928 2578 
Q 928 2378 1081 2264 
Q 1234 2150 1697 2047 
L 1894 2003 
Q 2506 1872 2764 1633 
Q 3022 1394 3022 966 
Q 3022 478 2636 193 
Q 2250 -91 1575 -91 
Q 1294 -91 989 -36 
Q 684 19 347 128 
L 347 722 
Q 666 556 975 473 
Q 1284 391 1588 391 
Q 1994 391 2212 530 
Q 2431 669 2431 922 
Q 2431 1156 2273 1281 
Q 2116 1406 1581 1522 
L 1381 1569 
Q 847 1681 609 1914 
Q 372 2147 372 2553 
Q 372 3047 722 3315 
Q 1072 3584 1716 3584 
Q 2034 3584 2315 3537 
Q 2597 3491 2834 3397 
z
" transform="scale(0.015625)"/>
      </defs>
      <use xlink:href="#DejaVuSans-4e"/>
      <use xlink:href="#DejaVuSans-fa" transform="translate(74.804688 0)"/>
      <use xlink:href="#DejaVuSans-6d" transform="translate(138.183594 0)"/>
      <use xlink:href="#DejaVuSans-65" transform="translate(235.595703 0)"/>
      <use xlink:href="#DejaVuSans-72" transform="translate(297.119141 0)"/>
      <use xlink:href="#DejaVuSans-6f" transform="translate(335.982422 0)"/>
      <use xlink:href="#DejaVuSans-20" transform="translate(397.164062 0)"/>
      <use xlink:href="#DejaVuSans-64" transform="translate(428.951172 0)"/>
      <use xlink:href="#DejaVuSans-65" transform="translate(492.427734 0)"/>
      <use xlink:href="#DejaVuSans-20" transform="translate(553.951172 0)"/>
      <use xlink:href="#DejaVuSans-65" transform="translate(585.738281 0)"/>
      <use xlink:href="#DejaVuSans-67" transform="translate(647.261719 0)"/>
      <use xlink:href="#DejaVuSans-72" transform="translate(710.738281 0)"/>
      <use xlink:href="#DejaVuSans-65" transform="translate(749.601562 0)"/>
      <use xlink:href="#DejaVuSans-73" transform="translate(811.125 0)"/>
      <use xlink:href="#DejaVuSans-6f" transform="translate(863.224609 0)"/>
      <use xlink:href="#DejaVuSans-73" transform="translate(924.40625 0)"/>
     </g>
    </g>
   </g>
   <g id="matplotlib.axis_2">
    <g id="ytick_1">
     <g id="line2d_15">
      <path d="M 202.276094 481.009815 
L 993.396094 481.009815 
" clip-path="url(#p9e3e343e7d)" style="fill: none; stroke: #ffffff; stroke-width: 0.8; stroke-linecap: square"/>
     </g>
     <g id="line2d_16">
      <defs>
       <path id="me26dc811f7" d="M 0 0 
L -3.5 0 
" style="stroke: #555555; stroke-width: 0.8"/>
      </defs>
      <g>
       <use xlink:href="#me26dc811f7" x="202.276094" y="481.009815" style="fill: #555555; stroke: #555555; stroke-width: 0.8"/>
      </g>
     </g>
     <g id="text_9">
      <!-- TRASTORNOS MENTALES Y DEL -->
      <g style="fill: #555555" transform="translate(54.3825 464.956909) scale(0.09 -0.09)">
       <defs>
        <path id="DejaVuSans-54" d="M -19 4666 
L 3928 4666 
L 3928 4134 
L 2272 4134 
L 2272 0 
L 1638 0 
L 1638 4134 
L -19 4134 
L -19 4666 
z
" transform="scale(0.015625)"/>
        <path id="DejaVuSans-52" d="M 2841 2188 
Q 3044 2119 3236 1894 
Q 3428 1669 3622 1275 
L 4263 0 
L 3584 0 
L 2988 1197 
Q 2756 1666 2539 1819 
Q 2322 1972 1947 1972 
L 1259 1972 
L 1259 0 
L 628 0 
L 628 4666 
L 2053 4666 
Q 2853 4666 3247 4331 
Q 3641 3997 3641 3322 
Q 3641 2881 3436 2590 
Q 3231 2300 2841 2188 
z
M 1259 4147 
L 1259 2491 
L 2053 2491 
Q 2509 2491 2742 2702 
Q 2975 2913 2975 3322 
Q 2975 3731 2742 3939 
Q 2509 4147 2053 4147 
L 1259 4147 
z
" transform="scale(0.015625)"/>
        <path id="DejaVuSans-41" d="M 2188 4044 
L 1331 1722 
L 3047 1722 
L 2188 4044 
z
M 1831 4666 
L 2547 4666 
L 4325 0 
L 3669 0 
L 3244 1197 
L 1141 1197 
L 716 0 
L 50 0 
L 1831 4666 
z
" transform="scale(0.015625)"/>
        <path id="DejaVuSans-53" d="M 3425 4513 
L 3425 3897 
Q 3066 4069 2747 4153 
Q 2428 4238 2131 4238 
Q 1616 4238 1336 4038 
Q 1056 3838 1056 3469 
Q 1056 3159 1242 3001 
Q 1428 2844 1947 2747 
L 2328 2669 
Q 3034 2534 3370 2195 
Q 3706 1856 3706 1288 
Q 3706 609 3251 259 
Q 2797 -91 1919 -91 
Q 1588 -91 1214 -16 
Q 841 59 441 206 
L 441 856 
Q 825 641 1194 531 
Q 1563 422 1919 422 
Q 2459 422 2753 634 
Q 3047 847 3047 1241 
Q 3047 1584 2836 1778 
Q 2625 1972 2144 2069 
L 1759 2144 
Q 1053 2284 737 2584 
Q 422 2884 422 3419 
Q 422 4038 858 4394 
Q 1294 4750 2059 4750 
Q 2388 4750 2728 4690 
Q 3069 4631 3425 4513 
z
" transform="scale(0.015625)"/>
        <path id="DejaVuSans-4f" d="M 2522 4238 
Q 1834 4238 1429 3725 
Q 1025 3213 1025 2328 
Q 1025 1447 1429 934 
Q 1834 422 2522 422 
Q 3209 422 3611 934 
Q 4013 1447 4013 2328 
Q 4013 3213 3611 3725 
Q 3209 4238 2522 4238 
z
M 2522 4750 
Q 3503 4750 4090 4092 
Q 4678 3434 4678 2328 
Q 4678 1225 4090 567 
Q 3503 -91 2522 -91 
Q 1538 -91 948 565 
Q 359 1222 359 2328 
Q 359 3434 948 4092 
Q 1538 4750 2522 4750 
z
" transform="scale(0.015625)"/>
        <path id="DejaVuSans-4d" d="M 628 4666 
L 1569 4666 
L 2759 1491 
L 3956 4666 
L 4897 4666 
L 4897 0 
L 4281 0 
L 4281 4097 
L 3078 897 
L 2444 897 
L 1241 4097 
L 1241 0 
L 628 0 
L 628 4666 
z
" transform="scale(0.015625)"/>
        <path id="DejaVuSans-45" d="M 628 4666 
L 3578 4666 
L 3578 4134 
L 1259 4134 
L 1259 2753 
L 3481 2753 
L 3481 2222 
L 1259 2222 
L 1259 531 
L 3634 531 
L 3634 0 
L 628 0 
L 628 4666 
z
" transform="scale(0.015625)"/>
        <path id="DejaVuSans-4c" d="M 628 4666 
L 1259 4666 
L 1259 531 
L 3531 531 
L 3531 0 
L 628 0 
L 628 4666 
z
" transform="scale(0.015625)"/>
        <path id="DejaVuSans-59" d="M -13 4666 
L 666 4666 
L 1959 2747 
L 3244 4666 
L 3922 4666 
L 2272 2222 
L 2272 0 
L 1638 0 
L 1638 2222 
L -13 4666 
z
" transform="scale(0.015625)"/>
        <path id="DejaVuSans-44" d="M 1259 4147 
L 1259 519 
L 2022 519 
Q 2988 519 3436 956 
Q 3884 1394 3884 2338 
Q 3884 3275 3436 3711 
Q 2988 4147 2022 4147 
L 1259 4147 
z
M 628 4666 
L 1925 4666 
Q 3281 4666 3915 4102 
Q 4550 3538 4550 2338 
Q 4550 1131 3912 565 
Q 3275 0 1925 0 
L 628 0 
L 628 4666 
z
" transform="scale(0.015625)"/>
       </defs>
       <use xlink:href="#DejaVuSans-54"/>
       <use xlink:href="#DejaVuSans-52" transform="translate(61.083984 0)"/>
       <use xlink:href="#DejaVuSans-41" transform="translate(126.566406 0)"/>
       <use xlink:href="#DejaVuSans-53" transform="translate(194.974609 0)"/>
       <use xlink:href="#DejaVuSans-54" transform="translate(258.451172 0)"/>
       <use xlink:href="#DejaVuSans-4f" transform="translate(319.535156 0)"/>
       <use xlink:href="#DejaVuSans-52" transform="translate(398.246094 0)"/>
       <use xlink:href="#DejaVuSans-4e" transform="translate(467.728516 0)"/>
       <use xlink:href="#DejaVuSans-4f" transform="translate(542.533203 0)"/>
       <use xlink:href="#DejaVuSans-53" transform="translate(621.244141 0)"/>
       <use xlink:href="#DejaVuSans-20" transform="translate(684.720703 0)"/>
       <use xlink:href="#DejaVuSans-4d" transform="translate(716.507812 0)"/>
       <use xlink:href="#DejaVuSans-45" transform="translate(802.787109 0)"/>
       <use xlink:href="#DejaVuSans-4e" transform="translate(865.970703 0)"/>
       <use xlink:href="#DejaVuSans-54" transform="translate(940.775391 0)"/>
       <use xlink:href="#DejaVuSans-41" transform="translate(994.109375 0)"/>
       <use xlink:href="#DejaVuSans-4c" transform="translate(1062.517578 0)"/>
       <use xlink:href="#DejaVuSans-45" transform="translate(1118.230469 0)"/>
       <use xlink:href="#DejaVuSans-53" transform="translate(1181.414062 0)"/>
       <use xlink:href="#DejaVuSans-20" transform="translate(1244.890625 0)"/>
       <use xlink:href="#DejaVuSans-59" transform="translate(1276.677734 0)"/>
       <use xlink:href="#DejaVuSans-20" transform="translate(1337.761719 0)"/>
       <use xlink:href="#DejaVuSans-44" transform="translate(1369.548828 0)"/>
       <use xlink:href="#DejaVuSans-45" transform="translate(1446.550781 0)"/>
       <use xlink:href="#DejaVuSans-4c" transform="translate(1509.734375 0)"/>
      </g>
      <!-- COMPORTAMIENTO DEBIDOS AL USO DE -->
      <g style="fill: #555555" transform="translate(13.861406 475.03494) scale(0.09 -0.09)">
       <defs>
        <path id="DejaVuSans-43" d="M 4122 4306 
L 4122 3641 
Q 3803 3938 3442 4084 
Q 3081 4231 2675 4231 
Q 1875 4231 1450 3742 
Q 1025 3253 1025 2328 
Q 1025 1406 1450 917 
Q 1875 428 2675 428 
Q 3081 428 3442 575 
Q 3803 722 4122 1019 
L 4122 359 
Q 3791 134 3420 21 
Q 3050 -91 2638 -91 
Q 1578 -91 968 557 
Q 359 1206 359 2328 
Q 359 3453 968 4101 
Q 1578 4750 2638 4750 
Q 3056 4750 3426 4639 
Q 3797 4528 4122 4306 
z
" transform="scale(0.015625)"/>
        <path id="DejaVuSans-50" d="M 1259 4147 
L 1259 2394 
L 2053 2394 
Q 2494 2394 2734 2622 
Q 2975 2850 2975 3272 
Q 2975 3691 2734 3919 
Q 2494 4147 2053 4147 
L 1259 4147 
z
M 628 4666 
L 2053 4666 
Q 2838 4666 3239 4311 
Q 3641 3956 3641 3272 
Q 3641 2581 3239 2228 
Q 2838 1875 2053 1875 
L 1259 1875 
L 1259 0 
L 628 0 
L 628 4666 
z
" transform="scale(0.015625)"/>
        <path id="DejaVuSans-49" d="M 628 4666 
L 1259 4666 
L 1259 0 
L 628 0 
L 628 4666 
z
" transform="scale(0.015625)"/>
        <path id="DejaVuSans-42" d="M 1259 2228 
L 1259 519 
L 2272 519 
Q 2781 519 3026 730 
Q 3272 941 3272 1375 
Q 3272 1813 3026 2020 
Q 2781 2228 2272 2228 
L 1259 2228 
z
M 1259 4147 
L 1259 2741 
L 2194 2741 
Q 2656 2741 2882 2914 
Q 3109 3088 3109 3444 
Q 3109 3797 2882 3972 
Q 2656 4147 2194 4147 
L 1259 4147 
z
M 628 4666 
L 2241 4666 
Q 2963 4666 3353 4366 
Q 3744 4066 3744 3513 
Q 3744 3084 3544 2831 
Q 3344 2578 2956 2516 
Q 3422 2416 3680 2098 
Q 3938 1781 3938 1306 
Q 3938 681 3513 340 
Q 3088 0 2303 0 
L 628 0 
L 628 4666 
z
" transform="scale(0.015625)"/>
        <path id="DejaVuSans-55" d="M 556 4666 
L 1191 4666 
L 1191 1831 
Q 1191 1081 1462 751 
Q 1734 422 2344 422 
Q 2950 422 3222 751 
Q 3494 1081 3494 1831 
L 3494 4666 
L 4128 4666 
L 4128 1753 
Q 4128 841 3676 375 
Q 3225 -91 2344 -91 
Q 1459 -91 1007 375 
Q 556 841 556 1753 
L 556 4666 
z
" transform="scale(0.015625)"/>
       </defs>
       <use xlink:href="#DejaVuSans-43"/>
       <use xlink:href="#DejaVuSans-4f" transform="translate(69.824219 0)"/>
       <use xlink:href="#DejaVuSans-4d" transform="translate(148.535156 0)"/>
       <use xlink:href="#DejaVuSans-50" transform="translate(234.814453 0)"/>
       <use xlink:href="#DejaVuSans-4f" transform="translate(295.117188 0)"/>
       <use xlink:href="#DejaVuSans-52" transform="translate(373.828125 0)"/>
       <use xlink:href="#DejaVuSans-54" transform="translate(436.060547 0)"/>
       <use xlink:href="#DejaVuSans-41" transform="translate(489.394531 0)"/>
       <use xlink:href="#DejaVuSans-4d" transform="translate(557.802734 0)"/>
       <use xlink:href="#DejaVuSans-49" transform="translate(644.082031 0)"/>
       <use xlink:href="#DejaVuSans-45" transform="translate(673.574219 0)"/>
       <use xlink:href="#DejaVuSans-4e" transform="translate(736.757812 0)"/>
       <use xlink:href="#DejaVuSans-54" transform="translate(811.5625 0)"/>
       <use xlink:href="#DejaVuSans-4f" transform="translate(872.646484 0)"/>
       <use xlink:href="#DejaVuSans-20" transform="translate(951.357422 0)"/>
       <use xlink:href="#DejaVuSans-44" transform="translate(983.144531 0)"/>
       <use xlink:href="#DejaVuSans-45" transform="translate(1060.146484 0)"/>
       <use xlink:href="#DejaVuSans-42" transform="translate(1123.330078 0)"/>
       <use xlink:href="#DejaVuSans-49" transform="translate(1191.933594 0)"/>
       <use xlink:href="#DejaVuSans-44" transform="translate(1221.425781 0)"/>
       <use xlink:href="#DejaVuSans-4f" transform="translate(1298.427734 0)"/>
       <use xlink:href="#DejaVuSans-53" transform="translate(1377.138672 0)"/>
       <use xlink:href="#DejaVuSans-20" transform="translate(1440.615234 0)"/>
       <use xlink:href="#DejaVuSans-41" transform="translate(1472.402344 0)"/>
       <use xlink:href="#DejaVuSans-4c" transform="translate(1540.810547 0)"/>
       <use xlink:href="#DejaVuSans-20" transform="translate(1596.523438 0)"/>
       <use xlink:href="#DejaVuSans-55" transform="translate(1628.310547 0)"/>
       <use xlink:href="#DejaVuSans-53" transform="translate(1701.503906 0)"/>
       <use xlink:href="#DejaVuSans-4f" transform="translate(1764.980469 0)"/>
       <use xlink:href="#DejaVuSans-20" transform="translate(1843.691406 0)"/>
       <use xlink:href="#DejaVuSans-44" transform="translate(1875.478516 0)"/>
       <use xlink:href="#DejaVuSans-45" transform="translate(1952.480469 0)"/>
      </g>
      <!-- MÚLTIPLES DROGAS Y AL USO DE OTRAS -->
      <g style="fill: #555555" transform="translate(11.863125 485.112972) scale(0.09 -0.09)">
       <defs>
        <path id="DejaVuSans-da" d="M 556 4666 
L 1191 4666 
L 1191 1831 
Q 1191 1081 1462 751 
Q 1734 422 2344 422 
Q 2950 422 3222 751 
Q 3494 1081 3494 1831 
L 3494 4666 
L 4128 4666 
L 4128 1753 
Q 4128 841 3676 375 
Q 3225 -91 2344 -91 
Q 1459 -91 1007 375 
Q 556 841 556 1753 
L 556 4666 
z
M 2516 5921 
L 3094 5921 
L 2382 5096 
L 1903 5096 
L 2516 5921 
z
" transform="scale(0.015625)"/>
        <path id="DejaVuSans-47" d="M 3809 666 
L 3809 1919 
L 2778 1919 
L 2778 2438 
L 4434 2438 
L 4434 434 
Q 4069 175 3628 42 
Q 3188 -91 2688 -91 
Q 1594 -91 976 548 
Q 359 1188 359 2328 
Q 359 3472 976 4111 
Q 1594 4750 2688 4750 
Q 3144 4750 3555 4637 
Q 3966 4525 4313 4306 
L 4313 3634 
Q 3963 3931 3569 4081 
Q 3175 4231 2741 4231 
Q 1884 4231 1454 3753 
Q 1025 3275 1025 2328 
Q 1025 1384 1454 906 
Q 1884 428 2741 428 
Q 3075 428 3337 486 
Q 3600 544 3809 666 
z
" transform="scale(0.015625)"/>
       </defs>
       <use xlink:href="#DejaVuSans-4d"/>
       <use xlink:href="#DejaVuSans-da" transform="translate(86.279297 0)"/>
       <use xlink:href="#DejaVuSans-4c" transform="translate(159.472656 0)"/>
       <use xlink:href="#DejaVuSans-54" transform="translate(201.435547 0)"/>
       <use xlink:href="#DejaVuSans-49" transform="translate(262.519531 0)"/>
       <use xlink:href="#DejaVuSans-50" transform="translate(292.011719 0)"/>
       <use xlink:href="#DejaVuSans-4c" transform="translate(352.314453 0)"/>
       <use xlink:href="#DejaVuSans-45" transform="translate(408.027344 0)"/>
       <use xlink:href="#DejaVuSans-53" transform="translate(471.210938 0)"/>
       <use xlink:href="#DejaVuSans-20" transform="translate(534.6875 0)"/>
       <use xlink:href="#DejaVuSans-44" transform="translate(566.474609 0)"/>
       <use xlink:href="#DejaVuSans-52" transform="translate(643.476562 0)"/>
       <use xlink:href="#DejaVuSans-4f" transform="translate(712.958984 0)"/>
       <use xlink:href="#DejaVuSans-47" transform="translate(791.669922 0)"/>
       <use xlink:href="#DejaVuSans-41" transform="translate(869.160156 0)"/>
       <use xlink:href="#DejaVuSans-53" transform="translate(937.568359 0)"/>
       <use xlink:href="#DejaVuSans-20" transform="translate(1001.044922 0)"/>
       <use xlink:href="#DejaVuSans-59" transform="translate(1032.832031 0)"/>
       <use xlink:href="#DejaVuSans-20" transform="translate(1093.916016 0)"/>
       <use xlink:href="#DejaVuSans-41" transform="translate(1125.703125 0)"/>
       <use xlink:href="#DejaVuSans-4c" transform="translate(1194.111328 0)"/>
       <use xlink:href="#DejaVuSans-20" transform="translate(1249.824219 0)"/>
       <use xlink:href="#DejaVuSans-55" transform="translate(1281.611328 0)"/>
       <use xlink:href="#DejaVuSans-53" transform="translate(1354.804688 0)"/>
       <use xlink:href="#DejaVuSans-4f" transform="translate(1418.28125 0)"/>
       <use xlink:href="#DejaVuSans-20" transform="translate(1496.992188 0)"/>
       <use xlink:href="#DejaVuSans-44" transform="translate(1528.779297 0)"/>
       <use xlink:href="#DejaVuSans-45" transform="translate(1605.78125 0)"/>
       <use xlink:href="#DejaVuSans-20" transform="translate(1668.964844 0)"/>
       <use xlink:href="#DejaVuSans-4f" transform="translate(1700.751953 0)"/>
       <use xlink:href="#DejaVuSans-54" transform="translate(1779.462891 0)"/>
       <use xlink:href="#DejaVuSans-52" transform="translate(1840.546875 0)"/>
       <use xlink:href="#DejaVuSans-41" transform="translate(1906.029297 0)"/>
       <use xlink:href="#DejaVuSans-53" transform="translate(1974.4375 0)"/>
      </g>
      <!-- SUSTANCIAS PSICOACTIVAS, TRASTORNO -->
      <g style="fill: #555555" transform="translate(9.372656 495.191003) scale(0.09 -0.09)">
       <defs>
        <path id="DejaVuSans-56" d="M 1831 0 
L 50 4666 
L 709 4666 
L 2188 738 
L 3669 4666 
L 4325 4666 
L 2547 0 
L 1831 0 
z
" transform="scale(0.015625)"/>
        <path id="DejaVuSans-2c" d="M 750 794 
L 1409 794 
L 1409 256 
L 897 -744 
L 494 -744 
L 750 256 
L 750 794 
z
" transform="scale(0.015625)"/>
       </defs>
       <use xlink:href="#DejaVuSans-53"/>
       <use xlink:href="#DejaVuSans-55" transform="translate(63.476562 0)"/>
       <use xlink:href="#DejaVuSans-53" transform="translate(136.669922 0)"/>
       <use xlink:href="#DejaVuSans-54" transform="translate(200.146484 0)"/>
       <use xlink:href="#DejaVuSans-41" transform="translate(253.480469 0)"/>
       <use xlink:href="#DejaVuSans-4e" transform="translate(321.888672 0)"/>
       <use xlink:href="#DejaVuSans-43" transform="translate(396.693359 0)"/>
       <use xlink:href="#DejaVuSans-49" transform="translate(466.517578 0)"/>
       <use xlink:href="#DejaVuSans-41" transform="translate(496.009766 0)"/>
       <use xlink:href="#DejaVuSans-53" transform="translate(564.417969 0)"/>
       <use xlink:href="#DejaVuSans-20" transform="translate(627.894531 0)"/>
       <use xlink:href="#DejaVuSans-50" transform="translate(659.681641 0)"/>
       <use xlink:href="#DejaVuSans-53" transform="translate(719.984375 0)"/>
       <use xlink:href="#DejaVuSans-49" transform="translate(783.460938 0)"/>
       <use xlink:href="#DejaVuSans-43" transform="translate(812.953125 0)"/>
       <use xlink:href="#DejaVuSans-4f" transform="translate(882.777344 0)"/>
       <use xlink:href="#DejaVuSans-41" transform="translate(959.738281 0)"/>
       <use xlink:href="#DejaVuSans-43" transform="translate(1026.396484 0)"/>
       <use xlink:href="#DejaVuSans-54" transform="translate(1096.220703 0)"/>
       <use xlink:href="#DejaVuSans-49" transform="translate(1157.304688 0)"/>
       <use xlink:href="#DejaVuSans-56" transform="translate(1186.796875 0)"/>
       <use xlink:href="#DejaVuSans-41" transform="translate(1248.830078 0)"/>
       <use xlink:href="#DejaVuSans-53" transform="translate(1317.238281 0)"/>
       <use xlink:href="#DejaVuSans-2c" transform="translate(1380.714844 0)"/>
       <use xlink:href="#DejaVuSans-20" transform="translate(1412.501953 0)"/>
       <use xlink:href="#DejaVuSans-54" transform="translate(1444.289062 0)"/>
       <use xlink:href="#DejaVuSans-52" transform="translate(1505.373047 0)"/>
       <use xlink:href="#DejaVuSans-41" transform="translate(1570.855469 0)"/>
       <use xlink:href="#DejaVuSans-53" transform="translate(1639.263672 0)"/>
       <use xlink:href="#DejaVuSans-54" transform="translate(1702.740234 0)"/>
       <use xlink:href="#DejaVuSans-4f" transform="translate(1763.824219 0)"/>
       <use xlink:href="#DejaVuSans-52" transform="translate(1842.535156 0)"/>
       <use xlink:href="#DejaVuSans-4e" transform="translate(1912.017578 0)"/>
       <use xlink:href="#DejaVuSans-4f" transform="translate(1986.822266 0)"/>
      </g>
      <!-- PSICÓTICO -->
      <g style="fill: #555555" transform="translate(146.590312 505.269034) scale(0.09 -0.09)">
       <defs>
        <path id="DejaVuSans-d3" d="M 2522 4238 
Q 1834 4238 1429 3725 
Q 1025 3213 1025 2328 
Q 1025 1447 1429 934 
Q 1834 422 2522 422 
Q 3209 422 3611 934 
Q 4013 1447 4013 2328 
Q 4013 3213 3611 3725 
Q 3209 4238 2522 4238 
z
M 2522 4750 
Q 3503 4750 4090 4092 
Q 4678 3434 4678 2328 
Q 4678 1225 4090 567 
Q 3503 -91 2522 -91 
Q 1538 -91 948 565 
Q 359 1222 359 2328 
Q 359 3434 948 4092 
Q 1538 4750 2522 4750 
z
M 2692 5921 
L 3270 5921 
L 2558 5096 
L 2079 5096 
L 2692 5921 
z
" transform="scale(0.015625)"/>
       </defs>
       <use xlink:href="#DejaVuSans-50"/>
       <use xlink:href="#DejaVuSans-53" transform="translate(60.302734 0)"/>
       <use xlink:href="#DejaVuSans-49" transform="translate(123.779297 0)"/>
       <use xlink:href="#DejaVuSans-43" transform="translate(153.271484 0)"/>
       <use xlink:href="#DejaVuSans-d3" transform="translate(223.095703 0)"/>
       <use xlink:href="#DejaVuSans-54" transform="translate(301.806641 0)"/>
       <use xlink:href="#DejaVuSans-49" transform="translate(362.890625 0)"/>
       <use xlink:href="#DejaVuSans-43" transform="translate(392.382812 0)"/>
       <use xlink:href="#DejaVuSans-4f" transform="translate(462.207031 0)"/>
      </g>
     </g>
    </g>
    <g id="ytick_2">
     <g id="line2d_17">
      <path d="M 202.276094 422.361797 
L 993.396094 422.361797 
" clip-path="url(#p9e3e343e7d)" style="fill: none; stroke: #ffffff; stroke-width: 0.8; stroke-linecap: square"/>
     </g>
     <g id="line2d_18">
      <g>
       <use xlink:href="#me26dc811f7" x="202.276094" y="422.361797" style="fill: #555555; stroke: #555555; stroke-width: 0.8"/>
      </g>
     </g>
     <g id="text_10">
      <!-- TRASTORNO PSICÓTICO AGUDO -->
      <g style="fill: #555555" transform="translate(51.381562 415.989515) scale(0.09 -0.09)">
       <use xlink:href="#DejaVuSans-54"/>
       <use xlink:href="#DejaVuSans-52" transform="translate(61.083984 0)"/>
       <use xlink:href="#DejaVuSans-41" transform="translate(126.566406 0)"/>
       <use xlink:href="#DejaVuSans-53" transform="translate(194.974609 0)"/>
       <use xlink:href="#DejaVuSans-54" transform="translate(258.451172 0)"/>
       <use xlink:href="#DejaVuSans-4f" transform="translate(319.535156 0)"/>
       <use xlink:href="#DejaVuSans-52" transform="translate(398.246094 0)"/>
       <use xlink:href="#DejaVuSans-4e" transform="translate(467.728516 0)"/>
       <use xlink:href="#DejaVuSans-4f" transform="translate(542.533203 0)"/>
       <use xlink:href="#DejaVuSans-20" transform="translate(621.244141 0)"/>
       <use xlink:href="#DejaVuSans-50" transform="translate(653.03125 0)"/>
       <use xlink:href="#DejaVuSans-53" transform="translate(713.333984 0)"/>
       <use xlink:href="#DejaVuSans-49" transform="translate(776.810547 0)"/>
       <use xlink:href="#DejaVuSans-43" transform="translate(806.302734 0)"/>
       <use xlink:href="#DejaVuSans-d3" transform="translate(876.126953 0)"/>
       <use xlink:href="#DejaVuSans-54" transform="translate(954.837891 0)"/>
       <use xlink:href="#DejaVuSans-49" transform="translate(1015.921875 0)"/>
       <use xlink:href="#DejaVuSans-43" transform="translate(1045.414062 0)"/>
       <use xlink:href="#DejaVuSans-4f" transform="translate(1115.238281 0)"/>
       <use xlink:href="#DejaVuSans-20" transform="translate(1193.949219 0)"/>
       <use xlink:href="#DejaVuSans-41" transform="translate(1225.736328 0)"/>
       <use xlink:href="#DejaVuSans-47" transform="translate(1292.394531 0)"/>
       <use xlink:href="#DejaVuSans-55" transform="translate(1369.884766 0)"/>
       <use xlink:href="#DejaVuSans-44" transform="translate(1443.078125 0)"/>
       <use xlink:href="#DejaVuSans-4f" transform="translate(1520.080078 0)"/>
      </g>
      <!-- POLIMORFO, SIN SÍNTOMAS DE -->
      <g style="fill: #555555" transform="translate(55.251562 426.862359) scale(0.09 -0.09)">
       <defs>
        <path id="DejaVuSans-46" d="M 628 4666 
L 3309 4666 
L 3309 4134 
L 1259 4134 
L 1259 2759 
L 3109 2759 
L 3109 2228 
L 1259 2228 
L 1259 0 
L 628 0 
L 628 4666 
z
" transform="scale(0.015625)"/>
        <path id="DejaVuSans-cd" d="M 628 4666 
L 1259 4666 
L 1259 0 
L 628 0 
L 628 4666 
z
M 1116 5921 
L 1694 5921 
L 982 5096 
L 503 5096 
L 1116 5921 
z
" transform="scale(0.015625)"/>
       </defs>
       <use xlink:href="#DejaVuSans-50"/>
       <use xlink:href="#DejaVuSans-4f" transform="translate(60.302734 0)"/>
       <use xlink:href="#DejaVuSans-4c" transform="translate(139.013672 0)"/>
       <use xlink:href="#DejaVuSans-49" transform="translate(194.726562 0)"/>
       <use xlink:href="#DejaVuSans-4d" transform="translate(224.21875 0)"/>
       <use xlink:href="#DejaVuSans-4f" transform="translate(310.498047 0)"/>
       <use xlink:href="#DejaVuSans-52" transform="translate(389.208984 0)"/>
       <use xlink:href="#DejaVuSans-46" transform="translate(458.691406 0)"/>
       <use xlink:href="#DejaVuSans-4f" transform="translate(516.210938 0)"/>
       <use xlink:href="#DejaVuSans-2c" transform="translate(594.921875 0)"/>
       <use xlink:href="#DejaVuSans-20" transform="translate(626.708984 0)"/>
       <use xlink:href="#DejaVuSans-53" transform="translate(658.496094 0)"/>
       <use xlink:href="#DejaVuSans-49" transform="translate(721.972656 0)"/>
       <use xlink:href="#DejaVuSans-4e" transform="translate(751.464844 0)"/>
       <use xlink:href="#DejaVuSans-20" transform="translate(826.269531 0)"/>
       <use xlink:href="#DejaVuSans-53" transform="translate(858.056641 0)"/>
       <use xlink:href="#DejaVuSans-cd" transform="translate(921.533203 0)"/>
       <use xlink:href="#DejaVuSans-4e" transform="translate(951.025391 0)"/>
       <use xlink:href="#DejaVuSans-54" transform="translate(1025.830078 0)"/>
       <use xlink:href="#DejaVuSans-4f" transform="translate(1086.914062 0)"/>
       <use xlink:href="#DejaVuSans-4d" transform="translate(1165.625 0)"/>
       <use xlink:href="#DejaVuSans-41" transform="translate(1251.904297 0)"/>
       <use xlink:href="#DejaVuSans-53" transform="translate(1320.3125 0)"/>
       <use xlink:href="#DejaVuSans-20" transform="translate(1383.789062 0)"/>
       <use xlink:href="#DejaVuSans-44" transform="translate(1415.576172 0)"/>
       <use xlink:href="#DejaVuSans-45" transform="translate(1492.578125 0)"/>
      </g>
      <!-- ESQUIZOFRENIA -->
      <g style="fill: #555555" transform="translate(121.637812 436.94039) scale(0.09 -0.09)">
       <defs>
        <path id="DejaVuSans-51" d="M 2522 4238 
Q 1834 4238 1429 3725 
Q 1025 3213 1025 2328 
Q 1025 1447 1429 934 
Q 1834 422 2522 422 
Q 3209 422 3611 934 
Q 4013 1447 4013 2328 
Q 4013 3213 3611 3725 
Q 3209 4238 2522 4238 
z
M 3406 84 
L 4238 -825 
L 3475 -825 
L 2784 -78 
Q 2681 -84 2626 -87 
Q 2572 -91 2522 -91 
Q 1538 -91 948 567 
Q 359 1225 359 2328 
Q 359 3434 948 4092 
Q 1538 4750 2522 4750 
Q 3503 4750 4090 4092 
Q 4678 3434 4678 2328 
Q 4678 1516 4351 937 
Q 4025 359 3406 84 
z
" transform="scale(0.015625)"/>
        <path id="DejaVuSans-5a" d="M 359 4666 
L 4025 4666 
L 4025 4184 
L 1075 531 
L 4097 531 
L 4097 0 
L 288 0 
L 288 481 
L 3238 4134 
L 359 4134 
L 359 4666 
z
" transform="scale(0.015625)"/>
       </defs>
       <use xlink:href="#DejaVuSans-45"/>
       <use xlink:href="#DejaVuSans-53" transform="translate(63.183594 0)"/>
       <use xlink:href="#DejaVuSans-51" transform="translate(126.660156 0)"/>
       <use xlink:href="#DejaVuSans-55" transform="translate(205.371094 0)"/>
       <use xlink:href="#DejaVuSans-49" transform="translate(278.564453 0)"/>
       <use xlink:href="#DejaVuSans-5a" transform="translate(308.056641 0)"/>
       <use xlink:href="#DejaVuSans-4f" transform="translate(376.5625 0)"/>
       <use xlink:href="#DejaVuSans-46" transform="translate(455.273438 0)"/>
       <use xlink:href="#DejaVuSans-52" transform="translate(512.792969 0)"/>
       <use xlink:href="#DejaVuSans-45" transform="translate(582.275391 0)"/>
       <use xlink:href="#DejaVuSans-4e" transform="translate(645.458984 0)"/>
       <use xlink:href="#DejaVuSans-49" transform="translate(720.263672 0)"/>
       <use xlink:href="#DejaVuSans-41" transform="translate(749.755859 0)"/>
      </g>
     </g>
    </g>
    <g id="ytick_3">
     <g id="line2d_19">
      <path d="M 202.276094 363.713778 
L 993.396094 363.713778 
" clip-path="url(#p9e3e343e7d)" style="fill: none; stroke: #ffffff; stroke-width: 0.8; stroke-linecap: square"/>
     </g>
     <g id="line2d_20">
      <g>
       <use xlink:href="#me26dc811f7" x="202.276094" y="363.713778" style="fill: #555555; stroke: #555555; stroke-width: 0.8"/>
      </g>
     </g>
     <g id="text_11">
      <!-- TRASTORNO AFECTIVO BIPOLAR, -->
      <g style="fill: #555555" transform="translate(47.2725 362.777919) scale(0.09 -0.09)">
       <use xlink:href="#DejaVuSans-54"/>
       <use xlink:href="#DejaVuSans-52" transform="translate(61.083984 0)"/>
       <use xlink:href="#DejaVuSans-41" transform="translate(126.566406 0)"/>
       <use xlink:href="#DejaVuSans-53" transform="translate(194.974609 0)"/>
       <use xlink:href="#DejaVuSans-54" transform="translate(258.451172 0)"/>
       <use xlink:href="#DejaVuSans-4f" transform="translate(319.535156 0)"/>
       <use xlink:href="#DejaVuSans-52" transform="translate(398.246094 0)"/>
       <use xlink:href="#DejaVuSans-4e" transform="translate(467.728516 0)"/>
       <use xlink:href="#DejaVuSans-4f" transform="translate(542.533203 0)"/>
       <use xlink:href="#DejaVuSans-20" transform="translate(621.244141 0)"/>
       <use xlink:href="#DejaVuSans-41" transform="translate(653.03125 0)"/>
       <use xlink:href="#DejaVuSans-46" transform="translate(721.439453 0)"/>
       <use xlink:href="#DejaVuSans-45" transform="translate(778.958984 0)"/>
       <use xlink:href="#DejaVuSans-43" transform="translate(842.142578 0)"/>
       <use xlink:href="#DejaVuSans-54" transform="translate(911.966797 0)"/>
       <use xlink:href="#DejaVuSans-49" transform="translate(973.050781 0)"/>
       <use xlink:href="#DejaVuSans-56" transform="translate(1002.542969 0)"/>
       <use xlink:href="#DejaVuSans-4f" transform="translate(1069.201172 0)"/>
       <use xlink:href="#DejaVuSans-20" transform="translate(1147.912109 0)"/>
       <use xlink:href="#DejaVuSans-42" transform="translate(1179.699219 0)"/>
       <use xlink:href="#DejaVuSans-49" transform="translate(1248.302734 0)"/>
       <use xlink:href="#DejaVuSans-50" transform="translate(1277.794922 0)"/>
       <use xlink:href="#DejaVuSans-4f" transform="translate(1338.097656 0)"/>
       <use xlink:href="#DejaVuSans-4c" transform="translate(1416.808594 0)"/>
       <use xlink:href="#DejaVuSans-41" transform="translate(1474.771484 0)"/>
       <use xlink:href="#DejaVuSans-52" transform="translate(1543.179688 0)"/>
       <use xlink:href="#DejaVuSans-2c" transform="translate(1612.662109 0)"/>
      </g>
      <!-- ACTUALMENTE EN REMISIÓN -->
      <g style="fill: #555555" transform="translate(65.680312 372.85595) scale(0.09 -0.09)">
       <use xlink:href="#DejaVuSans-41"/>
       <use xlink:href="#DejaVuSans-43" transform="translate(66.658203 0)"/>
       <use xlink:href="#DejaVuSans-54" transform="translate(136.482422 0)"/>
       <use xlink:href="#DejaVuSans-55" transform="translate(197.566406 0)"/>
       <use xlink:href="#DejaVuSans-41" transform="translate(270.759766 0)"/>
       <use xlink:href="#DejaVuSans-4c" transform="translate(339.167969 0)"/>
       <use xlink:href="#DejaVuSans-4d" transform="translate(394.880859 0)"/>
       <use xlink:href="#DejaVuSans-45" transform="translate(481.160156 0)"/>
       <use xlink:href="#DejaVuSans-4e" transform="translate(544.34375 0)"/>
       <use xlink:href="#DejaVuSans-54" transform="translate(619.148438 0)"/>
       <use xlink:href="#DejaVuSans-45" transform="translate(680.232422 0)"/>
       <use xlink:href="#DejaVuSans-20" transform="translate(743.416016 0)"/>
       <use xlink:href="#DejaVuSans-45" transform="translate(775.203125 0)"/>
       <use xlink:href="#DejaVuSans-4e" transform="translate(838.386719 0)"/>
       <use xlink:href="#DejaVuSans-20" transform="translate(913.191406 0)"/>
       <use xlink:href="#DejaVuSans-52" transform="translate(944.978516 0)"/>
       <use xlink:href="#DejaVuSans-45" transform="translate(1014.460938 0)"/>
       <use xlink:href="#DejaVuSans-4d" transform="translate(1077.644531 0)"/>
       <use xlink:href="#DejaVuSans-49" transform="translate(1163.923828 0)"/>
       <use xlink:href="#DejaVuSans-53" transform="translate(1193.416016 0)"/>
       <use xlink:href="#DejaVuSans-49" transform="translate(1256.892578 0)"/>
       <use xlink:href="#DejaVuSans-d3" transform="translate(1286.384766 0)"/>
       <use xlink:href="#DejaVuSans-4e" transform="translate(1365.095703 0)"/>
      </g>
     </g>
    </g>
    <g id="ytick_4">
     <g id="line2d_21">
      <path d="M 202.276094 305.065759 
L 993.396094 305.065759 
" clip-path="url(#p9e3e343e7d)" style="fill: none; stroke: #ffffff; stroke-width: 0.8; stroke-linecap: square"/>
     </g>
     <g id="line2d_22">
      <g>
       <use xlink:href="#me26dc811f7" x="202.276094" y="305.065759" style="fill: #555555; stroke: #555555; stroke-width: 0.8"/>
      </g>
     </g>
     <g id="text_12">
      <!-- TRASTORNO DEPRESIVO RECURRENTE, -->
      <g style="fill: #555555" transform="translate(18.421875 299.090884) scale(0.09 -0.09)">
       <use xlink:href="#DejaVuSans-54"/>
       <use xlink:href="#DejaVuSans-52" transform="translate(61.083984 0)"/>
       <use xlink:href="#DejaVuSans-41" transform="translate(126.566406 0)"/>
       <use xlink:href="#DejaVuSans-53" transform="translate(194.974609 0)"/>
       <use xlink:href="#DejaVuSans-54" transform="translate(258.451172 0)"/>
       <use xlink:href="#DejaVuSans-4f" transform="translate(319.535156 0)"/>
       <use xlink:href="#DejaVuSans-52" transform="translate(398.246094 0)"/>
       <use xlink:href="#DejaVuSans-4e" transform="translate(467.728516 0)"/>
       <use xlink:href="#DejaVuSans-4f" transform="translate(542.533203 0)"/>
       <use xlink:href="#DejaVuSans-20" transform="translate(621.244141 0)"/>
       <use xlink:href="#DejaVuSans-44" transform="translate(653.03125 0)"/>
       <use xlink:href="#DejaVuSans-45" transform="translate(730.033203 0)"/>
       <use xlink:href="#DejaVuSans-50" transform="translate(793.216797 0)"/>
       <use xlink:href="#DejaVuSans-52" transform="translate(853.519531 0)"/>
       <use xlink:href="#DejaVuSans-45" transform="translate(923.001953 0)"/>
       <use xlink:href="#DejaVuSans-53" transform="translate(986.185547 0)"/>
       <use xlink:href="#DejaVuSans-49" transform="translate(1049.662109 0)"/>
       <use xlink:href="#DejaVuSans-56" transform="translate(1079.154297 0)"/>
       <use xlink:href="#DejaVuSans-4f" transform="translate(1145.8125 0)"/>
       <use xlink:href="#DejaVuSans-20" transform="translate(1224.523438 0)"/>
       <use xlink:href="#DejaVuSans-52" transform="translate(1256.310547 0)"/>
       <use xlink:href="#DejaVuSans-45" transform="translate(1325.792969 0)"/>
       <use xlink:href="#DejaVuSans-43" transform="translate(1388.976562 0)"/>
       <use xlink:href="#DejaVuSans-55" transform="translate(1458.800781 0)"/>
       <use xlink:href="#DejaVuSans-52" transform="translate(1531.994141 0)"/>
       <use xlink:href="#DejaVuSans-52" transform="translate(1601.476562 0)"/>
       <use xlink:href="#DejaVuSans-45" transform="translate(1670.958984 0)"/>
       <use xlink:href="#DejaVuSans-4e" transform="translate(1734.142578 0)"/>
       <use xlink:href="#DejaVuSans-54" transform="translate(1808.947266 0)"/>
       <use xlink:href="#DejaVuSans-45" transform="translate(1870.03125 0)"/>
       <use xlink:href="#DejaVuSans-2c" transform="translate(1933.214844 0)"/>
      </g>
      <!-- EPISODIO DEPRESIVO GRAVE PRESENTE -->
      <g style="fill: #555555" transform="translate(15.044062 309.168916) scale(0.09 -0.09)">
       <use xlink:href="#DejaVuSans-45"/>
       <use xlink:href="#DejaVuSans-50" transform="translate(63.183594 0)"/>
       <use xlink:href="#DejaVuSans-49" transform="translate(123.486328 0)"/>
       <use xlink:href="#DejaVuSans-53" transform="translate(152.978516 0)"/>
       <use xlink:href="#DejaVuSans-4f" transform="translate(216.455078 0)"/>
       <use xlink:href="#DejaVuSans-44" transform="translate(295.166016 0)"/>
       <use xlink:href="#DejaVuSans-49" transform="translate(372.167969 0)"/>
       <use xlink:href="#DejaVuSans-4f" transform="translate(401.660156 0)"/>
       <use xlink:href="#DejaVuSans-20" transform="translate(480.371094 0)"/>
       <use xlink:href="#DejaVuSans-44" transform="translate(512.158203 0)"/>
       <use xlink:href="#DejaVuSans-45" transform="translate(589.160156 0)"/>
       <use xlink:href="#DejaVuSans-50" transform="translate(652.34375 0)"/>
       <use xlink:href="#DejaVuSans-52" transform="translate(712.646484 0)"/>
       <use xlink:href="#DejaVuSans-45" transform="translate(782.128906 0)"/>
       <use xlink:href="#DejaVuSans-53" transform="translate(845.3125 0)"/>
       <use xlink:href="#DejaVuSans-49" transform="translate(908.789062 0)"/>
       <use xlink:href="#DejaVuSans-56" transform="translate(938.28125 0)"/>
       <use xlink:href="#DejaVuSans-4f" transform="translate(1004.939453 0)"/>
       <use xlink:href="#DejaVuSans-20" transform="translate(1083.650391 0)"/>
       <use xlink:href="#DejaVuSans-47" transform="translate(1115.4375 0)"/>
       <use xlink:href="#DejaVuSans-52" transform="translate(1192.927734 0)"/>
       <use xlink:href="#DejaVuSans-41" transform="translate(1258.410156 0)"/>
       <use xlink:href="#DejaVuSans-56" transform="translate(1320.443359 0)"/>
       <use xlink:href="#DejaVuSans-45" transform="translate(1388.851562 0)"/>
       <use xlink:href="#DejaVuSans-20" transform="translate(1452.035156 0)"/>
       <use xlink:href="#DejaVuSans-50" transform="translate(1483.822266 0)"/>
       <use xlink:href="#DejaVuSans-52" transform="translate(1544.125 0)"/>
       <use xlink:href="#DejaVuSans-45" transform="translate(1613.607422 0)"/>
       <use xlink:href="#DejaVuSans-53" transform="translate(1676.791016 0)"/>
       <use xlink:href="#DejaVuSans-45" transform="translate(1740.267578 0)"/>
       <use xlink:href="#DejaVuSans-4e" transform="translate(1803.451172 0)"/>
       <use xlink:href="#DejaVuSans-54" transform="translate(1878.255859 0)"/>
       <use xlink:href="#DejaVuSans-45" transform="translate(1939.339844 0)"/>
      </g>
      <!-- SIN SÍNTOMAS PSICÓTICOS -->
      <g style="fill: #555555" transform="translate(72.735469 319.246947) scale(0.09 -0.09)">
       <use xlink:href="#DejaVuSans-53"/>
       <use xlink:href="#DejaVuSans-49" transform="translate(63.476562 0)"/>
       <use xlink:href="#DejaVuSans-4e" transform="translate(92.96875 0)"/>
       <use xlink:href="#DejaVuSans-20" transform="translate(167.773438 0)"/>
       <use xlink:href="#DejaVuSans-53" transform="translate(199.560547 0)"/>
       <use xlink:href="#DejaVuSans-cd" transform="translate(263.037109 0)"/>
       <use xlink:href="#DejaVuSans-4e" transform="translate(292.529297 0)"/>
       <use xlink:href="#DejaVuSans-54" transform="translate(367.333984 0)"/>
       <use xlink:href="#DejaVuSans-4f" transform="translate(428.417969 0)"/>
       <use xlink:href="#DejaVuSans-4d" transform="translate(507.128906 0)"/>
       <use xlink:href="#DejaVuSans-41" transform="translate(593.408203 0)"/>
       <use xlink:href="#DejaVuSans-53" transform="translate(661.816406 0)"/>
       <use xlink:href="#DejaVuSans-20" transform="translate(725.292969 0)"/>
       <use xlink:href="#DejaVuSans-50" transform="translate(757.080078 0)"/>
       <use xlink:href="#DejaVuSans-53" transform="translate(817.382812 0)"/>
       <use xlink:href="#DejaVuSans-49" transform="translate(880.859375 0)"/>
       <use xlink:href="#DejaVuSans-43" transform="translate(910.351562 0)"/>
       <use xlink:href="#DejaVuSans-d3" transform="translate(980.175781 0)"/>
       <use xlink:href="#DejaVuSans-54" transform="translate(1058.886719 0)"/>
       <use xlink:href="#DejaVuSans-49" transform="translate(1119.970703 0)"/>
       <use xlink:href="#DejaVuSans-43" transform="translate(1149.462891 0)"/>
       <use xlink:href="#DejaVuSans-4f" transform="translate(1219.287109 0)"/>
       <use xlink:href="#DejaVuSans-53" transform="translate(1297.998047 0)"/>
      </g>
     </g>
    </g>
    <g id="ytick_5">
     <g id="line2d_23">
      <path d="M 202.276094 246.417741 
L 993.396094 246.417741 
" clip-path="url(#p9e3e343e7d)" style="fill: none; stroke: #ffffff; stroke-width: 0.8; stroke-linecap: square"/>
     </g>
     <g id="line2d_24">
      <g>
       <use xlink:href="#me26dc811f7" x="202.276094" y="246.417741" style="fill: #555555; stroke: #555555; stroke-width: 0.8"/>
      </g>
     </g>
     <g id="text_13">
      <!-- TRASTORNO DE LA PERSONALIDAD -->
      <g style="fill: #555555" transform="translate(36.206719 245.481881) scale(0.09 -0.09)">
       <use xlink:href="#DejaVuSans-54"/>
       <use xlink:href="#DejaVuSans-52" transform="translate(61.083984 0)"/>
       <use xlink:href="#DejaVuSans-41" transform="translate(126.566406 0)"/>
       <use xlink:href="#DejaVuSans-53" transform="translate(194.974609 0)"/>
       <use xlink:href="#DejaVuSans-54" transform="translate(258.451172 0)"/>
       <use xlink:href="#DejaVuSans-4f" transform="translate(319.535156 0)"/>
       <use xlink:href="#DejaVuSans-52" transform="translate(398.246094 0)"/>
       <use xlink:href="#DejaVuSans-4e" transform="translate(467.728516 0)"/>
       <use xlink:href="#DejaVuSans-4f" transform="translate(542.533203 0)"/>
       <use xlink:href="#DejaVuSans-20" transform="translate(621.244141 0)"/>
       <use xlink:href="#DejaVuSans-44" transform="translate(653.03125 0)"/>
       <use xlink:href="#DejaVuSans-45" transform="translate(730.033203 0)"/>
       <use xlink:href="#DejaVuSans-20" transform="translate(793.216797 0)"/>
       <use xlink:href="#DejaVuSans-4c" transform="translate(825.003906 0)"/>
       <use xlink:href="#DejaVuSans-41" transform="translate(882.966797 0)"/>
       <use xlink:href="#DejaVuSans-20" transform="translate(951.375 0)"/>
       <use xlink:href="#DejaVuSans-50" transform="translate(983.162109 0)"/>
       <use xlink:href="#DejaVuSans-45" transform="translate(1043.464844 0)"/>
       <use xlink:href="#DejaVuSans-52" transform="translate(1106.648438 0)"/>
       <use xlink:href="#DejaVuSans-53" transform="translate(1176.130859 0)"/>
       <use xlink:href="#DejaVuSans-4f" transform="translate(1239.607422 0)"/>
       <use xlink:href="#DejaVuSans-4e" transform="translate(1318.318359 0)"/>
       <use xlink:href="#DejaVuSans-41" transform="translate(1393.123047 0)"/>
       <use xlink:href="#DejaVuSans-4c" transform="translate(1461.53125 0)"/>
       <use xlink:href="#DejaVuSans-49" transform="translate(1517.244141 0)"/>
       <use xlink:href="#DejaVuSans-44" transform="translate(1546.736328 0)"/>
       <use xlink:href="#DejaVuSans-41" transform="translate(1621.988281 0)"/>
       <use xlink:href="#DejaVuSans-44" transform="translate(1690.396484 0)"/>
      </g>
      <!-- EMOCIONALMENTE INESTABLE -->
      <g style="fill: #555555" transform="translate(57.96 255.559913) scale(0.09 -0.09)">
       <use xlink:href="#DejaVuSans-45"/>
       <use xlink:href="#DejaVuSans-4d" transform="translate(63.183594 0)"/>
       <use xlink:href="#DejaVuSans-4f" transform="translate(149.462891 0)"/>
       <use xlink:href="#DejaVuSans-43" transform="translate(228.173828 0)"/>
       <use xlink:href="#DejaVuSans-49" transform="translate(297.998047 0)"/>
       <use xlink:href="#DejaVuSans-4f" transform="translate(327.490234 0)"/>
       <use xlink:href="#DejaVuSans-4e" transform="translate(406.201172 0)"/>
       <use xlink:href="#DejaVuSans-41" transform="translate(481.005859 0)"/>
       <use xlink:href="#DejaVuSans-4c" transform="translate(549.414062 0)"/>
       <use xlink:href="#DejaVuSans-4d" transform="translate(605.126953 0)"/>
       <use xlink:href="#DejaVuSans-45" transform="translate(691.40625 0)"/>
       <use xlink:href="#DejaVuSans-4e" transform="translate(754.589844 0)"/>
       <use xlink:href="#DejaVuSans-54" transform="translate(829.394531 0)"/>
       <use xlink:href="#DejaVuSans-45" transform="translate(890.478516 0)"/>
       <use xlink:href="#DejaVuSans-20" transform="translate(953.662109 0)"/>
       <use xlink:href="#DejaVuSans-49" transform="translate(985.449219 0)"/>
       <use xlink:href="#DejaVuSans-4e" transform="translate(1014.941406 0)"/>
       <use xlink:href="#DejaVuSans-45" transform="translate(1089.746094 0)"/>
       <use xlink:href="#DejaVuSans-53" transform="translate(1152.929688 0)"/>
       <use xlink:href="#DejaVuSans-54" transform="translate(1216.40625 0)"/>
       <use xlink:href="#DejaVuSans-41" transform="translate(1269.740234 0)"/>
       <use xlink:href="#DejaVuSans-42" transform="translate(1338.148438 0)"/>
       <use xlink:href="#DejaVuSans-4c" transform="translate(1406.751953 0)"/>
       <use xlink:href="#DejaVuSans-45" transform="translate(1462.464844 0)"/>
      </g>
     </g>
    </g>
    <g id="ytick_6">
     <g id="line2d_25">
      <path d="M 202.276094 187.769722 
L 993.396094 187.769722 
" clip-path="url(#p9e3e343e7d)" style="fill: none; stroke: #ffffff; stroke-width: 0.8; stroke-linecap: square"/>
     </g>
     <g id="line2d_26">
      <g>
       <use xlink:href="#me26dc811f7" x="202.276094" y="187.769722" style="fill: #555555; stroke: #555555; stroke-width: 0.8"/>
      </g>
     </g>
     <g id="text_14">
      <!-- EPISODIO DEPRESIVO MODERADO -->
      <g style="fill: #555555" transform="translate(41.350781 191.189019) scale(0.09 -0.09)">
       <use xlink:href="#DejaVuSans-45"/>
       <use xlink:href="#DejaVuSans-50" transform="translate(63.183594 0)"/>
       <use xlink:href="#DejaVuSans-49" transform="translate(123.486328 0)"/>
       <use xlink:href="#DejaVuSans-53" transform="translate(152.978516 0)"/>
       <use xlink:href="#DejaVuSans-4f" transform="translate(216.455078 0)"/>
       <use xlink:href="#DejaVuSans-44" transform="translate(295.166016 0)"/>
       <use xlink:href="#DejaVuSans-49" transform="translate(372.167969 0)"/>
       <use xlink:href="#DejaVuSans-4f" transform="translate(401.660156 0)"/>
       <use xlink:href="#DejaVuSans-20" transform="translate(480.371094 0)"/>
       <use xlink:href="#DejaVuSans-44" transform="translate(512.158203 0)"/>
       <use xlink:href="#DejaVuSans-45" transform="translate(589.160156 0)"/>
       <use xlink:href="#DejaVuSans-50" transform="translate(652.34375 0)"/>
       <use xlink:href="#DejaVuSans-52" transform="translate(712.646484 0)"/>
       <use xlink:href="#DejaVuSans-45" transform="translate(782.128906 0)"/>
       <use xlink:href="#DejaVuSans-53" transform="translate(845.3125 0)"/>
       <use xlink:href="#DejaVuSans-49" transform="translate(908.789062 0)"/>
       <use xlink:href="#DejaVuSans-56" transform="translate(938.28125 0)"/>
       <use xlink:href="#DejaVuSans-4f" transform="translate(1004.939453 0)"/>
       <use xlink:href="#DejaVuSans-20" transform="translate(1083.650391 0)"/>
       <use xlink:href="#DejaVuSans-4d" transform="translate(1115.4375 0)"/>
       <use xlink:href="#DejaVuSans-4f" transform="translate(1201.716797 0)"/>
       <use xlink:href="#DejaVuSans-44" transform="translate(1280.427734 0)"/>
       <use xlink:href="#DejaVuSans-45" transform="translate(1357.429688 0)"/>
       <use xlink:href="#DejaVuSans-52" transform="translate(1420.613281 0)"/>
       <use xlink:href="#DejaVuSans-41" transform="translate(1486.095703 0)"/>
       <use xlink:href="#DejaVuSans-44" transform="translate(1554.503906 0)"/>
       <use xlink:href="#DejaVuSans-4f" transform="translate(1631.505859 0)"/>
      </g>
     </g>
    </g>
    <g id="ytick_7">
     <g id="line2d_27">
      <path d="M 202.276094 129.121703 
L 993.396094 129.121703 
" clip-path="url(#p9e3e343e7d)" style="fill: none; stroke: #ffffff; stroke-width: 0.8; stroke-linecap: square"/>
     </g>
     <g id="line2d_28">
      <g>
       <use xlink:href="#me26dc811f7" x="202.276094" y="129.121703" style="fill: #555555; stroke: #555555; stroke-width: 0.8"/>
      </g>
     </g>
     <g id="text_15">
      <!-- TRASTORNOS MENTALES Y DEL -->
      <g style="fill: #555555" transform="translate(54.3825 118.107813) scale(0.09 -0.09)">
       <use xlink:href="#DejaVuSans-54"/>
       <use xlink:href="#DejaVuSans-52" transform="translate(61.083984 0)"/>
       <use xlink:href="#DejaVuSans-41" transform="translate(126.566406 0)"/>
       <use xlink:href="#DejaVuSans-53" transform="translate(194.974609 0)"/>
       <use xlink:href="#DejaVuSans-54" transform="translate(258.451172 0)"/>
       <use xlink:href="#DejaVuSans-4f" transform="translate(319.535156 0)"/>
       <use xlink:href="#DejaVuSans-52" transform="translate(398.246094 0)"/>
       <use xlink:href="#DejaVuSans-4e" transform="translate(467.728516 0)"/>
       <use xlink:href="#DejaVuSans-4f" transform="translate(542.533203 0)"/>
       <use xlink:href="#DejaVuSans-53" transform="translate(621.244141 0)"/>
       <use xlink:href="#DejaVuSans-20" transform="translate(684.720703 0)"/>
       <use xlink:href="#DejaVuSans-4d" transform="translate(716.507812 0)"/>
       <use xlink:href="#DejaVuSans-45" transform="translate(802.787109 0)"/>
       <use xlink:href="#DejaVuSans-4e" transform="translate(865.970703 0)"/>
       <use xlink:href="#DejaVuSans-54" transform="translate(940.775391 0)"/>
       <use xlink:href="#DejaVuSans-41" transform="translate(994.109375 0)"/>
       <use xlink:href="#DejaVuSans-4c" transform="translate(1062.517578 0)"/>
       <use xlink:href="#DejaVuSans-45" transform="translate(1118.230469 0)"/>
       <use xlink:href="#DejaVuSans-53" transform="translate(1181.414062 0)"/>
       <use xlink:href="#DejaVuSans-20" transform="translate(1244.890625 0)"/>
       <use xlink:href="#DejaVuSans-59" transform="translate(1276.677734 0)"/>
       <use xlink:href="#DejaVuSans-20" transform="translate(1337.761719 0)"/>
       <use xlink:href="#DejaVuSans-44" transform="translate(1369.548828 0)"/>
       <use xlink:href="#DejaVuSans-45" transform="translate(1446.550781 0)"/>
       <use xlink:href="#DejaVuSans-4c" transform="translate(1509.734375 0)"/>
      </g>
      <!-- COMPORTAMIENTO DEBIDOS AL USO DE -->
      <g style="fill: #555555" transform="translate(13.861406 128.185844) scale(0.09 -0.09)">
       <use xlink:href="#DejaVuSans-43"/>
       <use xlink:href="#DejaVuSans-4f" transform="translate(69.824219 0)"/>
       <use xlink:href="#DejaVuSans-4d" transform="translate(148.535156 0)"/>
       <use xlink:href="#DejaVuSans-50" transform="translate(234.814453 0)"/>
       <use xlink:href="#DejaVuSans-4f" transform="translate(295.117188 0)"/>
       <use xlink:href="#DejaVuSans-52" transform="translate(373.828125 0)"/>
       <use xlink:href="#DejaVuSans-54" transform="translate(436.060547 0)"/>
       <use xlink:href="#DejaVuSans-41" transform="translate(489.394531 0)"/>
       <use xlink:href="#DejaVuSans-4d" transform="translate(557.802734 0)"/>
       <use xlink:href="#DejaVuSans-49" transform="translate(644.082031 0)"/>
       <use xlink:href="#DejaVuSans-45" transform="translate(673.574219 0)"/>
       <use xlink:href="#DejaVuSans-4e" transform="translate(736.757812 0)"/>
       <use xlink:href="#DejaVuSans-54" transform="translate(811.5625 0)"/>
       <use xlink:href="#DejaVuSans-4f" transform="translate(872.646484 0)"/>
       <use xlink:href="#DejaVuSans-20" transform="translate(951.357422 0)"/>
       <use xlink:href="#DejaVuSans-44" transform="translate(983.144531 0)"/>
       <use xlink:href="#DejaVuSans-45" transform="translate(1060.146484 0)"/>
       <use xlink:href="#DejaVuSans-42" transform="translate(1123.330078 0)"/>
       <use xlink:href="#DejaVuSans-49" transform="translate(1191.933594 0)"/>
       <use xlink:href="#DejaVuSans-44" transform="translate(1221.425781 0)"/>
       <use xlink:href="#DejaVuSans-4f" transform="translate(1298.427734 0)"/>
       <use xlink:href="#DejaVuSans-53" transform="translate(1377.138672 0)"/>
       <use xlink:href="#DejaVuSans-20" transform="translate(1440.615234 0)"/>
       <use xlink:href="#DejaVuSans-41" transform="translate(1472.402344 0)"/>
       <use xlink:href="#DejaVuSans-4c" transform="translate(1540.810547 0)"/>
       <use xlink:href="#DejaVuSans-20" transform="translate(1596.523438 0)"/>
       <use xlink:href="#DejaVuSans-55" transform="translate(1628.310547 0)"/>
       <use xlink:href="#DejaVuSans-53" transform="translate(1701.503906 0)"/>
       <use xlink:href="#DejaVuSans-4f" transform="translate(1764.980469 0)"/>
       <use xlink:href="#DejaVuSans-20" transform="translate(1843.691406 0)"/>
       <use xlink:href="#DejaVuSans-44" transform="translate(1875.478516 0)"/>
       <use xlink:href="#DejaVuSans-45" transform="translate(1952.480469 0)"/>
      </g>
      <!-- MÚLTIPLES DROGAS Y AL USO DE OTRAS -->
      <g style="fill: #555555" transform="translate(11.863125 138.263875) scale(0.09 -0.09)">
       <use xlink:href="#DejaVuSans-4d"/>
       <use xlink:href="#DejaVuSans-da" transform="translate(86.279297 0)"/>
       <use xlink:href="#DejaVuSans-4c" transform="translate(159.472656 0)"/>
       <use xlink:href="#DejaVuSans-54" transform="translate(201.435547 0)"/>
       <use xlink:href="#DejaVuSans-49" transform="translate(262.519531 0)"/>
       <use xlink:href="#DejaVuSans-50" transform="translate(292.011719 0)"/>
       <use xlink:href="#DejaVuSans-4c" transform="translate(352.314453 0)"/>
       <use xlink:href="#DejaVuSans-45" transform="translate(408.027344 0)"/>
       <use xlink:href="#DejaVuSans-53" transform="translate(471.210938 0)"/>
       <use xlink:href="#DejaVuSans-20" transform="translate(534.6875 0)"/>
       <use xlink:href="#DejaVuSans-44" transform="translate(566.474609 0)"/>
       <use xlink:href="#DejaVuSans-52" transform="translate(643.476562 0)"/>
       <use xlink:href="#DejaVuSans-4f" transform="translate(712.958984 0)"/>
       <use xlink:href="#DejaVuSans-47" transform="translate(791.669922 0)"/>
       <use xlink:href="#DejaVuSans-41" transform="translate(869.160156 0)"/>
       <use xlink:href="#DejaVuSans-53" transform="translate(937.568359 0)"/>
       <use xlink:href="#DejaVuSans-20" transform="translate(1001.044922 0)"/>
       <use xlink:href="#DejaVuSans-59" transform="translate(1032.832031 0)"/>
       <use xlink:href="#DejaVuSans-20" transform="translate(1093.916016 0)"/>
       <use xlink:href="#DejaVuSans-41" transform="translate(1125.703125 0)"/>
       <use xlink:href="#DejaVuSans-4c" transform="translate(1194.111328 0)"/>
       <use xlink:href="#DejaVuSans-20" transform="translate(1249.824219 0)"/>
       <use xlink:href="#DejaVuSans-55" transform="translate(1281.611328 0)"/>
       <use xlink:href="#DejaVuSans-53" transform="translate(1354.804688 0)"/>
       <use xlink:href="#DejaVuSans-4f" transform="translate(1418.28125 0)"/>
       <use xlink:href="#DejaVuSans-20" transform="translate(1496.992188 0)"/>
       <use xlink:href="#DejaVuSans-44" transform="translate(1528.779297 0)"/>
       <use xlink:href="#DejaVuSans-45" transform="translate(1605.78125 0)"/>
       <use xlink:href="#DejaVuSans-20" transform="translate(1668.964844 0)"/>
       <use xlink:href="#DejaVuSans-4f" transform="translate(1700.751953 0)"/>
       <use xlink:href="#DejaVuSans-54" transform="translate(1779.462891 0)"/>
       <use xlink:href="#DejaVuSans-52" transform="translate(1840.546875 0)"/>
       <use xlink:href="#DejaVuSans-41" transform="translate(1906.029297 0)"/>
       <use xlink:href="#DejaVuSans-53" transform="translate(1974.4375 0)"/>
      </g>
      <!-- SUSTANCIAS PSICOACTIVAS, USO NOCIVO -->
      <g style="fill: #555555" transform="translate(7.2 148.341907) scale(0.09 -0.09)">
       <use xlink:href="#DejaVuSans-53"/>
       <use xlink:href="#DejaVuSans-55" transform="translate(63.476562 0)"/>
       <use xlink:href="#DejaVuSans-53" transform="translate(136.669922 0)"/>
       <use xlink:href="#DejaVuSans-54" transform="translate(200.146484 0)"/>
       <use xlink:href="#DejaVuSans-41" transform="translate(253.480469 0)"/>
       <use xlink:href="#DejaVuSans-4e" transform="translate(321.888672 0)"/>
       <use xlink:href="#DejaVuSans-43" transform="translate(396.693359 0)"/>
       <use xlink:href="#DejaVuSans-49" transform="translate(466.517578 0)"/>
       <use xlink:href="#DejaVuSans-41" transform="translate(496.009766 0)"/>
       <use xlink:href="#DejaVuSans-53" transform="translate(564.417969 0)"/>
       <use xlink:href="#DejaVuSans-20" transform="translate(627.894531 0)"/>
       <use xlink:href="#DejaVuSans-50" transform="translate(659.681641 0)"/>
       <use xlink:href="#DejaVuSans-53" transform="translate(719.984375 0)"/>
       <use xlink:href="#DejaVuSans-49" transform="translate(783.460938 0)"/>
       <use xlink:href="#DejaVuSans-43" transform="translate(812.953125 0)"/>
       <use xlink:href="#DejaVuSans-4f" transform="translate(882.777344 0)"/>
       <use xlink:href="#DejaVuSans-41" transform="translate(959.738281 0)"/>
       <use xlink:href="#DejaVuSans-43" transform="translate(1026.396484 0)"/>
       <use xlink:href="#DejaVuSans-54" transform="translate(1096.220703 0)"/>
       <use xlink:href="#DejaVuSans-49" transform="translate(1157.304688 0)"/>
       <use xlink:href="#DejaVuSans-56" transform="translate(1186.796875 0)"/>
       <use xlink:href="#DejaVuSans-41" transform="translate(1248.830078 0)"/>
       <use xlink:href="#DejaVuSans-53" transform="translate(1317.238281 0)"/>
       <use xlink:href="#DejaVuSans-2c" transform="translate(1380.714844 0)"/>
       <use xlink:href="#DejaVuSans-20" transform="translate(1412.501953 0)"/>
       <use xlink:href="#DejaVuSans-55" transform="translate(1444.289062 0)"/>
       <use xlink:href="#DejaVuSans-53" transform="translate(1517.482422 0)"/>
       <use xlink:href="#DejaVuSans-4f" transform="translate(1580.958984 0)"/>
       <use xlink:href="#DejaVuSans-20" transform="translate(1659.669922 0)"/>
       <use xlink:href="#DejaVuSans-4e" transform="translate(1691.457031 0)"/>
       <use xlink:href="#DejaVuSans-4f" transform="translate(1766.261719 0)"/>
       <use xlink:href="#DejaVuSans-43" transform="translate(1844.972656 0)"/>
       <use xlink:href="#DejaVuSans-49" transform="translate(1914.796875 0)"/>
       <use xlink:href="#DejaVuSans-56" transform="translate(1944.289062 0)"/>
       <use xlink:href="#DejaVuSans-4f" transform="translate(2010.947266 0)"/>
      </g>
     </g>
    </g>
    <g id="ytick_8">
     <g id="line2d_29">
      <path d="M 202.276094 70.473685 
L 993.396094 70.473685 
" clip-path="url(#p9e3e343e7d)" style="fill: none; stroke: #ffffff; stroke-width: 0.8; stroke-linecap: square"/>
     </g>
     <g id="line2d_30">
      <g>
       <use xlink:href="#me26dc811f7" x="202.276094" y="70.473685" style="fill: #555555; stroke: #555555; stroke-width: 0.8"/>
      </g>
     </g>
     <g id="text_16">
      <!-- ESQUIZOFRENIA PARANOIDE -->
      <g style="fill: #555555" transform="translate(66.628125 73.892982) scale(0.09 -0.09)">
       <use xlink:href="#DejaVuSans-45"/>
       <use xlink:href="#DejaVuSans-53" transform="translate(63.183594 0)"/>
       <use xlink:href="#DejaVuSans-51" transform="translate(126.660156 0)"/>
       <use xlink:href="#DejaVuSans-55" transform="translate(205.371094 0)"/>
       <use xlink:href="#DejaVuSans-49" transform="translate(278.564453 0)"/>
       <use xlink:href="#DejaVuSans-5a" transform="translate(308.056641 0)"/>
       <use xlink:href="#DejaVuSans-4f" transform="translate(376.5625 0)"/>
       <use xlink:href="#DejaVuSans-46" transform="translate(455.273438 0)"/>
       <use xlink:href="#DejaVuSans-52" transform="translate(512.792969 0)"/>
       <use xlink:href="#DejaVuSans-45" transform="translate(582.275391 0)"/>
       <use xlink:href="#DejaVuSans-4e" transform="translate(645.458984 0)"/>
       <use xlink:href="#DejaVuSans-49" transform="translate(720.263672 0)"/>
       <use xlink:href="#DejaVuSans-41" transform="translate(749.755859 0)"/>
       <use xlink:href="#DejaVuSans-20" transform="translate(818.164062 0)"/>
       <use xlink:href="#DejaVuSans-50" transform="translate(849.951172 0)"/>
       <use xlink:href="#DejaVuSans-41" transform="translate(903.878906 0)"/>
       <use xlink:href="#DejaVuSans-52" transform="translate(972.287109 0)"/>
       <use xlink:href="#DejaVuSans-41" transform="translate(1037.769531 0)"/>
       <use xlink:href="#DejaVuSans-4e" transform="translate(1106.177734 0)"/>
       <use xlink:href="#DejaVuSans-4f" transform="translate(1180.982422 0)"/>
       <use xlink:href="#DejaVuSans-49" transform="translate(1259.693359 0)"/>
       <use xlink:href="#DejaVuSans-44" transform="translate(1289.185547 0)"/>
       <use xlink:href="#DejaVuSans-45" transform="translate(1366.1875 0)"/>
      </g>
     </g>
    </g>
   </g>
   <g id="patch_3">
    <path d="M 202.276094 504.469023 
L 453.4253 504.469023 
L 453.4253 457.550608 
L 202.276094 457.550608 
z
" clip-path="url(#p9e3e343e7d)" style="fill: #1f77b4; opacity: 0.65; stroke: #000000; stroke-width: 0.5; stroke-linejoin: miter"/>
   </g>
   <g id="patch_4">
    <path d="M 202.276094 445.821004 
L 453.4253 445.821004 
L 453.4253 398.902589 
L 202.276094 398.902589 
z
" clip-path="url(#p9e3e343e7d)" style="fill: #1f77b4; opacity: 0.65; stroke: #000000; stroke-width: 0.5; stroke-linejoin: miter"/>
   </g>
   <g id="patch_5">
    <path d="M 202.276094 387.172985 
L 453.4253 387.172985 
L 453.4253 340.254571 
L 202.276094 340.254571 
z
" clip-path="url(#p9e3e343e7d)" style="fill: #1f77b4; opacity: 0.65; stroke: #000000; stroke-width: 0.5; stroke-linejoin: miter"/>
   </g>
   <g id="patch_6">
    <path d="M 202.276094 328.524967 
L 453.4253 328.524967 
L 453.4253 281.606552 
L 202.276094 281.606552 
z
" clip-path="url(#p9e3e343e7d)" style="fill: #1f77b4; opacity: 0.65; stroke: #000000; stroke-width: 0.5; stroke-linejoin: miter"/>
   </g>
   <g id="patch_7">
    <path d="M 202.276094 269.876948 
L 704.574506 269.876948 
L 704.574506 222.958533 
L 202.276094 222.958533 
z
" clip-path="url(#p9e3e343e7d)" style="fill: #1f77b4; opacity: 0.65; stroke: #000000; stroke-width: 0.5; stroke-linejoin: miter"/>
   </g>
   <g id="patch_8">
    <path d="M 202.276094 211.228929 
L 704.574506 211.228929 
L 704.574506 164.310515 
L 202.276094 164.310515 
z
" clip-path="url(#p9e3e343e7d)" style="fill: #1f77b4; opacity: 0.65; stroke: #000000; stroke-width: 0.5; stroke-linejoin: miter"/>
   </g>
   <g id="patch_9">
    <path d="M 202.276094 152.580911 
L 955.723713 152.580911 
L 955.723713 105.662496 
L 202.276094 105.662496 
z
" clip-path="url(#p9e3e343e7d)" style="fill: #1f77b4; opacity: 0.65; stroke: #000000; stroke-width: 0.5; stroke-linejoin: miter"/>
   </g>
   <g id="patch_10">
    <path d="M 202.276094 93.932892 
L 955.723713 93.932892 
L 955.723713 47.014477 
L 202.276094 47.014477 
z
" clip-path="url(#p9e3e343e7d)" style="fill: #1f77b4; opacity: 0.65; stroke: #000000; stroke-width: 0.5; stroke-linejoin: miter"/>
   </g>
   <g id="patch_11">
    <path d="M 202.276094 527.34175 
L 202.276094 24.14175 
" style="fill: none; stroke: #ffffff; stroke-linejoin: miter; stroke-linecap: square"/>
   </g>
   <g id="patch_12">
    <path d="M 993.396094 527.34175 
L 993.396094 24.14175 
" style="fill: none; stroke: #ffffff; stroke-linejoin: miter; stroke-linecap: square"/>
   </g>
   <g id="patch_13">
    <path d="M 202.276094 527.34175 
L 993.396094 527.34175 
" style="fill: none; stroke: #ffffff; stroke-linejoin: miter; stroke-linecap: square"/>
   </g>
   <g id="patch_14">
    <path d="M 202.276094 24.14175 
L 993.396094 24.14175 
" style="fill: none; stroke: #ffffff; stroke-linejoin: miter; stroke-linecap: square"/>
   </g>
   <g id="text_17">
    <!-- 1 -->
    <g transform="translate(456.4253 483.76919) scale(0.1 -0.1)">
     <use xlink:href="#DejaVuSans-31"/>
    </g>
   </g>
   <g id="text_18">
    <!-- 1 -->
    <g transform="translate(456.4253 425.121172) scale(0.1 -0.1)">
     <use xlink:href="#DejaVuSans-31"/>
    </g>
   </g>
   <g id="text_19">
    <!-- 1 -->
    <g transform="translate(456.4253 366.473153) scale(0.1 -0.1)">
     <use xlink:href="#DejaVuSans-31"/>
    </g>
   </g>
   <g id="text_20">
    <!-- 1 -->
    <g transform="translate(456.4253 307.825134) scale(0.1 -0.1)">
     <use xlink:href="#DejaVuSans-31"/>
    </g>
   </g>
   <g id="text_21">
    <!-- 2 -->
    <g transform="translate(707.574506 249.177116) scale(0.1 -0.1)">
     <use xlink:href="#DejaVuSans-32"/>
    </g>
   </g>
   <g id="text_22">
    <!-- 2 -->
    <g transform="translate(707.574506 190.529097) scale(0.1 -0.1)">
     <use xlink:href="#DejaVuSans-32"/>
    </g>
   </g>
   <g id="text_23">
    <!-- 3 -->
    <g transform="translate(958.723713 131.881078) scale(0.1 -0.1)">
     <use xlink:href="#DejaVuSans-33"/>
    </g>
   </g>
   <g id="text_24">
    <!-- 3 -->
    <g transform="translate(958.723713 73.23306) scale(0.1 -0.1)">
     <use xlink:href="#DejaVuSans-33"/>
    </g>
   </g>
   <g id="text_25">
    <!-- Afecciones principales -->
    <g transform="translate(517.633719 18.14175) scale(0.144 -0.144)">
     <defs>
      <path id="DejaVuSans-66" d="M 2375 4863 
L 2375 4384 
L 1825 4384 
Q 1516 4384 1395 4259 
Q 1275 4134 1275 3809 
L 1275 3500 
L 2222 3500 
L 2222 3053 
L 1275 3053 
L 1275 0 
L 697 0 
L 697 3053 
L 147 3053 
L 147 3500 
L 697 3500 
L 697 3744 
Q 697 4328 969 4595 
Q 1241 4863 1831 4863 
L 2375 4863 
z
" transform="scale(0.015625)"/>
      <path id="DejaVuSans-63" d="M 3122 3366 
L 3122 2828 
Q 2878 2963 2633 3030 
Q 2388 3097 2138 3097 
Q 1578 3097 1268 2742 
Q 959 2388 959 1747 
Q 959 1106 1268 751 
Q 1578 397 2138 397 
Q 2388 397 2633 464 
Q 2878 531 3122 666 
L 3122 134 
Q 2881 22 2623 -34 
Q 2366 -91 2075 -91 
Q 1284 -91 818 406 
Q 353 903 353 1747 
Q 353 2603 823 3093 
Q 1294 3584 2113 3584 
Q 2378 3584 2631 3529 
Q 2884 3475 3122 3366 
z
" transform="scale(0.015625)"/>
      <path id="DejaVuSans-69" d="M 603 3500 
L 1178 3500 
L 1178 0 
L 603 0 
L 603 3500 
z
M 603 4863 
L 1178 4863 
L 1178 4134 
L 603 4134 
L 603 4863 
z
" transform="scale(0.015625)"/>
      <path id="DejaVuSans-6e" d="M 3513 2113 
L 3513 0 
L 2938 0 
L 2938 2094 
Q 2938 2591 2744 2837 
Q 2550 3084 2163 3084 
Q 1697 3084 1428 2787 
Q 1159 2491 1159 1978 
L 1159 0 
L 581 0 
L 581 3500 
L 1159 3500 
L 1159 2956 
Q 1366 3272 1645 3428 
Q 1925 3584 2291 3584 
Q 2894 3584 3203 3211 
Q 3513 2838 3513 2113 
z
" transform="scale(0.015625)"/>
      <path id="DejaVuSans-70" d="M 1159 525 
L 1159 -1331 
L 581 -1331 
L 581 3500 
L 1159 3500 
L 1159 2969 
Q 1341 3281 1617 3432 
Q 1894 3584 2278 3584 
Q 2916 3584 3314 3078 
Q 3713 2572 3713 1747 
Q 3713 922 3314 415 
Q 2916 -91 2278 -91 
Q 1894 -91 1617 61 
Q 1341 213 1159 525 
z
M 3116 1747 
Q 3116 2381 2855 2742 
Q 2594 3103 2138 3103 
Q 1681 3103 1420 2742 
Q 1159 2381 1159 1747 
Q 1159 1113 1420 752 
Q 1681 391 2138 391 
Q 2594 391 2855 752 
Q 3116 1113 3116 1747 
z
" transform="scale(0.015625)"/>
      <path id="DejaVuSans-61" d="M 2194 1759 
Q 1497 1759 1228 1600 
Q 959 1441 959 1056 
Q 959 750 1161 570 
Q 1363 391 1709 391 
Q 2188 391 2477 730 
Q 2766 1069 2766 1631 
L 2766 1759 
L 2194 1759 
z
M 3341 1997 
L 3341 0 
L 2766 0 
L 2766 531 
Q 2569 213 2275 61 
Q 1981 -91 1556 -91 
Q 1019 -91 701 211 
Q 384 513 384 1019 
Q 384 1609 779 1909 
Q 1175 2209 1959 2209 
L 2766 2209 
L 2766 2266 
Q 2766 2663 2505 2880 
Q 2244 3097 1772 3097 
Q 1472 3097 1187 3025 
Q 903 2953 641 2809 
L 641 3341 
Q 956 3463 1253 3523 
Q 1550 3584 1831 3584 
Q 2591 3584 2966 3190 
Q 3341 2797 3341 1997 
z
" transform="scale(0.015625)"/>
      <path id="DejaVuSans-6c" d="M 603 4863 
L 1178 4863 
L 1178 0 
L 603 0 
L 603 4863 
z
" transform="scale(0.015625)"/>
     </defs>
     <use xlink:href="#DejaVuSans-41"/>
     <use xlink:href="#DejaVuSans-66" transform="translate(64.783203 0)"/>
     <use xlink:href="#DejaVuSans-65" transform="translate(99.988281 0)"/>
     <use xlink:href="#DejaVuSans-63" transform="translate(161.511719 0)"/>
     <use xlink:href="#DejaVuSans-63" transform="translate(216.492188 0)"/>
     <use xlink:href="#DejaVuSans-69" transform="translate(271.472656 0)"/>
     <use xlink:href="#DejaVuSans-6f" transform="translate(299.255859 0)"/>
     <use xlink:href="#DejaVuSans-6e" transform="translate(360.4375 0)"/>
     <use xlink:href="#DejaVuSans-65" transform="translate(423.816406 0)"/>
     <use xlink:href="#DejaVuSans-73" transform="translate(485.339844 0)"/>
     <use xlink:href="#DejaVuSans-20" transform="translate(537.439453 0)"/>
     <use xlink:href="#DejaVuSans-70" transform="translate(569.226562 0)"/>
     <use xlink:href="#DejaVuSans-72" transform="translate(632.703125 0)"/>
     <use xlink:href="#DejaVuSans-69" transform="translate(673.816406 0)"/>
     <use xlink:href="#DejaVuSans-6e" transform="translate(701.599609 0)"/>
     <use xlink:href="#DejaVuSans-63" transform="translate(764.978516 0)"/>
     <use xlink:href="#DejaVuSans-69" transform="translate(819.958984 0)"/>
     <use xlink:href="#DejaVuSans-70" transform="translate(847.742188 0)"/>
     <use xlink:href="#DejaVuSans-61" transform="translate(911.21875 0)"/>
     <use xlink:href="#DejaVuSans-6c" transform="translate(972.498047 0)"/>
     <use xlink:href="#DejaVuSans-65" transform="translate(1000.28125 0)"/>
     <use xlink:href="#DejaVuSans-73" transform="translate(1061.804688 0)"/>
    </g>
   </g>
  </g>
 </g>
 <defs>
  <clipPath id="p9e3e343e7d">
   <rect x="202.276094" y="24.14175" width="791.12" height="503.2"/>
  </clipPath>
 </defs>
</svg>
