<?xml version="1.0" encoding="utf-8" standalone="no"?>
<!DOCTYPE svg PUBLIC "-//W3C//DTD SVG 1.1//EN"
  "http://www.w3.org/Graphics/SVG/1.1/DTD/svg11.dtd">
<svg xmlns:xlink="http://www.w3.org/1999/xlink" width="1000.245937pt" height="569.113625pt" viewBox="0 0 1000.245937 569.113625" xmlns="http://www.w3.org/2000/svg" version="1.1">
 <metadata>
  <rdf:RDF xmlns:dc="http://purl.org/dc/elements/1.1/" xmlns:cc="http://creativecommons.org/ns#" xmlns:rdf="http://www.w3.org/1999/02/22-rdf-syntax-ns#">
   <cc:Work>
    <dc:type rdf:resource="http://purl.org/dc/dcmitype/StillImage"/>
    <dc:date>2026-02-13T12:43:03.097517</dc:date>
    <dc:format>image/svg+xml</dc:format>
    <dc:creator>
     <cc:Agent>
      <dc:title>Matplotlib v3.6.3, https://matplotlib.org/</dc:title>
     </cc:Agent>
    </dc:creator>
   </cc:Work>
  </rdf:RDF>
 </metadata>
 <defs>
  <style type="text/css">*{stroke-linejoin: round; stroke-linecap: butt}</style>
 </defs>
 <g id="figure_1">
  <g id="patch_1">
   <path d="M 0 569.113625 
L 1000.245937 569.113625 
L 1000.245937 0 
L 0 0 
z
" style="fill: #ffffff"/>
  </g>
  <g id="axes_1">
   <g id="patch_2">
    <path d="M 203.905937 529.14175 
L 993.045938 529.14175 
L 993.045938 24.14175 
L 203.905937 24.14175 
z
" style="fill: #e5e5e5"/>
   </g>
   <g id="matplotlib.axis_1">
    <g id="xtick_1">
     <g id="line2d_1">
      <path d="M 203.905937 529.14175 
L 203.905937 24.14175 
" clip-path="url(#p3a40250bd8)" style="fill: none; stroke: #ffffff; stroke-width: 0.8; stroke-linecap: square"/>
     </g>
     <g id="line2d_2">
      <defs>
       <path id="m322558d927" d="M 0 0 
L 0 3.5 
" style="stroke: #555555; stroke-width: 0.8"/>
      </defs>
      <g>
       <use xlink:href="#m322558d927" x="203.905937" y="529.14175" style="fill: #555555; stroke: #555555; stroke-width: 0.8"/>
      </g>
     </g>
     <g id="text_1">
      <!-- 0 -->
      <g style="fill: #555555" transform="translate(200.724687 543.740187) scale(0.1 -0.1)">
       <defs>
        <path id="DejaVuSans-30" d="M 2034 4250 
Q 1547 4250 1301 3770 
Q 1056 3291 1056 2328 
Q 1056 1369 1301 889 
Q 1547 409 2034 409 
Q 2525 409 2770 889 
Q 3016 1369 3016 2328 
Q 3016 3291 2770 3770 
Q 2525 4250 2034 4250 
z
M 2034 4750 
Q 2819 4750 3233 4129 
Q 3647 3509 3647 2328 
Q 3647 1150 3233 529 
Q 2819 -91 2034 -91 
Q 1250 -91 836 529 
Q 422 1150 422 2328 
Q 422 3509 836 4129 
Q 1250 4750 2034 4750 
z
" transform="scale(0.015625)"/>
       </defs>
       <use xlink:href="#DejaVuSans-30"/>
      </g>
     </g>
    </g>
    <g id="xtick_2">
     <g id="line2d_3">
      <path d="M 306.020327 529.14175 
L 306.020327 24.14175 
" clip-path="url(#p3a40250bd8)" style="fill: none; stroke: #ffffff; stroke-width: 0.8; stroke-linecap: square"/>
     </g>
     <g id="line2d_4">
      <g>
       <use xlink:href="#m322558d927" x="306.020327" y="529.14175" style="fill: #555555; stroke: #555555; stroke-width: 0.8"/>
      </g>
     </g>
     <g id="text_2">
      <!-- 50 -->
      <g style="fill: #555555" transform="translate(299.657827 543.740187) scale(0.1 -0.1)">
       <defs>
        <path id="DejaVuSans-35" d="M 691 4666 
L 3169 4666 
L 3169 4134 
L 1269 4134 
L 1269 2991 
Q 1406 3038 1543 3061 
Q 1681 3084 1819 3084 
Q 2600 3084 3056 2656 
Q 3513 2228 3513 1497 
Q 3513 744 3044 326 
Q 2575 -91 1722 -91 
Q 1428 -91 1123 -41 
Q 819 9 494 109 
L 494 744 
Q 775 591 1075 516 
Q 1375 441 1709 441 
Q 2250 441 2565 725 
Q 2881 1009 2881 1497 
Q 2881 1984 2565 2268 
Q 2250 2553 1709 2553 
Q 1456 2553 1204 2497 
Q 953 2441 691 2322 
L 691 4666 
z
" transform="scale(0.015625)"/>
       </defs>
       <use xlink:href="#DejaVuSans-35"/>
       <use xlink:href="#DejaVuSans-30" x="63.623047"/>
      </g>
     </g>
    </g>
    <g id="xtick_3">
     <g id="line2d_5">
      <path d="M 408.134716 529.14175 
L 408.134716 24.14175 
" clip-path="url(#p3a40250bd8)" style="fill: none; stroke: #ffffff; stroke-width: 0.8; stroke-linecap: square"/>
     </g>
     <g id="line2d_6">
      <g>
       <use xlink:href="#m322558d927" x="408.134716" y="529.14175" style="fill: #555555; stroke: #555555; stroke-width: 0.8"/>
      </g>
     </g>
     <g id="text_3">
      <!-- 100 -->
      <g style="fill: #555555" transform="translate(398.590966 543.740187) scale(0.1 -0.1)">
       <defs>
        <path id="DejaVuSans-31" d="M 794 531 
L 1825 531 
L 1825 4091 
L 703 3866 
L 703 4441 
L 1819 4666 
L 2450 4666 
L 2450 531 
L 3481 531 
L 3481 0 
L 794 0 
L 794 531 
z
" transform="scale(0.015625)"/>
       </defs>
       <use xlink:href="#DejaVuSans-31"/>
       <use xlink:href="#DejaVuSans-30" x="63.623047"/>
       <use xlink:href="#DejaVuSans-30" x="127.246094"/>
      </g>
     </g>
    </g>
    <g id="xtick_4">
     <g id="line2d_7">
      <path d="M 510.249105 529.14175 
L 510.249105 24.14175 
" clip-path="url(#p3a40250bd8)" style="fill: none; stroke: #ffffff; stroke-width: 0.8; stroke-linecap: square"/>
     </g>
     <g id="line2d_8">
      <g>
       <use xlink:href="#m322558d927" x="510.249105" y="529.14175" style="fill: #555555; stroke: #555555; stroke-width: 0.8"/>
      </g>
     </g>
     <g id="text_4">
      <!-- 150 -->
      <g style="fill: #555555" transform="translate(500.705355 543.740187) scale(0.1 -0.1)">
       <use xlink:href="#DejaVuSans-31"/>
       <use xlink:href="#DejaVuSans-35" x="63.623047"/>
       <use xlink:href="#DejaVuSans-30" x="127.246094"/>
      </g>
     </g>
    </g>
    <g id="xtick_5">
     <g id="line2d_9">
      <path d="M 612.363494 529.14175 
L 612.363494 24.14175 
" clip-path="url(#p3a40250bd8)" style="fill: none; stroke: #ffffff; stroke-width: 0.8; stroke-linecap: square"/>
     </g>
     <g id="line2d_10">
      <g>
       <use xlink:href="#m322558d927" x="612.363494" y="529.14175" style="fill: #555555; stroke: #555555; stroke-width: 0.8"/>
      </g>
     </g>
     <g id="text_5">
      <!-- 200 -->
      <g style="fill: #555555" transform="translate(602.819744 543.740187) scale(0.1 -0.1)">
       <defs>
        <path id="DejaVuSans-32" d="M 1228 531 
L 3431 531 
L 3431 0 
L 469 0 
L 469 531 
Q 828 903 1448 1529 
Q 2069 2156 2228 2338 
Q 2531 2678 2651 2914 
Q 2772 3150 2772 3378 
Q 2772 3750 2511 3984 
Q 2250 4219 1831 4219 
Q 1534 4219 1204 4116 
Q 875 4013 500 3803 
L 500 4441 
Q 881 4594 1212 4672 
Q 1544 4750 1819 4750 
Q 2544 4750 2975 4387 
Q 3406 4025 3406 3419 
Q 3406 3131 3298 2873 
Q 3191 2616 2906 2266 
Q 2828 2175 2409 1742 
Q 1991 1309 1228 531 
z
" transform="scale(0.015625)"/>
       </defs>
       <use xlink:href="#DejaVuSans-32"/>
       <use xlink:href="#DejaVuSans-30" x="63.623047"/>
       <use xlink:href="#DejaVuSans-30" x="127.246094"/>
      </g>
     </g>
    </g>
    <g id="xtick_6">
     <g id="line2d_11">
      <path d="M 714.477884 529.14175 
L 714.477884 24.14175 
" clip-path="url(#p3a40250bd8)" style="fill: none; stroke: #ffffff; stroke-width: 0.8; stroke-linecap: square"/>
     </g>
     <g id="line2d_12">
      <g>
       <use xlink:href="#m322558d927" x="714.477884" y="529.14175" style="fill: #555555; stroke: #555555; stroke-width: 0.8"/>
      </g>
     </g>
     <g id="text_6">
      <!-- 250 -->
      <g style="fill: #555555" transform="translate(704.934134 543.740187) scale(0.1 -0.1)">
       <use xlink:href="#DejaVuSans-32"/>
       <use xlink:href="#DejaVuSans-35" x="63.623047"/>
       <use xlink:href="#DejaVuSans-30" x="127.246094"/>
      </g>
     </g>
    </g>
    <g id="xtick_7">
     <g id="line2d_13">
      <path d="M 816.592273 529.14175 
L 816.592273 24.14175 
" clip-path="url(#p3a40250bd8)" style="fill: none; stroke: #ffffff; stroke-width: 0.8; stroke-linecap: square"/>
     </g>
     <g id="line2d_14">
      <g>
       <use xlink:href="#m322558d927" x="816.592273" y="529.14175" style="fill: #555555; stroke: #555555; stroke-width: 0.8"/>
      </g>
     </g>
     <g id="text_7">
      <!-- 300 -->
      <g style="fill: #555555" transform="translate(807.048523 543.740187) scale(0.1 -0.1)">
       <defs>
        <path id="DejaVuSans-33" d="M 2597 2516 
Q 3050 2419 3304 2112 
Q 3559 1806 3559 1356 
Q 3559 666 3084 287 
Q 2609 -91 1734 -91 
Q 1441 -91 1130 -33 
Q 819 25 488 141 
L 488 750 
Q 750 597 1062 519 
Q 1375 441 1716 441 
Q 2309 441 2620 675 
Q 2931 909 2931 1356 
Q 2931 1769 2642 2001 
Q 2353 2234 1838 2234 
L 1294 2234 
L 1294 2753 
L 1863 2753 
Q 2328 2753 2575 2939 
Q 2822 3125 2822 3475 
Q 2822 3834 2567 4026 
Q 2313 4219 1838 4219 
Q 1578 4219 1281 4162 
Q 984 4106 628 3988 
L 628 4550 
Q 988 4650 1302 4700 
Q 1616 4750 1894 4750 
Q 2613 4750 3031 4423 
Q 3450 4097 3450 3541 
Q 3450 3153 3228 2886 
Q 3006 2619 2597 2516 
z
" transform="scale(0.015625)"/>
       </defs>
       <use xlink:href="#DejaVuSans-33"/>
       <use xlink:href="#DejaVuSans-30" x="63.623047"/>
       <use xlink:href="#DejaVuSans-30" x="127.246094"/>
      </g>
     </g>
    </g>
    <g id="xtick_8">
     <g id="line2d_15">
      <path d="M 918.706662 529.14175 
L 918.706662 24.14175 
" clip-path="url(#p3a40250bd8)" style="fill: none; stroke: #ffffff; stroke-width: 0.8; stroke-linecap: square"/>
     </g>
     <g id="line2d_16">
      <g>
       <use xlink:href="#m322558d927" x="918.706662" y="529.14175" style="fill: #555555; stroke: #555555; stroke-width: 0.8"/>
      </g>
     </g>
     <g id="text_8">
      <!-- 350 -->
      <g style="fill: #555555" transform="translate(909.162912 543.740187) scale(0.1 -0.1)">
       <use xlink:href="#DejaVuSans-33"/>
       <use xlink:href="#DejaVuSans-35" x="63.623047"/>
       <use xlink:href="#DejaVuSans-30" x="127.246094"/>
      </g>
     </g>
    </g>
    <g id="text_9">
     <!-- Número de egresos -->
     <g style="fill: #555555" transform="translate(539.884063 559.418) scale(0.12 -0.12)">
      <defs>
       <path id="DejaVuSans-4e" d="M 628 4666 
L 1478 4666 
L 3547 763 
L 3547 4666 
L 4159 4666 
L 4159 0 
L 3309 0 
L 1241 3903 
L 1241 0 
L 628 0 
L 628 4666 
z
" transform="scale(0.015625)"/>
       <path id="DejaVuSans-fa" d="M 544 1381 
L 544 3500 
L 1119 3500 
L 1119 1403 
Q 1119 906 1312 657 
Q 1506 409 1894 409 
Q 2359 409 2629 706 
Q 2900 1003 2900 1516 
L 2900 3500 
L 3475 3500 
L 3475 0 
L 2900 0 
L 2900 538 
Q 2691 219 2414 64 
Q 2138 -91 1772 -91 
Q 1169 -91 856 284 
Q 544 659 544 1381 
z
M 1991 3584 
L 1991 3584 
z
M 2419 5119 
L 3041 5119 
L 2022 3944 
L 1544 3944 
L 2419 5119 
z
" transform="scale(0.015625)"/>
       <path id="DejaVuSans-6d" d="M 3328 2828 
Q 3544 3216 3844 3400 
Q 4144 3584 4550 3584 
Q 5097 3584 5394 3201 
Q 5691 2819 5691 2113 
L 5691 0 
L 5113 0 
L 5113 2094 
Q 5113 2597 4934 2840 
Q 4756 3084 4391 3084 
Q 3944 3084 3684 2787 
Q 3425 2491 3425 1978 
L 3425 0 
L 2847 0 
L 2847 2094 
Q 2847 2600 2669 2842 
Q 2491 3084 2119 3084 
Q 1678 3084 1418 2786 
Q 1159 2488 1159 1978 
L 1159 0 
L 581 0 
L 581 3500 
L 1159 3500 
L 1159 2956 
Q 1356 3278 1631 3431 
Q 1906 3584 2284 3584 
Q 2666 3584 2933 3390 
Q 3200 3197 3328 2828 
z
" transform="scale(0.015625)"/>
       <path id="DejaVuSans-65" d="M 3597 1894 
L 3597 1613 
L 953 1613 
Q 991 1019 1311 708 
Q 1631 397 2203 397 
Q 2534 397 2845 478 
Q 3156 559 3463 722 
L 3463 178 
Q 3153 47 2828 -22 
Q 2503 -91 2169 -91 
Q 1331 -91 842 396 
Q 353 884 353 1716 
Q 353 2575 817 3079 
Q 1281 3584 2069 3584 
Q 2775 3584 3186 3129 
Q 3597 2675 3597 1894 
z
M 3022 2063 
Q 3016 2534 2758 2815 
Q 2500 3097 2075 3097 
Q 1594 3097 1305 2825 
Q 1016 2553 972 2059 
L 3022 2063 
z
" transform="scale(0.015625)"/>
       <path id="DejaVuSans-72" d="M 2631 2963 
Q 2534 3019 2420 3045 
Q 2306 3072 2169 3072 
Q 1681 3072 1420 2755 
Q 1159 2438 1159 1844 
L 1159 0 
L 581 0 
L 581 3500 
L 1159 3500 
L 1159 2956 
Q 1341 3275 1631 3429 
Q 1922 3584 2338 3584 
Q 2397 3584 2469 3576 
Q 2541 3569 2628 3553 
L 2631 2963 
z
" transform="scale(0.015625)"/>
       <path id="DejaVuSans-6f" d="M 1959 3097 
Q 1497 3097 1228 2736 
Q 959 2375 959 1747 
Q 959 1119 1226 758 
Q 1494 397 1959 397 
Q 2419 397 2687 759 
Q 2956 1122 2956 1747 
Q 2956 2369 2687 2733 
Q 2419 3097 1959 3097 
z
M 1959 3584 
Q 2709 3584 3137 3096 
Q 3566 2609 3566 1747 
Q 3566 888 3137 398 
Q 2709 -91 1959 -91 
Q 1206 -91 779 398 
Q 353 888 353 1747 
Q 353 2609 779 3096 
Q 1206 3584 1959 3584 
z
" transform="scale(0.015625)"/>
       <path id="DejaVuSans-20" transform="scale(0.015625)"/>
       <path id="DejaVuSans-64" d="M 2906 2969 
L 2906 4863 
L 3481 4863 
L 3481 0 
L 2906 0 
L 2906 525 
Q 2725 213 2448 61 
Q 2172 -91 1784 -91 
Q 1150 -91 751 415 
Q 353 922 353 1747 
Q 353 2572 751 3078 
Q 1150 3584 1784 3584 
Q 2172 3584 2448 3432 
Q 2725 3281 2906 2969 
z
M 947 1747 
Q 947 1113 1208 752 
Q 1469 391 1925 391 
Q 2381 391 2643 752 
Q 2906 1113 2906 1747 
Q 2906 2381 2643 2742 
Q 2381 3103 1925 3103 
Q 1469 3103 1208 2742 
Q 947 2381 947 1747 
z
" transform="scale(0.015625)"/>
       <path id="DejaVuSans-67" d="M 2906 1791 
Q 2906 2416 2648 2759 
Q 2391 3103 1925 3103 
Q 1463 3103 1205 2759 
Q 947 2416 947 1791 
Q 947 1169 1205 825 
Q 1463 481 1925 481 
Q 2391 481 2648 825 
Q 2906 1169 2906 1791 
z
M 3481 434 
Q 3481 -459 3084 -895 
Q 2688 -1331 1869 -1331 
Q 1566 -1331 1297 -1286 
Q 1028 -1241 775 -1147 
L 775 -588 
Q 1028 -725 1275 -790 
Q 1522 -856 1778 -856 
Q 2344 -856 2625 -561 
Q 2906 -266 2906 331 
L 2906 616 
Q 2728 306 2450 153 
Q 2172 0 1784 0 
Q 1141 0 747 490 
Q 353 981 353 1791 
Q 353 2603 747 3093 
Q 1141 3584 1784 3584 
Q 2172 3584 2450 3431 
Q 2728 3278 2906 2969 
L 2906 3500 
L 3481 3500 
L 3481 434 
z
" transform="scale(0.015625)"/>
       <path id="DejaVuSans-73" d="M 2834 3397 
L 2834 2853 
Q 2591 2978 2328 3040 
Q 2066 3103 1784 3103 
Q 1356 3103 1142 2972 
Q 928 2841 928 2578 
Q 928 2378 1081 2264 
Q 1234 2150 1697 2047 
L 1894 2003 
Q 2506 1872 2764 1633 
Q 3022 1394 3022 966 
Q 3022 478 2636 193 
Q 2250 -91 1575 -91 
Q 1294 -91 989 -36 
Q 684 19 347 128 
L 347 722 
Q 666 556 975 473 
Q 1284 391 1588 391 
Q 1994 391 2212 530 
Q 2431 669 2431 922 
Q 2431 1156 2273 1281 
Q 2116 1406 1581 1522 
L 1381 1569 
Q 847 1681 609 1914 
Q 372 2147 372 2553 
Q 372 3047 722 3315 
Q 1072 3584 1716 3584 
Q 2034 3584 2315 3537 
Q 2597 3491 2834 3397 
z
" transform="scale(0.015625)"/>
      </defs>
      <use xlink:href="#DejaVuSans-4e"/>
      <use xlink:href="#DejaVuSans-fa" x="74.804688"/>
      <use xlink:href="#DejaVuSans-6d" x="138.183594"/>
      <use xlink:href="#DejaVuSans-65" x="235.595703"/>
      <use xlink:href="#DejaVuSans-72" x="297.119141"/>
      <use xlink:href="#DejaVuSans-6f" x="335.982422"/>
      <use xlink:href="#DejaVuSans-20" x="397.164062"/>
      <use xlink:href="#DejaVuSans-64" x="428.951172"/>
      <use xlink:href="#DejaVuSans-65" x="492.427734"/>
      <use xlink:href="#DejaVuSans-20" x="553.951172"/>
      <use xlink:href="#DejaVuSans-65" x="585.738281"/>
      <use xlink:href="#DejaVuSans-67" x="647.261719"/>
      <use xlink:href="#DejaVuSans-72" x="710.738281"/>
      <use xlink:href="#DejaVuSans-65" x="749.601562"/>
      <use xlink:href="#DejaVuSans-73" x="811.125"/>
      <use xlink:href="#DejaVuSans-6f" x="863.224609"/>
      <use xlink:href="#DejaVuSans-73" x="924.40625"/>
     </g>
    </g>
   </g>
   <g id="matplotlib.axis_2">
    <g id="ytick_1">
     <g id="line2d_17">
      <path d="M 203.905937 487.4488 
L 993.045938 487.4488 
" clip-path="url(#p3a40250bd8)" style="fill: none; stroke: #ffffff; stroke-width: 0.8; stroke-linecap: square"/>
     </g>
     <g id="line2d_18">
      <defs>
       <path id="m18bad1869b" d="M 0 0 
L -3.5 0 
" style="stroke: #555555; stroke-width: 0.8"/>
      </defs>
      <g>
       <use xlink:href="#m18bad1869b" x="203.905937" y="487.4488" style="fill: #555555; stroke: #555555; stroke-width: 0.8"/>
      </g>
     </g>
     <g id="text_10">
      <!-- ECTASIA DE CONDUCTO MAMARIO -->
      <g style="fill: #555555" transform="translate(41.932969 490.868097) scale(0.09 -0.09)">
       <defs>
        <path id="DejaVuSans-45" d="M 628 4666 
L 3578 4666 
L 3578 4134 
L 1259 4134 
L 1259 2753 
L 3481 2753 
L 3481 2222 
L 1259 2222 
L 1259 531 
L 3634 531 
L 3634 0 
L 628 0 
L 628 4666 
z
" transform="scale(0.015625)"/>
        <path id="DejaVuSans-43" d="M 4122 4306 
L 4122 3641 
Q 3803 3938 3442 4084 
Q 3081 4231 2675 4231 
Q 1875 4231 1450 3742 
Q 1025 3253 1025 2328 
Q 1025 1406 1450 917 
Q 1875 428 2675 428 
Q 3081 428 3442 575 
Q 3803 722 4122 1019 
L 4122 359 
Q 3791 134 3420 21 
Q 3050 -91 2638 -91 
Q 1578 -91 968 557 
Q 359 1206 359 2328 
Q 359 3453 968 4101 
Q 1578 4750 2638 4750 
Q 3056 4750 3426 4639 
Q 3797 4528 4122 4306 
z
" transform="scale(0.015625)"/>
        <path id="DejaVuSans-54" d="M -19 4666 
L 3928 4666 
L 3928 4134 
L 2272 4134 
L 2272 0 
L 1638 0 
L 1638 4134 
L -19 4134 
L -19 4666 
z
" transform="scale(0.015625)"/>
        <path id="DejaVuSans-41" d="M 2188 4044 
L 1331 1722 
L 3047 1722 
L 2188 4044 
z
M 1831 4666 
L 2547 4666 
L 4325 0 
L 3669 0 
L 3244 1197 
L 1141 1197 
L 716 0 
L 50 0 
L 1831 4666 
z
" transform="scale(0.015625)"/>
        <path id="DejaVuSans-53" d="M 3425 4513 
L 3425 3897 
Q 3066 4069 2747 4153 
Q 2428 4238 2131 4238 
Q 1616 4238 1336 4038 
Q 1056 3838 1056 3469 
Q 1056 3159 1242 3001 
Q 1428 2844 1947 2747 
L 2328 2669 
Q 3034 2534 3370 2195 
Q 3706 1856 3706 1288 
Q 3706 609 3251 259 
Q 2797 -91 1919 -91 
Q 1588 -91 1214 -16 
Q 841 59 441 206 
L 441 856 
Q 825 641 1194 531 
Q 1563 422 1919 422 
Q 2459 422 2753 634 
Q 3047 847 3047 1241 
Q 3047 1584 2836 1778 
Q 2625 1972 2144 2069 
L 1759 2144 
Q 1053 2284 737 2584 
Q 422 2884 422 3419 
Q 422 4038 858 4394 
Q 1294 4750 2059 4750 
Q 2388 4750 2728 4690 
Q 3069 4631 3425 4513 
z
" transform="scale(0.015625)"/>
        <path id="DejaVuSans-49" d="M 628 4666 
L 1259 4666 
L 1259 0 
L 628 0 
L 628 4666 
z
" transform="scale(0.015625)"/>
        <path id="DejaVuSans-44" d="M 1259 4147 
L 1259 519 
L 2022 519 
Q 2988 519 3436 956 
Q 3884 1394 3884 2338 
Q 3884 3275 3436 3711 
Q 2988 4147 2022 4147 
L 1259 4147 
z
M 628 4666 
L 1925 4666 
Q 3281 4666 3915 4102 
Q 4550 3538 4550 2338 
Q 4550 1131 3912 565 
Q 3275 0 1925 0 
L 628 0 
L 628 4666 
z
" transform="scale(0.015625)"/>
        <path id="DejaVuSans-4f" d="M 2522 4238 
Q 1834 4238 1429 3725 
Q 1025 3213 1025 2328 
Q 1025 1447 1429 934 
Q 1834 422 2522 422 
Q 3209 422 3611 934 
Q 4013 1447 4013 2328 
Q 4013 3213 3611 3725 
Q 3209 4238 2522 4238 
z
M 2522 4750 
Q 3503 4750 4090 4092 
Q 4678 3434 4678 2328 
Q 4678 1225 4090 567 
Q 3503 -91 2522 -91 
Q 1538 -91 948 565 
Q 359 1222 359 2328 
Q 359 3434 948 4092 
Q 1538 4750 2522 4750 
z
" transform="scale(0.015625)"/>
        <path id="DejaVuSans-55" d="M 556 4666 
L 1191 4666 
L 1191 1831 
Q 1191 1081 1462 751 
Q 1734 422 2344 422 
Q 2950 422 3222 751 
Q 3494 1081 3494 1831 
L 3494 4666 
L 4128 4666 
L 4128 1753 
Q 4128 841 3676 375 
Q 3225 -91 2344 -91 
Q 1459 -91 1007 375 
Q 556 841 556 1753 
L 556 4666 
z
" transform="scale(0.015625)"/>
        <path id="DejaVuSans-4d" d="M 628 4666 
L 1569 4666 
L 2759 1491 
L 3956 4666 
L 4897 4666 
L 4897 0 
L 4281 0 
L 4281 4097 
L 3078 897 
L 2444 897 
L 1241 4097 
L 1241 0 
L 628 0 
L 628 4666 
z
" transform="scale(0.015625)"/>
        <path id="DejaVuSans-52" d="M 2841 2188 
Q 3044 2119 3236 1894 
Q 3428 1669 3622 1275 
L 4263 0 
L 3584 0 
L 2988 1197 
Q 2756 1666 2539 1819 
Q 2322 1972 1947 1972 
L 1259 1972 
L 1259 0 
L 628 0 
L 628 4666 
L 2053 4666 
Q 2853 4666 3247 4331 
Q 3641 3997 3641 3322 
Q 3641 2881 3436 2590 
Q 3231 2300 2841 2188 
z
M 1259 4147 
L 1259 2491 
L 2053 2491 
Q 2509 2491 2742 2702 
Q 2975 2913 2975 3322 
Q 2975 3731 2742 3939 
Q 2509 4147 2053 4147 
L 1259 4147 
z
" transform="scale(0.015625)"/>
       </defs>
       <use xlink:href="#DejaVuSans-45"/>
       <use xlink:href="#DejaVuSans-43" x="63.183594"/>
       <use xlink:href="#DejaVuSans-54" x="133.007812"/>
       <use xlink:href="#DejaVuSans-41" x="186.341797"/>
       <use xlink:href="#DejaVuSans-53" x="254.75"/>
       <use xlink:href="#DejaVuSans-49" x="318.226562"/>
       <use xlink:href="#DejaVuSans-41" x="347.71875"/>
       <use xlink:href="#DejaVuSans-20" x="416.126953"/>
       <use xlink:href="#DejaVuSans-44" x="447.914062"/>
       <use xlink:href="#DejaVuSans-45" x="524.916016"/>
       <use xlink:href="#DejaVuSans-20" x="588.099609"/>
       <use xlink:href="#DejaVuSans-43" x="619.886719"/>
       <use xlink:href="#DejaVuSans-4f" x="689.710938"/>
       <use xlink:href="#DejaVuSans-4e" x="768.421875"/>
       <use xlink:href="#DejaVuSans-44" x="843.226562"/>
       <use xlink:href="#DejaVuSans-55" x="920.228516"/>
       <use xlink:href="#DejaVuSans-43" x="993.421875"/>
       <use xlink:href="#DejaVuSans-54" x="1063.246094"/>
       <use xlink:href="#DejaVuSans-4f" x="1124.330078"/>
       <use xlink:href="#DejaVuSans-20" x="1203.041016"/>
       <use xlink:href="#DejaVuSans-4d" x="1234.828125"/>
       <use xlink:href="#DejaVuSans-41" x="1321.107422"/>
       <use xlink:href="#DejaVuSans-4d" x="1389.515625"/>
       <use xlink:href="#DejaVuSans-41" x="1475.794922"/>
       <use xlink:href="#DejaVuSans-52" x="1544.203125"/>
       <use xlink:href="#DejaVuSans-49" x="1613.685547"/>
       <use xlink:href="#DejaVuSans-4f" x="1643.177734"/>
      </g>
     </g>
    </g>
    <g id="ytick_2">
     <g id="line2d_19">
      <path d="M 203.905937 440.602789 
L 993.045938 440.602789 
" clip-path="url(#p3a40250bd8)" style="fill: none; stroke: #ffffff; stroke-width: 0.8; stroke-linecap: square"/>
     </g>
     <g id="line2d_20">
      <g>
       <use xlink:href="#m18bad1869b" x="203.905937" y="440.602789" style="fill: #555555; stroke: #555555; stroke-width: 0.8"/>
      </g>
     </g>
     <g id="text_11">
      <!-- HERNIA UMBILICAL SIN OBSTRUCCIÓN NI -->
      <g style="fill: #555555" transform="translate(12.218906 439.66693) scale(0.09 -0.09)">
       <defs>
        <path id="DejaVuSans-48" d="M 628 4666 
L 1259 4666 
L 1259 2753 
L 3553 2753 
L 3553 4666 
L 4184 4666 
L 4184 0 
L 3553 0 
L 3553 2222 
L 1259 2222 
L 1259 0 
L 628 0 
L 628 4666 
z
" transform="scale(0.015625)"/>
        <path id="DejaVuSans-42" d="M 1259 2228 
L 1259 519 
L 2272 519 
Q 2781 519 3026 730 
Q 3272 941 3272 1375 
Q 3272 1813 3026 2020 
Q 2781 2228 2272 2228 
L 1259 2228 
z
M 1259 4147 
L 1259 2741 
L 2194 2741 
Q 2656 2741 2882 2914 
Q 3109 3088 3109 3444 
Q 3109 3797 2882 3972 
Q 2656 4147 2194 4147 
L 1259 4147 
z
M 628 4666 
L 2241 4666 
Q 2963 4666 3353 4366 
Q 3744 4066 3744 3513 
Q 3744 3084 3544 2831 
Q 3344 2578 2956 2516 
Q 3422 2416 3680 2098 
Q 3938 1781 3938 1306 
Q 3938 681 3513 340 
Q 3088 0 2303 0 
L 628 0 
L 628 4666 
z
" transform="scale(0.015625)"/>
        <path id="DejaVuSans-4c" d="M 628 4666 
L 1259 4666 
L 1259 531 
L 3531 531 
L 3531 0 
L 628 0 
L 628 4666 
z
" transform="scale(0.015625)"/>
        <path id="DejaVuSans-d3" d="M 2522 4238 
Q 1834 4238 1429 3725 
Q 1025 3213 1025 2328 
Q 1025 1447 1429 934 
Q 1834 422 2522 422 
Q 3209 422 3611 934 
Q 4013 1447 4013 2328 
Q 4013 3213 3611 3725 
Q 3209 4238 2522 4238 
z
M 2522 4750 
Q 3503 4750 4090 4092 
Q 4678 3434 4678 2328 
Q 4678 1225 4090 567 
Q 3503 -91 2522 -91 
Q 1538 -91 948 565 
Q 359 1222 359 2328 
Q 359 3434 948 4092 
Q 1538 4750 2522 4750 
z
M 2694 5935 
L 3272 5935 
L 2559 5110 
L 2081 5110 
L 2694 5935 
z
" transform="scale(0.015625)"/>
       </defs>
       <use xlink:href="#DejaVuSans-48"/>
       <use xlink:href="#DejaVuSans-45" x="75.195312"/>
       <use xlink:href="#DejaVuSans-52" x="138.378906"/>
       <use xlink:href="#DejaVuSans-4e" x="207.861328"/>
       <use xlink:href="#DejaVuSans-49" x="282.666016"/>
       <use xlink:href="#DejaVuSans-41" x="312.158203"/>
       <use xlink:href="#DejaVuSans-20" x="380.566406"/>
       <use xlink:href="#DejaVuSans-55" x="412.353516"/>
       <use xlink:href="#DejaVuSans-4d" x="485.546875"/>
       <use xlink:href="#DejaVuSans-42" x="571.826172"/>
       <use xlink:href="#DejaVuSans-49" x="640.429688"/>
       <use xlink:href="#DejaVuSans-4c" x="669.921875"/>
       <use xlink:href="#DejaVuSans-49" x="725.634766"/>
       <use xlink:href="#DejaVuSans-43" x="755.126953"/>
       <use xlink:href="#DejaVuSans-41" x="824.951172"/>
       <use xlink:href="#DejaVuSans-4c" x="893.359375"/>
       <use xlink:href="#DejaVuSans-20" x="949.072266"/>
       <use xlink:href="#DejaVuSans-53" x="980.859375"/>
       <use xlink:href="#DejaVuSans-49" x="1044.335938"/>
       <use xlink:href="#DejaVuSans-4e" x="1073.828125"/>
       <use xlink:href="#DejaVuSans-20" x="1148.632812"/>
       <use xlink:href="#DejaVuSans-4f" x="1180.419922"/>
       <use xlink:href="#DejaVuSans-42" x="1259.130859"/>
       <use xlink:href="#DejaVuSans-53" x="1325.984375"/>
       <use xlink:href="#DejaVuSans-54" x="1389.460938"/>
       <use xlink:href="#DejaVuSans-52" x="1450.544922"/>
       <use xlink:href="#DejaVuSans-55" x="1520.027344"/>
       <use xlink:href="#DejaVuSans-43" x="1593.220703"/>
       <use xlink:href="#DejaVuSans-43" x="1663.044922"/>
       <use xlink:href="#DejaVuSans-49" x="1732.869141"/>
       <use xlink:href="#DejaVuSans-d3" x="1762.361328"/>
       <use xlink:href="#DejaVuSans-4e" x="1841.072266"/>
       <use xlink:href="#DejaVuSans-20" x="1915.876953"/>
       <use xlink:href="#DejaVuSans-4e" x="1947.664062"/>
       <use xlink:href="#DejaVuSans-49" x="2022.46875"/>
      </g>
      <!-- GANGRENA -->
      <g style="fill: #555555" transform="translate(145.238906 449.744961) scale(0.09 -0.09)">
       <defs>
        <path id="DejaVuSans-47" d="M 3809 666 
L 3809 1919 
L 2778 1919 
L 2778 2438 
L 4434 2438 
L 4434 434 
Q 4069 175 3628 42 
Q 3188 -91 2688 -91 
Q 1594 -91 976 548 
Q 359 1188 359 2328 
Q 359 3472 976 4111 
Q 1594 4750 2688 4750 
Q 3144 4750 3555 4637 
Q 3966 4525 4313 4306 
L 4313 3634 
Q 3963 3931 3569 4081 
Q 3175 4231 2741 4231 
Q 1884 4231 1454 3753 
Q 1025 3275 1025 2328 
Q 1025 1384 1454 906 
Q 1884 428 2741 428 
Q 3075 428 3337 486 
Q 3600 544 3809 666 
z
" transform="scale(0.015625)"/>
       </defs>
       <use xlink:href="#DejaVuSans-47"/>
       <use xlink:href="#DejaVuSans-41" x="77.490234"/>
       <use xlink:href="#DejaVuSans-4e" x="145.898438"/>
       <use xlink:href="#DejaVuSans-47" x="220.703125"/>
       <use xlink:href="#DejaVuSans-52" x="298.193359"/>
       <use xlink:href="#DejaVuSans-45" x="367.675781"/>
       <use xlink:href="#DejaVuSans-4e" x="430.859375"/>
       <use xlink:href="#DejaVuSans-41" x="505.664062"/>
      </g>
     </g>
    </g>
    <g id="ytick_3">
     <g id="line2d_21">
      <path d="M 203.905937 393.756778 
L 993.045938 393.756778 
" clip-path="url(#p3a40250bd8)" style="fill: none; stroke: #ffffff; stroke-width: 0.8; stroke-linecap: square"/>
     </g>
     <g id="line2d_22">
      <g>
       <use xlink:href="#m18bad1869b" x="203.905937" y="393.756778" style="fill: #555555; stroke: #555555; stroke-width: 0.8"/>
      </g>
     </g>
     <g id="text_12">
      <!-- TUMOR MALIGNO DE LA PIEL, SITIO NO -->
      <g style="fill: #555555" transform="translate(21.11625 392.820918) scale(0.09 -0.09)">
       <defs>
        <path id="DejaVuSans-50" d="M 1259 4147 
L 1259 2394 
L 2053 2394 
Q 2494 2394 2734 2622 
Q 2975 2850 2975 3272 
Q 2975 3691 2734 3919 
Q 2494 4147 2053 4147 
L 1259 4147 
z
M 628 4666 
L 2053 4666 
Q 2838 4666 3239 4311 
Q 3641 3956 3641 3272 
Q 3641 2581 3239 2228 
Q 2838 1875 2053 1875 
L 1259 1875 
L 1259 0 
L 628 0 
L 628 4666 
z
" transform="scale(0.015625)"/>
        <path id="DejaVuSans-2c" d="M 750 794 
L 1409 794 
L 1409 256 
L 897 -744 
L 494 -744 
L 750 256 
L 750 794 
z
" transform="scale(0.015625)"/>
       </defs>
       <use xlink:href="#DejaVuSans-54"/>
       <use xlink:href="#DejaVuSans-55" x="61.083984"/>
       <use xlink:href="#DejaVuSans-4d" x="134.277344"/>
       <use xlink:href="#DejaVuSans-4f" x="220.556641"/>
       <use xlink:href="#DejaVuSans-52" x="299.267578"/>
       <use xlink:href="#DejaVuSans-20" x="368.75"/>
       <use xlink:href="#DejaVuSans-4d" x="400.537109"/>
       <use xlink:href="#DejaVuSans-41" x="486.816406"/>
       <use xlink:href="#DejaVuSans-4c" x="555.224609"/>
       <use xlink:href="#DejaVuSans-49" x="610.9375"/>
       <use xlink:href="#DejaVuSans-47" x="640.429688"/>
       <use xlink:href="#DejaVuSans-4e" x="717.919922"/>
       <use xlink:href="#DejaVuSans-4f" x="792.724609"/>
       <use xlink:href="#DejaVuSans-20" x="871.435547"/>
       <use xlink:href="#DejaVuSans-44" x="903.222656"/>
       <use xlink:href="#DejaVuSans-45" x="980.224609"/>
       <use xlink:href="#DejaVuSans-20" x="1043.408203"/>
       <use xlink:href="#DejaVuSans-4c" x="1075.195312"/>
       <use xlink:href="#DejaVuSans-41" x="1133.158203"/>
       <use xlink:href="#DejaVuSans-20" x="1201.566406"/>
       <use xlink:href="#DejaVuSans-50" x="1233.353516"/>
       <use xlink:href="#DejaVuSans-49" x="1293.65625"/>
       <use xlink:href="#DejaVuSans-45" x="1323.148438"/>
       <use xlink:href="#DejaVuSans-4c" x="1386.332031"/>
       <use xlink:href="#DejaVuSans-2c" x="1442.044922"/>
       <use xlink:href="#DejaVuSans-20" x="1473.832031"/>
       <use xlink:href="#DejaVuSans-53" x="1505.619141"/>
       <use xlink:href="#DejaVuSans-49" x="1569.095703"/>
       <use xlink:href="#DejaVuSans-54" x="1598.587891"/>
       <use xlink:href="#DejaVuSans-49" x="1659.671875"/>
       <use xlink:href="#DejaVuSans-4f" x="1689.164062"/>
       <use xlink:href="#DejaVuSans-20" x="1767.875"/>
       <use xlink:href="#DejaVuSans-4e" x="1799.662109"/>
       <use xlink:href="#DejaVuSans-4f" x="1874.466797"/>
      </g>
      <!-- ESPECIFICADO -->
      <g style="fill: #555555" transform="translate(131.165156 402.89895) scale(0.09 -0.09)">
       <defs>
        <path id="DejaVuSans-46" d="M 628 4666 
L 3309 4666 
L 3309 4134 
L 1259 4134 
L 1259 2759 
L 3109 2759 
L 3109 2228 
L 1259 2228 
L 1259 0 
L 628 0 
L 628 4666 
z
" transform="scale(0.015625)"/>
       </defs>
       <use xlink:href="#DejaVuSans-45"/>
       <use xlink:href="#DejaVuSans-53" x="63.183594"/>
       <use xlink:href="#DejaVuSans-50" x="126.660156"/>
       <use xlink:href="#DejaVuSans-45" x="186.962891"/>
       <use xlink:href="#DejaVuSans-43" x="250.146484"/>
       <use xlink:href="#DejaVuSans-49" x="319.970703"/>
       <use xlink:href="#DejaVuSans-46" x="349.462891"/>
       <use xlink:href="#DejaVuSans-49" x="406.982422"/>
       <use xlink:href="#DejaVuSans-43" x="436.474609"/>
       <use xlink:href="#DejaVuSans-41" x="506.298828"/>
       <use xlink:href="#DejaVuSans-44" x="574.707031"/>
       <use xlink:href="#DejaVuSans-4f" x="651.708984"/>
      </g>
     </g>
    </g>
    <g id="ytick_4">
     <g id="line2d_23">
      <path d="M 203.905937 346.910767 
L 993.045938 346.910767 
" clip-path="url(#p3a40250bd8)" style="fill: none; stroke: #ffffff; stroke-width: 0.8; stroke-linecap: square"/>
     </g>
     <g id="line2d_24">
      <g>
       <use xlink:href="#m18bad1869b" x="203.905937" y="346.910767" style="fill: #555555; stroke: #555555; stroke-width: 0.8"/>
      </g>
     </g>
     <g id="text_13">
      <!-- TUMOR MALIGNO DE LA MAMA, PARTE NO -->
      <g style="fill: #555555" transform="translate(7.866562 345.974907) scale(0.09 -0.09)">
       <use xlink:href="#DejaVuSans-54"/>
       <use xlink:href="#DejaVuSans-55" x="61.083984"/>
       <use xlink:href="#DejaVuSans-4d" x="134.277344"/>
       <use xlink:href="#DejaVuSans-4f" x="220.556641"/>
       <use xlink:href="#DejaVuSans-52" x="299.267578"/>
       <use xlink:href="#DejaVuSans-20" x="368.75"/>
       <use xlink:href="#DejaVuSans-4d" x="400.537109"/>
       <use xlink:href="#DejaVuSans-41" x="486.816406"/>
       <use xlink:href="#DejaVuSans-4c" x="555.224609"/>
       <use xlink:href="#DejaVuSans-49" x="610.9375"/>
       <use xlink:href="#DejaVuSans-47" x="640.429688"/>
       <use xlink:href="#DejaVuSans-4e" x="717.919922"/>
       <use xlink:href="#DejaVuSans-4f" x="792.724609"/>
       <use xlink:href="#DejaVuSans-20" x="871.435547"/>
       <use xlink:href="#DejaVuSans-44" x="903.222656"/>
       <use xlink:href="#DejaVuSans-45" x="980.224609"/>
       <use xlink:href="#DejaVuSans-20" x="1043.408203"/>
       <use xlink:href="#DejaVuSans-4c" x="1075.195312"/>
       <use xlink:href="#DejaVuSans-41" x="1133.158203"/>
       <use xlink:href="#DejaVuSans-20" x="1201.566406"/>
       <use xlink:href="#DejaVuSans-4d" x="1233.353516"/>
       <use xlink:href="#DejaVuSans-41" x="1319.632812"/>
       <use xlink:href="#DejaVuSans-4d" x="1388.041016"/>
       <use xlink:href="#DejaVuSans-41" x="1474.320312"/>
       <use xlink:href="#DejaVuSans-2c" x="1542.728516"/>
       <use xlink:href="#DejaVuSans-20" x="1574.515625"/>
       <use xlink:href="#DejaVuSans-50" x="1606.302734"/>
       <use xlink:href="#DejaVuSans-41" x="1660.230469"/>
       <use xlink:href="#DejaVuSans-52" x="1728.638672"/>
       <use xlink:href="#DejaVuSans-54" x="1790.871094"/>
       <use xlink:href="#DejaVuSans-45" x="1851.955078"/>
       <use xlink:href="#DejaVuSans-20" x="1915.138672"/>
       <use xlink:href="#DejaVuSans-4e" x="1946.925781"/>
       <use xlink:href="#DejaVuSans-4f" x="2021.730469"/>
      </g>
      <!-- ESPECIFICADA -->
      <g style="fill: #555555" transform="translate(132.250781 356.052939) scale(0.09 -0.09)">
       <use xlink:href="#DejaVuSans-45"/>
       <use xlink:href="#DejaVuSans-53" x="63.183594"/>
       <use xlink:href="#DejaVuSans-50" x="126.660156"/>
       <use xlink:href="#DejaVuSans-45" x="186.962891"/>
       <use xlink:href="#DejaVuSans-43" x="250.146484"/>
       <use xlink:href="#DejaVuSans-49" x="319.970703"/>
       <use xlink:href="#DejaVuSans-46" x="349.462891"/>
       <use xlink:href="#DejaVuSans-49" x="406.982422"/>
       <use xlink:href="#DejaVuSans-43" x="436.474609"/>
       <use xlink:href="#DejaVuSans-41" x="506.298828"/>
       <use xlink:href="#DejaVuSans-44" x="574.707031"/>
       <use xlink:href="#DejaVuSans-41" x="649.958984"/>
      </g>
     </g>
    </g>
    <g id="ytick_5">
     <g id="line2d_25">
      <path d="M 203.905937 300.064756 
L 993.045938 300.064756 
" clip-path="url(#p3a40250bd8)" style="fill: none; stroke: #ffffff; stroke-width: 0.8; stroke-linecap: square"/>
     </g>
     <g id="line2d_26">
      <g>
       <use xlink:href="#m18bad1869b" x="203.905937" y="300.064756" style="fill: #555555; stroke: #555555; stroke-width: 0.8"/>
      </g>
     </g>
     <g id="text_14">
      <!-- TUMOR BENIGNO LIPOMATOSO DE OTROS -->
      <g style="fill: #555555" transform="translate(7.2 299.128896) scale(0.09 -0.09)">
       <use xlink:href="#DejaVuSans-54"/>
       <use xlink:href="#DejaVuSans-55" x="61.083984"/>
       <use xlink:href="#DejaVuSans-4d" x="134.277344"/>
       <use xlink:href="#DejaVuSans-4f" x="220.556641"/>
       <use xlink:href="#DejaVuSans-52" x="299.267578"/>
       <use xlink:href="#DejaVuSans-20" x="368.75"/>
       <use xlink:href="#DejaVuSans-42" x="400.537109"/>
       <use xlink:href="#DejaVuSans-45" x="469.140625"/>
       <use xlink:href="#DejaVuSans-4e" x="532.324219"/>
       <use xlink:href="#DejaVuSans-49" x="607.128906"/>
       <use xlink:href="#DejaVuSans-47" x="636.621094"/>
       <use xlink:href="#DejaVuSans-4e" x="714.111328"/>
       <use xlink:href="#DejaVuSans-4f" x="788.916016"/>
       <use xlink:href="#DejaVuSans-20" x="867.626953"/>
       <use xlink:href="#DejaVuSans-4c" x="899.414062"/>
       <use xlink:href="#DejaVuSans-49" x="955.126953"/>
       <use xlink:href="#DejaVuSans-50" x="984.619141"/>
       <use xlink:href="#DejaVuSans-4f" x="1044.921875"/>
       <use xlink:href="#DejaVuSans-4d" x="1123.632812"/>
       <use xlink:href="#DejaVuSans-41" x="1209.912109"/>
       <use xlink:href="#DejaVuSans-54" x="1270.570312"/>
       <use xlink:href="#DejaVuSans-4f" x="1331.654297"/>
       <use xlink:href="#DejaVuSans-53" x="1410.365234"/>
       <use xlink:href="#DejaVuSans-4f" x="1473.841797"/>
       <use xlink:href="#DejaVuSans-20" x="1552.552734"/>
       <use xlink:href="#DejaVuSans-44" x="1584.339844"/>
       <use xlink:href="#DejaVuSans-45" x="1661.341797"/>
       <use xlink:href="#DejaVuSans-20" x="1724.525391"/>
       <use xlink:href="#DejaVuSans-4f" x="1756.3125"/>
       <use xlink:href="#DejaVuSans-54" x="1835.023438"/>
       <use xlink:href="#DejaVuSans-52" x="1896.107422"/>
       <use xlink:href="#DejaVuSans-4f" x="1965.589844"/>
       <use xlink:href="#DejaVuSans-53" x="2044.300781"/>
      </g>
      <!-- SITIOS ESPECIFICADOS -->
      <g style="fill: #555555" transform="translate(93.272344 309.206927) scale(0.09 -0.09)">
       <use xlink:href="#DejaVuSans-53"/>
       <use xlink:href="#DejaVuSans-49" x="63.476562"/>
       <use xlink:href="#DejaVuSans-54" x="92.96875"/>
       <use xlink:href="#DejaVuSans-49" x="154.052734"/>
       <use xlink:href="#DejaVuSans-4f" x="183.544922"/>
       <use xlink:href="#DejaVuSans-53" x="262.255859"/>
       <use xlink:href="#DejaVuSans-20" x="325.732422"/>
       <use xlink:href="#DejaVuSans-45" x="357.519531"/>
       <use xlink:href="#DejaVuSans-53" x="420.703125"/>
       <use xlink:href="#DejaVuSans-50" x="484.179688"/>
       <use xlink:href="#DejaVuSans-45" x="544.482422"/>
       <use xlink:href="#DejaVuSans-43" x="607.666016"/>
       <use xlink:href="#DejaVuSans-49" x="677.490234"/>
       <use xlink:href="#DejaVuSans-46" x="706.982422"/>
       <use xlink:href="#DejaVuSans-49" x="764.501953"/>
       <use xlink:href="#DejaVuSans-43" x="793.994141"/>
       <use xlink:href="#DejaVuSans-41" x="863.818359"/>
       <use xlink:href="#DejaVuSans-44" x="932.226562"/>
       <use xlink:href="#DejaVuSans-4f" x="1009.228516"/>
       <use xlink:href="#DejaVuSans-53" x="1087.939453"/>
      </g>
     </g>
    </g>
    <g id="ytick_6">
     <g id="line2d_27">
      <path d="M 203.905937 253.218744 
L 993.045938 253.218744 
" clip-path="url(#p3a40250bd8)" style="fill: none; stroke: #ffffff; stroke-width: 0.8; stroke-linecap: square"/>
     </g>
     <g id="line2d_28">
      <g>
       <use xlink:href="#m18bad1869b" x="203.905937" y="253.218744" style="fill: #555555; stroke: #555555; stroke-width: 0.8"/>
      </g>
     </g>
     <g id="text_15">
      <!-- TUMOR BENIGNO DE LA MAMA -->
      <g style="fill: #555555" transform="translate(58.401563 256.638041) scale(0.09 -0.09)">
       <use xlink:href="#DejaVuSans-54"/>
       <use xlink:href="#DejaVuSans-55" x="61.083984"/>
       <use xlink:href="#DejaVuSans-4d" x="134.277344"/>
       <use xlink:href="#DejaVuSans-4f" x="220.556641"/>
       <use xlink:href="#DejaVuSans-52" x="299.267578"/>
       <use xlink:href="#DejaVuSans-20" x="368.75"/>
       <use xlink:href="#DejaVuSans-42" x="400.537109"/>
       <use xlink:href="#DejaVuSans-45" x="469.140625"/>
       <use xlink:href="#DejaVuSans-4e" x="532.324219"/>
       <use xlink:href="#DejaVuSans-49" x="607.128906"/>
       <use xlink:href="#DejaVuSans-47" x="636.621094"/>
       <use xlink:href="#DejaVuSans-4e" x="714.111328"/>
       <use xlink:href="#DejaVuSans-4f" x="788.916016"/>
       <use xlink:href="#DejaVuSans-20" x="867.626953"/>
       <use xlink:href="#DejaVuSans-44" x="899.414062"/>
       <use xlink:href="#DejaVuSans-45" x="976.416016"/>
       <use xlink:href="#DejaVuSans-20" x="1039.599609"/>
       <use xlink:href="#DejaVuSans-4c" x="1071.386719"/>
       <use xlink:href="#DejaVuSans-41" x="1129.349609"/>
       <use xlink:href="#DejaVuSans-20" x="1197.757812"/>
       <use xlink:href="#DejaVuSans-4d" x="1229.544922"/>
       <use xlink:href="#DejaVuSans-41" x="1315.824219"/>
       <use xlink:href="#DejaVuSans-4d" x="1384.232422"/>
       <use xlink:href="#DejaVuSans-41" x="1470.511719"/>
      </g>
     </g>
    </g>
    <g id="ytick_7">
     <g id="line2d_29">
      <path d="M 203.905937 206.372733 
L 993.045938 206.372733 
" clip-path="url(#p3a40250bd8)" style="fill: none; stroke: #ffffff; stroke-width: 0.8; stroke-linecap: square"/>
     </g>
     <g id="line2d_30">
      <g>
       <use xlink:href="#m18bad1869b" x="203.905937" y="206.372733" style="fill: #555555; stroke: #555555; stroke-width: 0.8"/>
      </g>
     </g>
     <g id="text_16">
      <!-- TORSIÓN Y ESTRECHEZ DEL URÉTER SIN -->
      <g style="fill: #555555" transform="translate(13.644844 205.436874) scale(0.09 -0.09)">
       <defs>
        <path id="DejaVuSans-59" d="M -13 4666 
L 666 4666 
L 1959 2747 
L 3244 4666 
L 3922 4666 
L 2272 2222 
L 2272 0 
L 1638 0 
L 1638 2222 
L -13 4666 
z
" transform="scale(0.015625)"/>
        <path id="DejaVuSans-5a" d="M 359 4666 
L 4025 4666 
L 4025 4184 
L 1075 531 
L 4097 531 
L 4097 0 
L 288 0 
L 288 481 
L 3238 4134 
L 359 4134 
L 359 4666 
z
" transform="scale(0.015625)"/>
        <path id="DejaVuSans-c9" d="M 628 4666 
L 3578 4666 
L 3578 4134 
L 1259 4134 
L 1259 2753 
L 3481 2753 
L 3481 2222 
L 1259 2222 
L 1259 531 
L 3634 531 
L 3634 0 
L 628 0 
L 628 4666 
z
M 2266 5935 
L 2844 5935 
L 2131 5110 
L 1653 5110 
L 2266 5935 
z
" transform="scale(0.015625)"/>
       </defs>
       <use xlink:href="#DejaVuSans-54"/>
       <use xlink:href="#DejaVuSans-4f" x="61.083984"/>
       <use xlink:href="#DejaVuSans-52" x="139.794922"/>
       <use xlink:href="#DejaVuSans-53" x="209.277344"/>
       <use xlink:href="#DejaVuSans-49" x="272.753906"/>
       <use xlink:href="#DejaVuSans-d3" x="302.246094"/>
       <use xlink:href="#DejaVuSans-4e" x="380.957031"/>
       <use xlink:href="#DejaVuSans-20" x="455.761719"/>
       <use xlink:href="#DejaVuSans-59" x="487.548828"/>
       <use xlink:href="#DejaVuSans-20" x="548.632812"/>
       <use xlink:href="#DejaVuSans-45" x="580.419922"/>
       <use xlink:href="#DejaVuSans-53" x="643.603516"/>
       <use xlink:href="#DejaVuSans-54" x="707.080078"/>
       <use xlink:href="#DejaVuSans-52" x="768.164062"/>
       <use xlink:href="#DejaVuSans-45" x="837.646484"/>
       <use xlink:href="#DejaVuSans-43" x="900.830078"/>
       <use xlink:href="#DejaVuSans-48" x="970.654297"/>
       <use xlink:href="#DejaVuSans-45" x="1045.849609"/>
       <use xlink:href="#DejaVuSans-5a" x="1109.033203"/>
       <use xlink:href="#DejaVuSans-20" x="1177.539062"/>
       <use xlink:href="#DejaVuSans-44" x="1209.326172"/>
       <use xlink:href="#DejaVuSans-45" x="1286.328125"/>
       <use xlink:href="#DejaVuSans-4c" x="1349.511719"/>
       <use xlink:href="#DejaVuSans-20" x="1405.224609"/>
       <use xlink:href="#DejaVuSans-55" x="1437.011719"/>
       <use xlink:href="#DejaVuSans-52" x="1510.205078"/>
       <use xlink:href="#DejaVuSans-c9" x="1579.6875"/>
       <use xlink:href="#DejaVuSans-54" x="1642.871094"/>
       <use xlink:href="#DejaVuSans-45" x="1703.955078"/>
       <use xlink:href="#DejaVuSans-52" x="1767.138672"/>
       <use xlink:href="#DejaVuSans-20" x="1836.621094"/>
       <use xlink:href="#DejaVuSans-53" x="1868.408203"/>
       <use xlink:href="#DejaVuSans-49" x="1931.884766"/>
       <use xlink:href="#DejaVuSans-4e" x="1961.376953"/>
      </g>
      <!-- HIDRONEFROSIS -->
      <g style="fill: #555555" transform="translate(122.1975 215.514905) scale(0.09 -0.09)">
       <use xlink:href="#DejaVuSans-48"/>
       <use xlink:href="#DejaVuSans-49" x="75.195312"/>
       <use xlink:href="#DejaVuSans-44" x="104.6875"/>
       <use xlink:href="#DejaVuSans-52" x="181.689453"/>
       <use xlink:href="#DejaVuSans-4f" x="251.171875"/>
       <use xlink:href="#DejaVuSans-4e" x="329.882812"/>
       <use xlink:href="#DejaVuSans-45" x="404.6875"/>
       <use xlink:href="#DejaVuSans-46" x="467.871094"/>
       <use xlink:href="#DejaVuSans-52" x="525.390625"/>
       <use xlink:href="#DejaVuSans-4f" x="594.873047"/>
       <use xlink:href="#DejaVuSans-53" x="673.583984"/>
       <use xlink:href="#DejaVuSans-49" x="737.060547"/>
       <use xlink:href="#DejaVuSans-53" x="766.552734"/>
      </g>
     </g>
    </g>
    <g id="ytick_8">
     <g id="line2d_31">
      <path d="M 203.905937 159.526722 
L 993.045938 159.526722 
" clip-path="url(#p3a40250bd8)" style="fill: none; stroke: #ffffff; stroke-width: 0.8; stroke-linecap: square"/>
     </g>
     <g id="line2d_32">
      <g>
       <use xlink:href="#m18bad1869b" x="203.905937" y="159.526722" style="fill: #555555; stroke: #555555; stroke-width: 0.8"/>
      </g>
     </g>
     <g id="text_17">
      <!-- DIENTES INCLUIDOS -->
      <g style="fill: #555555" transform="translate(105.935625 162.946019) scale(0.09 -0.09)">
       <use xlink:href="#DejaVuSans-44"/>
       <use xlink:href="#DejaVuSans-49" x="77.001953"/>
       <use xlink:href="#DejaVuSans-45" x="106.494141"/>
       <use xlink:href="#DejaVuSans-4e" x="169.677734"/>
       <use xlink:href="#DejaVuSans-54" x="244.482422"/>
       <use xlink:href="#DejaVuSans-45" x="305.566406"/>
       <use xlink:href="#DejaVuSans-53" x="368.75"/>
       <use xlink:href="#DejaVuSans-20" x="432.226562"/>
       <use xlink:href="#DejaVuSans-49" x="464.013672"/>
       <use xlink:href="#DejaVuSans-4e" x="493.505859"/>
       <use xlink:href="#DejaVuSans-43" x="568.310547"/>
       <use xlink:href="#DejaVuSans-4c" x="638.134766"/>
       <use xlink:href="#DejaVuSans-55" x="688.847656"/>
       <use xlink:href="#DejaVuSans-49" x="762.041016"/>
       <use xlink:href="#DejaVuSans-44" x="791.533203"/>
       <use xlink:href="#DejaVuSans-4f" x="868.535156"/>
       <use xlink:href="#DejaVuSans-53" x="947.246094"/>
      </g>
     </g>
    </g>
    <g id="ytick_9">
     <g id="line2d_33">
      <path d="M 203.905937 112.680711 
L 993.045938 112.680711 
" clip-path="url(#p3a40250bd8)" style="fill: none; stroke: #ffffff; stroke-width: 0.8; stroke-linecap: square"/>
     </g>
     <g id="line2d_34">
      <g>
       <use xlink:href="#m18bad1869b" x="203.905937" y="112.680711" style="fill: #555555; stroke: #555555; stroke-width: 0.8"/>
      </g>
     </g>
     <g id="text_18">
      <!-- PTERIGIÓN -->
      <g style="fill: #555555" transform="translate(147.940313 116.100008) scale(0.09 -0.09)">
       <use xlink:href="#DejaVuSans-50"/>
       <use xlink:href="#DejaVuSans-54" x="60.302734"/>
       <use xlink:href="#DejaVuSans-45" x="121.386719"/>
       <use xlink:href="#DejaVuSans-52" x="184.570312"/>
       <use xlink:href="#DejaVuSans-49" x="254.052734"/>
       <use xlink:href="#DejaVuSans-47" x="283.544922"/>
       <use xlink:href="#DejaVuSans-49" x="361.035156"/>
       <use xlink:href="#DejaVuSans-d3" x="390.527344"/>
       <use xlink:href="#DejaVuSans-4e" x="469.238281"/>
      </g>
     </g>
    </g>
    <g id="ytick_10">
     <g id="line2d_35">
      <path d="M 203.905937 65.8347 
L 993.045938 65.8347 
" clip-path="url(#p3a40250bd8)" style="fill: none; stroke: #ffffff; stroke-width: 0.8; stroke-linecap: square"/>
     </g>
     <g id="line2d_36">
      <g>
       <use xlink:href="#m18bad1869b" x="203.905937" y="65.8347" style="fill: #555555; stroke: #555555; stroke-width: 0.8"/>
      </g>
     </g>
     <g id="text_19">
      <!-- CATARATA, NO ESPECIFICADA -->
      <g style="fill: #555555" transform="translate(64.843594 69.253997) scale(0.09 -0.09)">
       <use xlink:href="#DejaVuSans-43"/>
       <use xlink:href="#DejaVuSans-41" x="69.824219"/>
       <use xlink:href="#DejaVuSans-54" x="130.482422"/>
       <use xlink:href="#DejaVuSans-41" x="183.816406"/>
       <use xlink:href="#DejaVuSans-52" x="252.224609"/>
       <use xlink:href="#DejaVuSans-41" x="317.707031"/>
       <use xlink:href="#DejaVuSans-54" x="378.365234"/>
       <use xlink:href="#DejaVuSans-41" x="431.699219"/>
       <use xlink:href="#DejaVuSans-2c" x="500.107422"/>
       <use xlink:href="#DejaVuSans-20" x="531.894531"/>
       <use xlink:href="#DejaVuSans-4e" x="563.681641"/>
       <use xlink:href="#DejaVuSans-4f" x="638.486328"/>
       <use xlink:href="#DejaVuSans-20" x="717.197266"/>
       <use xlink:href="#DejaVuSans-45" x="748.984375"/>
       <use xlink:href="#DejaVuSans-53" x="812.167969"/>
       <use xlink:href="#DejaVuSans-50" x="875.644531"/>
       <use xlink:href="#DejaVuSans-45" x="935.947266"/>
       <use xlink:href="#DejaVuSans-43" x="999.130859"/>
       <use xlink:href="#DejaVuSans-49" x="1068.955078"/>
       <use xlink:href="#DejaVuSans-46" x="1098.447266"/>
       <use xlink:href="#DejaVuSans-49" x="1155.966797"/>
       <use xlink:href="#DejaVuSans-43" x="1185.458984"/>
       <use xlink:href="#DejaVuSans-41" x="1255.283203"/>
       <use xlink:href="#DejaVuSans-44" x="1323.691406"/>
       <use xlink:href="#DejaVuSans-41" x="1398.943359"/>
      </g>
     </g>
    </g>
   </g>
   <g id="patch_3">
    <path d="M 203.905937 506.187205 
L 222.286528 506.187205 
L 222.286528 468.710396 
L 203.905937 468.710396 
z
" clip-path="url(#p3a40250bd8)" style="fill: #1f77b4; opacity: 0.65; stroke: #000000; stroke-width: 0.5; stroke-linejoin: miter"/>
   </g>
   <g id="patch_4">
    <path d="M 203.905937 459.341193 
L 224.328815 459.341193 
L 224.328815 421.864385 
L 203.905937 421.864385 
z
" clip-path="url(#p3a40250bd8)" style="fill: #1f77b4; opacity: 0.65; stroke: #000000; stroke-width: 0.5; stroke-linejoin: miter"/>
   </g>
   <g id="patch_5">
    <path d="M 203.905937 412.495182 
L 232.497966 412.495182 
L 232.497966 375.018373 
L 203.905937 375.018373 
z
" clip-path="url(#p3a40250bd8)" style="fill: #1f77b4; opacity: 0.65; stroke: #000000; stroke-width: 0.5; stroke-linejoin: miter"/>
   </g>
   <g id="patch_6">
    <path d="M 203.905937 365.649171 
L 232.497966 365.649171 
L 232.497966 328.172362 
L 203.905937 328.172362 
z
" clip-path="url(#p3a40250bd8)" style="fill: #1f77b4; opacity: 0.65; stroke: #000000; stroke-width: 0.5; stroke-linejoin: miter"/>
   </g>
   <g id="patch_7">
    <path d="M 203.905937 318.80316 
L 250.878557 318.80316 
L 250.878557 281.326351 
L 203.905937 281.326351 
z
" clip-path="url(#p3a40250bd8)" style="fill: #1f77b4; opacity: 0.65; stroke: #000000; stroke-width: 0.5; stroke-linejoin: miter"/>
   </g>
   <g id="patch_8">
    <path d="M 203.905937 271.957149 
L 254.963132 271.957149 
L 254.963132 234.48034 
L 203.905937 234.48034 
z
" clip-path="url(#p3a40250bd8)" style="fill: #1f77b4; opacity: 0.65; stroke: #000000; stroke-width: 0.5; stroke-linejoin: miter"/>
   </g>
   <g id="patch_9">
    <path d="M 203.905937 225.111138 
L 254.963132 225.111138 
L 254.963132 187.634329 
L 203.905937 187.634329 
z
" clip-path="url(#p3a40250bd8)" style="fill: #1f77b4; opacity: 0.65; stroke: #000000; stroke-width: 0.5; stroke-linejoin: miter"/>
   </g>
   <g id="patch_10">
    <path d="M 203.905937 178.265127 
L 273.343722 178.265127 
L 273.343722 140.788318 
L 203.905937 140.788318 
z
" clip-path="url(#p3a40250bd8)" style="fill: #1f77b4; opacity: 0.65; stroke: #000000; stroke-width: 0.5; stroke-linejoin: miter"/>
   </g>
   <g id="patch_11">
    <path d="M 203.905937 131.419115 
L 285.597449 131.419115 
L 285.597449 93.942307 
L 203.905937 93.942307 
z
" clip-path="url(#p3a40250bd8)" style="fill: #1f77b4; opacity: 0.65; stroke: #000000; stroke-width: 0.5; stroke-linejoin: miter"/>
   </g>
   <g id="patch_12">
    <path d="M 203.905937 84.573104 
L 955.467842 84.573104 
L 955.467842 47.096295 
L 203.905937 47.096295 
z
" clip-path="url(#p3a40250bd8)" style="fill: #1f77b4; opacity: 0.65; stroke: #000000; stroke-width: 0.5; stroke-linejoin: miter"/>
   </g>
   <g id="patch_13">
    <path d="M 203.905937 529.14175 
L 203.905937 24.14175 
" style="fill: none; stroke: #ffffff; stroke-linejoin: miter; stroke-linecap: square"/>
   </g>
   <g id="patch_14">
    <path d="M 993.045938 529.14175 
L 993.045938 24.14175 
" style="fill: none; stroke: #ffffff; stroke-linejoin: miter; stroke-linecap: square"/>
   </g>
   <g id="patch_15">
    <path d="M 203.905937 529.14175 
L 993.045938 529.14175 
" style="fill: none; stroke: #ffffff; stroke-linejoin: miter; stroke-linecap: square"/>
   </g>
   <g id="patch_16">
    <path d="M 203.905937 24.14175 
L 993.045938 24.14175 
" style="fill: none; stroke: #ffffff; stroke-linejoin: miter; stroke-linecap: square"/>
   </g>
   <g id="text_20">
    <!-- 9 -->
    <g transform="translate(225.286528 490.208175) scale(0.1 -0.1)">
     <defs>
      <path id="DejaVuSans-39" d="M 703 97 
L 703 672 
Q 941 559 1184 500 
Q 1428 441 1663 441 
Q 2288 441 2617 861 
Q 2947 1281 2994 2138 
Q 2813 1869 2534 1725 
Q 2256 1581 1919 1581 
Q 1219 1581 811 2004 
Q 403 2428 403 3163 
Q 403 3881 828 4315 
Q 1253 4750 1959 4750 
Q 2769 4750 3195 4129 
Q 3622 3509 3622 2328 
Q 3622 1225 3098 567 
Q 2575 -91 1691 -91 
Q 1453 -91 1209 -44 
Q 966 3 703 97 
z
M 1959 2075 
Q 2384 2075 2632 2365 
Q 2881 2656 2881 3163 
Q 2881 3666 2632 3958 
Q 2384 4250 1959 4250 
Q 1534 4250 1286 3958 
Q 1038 3666 1038 3163 
Q 1038 2656 1286 2365 
Q 1534 2075 1959 2075 
z
" transform="scale(0.015625)"/>
     </defs>
     <use xlink:href="#DejaVuSans-39"/>
    </g>
   </g>
   <g id="text_21">
    <!-- 10 -->
    <g transform="translate(227.328815 443.362164) scale(0.1 -0.1)">
     <use xlink:href="#DejaVuSans-31"/>
     <use xlink:href="#DejaVuSans-30" x="63.623047"/>
    </g>
   </g>
   <g id="text_22">
    <!-- 14 -->
    <g transform="translate(235.497966 396.516153) scale(0.1 -0.1)">
     <defs>
      <path id="DejaVuSans-34" d="M 2419 4116 
L 825 1625 
L 2419 1625 
L 2419 4116 
z
M 2253 4666 
L 3047 4666 
L 3047 1625 
L 3713 1625 
L 3713 1100 
L 3047 1100 
L 3047 0 
L 2419 0 
L 2419 1100 
L 313 1100 
L 313 1709 
L 2253 4666 
z
" transform="scale(0.015625)"/>
     </defs>
     <use xlink:href="#DejaVuSans-31"/>
     <use xlink:href="#DejaVuSans-34" x="63.623047"/>
    </g>
   </g>
   <g id="text_23">
    <!-- 14 -->
    <g transform="translate(235.497966 349.670142) scale(0.1 -0.1)">
     <use xlink:href="#DejaVuSans-31"/>
     <use xlink:href="#DejaVuSans-34" x="63.623047"/>
    </g>
   </g>
   <g id="text_24">
    <!-- 23 -->
    <g transform="translate(253.878557 302.824131) scale(0.1 -0.1)">
     <use xlink:href="#DejaVuSans-32"/>
     <use xlink:href="#DejaVuSans-33" x="63.623047"/>
    </g>
   </g>
   <g id="text_25">
    <!-- 25 -->
    <g transform="translate(257.963132 255.978119) scale(0.1 -0.1)">
     <use xlink:href="#DejaVuSans-32"/>
     <use xlink:href="#DejaVuSans-35" x="63.623047"/>
    </g>
   </g>
   <g id="text_26">
    <!-- 25 -->
    <g transform="translate(257.963132 209.132108) scale(0.1 -0.1)">
     <use xlink:href="#DejaVuSans-32"/>
     <use xlink:href="#DejaVuSans-35" x="63.623047"/>
    </g>
   </g>
   <g id="text_27">
    <!-- 34 -->
    <g transform="translate(276.343722 162.286097) scale(0.1 -0.1)">
     <use xlink:href="#DejaVuSans-33"/>
     <use xlink:href="#DejaVuSans-34" x="63.623047"/>
    </g>
   </g>
   <g id="text_28">
    <!-- 40 -->
    <g transform="translate(288.597449 115.440086) scale(0.1 -0.1)">
     <use xlink:href="#DejaVuSans-34"/>
     <use xlink:href="#DejaVuSans-30" x="63.623047"/>
    </g>
   </g>
   <g id="text_29">
    <!-- 368 -->
    <g transform="translate(958.467842 68.594075) scale(0.1 -0.1)">
     <defs>
      <path id="DejaVuSans-36" d="M 2113 2584 
Q 1688 2584 1439 2293 
Q 1191 2003 1191 1497 
Q 1191 994 1439 701 
Q 1688 409 2113 409 
Q 2538 409 2786 701 
Q 3034 994 3034 1497 
Q 3034 2003 2786 2293 
Q 2538 2584 2113 2584 
z
M 3366 4563 
L 3366 3988 
Q 3128 4100 2886 4159 
Q 2644 4219 2406 4219 
Q 1781 4219 1451 3797 
Q 1122 3375 1075 2522 
Q 1259 2794 1537 2939 
Q 1816 3084 2150 3084 
Q 2853 3084 3261 2657 
Q 3669 2231 3669 1497 
Q 3669 778 3244 343 
Q 2819 -91 2113 -91 
Q 1303 -91 875 529 
Q 447 1150 447 2328 
Q 447 3434 972 4092 
Q 1497 4750 2381 4750 
Q 2619 4750 2861 4703 
Q 3103 4656 3366 4563 
z
" transform="scale(0.015625)"/>
      <path id="DejaVuSans-38" d="M 2034 2216 
Q 1584 2216 1326 1975 
Q 1069 1734 1069 1313 
Q 1069 891 1326 650 
Q 1584 409 2034 409 
Q 2484 409 2743 651 
Q 3003 894 3003 1313 
Q 3003 1734 2745 1975 
Q 2488 2216 2034 2216 
z
M 1403 2484 
Q 997 2584 770 2862 
Q 544 3141 544 3541 
Q 544 4100 942 4425 
Q 1341 4750 2034 4750 
Q 2731 4750 3128 4425 
Q 3525 4100 3525 3541 
Q 3525 3141 3298 2862 
Q 3072 2584 2669 2484 
Q 3125 2378 3379 2068 
Q 3634 1759 3634 1313 
Q 3634 634 3220 271 
Q 2806 -91 2034 -91 
Q 1263 -91 848 271 
Q 434 634 434 1313 
Q 434 1759 690 2068 
Q 947 2378 1403 2484 
z
M 1172 3481 
Q 1172 3119 1398 2916 
Q 1625 2713 2034 2713 
Q 2441 2713 2670 2916 
Q 2900 3119 2900 3481 
Q 2900 3844 2670 4047 
Q 2441 4250 2034 4250 
Q 1625 4250 1398 4047 
Q 1172 3844 1172 3481 
z
" transform="scale(0.015625)"/>
     </defs>
     <use xlink:href="#DejaVuSans-33"/>
     <use xlink:href="#DejaVuSans-36" x="63.623047"/>
     <use xlink:href="#DejaVuSans-38" x="127.246094"/>
    </g>
   </g>
   <g id="text_30">
    <!-- Afecciones principales -->
    <g transform="translate(518.273563 18.14175) scale(0.144 -0.144)">
     <defs>
      <path id="DejaVuSans-66" d="M 2375 4863 
L 2375 4384 
L 1825 4384 
Q 1516 4384 1395 4259 
Q 1275 4134 1275 3809 
L 1275 3500 
L 2222 3500 
L 2222 3053 
L 1275 3053 
L 1275 0 
L 697 0 
L 697 3053 
L 147 3053 
L 147 3500 
L 697 3500 
L 697 3744 
Q 697 4328 969 4595 
Q 1241 4863 1831 4863 
L 2375 4863 
z
" transform="scale(0.015625)"/>
      <path id="DejaVuSans-63" d="M 3122 3366 
L 3122 2828 
Q 2878 2963 2633 3030 
Q 2388 3097 2138 3097 
Q 1578 3097 1268 2742 
Q 959 2388 959 1747 
Q 959 1106 1268 751 
Q 1578 397 2138 397 
Q 2388 397 2633 464 
Q 2878 531 3122 666 
L 3122 134 
Q 2881 22 2623 -34 
Q 2366 -91 2075 -91 
Q 1284 -91 818 406 
Q 353 903 353 1747 
Q 353 2603 823 3093 
Q 1294 3584 2113 3584 
Q 2378 3584 2631 3529 
Q 2884 3475 3122 3366 
z
" transform="scale(0.015625)"/>
      <path id="DejaVuSans-69" d="M 603 3500 
L 1178 3500 
L 1178 0 
L 603 0 
L 603 3500 
z
M 603 4863 
L 1178 4863 
L 1178 4134 
L 603 4134 
L 603 4863 
z
" transform="scale(0.015625)"/>
      <path id="DejaVuSans-6e" d="M 3513 2113 
L 3513 0 
L 2938 0 
L 2938 2094 
Q 2938 2591 2744 2837 
Q 2550 3084 2163 3084 
Q 1697 3084 1428 2787 
Q 1159 2491 1159 1978 
L 1159 0 
L 581 0 
L 581 3500 
L 1159 3500 
L 1159 2956 
Q 1366 3272 1645 3428 
Q 1925 3584 2291 3584 
Q 2894 3584 3203 3211 
Q 3513 2838 3513 2113 
z
" transform="scale(0.015625)"/>
      <path id="DejaVuSans-70" d="M 1159 525 
L 1159 -1331 
L 581 -1331 
L 581 3500 
L 1159 3500 
L 1159 2969 
Q 1341 3281 1617 3432 
Q 1894 3584 2278 3584 
Q 2916 3584 3314 3078 
Q 3713 2572 3713 1747 
Q 3713 922 3314 415 
Q 2916 -91 2278 -91 
Q 1894 -91 1617 61 
Q 1341 213 1159 525 
z
M 3116 1747 
Q 3116 2381 2855 2742 
Q 2594 3103 2138 3103 
Q 1681 3103 1420 2742 
Q 1159 2381 1159 1747 
Q 1159 1113 1420 752 
Q 1681 391 2138 391 
Q 2594 391 2855 752 
Q 3116 1113 3116 1747 
z
" transform="scale(0.015625)"/>
      <path id="DejaVuSans-61" d="M 2194 1759 
Q 1497 1759 1228 1600 
Q 959 1441 959 1056 
Q 959 750 1161 570 
Q 1363 391 1709 391 
Q 2188 391 2477 730 
Q 2766 1069 2766 1631 
L 2766 1759 
L 2194 1759 
z
M 3341 1997 
L 3341 0 
L 2766 0 
L 2766 531 
Q 2569 213 2275 61 
Q 1981 -91 1556 -91 
Q 1019 -91 701 211 
Q 384 513 384 1019 
Q 384 1609 779 1909 
Q 1175 2209 1959 2209 
L 2766 2209 
L 2766 2266 
Q 2766 2663 2505 2880 
Q 2244 3097 1772 3097 
Q 1472 3097 1187 3025 
Q 903 2953 641 2809 
L 641 3341 
Q 956 3463 1253 3523 
Q 1550 3584 1831 3584 
Q 2591 3584 2966 3190 
Q 3341 2797 3341 1997 
z
" transform="scale(0.015625)"/>
      <path id="DejaVuSans-6c" d="M 603 4863 
L 1178 4863 
L 1178 0 
L 603 0 
L 603 4863 
z
" transform="scale(0.015625)"/>
     </defs>
     <use xlink:href="#DejaVuSans-41"/>
     <use xlink:href="#DejaVuSans-66" x="64.783203"/>
     <use xlink:href="#DejaVuSans-65" x="99.988281"/>
     <use xlink:href="#DejaVuSans-63" x="161.511719"/>
     <use xlink:href="#DejaVuSans-63" x="216.492188"/>
     <use xlink:href="#DejaVuSans-69" x="271.472656"/>
     <use xlink:href="#DejaVuSans-6f" x="299.255859"/>
     <use xlink:href="#DejaVuSans-6e" x="360.4375"/>
     <use xlink:href="#DejaVuSans-65" x="423.816406"/>
     <use xlink:href="#DejaVuSans-73" x="485.339844"/>
     <use xlink:href="#DejaVuSans-20" x="537.439453"/>
     <use xlink:href="#DejaVuSans-70" x="569.226562"/>
     <use xlink:href="#DejaVuSans-72" x="632.703125"/>
     <use xlink:href="#DejaVuSans-69" x="673.816406"/>
     <use xlink:href="#DejaVuSans-6e" x="701.599609"/>
     <use xlink:href="#DejaVuSans-63" x="764.978516"/>
     <use xlink:href="#DejaVuSans-69" x="819.958984"/>
     <use xlink:href="#DejaVuSans-70" x="847.742188"/>
     <use xlink:href="#DejaVuSans-61" x="911.21875"/>
     <use xlink:href="#DejaVuSans-6c" x="972.498047"/>
     <use xlink:href="#DejaVuSans-65" x="1000.28125"/>
     <use xlink:href="#DejaVuSans-73" x="1061.804688"/>
    </g>
   </g>
  </g>
 </g>
 <defs>
  <clipPath id="p3a40250bd8">
   <rect x="203.905937" y="24.14175" width="789.14" height="505"/>
  </clipPath>
 </defs>
</svg>
