<?xml version="1.0" encoding="utf-8" standalone="no"?>
<!DOCTYPE svg PUBLIC "-//W3C//DTD SVG 1.1//EN"
  "http://www.w3.org/Graphics/SVG/1.1/DTD/svg11.dtd">
<svg xmlns:xlink="http://www.w3.org/1999/xlink" width="856.728142pt" height="568.971875pt" viewBox="0 0 856.728142 568.971875" xmlns="http://www.w3.org/2000/svg" version="1.1">
 <metadata>
  <rdf:RDF xmlns:dc="http://purl.org/dc/elements/1.1/" xmlns:cc="http://creativecommons.org/ns#" xmlns:rdf="http://www.w3.org/1999/02/22-rdf-syntax-ns#">
   <cc:Work>
    <dc:type rdf:resource="http://purl.org/dc/dcmitype/StillImage"/>
    <dc:date>2026-02-07T22:10:13.038390</dc:date>
    <dc:format>image/svg+xml</dc:format>
    <dc:creator>
     <cc:Agent>
      <dc:title>Matplotlib v3.6.3, https://matplotlib.org/</dc:title>
     </cc:Agent>
    </dc:creator>
   </cc:Work>
  </rdf:RDF>
 </metadata>
 <defs>
  <style type="text/css">*{stroke-linejoin: round; stroke-linecap: butt}</style>
 </defs>
 <g id="figure_1">
  <g id="patch_1">
   <path d="M 0 568.971875 
L 856.728142 568.971875 
L 856.728142 0 
L 0 0 
z
" style="fill: #ffffff"/>
  </g>
  <g id="axes_1">
   <g id="patch_2">
    <path d="M 207.681719 529 
L 846.343062 529 
L 846.343062 7.2 
L 207.681719 7.2 
z
" style="fill: #e5e5e5"/>
   </g>
   <g id="matplotlib.axis_1">
    <g id="xtick_1">
     <g id="line2d_1">
      <path d="M 207.681719 529 
L 207.681719 7.2 
" clip-path="url(#pc740f04169)" style="fill: none; stroke: #ffffff; stroke-width: 0.8; stroke-linecap: square"/>
     </g>
     <g id="line2d_2">
      <defs>
       <path id="m4261ef3703" d="M 0 0 
L 0 3.5 
" style="stroke: #555555; stroke-width: 0.8"/>
      </defs>
      <g>
       <use xlink:href="#m4261ef3703" x="207.681719" y="529" style="fill: #555555; stroke: #555555; stroke-width: 0.8"/>
      </g>
     </g>
     <g id="text_1">
      <!-- 0 -->
      <g style="fill: #555555" transform="translate(204.500469 543.598438) scale(0.1 -0.1)">
       <defs>
        <path id="DejaVuSans-30" d="M 2034 4250 
Q 1547 4250 1301 3770 
Q 1056 3291 1056 2328 
Q 1056 1369 1301 889 
Q 1547 409 2034 409 
Q 2525 409 2770 889 
Q 3016 1369 3016 2328 
Q 3016 3291 2770 3770 
Q 2525 4250 2034 4250 
z
M 2034 4750 
Q 2819 4750 3233 4129 
Q 3647 3509 3647 2328 
Q 3647 1150 3233 529 
Q 2819 -91 2034 -91 
Q 1250 -91 836 529 
Q 422 1150 422 2328 
Q 422 3509 836 4129 
Q 1250 4750 2034 4750 
z
" transform="scale(0.015625)"/>
       </defs>
       <use xlink:href="#DejaVuSans-30"/>
      </g>
     </g>
    </g>
    <g id="xtick_2">
     <g id="line2d_3">
      <path d="M 298.465136 529 
L 298.465136 7.2 
" clip-path="url(#pc740f04169)" style="fill: none; stroke: #ffffff; stroke-width: 0.8; stroke-linecap: square"/>
     </g>
     <g id="line2d_4">
      <g>
       <use xlink:href="#m4261ef3703" x="298.465136" y="529" style="fill: #555555; stroke: #555555; stroke-width: 0.8"/>
      </g>
     </g>
     <g id="text_2">
      <!-- 10 -->
      <g style="fill: #555555" transform="translate(292.102636 543.598438) scale(0.1 -0.1)">
       <defs>
        <path id="DejaVuSans-31" d="M 794 531 
L 1825 531 
L 1825 4091 
L 703 3866 
L 703 4441 
L 1819 4666 
L 2450 4666 
L 2450 531 
L 3481 531 
L 3481 0 
L 794 0 
L 794 531 
z
" transform="scale(0.015625)"/>
       </defs>
       <use xlink:href="#DejaVuSans-31"/>
       <use xlink:href="#DejaVuSans-30" x="63.623047"/>
      </g>
     </g>
    </g>
    <g id="xtick_3">
     <g id="line2d_5">
      <path d="M 389.248554 529 
L 389.248554 7.2 
" clip-path="url(#pc740f04169)" style="fill: none; stroke: #ffffff; stroke-width: 0.8; stroke-linecap: square"/>
     </g>
     <g id="line2d_6">
      <g>
       <use xlink:href="#m4261ef3703" x="389.248554" y="529" style="fill: #555555; stroke: #555555; stroke-width: 0.8"/>
      </g>
     </g>
     <g id="text_3">
      <!-- 20 -->
      <g style="fill: #555555" transform="translate(382.886054 543.598438) scale(0.1 -0.1)">
       <defs>
        <path id="DejaVuSans-32" d="M 1228 531 
L 3431 531 
L 3431 0 
L 469 0 
L 469 531 
Q 828 903 1448 1529 
Q 2069 2156 2228 2338 
Q 2531 2678 2651 2914 
Q 2772 3150 2772 3378 
Q 2772 3750 2511 3984 
Q 2250 4219 1831 4219 
Q 1534 4219 1204 4116 
Q 875 4013 500 3803 
L 500 4441 
Q 881 4594 1212 4672 
Q 1544 4750 1819 4750 
Q 2544 4750 2975 4387 
Q 3406 4025 3406 3419 
Q 3406 3131 3298 2873 
Q 3191 2616 2906 2266 
Q 2828 2175 2409 1742 
Q 1991 1309 1228 531 
z
" transform="scale(0.015625)"/>
       </defs>
       <use xlink:href="#DejaVuSans-32"/>
       <use xlink:href="#DejaVuSans-30" x="63.623047"/>
      </g>
     </g>
    </g>
    <g id="xtick_4">
     <g id="line2d_7">
      <path d="M 480.031972 529 
L 480.031972 7.2 
" clip-path="url(#pc740f04169)" style="fill: none; stroke: #ffffff; stroke-width: 0.8; stroke-linecap: square"/>
     </g>
     <g id="line2d_8">
      <g>
       <use xlink:href="#m4261ef3703" x="480.031972" y="529" style="fill: #555555; stroke: #555555; stroke-width: 0.8"/>
      </g>
     </g>
     <g id="text_4">
      <!-- 30 -->
      <g style="fill: #555555" transform="translate(473.669472 543.598438) scale(0.1 -0.1)">
       <defs>
        <path id="DejaVuSans-33" d="M 2597 2516 
Q 3050 2419 3304 2112 
Q 3559 1806 3559 1356 
Q 3559 666 3084 287 
Q 2609 -91 1734 -91 
Q 1441 -91 1130 -33 
Q 819 25 488 141 
L 488 750 
Q 750 597 1062 519 
Q 1375 441 1716 441 
Q 2309 441 2620 675 
Q 2931 909 2931 1356 
Q 2931 1769 2642 2001 
Q 2353 2234 1838 2234 
L 1294 2234 
L 1294 2753 
L 1863 2753 
Q 2328 2753 2575 2939 
Q 2822 3125 2822 3475 
Q 2822 3834 2567 4026 
Q 2313 4219 1838 4219 
Q 1578 4219 1281 4162 
Q 984 4106 628 3988 
L 628 4550 
Q 988 4650 1302 4700 
Q 1616 4750 1894 4750 
Q 2613 4750 3031 4423 
Q 3450 4097 3450 3541 
Q 3450 3153 3228 2886 
Q 3006 2619 2597 2516 
z
" transform="scale(0.015625)"/>
       </defs>
       <use xlink:href="#DejaVuSans-33"/>
       <use xlink:href="#DejaVuSans-30" x="63.623047"/>
      </g>
     </g>
    </g>
    <g id="xtick_5">
     <g id="line2d_9">
      <path d="M 570.815389 529 
L 570.815389 7.2 
" clip-path="url(#pc740f04169)" style="fill: none; stroke: #ffffff; stroke-width: 0.8; stroke-linecap: square"/>
     </g>
     <g id="line2d_10">
      <g>
       <use xlink:href="#m4261ef3703" x="570.815389" y="529" style="fill: #555555; stroke: #555555; stroke-width: 0.8"/>
      </g>
     </g>
     <g id="text_5">
      <!-- 40 -->
      <g style="fill: #555555" transform="translate(564.452889 543.598438) scale(0.1 -0.1)">
       <defs>
        <path id="DejaVuSans-34" d="M 2419 4116 
L 825 1625 
L 2419 1625 
L 2419 4116 
z
M 2253 4666 
L 3047 4666 
L 3047 1625 
L 3713 1625 
L 3713 1100 
L 3047 1100 
L 3047 0 
L 2419 0 
L 2419 1100 
L 313 1100 
L 313 1709 
L 2253 4666 
z
" transform="scale(0.015625)"/>
       </defs>
       <use xlink:href="#DejaVuSans-34"/>
       <use xlink:href="#DejaVuSans-30" x="63.623047"/>
      </g>
     </g>
    </g>
    <g id="xtick_6">
     <g id="line2d_11">
      <path d="M 661.598807 529 
L 661.598807 7.2 
" clip-path="url(#pc740f04169)" style="fill: none; stroke: #ffffff; stroke-width: 0.8; stroke-linecap: square"/>
     </g>
     <g id="line2d_12">
      <g>
       <use xlink:href="#m4261ef3703" x="661.598807" y="529" style="fill: #555555; stroke: #555555; stroke-width: 0.8"/>
      </g>
     </g>
     <g id="text_6">
      <!-- 50 -->
      <g style="fill: #555555" transform="translate(655.236307 543.598438) scale(0.1 -0.1)">
       <defs>
        <path id="DejaVuSans-35" d="M 691 4666 
L 3169 4666 
L 3169 4134 
L 1269 4134 
L 1269 2991 
Q 1406 3038 1543 3061 
Q 1681 3084 1819 3084 
Q 2600 3084 3056 2656 
Q 3513 2228 3513 1497 
Q 3513 744 3044 326 
Q 2575 -91 1722 -91 
Q 1428 -91 1123 -41 
Q 819 9 494 109 
L 494 744 
Q 775 591 1075 516 
Q 1375 441 1709 441 
Q 2250 441 2565 725 
Q 2881 1009 2881 1497 
Q 2881 1984 2565 2268 
Q 2250 2553 1709 2553 
Q 1456 2553 1204 2497 
Q 953 2441 691 2322 
L 691 4666 
z
" transform="scale(0.015625)"/>
       </defs>
       <use xlink:href="#DejaVuSans-35"/>
       <use xlink:href="#DejaVuSans-30" x="63.623047"/>
      </g>
     </g>
    </g>
    <g id="xtick_7">
     <g id="line2d_13">
      <path d="M 752.382225 529 
L 752.382225 7.2 
" clip-path="url(#pc740f04169)" style="fill: none; stroke: #ffffff; stroke-width: 0.8; stroke-linecap: square"/>
     </g>
     <g id="line2d_14">
      <g>
       <use xlink:href="#m4261ef3703" x="752.382225" y="529" style="fill: #555555; stroke: #555555; stroke-width: 0.8"/>
      </g>
     </g>
     <g id="text_7">
      <!-- 60 -->
      <g style="fill: #555555" transform="translate(746.019725 543.598438) scale(0.1 -0.1)">
       <defs>
        <path id="DejaVuSans-36" d="M 2113 2584 
Q 1688 2584 1439 2293 
Q 1191 2003 1191 1497 
Q 1191 994 1439 701 
Q 1688 409 2113 409 
Q 2538 409 2786 701 
Q 3034 994 3034 1497 
Q 3034 2003 2786 2293 
Q 2538 2584 2113 2584 
z
M 3366 4563 
L 3366 3988 
Q 3128 4100 2886 4159 
Q 2644 4219 2406 4219 
Q 1781 4219 1451 3797 
Q 1122 3375 1075 2522 
Q 1259 2794 1537 2939 
Q 1816 3084 2150 3084 
Q 2853 3084 3261 2657 
Q 3669 2231 3669 1497 
Q 3669 778 3244 343 
Q 2819 -91 2113 -91 
Q 1303 -91 875 529 
Q 447 1150 447 2328 
Q 447 3434 972 4092 
Q 1497 4750 2381 4750 
Q 2619 4750 2861 4703 
Q 3103 4656 3366 4563 
z
" transform="scale(0.015625)"/>
       </defs>
       <use xlink:href="#DejaVuSans-36"/>
       <use xlink:href="#DejaVuSans-30" x="63.623047"/>
      </g>
     </g>
    </g>
    <g id="xtick_8">
     <g id="line2d_15">
      <path d="M 843.165642 529 
L 843.165642 7.2 
" clip-path="url(#pc740f04169)" style="fill: none; stroke: #ffffff; stroke-width: 0.8; stroke-linecap: square"/>
     </g>
     <g id="line2d_16">
      <g>
       <use xlink:href="#m4261ef3703" x="843.165642" y="529" style="fill: #555555; stroke: #555555; stroke-width: 0.8"/>
      </g>
     </g>
     <g id="text_8">
      <!-- 70 -->
      <g style="fill: #555555" transform="translate(836.803142 543.598438) scale(0.1 -0.1)">
       <defs>
        <path id="DejaVuSans-37" d="M 525 4666 
L 3525 4666 
L 3525 4397 
L 1831 0 
L 1172 0 
L 2766 4134 
L 525 4134 
L 525 4666 
z
" transform="scale(0.015625)"/>
       </defs>
       <use xlink:href="#DejaVuSans-37"/>
       <use xlink:href="#DejaVuSans-30" x="63.623047"/>
      </g>
     </g>
    </g>
    <g id="text_9">
     <!-- Número de egresos -->
     <g style="fill: #555555" transform="translate(468.420515 559.27625) scale(0.12 -0.12)">
      <defs>
       <path id="DejaVuSans-4e" d="M 628 4666 
L 1478 4666 
L 3547 763 
L 3547 4666 
L 4159 4666 
L 4159 0 
L 3309 0 
L 1241 3903 
L 1241 0 
L 628 0 
L 628 4666 
z
" transform="scale(0.015625)"/>
       <path id="DejaVuSans-fa" d="M 544 1381 
L 544 3500 
L 1119 3500 
L 1119 1403 
Q 1119 906 1312 657 
Q 1506 409 1894 409 
Q 2359 409 2629 706 
Q 2900 1003 2900 1516 
L 2900 3500 
L 3475 3500 
L 3475 0 
L 2900 0 
L 2900 538 
Q 2691 219 2414 64 
Q 2138 -91 1772 -91 
Q 1169 -91 856 284 
Q 544 659 544 1381 
z
M 1991 3584 
L 1991 3584 
z
M 2419 5119 
L 3041 5119 
L 2022 3944 
L 1544 3944 
L 2419 5119 
z
" transform="scale(0.015625)"/>
       <path id="DejaVuSans-6d" d="M 3328 2828 
Q 3544 3216 3844 3400 
Q 4144 3584 4550 3584 
Q 5097 3584 5394 3201 
Q 5691 2819 5691 2113 
L 5691 0 
L 5113 0 
L 5113 2094 
Q 5113 2597 4934 2840 
Q 4756 3084 4391 3084 
Q 3944 3084 3684 2787 
Q 3425 2491 3425 1978 
L 3425 0 
L 2847 0 
L 2847 2094 
Q 2847 2600 2669 2842 
Q 2491 3084 2119 3084 
Q 1678 3084 1418 2786 
Q 1159 2488 1159 1978 
L 1159 0 
L 581 0 
L 581 3500 
L 1159 3500 
L 1159 2956 
Q 1356 3278 1631 3431 
Q 1906 3584 2284 3584 
Q 2666 3584 2933 3390 
Q 3200 3197 3328 2828 
z
" transform="scale(0.015625)"/>
       <path id="DejaVuSans-65" d="M 3597 1894 
L 3597 1613 
L 953 1613 
Q 991 1019 1311 708 
Q 1631 397 2203 397 
Q 2534 397 2845 478 
Q 3156 559 3463 722 
L 3463 178 
Q 3153 47 2828 -22 
Q 2503 -91 2169 -91 
Q 1331 -91 842 396 
Q 353 884 353 1716 
Q 353 2575 817 3079 
Q 1281 3584 2069 3584 
Q 2775 3584 3186 3129 
Q 3597 2675 3597 1894 
z
M 3022 2063 
Q 3016 2534 2758 2815 
Q 2500 3097 2075 3097 
Q 1594 3097 1305 2825 
Q 1016 2553 972 2059 
L 3022 2063 
z
" transform="scale(0.015625)"/>
       <path id="DejaVuSans-72" d="M 2631 2963 
Q 2534 3019 2420 3045 
Q 2306 3072 2169 3072 
Q 1681 3072 1420 2755 
Q 1159 2438 1159 1844 
L 1159 0 
L 581 0 
L 581 3500 
L 1159 3500 
L 1159 2956 
Q 1341 3275 1631 3429 
Q 1922 3584 2338 3584 
Q 2397 3584 2469 3576 
Q 2541 3569 2628 3553 
L 2631 2963 
z
" transform="scale(0.015625)"/>
       <path id="DejaVuSans-6f" d="M 1959 3097 
Q 1497 3097 1228 2736 
Q 959 2375 959 1747 
Q 959 1119 1226 758 
Q 1494 397 1959 397 
Q 2419 397 2687 759 
Q 2956 1122 2956 1747 
Q 2956 2369 2687 2733 
Q 2419 3097 1959 3097 
z
M 1959 3584 
Q 2709 3584 3137 3096 
Q 3566 2609 3566 1747 
Q 3566 888 3137 398 
Q 2709 -91 1959 -91 
Q 1206 -91 779 398 
Q 353 888 353 1747 
Q 353 2609 779 3096 
Q 1206 3584 1959 3584 
z
" transform="scale(0.015625)"/>
       <path id="DejaVuSans-20" transform="scale(0.015625)"/>
       <path id="DejaVuSans-64" d="M 2906 2969 
L 2906 4863 
L 3481 4863 
L 3481 0 
L 2906 0 
L 2906 525 
Q 2725 213 2448 61 
Q 2172 -91 1784 -91 
Q 1150 -91 751 415 
Q 353 922 353 1747 
Q 353 2572 751 3078 
Q 1150 3584 1784 3584 
Q 2172 3584 2448 3432 
Q 2725 3281 2906 2969 
z
M 947 1747 
Q 947 1113 1208 752 
Q 1469 391 1925 391 
Q 2381 391 2643 752 
Q 2906 1113 2906 1747 
Q 2906 2381 2643 2742 
Q 2381 3103 1925 3103 
Q 1469 3103 1208 2742 
Q 947 2381 947 1747 
z
" transform="scale(0.015625)"/>
       <path id="DejaVuSans-67" d="M 2906 1791 
Q 2906 2416 2648 2759 
Q 2391 3103 1925 3103 
Q 1463 3103 1205 2759 
Q 947 2416 947 1791 
Q 947 1169 1205 825 
Q 1463 481 1925 481 
Q 2391 481 2648 825 
Q 2906 1169 2906 1791 
z
M 3481 434 
Q 3481 -459 3084 -895 
Q 2688 -1331 1869 -1331 
Q 1566 -1331 1297 -1286 
Q 1028 -1241 775 -1147 
L 775 -588 
Q 1028 -725 1275 -790 
Q 1522 -856 1778 -856 
Q 2344 -856 2625 -561 
Q 2906 -266 2906 331 
L 2906 616 
Q 2728 306 2450 153 
Q 2172 0 1784 0 
Q 1141 0 747 490 
Q 353 981 353 1791 
Q 353 2603 747 3093 
Q 1141 3584 1784 3584 
Q 2172 3584 2450 3431 
Q 2728 3278 2906 2969 
L 2906 3500 
L 3481 3500 
L 3481 434 
z
" transform="scale(0.015625)"/>
       <path id="DejaVuSans-73" d="M 2834 3397 
L 2834 2853 
Q 2591 2978 2328 3040 
Q 2066 3103 1784 3103 
Q 1356 3103 1142 2972 
Q 928 2841 928 2578 
Q 928 2378 1081 2264 
Q 1234 2150 1697 2047 
L 1894 2003 
Q 2506 1872 2764 1633 
Q 3022 1394 3022 966 
Q 3022 478 2636 193 
Q 2250 -91 1575 -91 
Q 1294 -91 989 -36 
Q 684 19 347 128 
L 347 722 
Q 666 556 975 473 
Q 1284 391 1588 391 
Q 1994 391 2212 530 
Q 2431 669 2431 922 
Q 2431 1156 2273 1281 
Q 2116 1406 1581 1522 
L 1381 1569 
Q 847 1681 609 1914 
Q 372 2147 372 2553 
Q 372 3047 722 3315 
Q 1072 3584 1716 3584 
Q 2034 3584 2315 3537 
Q 2597 3491 2834 3397 
z
" transform="scale(0.015625)"/>
      </defs>
      <use xlink:href="#DejaVuSans-4e"/>
      <use xlink:href="#DejaVuSans-fa" x="74.804688"/>
      <use xlink:href="#DejaVuSans-6d" x="138.183594"/>
      <use xlink:href="#DejaVuSans-65" x="235.595703"/>
      <use xlink:href="#DejaVuSans-72" x="297.119141"/>
      <use xlink:href="#DejaVuSans-6f" x="335.982422"/>
      <use xlink:href="#DejaVuSans-20" x="397.164062"/>
      <use xlink:href="#DejaVuSans-64" x="428.951172"/>
      <use xlink:href="#DejaVuSans-65" x="492.427734"/>
      <use xlink:href="#DejaVuSans-20" x="553.951172"/>
      <use xlink:href="#DejaVuSans-65" x="585.738281"/>
      <use xlink:href="#DejaVuSans-67" x="647.261719"/>
      <use xlink:href="#DejaVuSans-72" x="710.738281"/>
      <use xlink:href="#DejaVuSans-65" x="749.601562"/>
      <use xlink:href="#DejaVuSans-73" x="811.125"/>
      <use xlink:href="#DejaVuSans-6f" x="863.224609"/>
      <use xlink:href="#DejaVuSans-73" x="924.40625"/>
     </g>
    </g>
   </g>
   <g id="matplotlib.axis_2">
    <g id="ytick_1">
     <g id="line2d_17">
      <path d="M 207.681719 455.348804 
L 846.343062 455.348804 
" clip-path="url(#pc740f04169)" style="fill: none; stroke: #ffffff; stroke-width: 0.8; stroke-linecap: square"/>
     </g>
     <g id="line2d_18">
      <defs>
       <path id="mbaf75fe27d" d="M 0 0 
L -3.5 0 
" style="stroke: #555555; stroke-width: 0.8"/>
      </defs>
      <g>
       <use xlink:href="#mbaf75fe27d" x="207.681719" y="455.348804" style="fill: #555555; stroke: #555555; stroke-width: 0.8"/>
      </g>
     </g>
     <g id="text_10">
      <!-- FALSO TRABAJO DE PARTO A LAS 37 Y -->
      <g style="fill: #555555" transform="translate(30.713906 454.412944) scale(0.09 -0.09)">
       <defs>
        <path id="DejaVuSans-46" d="M 628 4666 
L 3309 4666 
L 3309 4134 
L 1259 4134 
L 1259 2759 
L 3109 2759 
L 3109 2228 
L 1259 2228 
L 1259 0 
L 628 0 
L 628 4666 
z
" transform="scale(0.015625)"/>
        <path id="DejaVuSans-41" d="M 2188 4044 
L 1331 1722 
L 3047 1722 
L 2188 4044 
z
M 1831 4666 
L 2547 4666 
L 4325 0 
L 3669 0 
L 3244 1197 
L 1141 1197 
L 716 0 
L 50 0 
L 1831 4666 
z
" transform="scale(0.015625)"/>
        <path id="DejaVuSans-4c" d="M 628 4666 
L 1259 4666 
L 1259 531 
L 3531 531 
L 3531 0 
L 628 0 
L 628 4666 
z
" transform="scale(0.015625)"/>
        <path id="DejaVuSans-53" d="M 3425 4513 
L 3425 3897 
Q 3066 4069 2747 4153 
Q 2428 4238 2131 4238 
Q 1616 4238 1336 4038 
Q 1056 3838 1056 3469 
Q 1056 3159 1242 3001 
Q 1428 2844 1947 2747 
L 2328 2669 
Q 3034 2534 3370 2195 
Q 3706 1856 3706 1288 
Q 3706 609 3251 259 
Q 2797 -91 1919 -91 
Q 1588 -91 1214 -16 
Q 841 59 441 206 
L 441 856 
Q 825 641 1194 531 
Q 1563 422 1919 422 
Q 2459 422 2753 634 
Q 3047 847 3047 1241 
Q 3047 1584 2836 1778 
Q 2625 1972 2144 2069 
L 1759 2144 
Q 1053 2284 737 2584 
Q 422 2884 422 3419 
Q 422 4038 858 4394 
Q 1294 4750 2059 4750 
Q 2388 4750 2728 4690 
Q 3069 4631 3425 4513 
z
" transform="scale(0.015625)"/>
        <path id="DejaVuSans-4f" d="M 2522 4238 
Q 1834 4238 1429 3725 
Q 1025 3213 1025 2328 
Q 1025 1447 1429 934 
Q 1834 422 2522 422 
Q 3209 422 3611 934 
Q 4013 1447 4013 2328 
Q 4013 3213 3611 3725 
Q 3209 4238 2522 4238 
z
M 2522 4750 
Q 3503 4750 4090 4092 
Q 4678 3434 4678 2328 
Q 4678 1225 4090 567 
Q 3503 -91 2522 -91 
Q 1538 -91 948 565 
Q 359 1222 359 2328 
Q 359 3434 948 4092 
Q 1538 4750 2522 4750 
z
" transform="scale(0.015625)"/>
        <path id="DejaVuSans-54" d="M -19 4666 
L 3928 4666 
L 3928 4134 
L 2272 4134 
L 2272 0 
L 1638 0 
L 1638 4134 
L -19 4134 
L -19 4666 
z
" transform="scale(0.015625)"/>
        <path id="DejaVuSans-52" d="M 2841 2188 
Q 3044 2119 3236 1894 
Q 3428 1669 3622 1275 
L 4263 0 
L 3584 0 
L 2988 1197 
Q 2756 1666 2539 1819 
Q 2322 1972 1947 1972 
L 1259 1972 
L 1259 0 
L 628 0 
L 628 4666 
L 2053 4666 
Q 2853 4666 3247 4331 
Q 3641 3997 3641 3322 
Q 3641 2881 3436 2590 
Q 3231 2300 2841 2188 
z
M 1259 4147 
L 1259 2491 
L 2053 2491 
Q 2509 2491 2742 2702 
Q 2975 2913 2975 3322 
Q 2975 3731 2742 3939 
Q 2509 4147 2053 4147 
L 1259 4147 
z
" transform="scale(0.015625)"/>
        <path id="DejaVuSans-42" d="M 1259 2228 
L 1259 519 
L 2272 519 
Q 2781 519 3026 730 
Q 3272 941 3272 1375 
Q 3272 1813 3026 2020 
Q 2781 2228 2272 2228 
L 1259 2228 
z
M 1259 4147 
L 1259 2741 
L 2194 2741 
Q 2656 2741 2882 2914 
Q 3109 3088 3109 3444 
Q 3109 3797 2882 3972 
Q 2656 4147 2194 4147 
L 1259 4147 
z
M 628 4666 
L 2241 4666 
Q 2963 4666 3353 4366 
Q 3744 4066 3744 3513 
Q 3744 3084 3544 2831 
Q 3344 2578 2956 2516 
Q 3422 2416 3680 2098 
Q 3938 1781 3938 1306 
Q 3938 681 3513 340 
Q 3088 0 2303 0 
L 628 0 
L 628 4666 
z
" transform="scale(0.015625)"/>
        <path id="DejaVuSans-4a" d="M 628 4666 
L 1259 4666 
L 1259 325 
Q 1259 -519 939 -900 
Q 619 -1281 -91 -1281 
L -331 -1281 
L -331 -750 
L -134 -750 
Q 284 -750 456 -515 
Q 628 -281 628 325 
L 628 4666 
z
" transform="scale(0.015625)"/>
        <path id="DejaVuSans-44" d="M 1259 4147 
L 1259 519 
L 2022 519 
Q 2988 519 3436 956 
Q 3884 1394 3884 2338 
Q 3884 3275 3436 3711 
Q 2988 4147 2022 4147 
L 1259 4147 
z
M 628 4666 
L 1925 4666 
Q 3281 4666 3915 4102 
Q 4550 3538 4550 2338 
Q 4550 1131 3912 565 
Q 3275 0 1925 0 
L 628 0 
L 628 4666 
z
" transform="scale(0.015625)"/>
        <path id="DejaVuSans-45" d="M 628 4666 
L 3578 4666 
L 3578 4134 
L 1259 4134 
L 1259 2753 
L 3481 2753 
L 3481 2222 
L 1259 2222 
L 1259 531 
L 3634 531 
L 3634 0 
L 628 0 
L 628 4666 
z
" transform="scale(0.015625)"/>
        <path id="DejaVuSans-50" d="M 1259 4147 
L 1259 2394 
L 2053 2394 
Q 2494 2394 2734 2622 
Q 2975 2850 2975 3272 
Q 2975 3691 2734 3919 
Q 2494 4147 2053 4147 
L 1259 4147 
z
M 628 4666 
L 2053 4666 
Q 2838 4666 3239 4311 
Q 3641 3956 3641 3272 
Q 3641 2581 3239 2228 
Q 2838 1875 2053 1875 
L 1259 1875 
L 1259 0 
L 628 0 
L 628 4666 
z
" transform="scale(0.015625)"/>
        <path id="DejaVuSans-59" d="M -13 4666 
L 666 4666 
L 1959 2747 
L 3244 4666 
L 3922 4666 
L 2272 2222 
L 2272 0 
L 1638 0 
L 1638 2222 
L -13 4666 
z
" transform="scale(0.015625)"/>
       </defs>
       <use xlink:href="#DejaVuSans-46"/>
       <use xlink:href="#DejaVuSans-41" x="48.394531"/>
       <use xlink:href="#DejaVuSans-4c" x="116.802734"/>
       <use xlink:href="#DejaVuSans-53" x="172.515625"/>
       <use xlink:href="#DejaVuSans-4f" x="235.992188"/>
       <use xlink:href="#DejaVuSans-20" x="314.703125"/>
       <use xlink:href="#DejaVuSans-54" x="346.490234"/>
       <use xlink:href="#DejaVuSans-52" x="407.574219"/>
       <use xlink:href="#DejaVuSans-41" x="473.056641"/>
       <use xlink:href="#DejaVuSans-42" x="541.464844"/>
       <use xlink:href="#DejaVuSans-41" x="610.068359"/>
       <use xlink:href="#DejaVuSans-4a" x="678.476562"/>
       <use xlink:href="#DejaVuSans-4f" x="707.96875"/>
       <use xlink:href="#DejaVuSans-20" x="786.679688"/>
       <use xlink:href="#DejaVuSans-44" x="818.466797"/>
       <use xlink:href="#DejaVuSans-45" x="895.46875"/>
       <use xlink:href="#DejaVuSans-20" x="958.652344"/>
       <use xlink:href="#DejaVuSans-50" x="990.439453"/>
       <use xlink:href="#DejaVuSans-41" x="1044.367188"/>
       <use xlink:href="#DejaVuSans-52" x="1112.775391"/>
       <use xlink:href="#DejaVuSans-54" x="1175.007812"/>
       <use xlink:href="#DejaVuSans-4f" x="1236.091797"/>
       <use xlink:href="#DejaVuSans-20" x="1314.802734"/>
       <use xlink:href="#DejaVuSans-41" x="1346.589844"/>
       <use xlink:href="#DejaVuSans-20" x="1414.998047"/>
       <use xlink:href="#DejaVuSans-4c" x="1446.785156"/>
       <use xlink:href="#DejaVuSans-41" x="1504.748047"/>
       <use xlink:href="#DejaVuSans-53" x="1573.15625"/>
       <use xlink:href="#DejaVuSans-20" x="1636.632812"/>
       <use xlink:href="#DejaVuSans-33" x="1668.419922"/>
       <use xlink:href="#DejaVuSans-37" x="1732.042969"/>
       <use xlink:href="#DejaVuSans-20" x="1795.666016"/>
       <use xlink:href="#DejaVuSans-59" x="1827.453125"/>
      </g>
      <!-- MÁS SEMANAS COMPLETAS DE GESTACIÓN -->
      <g style="fill: #555555" transform="translate(7.2 464.490976) scale(0.09 -0.09)">
       <defs>
        <path id="DejaVuSans-4d" d="M 628 4666 
L 1569 4666 
L 2759 1491 
L 3956 4666 
L 4897 4666 
L 4897 0 
L 4281 0 
L 4281 4097 
L 3078 897 
L 2444 897 
L 1241 4097 
L 1241 0 
L 628 0 
L 628 4666 
z
" transform="scale(0.015625)"/>
        <path id="DejaVuSans-c1" d="M 2188 4044 
L 1331 1722 
L 3047 1722 
L 2188 4044 
z
M 1831 4666 
L 2547 4666 
L 4325 0 
L 3669 0 
L 3244 1197 
L 1141 1197 
L 716 0 
L 50 0 
L 1831 4666 
z
M 2359 5935 
L 2938 5935 
L 2225 5110 
L 1747 5110 
L 2359 5935 
z
" transform="scale(0.015625)"/>
        <path id="DejaVuSans-43" d="M 4122 4306 
L 4122 3641 
Q 3803 3938 3442 4084 
Q 3081 4231 2675 4231 
Q 1875 4231 1450 3742 
Q 1025 3253 1025 2328 
Q 1025 1406 1450 917 
Q 1875 428 2675 428 
Q 3081 428 3442 575 
Q 3803 722 4122 1019 
L 4122 359 
Q 3791 134 3420 21 
Q 3050 -91 2638 -91 
Q 1578 -91 968 557 
Q 359 1206 359 2328 
Q 359 3453 968 4101 
Q 1578 4750 2638 4750 
Q 3056 4750 3426 4639 
Q 3797 4528 4122 4306 
z
" transform="scale(0.015625)"/>
        <path id="DejaVuSans-47" d="M 3809 666 
L 3809 1919 
L 2778 1919 
L 2778 2438 
L 4434 2438 
L 4434 434 
Q 4069 175 3628 42 
Q 3188 -91 2688 -91 
Q 1594 -91 976 548 
Q 359 1188 359 2328 
Q 359 3472 976 4111 
Q 1594 4750 2688 4750 
Q 3144 4750 3555 4637 
Q 3966 4525 4313 4306 
L 4313 3634 
Q 3963 3931 3569 4081 
Q 3175 4231 2741 4231 
Q 1884 4231 1454 3753 
Q 1025 3275 1025 2328 
Q 1025 1384 1454 906 
Q 1884 428 2741 428 
Q 3075 428 3337 486 
Q 3600 544 3809 666 
z
" transform="scale(0.015625)"/>
        <path id="DejaVuSans-49" d="M 628 4666 
L 1259 4666 
L 1259 0 
L 628 0 
L 628 4666 
z
" transform="scale(0.015625)"/>
        <path id="DejaVuSans-d3" d="M 2522 4238 
Q 1834 4238 1429 3725 
Q 1025 3213 1025 2328 
Q 1025 1447 1429 934 
Q 1834 422 2522 422 
Q 3209 422 3611 934 
Q 4013 1447 4013 2328 
Q 4013 3213 3611 3725 
Q 3209 4238 2522 4238 
z
M 2522 4750 
Q 3503 4750 4090 4092 
Q 4678 3434 4678 2328 
Q 4678 1225 4090 567 
Q 3503 -91 2522 -91 
Q 1538 -91 948 565 
Q 359 1222 359 2328 
Q 359 3434 948 4092 
Q 1538 4750 2522 4750 
z
M 2694 5935 
L 3272 5935 
L 2559 5110 
L 2081 5110 
L 2694 5935 
z
" transform="scale(0.015625)"/>
       </defs>
       <use xlink:href="#DejaVuSans-4d"/>
       <use xlink:href="#DejaVuSans-c1" x="86.279297"/>
       <use xlink:href="#DejaVuSans-53" x="154.6875"/>
       <use xlink:href="#DejaVuSans-20" x="218.164062"/>
       <use xlink:href="#DejaVuSans-53" x="249.951172"/>
       <use xlink:href="#DejaVuSans-45" x="313.427734"/>
       <use xlink:href="#DejaVuSans-4d" x="376.611328"/>
       <use xlink:href="#DejaVuSans-41" x="462.890625"/>
       <use xlink:href="#DejaVuSans-4e" x="531.298828"/>
       <use xlink:href="#DejaVuSans-41" x="606.103516"/>
       <use xlink:href="#DejaVuSans-53" x="674.511719"/>
       <use xlink:href="#DejaVuSans-20" x="737.988281"/>
       <use xlink:href="#DejaVuSans-43" x="769.775391"/>
       <use xlink:href="#DejaVuSans-4f" x="839.599609"/>
       <use xlink:href="#DejaVuSans-4d" x="918.310547"/>
       <use xlink:href="#DejaVuSans-50" x="1004.589844"/>
       <use xlink:href="#DejaVuSans-4c" x="1064.892578"/>
       <use xlink:href="#DejaVuSans-45" x="1120.605469"/>
       <use xlink:href="#DejaVuSans-54" x="1183.789062"/>
       <use xlink:href="#DejaVuSans-41" x="1237.123047"/>
       <use xlink:href="#DejaVuSans-53" x="1305.53125"/>
       <use xlink:href="#DejaVuSans-20" x="1369.007812"/>
       <use xlink:href="#DejaVuSans-44" x="1400.794922"/>
       <use xlink:href="#DejaVuSans-45" x="1477.796875"/>
       <use xlink:href="#DejaVuSans-20" x="1540.980469"/>
       <use xlink:href="#DejaVuSans-47" x="1572.767578"/>
       <use xlink:href="#DejaVuSans-45" x="1650.257812"/>
       <use xlink:href="#DejaVuSans-53" x="1713.441406"/>
       <use xlink:href="#DejaVuSans-54" x="1776.917969"/>
       <use xlink:href="#DejaVuSans-41" x="1830.251953"/>
       <use xlink:href="#DejaVuSans-43" x="1896.910156"/>
       <use xlink:href="#DejaVuSans-49" x="1966.734375"/>
       <use xlink:href="#DejaVuSans-d3" x="1996.226562"/>
       <use xlink:href="#DejaVuSans-4e" x="2074.9375"/>
      </g>
     </g>
    </g>
    <g id="ytick_2">
     <g id="line2d_19">
      <path d="M 207.681719 330.516268 
L 846.343062 330.516268 
" clip-path="url(#pc740f04169)" style="fill: none; stroke: #ffffff; stroke-width: 0.8; stroke-linecap: square"/>
     </g>
     <g id="line2d_20">
      <g>
       <use xlink:href="#mbaf75fe27d" x="207.681719" y="330.516268" style="fill: #555555; stroke: #555555; stroke-width: 0.8"/>
      </g>
     </g>
     <g id="text_11">
      <!-- PARTO ÚNICO ESPONTÁNEO, OTRAS -->
      <g style="fill: #555555" transform="translate(39.252656 329.921424) scale(0.09 -0.09)">
       <defs>
        <path id="DejaVuSans-da" d="M 556 4666 
L 1191 4666 
L 1191 1831 
Q 1191 1081 1462 751 
Q 1734 422 2344 422 
Q 2950 422 3222 751 
Q 3494 1081 3494 1831 
L 3494 4666 
L 4128 4666 
L 4128 1753 
Q 4128 841 3676 375 
Q 3225 -91 2344 -91 
Q 1459 -91 1007 375 
Q 556 841 556 1753 
L 556 4666 
z
M 2516 5935 
L 3094 5935 
L 2381 5110 
L 1903 5110 
L 2516 5935 
z
" transform="scale(0.015625)"/>
        <path id="DejaVuSans-2c" d="M 750 794 
L 1409 794 
L 1409 256 
L 897 -744 
L 494 -744 
L 750 256 
L 750 794 
z
" transform="scale(0.015625)"/>
       </defs>
       <use xlink:href="#DejaVuSans-50"/>
       <use xlink:href="#DejaVuSans-41" x="53.927734"/>
       <use xlink:href="#DejaVuSans-52" x="122.335938"/>
       <use xlink:href="#DejaVuSans-54" x="184.568359"/>
       <use xlink:href="#DejaVuSans-4f" x="245.652344"/>
       <use xlink:href="#DejaVuSans-20" x="324.363281"/>
       <use xlink:href="#DejaVuSans-da" x="356.150391"/>
       <use xlink:href="#DejaVuSans-4e" x="429.34375"/>
       <use xlink:href="#DejaVuSans-49" x="504.148438"/>
       <use xlink:href="#DejaVuSans-43" x="533.640625"/>
       <use xlink:href="#DejaVuSans-4f" x="603.464844"/>
       <use xlink:href="#DejaVuSans-20" x="682.175781"/>
       <use xlink:href="#DejaVuSans-45" x="713.962891"/>
       <use xlink:href="#DejaVuSans-53" x="777.146484"/>
       <use xlink:href="#DejaVuSans-50" x="840.623047"/>
       <use xlink:href="#DejaVuSans-4f" x="900.925781"/>
       <use xlink:href="#DejaVuSans-4e" x="979.636719"/>
       <use xlink:href="#DejaVuSans-54" x="1054.441406"/>
       <use xlink:href="#DejaVuSans-c1" x="1107.775391"/>
       <use xlink:href="#DejaVuSans-4e" x="1176.183594"/>
       <use xlink:href="#DejaVuSans-45" x="1250.988281"/>
       <use xlink:href="#DejaVuSans-4f" x="1314.171875"/>
       <use xlink:href="#DejaVuSans-2c" x="1392.882812"/>
       <use xlink:href="#DejaVuSans-20" x="1424.669922"/>
       <use xlink:href="#DejaVuSans-4f" x="1456.457031"/>
       <use xlink:href="#DejaVuSans-54" x="1535.167969"/>
       <use xlink:href="#DejaVuSans-52" x="1596.251953"/>
       <use xlink:href="#DejaVuSans-41" x="1661.734375"/>
       <use xlink:href="#DejaVuSans-53" x="1730.142578"/>
      </g>
      <!-- PRESENTACIONES -->
      <g style="fill: #555555" transform="translate(120.224531 339.999455) scale(0.09 -0.09)">
       <use xlink:href="#DejaVuSans-50"/>
       <use xlink:href="#DejaVuSans-52" x="60.302734"/>
       <use xlink:href="#DejaVuSans-45" x="129.785156"/>
       <use xlink:href="#DejaVuSans-53" x="192.96875"/>
       <use xlink:href="#DejaVuSans-45" x="256.445312"/>
       <use xlink:href="#DejaVuSans-4e" x="319.628906"/>
       <use xlink:href="#DejaVuSans-54" x="394.433594"/>
       <use xlink:href="#DejaVuSans-41" x="447.767578"/>
       <use xlink:href="#DejaVuSans-43" x="514.425781"/>
       <use xlink:href="#DejaVuSans-49" x="584.25"/>
       <use xlink:href="#DejaVuSans-4f" x="613.742188"/>
       <use xlink:href="#DejaVuSans-4e" x="692.453125"/>
       <use xlink:href="#DejaVuSans-45" x="767.257812"/>
       <use xlink:href="#DejaVuSans-53" x="830.441406"/>
      </g>
     </g>
    </g>
    <g id="ytick_3">
     <g id="line2d_21">
      <path d="M 207.681719 205.683732 
L 846.343062 205.683732 
" clip-path="url(#pc740f04169)" style="fill: none; stroke: #ffffff; stroke-width: 0.8; stroke-linecap: square"/>
     </g>
     <g id="line2d_22">
      <g>
       <use xlink:href="#mbaf75fe27d" x="207.681719" y="205.683732" style="fill: #555555; stroke: #555555; stroke-width: 0.8"/>
      </g>
     </g>
     <g id="text_12">
      <!-- ATENCIÓN MATERNA POR MUERTE -->
      <g style="fill: #555555" transform="translate(46.826719 204.747873) scale(0.09 -0.09)">
       <defs>
        <path id="DejaVuSans-55" d="M 556 4666 
L 1191 4666 
L 1191 1831 
Q 1191 1081 1462 751 
Q 1734 422 2344 422 
Q 2950 422 3222 751 
Q 3494 1081 3494 1831 
L 3494 4666 
L 4128 4666 
L 4128 1753 
Q 4128 841 3676 375 
Q 3225 -91 2344 -91 
Q 1459 -91 1007 375 
Q 556 841 556 1753 
L 556 4666 
z
" transform="scale(0.015625)"/>
       </defs>
       <use xlink:href="#DejaVuSans-41"/>
       <use xlink:href="#DejaVuSans-54" x="60.658203"/>
       <use xlink:href="#DejaVuSans-45" x="121.742188"/>
       <use xlink:href="#DejaVuSans-4e" x="184.925781"/>
       <use xlink:href="#DejaVuSans-43" x="259.730469"/>
       <use xlink:href="#DejaVuSans-49" x="329.554688"/>
       <use xlink:href="#DejaVuSans-d3" x="359.046875"/>
       <use xlink:href="#DejaVuSans-4e" x="437.757812"/>
       <use xlink:href="#DejaVuSans-20" x="512.5625"/>
       <use xlink:href="#DejaVuSans-4d" x="544.349609"/>
       <use xlink:href="#DejaVuSans-41" x="630.628906"/>
       <use xlink:href="#DejaVuSans-54" x="691.287109"/>
       <use xlink:href="#DejaVuSans-45" x="752.371094"/>
       <use xlink:href="#DejaVuSans-52" x="815.554688"/>
       <use xlink:href="#DejaVuSans-4e" x="885.037109"/>
       <use xlink:href="#DejaVuSans-41" x="959.841797"/>
       <use xlink:href="#DejaVuSans-20" x="1028.25"/>
       <use xlink:href="#DejaVuSans-50" x="1060.037109"/>
       <use xlink:href="#DejaVuSans-4f" x="1120.339844"/>
       <use xlink:href="#DejaVuSans-52" x="1199.050781"/>
       <use xlink:href="#DejaVuSans-20" x="1268.533203"/>
       <use xlink:href="#DejaVuSans-4d" x="1300.320312"/>
       <use xlink:href="#DejaVuSans-55" x="1386.599609"/>
       <use xlink:href="#DejaVuSans-45" x="1459.792969"/>
       <use xlink:href="#DejaVuSans-52" x="1522.976562"/>
       <use xlink:href="#DejaVuSans-54" x="1585.208984"/>
       <use xlink:href="#DejaVuSans-45" x="1646.292969"/>
      </g>
      <!-- INTRAUTERINA -->
      <g style="fill: #555555" transform="translate(134.177344 214.825904) scale(0.09 -0.09)">
       <use xlink:href="#DejaVuSans-49"/>
       <use xlink:href="#DejaVuSans-4e" x="29.492188"/>
       <use xlink:href="#DejaVuSans-54" x="104.296875"/>
       <use xlink:href="#DejaVuSans-52" x="165.380859"/>
       <use xlink:href="#DejaVuSans-41" x="230.863281"/>
       <use xlink:href="#DejaVuSans-55" x="299.271484"/>
       <use xlink:href="#DejaVuSans-54" x="372.464844"/>
       <use xlink:href="#DejaVuSans-45" x="433.548828"/>
       <use xlink:href="#DejaVuSans-52" x="496.732422"/>
       <use xlink:href="#DejaVuSans-49" x="566.214844"/>
       <use xlink:href="#DejaVuSans-4e" x="595.707031"/>
       <use xlink:href="#DejaVuSans-41" x="670.511719"/>
      </g>
     </g>
    </g>
    <g id="ytick_4">
     <g id="line2d_23">
      <path d="M 207.681719 80.851196 
L 846.343062 80.851196 
" clip-path="url(#pc740f04169)" style="fill: none; stroke: #ffffff; stroke-width: 0.8; stroke-linecap: square"/>
     </g>
     <g id="line2d_24">
      <g>
       <use xlink:href="#mbaf75fe27d" x="207.681719" y="80.851196" style="fill: #555555; stroke: #555555; stroke-width: 0.8"/>
      </g>
     </g>
     <g id="text_13">
      <!-- PARTO ÚNICO ASISTIDO, SIN OTRA -->
      <g style="fill: #555555" transform="translate(45.704531 80.256352) scale(0.09 -0.09)">
       <use xlink:href="#DejaVuSans-50"/>
       <use xlink:href="#DejaVuSans-41" x="53.927734"/>
       <use xlink:href="#DejaVuSans-52" x="122.335938"/>
       <use xlink:href="#DejaVuSans-54" x="184.568359"/>
       <use xlink:href="#DejaVuSans-4f" x="245.652344"/>
       <use xlink:href="#DejaVuSans-20" x="324.363281"/>
       <use xlink:href="#DejaVuSans-da" x="356.150391"/>
       <use xlink:href="#DejaVuSans-4e" x="429.34375"/>
       <use xlink:href="#DejaVuSans-49" x="504.148438"/>
       <use xlink:href="#DejaVuSans-43" x="533.640625"/>
       <use xlink:href="#DejaVuSans-4f" x="603.464844"/>
       <use xlink:href="#DejaVuSans-20" x="682.175781"/>
       <use xlink:href="#DejaVuSans-41" x="713.962891"/>
       <use xlink:href="#DejaVuSans-53" x="782.371094"/>
       <use xlink:href="#DejaVuSans-49" x="845.847656"/>
       <use xlink:href="#DejaVuSans-53" x="875.339844"/>
       <use xlink:href="#DejaVuSans-54" x="938.816406"/>
       <use xlink:href="#DejaVuSans-49" x="999.900391"/>
       <use xlink:href="#DejaVuSans-44" x="1029.392578"/>
       <use xlink:href="#DejaVuSans-4f" x="1106.394531"/>
       <use xlink:href="#DejaVuSans-2c" x="1185.105469"/>
       <use xlink:href="#DejaVuSans-20" x="1216.892578"/>
       <use xlink:href="#DejaVuSans-53" x="1248.679688"/>
       <use xlink:href="#DejaVuSans-49" x="1312.15625"/>
       <use xlink:href="#DejaVuSans-4e" x="1341.648438"/>
       <use xlink:href="#DejaVuSans-20" x="1416.453125"/>
       <use xlink:href="#DejaVuSans-4f" x="1448.240234"/>
       <use xlink:href="#DejaVuSans-54" x="1526.951172"/>
       <use xlink:href="#DejaVuSans-52" x="1588.035156"/>
       <use xlink:href="#DejaVuSans-41" x="1653.517578"/>
      </g>
      <!-- ESPECIFICACIÓN -->
      <g style="fill: #555555" transform="translate(126.355781 90.334384) scale(0.09 -0.09)">
       <use xlink:href="#DejaVuSans-45"/>
       <use xlink:href="#DejaVuSans-53" x="63.183594"/>
       <use xlink:href="#DejaVuSans-50" x="126.660156"/>
       <use xlink:href="#DejaVuSans-45" x="186.962891"/>
       <use xlink:href="#DejaVuSans-43" x="250.146484"/>
       <use xlink:href="#DejaVuSans-49" x="319.970703"/>
       <use xlink:href="#DejaVuSans-46" x="349.462891"/>
       <use xlink:href="#DejaVuSans-49" x="406.982422"/>
       <use xlink:href="#DejaVuSans-43" x="436.474609"/>
       <use xlink:href="#DejaVuSans-41" x="506.298828"/>
       <use xlink:href="#DejaVuSans-43" x="572.957031"/>
       <use xlink:href="#DejaVuSans-49" x="642.78125"/>
       <use xlink:href="#DejaVuSans-d3" x="672.273438"/>
       <use xlink:href="#DejaVuSans-4e" x="750.984375"/>
      </g>
     </g>
    </g>
   </g>
   <g id="patch_3">
    <path d="M 207.681719 505.281818 
L 216.760061 505.281818 
L 216.760061 405.415789 
L 207.681719 405.415789 
z
" clip-path="url(#pc740f04169)" style="fill: #1f77b4; opacity: 0.65; stroke: #000000; stroke-width: 0.5; stroke-linejoin: miter"/>
   </g>
   <g id="patch_4">
    <path d="M 207.681719 380.449282 
L 216.760061 380.449282 
L 216.760061 280.583254 
L 207.681719 280.583254 
z
" clip-path="url(#pc740f04169)" style="fill: #1f77b4; opacity: 0.65; stroke: #000000; stroke-width: 0.5; stroke-linejoin: miter"/>
   </g>
   <g id="patch_5">
    <path d="M 207.681719 255.616746 
L 216.760061 255.616746 
L 216.760061 155.750718 
L 207.681719 155.750718 
z
" clip-path="url(#pc740f04169)" style="fill: #1f77b4; opacity: 0.65; stroke: #000000; stroke-width: 0.5; stroke-linejoin: miter"/>
   </g>
   <g id="patch_6">
    <path d="M 207.681719 130.784211 
L 815.930617 130.784211 
L 815.930617 30.918182 
L 207.681719 30.918182 
z
" clip-path="url(#pc740f04169)" style="fill: #1f77b4; opacity: 0.65; stroke: #000000; stroke-width: 0.5; stroke-linejoin: miter"/>
   </g>
   <g id="patch_7">
    <path d="M 207.681719 529 
L 207.681719 7.2 
" style="fill: none; stroke: #ffffff; stroke-linejoin: miter; stroke-linecap: square"/>
   </g>
   <g id="patch_8">
    <path d="M 846.343062 529 
L 846.343062 7.2 
" style="fill: none; stroke: #ffffff; stroke-linejoin: miter; stroke-linecap: square"/>
   </g>
   <g id="patch_9">
    <path d="M 207.681719 529 
L 846.343062 529 
" style="fill: none; stroke: #ffffff; stroke-linejoin: miter; stroke-linecap: square"/>
   </g>
   <g id="patch_10">
    <path d="M 207.681719 7.2 
L 846.343062 7.2 
" style="fill: none; stroke: #ffffff; stroke-linejoin: miter; stroke-linecap: square"/>
   </g>
  </g>
 </g>
 <defs>
  <clipPath id="pc740f04169">
   <rect x="207.681719" y="7.2" width="638.661343" height="521.8"/>
  </clipPath>
 </defs>
</svg>
