<?xml version="1.0" encoding="utf-8" standalone="no"?>
<!DOCTYPE svg PUBLIC "-//W3C//DTD SVG 1.1//EN"
  "http://www.w3.org/Graphics/SVG/1.1/DTD/svg11.dtd">
<svg xmlns:xlink="http://www.w3.org/1999/xlink" width="856.352813pt" height="568.971875pt" viewBox="0 0 856.352813 568.971875" xmlns="http://www.w3.org/2000/svg" version="1.1">
 <metadata>
  <rdf:RDF xmlns:dc="http://purl.org/dc/elements/1.1/" xmlns:cc="http://creativecommons.org/ns#" xmlns:rdf="http://www.w3.org/1999/02/22-rdf-syntax-ns#">
   <cc:Work>
    <dc:type rdf:resource="http://purl.org/dc/dcmitype/StillImage"/>
    <dc:date>2026-02-07T22:19:18.923692</dc:date>
    <dc:format>image/svg+xml</dc:format>
    <dc:creator>
     <cc:Agent>
      <dc:title>Matplotlib v3.6.3, https://matplotlib.org/</dc:title>
     </cc:Agent>
    </dc:creator>
   </cc:Work>
  </rdf:RDF>
 </metadata>
 <defs>
  <style type="text/css">*{stroke-linejoin: round; stroke-linecap: butt}</style>
 </defs>
 <g id="figure_1">
  <g id="patch_1">
   <path d="M 0 568.971875 
L 856.352813 568.971875 
L 856.352813 0 
L 0 0 
z
" style="fill: #ffffff"/>
  </g>
  <g id="axes_1">
   <g id="patch_2">
    <path d="M 206.352812 529 
L 849.152812 529 
L 849.152812 7.2 
L 206.352812 7.2 
z
" style="fill: #e5e5e5"/>
   </g>
   <g id="matplotlib.axis_1">
    <g id="xtick_1">
     <g id="line2d_1">
      <path d="M 206.352812 529 
L 206.352812 7.2 
" clip-path="url(#p4a3c92497f)" style="fill: none; stroke: #ffffff; stroke-width: 0.8; stroke-linecap: square"/>
     </g>
     <g id="line2d_2">
      <defs>
       <path id="m1a26357389" d="M 0 0 
L 0 3.5 
" style="stroke: #555555; stroke-width: 0.8"/>
      </defs>
      <g>
       <use xlink:href="#m1a26357389" x="206.352812" y="529" style="fill: #555555; stroke: #555555; stroke-width: 0.8"/>
      </g>
     </g>
     <g id="text_1">
      <!-- 0 -->
      <g style="fill: #555555" transform="translate(203.171562 543.598438) scale(0.1 -0.1)">
       <defs>
        <path id="DejaVuSans-30" d="M 2034 4250 
Q 1547 4250 1301 3770 
Q 1056 3291 1056 2328 
Q 1056 1369 1301 889 
Q 1547 409 2034 409 
Q 2525 409 2770 889 
Q 3016 1369 3016 2328 
Q 3016 3291 2770 3770 
Q 2525 4250 2034 4250 
z
M 2034 4750 
Q 2819 4750 3233 4129 
Q 3647 3509 3647 2328 
Q 3647 1150 3233 529 
Q 2819 -91 2034 -91 
Q 1250 -91 836 529 
Q 422 1150 422 2328 
Q 422 3509 836 4129 
Q 1250 4750 2034 4750 
z
" transform="scale(0.015625)"/>
       </defs>
       <use xlink:href="#DejaVuSans-30"/>
      </g>
     </g>
    </g>
    <g id="xtick_2">
     <g id="line2d_3">
      <path d="M 329.80818 529 
L 329.80818 7.2 
" clip-path="url(#p4a3c92497f)" style="fill: none; stroke: #ffffff; stroke-width: 0.8; stroke-linecap: square"/>
     </g>
     <g id="line2d_4">
      <g>
       <use xlink:href="#m1a26357389" x="329.80818" y="529" style="fill: #555555; stroke: #555555; stroke-width: 0.8"/>
      </g>
     </g>
     <g id="text_2">
      <!-- 5000 -->
      <g style="fill: #555555" transform="translate(317.08318 543.598438) scale(0.1 -0.1)">
       <defs>
        <path id="DejaVuSans-35" d="M 691 4666 
L 3169 4666 
L 3169 4134 
L 1269 4134 
L 1269 2991 
Q 1406 3038 1543 3061 
Q 1681 3084 1819 3084 
Q 2600 3084 3056 2656 
Q 3513 2228 3513 1497 
Q 3513 744 3044 326 
Q 2575 -91 1722 -91 
Q 1428 -91 1123 -41 
Q 819 9 494 109 
L 494 744 
Q 775 591 1075 516 
Q 1375 441 1709 441 
Q 2250 441 2565 725 
Q 2881 1009 2881 1497 
Q 2881 1984 2565 2268 
Q 2250 2553 1709 2553 
Q 1456 2553 1204 2497 
Q 953 2441 691 2322 
L 691 4666 
z
" transform="scale(0.015625)"/>
       </defs>
       <use xlink:href="#DejaVuSans-35"/>
       <use xlink:href="#DejaVuSans-30" x="63.623047"/>
       <use xlink:href="#DejaVuSans-30" x="127.246094"/>
       <use xlink:href="#DejaVuSans-30" x="190.869141"/>
      </g>
     </g>
    </g>
    <g id="xtick_3">
     <g id="line2d_5">
      <path d="M 453.263547 529 
L 453.263547 7.2 
" clip-path="url(#p4a3c92497f)" style="fill: none; stroke: #ffffff; stroke-width: 0.8; stroke-linecap: square"/>
     </g>
     <g id="line2d_6">
      <g>
       <use xlink:href="#m1a26357389" x="453.263547" y="529" style="fill: #555555; stroke: #555555; stroke-width: 0.8"/>
      </g>
     </g>
     <g id="text_3">
      <!-- 10000 -->
      <g style="fill: #555555" transform="translate(437.357297 543.598438) scale(0.1 -0.1)">
       <defs>
        <path id="DejaVuSans-31" d="M 794 531 
L 1825 531 
L 1825 4091 
L 703 3866 
L 703 4441 
L 1819 4666 
L 2450 4666 
L 2450 531 
L 3481 531 
L 3481 0 
L 794 0 
L 794 531 
z
" transform="scale(0.015625)"/>
       </defs>
       <use xlink:href="#DejaVuSans-31"/>
       <use xlink:href="#DejaVuSans-30" x="63.623047"/>
       <use xlink:href="#DejaVuSans-30" x="127.246094"/>
       <use xlink:href="#DejaVuSans-30" x="190.869141"/>
       <use xlink:href="#DejaVuSans-30" x="254.492188"/>
      </g>
     </g>
    </g>
    <g id="xtick_4">
     <g id="line2d_7">
      <path d="M 576.718915 529 
L 576.718915 7.2 
" clip-path="url(#p4a3c92497f)" style="fill: none; stroke: #ffffff; stroke-width: 0.8; stroke-linecap: square"/>
     </g>
     <g id="line2d_8">
      <g>
       <use xlink:href="#m1a26357389" x="576.718915" y="529" style="fill: #555555; stroke: #555555; stroke-width: 0.8"/>
      </g>
     </g>
     <g id="text_4">
      <!-- 15000 -->
      <g style="fill: #555555" transform="translate(560.812665 543.598438) scale(0.1 -0.1)">
       <use xlink:href="#DejaVuSans-31"/>
       <use xlink:href="#DejaVuSans-35" x="63.623047"/>
       <use xlink:href="#DejaVuSans-30" x="127.246094"/>
       <use xlink:href="#DejaVuSans-30" x="190.869141"/>
       <use xlink:href="#DejaVuSans-30" x="254.492188"/>
      </g>
     </g>
    </g>
    <g id="xtick_5">
     <g id="line2d_9">
      <path d="M 700.174282 529 
L 700.174282 7.2 
" clip-path="url(#p4a3c92497f)" style="fill: none; stroke: #ffffff; stroke-width: 0.8; stroke-linecap: square"/>
     </g>
     <g id="line2d_10">
      <g>
       <use xlink:href="#m1a26357389" x="700.174282" y="529" style="fill: #555555; stroke: #555555; stroke-width: 0.8"/>
      </g>
     </g>
     <g id="text_5">
      <!-- 20000 -->
      <g style="fill: #555555" transform="translate(684.268032 543.598438) scale(0.1 -0.1)">
       <defs>
        <path id="DejaVuSans-32" d="M 1228 531 
L 3431 531 
L 3431 0 
L 469 0 
L 469 531 
Q 828 903 1448 1529 
Q 2069 2156 2228 2338 
Q 2531 2678 2651 2914 
Q 2772 3150 2772 3378 
Q 2772 3750 2511 3984 
Q 2250 4219 1831 4219 
Q 1534 4219 1204 4116 
Q 875 4013 500 3803 
L 500 4441 
Q 881 4594 1212 4672 
Q 1544 4750 1819 4750 
Q 2544 4750 2975 4387 
Q 3406 4025 3406 3419 
Q 3406 3131 3298 2873 
Q 3191 2616 2906 2266 
Q 2828 2175 2409 1742 
Q 1991 1309 1228 531 
z
" transform="scale(0.015625)"/>
       </defs>
       <use xlink:href="#DejaVuSans-32"/>
       <use xlink:href="#DejaVuSans-30" x="63.623047"/>
       <use xlink:href="#DejaVuSans-30" x="127.246094"/>
       <use xlink:href="#DejaVuSans-30" x="190.869141"/>
       <use xlink:href="#DejaVuSans-30" x="254.492188"/>
      </g>
     </g>
    </g>
    <g id="xtick_6">
     <g id="line2d_11">
      <path d="M 823.62965 529 
L 823.62965 7.2 
" clip-path="url(#p4a3c92497f)" style="fill: none; stroke: #ffffff; stroke-width: 0.8; stroke-linecap: square"/>
     </g>
     <g id="line2d_12">
      <g>
       <use xlink:href="#m1a26357389" x="823.62965" y="529" style="fill: #555555; stroke: #555555; stroke-width: 0.8"/>
      </g>
     </g>
     <g id="text_6">
      <!-- 25000 -->
      <g style="fill: #555555" transform="translate(807.7234 543.598438) scale(0.1 -0.1)">
       <use xlink:href="#DejaVuSans-32"/>
       <use xlink:href="#DejaVuSans-35" x="63.623047"/>
       <use xlink:href="#DejaVuSans-30" x="127.246094"/>
       <use xlink:href="#DejaVuSans-30" x="190.869141"/>
       <use xlink:href="#DejaVuSans-30" x="254.492188"/>
      </g>
     </g>
    </g>
    <g id="text_7">
     <!-- Número de egresos -->
     <g style="fill: #555555" transform="translate(469.160937 559.27625) scale(0.12 -0.12)">
      <defs>
       <path id="DejaVuSans-4e" d="M 628 4666 
L 1478 4666 
L 3547 763 
L 3547 4666 
L 4159 4666 
L 4159 0 
L 3309 0 
L 1241 3903 
L 1241 0 
L 628 0 
L 628 4666 
z
" transform="scale(0.015625)"/>
       <path id="DejaVuSans-fa" d="M 544 1381 
L 544 3500 
L 1119 3500 
L 1119 1403 
Q 1119 906 1312 657 
Q 1506 409 1894 409 
Q 2359 409 2629 706 
Q 2900 1003 2900 1516 
L 2900 3500 
L 3475 3500 
L 3475 0 
L 2900 0 
L 2900 538 
Q 2691 219 2414 64 
Q 2138 -91 1772 -91 
Q 1169 -91 856 284 
Q 544 659 544 1381 
z
M 1991 3584 
L 1991 3584 
z
M 2419 5119 
L 3041 5119 
L 2022 3944 
L 1544 3944 
L 2419 5119 
z
" transform="scale(0.015625)"/>
       <path id="DejaVuSans-6d" d="M 3328 2828 
Q 3544 3216 3844 3400 
Q 4144 3584 4550 3584 
Q 5097 3584 5394 3201 
Q 5691 2819 5691 2113 
L 5691 0 
L 5113 0 
L 5113 2094 
Q 5113 2597 4934 2840 
Q 4756 3084 4391 3084 
Q 3944 3084 3684 2787 
Q 3425 2491 3425 1978 
L 3425 0 
L 2847 0 
L 2847 2094 
Q 2847 2600 2669 2842 
Q 2491 3084 2119 3084 
Q 1678 3084 1418 2786 
Q 1159 2488 1159 1978 
L 1159 0 
L 581 0 
L 581 3500 
L 1159 3500 
L 1159 2956 
Q 1356 3278 1631 3431 
Q 1906 3584 2284 3584 
Q 2666 3584 2933 3390 
Q 3200 3197 3328 2828 
z
" transform="scale(0.015625)"/>
       <path id="DejaVuSans-65" d="M 3597 1894 
L 3597 1613 
L 953 1613 
Q 991 1019 1311 708 
Q 1631 397 2203 397 
Q 2534 397 2845 478 
Q 3156 559 3463 722 
L 3463 178 
Q 3153 47 2828 -22 
Q 2503 -91 2169 -91 
Q 1331 -91 842 396 
Q 353 884 353 1716 
Q 353 2575 817 3079 
Q 1281 3584 2069 3584 
Q 2775 3584 3186 3129 
Q 3597 2675 3597 1894 
z
M 3022 2063 
Q 3016 2534 2758 2815 
Q 2500 3097 2075 3097 
Q 1594 3097 1305 2825 
Q 1016 2553 972 2059 
L 3022 2063 
z
" transform="scale(0.015625)"/>
       <path id="DejaVuSans-72" d="M 2631 2963 
Q 2534 3019 2420 3045 
Q 2306 3072 2169 3072 
Q 1681 3072 1420 2755 
Q 1159 2438 1159 1844 
L 1159 0 
L 581 0 
L 581 3500 
L 1159 3500 
L 1159 2956 
Q 1341 3275 1631 3429 
Q 1922 3584 2338 3584 
Q 2397 3584 2469 3576 
Q 2541 3569 2628 3553 
L 2631 2963 
z
" transform="scale(0.015625)"/>
       <path id="DejaVuSans-6f" d="M 1959 3097 
Q 1497 3097 1228 2736 
Q 959 2375 959 1747 
Q 959 1119 1226 758 
Q 1494 397 1959 397 
Q 2419 397 2687 759 
Q 2956 1122 2956 1747 
Q 2956 2369 2687 2733 
Q 2419 3097 1959 3097 
z
M 1959 3584 
Q 2709 3584 3137 3096 
Q 3566 2609 3566 1747 
Q 3566 888 3137 398 
Q 2709 -91 1959 -91 
Q 1206 -91 779 398 
Q 353 888 353 1747 
Q 353 2609 779 3096 
Q 1206 3584 1959 3584 
z
" transform="scale(0.015625)"/>
       <path id="DejaVuSans-20" transform="scale(0.015625)"/>
       <path id="DejaVuSans-64" d="M 2906 2969 
L 2906 4863 
L 3481 4863 
L 3481 0 
L 2906 0 
L 2906 525 
Q 2725 213 2448 61 
Q 2172 -91 1784 -91 
Q 1150 -91 751 415 
Q 353 922 353 1747 
Q 353 2572 751 3078 
Q 1150 3584 1784 3584 
Q 2172 3584 2448 3432 
Q 2725 3281 2906 2969 
z
M 947 1747 
Q 947 1113 1208 752 
Q 1469 391 1925 391 
Q 2381 391 2643 752 
Q 2906 1113 2906 1747 
Q 2906 2381 2643 2742 
Q 2381 3103 1925 3103 
Q 1469 3103 1208 2742 
Q 947 2381 947 1747 
z
" transform="scale(0.015625)"/>
       <path id="DejaVuSans-67" d="M 2906 1791 
Q 2906 2416 2648 2759 
Q 2391 3103 1925 3103 
Q 1463 3103 1205 2759 
Q 947 2416 947 1791 
Q 947 1169 1205 825 
Q 1463 481 1925 481 
Q 2391 481 2648 825 
Q 2906 1169 2906 1791 
z
M 3481 434 
Q 3481 -459 3084 -895 
Q 2688 -1331 1869 -1331 
Q 1566 -1331 1297 -1286 
Q 1028 -1241 775 -1147 
L 775 -588 
Q 1028 -725 1275 -790 
Q 1522 -856 1778 -856 
Q 2344 -856 2625 -561 
Q 2906 -266 2906 331 
L 2906 616 
Q 2728 306 2450 153 
Q 2172 0 1784 0 
Q 1141 0 747 490 
Q 353 981 353 1791 
Q 353 2603 747 3093 
Q 1141 3584 1784 3584 
Q 2172 3584 2450 3431 
Q 2728 3278 2906 2969 
L 2906 3500 
L 3481 3500 
L 3481 434 
z
" transform="scale(0.015625)"/>
       <path id="DejaVuSans-73" d="M 2834 3397 
L 2834 2853 
Q 2591 2978 2328 3040 
Q 2066 3103 1784 3103 
Q 1356 3103 1142 2972 
Q 928 2841 928 2578 
Q 928 2378 1081 2264 
Q 1234 2150 1697 2047 
L 1894 2003 
Q 2506 1872 2764 1633 
Q 3022 1394 3022 966 
Q 3022 478 2636 193 
Q 2250 -91 1575 -91 
Q 1294 -91 989 -36 
Q 684 19 347 128 
L 347 722 
Q 666 556 975 473 
Q 1284 391 1588 391 
Q 1994 391 2212 530 
Q 2431 669 2431 922 
Q 2431 1156 2273 1281 
Q 2116 1406 1581 1522 
L 1381 1569 
Q 847 1681 609 1914 
Q 372 2147 372 2553 
Q 372 3047 722 3315 
Q 1072 3584 1716 3584 
Q 2034 3584 2315 3537 
Q 2597 3491 2834 3397 
z
" transform="scale(0.015625)"/>
      </defs>
      <use xlink:href="#DejaVuSans-4e"/>
      <use xlink:href="#DejaVuSans-fa" x="74.804688"/>
      <use xlink:href="#DejaVuSans-6d" x="138.183594"/>
      <use xlink:href="#DejaVuSans-65" x="235.595703"/>
      <use xlink:href="#DejaVuSans-72" x="297.119141"/>
      <use xlink:href="#DejaVuSans-6f" x="335.982422"/>
      <use xlink:href="#DejaVuSans-20" x="397.164062"/>
      <use xlink:href="#DejaVuSans-64" x="428.951172"/>
      <use xlink:href="#DejaVuSans-65" x="492.427734"/>
      <use xlink:href="#DejaVuSans-20" x="553.951172"/>
      <use xlink:href="#DejaVuSans-65" x="585.738281"/>
      <use xlink:href="#DejaVuSans-67" x="647.261719"/>
      <use xlink:href="#DejaVuSans-72" x="710.738281"/>
      <use xlink:href="#DejaVuSans-65" x="749.601562"/>
      <use xlink:href="#DejaVuSans-73" x="811.125"/>
      <use xlink:href="#DejaVuSans-6f" x="863.224609"/>
      <use xlink:href="#DejaVuSans-73" x="924.40625"/>
     </g>
    </g>
   </g>
   <g id="matplotlib.axis_2">
    <g id="ytick_1">
     <g id="line2d_13">
      <path d="M 206.352812 485.920037 
L 849.152812 485.920037 
" clip-path="url(#p4a3c92497f)" style="fill: none; stroke: #ffffff; stroke-width: 0.8; stroke-linecap: square"/>
     </g>
     <g id="line2d_14">
      <defs>
       <path id="mac77297598" d="M 0 0 
L -3.5 0 
" style="stroke: #555555; stroke-width: 0.8"/>
      </defs>
      <g>
       <use xlink:href="#mac77297598" x="206.352812" y="485.920037" style="fill: #555555; stroke: #555555; stroke-width: 0.8"/>
      </g>
     </g>
     <g id="text_8">
      <!-- ARRITMIA CARDÍACA, NO ESPECIFICADA -->
      <g style="fill: #555555" transform="translate(19.326094 489.68035) scale(0.09 -0.09)">
       <defs>
        <path id="DejaVuSans-41" d="M 2188 4044 
L 1331 1722 
L 3047 1722 
L 2188 4044 
z
M 1831 4666 
L 2547 4666 
L 4325 0 
L 3669 0 
L 3244 1197 
L 1141 1197 
L 716 0 
L 50 0 
L 1831 4666 
z
" transform="scale(0.015625)"/>
        <path id="DejaVuSans-52" d="M 2841 2188 
Q 3044 2119 3236 1894 
Q 3428 1669 3622 1275 
L 4263 0 
L 3584 0 
L 2988 1197 
Q 2756 1666 2539 1819 
Q 2322 1972 1947 1972 
L 1259 1972 
L 1259 0 
L 628 0 
L 628 4666 
L 2053 4666 
Q 2853 4666 3247 4331 
Q 3641 3997 3641 3322 
Q 3641 2881 3436 2590 
Q 3231 2300 2841 2188 
z
M 1259 4147 
L 1259 2491 
L 2053 2491 
Q 2509 2491 2742 2702 
Q 2975 2913 2975 3322 
Q 2975 3731 2742 3939 
Q 2509 4147 2053 4147 
L 1259 4147 
z
" transform="scale(0.015625)"/>
        <path id="DejaVuSans-49" d="M 628 4666 
L 1259 4666 
L 1259 0 
L 628 0 
L 628 4666 
z
" transform="scale(0.015625)"/>
        <path id="DejaVuSans-54" d="M -19 4666 
L 3928 4666 
L 3928 4134 
L 2272 4134 
L 2272 0 
L 1638 0 
L 1638 4134 
L -19 4134 
L -19 4666 
z
" transform="scale(0.015625)"/>
        <path id="DejaVuSans-4d" d="M 628 4666 
L 1569 4666 
L 2759 1491 
L 3956 4666 
L 4897 4666 
L 4897 0 
L 4281 0 
L 4281 4097 
L 3078 897 
L 2444 897 
L 1241 4097 
L 1241 0 
L 628 0 
L 628 4666 
z
" transform="scale(0.015625)"/>
        <path id="DejaVuSans-43" d="M 4122 4306 
L 4122 3641 
Q 3803 3938 3442 4084 
Q 3081 4231 2675 4231 
Q 1875 4231 1450 3742 
Q 1025 3253 1025 2328 
Q 1025 1406 1450 917 
Q 1875 428 2675 428 
Q 3081 428 3442 575 
Q 3803 722 4122 1019 
L 4122 359 
Q 3791 134 3420 21 
Q 3050 -91 2638 -91 
Q 1578 -91 968 557 
Q 359 1206 359 2328 
Q 359 3453 968 4101 
Q 1578 4750 2638 4750 
Q 3056 4750 3426 4639 
Q 3797 4528 4122 4306 
z
" transform="scale(0.015625)"/>
        <path id="DejaVuSans-44" d="M 1259 4147 
L 1259 519 
L 2022 519 
Q 2988 519 3436 956 
Q 3884 1394 3884 2338 
Q 3884 3275 3436 3711 
Q 2988 4147 2022 4147 
L 1259 4147 
z
M 628 4666 
L 1925 4666 
Q 3281 4666 3915 4102 
Q 4550 3538 4550 2338 
Q 4550 1131 3912 565 
Q 3275 0 1925 0 
L 628 0 
L 628 4666 
z
" transform="scale(0.015625)"/>
        <path id="DejaVuSans-cd" d="M 628 4666 
L 1259 4666 
L 1259 0 
L 628 0 
L 628 4666 
z
M 1119 5935 
L 1697 5935 
L 984 5110 
L 506 5110 
L 1119 5935 
z
" transform="scale(0.015625)"/>
        <path id="DejaVuSans-2c" d="M 750 794 
L 1409 794 
L 1409 256 
L 897 -744 
L 494 -744 
L 750 256 
L 750 794 
z
" transform="scale(0.015625)"/>
        <path id="DejaVuSans-4f" d="M 2522 4238 
Q 1834 4238 1429 3725 
Q 1025 3213 1025 2328 
Q 1025 1447 1429 934 
Q 1834 422 2522 422 
Q 3209 422 3611 934 
Q 4013 1447 4013 2328 
Q 4013 3213 3611 3725 
Q 3209 4238 2522 4238 
z
M 2522 4750 
Q 3503 4750 4090 4092 
Q 4678 3434 4678 2328 
Q 4678 1225 4090 567 
Q 3503 -91 2522 -91 
Q 1538 -91 948 565 
Q 359 1222 359 2328 
Q 359 3434 948 4092 
Q 1538 4750 2522 4750 
z
" transform="scale(0.015625)"/>
        <path id="DejaVuSans-45" d="M 628 4666 
L 3578 4666 
L 3578 4134 
L 1259 4134 
L 1259 2753 
L 3481 2753 
L 3481 2222 
L 1259 2222 
L 1259 531 
L 3634 531 
L 3634 0 
L 628 0 
L 628 4666 
z
" transform="scale(0.015625)"/>
        <path id="DejaVuSans-53" d="M 3425 4513 
L 3425 3897 
Q 3066 4069 2747 4153 
Q 2428 4238 2131 4238 
Q 1616 4238 1336 4038 
Q 1056 3838 1056 3469 
Q 1056 3159 1242 3001 
Q 1428 2844 1947 2747 
L 2328 2669 
Q 3034 2534 3370 2195 
Q 3706 1856 3706 1288 
Q 3706 609 3251 259 
Q 2797 -91 1919 -91 
Q 1588 -91 1214 -16 
Q 841 59 441 206 
L 441 856 
Q 825 641 1194 531 
Q 1563 422 1919 422 
Q 2459 422 2753 634 
Q 3047 847 3047 1241 
Q 3047 1584 2836 1778 
Q 2625 1972 2144 2069 
L 1759 2144 
Q 1053 2284 737 2584 
Q 422 2884 422 3419 
Q 422 4038 858 4394 
Q 1294 4750 2059 4750 
Q 2388 4750 2728 4690 
Q 3069 4631 3425 4513 
z
" transform="scale(0.015625)"/>
        <path id="DejaVuSans-50" d="M 1259 4147 
L 1259 2394 
L 2053 2394 
Q 2494 2394 2734 2622 
Q 2975 2850 2975 3272 
Q 2975 3691 2734 3919 
Q 2494 4147 2053 4147 
L 1259 4147 
z
M 628 4666 
L 2053 4666 
Q 2838 4666 3239 4311 
Q 3641 3956 3641 3272 
Q 3641 2581 3239 2228 
Q 2838 1875 2053 1875 
L 1259 1875 
L 1259 0 
L 628 0 
L 628 4666 
z
" transform="scale(0.015625)"/>
        <path id="DejaVuSans-46" d="M 628 4666 
L 3309 4666 
L 3309 4134 
L 1259 4134 
L 1259 2759 
L 3109 2759 
L 3109 2228 
L 1259 2228 
L 1259 0 
L 628 0 
L 628 4666 
z
" transform="scale(0.015625)"/>
       </defs>
       <use xlink:href="#DejaVuSans-41"/>
       <use xlink:href="#DejaVuSans-52" x="68.408203"/>
       <use xlink:href="#DejaVuSans-52" x="137.890625"/>
       <use xlink:href="#DejaVuSans-49" x="207.373047"/>
       <use xlink:href="#DejaVuSans-54" x="236.865234"/>
       <use xlink:href="#DejaVuSans-4d" x="297.949219"/>
       <use xlink:href="#DejaVuSans-49" x="384.228516"/>
       <use xlink:href="#DejaVuSans-41" x="413.720703"/>
       <use xlink:href="#DejaVuSans-20" x="482.128906"/>
       <use xlink:href="#DejaVuSans-43" x="513.916016"/>
       <use xlink:href="#DejaVuSans-41" x="583.740234"/>
       <use xlink:href="#DejaVuSans-52" x="652.148438"/>
       <use xlink:href="#DejaVuSans-44" x="721.630859"/>
       <use xlink:href="#DejaVuSans-cd" x="798.632812"/>
       <use xlink:href="#DejaVuSans-41" x="828.125"/>
       <use xlink:href="#DejaVuSans-43" x="894.783203"/>
       <use xlink:href="#DejaVuSans-41" x="964.607422"/>
       <use xlink:href="#DejaVuSans-2c" x="1033.015625"/>
       <use xlink:href="#DejaVuSans-20" x="1064.802734"/>
       <use xlink:href="#DejaVuSans-4e" x="1096.589844"/>
       <use xlink:href="#DejaVuSans-4f" x="1171.394531"/>
       <use xlink:href="#DejaVuSans-20" x="1250.105469"/>
       <use xlink:href="#DejaVuSans-45" x="1281.892578"/>
       <use xlink:href="#DejaVuSans-53" x="1345.076172"/>
       <use xlink:href="#DejaVuSans-50" x="1408.552734"/>
       <use xlink:href="#DejaVuSans-45" x="1468.855469"/>
       <use xlink:href="#DejaVuSans-43" x="1532.039062"/>
       <use xlink:href="#DejaVuSans-49" x="1601.863281"/>
       <use xlink:href="#DejaVuSans-46" x="1631.355469"/>
       <use xlink:href="#DejaVuSans-49" x="1688.875"/>
       <use xlink:href="#DejaVuSans-43" x="1718.367188"/>
       <use xlink:href="#DejaVuSans-41" x="1788.191406"/>
       <use xlink:href="#DejaVuSans-44" x="1856.599609"/>
       <use xlink:href="#DejaVuSans-41" x="1931.851562"/>
      </g>
     </g>
    </g>
    <g id="ytick_2">
     <g id="line2d_15">
      <path d="M 206.352812 437.515584 
L 849.152812 437.515584 
" clip-path="url(#p4a3c92497f)" style="fill: none; stroke: #ffffff; stroke-width: 0.8; stroke-linecap: square"/>
     </g>
     <g id="line2d_16">
      <g>
       <use xlink:href="#mac77297598" x="206.352812" y="437.515584" style="fill: #555555; stroke: #555555; stroke-width: 0.8"/>
      </g>
     </g>
     <g id="text_9">
      <!-- ENFERMEDAD RENAL CRÓNICA, ETAPA 5 -->
      <g style="fill: #555555" transform="translate(17.5275 441.275897) scale(0.09 -0.09)">
       <defs>
        <path id="DejaVuSans-4c" d="M 628 4666 
L 1259 4666 
L 1259 531 
L 3531 531 
L 3531 0 
L 628 0 
L 628 4666 
z
" transform="scale(0.015625)"/>
        <path id="DejaVuSans-d3" d="M 2522 4238 
Q 1834 4238 1429 3725 
Q 1025 3213 1025 2328 
Q 1025 1447 1429 934 
Q 1834 422 2522 422 
Q 3209 422 3611 934 
Q 4013 1447 4013 2328 
Q 4013 3213 3611 3725 
Q 3209 4238 2522 4238 
z
M 2522 4750 
Q 3503 4750 4090 4092 
Q 4678 3434 4678 2328 
Q 4678 1225 4090 567 
Q 3503 -91 2522 -91 
Q 1538 -91 948 565 
Q 359 1222 359 2328 
Q 359 3434 948 4092 
Q 1538 4750 2522 4750 
z
M 2694 5935 
L 3272 5935 
L 2559 5110 
L 2081 5110 
L 2694 5935 
z
" transform="scale(0.015625)"/>
       </defs>
       <use xlink:href="#DejaVuSans-45"/>
       <use xlink:href="#DejaVuSans-4e" x="63.183594"/>
       <use xlink:href="#DejaVuSans-46" x="137.988281"/>
       <use xlink:href="#DejaVuSans-45" x="195.507812"/>
       <use xlink:href="#DejaVuSans-52" x="258.691406"/>
       <use xlink:href="#DejaVuSans-4d" x="328.173828"/>
       <use xlink:href="#DejaVuSans-45" x="414.453125"/>
       <use xlink:href="#DejaVuSans-44" x="477.636719"/>
       <use xlink:href="#DejaVuSans-41" x="552.888672"/>
       <use xlink:href="#DejaVuSans-44" x="621.296875"/>
       <use xlink:href="#DejaVuSans-20" x="698.298828"/>
       <use xlink:href="#DejaVuSans-52" x="730.085938"/>
       <use xlink:href="#DejaVuSans-45" x="799.568359"/>
       <use xlink:href="#DejaVuSans-4e" x="862.751953"/>
       <use xlink:href="#DejaVuSans-41" x="937.556641"/>
       <use xlink:href="#DejaVuSans-4c" x="1005.964844"/>
       <use xlink:href="#DejaVuSans-20" x="1061.677734"/>
       <use xlink:href="#DejaVuSans-43" x="1093.464844"/>
       <use xlink:href="#DejaVuSans-52" x="1163.289062"/>
       <use xlink:href="#DejaVuSans-d3" x="1232.771484"/>
       <use xlink:href="#DejaVuSans-4e" x="1311.482422"/>
       <use xlink:href="#DejaVuSans-49" x="1386.287109"/>
       <use xlink:href="#DejaVuSans-43" x="1415.779297"/>
       <use xlink:href="#DejaVuSans-41" x="1485.603516"/>
       <use xlink:href="#DejaVuSans-2c" x="1554.011719"/>
       <use xlink:href="#DejaVuSans-20" x="1585.798828"/>
       <use xlink:href="#DejaVuSans-45" x="1617.585938"/>
       <use xlink:href="#DejaVuSans-54" x="1680.769531"/>
       <use xlink:href="#DejaVuSans-41" x="1734.103516"/>
       <use xlink:href="#DejaVuSans-50" x="1802.511719"/>
       <use xlink:href="#DejaVuSans-41" x="1856.439453"/>
       <use xlink:href="#DejaVuSans-20" x="1924.847656"/>
       <use xlink:href="#DejaVuSans-35" x="1956.634766"/>
      </g>
     </g>
    </g>
    <g id="ytick_3">
     <g id="line2d_17">
      <path d="M 206.352812 389.111132 
L 849.152812 389.111132 
" clip-path="url(#p4a3c92497f)" style="fill: none; stroke: #ffffff; stroke-width: 0.8; stroke-linecap: square"/>
     </g>
     <g id="line2d_18">
      <g>
       <use xlink:href="#mac77297598" x="206.352812" y="389.111132" style="fill: #555555; stroke: #555555; stroke-width: 0.8"/>
      </g>
     </g>
     <g id="text_10">
      <!-- TRASTORNOS DE ADAPTACIÓN -->
      <g style="fill: #555555" transform="translate(61.319531 392.530429) scale(0.09 -0.09)">
       <use xlink:href="#DejaVuSans-54"/>
       <use xlink:href="#DejaVuSans-52" x="61.083984"/>
       <use xlink:href="#DejaVuSans-41" x="126.566406"/>
       <use xlink:href="#DejaVuSans-53" x="194.974609"/>
       <use xlink:href="#DejaVuSans-54" x="258.451172"/>
       <use xlink:href="#DejaVuSans-4f" x="319.535156"/>
       <use xlink:href="#DejaVuSans-52" x="398.246094"/>
       <use xlink:href="#DejaVuSans-4e" x="467.728516"/>
       <use xlink:href="#DejaVuSans-4f" x="542.533203"/>
       <use xlink:href="#DejaVuSans-53" x="621.244141"/>
       <use xlink:href="#DejaVuSans-20" x="684.720703"/>
       <use xlink:href="#DejaVuSans-44" x="716.507812"/>
       <use xlink:href="#DejaVuSans-45" x="793.509766"/>
       <use xlink:href="#DejaVuSans-20" x="856.693359"/>
       <use xlink:href="#DejaVuSans-41" x="888.480469"/>
       <use xlink:href="#DejaVuSans-44" x="956.888672"/>
       <use xlink:href="#DejaVuSans-41" x="1032.140625"/>
       <use xlink:href="#DejaVuSans-50" x="1100.548828"/>
       <use xlink:href="#DejaVuSans-54" x="1160.851562"/>
       <use xlink:href="#DejaVuSans-41" x="1214.185547"/>
       <use xlink:href="#DejaVuSans-43" x="1280.84375"/>
       <use xlink:href="#DejaVuSans-49" x="1350.667969"/>
       <use xlink:href="#DejaVuSans-d3" x="1380.160156"/>
       <use xlink:href="#DejaVuSans-4e" x="1458.871094"/>
      </g>
     </g>
    </g>
    <g id="ytick_4">
     <g id="line2d_19">
      <path d="M 206.352812 340.706679 
L 849.152812 340.706679 
" clip-path="url(#p4a3c92497f)" style="fill: none; stroke: #ffffff; stroke-width: 0.8; stroke-linecap: square"/>
     </g>
     <g id="line2d_20">
      <g>
       <use xlink:href="#mac77297598" x="206.352812" y="340.706679" style="fill: #555555; stroke: #555555; stroke-width: 0.8"/>
      </g>
     </g>
     <g id="text_11">
      <!-- TUMOR DE COMPORTAMIENTO INCIERTO O -->
      <g style="fill: #555555" transform="translate(7.2 339.77082) scale(0.09 -0.09)">
       <defs>
        <path id="DejaVuSans-55" d="M 556 4666 
L 1191 4666 
L 1191 1831 
Q 1191 1081 1462 751 
Q 1734 422 2344 422 
Q 2950 422 3222 751 
Q 3494 1081 3494 1831 
L 3494 4666 
L 4128 4666 
L 4128 1753 
Q 4128 841 3676 375 
Q 3225 -91 2344 -91 
Q 1459 -91 1007 375 
Q 556 841 556 1753 
L 556 4666 
z
" transform="scale(0.015625)"/>
       </defs>
       <use xlink:href="#DejaVuSans-54"/>
       <use xlink:href="#DejaVuSans-55" x="61.083984"/>
       <use xlink:href="#DejaVuSans-4d" x="134.277344"/>
       <use xlink:href="#DejaVuSans-4f" x="220.556641"/>
       <use xlink:href="#DejaVuSans-52" x="299.267578"/>
       <use xlink:href="#DejaVuSans-20" x="368.75"/>
       <use xlink:href="#DejaVuSans-44" x="400.537109"/>
       <use xlink:href="#DejaVuSans-45" x="477.539062"/>
       <use xlink:href="#DejaVuSans-20" x="540.722656"/>
       <use xlink:href="#DejaVuSans-43" x="572.509766"/>
       <use xlink:href="#DejaVuSans-4f" x="642.333984"/>
       <use xlink:href="#DejaVuSans-4d" x="721.044922"/>
       <use xlink:href="#DejaVuSans-50" x="807.324219"/>
       <use xlink:href="#DejaVuSans-4f" x="867.626953"/>
       <use xlink:href="#DejaVuSans-52" x="946.337891"/>
       <use xlink:href="#DejaVuSans-54" x="1008.570312"/>
       <use xlink:href="#DejaVuSans-41" x="1061.904297"/>
       <use xlink:href="#DejaVuSans-4d" x="1130.3125"/>
       <use xlink:href="#DejaVuSans-49" x="1216.591797"/>
       <use xlink:href="#DejaVuSans-45" x="1246.083984"/>
       <use xlink:href="#DejaVuSans-4e" x="1309.267578"/>
       <use xlink:href="#DejaVuSans-54" x="1384.072266"/>
       <use xlink:href="#DejaVuSans-4f" x="1445.15625"/>
       <use xlink:href="#DejaVuSans-20" x="1523.867188"/>
       <use xlink:href="#DejaVuSans-49" x="1555.654297"/>
       <use xlink:href="#DejaVuSans-4e" x="1585.146484"/>
       <use xlink:href="#DejaVuSans-43" x="1659.951172"/>
       <use xlink:href="#DejaVuSans-49" x="1729.775391"/>
       <use xlink:href="#DejaVuSans-45" x="1759.267578"/>
       <use xlink:href="#DejaVuSans-52" x="1822.451172"/>
       <use xlink:href="#DejaVuSans-54" x="1884.683594"/>
       <use xlink:href="#DejaVuSans-4f" x="1945.767578"/>
       <use xlink:href="#DejaVuSans-20" x="2024.478516"/>
       <use xlink:href="#DejaVuSans-4f" x="2056.265625"/>
      </g>
      <!-- DESCONOCIDO DE LA MAMA -->
      <g style="fill: #555555" transform="translate(70.465781 349.848851) scale(0.09 -0.09)">
       <use xlink:href="#DejaVuSans-44"/>
       <use xlink:href="#DejaVuSans-45" x="77.001953"/>
       <use xlink:href="#DejaVuSans-53" x="140.185547"/>
       <use xlink:href="#DejaVuSans-43" x="203.662109"/>
       <use xlink:href="#DejaVuSans-4f" x="273.486328"/>
       <use xlink:href="#DejaVuSans-4e" x="352.197266"/>
       <use xlink:href="#DejaVuSans-4f" x="427.001953"/>
       <use xlink:href="#DejaVuSans-43" x="505.712891"/>
       <use xlink:href="#DejaVuSans-49" x="575.537109"/>
       <use xlink:href="#DejaVuSans-44" x="605.029297"/>
       <use xlink:href="#DejaVuSans-4f" x="682.03125"/>
       <use xlink:href="#DejaVuSans-20" x="760.742188"/>
       <use xlink:href="#DejaVuSans-44" x="792.529297"/>
       <use xlink:href="#DejaVuSans-45" x="869.53125"/>
       <use xlink:href="#DejaVuSans-20" x="932.714844"/>
       <use xlink:href="#DejaVuSans-4c" x="964.501953"/>
       <use xlink:href="#DejaVuSans-41" x="1022.464844"/>
       <use xlink:href="#DejaVuSans-20" x="1090.873047"/>
       <use xlink:href="#DejaVuSans-4d" x="1122.660156"/>
       <use xlink:href="#DejaVuSans-41" x="1208.939453"/>
       <use xlink:href="#DejaVuSans-4d" x="1277.347656"/>
       <use xlink:href="#DejaVuSans-41" x="1363.626953"/>
      </g>
     </g>
    </g>
    <g id="ytick_5">
     <g id="line2d_21">
      <path d="M 206.352812 292.302226 
L 849.152812 292.302226 
" clip-path="url(#p4a3c92497f)" style="fill: none; stroke: #ffffff; stroke-width: 0.8; stroke-linecap: square"/>
     </g>
     <g id="line2d_22">
      <g>
       <use xlink:href="#mac77297598" x="206.352812" y="292.302226" style="fill: #555555; stroke: #555555; stroke-width: 0.8"/>
      </g>
     </g>
     <g id="text_12">
      <!-- OTROS SIGNOS Y SÍNTOMAS RELATIVOS A -->
      <g style="fill: #555555" transform="translate(10.005469 291.366367) scale(0.09 -0.09)">
       <defs>
        <path id="DejaVuSans-47" d="M 3809 666 
L 3809 1919 
L 2778 1919 
L 2778 2438 
L 4434 2438 
L 4434 434 
Q 4069 175 3628 42 
Q 3188 -91 2688 -91 
Q 1594 -91 976 548 
Q 359 1188 359 2328 
Q 359 3472 976 4111 
Q 1594 4750 2688 4750 
Q 3144 4750 3555 4637 
Q 3966 4525 4313 4306 
L 4313 3634 
Q 3963 3931 3569 4081 
Q 3175 4231 2741 4231 
Q 1884 4231 1454 3753 
Q 1025 3275 1025 2328 
Q 1025 1384 1454 906 
Q 1884 428 2741 428 
Q 3075 428 3337 486 
Q 3600 544 3809 666 
z
" transform="scale(0.015625)"/>
        <path id="DejaVuSans-59" d="M -13 4666 
L 666 4666 
L 1959 2747 
L 3244 4666 
L 3922 4666 
L 2272 2222 
L 2272 0 
L 1638 0 
L 1638 2222 
L -13 4666 
z
" transform="scale(0.015625)"/>
        <path id="DejaVuSans-56" d="M 1831 0 
L 50 4666 
L 709 4666 
L 2188 738 
L 3669 4666 
L 4325 4666 
L 2547 0 
L 1831 0 
z
" transform="scale(0.015625)"/>
       </defs>
       <use xlink:href="#DejaVuSans-4f"/>
       <use xlink:href="#DejaVuSans-54" x="78.710938"/>
       <use xlink:href="#DejaVuSans-52" x="139.794922"/>
       <use xlink:href="#DejaVuSans-4f" x="209.277344"/>
       <use xlink:href="#DejaVuSans-53" x="287.988281"/>
       <use xlink:href="#DejaVuSans-20" x="351.464844"/>
       <use xlink:href="#DejaVuSans-53" x="383.251953"/>
       <use xlink:href="#DejaVuSans-49" x="446.728516"/>
       <use xlink:href="#DejaVuSans-47" x="476.220703"/>
       <use xlink:href="#DejaVuSans-4e" x="553.710938"/>
       <use xlink:href="#DejaVuSans-4f" x="628.515625"/>
       <use xlink:href="#DejaVuSans-53" x="707.226562"/>
       <use xlink:href="#DejaVuSans-20" x="770.703125"/>
       <use xlink:href="#DejaVuSans-59" x="802.490234"/>
       <use xlink:href="#DejaVuSans-20" x="863.574219"/>
       <use xlink:href="#DejaVuSans-53" x="895.361328"/>
       <use xlink:href="#DejaVuSans-cd" x="958.837891"/>
       <use xlink:href="#DejaVuSans-4e" x="988.330078"/>
       <use xlink:href="#DejaVuSans-54" x="1063.134766"/>
       <use xlink:href="#DejaVuSans-4f" x="1124.21875"/>
       <use xlink:href="#DejaVuSans-4d" x="1202.929688"/>
       <use xlink:href="#DejaVuSans-41" x="1289.208984"/>
       <use xlink:href="#DejaVuSans-53" x="1357.617188"/>
       <use xlink:href="#DejaVuSans-20" x="1421.09375"/>
       <use xlink:href="#DejaVuSans-52" x="1452.880859"/>
       <use xlink:href="#DejaVuSans-45" x="1522.363281"/>
       <use xlink:href="#DejaVuSans-4c" x="1585.546875"/>
       <use xlink:href="#DejaVuSans-41" x="1643.509766"/>
       <use xlink:href="#DejaVuSans-54" x="1704.167969"/>
       <use xlink:href="#DejaVuSans-49" x="1765.251953"/>
       <use xlink:href="#DejaVuSans-56" x="1794.744141"/>
       <use xlink:href="#DejaVuSans-4f" x="1861.402344"/>
       <use xlink:href="#DejaVuSans-53" x="1940.113281"/>
       <use xlink:href="#DejaVuSans-20" x="2003.589844"/>
       <use xlink:href="#DejaVuSans-41" x="2035.376953"/>
      </g>
      <!-- LA MAMA -->
      <g style="fill: #555555" transform="translate(157.275 301.444398) scale(0.09 -0.09)">
       <use xlink:href="#DejaVuSans-4c"/>
       <use xlink:href="#DejaVuSans-41" x="57.962891"/>
       <use xlink:href="#DejaVuSans-20" x="126.371094"/>
       <use xlink:href="#DejaVuSans-4d" x="158.158203"/>
       <use xlink:href="#DejaVuSans-41" x="244.4375"/>
       <use xlink:href="#DejaVuSans-4d" x="312.845703"/>
       <use xlink:href="#DejaVuSans-41" x="399.125"/>
      </g>
     </g>
    </g>
    <g id="ytick_6">
     <g id="line2d_23">
      <path d="M 206.352812 243.897774 
L 849.152812 243.897774 
" clip-path="url(#p4a3c92497f)" style="fill: none; stroke: #ffffff; stroke-width: 0.8; stroke-linecap: square"/>
     </g>
     <g id="line2d_24">
      <g>
       <use xlink:href="#mac77297598" x="206.352812" y="243.897774" style="fill: #555555; stroke: #555555; stroke-width: 0.8"/>
      </g>
     </g>
     <g id="text_13">
      <!-- DISPLASIA CERVICAL LEVE -->
      <g style="fill: #555555" transform="translate(80.465625 247.317071) scale(0.09 -0.09)">
       <use xlink:href="#DejaVuSans-44"/>
       <use xlink:href="#DejaVuSans-49" x="77.001953"/>
       <use xlink:href="#DejaVuSans-53" x="106.494141"/>
       <use xlink:href="#DejaVuSans-50" x="169.970703"/>
       <use xlink:href="#DejaVuSans-4c" x="230.273438"/>
       <use xlink:href="#DejaVuSans-41" x="288.236328"/>
       <use xlink:href="#DejaVuSans-53" x="356.644531"/>
       <use xlink:href="#DejaVuSans-49" x="420.121094"/>
       <use xlink:href="#DejaVuSans-41" x="449.613281"/>
       <use xlink:href="#DejaVuSans-20" x="518.021484"/>
       <use xlink:href="#DejaVuSans-43" x="549.808594"/>
       <use xlink:href="#DejaVuSans-45" x="619.632812"/>
       <use xlink:href="#DejaVuSans-52" x="682.816406"/>
       <use xlink:href="#DejaVuSans-56" x="746.798828"/>
       <use xlink:href="#DejaVuSans-49" x="815.207031"/>
       <use xlink:href="#DejaVuSans-43" x="844.699219"/>
       <use xlink:href="#DejaVuSans-41" x="914.523438"/>
       <use xlink:href="#DejaVuSans-4c" x="982.931641"/>
       <use xlink:href="#DejaVuSans-20" x="1038.644531"/>
       <use xlink:href="#DejaVuSans-4c" x="1070.431641"/>
       <use xlink:href="#DejaVuSans-45" x="1126.144531"/>
       <use xlink:href="#DejaVuSans-56" x="1189.328125"/>
       <use xlink:href="#DejaVuSans-45" x="1257.736328"/>
      </g>
     </g>
    </g>
    <g id="ytick_7">
     <g id="line2d_25">
      <path d="M 206.352812 195.493321 
L 849.152812 195.493321 
" clip-path="url(#p4a3c92497f)" style="fill: none; stroke: #ffffff; stroke-width: 0.8; stroke-linecap: square"/>
     </g>
     <g id="line2d_26">
      <g>
       <use xlink:href="#mac77297598" x="206.352812" y="195.493321" style="fill: #555555; stroke: #555555; stroke-width: 0.8"/>
      </g>
     </g>
     <g id="text_14">
      <!-- PRESENCIA DE LENTES INTRAOCULARES -->
      <g style="fill: #555555" transform="translate(17.464219 198.912618) scale(0.09 -0.09)">
       <use xlink:href="#DejaVuSans-50"/>
       <use xlink:href="#DejaVuSans-52" x="60.302734"/>
       <use xlink:href="#DejaVuSans-45" x="129.785156"/>
       <use xlink:href="#DejaVuSans-53" x="192.96875"/>
       <use xlink:href="#DejaVuSans-45" x="256.445312"/>
       <use xlink:href="#DejaVuSans-4e" x="319.628906"/>
       <use xlink:href="#DejaVuSans-43" x="394.433594"/>
       <use xlink:href="#DejaVuSans-49" x="464.257812"/>
       <use xlink:href="#DejaVuSans-41" x="493.75"/>
       <use xlink:href="#DejaVuSans-20" x="562.158203"/>
       <use xlink:href="#DejaVuSans-44" x="593.945312"/>
       <use xlink:href="#DejaVuSans-45" x="670.947266"/>
       <use xlink:href="#DejaVuSans-20" x="734.130859"/>
       <use xlink:href="#DejaVuSans-4c" x="765.917969"/>
       <use xlink:href="#DejaVuSans-45" x="821.630859"/>
       <use xlink:href="#DejaVuSans-4e" x="884.814453"/>
       <use xlink:href="#DejaVuSans-54" x="959.619141"/>
       <use xlink:href="#DejaVuSans-45" x="1020.703125"/>
       <use xlink:href="#DejaVuSans-53" x="1083.886719"/>
       <use xlink:href="#DejaVuSans-20" x="1147.363281"/>
       <use xlink:href="#DejaVuSans-49" x="1179.150391"/>
       <use xlink:href="#DejaVuSans-4e" x="1208.642578"/>
       <use xlink:href="#DejaVuSans-54" x="1283.447266"/>
       <use xlink:href="#DejaVuSans-52" x="1344.53125"/>
       <use xlink:href="#DejaVuSans-41" x="1410.013672"/>
       <use xlink:href="#DejaVuSans-4f" x="1476.671875"/>
       <use xlink:href="#DejaVuSans-43" x="1555.382812"/>
       <use xlink:href="#DejaVuSans-55" x="1625.207031"/>
       <use xlink:href="#DejaVuSans-4c" x="1698.400391"/>
       <use xlink:href="#DejaVuSans-41" x="1756.363281"/>
       <use xlink:href="#DejaVuSans-52" x="1824.771484"/>
       <use xlink:href="#DejaVuSans-45" x="1894.253906"/>
       <use xlink:href="#DejaVuSans-53" x="1957.4375"/>
      </g>
     </g>
    </g>
    <g id="ytick_8">
     <g id="line2d_27">
      <path d="M 206.352812 147.088868 
L 849.152812 147.088868 
" clip-path="url(#p4a3c92497f)" style="fill: none; stroke: #ffffff; stroke-width: 0.8; stroke-linecap: square"/>
     </g>
     <g id="line2d_28">
      <g>
       <use xlink:href="#mac77297598" x="206.352812" y="147.088868" style="fill: #555555; stroke: #555555; stroke-width: 0.8"/>
      </g>
     </g>
     <g id="text_15">
      <!-- HIPERTENSIÓN ESENCIAL (PRIMARIA) -->
      <g style="fill: #555555" transform="translate(33.114375 150.919493) scale(0.09 -0.09)">
       <defs>
        <path id="DejaVuSans-48" d="M 628 4666 
L 1259 4666 
L 1259 2753 
L 3553 2753 
L 3553 4666 
L 4184 4666 
L 4184 0 
L 3553 0 
L 3553 2222 
L 1259 2222 
L 1259 0 
L 628 0 
L 628 4666 
z
" transform="scale(0.015625)"/>
        <path id="DejaVuSans-28" d="M 1984 4856 
Q 1566 4138 1362 3434 
Q 1159 2731 1159 2009 
Q 1159 1288 1364 580 
Q 1569 -128 1984 -844 
L 1484 -844 
Q 1016 -109 783 600 
Q 550 1309 550 2009 
Q 550 2706 781 3412 
Q 1013 4119 1484 4856 
L 1984 4856 
z
" transform="scale(0.015625)"/>
        <path id="DejaVuSans-29" d="M 513 4856 
L 1013 4856 
Q 1481 4119 1714 3412 
Q 1947 2706 1947 2009 
Q 1947 1309 1714 600 
Q 1481 -109 1013 -844 
L 513 -844 
Q 928 -128 1133 580 
Q 1338 1288 1338 2009 
Q 1338 2731 1133 3434 
Q 928 4138 513 4856 
z
" transform="scale(0.015625)"/>
       </defs>
       <use xlink:href="#DejaVuSans-48"/>
       <use xlink:href="#DejaVuSans-49" x="75.195312"/>
       <use xlink:href="#DejaVuSans-50" x="104.6875"/>
       <use xlink:href="#DejaVuSans-45" x="164.990234"/>
       <use xlink:href="#DejaVuSans-52" x="228.173828"/>
       <use xlink:href="#DejaVuSans-54" x="290.40625"/>
       <use xlink:href="#DejaVuSans-45" x="351.490234"/>
       <use xlink:href="#DejaVuSans-4e" x="414.673828"/>
       <use xlink:href="#DejaVuSans-53" x="489.478516"/>
       <use xlink:href="#DejaVuSans-49" x="552.955078"/>
       <use xlink:href="#DejaVuSans-d3" x="582.447266"/>
       <use xlink:href="#DejaVuSans-4e" x="661.158203"/>
       <use xlink:href="#DejaVuSans-20" x="735.962891"/>
       <use xlink:href="#DejaVuSans-45" x="767.75"/>
       <use xlink:href="#DejaVuSans-53" x="830.933594"/>
       <use xlink:href="#DejaVuSans-45" x="894.410156"/>
       <use xlink:href="#DejaVuSans-4e" x="957.59375"/>
       <use xlink:href="#DejaVuSans-43" x="1032.398438"/>
       <use xlink:href="#DejaVuSans-49" x="1102.222656"/>
       <use xlink:href="#DejaVuSans-41" x="1131.714844"/>
       <use xlink:href="#DejaVuSans-4c" x="1200.123047"/>
       <use xlink:href="#DejaVuSans-20" x="1255.835938"/>
       <use xlink:href="#DejaVuSans-28" x="1287.623047"/>
       <use xlink:href="#DejaVuSans-50" x="1326.636719"/>
       <use xlink:href="#DejaVuSans-52" x="1386.939453"/>
       <use xlink:href="#DejaVuSans-49" x="1456.421875"/>
       <use xlink:href="#DejaVuSans-4d" x="1485.914062"/>
       <use xlink:href="#DejaVuSans-41" x="1572.193359"/>
       <use xlink:href="#DejaVuSans-52" x="1640.601562"/>
       <use xlink:href="#DejaVuSans-49" x="1710.083984"/>
       <use xlink:href="#DejaVuSans-41" x="1739.576172"/>
       <use xlink:href="#DejaVuSans-29" x="1807.984375"/>
      </g>
     </g>
    </g>
    <g id="ytick_9">
     <g id="line2d_29">
      <path d="M 206.352812 98.684416 
L 849.152812 98.684416 
" clip-path="url(#p4a3c92497f)" style="fill: none; stroke: #ffffff; stroke-width: 0.8; stroke-linecap: square"/>
     </g>
     <g id="line2d_30">
      <g>
       <use xlink:href="#mac77297598" x="206.352812" y="98.684416" style="fill: #555555; stroke: #555555; stroke-width: 0.8"/>
      </g>
     </g>
     <g id="text_16">
      <!-- TUMOR MALIGNO DE LA MAMA, PARTE NO -->
      <g style="fill: #555555" transform="translate(10.313437 97.748556) scale(0.09 -0.09)">
       <use xlink:href="#DejaVuSans-54"/>
       <use xlink:href="#DejaVuSans-55" x="61.083984"/>
       <use xlink:href="#DejaVuSans-4d" x="134.277344"/>
       <use xlink:href="#DejaVuSans-4f" x="220.556641"/>
       <use xlink:href="#DejaVuSans-52" x="299.267578"/>
       <use xlink:href="#DejaVuSans-20" x="368.75"/>
       <use xlink:href="#DejaVuSans-4d" x="400.537109"/>
       <use xlink:href="#DejaVuSans-41" x="486.816406"/>
       <use xlink:href="#DejaVuSans-4c" x="555.224609"/>
       <use xlink:href="#DejaVuSans-49" x="610.9375"/>
       <use xlink:href="#DejaVuSans-47" x="640.429688"/>
       <use xlink:href="#DejaVuSans-4e" x="717.919922"/>
       <use xlink:href="#DejaVuSans-4f" x="792.724609"/>
       <use xlink:href="#DejaVuSans-20" x="871.435547"/>
       <use xlink:href="#DejaVuSans-44" x="903.222656"/>
       <use xlink:href="#DejaVuSans-45" x="980.224609"/>
       <use xlink:href="#DejaVuSans-20" x="1043.408203"/>
       <use xlink:href="#DejaVuSans-4c" x="1075.195312"/>
       <use xlink:href="#DejaVuSans-41" x="1133.158203"/>
       <use xlink:href="#DejaVuSans-20" x="1201.566406"/>
       <use xlink:href="#DejaVuSans-4d" x="1233.353516"/>
       <use xlink:href="#DejaVuSans-41" x="1319.632812"/>
       <use xlink:href="#DejaVuSans-4d" x="1388.041016"/>
       <use xlink:href="#DejaVuSans-41" x="1474.320312"/>
       <use xlink:href="#DejaVuSans-2c" x="1542.728516"/>
       <use xlink:href="#DejaVuSans-20" x="1574.515625"/>
       <use xlink:href="#DejaVuSans-50" x="1606.302734"/>
       <use xlink:href="#DejaVuSans-41" x="1660.230469"/>
       <use xlink:href="#DejaVuSans-52" x="1728.638672"/>
       <use xlink:href="#DejaVuSans-54" x="1790.871094"/>
       <use xlink:href="#DejaVuSans-45" x="1851.955078"/>
       <use xlink:href="#DejaVuSans-20" x="1915.138672"/>
       <use xlink:href="#DejaVuSans-4e" x="1946.925781"/>
       <use xlink:href="#DejaVuSans-4f" x="2021.730469"/>
      </g>
      <!-- ESPECIFICADA -->
      <g style="fill: #555555" transform="translate(134.697656 107.826587) scale(0.09 -0.09)">
       <use xlink:href="#DejaVuSans-45"/>
       <use xlink:href="#DejaVuSans-53" x="63.183594"/>
       <use xlink:href="#DejaVuSans-50" x="126.660156"/>
       <use xlink:href="#DejaVuSans-45" x="186.962891"/>
       <use xlink:href="#DejaVuSans-43" x="250.146484"/>
       <use xlink:href="#DejaVuSans-49" x="319.970703"/>
       <use xlink:href="#DejaVuSans-46" x="349.462891"/>
       <use xlink:href="#DejaVuSans-49" x="406.982422"/>
       <use xlink:href="#DejaVuSans-43" x="436.474609"/>
       <use xlink:href="#DejaVuSans-41" x="506.298828"/>
       <use xlink:href="#DejaVuSans-44" x="574.707031"/>
       <use xlink:href="#DejaVuSans-41" x="649.958984"/>
      </g>
     </g>
    </g>
    <g id="ytick_10">
     <g id="line2d_31">
      <path d="M 206.352812 50.279963 
L 849.152812 50.279963 
" clip-path="url(#p4a3c92497f)" style="fill: none; stroke: #ffffff; stroke-width: 0.8; stroke-linecap: square"/>
     </g>
     <g id="line2d_32">
      <g>
       <use xlink:href="#mac77297598" x="206.352812" y="50.279963" style="fill: #555555; stroke: #555555; stroke-width: 0.8"/>
      </g>
     </g>
     <g id="text_17">
      <!-- OTROS -->
      <g style="fill: #555555" transform="translate(167.719219 53.69926) scale(0.09 -0.09)">
       <use xlink:href="#DejaVuSans-4f"/>
       <use xlink:href="#DejaVuSans-54" x="78.710938"/>
       <use xlink:href="#DejaVuSans-52" x="139.794922"/>
       <use xlink:href="#DejaVuSans-4f" x="209.277344"/>
       <use xlink:href="#DejaVuSans-53" x="287.988281"/>
      </g>
     </g>
    </g>
   </g>
   <g id="patch_3">
    <path d="M 206.352812 505.281818 
L 218.500821 505.281818 
L 218.500821 466.558256 
L 206.352812 466.558256 
z
" clip-path="url(#p4a3c92497f)" style="fill: #1f77b4; opacity: 0.65; stroke: #000000; stroke-width: 0.5; stroke-linejoin: miter"/>
   </g>
   <g id="patch_4">
    <path d="M 206.352812 456.877365 
L 221.488441 456.877365 
L 221.488441 418.153803 
L 206.352812 418.153803 
z
" clip-path="url(#p4a3c92497f)" style="fill: #1f77b4; opacity: 0.65; stroke: #000000; stroke-width: 0.5; stroke-linejoin: miter"/>
   </g>
   <g id="patch_5">
    <path d="M 206.352812 408.472913 
L 221.661278 408.472913 
L 221.661278 369.749351 
L 206.352812 369.749351 
z
" clip-path="url(#p4a3c92497f)" style="fill: #1f77b4; opacity: 0.65; stroke: #000000; stroke-width: 0.5; stroke-linejoin: miter"/>
   </g>
   <g id="patch_6">
    <path d="M 206.352812 360.06846 
L 222.945214 360.06846 
L 222.945214 321.344898 
L 206.352812 321.344898 
z
" clip-path="url(#p4a3c92497f)" style="fill: #1f77b4; opacity: 0.65; stroke: #000000; stroke-width: 0.5; stroke-linejoin: miter"/>
   </g>
   <g id="patch_7">
    <path d="M 206.352812 311.664007 
L 232.179675 311.664007 
L 232.179675 272.940445 
L 206.352812 272.940445 
z
" clip-path="url(#p4a3c92497f)" style="fill: #1f77b4; opacity: 0.65; stroke: #000000; stroke-width: 0.5; stroke-linejoin: miter"/>
   </g>
   <g id="patch_8">
    <path d="M 206.352812 263.259555 
L 232.895717 263.259555 
L 232.895717 224.535993 
L 206.352812 224.535993 
z
" clip-path="url(#p4a3c92497f)" style="fill: #1f77b4; opacity: 0.65; stroke: #000000; stroke-width: 0.5; stroke-linejoin: miter"/>
   </g>
   <g id="patch_9">
    <path d="M 206.352812 214.855102 
L 234.229034 214.855102 
L 234.229034 176.13154 
L 206.352812 176.13154 
z
" clip-path="url(#p4a3c92497f)" style="fill: #1f77b4; opacity: 0.65; stroke: #000000; stroke-width: 0.5; stroke-linejoin: miter"/>
   </g>
   <g id="patch_10">
    <path d="M 206.352812 166.450649 
L 247.562214 166.450649 
L 247.562214 127.727087 
L 206.352812 127.727087 
z
" clip-path="url(#p4a3c92497f)" style="fill: #1f77b4; opacity: 0.65; stroke: #000000; stroke-width: 0.5; stroke-linejoin: miter"/>
   </g>
   <g id="patch_11">
    <path d="M 206.352812 118.046197 
L 289.858023 118.046197 
L 289.858023 79.322635 
L 206.352812 79.322635 
z
" clip-path="url(#p4a3c92497f)" style="fill: #1f77b4; opacity: 0.65; stroke: #000000; stroke-width: 0.5; stroke-linejoin: miter"/>
   </g>
   <g id="patch_12">
    <path d="M 206.352812 69.641744 
L 818.543289 69.641744 
L 818.543289 30.918182 
L 206.352812 30.918182 
z
" clip-path="url(#p4a3c92497f)" style="fill: #1f77b4; opacity: 0.65; stroke: #000000; stroke-width: 0.5; stroke-linejoin: miter"/>
   </g>
   <g id="patch_13">
    <path d="M 206.352812 529 
L 206.352812 7.2 
" style="fill: none; stroke: #ffffff; stroke-linejoin: miter; stroke-linecap: square"/>
   </g>
   <g id="patch_14">
    <path d="M 849.152812 529 
L 849.152812 7.2 
" style="fill: none; stroke: #ffffff; stroke-linejoin: miter; stroke-linecap: square"/>
   </g>
   <g id="patch_15">
    <path d="M 206.352812 529 
L 849.152812 529 
" style="fill: none; stroke: #ffffff; stroke-linejoin: miter; stroke-linecap: square"/>
   </g>
   <g id="patch_16">
    <path d="M 206.352812 7.2 
L 849.152812 7.2 
" style="fill: none; stroke: #ffffff; stroke-linejoin: miter; stroke-linecap: square"/>
   </g>
  </g>
 </g>
 <defs>
  <clipPath id="p4a3c92497f">
   <rect x="206.352812" y="7.2" width="642.8" height="521.8"/>
  </clipPath>
 </defs>
</svg>
