<?xml version="1.0" encoding="utf-8" standalone="no"?>
<!DOCTYPE svg PUBLIC "-//W3C//DTD SVG 1.1//EN"
  "http://www.w3.org/Graphics/SVG/1.1/DTD/svg11.dtd">
<svg xmlns:xlink="http://www.w3.org/1999/xlink" width="856.919531pt" height="568.971875pt" viewBox="0 0 856.919531 568.971875" xmlns="http://www.w3.org/2000/svg" version="1.1">
 <metadata>
  <rdf:RDF xmlns:dc="http://purl.org/dc/elements/1.1/" xmlns:cc="http://creativecommons.org/ns#" xmlns:rdf="http://www.w3.org/1999/02/22-rdf-syntax-ns#">
   <cc:Work>
    <dc:type rdf:resource="http://purl.org/dc/dcmitype/StillImage"/>
    <dc:date>2026-02-07T22:17:31.771514</dc:date>
    <dc:format>image/svg+xml</dc:format>
    <dc:creator>
     <cc:Agent>
      <dc:title>Matplotlib v3.6.3, https://matplotlib.org/</dc:title>
     </cc:Agent>
    </dc:creator>
   </cc:Work>
  </rdf:RDF>
 </metadata>
 <defs>
  <style type="text/css">*{stroke-linejoin: round; stroke-linecap: butt}</style>
 </defs>
 <g id="figure_1">
  <g id="patch_1">
   <path d="M -0 568.971875 
L 856.919531 568.971875 
L 856.919531 0 
L -0 0 
z
" style="fill: #ffffff"/>
  </g>
  <g id="axes_1">
   <g id="patch_2">
    <path d="M 204.309531 529 
L 849.719531 529 
L 849.719531 7.2 
L 204.309531 7.2 
z
" style="fill: #e5e5e5"/>
   </g>
   <g id="matplotlib.axis_1">
    <g id="xtick_1">
     <g id="line2d_1">
      <path d="M 204.309531 529 
L 204.309531 7.2 
" clip-path="url(#pf10e3513c9)" style="fill: none; stroke: #ffffff; stroke-width: 0.8; stroke-linecap: square"/>
     </g>
     <g id="line2d_2">
      <defs>
       <path id="mfcad128459" d="M 0 0 
L 0 3.5 
" style="stroke: #555555; stroke-width: 0.8"/>
      </defs>
      <g>
       <use xlink:href="#mfcad128459" x="204.309531" y="529" style="fill: #555555; stroke: #555555; stroke-width: 0.8"/>
      </g>
     </g>
     <g id="text_1">
      <!-- 0 -->
      <g style="fill: #555555" transform="translate(201.128281 543.598438) scale(0.1 -0.1)">
       <defs>
        <path id="DejaVuSans-30" d="M 2034 4250 
Q 1547 4250 1301 3770 
Q 1056 3291 1056 2328 
Q 1056 1369 1301 889 
Q 1547 409 2034 409 
Q 2525 409 2770 889 
Q 3016 1369 3016 2328 
Q 3016 3291 2770 3770 
Q 2525 4250 2034 4250 
z
M 2034 4750 
Q 2819 4750 3233 4129 
Q 3647 3509 3647 2328 
Q 3647 1150 3233 529 
Q 2819 -91 2034 -91 
Q 1250 -91 836 529 
Q 422 1150 422 2328 
Q 422 3509 836 4129 
Q 1250 4750 2034 4750 
z
" transform="scale(0.015625)"/>
       </defs>
       <use xlink:href="#DejaVuSans-30"/>
      </g>
     </g>
    </g>
    <g id="xtick_2">
     <g id="line2d_3">
      <path d="M 301.108931 529 
L 301.108931 7.2 
" clip-path="url(#pf10e3513c9)" style="fill: none; stroke: #ffffff; stroke-width: 0.8; stroke-linecap: square"/>
     </g>
     <g id="line2d_4">
      <g>
       <use xlink:href="#mfcad128459" x="301.108931" y="529" style="fill: #555555; stroke: #555555; stroke-width: 0.8"/>
      </g>
     </g>
     <g id="text_2">
      <!-- 20 -->
      <g style="fill: #555555" transform="translate(294.746431 543.598438) scale(0.1 -0.1)">
       <defs>
        <path id="DejaVuSans-32" d="M 1228 531 
L 3431 531 
L 3431 0 
L 469 0 
L 469 531 
Q 828 903 1448 1529 
Q 2069 2156 2228 2338 
Q 2531 2678 2651 2914 
Q 2772 3150 2772 3378 
Q 2772 3750 2511 3984 
Q 2250 4219 1831 4219 
Q 1534 4219 1204 4116 
Q 875 4013 500 3803 
L 500 4441 
Q 881 4594 1212 4672 
Q 1544 4750 1819 4750 
Q 2544 4750 2975 4387 
Q 3406 4025 3406 3419 
Q 3406 3131 3298 2873 
Q 3191 2616 2906 2266 
Q 2828 2175 2409 1742 
Q 1991 1309 1228 531 
z
" transform="scale(0.015625)"/>
       </defs>
       <use xlink:href="#DejaVuSans-32"/>
       <use xlink:href="#DejaVuSans-30" x="63.623047"/>
      </g>
     </g>
    </g>
    <g id="xtick_3">
     <g id="line2d_5">
      <path d="M 397.908331 529 
L 397.908331 7.2 
" clip-path="url(#pf10e3513c9)" style="fill: none; stroke: #ffffff; stroke-width: 0.8; stroke-linecap: square"/>
     </g>
     <g id="line2d_6">
      <g>
       <use xlink:href="#mfcad128459" x="397.908331" y="529" style="fill: #555555; stroke: #555555; stroke-width: 0.8"/>
      </g>
     </g>
     <g id="text_3">
      <!-- 40 -->
      <g style="fill: #555555" transform="translate(391.545831 543.598438) scale(0.1 -0.1)">
       <defs>
        <path id="DejaVuSans-34" d="M 2419 4116 
L 825 1625 
L 2419 1625 
L 2419 4116 
z
M 2253 4666 
L 3047 4666 
L 3047 1625 
L 3713 1625 
L 3713 1100 
L 3047 1100 
L 3047 0 
L 2419 0 
L 2419 1100 
L 313 1100 
L 313 1709 
L 2253 4666 
z
" transform="scale(0.015625)"/>
       </defs>
       <use xlink:href="#DejaVuSans-34"/>
       <use xlink:href="#DejaVuSans-30" x="63.623047"/>
      </g>
     </g>
    </g>
    <g id="xtick_4">
     <g id="line2d_7">
      <path d="M 494.707731 529 
L 494.707731 7.2 
" clip-path="url(#pf10e3513c9)" style="fill: none; stroke: #ffffff; stroke-width: 0.8; stroke-linecap: square"/>
     </g>
     <g id="line2d_8">
      <g>
       <use xlink:href="#mfcad128459" x="494.707731" y="529" style="fill: #555555; stroke: #555555; stroke-width: 0.8"/>
      </g>
     </g>
     <g id="text_4">
      <!-- 60 -->
      <g style="fill: #555555" transform="translate(488.345231 543.598438) scale(0.1 -0.1)">
       <defs>
        <path id="DejaVuSans-36" d="M 2113 2584 
Q 1688 2584 1439 2293 
Q 1191 2003 1191 1497 
Q 1191 994 1439 701 
Q 1688 409 2113 409 
Q 2538 409 2786 701 
Q 3034 994 3034 1497 
Q 3034 2003 2786 2293 
Q 2538 2584 2113 2584 
z
M 3366 4563 
L 3366 3988 
Q 3128 4100 2886 4159 
Q 2644 4219 2406 4219 
Q 1781 4219 1451 3797 
Q 1122 3375 1075 2522 
Q 1259 2794 1537 2939 
Q 1816 3084 2150 3084 
Q 2853 3084 3261 2657 
Q 3669 2231 3669 1497 
Q 3669 778 3244 343 
Q 2819 -91 2113 -91 
Q 1303 -91 875 529 
Q 447 1150 447 2328 
Q 447 3434 972 4092 
Q 1497 4750 2381 4750 
Q 2619 4750 2861 4703 
Q 3103 4656 3366 4563 
z
" transform="scale(0.015625)"/>
       </defs>
       <use xlink:href="#DejaVuSans-36"/>
       <use xlink:href="#DejaVuSans-30" x="63.623047"/>
      </g>
     </g>
    </g>
    <g id="xtick_5">
     <g id="line2d_9">
      <path d="M 591.507132 529 
L 591.507132 7.2 
" clip-path="url(#pf10e3513c9)" style="fill: none; stroke: #ffffff; stroke-width: 0.8; stroke-linecap: square"/>
     </g>
     <g id="line2d_10">
      <g>
       <use xlink:href="#mfcad128459" x="591.507132" y="529" style="fill: #555555; stroke: #555555; stroke-width: 0.8"/>
      </g>
     </g>
     <g id="text_5">
      <!-- 80 -->
      <g style="fill: #555555" transform="translate(585.144632 543.598438) scale(0.1 -0.1)">
       <defs>
        <path id="DejaVuSans-38" d="M 2034 2216 
Q 1584 2216 1326 1975 
Q 1069 1734 1069 1313 
Q 1069 891 1326 650 
Q 1584 409 2034 409 
Q 2484 409 2743 651 
Q 3003 894 3003 1313 
Q 3003 1734 2745 1975 
Q 2488 2216 2034 2216 
z
M 1403 2484 
Q 997 2584 770 2862 
Q 544 3141 544 3541 
Q 544 4100 942 4425 
Q 1341 4750 2034 4750 
Q 2731 4750 3128 4425 
Q 3525 4100 3525 3541 
Q 3525 3141 3298 2862 
Q 3072 2584 2669 2484 
Q 3125 2378 3379 2068 
Q 3634 1759 3634 1313 
Q 3634 634 3220 271 
Q 2806 -91 2034 -91 
Q 1263 -91 848 271 
Q 434 634 434 1313 
Q 434 1759 690 2068 
Q 947 2378 1403 2484 
z
M 1172 3481 
Q 1172 3119 1398 2916 
Q 1625 2713 2034 2713 
Q 2441 2713 2670 2916 
Q 2900 3119 2900 3481 
Q 2900 3844 2670 4047 
Q 2441 4250 2034 4250 
Q 1625 4250 1398 4047 
Q 1172 3844 1172 3481 
z
" transform="scale(0.015625)"/>
       </defs>
       <use xlink:href="#DejaVuSans-38"/>
       <use xlink:href="#DejaVuSans-30" x="63.623047"/>
      </g>
     </g>
    </g>
    <g id="xtick_6">
     <g id="line2d_11">
      <path d="M 688.306532 529 
L 688.306532 7.2 
" clip-path="url(#pf10e3513c9)" style="fill: none; stroke: #ffffff; stroke-width: 0.8; stroke-linecap: square"/>
     </g>
     <g id="line2d_12">
      <g>
       <use xlink:href="#mfcad128459" x="688.306532" y="529" style="fill: #555555; stroke: #555555; stroke-width: 0.8"/>
      </g>
     </g>
     <g id="text_6">
      <!-- 100 -->
      <g style="fill: #555555" transform="translate(678.762782 543.598438) scale(0.1 -0.1)">
       <defs>
        <path id="DejaVuSans-31" d="M 794 531 
L 1825 531 
L 1825 4091 
L 703 3866 
L 703 4441 
L 1819 4666 
L 2450 4666 
L 2450 531 
L 3481 531 
L 3481 0 
L 794 0 
L 794 531 
z
" transform="scale(0.015625)"/>
       </defs>
       <use xlink:href="#DejaVuSans-31"/>
       <use xlink:href="#DejaVuSans-30" x="63.623047"/>
       <use xlink:href="#DejaVuSans-30" x="127.246094"/>
      </g>
     </g>
    </g>
    <g id="xtick_7">
     <g id="line2d_13">
      <path d="M 785.105932 529 
L 785.105932 7.2 
" clip-path="url(#pf10e3513c9)" style="fill: none; stroke: #ffffff; stroke-width: 0.8; stroke-linecap: square"/>
     </g>
     <g id="line2d_14">
      <g>
       <use xlink:href="#mfcad128459" x="785.105932" y="529" style="fill: #555555; stroke: #555555; stroke-width: 0.8"/>
      </g>
     </g>
     <g id="text_7">
      <!-- 120 -->
      <g style="fill: #555555" transform="translate(775.562182 543.598438) scale(0.1 -0.1)">
       <use xlink:href="#DejaVuSans-31"/>
       <use xlink:href="#DejaVuSans-32" x="63.623047"/>
       <use xlink:href="#DejaVuSans-30" x="127.246094"/>
      </g>
     </g>
    </g>
    <g id="text_8">
     <!-- Número de egresos -->
     <g style="fill: #555555" transform="translate(468.422656 559.27625) scale(0.12 -0.12)">
      <defs>
       <path id="DejaVuSans-4e" d="M 628 4666 
L 1478 4666 
L 3547 763 
L 3547 4666 
L 4159 4666 
L 4159 0 
L 3309 0 
L 1241 3903 
L 1241 0 
L 628 0 
L 628 4666 
z
" transform="scale(0.015625)"/>
       <path id="DejaVuSans-fa" d="M 544 1381 
L 544 3500 
L 1119 3500 
L 1119 1403 
Q 1119 906 1312 657 
Q 1506 409 1894 409 
Q 2359 409 2629 706 
Q 2900 1003 2900 1516 
L 2900 3500 
L 3475 3500 
L 3475 0 
L 2900 0 
L 2900 538 
Q 2691 219 2414 64 
Q 2138 -91 1772 -91 
Q 1169 -91 856 284 
Q 544 659 544 1381 
z
M 1991 3584 
L 1991 3584 
z
M 2419 5119 
L 3041 5119 
L 2022 3944 
L 1544 3944 
L 2419 5119 
z
" transform="scale(0.015625)"/>
       <path id="DejaVuSans-6d" d="M 3328 2828 
Q 3544 3216 3844 3400 
Q 4144 3584 4550 3584 
Q 5097 3584 5394 3201 
Q 5691 2819 5691 2113 
L 5691 0 
L 5113 0 
L 5113 2094 
Q 5113 2597 4934 2840 
Q 4756 3084 4391 3084 
Q 3944 3084 3684 2787 
Q 3425 2491 3425 1978 
L 3425 0 
L 2847 0 
L 2847 2094 
Q 2847 2600 2669 2842 
Q 2491 3084 2119 3084 
Q 1678 3084 1418 2786 
Q 1159 2488 1159 1978 
L 1159 0 
L 581 0 
L 581 3500 
L 1159 3500 
L 1159 2956 
Q 1356 3278 1631 3431 
Q 1906 3584 2284 3584 
Q 2666 3584 2933 3390 
Q 3200 3197 3328 2828 
z
" transform="scale(0.015625)"/>
       <path id="DejaVuSans-65" d="M 3597 1894 
L 3597 1613 
L 953 1613 
Q 991 1019 1311 708 
Q 1631 397 2203 397 
Q 2534 397 2845 478 
Q 3156 559 3463 722 
L 3463 178 
Q 3153 47 2828 -22 
Q 2503 -91 2169 -91 
Q 1331 -91 842 396 
Q 353 884 353 1716 
Q 353 2575 817 3079 
Q 1281 3584 2069 3584 
Q 2775 3584 3186 3129 
Q 3597 2675 3597 1894 
z
M 3022 2063 
Q 3016 2534 2758 2815 
Q 2500 3097 2075 3097 
Q 1594 3097 1305 2825 
Q 1016 2553 972 2059 
L 3022 2063 
z
" transform="scale(0.015625)"/>
       <path id="DejaVuSans-72" d="M 2631 2963 
Q 2534 3019 2420 3045 
Q 2306 3072 2169 3072 
Q 1681 3072 1420 2755 
Q 1159 2438 1159 1844 
L 1159 0 
L 581 0 
L 581 3500 
L 1159 3500 
L 1159 2956 
Q 1341 3275 1631 3429 
Q 1922 3584 2338 3584 
Q 2397 3584 2469 3576 
Q 2541 3569 2628 3553 
L 2631 2963 
z
" transform="scale(0.015625)"/>
       <path id="DejaVuSans-6f" d="M 1959 3097 
Q 1497 3097 1228 2736 
Q 959 2375 959 1747 
Q 959 1119 1226 758 
Q 1494 397 1959 397 
Q 2419 397 2687 759 
Q 2956 1122 2956 1747 
Q 2956 2369 2687 2733 
Q 2419 3097 1959 3097 
z
M 1959 3584 
Q 2709 3584 3137 3096 
Q 3566 2609 3566 1747 
Q 3566 888 3137 398 
Q 2709 -91 1959 -91 
Q 1206 -91 779 398 
Q 353 888 353 1747 
Q 353 2609 779 3096 
Q 1206 3584 1959 3584 
z
" transform="scale(0.015625)"/>
       <path id="DejaVuSans-20" transform="scale(0.015625)"/>
       <path id="DejaVuSans-64" d="M 2906 2969 
L 2906 4863 
L 3481 4863 
L 3481 0 
L 2906 0 
L 2906 525 
Q 2725 213 2448 61 
Q 2172 -91 1784 -91 
Q 1150 -91 751 415 
Q 353 922 353 1747 
Q 353 2572 751 3078 
Q 1150 3584 1784 3584 
Q 2172 3584 2448 3432 
Q 2725 3281 2906 2969 
z
M 947 1747 
Q 947 1113 1208 752 
Q 1469 391 1925 391 
Q 2381 391 2643 752 
Q 2906 1113 2906 1747 
Q 2906 2381 2643 2742 
Q 2381 3103 1925 3103 
Q 1469 3103 1208 2742 
Q 947 2381 947 1747 
z
" transform="scale(0.015625)"/>
       <path id="DejaVuSans-67" d="M 2906 1791 
Q 2906 2416 2648 2759 
Q 2391 3103 1925 3103 
Q 1463 3103 1205 2759 
Q 947 2416 947 1791 
Q 947 1169 1205 825 
Q 1463 481 1925 481 
Q 2391 481 2648 825 
Q 2906 1169 2906 1791 
z
M 3481 434 
Q 3481 -459 3084 -895 
Q 2688 -1331 1869 -1331 
Q 1566 -1331 1297 -1286 
Q 1028 -1241 775 -1147 
L 775 -588 
Q 1028 -725 1275 -790 
Q 1522 -856 1778 -856 
Q 2344 -856 2625 -561 
Q 2906 -266 2906 331 
L 2906 616 
Q 2728 306 2450 153 
Q 2172 0 1784 0 
Q 1141 0 747 490 
Q 353 981 353 1791 
Q 353 2603 747 3093 
Q 1141 3584 1784 3584 
Q 2172 3584 2450 3431 
Q 2728 3278 2906 2969 
L 2906 3500 
L 3481 3500 
L 3481 434 
z
" transform="scale(0.015625)"/>
       <path id="DejaVuSans-73" d="M 2834 3397 
L 2834 2853 
Q 2591 2978 2328 3040 
Q 2066 3103 1784 3103 
Q 1356 3103 1142 2972 
Q 928 2841 928 2578 
Q 928 2378 1081 2264 
Q 1234 2150 1697 2047 
L 1894 2003 
Q 2506 1872 2764 1633 
Q 3022 1394 3022 966 
Q 3022 478 2636 193 
Q 2250 -91 1575 -91 
Q 1294 -91 989 -36 
Q 684 19 347 128 
L 347 722 
Q 666 556 975 473 
Q 1284 391 1588 391 
Q 1994 391 2212 530 
Q 2431 669 2431 922 
Q 2431 1156 2273 1281 
Q 2116 1406 1581 1522 
L 1381 1569 
Q 847 1681 609 1914 
Q 372 2147 372 2553 
Q 372 3047 722 3315 
Q 1072 3584 1716 3584 
Q 2034 3584 2315 3537 
Q 2597 3491 2834 3397 
z
" transform="scale(0.015625)"/>
      </defs>
      <use xlink:href="#DejaVuSans-4e"/>
      <use xlink:href="#DejaVuSans-fa" x="74.804688"/>
      <use xlink:href="#DejaVuSans-6d" x="138.183594"/>
      <use xlink:href="#DejaVuSans-65" x="235.595703"/>
      <use xlink:href="#DejaVuSans-72" x="297.119141"/>
      <use xlink:href="#DejaVuSans-6f" x="335.982422"/>
      <use xlink:href="#DejaVuSans-20" x="397.164062"/>
      <use xlink:href="#DejaVuSans-64" x="428.951172"/>
      <use xlink:href="#DejaVuSans-65" x="492.427734"/>
      <use xlink:href="#DejaVuSans-20" x="553.951172"/>
      <use xlink:href="#DejaVuSans-65" x="585.738281"/>
      <use xlink:href="#DejaVuSans-67" x="647.261719"/>
      <use xlink:href="#DejaVuSans-72" x="710.738281"/>
      <use xlink:href="#DejaVuSans-65" x="749.601562"/>
      <use xlink:href="#DejaVuSans-73" x="811.125"/>
      <use xlink:href="#DejaVuSans-6f" x="863.224609"/>
      <use xlink:href="#DejaVuSans-73" x="924.40625"/>
     </g>
    </g>
   </g>
   <g id="matplotlib.axis_2">
    <g id="ytick_1">
     <g id="line2d_15">
      <path d="M 204.309531 485.920037 
L 849.719531 485.920037 
" clip-path="url(#pf10e3513c9)" style="fill: none; stroke: #ffffff; stroke-width: 0.8; stroke-linecap: square"/>
     </g>
     <g id="line2d_16">
      <defs>
       <path id="m2b27cf0679" d="M 0 0 
L -3.5 0 
" style="stroke: #555555; stroke-width: 0.8"/>
      </defs>
      <g>
       <use xlink:href="#m2b27cf0679" x="204.309531" y="485.920037" style="fill: #555555; stroke: #555555; stroke-width: 0.8"/>
      </g>
     </g>
     <g id="text_9">
      <!-- LINFOMA DE HODGKIN, NO ESPECIFICADO -->
      <g style="fill: #555555" transform="translate(7.2 489.339334) scale(0.09 -0.09)">
       <defs>
        <path id="DejaVuSans-4c" d="M 628 4666 
L 1259 4666 
L 1259 531 
L 3531 531 
L 3531 0 
L 628 0 
L 628 4666 
z
" transform="scale(0.015625)"/>
        <path id="DejaVuSans-49" d="M 628 4666 
L 1259 4666 
L 1259 0 
L 628 0 
L 628 4666 
z
" transform="scale(0.015625)"/>
        <path id="DejaVuSans-46" d="M 628 4666 
L 3309 4666 
L 3309 4134 
L 1259 4134 
L 1259 2759 
L 3109 2759 
L 3109 2228 
L 1259 2228 
L 1259 0 
L 628 0 
L 628 4666 
z
" transform="scale(0.015625)"/>
        <path id="DejaVuSans-4f" d="M 2522 4238 
Q 1834 4238 1429 3725 
Q 1025 3213 1025 2328 
Q 1025 1447 1429 934 
Q 1834 422 2522 422 
Q 3209 422 3611 934 
Q 4013 1447 4013 2328 
Q 4013 3213 3611 3725 
Q 3209 4238 2522 4238 
z
M 2522 4750 
Q 3503 4750 4090 4092 
Q 4678 3434 4678 2328 
Q 4678 1225 4090 567 
Q 3503 -91 2522 -91 
Q 1538 -91 948 565 
Q 359 1222 359 2328 
Q 359 3434 948 4092 
Q 1538 4750 2522 4750 
z
" transform="scale(0.015625)"/>
        <path id="DejaVuSans-4d" d="M 628 4666 
L 1569 4666 
L 2759 1491 
L 3956 4666 
L 4897 4666 
L 4897 0 
L 4281 0 
L 4281 4097 
L 3078 897 
L 2444 897 
L 1241 4097 
L 1241 0 
L 628 0 
L 628 4666 
z
" transform="scale(0.015625)"/>
        <path id="DejaVuSans-41" d="M 2188 4044 
L 1331 1722 
L 3047 1722 
L 2188 4044 
z
M 1831 4666 
L 2547 4666 
L 4325 0 
L 3669 0 
L 3244 1197 
L 1141 1197 
L 716 0 
L 50 0 
L 1831 4666 
z
" transform="scale(0.015625)"/>
        <path id="DejaVuSans-44" d="M 1259 4147 
L 1259 519 
L 2022 519 
Q 2988 519 3436 956 
Q 3884 1394 3884 2338 
Q 3884 3275 3436 3711 
Q 2988 4147 2022 4147 
L 1259 4147 
z
M 628 4666 
L 1925 4666 
Q 3281 4666 3915 4102 
Q 4550 3538 4550 2338 
Q 4550 1131 3912 565 
Q 3275 0 1925 0 
L 628 0 
L 628 4666 
z
" transform="scale(0.015625)"/>
        <path id="DejaVuSans-45" d="M 628 4666 
L 3578 4666 
L 3578 4134 
L 1259 4134 
L 1259 2753 
L 3481 2753 
L 3481 2222 
L 1259 2222 
L 1259 531 
L 3634 531 
L 3634 0 
L 628 0 
L 628 4666 
z
" transform="scale(0.015625)"/>
        <path id="DejaVuSans-48" d="M 628 4666 
L 1259 4666 
L 1259 2753 
L 3553 2753 
L 3553 4666 
L 4184 4666 
L 4184 0 
L 3553 0 
L 3553 2222 
L 1259 2222 
L 1259 0 
L 628 0 
L 628 4666 
z
" transform="scale(0.015625)"/>
        <path id="DejaVuSans-47" d="M 3809 666 
L 3809 1919 
L 2778 1919 
L 2778 2438 
L 4434 2438 
L 4434 434 
Q 4069 175 3628 42 
Q 3188 -91 2688 -91 
Q 1594 -91 976 548 
Q 359 1188 359 2328 
Q 359 3472 976 4111 
Q 1594 4750 2688 4750 
Q 3144 4750 3555 4637 
Q 3966 4525 4313 4306 
L 4313 3634 
Q 3963 3931 3569 4081 
Q 3175 4231 2741 4231 
Q 1884 4231 1454 3753 
Q 1025 3275 1025 2328 
Q 1025 1384 1454 906 
Q 1884 428 2741 428 
Q 3075 428 3337 486 
Q 3600 544 3809 666 
z
" transform="scale(0.015625)"/>
        <path id="DejaVuSans-4b" d="M 628 4666 
L 1259 4666 
L 1259 2694 
L 3353 4666 
L 4166 4666 
L 1850 2491 
L 4331 0 
L 3500 0 
L 1259 2247 
L 1259 0 
L 628 0 
L 628 4666 
z
" transform="scale(0.015625)"/>
        <path id="DejaVuSans-2c" d="M 750 794 
L 1409 794 
L 1409 256 
L 897 -744 
L 494 -744 
L 750 256 
L 750 794 
z
" transform="scale(0.015625)"/>
        <path id="DejaVuSans-53" d="M 3425 4513 
L 3425 3897 
Q 3066 4069 2747 4153 
Q 2428 4238 2131 4238 
Q 1616 4238 1336 4038 
Q 1056 3838 1056 3469 
Q 1056 3159 1242 3001 
Q 1428 2844 1947 2747 
L 2328 2669 
Q 3034 2534 3370 2195 
Q 3706 1856 3706 1288 
Q 3706 609 3251 259 
Q 2797 -91 1919 -91 
Q 1588 -91 1214 -16 
Q 841 59 441 206 
L 441 856 
Q 825 641 1194 531 
Q 1563 422 1919 422 
Q 2459 422 2753 634 
Q 3047 847 3047 1241 
Q 3047 1584 2836 1778 
Q 2625 1972 2144 2069 
L 1759 2144 
Q 1053 2284 737 2584 
Q 422 2884 422 3419 
Q 422 4038 858 4394 
Q 1294 4750 2059 4750 
Q 2388 4750 2728 4690 
Q 3069 4631 3425 4513 
z
" transform="scale(0.015625)"/>
        <path id="DejaVuSans-50" d="M 1259 4147 
L 1259 2394 
L 2053 2394 
Q 2494 2394 2734 2622 
Q 2975 2850 2975 3272 
Q 2975 3691 2734 3919 
Q 2494 4147 2053 4147 
L 1259 4147 
z
M 628 4666 
L 2053 4666 
Q 2838 4666 3239 4311 
Q 3641 3956 3641 3272 
Q 3641 2581 3239 2228 
Q 2838 1875 2053 1875 
L 1259 1875 
L 1259 0 
L 628 0 
L 628 4666 
z
" transform="scale(0.015625)"/>
        <path id="DejaVuSans-43" d="M 4122 4306 
L 4122 3641 
Q 3803 3938 3442 4084 
Q 3081 4231 2675 4231 
Q 1875 4231 1450 3742 
Q 1025 3253 1025 2328 
Q 1025 1406 1450 917 
Q 1875 428 2675 428 
Q 3081 428 3442 575 
Q 3803 722 4122 1019 
L 4122 359 
Q 3791 134 3420 21 
Q 3050 -91 2638 -91 
Q 1578 -91 968 557 
Q 359 1206 359 2328 
Q 359 3453 968 4101 
Q 1578 4750 2638 4750 
Q 3056 4750 3426 4639 
Q 3797 4528 4122 4306 
z
" transform="scale(0.015625)"/>
       </defs>
       <use xlink:href="#DejaVuSans-4c"/>
       <use xlink:href="#DejaVuSans-49" x="55.712891"/>
       <use xlink:href="#DejaVuSans-4e" x="85.205078"/>
       <use xlink:href="#DejaVuSans-46" x="160.009766"/>
       <use xlink:href="#DejaVuSans-4f" x="217.529297"/>
       <use xlink:href="#DejaVuSans-4d" x="296.240234"/>
       <use xlink:href="#DejaVuSans-41" x="382.519531"/>
       <use xlink:href="#DejaVuSans-20" x="450.927734"/>
       <use xlink:href="#DejaVuSans-44" x="482.714844"/>
       <use xlink:href="#DejaVuSans-45" x="559.716797"/>
       <use xlink:href="#DejaVuSans-20" x="622.900391"/>
       <use xlink:href="#DejaVuSans-48" x="654.6875"/>
       <use xlink:href="#DejaVuSans-4f" x="729.882812"/>
       <use xlink:href="#DejaVuSans-44" x="808.59375"/>
       <use xlink:href="#DejaVuSans-47" x="885.595703"/>
       <use xlink:href="#DejaVuSans-4b" x="963.085938"/>
       <use xlink:href="#DejaVuSans-49" x="1028.662109"/>
       <use xlink:href="#DejaVuSans-4e" x="1058.154297"/>
       <use xlink:href="#DejaVuSans-2c" x="1132.958984"/>
       <use xlink:href="#DejaVuSans-20" x="1164.746094"/>
       <use xlink:href="#DejaVuSans-4e" x="1196.533203"/>
       <use xlink:href="#DejaVuSans-4f" x="1271.337891"/>
       <use xlink:href="#DejaVuSans-20" x="1350.048828"/>
       <use xlink:href="#DejaVuSans-45" x="1381.835938"/>
       <use xlink:href="#DejaVuSans-53" x="1445.019531"/>
       <use xlink:href="#DejaVuSans-50" x="1508.496094"/>
       <use xlink:href="#DejaVuSans-45" x="1568.798828"/>
       <use xlink:href="#DejaVuSans-43" x="1631.982422"/>
       <use xlink:href="#DejaVuSans-49" x="1701.806641"/>
       <use xlink:href="#DejaVuSans-46" x="1731.298828"/>
       <use xlink:href="#DejaVuSans-49" x="1788.818359"/>
       <use xlink:href="#DejaVuSans-43" x="1818.310547"/>
       <use xlink:href="#DejaVuSans-41" x="1888.134766"/>
       <use xlink:href="#DejaVuSans-44" x="1956.542969"/>
       <use xlink:href="#DejaVuSans-4f" x="2033.544922"/>
      </g>
     </g>
    </g>
    <g id="ytick_2">
     <g id="line2d_17">
      <path d="M 204.309531 437.515584 
L 849.719531 437.515584 
" clip-path="url(#pf10e3513c9)" style="fill: none; stroke: #ffffff; stroke-width: 0.8; stroke-linecap: square"/>
     </g>
     <g id="line2d_18">
      <g>
       <use xlink:href="#m2b27cf0679" x="204.309531" y="437.515584" style="fill: #555555; stroke: #555555; stroke-width: 0.8"/>
      </g>
     </g>
     <g id="text_10">
      <!-- LEUCEMIA, NO ESPECIFICADA -->
      <g style="fill: #555555" transform="translate(64.418906 440.934881) scale(0.09 -0.09)">
       <defs>
        <path id="DejaVuSans-55" d="M 556 4666 
L 1191 4666 
L 1191 1831 
Q 1191 1081 1462 751 
Q 1734 422 2344 422 
Q 2950 422 3222 751 
Q 3494 1081 3494 1831 
L 3494 4666 
L 4128 4666 
L 4128 1753 
Q 4128 841 3676 375 
Q 3225 -91 2344 -91 
Q 1459 -91 1007 375 
Q 556 841 556 1753 
L 556 4666 
z
" transform="scale(0.015625)"/>
       </defs>
       <use xlink:href="#DejaVuSans-4c"/>
       <use xlink:href="#DejaVuSans-45" x="55.712891"/>
       <use xlink:href="#DejaVuSans-55" x="118.896484"/>
       <use xlink:href="#DejaVuSans-43" x="192.089844"/>
       <use xlink:href="#DejaVuSans-45" x="261.914062"/>
       <use xlink:href="#DejaVuSans-4d" x="325.097656"/>
       <use xlink:href="#DejaVuSans-49" x="411.376953"/>
       <use xlink:href="#DejaVuSans-41" x="440.869141"/>
       <use xlink:href="#DejaVuSans-2c" x="509.277344"/>
       <use xlink:href="#DejaVuSans-20" x="541.064453"/>
       <use xlink:href="#DejaVuSans-4e" x="572.851562"/>
       <use xlink:href="#DejaVuSans-4f" x="647.65625"/>
       <use xlink:href="#DejaVuSans-20" x="726.367188"/>
       <use xlink:href="#DejaVuSans-45" x="758.154297"/>
       <use xlink:href="#DejaVuSans-53" x="821.337891"/>
       <use xlink:href="#DejaVuSans-50" x="884.814453"/>
       <use xlink:href="#DejaVuSans-45" x="945.117188"/>
       <use xlink:href="#DejaVuSans-43" x="1008.300781"/>
       <use xlink:href="#DejaVuSans-49" x="1078.125"/>
       <use xlink:href="#DejaVuSans-46" x="1107.617188"/>
       <use xlink:href="#DejaVuSans-49" x="1165.136719"/>
       <use xlink:href="#DejaVuSans-43" x="1194.628906"/>
       <use xlink:href="#DejaVuSans-41" x="1264.453125"/>
       <use xlink:href="#DejaVuSans-44" x="1332.861328"/>
       <use xlink:href="#DejaVuSans-41" x="1408.113281"/>
      </g>
     </g>
    </g>
    <g id="ytick_3">
     <g id="line2d_19">
      <path d="M 204.309531 389.111132 
L 849.719531 389.111132 
" clip-path="url(#pf10e3513c9)" style="fill: none; stroke: #ffffff; stroke-width: 0.8; stroke-linecap: square"/>
     </g>
     <g id="line2d_20">
      <g>
       <use xlink:href="#m2b27cf0679" x="204.309531" y="389.111132" style="fill: #555555; stroke: #555555; stroke-width: 0.8"/>
      </g>
     </g>
     <g id="text_11">
      <!-- GASTRITIS CRÓNICA SUPERFICIAL -->
      <g style="fill: #555555" transform="translate(45.412031 392.530429) scale(0.09 -0.09)">
       <defs>
        <path id="DejaVuSans-54" d="M -19 4666 
L 3928 4666 
L 3928 4134 
L 2272 4134 
L 2272 0 
L 1638 0 
L 1638 4134 
L -19 4134 
L -19 4666 
z
" transform="scale(0.015625)"/>
        <path id="DejaVuSans-52" d="M 2841 2188 
Q 3044 2119 3236 1894 
Q 3428 1669 3622 1275 
L 4263 0 
L 3584 0 
L 2988 1197 
Q 2756 1666 2539 1819 
Q 2322 1972 1947 1972 
L 1259 1972 
L 1259 0 
L 628 0 
L 628 4666 
L 2053 4666 
Q 2853 4666 3247 4331 
Q 3641 3997 3641 3322 
Q 3641 2881 3436 2590 
Q 3231 2300 2841 2188 
z
M 1259 4147 
L 1259 2491 
L 2053 2491 
Q 2509 2491 2742 2702 
Q 2975 2913 2975 3322 
Q 2975 3731 2742 3939 
Q 2509 4147 2053 4147 
L 1259 4147 
z
" transform="scale(0.015625)"/>
        <path id="DejaVuSans-d3" d="M 2522 4238 
Q 1834 4238 1429 3725 
Q 1025 3213 1025 2328 
Q 1025 1447 1429 934 
Q 1834 422 2522 422 
Q 3209 422 3611 934 
Q 4013 1447 4013 2328 
Q 4013 3213 3611 3725 
Q 3209 4238 2522 4238 
z
M 2522 4750 
Q 3503 4750 4090 4092 
Q 4678 3434 4678 2328 
Q 4678 1225 4090 567 
Q 3503 -91 2522 -91 
Q 1538 -91 948 565 
Q 359 1222 359 2328 
Q 359 3434 948 4092 
Q 1538 4750 2522 4750 
z
M 2694 5935 
L 3272 5935 
L 2559 5110 
L 2081 5110 
L 2694 5935 
z
" transform="scale(0.015625)"/>
       </defs>
       <use xlink:href="#DejaVuSans-47"/>
       <use xlink:href="#DejaVuSans-41" x="77.490234"/>
       <use xlink:href="#DejaVuSans-53" x="145.898438"/>
       <use xlink:href="#DejaVuSans-54" x="209.375"/>
       <use xlink:href="#DejaVuSans-52" x="270.458984"/>
       <use xlink:href="#DejaVuSans-49" x="339.941406"/>
       <use xlink:href="#DejaVuSans-54" x="369.433594"/>
       <use xlink:href="#DejaVuSans-49" x="430.517578"/>
       <use xlink:href="#DejaVuSans-53" x="460.009766"/>
       <use xlink:href="#DejaVuSans-20" x="523.486328"/>
       <use xlink:href="#DejaVuSans-43" x="555.273438"/>
       <use xlink:href="#DejaVuSans-52" x="625.097656"/>
       <use xlink:href="#DejaVuSans-d3" x="694.580078"/>
       <use xlink:href="#DejaVuSans-4e" x="773.291016"/>
       <use xlink:href="#DejaVuSans-49" x="848.095703"/>
       <use xlink:href="#DejaVuSans-43" x="877.587891"/>
       <use xlink:href="#DejaVuSans-41" x="947.412109"/>
       <use xlink:href="#DejaVuSans-20" x="1015.820312"/>
       <use xlink:href="#DejaVuSans-53" x="1047.607422"/>
       <use xlink:href="#DejaVuSans-55" x="1111.083984"/>
       <use xlink:href="#DejaVuSans-50" x="1184.277344"/>
       <use xlink:href="#DejaVuSans-45" x="1244.580078"/>
       <use xlink:href="#DejaVuSans-52" x="1307.763672"/>
       <use xlink:href="#DejaVuSans-46" x="1377.246094"/>
       <use xlink:href="#DejaVuSans-49" x="1434.765625"/>
       <use xlink:href="#DejaVuSans-43" x="1464.257812"/>
       <use xlink:href="#DejaVuSans-49" x="1534.082031"/>
       <use xlink:href="#DejaVuSans-41" x="1563.574219"/>
       <use xlink:href="#DejaVuSans-4c" x="1631.982422"/>
      </g>
     </g>
    </g>
    <g id="ytick_4">
     <g id="line2d_21">
      <path d="M 204.309531 340.706679 
L 849.719531 340.706679 
" clip-path="url(#pf10e3513c9)" style="fill: none; stroke: #ffffff; stroke-width: 0.8; stroke-linecap: square"/>
     </g>
     <g id="line2d_22">
      <g>
       <use xlink:href="#m2b27cf0679" x="204.309531" y="340.706679" style="fill: #555555; stroke: #555555; stroke-width: 0.8"/>
      </g>
     </g>
     <g id="text_12">
      <!-- OTRAS CATARATAS SENILES -->
      <g style="fill: #555555" transform="translate(73.317656 344.125976) scale(0.09 -0.09)">
       <use xlink:href="#DejaVuSans-4f"/>
       <use xlink:href="#DejaVuSans-54" x="78.710938"/>
       <use xlink:href="#DejaVuSans-52" x="139.794922"/>
       <use xlink:href="#DejaVuSans-41" x="205.277344"/>
       <use xlink:href="#DejaVuSans-53" x="273.685547"/>
       <use xlink:href="#DejaVuSans-20" x="337.162109"/>
       <use xlink:href="#DejaVuSans-43" x="368.949219"/>
       <use xlink:href="#DejaVuSans-41" x="438.773438"/>
       <use xlink:href="#DejaVuSans-54" x="499.431641"/>
       <use xlink:href="#DejaVuSans-41" x="552.765625"/>
       <use xlink:href="#DejaVuSans-52" x="621.173828"/>
       <use xlink:href="#DejaVuSans-41" x="686.65625"/>
       <use xlink:href="#DejaVuSans-54" x="747.314453"/>
       <use xlink:href="#DejaVuSans-41" x="800.648438"/>
       <use xlink:href="#DejaVuSans-53" x="869.056641"/>
       <use xlink:href="#DejaVuSans-20" x="932.533203"/>
       <use xlink:href="#DejaVuSans-53" x="964.320312"/>
       <use xlink:href="#DejaVuSans-45" x="1027.796875"/>
       <use xlink:href="#DejaVuSans-4e" x="1090.980469"/>
       <use xlink:href="#DejaVuSans-49" x="1165.785156"/>
       <use xlink:href="#DejaVuSans-4c" x="1195.277344"/>
       <use xlink:href="#DejaVuSans-45" x="1250.990234"/>
       <use xlink:href="#DejaVuSans-53" x="1314.173828"/>
      </g>
     </g>
    </g>
    <g id="ytick_5">
     <g id="line2d_23">
      <path d="M 204.309531 292.302226 
L 849.719531 292.302226 
" clip-path="url(#pf10e3513c9)" style="fill: none; stroke: #ffffff; stroke-width: 0.8; stroke-linecap: square"/>
     </g>
     <g id="line2d_24">
      <g>
       <use xlink:href="#m2b27cf0679" x="204.309531" y="292.302226" style="fill: #555555; stroke: #555555; stroke-width: 0.8"/>
      </g>
     </g>
     <g id="text_13">
      <!-- DIABETES MELLITUS TIPO 2, CON -->
      <g style="fill: #555555" transform="translate(48.081094 291.366367) scale(0.09 -0.09)">
       <defs>
        <path id="DejaVuSans-42" d="M 1259 2228 
L 1259 519 
L 2272 519 
Q 2781 519 3026 730 
Q 3272 941 3272 1375 
Q 3272 1813 3026 2020 
Q 2781 2228 2272 2228 
L 1259 2228 
z
M 1259 4147 
L 1259 2741 
L 2194 2741 
Q 2656 2741 2882 2914 
Q 3109 3088 3109 3444 
Q 3109 3797 2882 3972 
Q 2656 4147 2194 4147 
L 1259 4147 
z
M 628 4666 
L 2241 4666 
Q 2963 4666 3353 4366 
Q 3744 4066 3744 3513 
Q 3744 3084 3544 2831 
Q 3344 2578 2956 2516 
Q 3422 2416 3680 2098 
Q 3938 1781 3938 1306 
Q 3938 681 3513 340 
Q 3088 0 2303 0 
L 628 0 
L 628 4666 
z
" transform="scale(0.015625)"/>
       </defs>
       <use xlink:href="#DejaVuSans-44"/>
       <use xlink:href="#DejaVuSans-49" x="77.001953"/>
       <use xlink:href="#DejaVuSans-41" x="106.494141"/>
       <use xlink:href="#DejaVuSans-42" x="174.902344"/>
       <use xlink:href="#DejaVuSans-45" x="243.505859"/>
       <use xlink:href="#DejaVuSans-54" x="306.689453"/>
       <use xlink:href="#DejaVuSans-45" x="367.773438"/>
       <use xlink:href="#DejaVuSans-53" x="430.957031"/>
       <use xlink:href="#DejaVuSans-20" x="494.433594"/>
       <use xlink:href="#DejaVuSans-4d" x="526.220703"/>
       <use xlink:href="#DejaVuSans-45" x="612.5"/>
       <use xlink:href="#DejaVuSans-4c" x="675.683594"/>
       <use xlink:href="#DejaVuSans-4c" x="731.396484"/>
       <use xlink:href="#DejaVuSans-49" x="787.109375"/>
       <use xlink:href="#DejaVuSans-54" x="816.601562"/>
       <use xlink:href="#DejaVuSans-55" x="877.685547"/>
       <use xlink:href="#DejaVuSans-53" x="950.878906"/>
       <use xlink:href="#DejaVuSans-20" x="1014.355469"/>
       <use xlink:href="#DejaVuSans-54" x="1046.142578"/>
       <use xlink:href="#DejaVuSans-49" x="1107.226562"/>
       <use xlink:href="#DejaVuSans-50" x="1136.71875"/>
       <use xlink:href="#DejaVuSans-4f" x="1197.021484"/>
       <use xlink:href="#DejaVuSans-20" x="1275.732422"/>
       <use xlink:href="#DejaVuSans-32" x="1307.519531"/>
       <use xlink:href="#DejaVuSans-2c" x="1371.142578"/>
       <use xlink:href="#DejaVuSans-20" x="1402.929688"/>
       <use xlink:href="#DejaVuSans-43" x="1434.716797"/>
       <use xlink:href="#DejaVuSans-4f" x="1504.541016"/>
       <use xlink:href="#DejaVuSans-4e" x="1583.251953"/>
      </g>
      <!-- COMPLICACIONES MÚLTIPLES -->
      <g style="fill: #555555" transform="translate(65.653594 301.444398) scale(0.09 -0.09)">
       <defs>
        <path id="DejaVuSans-da" d="M 556 4666 
L 1191 4666 
L 1191 1831 
Q 1191 1081 1462 751 
Q 1734 422 2344 422 
Q 2950 422 3222 751 
Q 3494 1081 3494 1831 
L 3494 4666 
L 4128 4666 
L 4128 1753 
Q 4128 841 3676 375 
Q 3225 -91 2344 -91 
Q 1459 -91 1007 375 
Q 556 841 556 1753 
L 556 4666 
z
M 2516 5935 
L 3094 5935 
L 2381 5110 
L 1903 5110 
L 2516 5935 
z
" transform="scale(0.015625)"/>
       </defs>
       <use xlink:href="#DejaVuSans-43"/>
       <use xlink:href="#DejaVuSans-4f" x="69.824219"/>
       <use xlink:href="#DejaVuSans-4d" x="148.535156"/>
       <use xlink:href="#DejaVuSans-50" x="234.814453"/>
       <use xlink:href="#DejaVuSans-4c" x="295.117188"/>
       <use xlink:href="#DejaVuSans-49" x="350.830078"/>
       <use xlink:href="#DejaVuSans-43" x="380.322266"/>
       <use xlink:href="#DejaVuSans-41" x="450.146484"/>
       <use xlink:href="#DejaVuSans-43" x="516.804688"/>
       <use xlink:href="#DejaVuSans-49" x="586.628906"/>
       <use xlink:href="#DejaVuSans-4f" x="616.121094"/>
       <use xlink:href="#DejaVuSans-4e" x="694.832031"/>
       <use xlink:href="#DejaVuSans-45" x="769.636719"/>
       <use xlink:href="#DejaVuSans-53" x="832.820312"/>
       <use xlink:href="#DejaVuSans-20" x="896.296875"/>
       <use xlink:href="#DejaVuSans-4d" x="928.083984"/>
       <use xlink:href="#DejaVuSans-da" x="1014.363281"/>
       <use xlink:href="#DejaVuSans-4c" x="1087.556641"/>
       <use xlink:href="#DejaVuSans-54" x="1129.519531"/>
       <use xlink:href="#DejaVuSans-49" x="1190.603516"/>
       <use xlink:href="#DejaVuSans-50" x="1220.095703"/>
       <use xlink:href="#DejaVuSans-4c" x="1280.398438"/>
       <use xlink:href="#DejaVuSans-45" x="1336.111328"/>
       <use xlink:href="#DejaVuSans-53" x="1399.294922"/>
      </g>
     </g>
    </g>
    <g id="ytick_6">
     <g id="line2d_25">
      <path d="M 204.309531 243.897774 
L 849.719531 243.897774 
" clip-path="url(#pf10e3513c9)" style="fill: none; stroke: #ffffff; stroke-width: 0.8; stroke-linecap: square"/>
     </g>
     <g id="line2d_26">
      <g>
       <use xlink:href="#m2b27cf0679" x="204.309531" y="243.897774" style="fill: #555555; stroke: #555555; stroke-width: 0.8"/>
      </g>
     </g>
     <g id="text_14">
      <!-- CATARATA RESIDUAL -->
      <g style="fill: #555555" transform="translate(104.443594 247.317071) scale(0.09 -0.09)">
       <use xlink:href="#DejaVuSans-43"/>
       <use xlink:href="#DejaVuSans-41" x="69.824219"/>
       <use xlink:href="#DejaVuSans-54" x="130.482422"/>
       <use xlink:href="#DejaVuSans-41" x="183.816406"/>
       <use xlink:href="#DejaVuSans-52" x="252.224609"/>
       <use xlink:href="#DejaVuSans-41" x="317.707031"/>
       <use xlink:href="#DejaVuSans-54" x="378.365234"/>
       <use xlink:href="#DejaVuSans-41" x="431.699219"/>
       <use xlink:href="#DejaVuSans-20" x="500.107422"/>
       <use xlink:href="#DejaVuSans-52" x="531.894531"/>
       <use xlink:href="#DejaVuSans-45" x="601.376953"/>
       <use xlink:href="#DejaVuSans-53" x="664.560547"/>
       <use xlink:href="#DejaVuSans-49" x="728.037109"/>
       <use xlink:href="#DejaVuSans-44" x="757.529297"/>
       <use xlink:href="#DejaVuSans-55" x="834.53125"/>
       <use xlink:href="#DejaVuSans-41" x="907.724609"/>
       <use xlink:href="#DejaVuSans-4c" x="976.132812"/>
      </g>
     </g>
    </g>
    <g id="ytick_7">
     <g id="line2d_27">
      <path d="M 204.309531 195.493321 
L 849.719531 195.493321 
" clip-path="url(#pf10e3513c9)" style="fill: none; stroke: #ffffff; stroke-width: 0.8; stroke-linecap: square"/>
     </g>
     <g id="line2d_28">
      <g>
       <use xlink:href="#m2b27cf0679" x="204.309531" y="195.493321" style="fill: #555555; stroke: #555555; stroke-width: 0.8"/>
      </g>
     </g>
     <g id="text_15">
      <!-- TUMOR MALIGNO DE LA MAMA, PARTE NO -->
      <g style="fill: #555555" transform="translate(8.270156 194.557462) scale(0.09 -0.09)">
       <use xlink:href="#DejaVuSans-54"/>
       <use xlink:href="#DejaVuSans-55" x="61.083984"/>
       <use xlink:href="#DejaVuSans-4d" x="134.277344"/>
       <use xlink:href="#DejaVuSans-4f" x="220.556641"/>
       <use xlink:href="#DejaVuSans-52" x="299.267578"/>
       <use xlink:href="#DejaVuSans-20" x="368.75"/>
       <use xlink:href="#DejaVuSans-4d" x="400.537109"/>
       <use xlink:href="#DejaVuSans-41" x="486.816406"/>
       <use xlink:href="#DejaVuSans-4c" x="555.224609"/>
       <use xlink:href="#DejaVuSans-49" x="610.9375"/>
       <use xlink:href="#DejaVuSans-47" x="640.429688"/>
       <use xlink:href="#DejaVuSans-4e" x="717.919922"/>
       <use xlink:href="#DejaVuSans-4f" x="792.724609"/>
       <use xlink:href="#DejaVuSans-20" x="871.435547"/>
       <use xlink:href="#DejaVuSans-44" x="903.222656"/>
       <use xlink:href="#DejaVuSans-45" x="980.224609"/>
       <use xlink:href="#DejaVuSans-20" x="1043.408203"/>
       <use xlink:href="#DejaVuSans-4c" x="1075.195312"/>
       <use xlink:href="#DejaVuSans-41" x="1133.158203"/>
       <use xlink:href="#DejaVuSans-20" x="1201.566406"/>
       <use xlink:href="#DejaVuSans-4d" x="1233.353516"/>
       <use xlink:href="#DejaVuSans-41" x="1319.632812"/>
       <use xlink:href="#DejaVuSans-4d" x="1388.041016"/>
       <use xlink:href="#DejaVuSans-41" x="1474.320312"/>
       <use xlink:href="#DejaVuSans-2c" x="1542.728516"/>
       <use xlink:href="#DejaVuSans-20" x="1574.515625"/>
       <use xlink:href="#DejaVuSans-50" x="1606.302734"/>
       <use xlink:href="#DejaVuSans-41" x="1660.230469"/>
       <use xlink:href="#DejaVuSans-52" x="1728.638672"/>
       <use xlink:href="#DejaVuSans-54" x="1790.871094"/>
       <use xlink:href="#DejaVuSans-45" x="1851.955078"/>
       <use xlink:href="#DejaVuSans-20" x="1915.138672"/>
       <use xlink:href="#DejaVuSans-4e" x="1946.925781"/>
       <use xlink:href="#DejaVuSans-4f" x="2021.730469"/>
      </g>
      <!-- ESPECIFICADA -->
      <g style="fill: #555555" transform="translate(132.654375 204.635493) scale(0.09 -0.09)">
       <use xlink:href="#DejaVuSans-45"/>
       <use xlink:href="#DejaVuSans-53" x="63.183594"/>
       <use xlink:href="#DejaVuSans-50" x="126.660156"/>
       <use xlink:href="#DejaVuSans-45" x="186.962891"/>
       <use xlink:href="#DejaVuSans-43" x="250.146484"/>
       <use xlink:href="#DejaVuSans-49" x="319.970703"/>
       <use xlink:href="#DejaVuSans-46" x="349.462891"/>
       <use xlink:href="#DejaVuSans-49" x="406.982422"/>
       <use xlink:href="#DejaVuSans-43" x="436.474609"/>
       <use xlink:href="#DejaVuSans-41" x="506.298828"/>
       <use xlink:href="#DejaVuSans-44" x="574.707031"/>
       <use xlink:href="#DejaVuSans-41" x="649.958984"/>
      </g>
     </g>
    </g>
    <g id="ytick_8">
     <g id="line2d_29">
      <path d="M 204.309531 147.088868 
L 849.719531 147.088868 
" clip-path="url(#pf10e3513c9)" style="fill: none; stroke: #ffffff; stroke-width: 0.8; stroke-linecap: square"/>
     </g>
     <g id="line2d_30">
      <g>
       <use xlink:href="#m2b27cf0679" x="204.309531" y="147.088868" style="fill: #555555; stroke: #555555; stroke-width: 0.8"/>
      </g>
     </g>
     <g id="text_16">
      <!-- GASTRITIS CRÓNICA, NO ESPECIFICADA -->
      <g style="fill: #555555" transform="translate(18.828281 150.849181) scale(0.09 -0.09)">
       <use xlink:href="#DejaVuSans-47"/>
       <use xlink:href="#DejaVuSans-41" x="77.490234"/>
       <use xlink:href="#DejaVuSans-53" x="145.898438"/>
       <use xlink:href="#DejaVuSans-54" x="209.375"/>
       <use xlink:href="#DejaVuSans-52" x="270.458984"/>
       <use xlink:href="#DejaVuSans-49" x="339.941406"/>
       <use xlink:href="#DejaVuSans-54" x="369.433594"/>
       <use xlink:href="#DejaVuSans-49" x="430.517578"/>
       <use xlink:href="#DejaVuSans-53" x="460.009766"/>
       <use xlink:href="#DejaVuSans-20" x="523.486328"/>
       <use xlink:href="#DejaVuSans-43" x="555.273438"/>
       <use xlink:href="#DejaVuSans-52" x="625.097656"/>
       <use xlink:href="#DejaVuSans-d3" x="694.580078"/>
       <use xlink:href="#DejaVuSans-4e" x="773.291016"/>
       <use xlink:href="#DejaVuSans-49" x="848.095703"/>
       <use xlink:href="#DejaVuSans-43" x="877.587891"/>
       <use xlink:href="#DejaVuSans-41" x="947.412109"/>
       <use xlink:href="#DejaVuSans-2c" x="1015.820312"/>
       <use xlink:href="#DejaVuSans-20" x="1047.607422"/>
       <use xlink:href="#DejaVuSans-4e" x="1079.394531"/>
       <use xlink:href="#DejaVuSans-4f" x="1154.199219"/>
       <use xlink:href="#DejaVuSans-20" x="1232.910156"/>
       <use xlink:href="#DejaVuSans-45" x="1264.697266"/>
       <use xlink:href="#DejaVuSans-53" x="1327.880859"/>
       <use xlink:href="#DejaVuSans-50" x="1391.357422"/>
       <use xlink:href="#DejaVuSans-45" x="1451.660156"/>
       <use xlink:href="#DejaVuSans-43" x="1514.84375"/>
       <use xlink:href="#DejaVuSans-49" x="1584.667969"/>
       <use xlink:href="#DejaVuSans-46" x="1614.160156"/>
       <use xlink:href="#DejaVuSans-49" x="1671.679688"/>
       <use xlink:href="#DejaVuSans-43" x="1701.171875"/>
       <use xlink:href="#DejaVuSans-41" x="1770.996094"/>
       <use xlink:href="#DejaVuSans-44" x="1839.404297"/>
       <use xlink:href="#DejaVuSans-41" x="1914.65625"/>
      </g>
     </g>
    </g>
    <g id="ytick_9">
     <g id="line2d_31">
      <path d="M 204.309531 98.684416 
L 849.719531 98.684416 
" clip-path="url(#pf10e3513c9)" style="fill: none; stroke: #ffffff; stroke-width: 0.8; stroke-linecap: square"/>
     </g>
     <g id="line2d_32">
      <g>
       <use xlink:href="#m2b27cf0679" x="204.309531" y="98.684416" style="fill: #555555; stroke: #555555; stroke-width: 0.8"/>
      </g>
     </g>
     <g id="text_17">
      <!-- OTROS -->
      <g style="fill: #555555" transform="translate(165.675938 102.103712) scale(0.09 -0.09)">
       <use xlink:href="#DejaVuSans-4f"/>
       <use xlink:href="#DejaVuSans-54" x="78.710938"/>
       <use xlink:href="#DejaVuSans-52" x="139.794922"/>
       <use xlink:href="#DejaVuSans-4f" x="209.277344"/>
       <use xlink:href="#DejaVuSans-53" x="287.988281"/>
      </g>
     </g>
    </g>
    <g id="ytick_10">
     <g id="line2d_33">
      <path d="M 204.309531 50.279963 
L 849.719531 50.279963 
" clip-path="url(#pf10e3513c9)" style="fill: none; stroke: #ffffff; stroke-width: 0.8; stroke-linecap: square"/>
     </g>
     <g id="line2d_34">
      <g>
       <use xlink:href="#m2b27cf0679" x="204.309531" y="50.279963" style="fill: #555555; stroke: #555555; stroke-width: 0.8"/>
      </g>
     </g>
     <g id="text_18">
      <!-- CATARATA, NO ESPECIFICADA -->
      <g style="fill: #555555" transform="translate(65.247187 53.69926) scale(0.09 -0.09)">
       <use xlink:href="#DejaVuSans-43"/>
       <use xlink:href="#DejaVuSans-41" x="69.824219"/>
       <use xlink:href="#DejaVuSans-54" x="130.482422"/>
       <use xlink:href="#DejaVuSans-41" x="183.816406"/>
       <use xlink:href="#DejaVuSans-52" x="252.224609"/>
       <use xlink:href="#DejaVuSans-41" x="317.707031"/>
       <use xlink:href="#DejaVuSans-54" x="378.365234"/>
       <use xlink:href="#DejaVuSans-41" x="431.699219"/>
       <use xlink:href="#DejaVuSans-2c" x="500.107422"/>
       <use xlink:href="#DejaVuSans-20" x="531.894531"/>
       <use xlink:href="#DejaVuSans-4e" x="563.681641"/>
       <use xlink:href="#DejaVuSans-4f" x="638.486328"/>
       <use xlink:href="#DejaVuSans-20" x="717.197266"/>
       <use xlink:href="#DejaVuSans-45" x="748.984375"/>
       <use xlink:href="#DejaVuSans-53" x="812.167969"/>
       <use xlink:href="#DejaVuSans-50" x="875.644531"/>
       <use xlink:href="#DejaVuSans-45" x="935.947266"/>
       <use xlink:href="#DejaVuSans-43" x="999.130859"/>
       <use xlink:href="#DejaVuSans-49" x="1068.955078"/>
       <use xlink:href="#DejaVuSans-46" x="1098.447266"/>
       <use xlink:href="#DejaVuSans-49" x="1155.966797"/>
       <use xlink:href="#DejaVuSans-43" x="1185.458984"/>
       <use xlink:href="#DejaVuSans-41" x="1255.283203"/>
       <use xlink:href="#DejaVuSans-44" x="1323.691406"/>
       <use xlink:href="#DejaVuSans-41" x="1398.943359"/>
      </g>
     </g>
    </g>
   </g>
   <g id="patch_3">
    <path d="M 204.309531 505.281818 
L 243.029291 505.281818 
L 243.029291 466.558256 
L 204.309531 466.558256 
z
" clip-path="url(#pf10e3513c9)" style="fill: #1f77b4; opacity: 0.65; stroke: #000000; stroke-width: 0.5; stroke-linejoin: miter"/>
   </g>
   <g id="patch_4">
    <path d="M 204.309531 456.877365 
L 243.029291 456.877365 
L 243.029291 418.153803 
L 204.309531 418.153803 
z
" clip-path="url(#pf10e3513c9)" style="fill: #1f77b4; opacity: 0.65; stroke: #000000; stroke-width: 0.5; stroke-linejoin: miter"/>
   </g>
   <g id="patch_5">
    <path d="M 204.309531 408.472913 
L 252.709231 408.472913 
L 252.709231 369.749351 
L 204.309531 369.749351 
z
" clip-path="url(#pf10e3513c9)" style="fill: #1f77b4; opacity: 0.65; stroke: #000000; stroke-width: 0.5; stroke-linejoin: miter"/>
   </g>
   <g id="patch_6">
    <path d="M 204.309531 360.06846 
L 262.389171 360.06846 
L 262.389171 321.344898 
L 204.309531 321.344898 
z
" clip-path="url(#pf10e3513c9)" style="fill: #1f77b4; opacity: 0.65; stroke: #000000; stroke-width: 0.5; stroke-linejoin: miter"/>
   </g>
   <g id="patch_7">
    <path d="M 204.309531 311.664007 
L 276.909081 311.664007 
L 276.909081 272.940445 
L 204.309531 272.940445 
z
" clip-path="url(#pf10e3513c9)" style="fill: #1f77b4; opacity: 0.65; stroke: #000000; stroke-width: 0.5; stroke-linejoin: miter"/>
   </g>
   <g id="patch_8">
    <path d="M 204.309531 263.259555 
L 330.148751 263.259555 
L 330.148751 224.535993 
L 204.309531 224.535993 
z
" clip-path="url(#pf10e3513c9)" style="fill: #1f77b4; opacity: 0.65; stroke: #000000; stroke-width: 0.5; stroke-linejoin: miter"/>
   </g>
   <g id="patch_9">
    <path d="M 204.309531 214.855102 
L 339.828691 214.855102 
L 339.828691 176.13154 
L 204.309531 176.13154 
z
" clip-path="url(#pf10e3513c9)" style="fill: #1f77b4; opacity: 0.65; stroke: #000000; stroke-width: 0.5; stroke-linejoin: miter"/>
   </g>
   <g id="patch_10">
    <path d="M 204.309531 166.450649 
L 664.106682 166.450649 
L 664.106682 127.727087 
L 204.309531 127.727087 
z
" clip-path="url(#pf10e3513c9)" style="fill: #1f77b4; opacity: 0.65; stroke: #000000; stroke-width: 0.5; stroke-linejoin: miter"/>
   </g>
   <g id="patch_11">
    <path d="M 204.309531 118.046197 
L 727.026292 118.046197 
L 727.026292 79.322635 
L 204.309531 79.322635 
z
" clip-path="url(#pf10e3513c9)" style="fill: #1f77b4; opacity: 0.65; stroke: #000000; stroke-width: 0.5; stroke-linejoin: miter"/>
   </g>
   <g id="patch_12">
    <path d="M 204.309531 69.641744 
L 818.985722 69.641744 
L 818.985722 30.918182 
L 204.309531 30.918182 
z
" clip-path="url(#pf10e3513c9)" style="fill: #1f77b4; opacity: 0.65; stroke: #000000; stroke-width: 0.5; stroke-linejoin: miter"/>
   </g>
   <g id="patch_13">
    <path d="M 204.309531 529 
L 204.309531 7.2 
" style="fill: none; stroke: #ffffff; stroke-linejoin: miter; stroke-linecap: square"/>
   </g>
   <g id="patch_14">
    <path d="M 849.719531 529 
L 849.719531 7.2 
" style="fill: none; stroke: #ffffff; stroke-linejoin: miter; stroke-linecap: square"/>
   </g>
   <g id="patch_15">
    <path d="M 204.309531 529 
L 849.719531 529 
" style="fill: none; stroke: #ffffff; stroke-linejoin: miter; stroke-linecap: square"/>
   </g>
   <g id="patch_16">
    <path d="M 204.309531 7.2 
L 849.719531 7.2 
" style="fill: none; stroke: #ffffff; stroke-linejoin: miter; stroke-linecap: square"/>
   </g>
  </g>
 </g>
 <defs>
  <clipPath id="pf10e3513c9">
   <rect x="204.309531" y="7.2" width="645.41" height="521.8"/>
  </clipPath>
 </defs>
</svg>
