<?xml version="1.0" encoding="utf-8" standalone="no"?>
<!DOCTYPE svg PUBLIC "-//W3C//DTD SVG 1.1//EN"
  "http://www.w3.org/Graphics/SVG/1.1/DTD/svg11.dtd">
<svg xmlns:xlink="http://www.w3.org/1999/xlink" width="856.3275pt" height="568.971875pt" viewBox="0 0 856.3275 568.971875" xmlns="http://www.w3.org/2000/svg" version="1.1">
 <metadata>
  <rdf:RDF xmlns:dc="http://purl.org/dc/elements/1.1/" xmlns:cc="http://creativecommons.org/ns#" xmlns:rdf="http://www.w3.org/1999/02/22-rdf-syntax-ns#">
   <cc:Work>
    <dc:type rdf:resource="http://purl.org/dc/dcmitype/StillImage"/>
    <dc:date>2026-02-07T22:15:48.355398</dc:date>
    <dc:format>image/svg+xml</dc:format>
    <dc:creator>
     <cc:Agent>
      <dc:title>Matplotlib v3.6.3, https://matplotlib.org/</dc:title>
     </cc:Agent>
    </dc:creator>
   </cc:Work>
  </rdf:RDF>
 </metadata>
 <defs>
  <style type="text/css">*{stroke-linejoin: round; stroke-linecap: butt}</style>
 </defs>
 <g id="figure_1">
  <g id="patch_1">
   <path d="M 0 568.971875 
L 856.3275 568.971875 
L 856.3275 0 
L 0 0 
z
" style="fill: #ffffff"/>
  </g>
  <g id="axes_1">
   <g id="patch_2">
    <path d="M 187.8775 529 
L 849.1275 529 
L 849.1275 7.2 
L 187.8775 7.2 
z
" style="fill: #e5e5e5"/>
   </g>
   <g id="matplotlib.axis_1">
    <g id="xtick_1">
     <g id="line2d_1">
      <path d="M 187.8775 529 
L 187.8775 7.2 
" clip-path="url(#p41bed1fc55)" style="fill: none; stroke: #ffffff; stroke-width: 0.8; stroke-linecap: square"/>
     </g>
     <g id="line2d_2">
      <defs>
       <path id="m3e3413dfb7" d="M 0 0 
L 0 3.5 
" style="stroke: #555555; stroke-width: 0.8"/>
      </defs>
      <g>
       <use xlink:href="#m3e3413dfb7" x="187.8775" y="529" style="fill: #555555; stroke: #555555; stroke-width: 0.8"/>
      </g>
     </g>
     <g id="text_1">
      <!-- 0.00 -->
      <g style="fill: #555555" transform="translate(176.744687 543.598437) scale(0.1 -0.1)">
       <defs>
        <path id="DejaVuSans-30" d="M 2034 4250 
Q 1547 4250 1301 3770 
Q 1056 3291 1056 2328 
Q 1056 1369 1301 889 
Q 1547 409 2034 409 
Q 2525 409 2770 889 
Q 3016 1369 3016 2328 
Q 3016 3291 2770 3770 
Q 2525 4250 2034 4250 
z
M 2034 4750 
Q 2819 4750 3233 4129 
Q 3647 3509 3647 2328 
Q 3647 1150 3233 529 
Q 2819 -91 2034 -91 
Q 1250 -91 836 529 
Q 422 1150 422 2328 
Q 422 3509 836 4129 
Q 1250 4750 2034 4750 
z
" transform="scale(0.015625)"/>
        <path id="DejaVuSans-2e" d="M 684 794 
L 1344 794 
L 1344 0 
L 684 0 
L 684 794 
z
" transform="scale(0.015625)"/>
       </defs>
       <use xlink:href="#DejaVuSans-30"/>
       <use xlink:href="#DejaVuSans-2e" x="63.623047"/>
       <use xlink:href="#DejaVuSans-30" x="95.410156"/>
       <use xlink:href="#DejaVuSans-30" x="159.033203"/>
      </g>
     </g>
    </g>
    <g id="xtick_2">
     <g id="line2d_3">
      <path d="M 266.597738 529 
L 266.597738 7.2 
" clip-path="url(#p41bed1fc55)" style="fill: none; stroke: #ffffff; stroke-width: 0.8; stroke-linecap: square"/>
     </g>
     <g id="line2d_4">
      <g>
       <use xlink:href="#m3e3413dfb7" x="266.597738" y="529" style="fill: #555555; stroke: #555555; stroke-width: 0.8"/>
      </g>
     </g>
     <g id="text_2">
      <!-- 0.25 -->
      <g style="fill: #555555" transform="translate(255.464926 543.598437) scale(0.1 -0.1)">
       <defs>
        <path id="DejaVuSans-32" d="M 1228 531 
L 3431 531 
L 3431 0 
L 469 0 
L 469 531 
Q 828 903 1448 1529 
Q 2069 2156 2228 2338 
Q 2531 2678 2651 2914 
Q 2772 3150 2772 3378 
Q 2772 3750 2511 3984 
Q 2250 4219 1831 4219 
Q 1534 4219 1204 4116 
Q 875 4013 500 3803 
L 500 4441 
Q 881 4594 1212 4672 
Q 1544 4750 1819 4750 
Q 2544 4750 2975 4387 
Q 3406 4025 3406 3419 
Q 3406 3131 3298 2873 
Q 3191 2616 2906 2266 
Q 2828 2175 2409 1742 
Q 1991 1309 1228 531 
z
" transform="scale(0.015625)"/>
        <path id="DejaVuSans-35" d="M 691 4666 
L 3169 4666 
L 3169 4134 
L 1269 4134 
L 1269 2991 
Q 1406 3038 1543 3061 
Q 1681 3084 1819 3084 
Q 2600 3084 3056 2656 
Q 3513 2228 3513 1497 
Q 3513 744 3044 326 
Q 2575 -91 1722 -91 
Q 1428 -91 1123 -41 
Q 819 9 494 109 
L 494 744 
Q 775 591 1075 516 
Q 1375 441 1709 441 
Q 2250 441 2565 725 
Q 2881 1009 2881 1497 
Q 2881 1984 2565 2268 
Q 2250 2553 1709 2553 
Q 1456 2553 1204 2497 
Q 953 2441 691 2322 
L 691 4666 
z
" transform="scale(0.015625)"/>
       </defs>
       <use xlink:href="#DejaVuSans-30"/>
       <use xlink:href="#DejaVuSans-2e" x="63.623047"/>
       <use xlink:href="#DejaVuSans-32" x="95.410156"/>
       <use xlink:href="#DejaVuSans-35" x="159.033203"/>
      </g>
     </g>
    </g>
    <g id="xtick_3">
     <g id="line2d_5">
      <path d="M 345.317976 529 
L 345.317976 7.2 
" clip-path="url(#p41bed1fc55)" style="fill: none; stroke: #ffffff; stroke-width: 0.8; stroke-linecap: square"/>
     </g>
     <g id="line2d_6">
      <g>
       <use xlink:href="#m3e3413dfb7" x="345.317976" y="529" style="fill: #555555; stroke: #555555; stroke-width: 0.8"/>
      </g>
     </g>
     <g id="text_3">
      <!-- 0.50 -->
      <g style="fill: #555555" transform="translate(334.185164 543.598437) scale(0.1 -0.1)">
       <use xlink:href="#DejaVuSans-30"/>
       <use xlink:href="#DejaVuSans-2e" x="63.623047"/>
       <use xlink:href="#DejaVuSans-35" x="95.410156"/>
       <use xlink:href="#DejaVuSans-30" x="159.033203"/>
      </g>
     </g>
    </g>
    <g id="xtick_4">
     <g id="line2d_7">
      <path d="M 424.038214 529 
L 424.038214 7.2 
" clip-path="url(#p41bed1fc55)" style="fill: none; stroke: #ffffff; stroke-width: 0.8; stroke-linecap: square"/>
     </g>
     <g id="line2d_8">
      <g>
       <use xlink:href="#m3e3413dfb7" x="424.038214" y="529" style="fill: #555555; stroke: #555555; stroke-width: 0.8"/>
      </g>
     </g>
     <g id="text_4">
      <!-- 0.75 -->
      <g style="fill: #555555" transform="translate(412.905402 543.598437) scale(0.1 -0.1)">
       <defs>
        <path id="DejaVuSans-37" d="M 525 4666 
L 3525 4666 
L 3525 4397 
L 1831 0 
L 1172 0 
L 2766 4134 
L 525 4134 
L 525 4666 
z
" transform="scale(0.015625)"/>
       </defs>
       <use xlink:href="#DejaVuSans-30"/>
       <use xlink:href="#DejaVuSans-2e" x="63.623047"/>
       <use xlink:href="#DejaVuSans-37" x="95.410156"/>
       <use xlink:href="#DejaVuSans-35" x="159.033203"/>
      </g>
     </g>
    </g>
    <g id="xtick_5">
     <g id="line2d_9">
      <path d="M 502.758452 529 
L 502.758452 7.2 
" clip-path="url(#p41bed1fc55)" style="fill: none; stroke: #ffffff; stroke-width: 0.8; stroke-linecap: square"/>
     </g>
     <g id="line2d_10">
      <g>
       <use xlink:href="#m3e3413dfb7" x="502.758452" y="529" style="fill: #555555; stroke: #555555; stroke-width: 0.8"/>
      </g>
     </g>
     <g id="text_5">
      <!-- 1.00 -->
      <g style="fill: #555555" transform="translate(491.62564 543.598437) scale(0.1 -0.1)">
       <defs>
        <path id="DejaVuSans-31" d="M 794 531 
L 1825 531 
L 1825 4091 
L 703 3866 
L 703 4441 
L 1819 4666 
L 2450 4666 
L 2450 531 
L 3481 531 
L 3481 0 
L 794 0 
L 794 531 
z
" transform="scale(0.015625)"/>
       </defs>
       <use xlink:href="#DejaVuSans-31"/>
       <use xlink:href="#DejaVuSans-2e" x="63.623047"/>
       <use xlink:href="#DejaVuSans-30" x="95.410156"/>
       <use xlink:href="#DejaVuSans-30" x="159.033203"/>
      </g>
     </g>
    </g>
    <g id="xtick_6">
     <g id="line2d_11">
      <path d="M 581.47869 529 
L 581.47869 7.2 
" clip-path="url(#p41bed1fc55)" style="fill: none; stroke: #ffffff; stroke-width: 0.8; stroke-linecap: square"/>
     </g>
     <g id="line2d_12">
      <g>
       <use xlink:href="#m3e3413dfb7" x="581.47869" y="529" style="fill: #555555; stroke: #555555; stroke-width: 0.8"/>
      </g>
     </g>
     <g id="text_6">
      <!-- 1.25 -->
      <g style="fill: #555555" transform="translate(570.345878 543.598437) scale(0.1 -0.1)">
       <use xlink:href="#DejaVuSans-31"/>
       <use xlink:href="#DejaVuSans-2e" x="63.623047"/>
       <use xlink:href="#DejaVuSans-32" x="95.410156"/>
       <use xlink:href="#DejaVuSans-35" x="159.033203"/>
      </g>
     </g>
    </g>
    <g id="xtick_7">
     <g id="line2d_13">
      <path d="M 660.198929 529 
L 660.198929 7.2 
" clip-path="url(#p41bed1fc55)" style="fill: none; stroke: #ffffff; stroke-width: 0.8; stroke-linecap: square"/>
     </g>
     <g id="line2d_14">
      <g>
       <use xlink:href="#m3e3413dfb7" x="660.198929" y="529" style="fill: #555555; stroke: #555555; stroke-width: 0.8"/>
      </g>
     </g>
     <g id="text_7">
      <!-- 1.50 -->
      <g style="fill: #555555" transform="translate(649.066116 543.598437) scale(0.1 -0.1)">
       <use xlink:href="#DejaVuSans-31"/>
       <use xlink:href="#DejaVuSans-2e" x="63.623047"/>
       <use xlink:href="#DejaVuSans-35" x="95.410156"/>
       <use xlink:href="#DejaVuSans-30" x="159.033203"/>
      </g>
     </g>
    </g>
    <g id="xtick_8">
     <g id="line2d_15">
      <path d="M 738.919167 529 
L 738.919167 7.2 
" clip-path="url(#p41bed1fc55)" style="fill: none; stroke: #ffffff; stroke-width: 0.8; stroke-linecap: square"/>
     </g>
     <g id="line2d_16">
      <g>
       <use xlink:href="#m3e3413dfb7" x="738.919167" y="529" style="fill: #555555; stroke: #555555; stroke-width: 0.8"/>
      </g>
     </g>
     <g id="text_8">
      <!-- 1.75 -->
      <g style="fill: #555555" transform="translate(727.786354 543.598437) scale(0.1 -0.1)">
       <use xlink:href="#DejaVuSans-31"/>
       <use xlink:href="#DejaVuSans-2e" x="63.623047"/>
       <use xlink:href="#DejaVuSans-37" x="95.410156"/>
       <use xlink:href="#DejaVuSans-35" x="159.033203"/>
      </g>
     </g>
    </g>
    <g id="xtick_9">
     <g id="line2d_17">
      <path d="M 817.639405 529 
L 817.639405 7.2 
" clip-path="url(#p41bed1fc55)" style="fill: none; stroke: #ffffff; stroke-width: 0.8; stroke-linecap: square"/>
     </g>
     <g id="line2d_18">
      <g>
       <use xlink:href="#m3e3413dfb7" x="817.639405" y="529" style="fill: #555555; stroke: #555555; stroke-width: 0.8"/>
      </g>
     </g>
     <g id="text_9">
      <!-- 2.00 -->
      <g style="fill: #555555" transform="translate(806.506592 543.598437) scale(0.1 -0.1)">
       <use xlink:href="#DejaVuSans-32"/>
       <use xlink:href="#DejaVuSans-2e" x="63.623047"/>
       <use xlink:href="#DejaVuSans-30" x="95.410156"/>
       <use xlink:href="#DejaVuSans-30" x="159.033203"/>
      </g>
     </g>
    </g>
    <g id="text_10">
     <!-- Número de egresos -->
     <g style="fill: #555555" transform="translate(459.910625 559.27625) scale(0.12 -0.12)">
      <defs>
       <path id="DejaVuSans-4e" d="M 628 4666 
L 1478 4666 
L 3547 763 
L 3547 4666 
L 4159 4666 
L 4159 0 
L 3309 0 
L 1241 3903 
L 1241 0 
L 628 0 
L 628 4666 
z
" transform="scale(0.015625)"/>
       <path id="DejaVuSans-fa" d="M 544 1381 
L 544 3500 
L 1119 3500 
L 1119 1403 
Q 1119 906 1312 657 
Q 1506 409 1894 409 
Q 2359 409 2629 706 
Q 2900 1003 2900 1516 
L 2900 3500 
L 3475 3500 
L 3475 0 
L 2900 0 
L 2900 538 
Q 2691 219 2414 64 
Q 2138 -91 1772 -91 
Q 1169 -91 856 284 
Q 544 659 544 1381 
z
M 1991 3584 
L 1991 3584 
z
M 2419 5119 
L 3041 5119 
L 2022 3944 
L 1544 3944 
L 2419 5119 
z
" transform="scale(0.015625)"/>
       <path id="DejaVuSans-6d" d="M 3328 2828 
Q 3544 3216 3844 3400 
Q 4144 3584 4550 3584 
Q 5097 3584 5394 3201 
Q 5691 2819 5691 2113 
L 5691 0 
L 5113 0 
L 5113 2094 
Q 5113 2597 4934 2840 
Q 4756 3084 4391 3084 
Q 3944 3084 3684 2787 
Q 3425 2491 3425 1978 
L 3425 0 
L 2847 0 
L 2847 2094 
Q 2847 2600 2669 2842 
Q 2491 3084 2119 3084 
Q 1678 3084 1418 2786 
Q 1159 2488 1159 1978 
L 1159 0 
L 581 0 
L 581 3500 
L 1159 3500 
L 1159 2956 
Q 1356 3278 1631 3431 
Q 1906 3584 2284 3584 
Q 2666 3584 2933 3390 
Q 3200 3197 3328 2828 
z
" transform="scale(0.015625)"/>
       <path id="DejaVuSans-65" d="M 3597 1894 
L 3597 1613 
L 953 1613 
Q 991 1019 1311 708 
Q 1631 397 2203 397 
Q 2534 397 2845 478 
Q 3156 559 3463 722 
L 3463 178 
Q 3153 47 2828 -22 
Q 2503 -91 2169 -91 
Q 1331 -91 842 396 
Q 353 884 353 1716 
Q 353 2575 817 3079 
Q 1281 3584 2069 3584 
Q 2775 3584 3186 3129 
Q 3597 2675 3597 1894 
z
M 3022 2063 
Q 3016 2534 2758 2815 
Q 2500 3097 2075 3097 
Q 1594 3097 1305 2825 
Q 1016 2553 972 2059 
L 3022 2063 
z
" transform="scale(0.015625)"/>
       <path id="DejaVuSans-72" d="M 2631 2963 
Q 2534 3019 2420 3045 
Q 2306 3072 2169 3072 
Q 1681 3072 1420 2755 
Q 1159 2438 1159 1844 
L 1159 0 
L 581 0 
L 581 3500 
L 1159 3500 
L 1159 2956 
Q 1341 3275 1631 3429 
Q 1922 3584 2338 3584 
Q 2397 3584 2469 3576 
Q 2541 3569 2628 3553 
L 2631 2963 
z
" transform="scale(0.015625)"/>
       <path id="DejaVuSans-6f" d="M 1959 3097 
Q 1497 3097 1228 2736 
Q 959 2375 959 1747 
Q 959 1119 1226 758 
Q 1494 397 1959 397 
Q 2419 397 2687 759 
Q 2956 1122 2956 1747 
Q 2956 2369 2687 2733 
Q 2419 3097 1959 3097 
z
M 1959 3584 
Q 2709 3584 3137 3096 
Q 3566 2609 3566 1747 
Q 3566 888 3137 398 
Q 2709 -91 1959 -91 
Q 1206 -91 779 398 
Q 353 888 353 1747 
Q 353 2609 779 3096 
Q 1206 3584 1959 3584 
z
" transform="scale(0.015625)"/>
       <path id="DejaVuSans-20" transform="scale(0.015625)"/>
       <path id="DejaVuSans-64" d="M 2906 2969 
L 2906 4863 
L 3481 4863 
L 3481 0 
L 2906 0 
L 2906 525 
Q 2725 213 2448 61 
Q 2172 -91 1784 -91 
Q 1150 -91 751 415 
Q 353 922 353 1747 
Q 353 2572 751 3078 
Q 1150 3584 1784 3584 
Q 2172 3584 2448 3432 
Q 2725 3281 2906 2969 
z
M 947 1747 
Q 947 1113 1208 752 
Q 1469 391 1925 391 
Q 2381 391 2643 752 
Q 2906 1113 2906 1747 
Q 2906 2381 2643 2742 
Q 2381 3103 1925 3103 
Q 1469 3103 1208 2742 
Q 947 2381 947 1747 
z
" transform="scale(0.015625)"/>
       <path id="DejaVuSans-67" d="M 2906 1791 
Q 2906 2416 2648 2759 
Q 2391 3103 1925 3103 
Q 1463 3103 1205 2759 
Q 947 2416 947 1791 
Q 947 1169 1205 825 
Q 1463 481 1925 481 
Q 2391 481 2648 825 
Q 2906 1169 2906 1791 
z
M 3481 434 
Q 3481 -459 3084 -895 
Q 2688 -1331 1869 -1331 
Q 1566 -1331 1297 -1286 
Q 1028 -1241 775 -1147 
L 775 -588 
Q 1028 -725 1275 -790 
Q 1522 -856 1778 -856 
Q 2344 -856 2625 -561 
Q 2906 -266 2906 331 
L 2906 616 
Q 2728 306 2450 153 
Q 2172 0 1784 0 
Q 1141 0 747 490 
Q 353 981 353 1791 
Q 353 2603 747 3093 
Q 1141 3584 1784 3584 
Q 2172 3584 2450 3431 
Q 2728 3278 2906 2969 
L 2906 3500 
L 3481 3500 
L 3481 434 
z
" transform="scale(0.015625)"/>
       <path id="DejaVuSans-73" d="M 2834 3397 
L 2834 2853 
Q 2591 2978 2328 3040 
Q 2066 3103 1784 3103 
Q 1356 3103 1142 2972 
Q 928 2841 928 2578 
Q 928 2378 1081 2264 
Q 1234 2150 1697 2047 
L 1894 2003 
Q 2506 1872 2764 1633 
Q 3022 1394 3022 966 
Q 3022 478 2636 193 
Q 2250 -91 1575 -91 
Q 1294 -91 989 -36 
Q 684 19 347 128 
L 347 722 
Q 666 556 975 473 
Q 1284 391 1588 391 
Q 1994 391 2212 530 
Q 2431 669 2431 922 
Q 2431 1156 2273 1281 
Q 2116 1406 1581 1522 
L 1381 1569 
Q 847 1681 609 1914 
Q 372 2147 372 2553 
Q 372 3047 722 3315 
Q 1072 3584 1716 3584 
Q 2034 3584 2315 3537 
Q 2597 3491 2834 3397 
z
" transform="scale(0.015625)"/>
      </defs>
      <use xlink:href="#DejaVuSans-4e"/>
      <use xlink:href="#DejaVuSans-fa" x="74.804688"/>
      <use xlink:href="#DejaVuSans-6d" x="138.183594"/>
      <use xlink:href="#DejaVuSans-65" x="235.595703"/>
      <use xlink:href="#DejaVuSans-72" x="297.119141"/>
      <use xlink:href="#DejaVuSans-6f" x="335.982422"/>
      <use xlink:href="#DejaVuSans-20" x="397.164062"/>
      <use xlink:href="#DejaVuSans-64" x="428.951172"/>
      <use xlink:href="#DejaVuSans-65" x="492.427734"/>
      <use xlink:href="#DejaVuSans-20" x="553.951172"/>
      <use xlink:href="#DejaVuSans-65" x="585.738281"/>
      <use xlink:href="#DejaVuSans-67" x="647.261719"/>
      <use xlink:href="#DejaVuSans-72" x="710.738281"/>
      <use xlink:href="#DejaVuSans-65" x="749.601562"/>
      <use xlink:href="#DejaVuSans-73" x="811.125"/>
      <use xlink:href="#DejaVuSans-6f" x="863.224609"/>
      <use xlink:href="#DejaVuSans-73" x="924.40625"/>
     </g>
    </g>
   </g>
   <g id="matplotlib.axis_2">
    <g id="ytick_1">
     <g id="line2d_19">
      <path d="M 187.8775 437.515584 
L 849.1275 437.515584 
" clip-path="url(#p41bed1fc55)" style="fill: none; stroke: #ffffff; stroke-width: 0.8; stroke-linecap: square"/>
     </g>
     <g id="line2d_20">
      <defs>
       <path id="meed3db39a0" d="M 0 0 
L -3.5 0 
" style="stroke: #555555; stroke-width: 0.8"/>
      </defs>
      <g>
       <use xlink:href="#meed3db39a0" x="187.8775" y="437.515584" style="fill: #555555; stroke: #555555; stroke-width: 0.8"/>
      </g>
     </g>
     <g id="text_11">
      <!-- ENFERMEDAD VALVULAR MITRAL, NO -->
      <g style="fill: #555555" transform="translate(13.653281 436.579725) scale(0.09 -0.09)">
       <defs>
        <path id="DejaVuSans-45" d="M 628 4666 
L 3578 4666 
L 3578 4134 
L 1259 4134 
L 1259 2753 
L 3481 2753 
L 3481 2222 
L 1259 2222 
L 1259 531 
L 3634 531 
L 3634 0 
L 628 0 
L 628 4666 
z
" transform="scale(0.015625)"/>
        <path id="DejaVuSans-46" d="M 628 4666 
L 3309 4666 
L 3309 4134 
L 1259 4134 
L 1259 2759 
L 3109 2759 
L 3109 2228 
L 1259 2228 
L 1259 0 
L 628 0 
L 628 4666 
z
" transform="scale(0.015625)"/>
        <path id="DejaVuSans-52" d="M 2841 2188 
Q 3044 2119 3236 1894 
Q 3428 1669 3622 1275 
L 4263 0 
L 3584 0 
L 2988 1197 
Q 2756 1666 2539 1819 
Q 2322 1972 1947 1972 
L 1259 1972 
L 1259 0 
L 628 0 
L 628 4666 
L 2053 4666 
Q 2853 4666 3247 4331 
Q 3641 3997 3641 3322 
Q 3641 2881 3436 2590 
Q 3231 2300 2841 2188 
z
M 1259 4147 
L 1259 2491 
L 2053 2491 
Q 2509 2491 2742 2702 
Q 2975 2913 2975 3322 
Q 2975 3731 2742 3939 
Q 2509 4147 2053 4147 
L 1259 4147 
z
" transform="scale(0.015625)"/>
        <path id="DejaVuSans-4d" d="M 628 4666 
L 1569 4666 
L 2759 1491 
L 3956 4666 
L 4897 4666 
L 4897 0 
L 4281 0 
L 4281 4097 
L 3078 897 
L 2444 897 
L 1241 4097 
L 1241 0 
L 628 0 
L 628 4666 
z
" transform="scale(0.015625)"/>
        <path id="DejaVuSans-44" d="M 1259 4147 
L 1259 519 
L 2022 519 
Q 2988 519 3436 956 
Q 3884 1394 3884 2338 
Q 3884 3275 3436 3711 
Q 2988 4147 2022 4147 
L 1259 4147 
z
M 628 4666 
L 1925 4666 
Q 3281 4666 3915 4102 
Q 4550 3538 4550 2338 
Q 4550 1131 3912 565 
Q 3275 0 1925 0 
L 628 0 
L 628 4666 
z
" transform="scale(0.015625)"/>
        <path id="DejaVuSans-41" d="M 2188 4044 
L 1331 1722 
L 3047 1722 
L 2188 4044 
z
M 1831 4666 
L 2547 4666 
L 4325 0 
L 3669 0 
L 3244 1197 
L 1141 1197 
L 716 0 
L 50 0 
L 1831 4666 
z
" transform="scale(0.015625)"/>
        <path id="DejaVuSans-56" d="M 1831 0 
L 50 4666 
L 709 4666 
L 2188 738 
L 3669 4666 
L 4325 4666 
L 2547 0 
L 1831 0 
z
" transform="scale(0.015625)"/>
        <path id="DejaVuSans-4c" d="M 628 4666 
L 1259 4666 
L 1259 531 
L 3531 531 
L 3531 0 
L 628 0 
L 628 4666 
z
" transform="scale(0.015625)"/>
        <path id="DejaVuSans-55" d="M 556 4666 
L 1191 4666 
L 1191 1831 
Q 1191 1081 1462 751 
Q 1734 422 2344 422 
Q 2950 422 3222 751 
Q 3494 1081 3494 1831 
L 3494 4666 
L 4128 4666 
L 4128 1753 
Q 4128 841 3676 375 
Q 3225 -91 2344 -91 
Q 1459 -91 1007 375 
Q 556 841 556 1753 
L 556 4666 
z
" transform="scale(0.015625)"/>
        <path id="DejaVuSans-49" d="M 628 4666 
L 1259 4666 
L 1259 0 
L 628 0 
L 628 4666 
z
" transform="scale(0.015625)"/>
        <path id="DejaVuSans-54" d="M -19 4666 
L 3928 4666 
L 3928 4134 
L 2272 4134 
L 2272 0 
L 1638 0 
L 1638 4134 
L -19 4134 
L -19 4666 
z
" transform="scale(0.015625)"/>
        <path id="DejaVuSans-2c" d="M 750 794 
L 1409 794 
L 1409 256 
L 897 -744 
L 494 -744 
L 750 256 
L 750 794 
z
" transform="scale(0.015625)"/>
        <path id="DejaVuSans-4f" d="M 2522 4238 
Q 1834 4238 1429 3725 
Q 1025 3213 1025 2328 
Q 1025 1447 1429 934 
Q 1834 422 2522 422 
Q 3209 422 3611 934 
Q 4013 1447 4013 2328 
Q 4013 3213 3611 3725 
Q 3209 4238 2522 4238 
z
M 2522 4750 
Q 3503 4750 4090 4092 
Q 4678 3434 4678 2328 
Q 4678 1225 4090 567 
Q 3503 -91 2522 -91 
Q 1538 -91 948 565 
Q 359 1222 359 2328 
Q 359 3434 948 4092 
Q 1538 4750 2522 4750 
z
" transform="scale(0.015625)"/>
       </defs>
       <use xlink:href="#DejaVuSans-45"/>
       <use xlink:href="#DejaVuSans-4e" x="63.183594"/>
       <use xlink:href="#DejaVuSans-46" x="137.988281"/>
       <use xlink:href="#DejaVuSans-45" x="195.507812"/>
       <use xlink:href="#DejaVuSans-52" x="258.691406"/>
       <use xlink:href="#DejaVuSans-4d" x="328.173828"/>
       <use xlink:href="#DejaVuSans-45" x="414.453125"/>
       <use xlink:href="#DejaVuSans-44" x="477.636719"/>
       <use xlink:href="#DejaVuSans-41" x="552.888672"/>
       <use xlink:href="#DejaVuSans-44" x="621.296875"/>
       <use xlink:href="#DejaVuSans-20" x="698.298828"/>
       <use xlink:href="#DejaVuSans-56" x="730.085938"/>
       <use xlink:href="#DejaVuSans-41" x="792.119141"/>
       <use xlink:href="#DejaVuSans-4c" x="860.527344"/>
       <use xlink:href="#DejaVuSans-56" x="905.240234"/>
       <use xlink:href="#DejaVuSans-55" x="973.648438"/>
       <use xlink:href="#DejaVuSans-4c" x="1046.841797"/>
       <use xlink:href="#DejaVuSans-41" x="1104.804688"/>
       <use xlink:href="#DejaVuSans-52" x="1173.212891"/>
       <use xlink:href="#DejaVuSans-20" x="1242.695312"/>
       <use xlink:href="#DejaVuSans-4d" x="1274.482422"/>
       <use xlink:href="#DejaVuSans-49" x="1360.761719"/>
       <use xlink:href="#DejaVuSans-54" x="1390.253906"/>
       <use xlink:href="#DejaVuSans-52" x="1451.337891"/>
       <use xlink:href="#DejaVuSans-41" x="1516.820312"/>
       <use xlink:href="#DejaVuSans-4c" x="1585.228516"/>
       <use xlink:href="#DejaVuSans-2c" x="1640.941406"/>
       <use xlink:href="#DejaVuSans-20" x="1672.728516"/>
       <use xlink:href="#DejaVuSans-4e" x="1704.515625"/>
       <use xlink:href="#DejaVuSans-4f" x="1779.320312"/>
      </g>
      <!-- ESPECIFICADA -->
      <g style="fill: #555555" transform="translate(116.222344 446.657756) scale(0.09 -0.09)">
       <defs>
        <path id="DejaVuSans-53" d="M 3425 4513 
L 3425 3897 
Q 3066 4069 2747 4153 
Q 2428 4238 2131 4238 
Q 1616 4238 1336 4038 
Q 1056 3838 1056 3469 
Q 1056 3159 1242 3001 
Q 1428 2844 1947 2747 
L 2328 2669 
Q 3034 2534 3370 2195 
Q 3706 1856 3706 1288 
Q 3706 609 3251 259 
Q 2797 -91 1919 -91 
Q 1588 -91 1214 -16 
Q 841 59 441 206 
L 441 856 
Q 825 641 1194 531 
Q 1563 422 1919 422 
Q 2459 422 2753 634 
Q 3047 847 3047 1241 
Q 3047 1584 2836 1778 
Q 2625 1972 2144 2069 
L 1759 2144 
Q 1053 2284 737 2584 
Q 422 2884 422 3419 
Q 422 4038 858 4394 
Q 1294 4750 2059 4750 
Q 2388 4750 2728 4690 
Q 3069 4631 3425 4513 
z
" transform="scale(0.015625)"/>
        <path id="DejaVuSans-50" d="M 1259 4147 
L 1259 2394 
L 2053 2394 
Q 2494 2394 2734 2622 
Q 2975 2850 2975 3272 
Q 2975 3691 2734 3919 
Q 2494 4147 2053 4147 
L 1259 4147 
z
M 628 4666 
L 2053 4666 
Q 2838 4666 3239 4311 
Q 3641 3956 3641 3272 
Q 3641 2581 3239 2228 
Q 2838 1875 2053 1875 
L 1259 1875 
L 1259 0 
L 628 0 
L 628 4666 
z
" transform="scale(0.015625)"/>
        <path id="DejaVuSans-43" d="M 4122 4306 
L 4122 3641 
Q 3803 3938 3442 4084 
Q 3081 4231 2675 4231 
Q 1875 4231 1450 3742 
Q 1025 3253 1025 2328 
Q 1025 1406 1450 917 
Q 1875 428 2675 428 
Q 3081 428 3442 575 
Q 3803 722 4122 1019 
L 4122 359 
Q 3791 134 3420 21 
Q 3050 -91 2638 -91 
Q 1578 -91 968 557 
Q 359 1206 359 2328 
Q 359 3453 968 4101 
Q 1578 4750 2638 4750 
Q 3056 4750 3426 4639 
Q 3797 4528 4122 4306 
z
" transform="scale(0.015625)"/>
       </defs>
       <use xlink:href="#DejaVuSans-45"/>
       <use xlink:href="#DejaVuSans-53" x="63.183594"/>
       <use xlink:href="#DejaVuSans-50" x="126.660156"/>
       <use xlink:href="#DejaVuSans-45" x="186.962891"/>
       <use xlink:href="#DejaVuSans-43" x="250.146484"/>
       <use xlink:href="#DejaVuSans-49" x="319.970703"/>
       <use xlink:href="#DejaVuSans-46" x="349.462891"/>
       <use xlink:href="#DejaVuSans-49" x="406.982422"/>
       <use xlink:href="#DejaVuSans-43" x="436.474609"/>
       <use xlink:href="#DejaVuSans-41" x="506.298828"/>
       <use xlink:href="#DejaVuSans-44" x="574.707031"/>
       <use xlink:href="#DejaVuSans-41" x="649.958984"/>
      </g>
     </g>
    </g>
    <g id="ytick_2">
     <g id="line2d_21">
      <path d="M 187.8775 268.1 
L 849.1275 268.1 
" clip-path="url(#p41bed1fc55)" style="fill: none; stroke: #ffffff; stroke-width: 0.8; stroke-linecap: square"/>
     </g>
     <g id="line2d_22">
      <g>
       <use xlink:href="#meed3db39a0" x="187.8775" y="268.1" style="fill: #555555; stroke: #555555; stroke-width: 0.8"/>
      </g>
     </g>
     <g id="text_12">
      <!-- NEUMONÍA, NO ESPECIFICADA -->
      <g style="fill: #555555" transform="translate(44.422031 271.860312) scale(0.09 -0.09)">
       <defs>
        <path id="DejaVuSans-cd" d="M 628 4666 
L 1259 4666 
L 1259 0 
L 628 0 
L 628 4666 
z
M 1119 5935 
L 1697 5935 
L 984 5110 
L 506 5110 
L 1119 5935 
z
" transform="scale(0.015625)"/>
       </defs>
       <use xlink:href="#DejaVuSans-4e"/>
       <use xlink:href="#DejaVuSans-45" x="74.804688"/>
       <use xlink:href="#DejaVuSans-55" x="137.988281"/>
       <use xlink:href="#DejaVuSans-4d" x="211.181641"/>
       <use xlink:href="#DejaVuSans-4f" x="297.460938"/>
       <use xlink:href="#DejaVuSans-4e" x="376.171875"/>
       <use xlink:href="#DejaVuSans-cd" x="450.976562"/>
       <use xlink:href="#DejaVuSans-41" x="480.46875"/>
       <use xlink:href="#DejaVuSans-2c" x="548.876953"/>
       <use xlink:href="#DejaVuSans-20" x="580.664062"/>
       <use xlink:href="#DejaVuSans-4e" x="612.451172"/>
       <use xlink:href="#DejaVuSans-4f" x="687.255859"/>
       <use xlink:href="#DejaVuSans-20" x="765.966797"/>
       <use xlink:href="#DejaVuSans-45" x="797.753906"/>
       <use xlink:href="#DejaVuSans-53" x="860.9375"/>
       <use xlink:href="#DejaVuSans-50" x="924.414062"/>
       <use xlink:href="#DejaVuSans-45" x="984.716797"/>
       <use xlink:href="#DejaVuSans-43" x="1047.900391"/>
       <use xlink:href="#DejaVuSans-49" x="1117.724609"/>
       <use xlink:href="#DejaVuSans-46" x="1147.216797"/>
       <use xlink:href="#DejaVuSans-49" x="1204.736328"/>
       <use xlink:href="#DejaVuSans-43" x="1234.228516"/>
       <use xlink:href="#DejaVuSans-41" x="1304.052734"/>
       <use xlink:href="#DejaVuSans-44" x="1372.460938"/>
       <use xlink:href="#DejaVuSans-41" x="1447.712891"/>
      </g>
     </g>
    </g>
    <g id="ytick_3">
     <g id="line2d_23">
      <path d="M 187.8775 98.684416 
L 849.1275 98.684416 
" clip-path="url(#p41bed1fc55)" style="fill: none; stroke: #ffffff; stroke-width: 0.8; stroke-linecap: square"/>
     </g>
     <g id="line2d_24">
      <g>
       <use xlink:href="#meed3db39a0" x="187.8775" y="98.684416" style="fill: #555555; stroke: #555555; stroke-width: 0.8"/>
      </g>
     </g>
     <g id="text_13">
      <!-- PARTO ÚNICO ESPONTÁNEO, SIN OTRA -->
      <g style="fill: #555555" transform="translate(7.2 98.089572) scale(0.09 -0.09)">
       <defs>
        <path id="DejaVuSans-da" d="M 556 4666 
L 1191 4666 
L 1191 1831 
Q 1191 1081 1462 751 
Q 1734 422 2344 422 
Q 2950 422 3222 751 
Q 3494 1081 3494 1831 
L 3494 4666 
L 4128 4666 
L 4128 1753 
Q 4128 841 3676 375 
Q 3225 -91 2344 -91 
Q 1459 -91 1007 375 
Q 556 841 556 1753 
L 556 4666 
z
M 2516 5935 
L 3094 5935 
L 2381 5110 
L 1903 5110 
L 2516 5935 
z
" transform="scale(0.015625)"/>
        <path id="DejaVuSans-c1" d="M 2188 4044 
L 1331 1722 
L 3047 1722 
L 2188 4044 
z
M 1831 4666 
L 2547 4666 
L 4325 0 
L 3669 0 
L 3244 1197 
L 1141 1197 
L 716 0 
L 50 0 
L 1831 4666 
z
M 2359 5935 
L 2938 5935 
L 2225 5110 
L 1747 5110 
L 2359 5935 
z
" transform="scale(0.015625)"/>
       </defs>
       <use xlink:href="#DejaVuSans-50"/>
       <use xlink:href="#DejaVuSans-41" x="53.927734"/>
       <use xlink:href="#DejaVuSans-52" x="122.335938"/>
       <use xlink:href="#DejaVuSans-54" x="184.568359"/>
       <use xlink:href="#DejaVuSans-4f" x="245.652344"/>
       <use xlink:href="#DejaVuSans-20" x="324.363281"/>
       <use xlink:href="#DejaVuSans-da" x="356.150391"/>
       <use xlink:href="#DejaVuSans-4e" x="429.34375"/>
       <use xlink:href="#DejaVuSans-49" x="504.148438"/>
       <use xlink:href="#DejaVuSans-43" x="533.640625"/>
       <use xlink:href="#DejaVuSans-4f" x="603.464844"/>
       <use xlink:href="#DejaVuSans-20" x="682.175781"/>
       <use xlink:href="#DejaVuSans-45" x="713.962891"/>
       <use xlink:href="#DejaVuSans-53" x="777.146484"/>
       <use xlink:href="#DejaVuSans-50" x="840.623047"/>
       <use xlink:href="#DejaVuSans-4f" x="900.925781"/>
       <use xlink:href="#DejaVuSans-4e" x="979.636719"/>
       <use xlink:href="#DejaVuSans-54" x="1054.441406"/>
       <use xlink:href="#DejaVuSans-c1" x="1107.775391"/>
       <use xlink:href="#DejaVuSans-4e" x="1176.183594"/>
       <use xlink:href="#DejaVuSans-45" x="1250.988281"/>
       <use xlink:href="#DejaVuSans-4f" x="1314.171875"/>
       <use xlink:href="#DejaVuSans-2c" x="1392.882812"/>
       <use xlink:href="#DejaVuSans-20" x="1424.669922"/>
       <use xlink:href="#DejaVuSans-53" x="1456.457031"/>
       <use xlink:href="#DejaVuSans-49" x="1519.933594"/>
       <use xlink:href="#DejaVuSans-4e" x="1549.425781"/>
       <use xlink:href="#DejaVuSans-20" x="1624.230469"/>
       <use xlink:href="#DejaVuSans-4f" x="1656.017578"/>
       <use xlink:href="#DejaVuSans-54" x="1734.728516"/>
       <use xlink:href="#DejaVuSans-52" x="1795.8125"/>
       <use xlink:href="#DejaVuSans-41" x="1861.294922"/>
      </g>
      <!-- ESPECIFICACIÓN -->
      <g style="fill: #555555" transform="translate(106.551562 108.167603) scale(0.09 -0.09)">
       <defs>
        <path id="DejaVuSans-d3" d="M 2522 4238 
Q 1834 4238 1429 3725 
Q 1025 3213 1025 2328 
Q 1025 1447 1429 934 
Q 1834 422 2522 422 
Q 3209 422 3611 934 
Q 4013 1447 4013 2328 
Q 4013 3213 3611 3725 
Q 3209 4238 2522 4238 
z
M 2522 4750 
Q 3503 4750 4090 4092 
Q 4678 3434 4678 2328 
Q 4678 1225 4090 567 
Q 3503 -91 2522 -91 
Q 1538 -91 948 565 
Q 359 1222 359 2328 
Q 359 3434 948 4092 
Q 1538 4750 2522 4750 
z
M 2694 5935 
L 3272 5935 
L 2559 5110 
L 2081 5110 
L 2694 5935 
z
" transform="scale(0.015625)"/>
       </defs>
       <use xlink:href="#DejaVuSans-45"/>
       <use xlink:href="#DejaVuSans-53" x="63.183594"/>
       <use xlink:href="#DejaVuSans-50" x="126.660156"/>
       <use xlink:href="#DejaVuSans-45" x="186.962891"/>
       <use xlink:href="#DejaVuSans-43" x="250.146484"/>
       <use xlink:href="#DejaVuSans-49" x="319.970703"/>
       <use xlink:href="#DejaVuSans-46" x="349.462891"/>
       <use xlink:href="#DejaVuSans-49" x="406.982422"/>
       <use xlink:href="#DejaVuSans-43" x="436.474609"/>
       <use xlink:href="#DejaVuSans-41" x="506.298828"/>
       <use xlink:href="#DejaVuSans-43" x="572.957031"/>
       <use xlink:href="#DejaVuSans-49" x="642.78125"/>
       <use xlink:href="#DejaVuSans-d3" x="672.273438"/>
       <use xlink:href="#DejaVuSans-4e" x="750.984375"/>
      </g>
     </g>
    </g>
   </g>
   <g id="patch_3">
    <path d="M 187.8775 505.281818 
L 502.758452 505.281818 
L 502.758452 369.749351 
L 187.8775 369.749351 
z
" clip-path="url(#p41bed1fc55)" style="fill: #1f77b4; opacity: 0.65; stroke: #000000; stroke-width: 0.5; stroke-linejoin: miter"/>
   </g>
   <g id="patch_4">
    <path d="M 187.8775 335.866234 
L 502.758452 335.866234 
L 502.758452 200.333766 
L 187.8775 200.333766 
z
" clip-path="url(#p41bed1fc55)" style="fill: #1f77b4; opacity: 0.65; stroke: #000000; stroke-width: 0.5; stroke-linejoin: miter"/>
   </g>
   <g id="patch_5">
    <path d="M 187.8775 166.450649 
L 817.639405 166.450649 
L 817.639405 30.918182 
L 187.8775 30.918182 
z
" clip-path="url(#p41bed1fc55)" style="fill: #1f77b4; opacity: 0.65; stroke: #000000; stroke-width: 0.5; stroke-linejoin: miter"/>
   </g>
   <g id="patch_6">
    <path d="M 187.8775 529 
L 187.8775 7.2 
" style="fill: none; stroke: #ffffff; stroke-linejoin: miter; stroke-linecap: square"/>
   </g>
   <g id="patch_7">
    <path d="M 849.1275 529 
L 849.1275 7.2 
" style="fill: none; stroke: #ffffff; stroke-linejoin: miter; stroke-linecap: square"/>
   </g>
   <g id="patch_8">
    <path d="M 187.8775 529 
L 849.1275 529 
" style="fill: none; stroke: #ffffff; stroke-linejoin: miter; stroke-linecap: square"/>
   </g>
   <g id="patch_9">
    <path d="M 187.8775 7.2 
L 849.1275 7.2 
" style="fill: none; stroke: #ffffff; stroke-linejoin: miter; stroke-linecap: square"/>
   </g>
  </g>
 </g>
 <defs>
  <clipPath id="p41bed1fc55">
   <rect x="187.8775" y="7.2" width="661.25" height="521.8"/>
  </clipPath>
 </defs>
</svg>
