<?xml version="1.0" encoding="utf-8" standalone="no"?>
<!DOCTYPE svg PUBLIC "-//W3C//DTD SVG 1.1//EN"
  "http://www.w3.org/Graphics/SVG/1.1/DTD/svg11.dtd">
<svg xmlns:xlink="http://www.w3.org/1999/xlink" width="1000.385156pt" height="568.969625pt" viewBox="0 0 1000.385156 568.969625" xmlns="http://www.w3.org/2000/svg" version="1.1">
 <metadata>
  <rdf:RDF xmlns:dc="http://purl.org/dc/elements/1.1/" xmlns:cc="http://creativecommons.org/ns#" xmlns:rdf="http://www.w3.org/1999/02/22-rdf-syntax-ns#">
   <cc:Work>
    <dc:type rdf:resource="http://purl.org/dc/dcmitype/StillImage"/>
    <dc:date>2026-02-09T20:56:08.253587</dc:date>
    <dc:format>image/svg+xml</dc:format>
    <dc:creator>
     <cc:Agent>
      <dc:title>Matplotlib v3.6.3, https://matplotlib.org/</dc:title>
     </cc:Agent>
    </dc:creator>
   </cc:Work>
  </rdf:RDF>
 </metadata>
 <defs>
  <style type="text/css">*{stroke-linejoin: round; stroke-linecap: butt}</style>
 </defs>
 <g id="figure_1">
  <g id="patch_1">
   <path d="M 0 568.969625 
L 1000.385156 568.969625 
L 1000.385156 0 
L 0 0 
z
" style="fill: #ffffff"/>
  </g>
  <g id="axes_1">
   <g id="patch_2">
    <path d="M 213.495156 528.99775 
L 993.185156 528.99775 
L 993.185156 24.71775 
L 213.495156 24.71775 
z
" style="fill: #e5e5e5"/>
   </g>
   <g id="matplotlib.axis_1">
    <g id="xtick_1">
     <g id="line2d_1">
      <path d="M 213.495156 528.99775 
L 213.495156 24.71775 
" clip-path="url(#p985ae5498a)" style="fill: none; stroke: #ffffff; stroke-width: 0.8; stroke-linecap: square"/>
     </g>
     <g id="line2d_2">
      <defs>
       <path id="m9b170bf083" d="M 0 0 
L 0 3.5 
" style="stroke: #555555; stroke-width: 0.8"/>
      </defs>
      <g>
       <use xlink:href="#m9b170bf083" x="213.495156" y="528.99775" style="fill: #555555; stroke: #555555; stroke-width: 0.8"/>
      </g>
     </g>
     <g id="text_1">
      <!-- 0 -->
      <g style="fill: #555555" transform="translate(210.313906 543.596187) scale(0.1 -0.1)">
       <defs>
        <path id="DejaVuSans-30" d="M 2034 4250 
Q 1547 4250 1301 3770 
Q 1056 3291 1056 2328 
Q 1056 1369 1301 889 
Q 1547 409 2034 409 
Q 2525 409 2770 889 
Q 3016 1369 3016 2328 
Q 3016 3291 2770 3770 
Q 2525 4250 2034 4250 
z
M 2034 4750 
Q 2819 4750 3233 4129 
Q 3647 3509 3647 2328 
Q 3647 1150 3233 529 
Q 2819 -91 2034 -91 
Q 1250 -91 836 529 
Q 422 1150 422 2328 
Q 422 3509 836 4129 
Q 1250 4750 2034 4750 
z
" transform="scale(0.015625)"/>
       </defs>
       <use xlink:href="#DejaVuSans-30"/>
      </g>
     </g>
    </g>
    <g id="xtick_2">
     <g id="line2d_3">
      <path d="M 313.84136 528.99775 
L 313.84136 24.71775 
" clip-path="url(#p985ae5498a)" style="fill: none; stroke: #ffffff; stroke-width: 0.8; stroke-linecap: square"/>
     </g>
     <g id="line2d_4">
      <g>
       <use xlink:href="#m9b170bf083" x="313.84136" y="528.99775" style="fill: #555555; stroke: #555555; stroke-width: 0.8"/>
      </g>
     </g>
     <g id="text_2">
      <!-- 10 -->
      <g style="fill: #555555" transform="translate(307.47886 543.596187) scale(0.1 -0.1)">
       <defs>
        <path id="DejaVuSans-31" d="M 794 531 
L 1825 531 
L 1825 4091 
L 703 3866 
L 703 4441 
L 1819 4666 
L 2450 4666 
L 2450 531 
L 3481 531 
L 3481 0 
L 794 0 
L 794 531 
z
" transform="scale(0.015625)"/>
       </defs>
       <use xlink:href="#DejaVuSans-31"/>
       <use xlink:href="#DejaVuSans-30" x="63.623047"/>
      </g>
     </g>
    </g>
    <g id="xtick_3">
     <g id="line2d_5">
      <path d="M 414.187563 528.99775 
L 414.187563 24.71775 
" clip-path="url(#p985ae5498a)" style="fill: none; stroke: #ffffff; stroke-width: 0.8; stroke-linecap: square"/>
     </g>
     <g id="line2d_6">
      <g>
       <use xlink:href="#m9b170bf083" x="414.187563" y="528.99775" style="fill: #555555; stroke: #555555; stroke-width: 0.8"/>
      </g>
     </g>
     <g id="text_3">
      <!-- 20 -->
      <g style="fill: #555555" transform="translate(407.825063 543.596187) scale(0.1 -0.1)">
       <defs>
        <path id="DejaVuSans-32" d="M 1228 531 
L 3431 531 
L 3431 0 
L 469 0 
L 469 531 
Q 828 903 1448 1529 
Q 2069 2156 2228 2338 
Q 2531 2678 2651 2914 
Q 2772 3150 2772 3378 
Q 2772 3750 2511 3984 
Q 2250 4219 1831 4219 
Q 1534 4219 1204 4116 
Q 875 4013 500 3803 
L 500 4441 
Q 881 4594 1212 4672 
Q 1544 4750 1819 4750 
Q 2544 4750 2975 4387 
Q 3406 4025 3406 3419 
Q 3406 3131 3298 2873 
Q 3191 2616 2906 2266 
Q 2828 2175 2409 1742 
Q 1991 1309 1228 531 
z
" transform="scale(0.015625)"/>
       </defs>
       <use xlink:href="#DejaVuSans-32"/>
       <use xlink:href="#DejaVuSans-30" x="63.623047"/>
      </g>
     </g>
    </g>
    <g id="xtick_4">
     <g id="line2d_7">
      <path d="M 514.533766 528.99775 
L 514.533766 24.71775 
" clip-path="url(#p985ae5498a)" style="fill: none; stroke: #ffffff; stroke-width: 0.8; stroke-linecap: square"/>
     </g>
     <g id="line2d_8">
      <g>
       <use xlink:href="#m9b170bf083" x="514.533766" y="528.99775" style="fill: #555555; stroke: #555555; stroke-width: 0.8"/>
      </g>
     </g>
     <g id="text_4">
      <!-- 30 -->
      <g style="fill: #555555" transform="translate(508.171266 543.596187) scale(0.1 -0.1)">
       <defs>
        <path id="DejaVuSans-33" d="M 2597 2516 
Q 3050 2419 3304 2112 
Q 3559 1806 3559 1356 
Q 3559 666 3084 287 
Q 2609 -91 1734 -91 
Q 1441 -91 1130 -33 
Q 819 25 488 141 
L 488 750 
Q 750 597 1062 519 
Q 1375 441 1716 441 
Q 2309 441 2620 675 
Q 2931 909 2931 1356 
Q 2931 1769 2642 2001 
Q 2353 2234 1838 2234 
L 1294 2234 
L 1294 2753 
L 1863 2753 
Q 2328 2753 2575 2939 
Q 2822 3125 2822 3475 
Q 2822 3834 2567 4026 
Q 2313 4219 1838 4219 
Q 1578 4219 1281 4162 
Q 984 4106 628 3988 
L 628 4550 
Q 988 4650 1302 4700 
Q 1616 4750 1894 4750 
Q 2613 4750 3031 4423 
Q 3450 4097 3450 3541 
Q 3450 3153 3228 2886 
Q 3006 2619 2597 2516 
z
" transform="scale(0.015625)"/>
       </defs>
       <use xlink:href="#DejaVuSans-33"/>
       <use xlink:href="#DejaVuSans-30" x="63.623047"/>
      </g>
     </g>
    </g>
    <g id="xtick_5">
     <g id="line2d_9">
      <path d="M 614.87997 528.99775 
L 614.87997 24.71775 
" clip-path="url(#p985ae5498a)" style="fill: none; stroke: #ffffff; stroke-width: 0.8; stroke-linecap: square"/>
     </g>
     <g id="line2d_10">
      <g>
       <use xlink:href="#m9b170bf083" x="614.87997" y="528.99775" style="fill: #555555; stroke: #555555; stroke-width: 0.8"/>
      </g>
     </g>
     <g id="text_5">
      <!-- 40 -->
      <g style="fill: #555555" transform="translate(608.51747 543.596187) scale(0.1 -0.1)">
       <defs>
        <path id="DejaVuSans-34" d="M 2419 4116 
L 825 1625 
L 2419 1625 
L 2419 4116 
z
M 2253 4666 
L 3047 4666 
L 3047 1625 
L 3713 1625 
L 3713 1100 
L 3047 1100 
L 3047 0 
L 2419 0 
L 2419 1100 
L 313 1100 
L 313 1709 
L 2253 4666 
z
" transform="scale(0.015625)"/>
       </defs>
       <use xlink:href="#DejaVuSans-34"/>
       <use xlink:href="#DejaVuSans-30" x="63.623047"/>
      </g>
     </g>
    </g>
    <g id="xtick_6">
     <g id="line2d_11">
      <path d="M 715.226173 528.99775 
L 715.226173 24.71775 
" clip-path="url(#p985ae5498a)" style="fill: none; stroke: #ffffff; stroke-width: 0.8; stroke-linecap: square"/>
     </g>
     <g id="line2d_12">
      <g>
       <use xlink:href="#m9b170bf083" x="715.226173" y="528.99775" style="fill: #555555; stroke: #555555; stroke-width: 0.8"/>
      </g>
     </g>
     <g id="text_6">
      <!-- 50 -->
      <g style="fill: #555555" transform="translate(708.863673 543.596187) scale(0.1 -0.1)">
       <defs>
        <path id="DejaVuSans-35" d="M 691 4666 
L 3169 4666 
L 3169 4134 
L 1269 4134 
L 1269 2991 
Q 1406 3038 1543 3061 
Q 1681 3084 1819 3084 
Q 2600 3084 3056 2656 
Q 3513 2228 3513 1497 
Q 3513 744 3044 326 
Q 2575 -91 1722 -91 
Q 1428 -91 1123 -41 
Q 819 9 494 109 
L 494 744 
Q 775 591 1075 516 
Q 1375 441 1709 441 
Q 2250 441 2565 725 
Q 2881 1009 2881 1497 
Q 2881 1984 2565 2268 
Q 2250 2553 1709 2553 
Q 1456 2553 1204 2497 
Q 953 2441 691 2322 
L 691 4666 
z
" transform="scale(0.015625)"/>
       </defs>
       <use xlink:href="#DejaVuSans-35"/>
       <use xlink:href="#DejaVuSans-30" x="63.623047"/>
      </g>
     </g>
    </g>
    <g id="xtick_7">
     <g id="line2d_13">
      <path d="M 815.572376 528.99775 
L 815.572376 24.71775 
" clip-path="url(#p985ae5498a)" style="fill: none; stroke: #ffffff; stroke-width: 0.8; stroke-linecap: square"/>
     </g>
     <g id="line2d_14">
      <g>
       <use xlink:href="#m9b170bf083" x="815.572376" y="528.99775" style="fill: #555555; stroke: #555555; stroke-width: 0.8"/>
      </g>
     </g>
     <g id="text_7">
      <!-- 60 -->
      <g style="fill: #555555" transform="translate(809.209876 543.596187) scale(0.1 -0.1)">
       <defs>
        <path id="DejaVuSans-36" d="M 2113 2584 
Q 1688 2584 1439 2293 
Q 1191 2003 1191 1497 
Q 1191 994 1439 701 
Q 1688 409 2113 409 
Q 2538 409 2786 701 
Q 3034 994 3034 1497 
Q 3034 2003 2786 2293 
Q 2538 2584 2113 2584 
z
M 3366 4563 
L 3366 3988 
Q 3128 4100 2886 4159 
Q 2644 4219 2406 4219 
Q 1781 4219 1451 3797 
Q 1122 3375 1075 2522 
Q 1259 2794 1537 2939 
Q 1816 3084 2150 3084 
Q 2853 3084 3261 2657 
Q 3669 2231 3669 1497 
Q 3669 778 3244 343 
Q 2819 -91 2113 -91 
Q 1303 -91 875 529 
Q 447 1150 447 2328 
Q 447 3434 972 4092 
Q 1497 4750 2381 4750 
Q 2619 4750 2861 4703 
Q 3103 4656 3366 4563 
z
" transform="scale(0.015625)"/>
       </defs>
       <use xlink:href="#DejaVuSans-36"/>
       <use xlink:href="#DejaVuSans-30" x="63.623047"/>
      </g>
     </g>
    </g>
    <g id="xtick_8">
     <g id="line2d_15">
      <path d="M 915.91858 528.99775 
L 915.91858 24.71775 
" clip-path="url(#p985ae5498a)" style="fill: none; stroke: #ffffff; stroke-width: 0.8; stroke-linecap: square"/>
     </g>
     <g id="line2d_16">
      <g>
       <use xlink:href="#m9b170bf083" x="915.91858" y="528.99775" style="fill: #555555; stroke: #555555; stroke-width: 0.8"/>
      </g>
     </g>
     <g id="text_8">
      <!-- 70 -->
      <g style="fill: #555555" transform="translate(909.55608 543.596187) scale(0.1 -0.1)">
       <defs>
        <path id="DejaVuSans-37" d="M 525 4666 
L 3525 4666 
L 3525 4397 
L 1831 0 
L 1172 0 
L 2766 4134 
L 525 4134 
L 525 4666 
z
" transform="scale(0.015625)"/>
       </defs>
       <use xlink:href="#DejaVuSans-37"/>
       <use xlink:href="#DejaVuSans-30" x="63.623047"/>
      </g>
     </g>
    </g>
    <g id="text_9">
     <!-- Número de egresos -->
     <g style="fill: #555555" transform="translate(544.748281 559.274) scale(0.12 -0.12)">
      <defs>
       <path id="DejaVuSans-4e" d="M 628 4666 
L 1478 4666 
L 3547 763 
L 3547 4666 
L 4159 4666 
L 4159 0 
L 3309 0 
L 1241 3903 
L 1241 0 
L 628 0 
L 628 4666 
z
" transform="scale(0.015625)"/>
       <path id="DejaVuSans-fa" d="M 544 1381 
L 544 3500 
L 1119 3500 
L 1119 1403 
Q 1119 906 1312 657 
Q 1506 409 1894 409 
Q 2359 409 2629 706 
Q 2900 1003 2900 1516 
L 2900 3500 
L 3475 3500 
L 3475 0 
L 2900 0 
L 2900 538 
Q 2691 219 2414 64 
Q 2138 -91 1772 -91 
Q 1169 -91 856 284 
Q 544 659 544 1381 
z
M 1991 3584 
L 1991 3584 
z
M 2419 5119 
L 3041 5119 
L 2022 3944 
L 1544 3944 
L 2419 5119 
z
" transform="scale(0.015625)"/>
       <path id="DejaVuSans-6d" d="M 3328 2828 
Q 3544 3216 3844 3400 
Q 4144 3584 4550 3584 
Q 5097 3584 5394 3201 
Q 5691 2819 5691 2113 
L 5691 0 
L 5113 0 
L 5113 2094 
Q 5113 2597 4934 2840 
Q 4756 3084 4391 3084 
Q 3944 3084 3684 2787 
Q 3425 2491 3425 1978 
L 3425 0 
L 2847 0 
L 2847 2094 
Q 2847 2600 2669 2842 
Q 2491 3084 2119 3084 
Q 1678 3084 1418 2786 
Q 1159 2488 1159 1978 
L 1159 0 
L 581 0 
L 581 3500 
L 1159 3500 
L 1159 2956 
Q 1356 3278 1631 3431 
Q 1906 3584 2284 3584 
Q 2666 3584 2933 3390 
Q 3200 3197 3328 2828 
z
" transform="scale(0.015625)"/>
       <path id="DejaVuSans-65" d="M 3597 1894 
L 3597 1613 
L 953 1613 
Q 991 1019 1311 708 
Q 1631 397 2203 397 
Q 2534 397 2845 478 
Q 3156 559 3463 722 
L 3463 178 
Q 3153 47 2828 -22 
Q 2503 -91 2169 -91 
Q 1331 -91 842 396 
Q 353 884 353 1716 
Q 353 2575 817 3079 
Q 1281 3584 2069 3584 
Q 2775 3584 3186 3129 
Q 3597 2675 3597 1894 
z
M 3022 2063 
Q 3016 2534 2758 2815 
Q 2500 3097 2075 3097 
Q 1594 3097 1305 2825 
Q 1016 2553 972 2059 
L 3022 2063 
z
" transform="scale(0.015625)"/>
       <path id="DejaVuSans-72" d="M 2631 2963 
Q 2534 3019 2420 3045 
Q 2306 3072 2169 3072 
Q 1681 3072 1420 2755 
Q 1159 2438 1159 1844 
L 1159 0 
L 581 0 
L 581 3500 
L 1159 3500 
L 1159 2956 
Q 1341 3275 1631 3429 
Q 1922 3584 2338 3584 
Q 2397 3584 2469 3576 
Q 2541 3569 2628 3553 
L 2631 2963 
z
" transform="scale(0.015625)"/>
       <path id="DejaVuSans-6f" d="M 1959 3097 
Q 1497 3097 1228 2736 
Q 959 2375 959 1747 
Q 959 1119 1226 758 
Q 1494 397 1959 397 
Q 2419 397 2687 759 
Q 2956 1122 2956 1747 
Q 2956 2369 2687 2733 
Q 2419 3097 1959 3097 
z
M 1959 3584 
Q 2709 3584 3137 3096 
Q 3566 2609 3566 1747 
Q 3566 888 3137 398 
Q 2709 -91 1959 -91 
Q 1206 -91 779 398 
Q 353 888 353 1747 
Q 353 2609 779 3096 
Q 1206 3584 1959 3584 
z
" transform="scale(0.015625)"/>
       <path id="DejaVuSans-20" transform="scale(0.015625)"/>
       <path id="DejaVuSans-64" d="M 2906 2969 
L 2906 4863 
L 3481 4863 
L 3481 0 
L 2906 0 
L 2906 525 
Q 2725 213 2448 61 
Q 2172 -91 1784 -91 
Q 1150 -91 751 415 
Q 353 922 353 1747 
Q 353 2572 751 3078 
Q 1150 3584 1784 3584 
Q 2172 3584 2448 3432 
Q 2725 3281 2906 2969 
z
M 947 1747 
Q 947 1113 1208 752 
Q 1469 391 1925 391 
Q 2381 391 2643 752 
Q 2906 1113 2906 1747 
Q 2906 2381 2643 2742 
Q 2381 3103 1925 3103 
Q 1469 3103 1208 2742 
Q 947 2381 947 1747 
z
" transform="scale(0.015625)"/>
       <path id="DejaVuSans-67" d="M 2906 1791 
Q 2906 2416 2648 2759 
Q 2391 3103 1925 3103 
Q 1463 3103 1205 2759 
Q 947 2416 947 1791 
Q 947 1169 1205 825 
Q 1463 481 1925 481 
Q 2391 481 2648 825 
Q 2906 1169 2906 1791 
z
M 3481 434 
Q 3481 -459 3084 -895 
Q 2688 -1331 1869 -1331 
Q 1566 -1331 1297 -1286 
Q 1028 -1241 775 -1147 
L 775 -588 
Q 1028 -725 1275 -790 
Q 1522 -856 1778 -856 
Q 2344 -856 2625 -561 
Q 2906 -266 2906 331 
L 2906 616 
Q 2728 306 2450 153 
Q 2172 0 1784 0 
Q 1141 0 747 490 
Q 353 981 353 1791 
Q 353 2603 747 3093 
Q 1141 3584 1784 3584 
Q 2172 3584 2450 3431 
Q 2728 3278 2906 2969 
L 2906 3500 
L 3481 3500 
L 3481 434 
z
" transform="scale(0.015625)"/>
       <path id="DejaVuSans-73" d="M 2834 3397 
L 2834 2853 
Q 2591 2978 2328 3040 
Q 2066 3103 1784 3103 
Q 1356 3103 1142 2972 
Q 928 2841 928 2578 
Q 928 2378 1081 2264 
Q 1234 2150 1697 2047 
L 1894 2003 
Q 2506 1872 2764 1633 
Q 3022 1394 3022 966 
Q 3022 478 2636 193 
Q 2250 -91 1575 -91 
Q 1294 -91 989 -36 
Q 684 19 347 128 
L 347 722 
Q 666 556 975 473 
Q 1284 391 1588 391 
Q 1994 391 2212 530 
Q 2431 669 2431 922 
Q 2431 1156 2273 1281 
Q 2116 1406 1581 1522 
L 1381 1569 
Q 847 1681 609 1914 
Q 372 2147 372 2553 
Q 372 3047 722 3315 
Q 1072 3584 1716 3584 
Q 2034 3584 2315 3537 
Q 2597 3491 2834 3397 
z
" transform="scale(0.015625)"/>
      </defs>
      <use xlink:href="#DejaVuSans-4e"/>
      <use xlink:href="#DejaVuSans-fa" x="74.804688"/>
      <use xlink:href="#DejaVuSans-6d" x="138.183594"/>
      <use xlink:href="#DejaVuSans-65" x="235.595703"/>
      <use xlink:href="#DejaVuSans-72" x="297.119141"/>
      <use xlink:href="#DejaVuSans-6f" x="335.982422"/>
      <use xlink:href="#DejaVuSans-20" x="397.164062"/>
      <use xlink:href="#DejaVuSans-64" x="428.951172"/>
      <use xlink:href="#DejaVuSans-65" x="492.427734"/>
      <use xlink:href="#DejaVuSans-20" x="553.951172"/>
      <use xlink:href="#DejaVuSans-65" x="585.738281"/>
      <use xlink:href="#DejaVuSans-67" x="647.261719"/>
      <use xlink:href="#DejaVuSans-72" x="710.738281"/>
      <use xlink:href="#DejaVuSans-65" x="749.601562"/>
      <use xlink:href="#DejaVuSans-73" x="811.125"/>
      <use xlink:href="#DejaVuSans-6f" x="863.224609"/>
      <use xlink:href="#DejaVuSans-73" x="924.40625"/>
     </g>
    </g>
   </g>
   <g id="matplotlib.axis_2">
    <g id="ytick_1">
     <g id="line2d_17">
      <path d="M 213.495156 485.237915 
L 993.185156 485.237915 
" clip-path="url(#p985ae5498a)" style="fill: none; stroke: #ffffff; stroke-width: 0.8; stroke-linecap: square"/>
     </g>
     <g id="line2d_18">
      <defs>
       <path id="m59149498f7" d="M 0 0 
L -3.5 0 
" style="stroke: #555555; stroke-width: 0.8"/>
      </defs>
      <g>
       <use xlink:href="#m59149498f7" x="213.495156" y="485.237915" style="fill: #555555; stroke: #555555; stroke-width: 0.8"/>
      </g>
     </g>
     <g id="text_10">
      <!-- EVALUACIÓN PSIQUIÁTRICA PARA -->
      <g style="fill: #555555" transform="translate(57.952969 484.700025) scale(0.09 -0.09)">
       <defs>
        <path id="DejaVuSans-45" d="M 628 4666 
L 3578 4666 
L 3578 4134 
L 1259 4134 
L 1259 2753 
L 3481 2753 
L 3481 2222 
L 1259 2222 
L 1259 531 
L 3634 531 
L 3634 0 
L 628 0 
L 628 4666 
z
" transform="scale(0.015625)"/>
        <path id="DejaVuSans-56" d="M 1831 0 
L 50 4666 
L 709 4666 
L 2188 738 
L 3669 4666 
L 4325 4666 
L 2547 0 
L 1831 0 
z
" transform="scale(0.015625)"/>
        <path id="DejaVuSans-41" d="M 2188 4044 
L 1331 1722 
L 3047 1722 
L 2188 4044 
z
M 1831 4666 
L 2547 4666 
L 4325 0 
L 3669 0 
L 3244 1197 
L 1141 1197 
L 716 0 
L 50 0 
L 1831 4666 
z
" transform="scale(0.015625)"/>
        <path id="DejaVuSans-4c" d="M 628 4666 
L 1259 4666 
L 1259 531 
L 3531 531 
L 3531 0 
L 628 0 
L 628 4666 
z
" transform="scale(0.015625)"/>
        <path id="DejaVuSans-55" d="M 556 4666 
L 1191 4666 
L 1191 1831 
Q 1191 1081 1462 751 
Q 1734 422 2344 422 
Q 2950 422 3222 751 
Q 3494 1081 3494 1831 
L 3494 4666 
L 4128 4666 
L 4128 1753 
Q 4128 841 3676 375 
Q 3225 -91 2344 -91 
Q 1459 -91 1007 375 
Q 556 841 556 1753 
L 556 4666 
z
" transform="scale(0.015625)"/>
        <path id="DejaVuSans-43" d="M 4122 4306 
L 4122 3641 
Q 3803 3938 3442 4084 
Q 3081 4231 2675 4231 
Q 1875 4231 1450 3742 
Q 1025 3253 1025 2328 
Q 1025 1406 1450 917 
Q 1875 428 2675 428 
Q 3081 428 3442 575 
Q 3803 722 4122 1019 
L 4122 359 
Q 3791 134 3420 21 
Q 3050 -91 2638 -91 
Q 1578 -91 968 557 
Q 359 1206 359 2328 
Q 359 3453 968 4101 
Q 1578 4750 2638 4750 
Q 3056 4750 3426 4639 
Q 3797 4528 4122 4306 
z
" transform="scale(0.015625)"/>
        <path id="DejaVuSans-49" d="M 628 4666 
L 1259 4666 
L 1259 0 
L 628 0 
L 628 4666 
z
" transform="scale(0.015625)"/>
        <path id="DejaVuSans-d3" d="M 2522 4238 
Q 1834 4238 1429 3725 
Q 1025 3213 1025 2328 
Q 1025 1447 1429 934 
Q 1834 422 2522 422 
Q 3209 422 3611 934 
Q 4013 1447 4013 2328 
Q 4013 3213 3611 3725 
Q 3209 4238 2522 4238 
z
M 2522 4750 
Q 3503 4750 4090 4092 
Q 4678 3434 4678 2328 
Q 4678 1225 4090 567 
Q 3503 -91 2522 -91 
Q 1538 -91 948 565 
Q 359 1222 359 2328 
Q 359 3434 948 4092 
Q 1538 4750 2522 4750 
z
M 2694 5935 
L 3272 5935 
L 2559 5110 
L 2081 5110 
L 2694 5935 
z
" transform="scale(0.015625)"/>
        <path id="DejaVuSans-50" d="M 1259 4147 
L 1259 2394 
L 2053 2394 
Q 2494 2394 2734 2622 
Q 2975 2850 2975 3272 
Q 2975 3691 2734 3919 
Q 2494 4147 2053 4147 
L 1259 4147 
z
M 628 4666 
L 2053 4666 
Q 2838 4666 3239 4311 
Q 3641 3956 3641 3272 
Q 3641 2581 3239 2228 
Q 2838 1875 2053 1875 
L 1259 1875 
L 1259 0 
L 628 0 
L 628 4666 
z
" transform="scale(0.015625)"/>
        <path id="DejaVuSans-53" d="M 3425 4513 
L 3425 3897 
Q 3066 4069 2747 4153 
Q 2428 4238 2131 4238 
Q 1616 4238 1336 4038 
Q 1056 3838 1056 3469 
Q 1056 3159 1242 3001 
Q 1428 2844 1947 2747 
L 2328 2669 
Q 3034 2534 3370 2195 
Q 3706 1856 3706 1288 
Q 3706 609 3251 259 
Q 2797 -91 1919 -91 
Q 1588 -91 1214 -16 
Q 841 59 441 206 
L 441 856 
Q 825 641 1194 531 
Q 1563 422 1919 422 
Q 2459 422 2753 634 
Q 3047 847 3047 1241 
Q 3047 1584 2836 1778 
Q 2625 1972 2144 2069 
L 1759 2144 
Q 1053 2284 737 2584 
Q 422 2884 422 3419 
Q 422 4038 858 4394 
Q 1294 4750 2059 4750 
Q 2388 4750 2728 4690 
Q 3069 4631 3425 4513 
z
" transform="scale(0.015625)"/>
        <path id="DejaVuSans-51" d="M 2522 4238 
Q 1834 4238 1429 3725 
Q 1025 3213 1025 2328 
Q 1025 1447 1429 934 
Q 1834 422 2522 422 
Q 3209 422 3611 934 
Q 4013 1447 4013 2328 
Q 4013 3213 3611 3725 
Q 3209 4238 2522 4238 
z
M 3406 84 
L 4238 -825 
L 3475 -825 
L 2784 -78 
Q 2681 -84 2626 -87 
Q 2572 -91 2522 -91 
Q 1538 -91 948 567 
Q 359 1225 359 2328 
Q 359 3434 948 4092 
Q 1538 4750 2522 4750 
Q 3503 4750 4090 4092 
Q 4678 3434 4678 2328 
Q 4678 1516 4351 937 
Q 4025 359 3406 84 
z
" transform="scale(0.015625)"/>
        <path id="DejaVuSans-c1" d="M 2188 4044 
L 1331 1722 
L 3047 1722 
L 2188 4044 
z
M 1831 4666 
L 2547 4666 
L 4325 0 
L 3669 0 
L 3244 1197 
L 1141 1197 
L 716 0 
L 50 0 
L 1831 4666 
z
M 2359 5935 
L 2938 5935 
L 2225 5110 
L 1747 5110 
L 2359 5935 
z
" transform="scale(0.015625)"/>
        <path id="DejaVuSans-54" d="M -19 4666 
L 3928 4666 
L 3928 4134 
L 2272 4134 
L 2272 0 
L 1638 0 
L 1638 4134 
L -19 4134 
L -19 4666 
z
" transform="scale(0.015625)"/>
        <path id="DejaVuSans-52" d="M 2841 2188 
Q 3044 2119 3236 1894 
Q 3428 1669 3622 1275 
L 4263 0 
L 3584 0 
L 2988 1197 
Q 2756 1666 2539 1819 
Q 2322 1972 1947 1972 
L 1259 1972 
L 1259 0 
L 628 0 
L 628 4666 
L 2053 4666 
Q 2853 4666 3247 4331 
Q 3641 3997 3641 3322 
Q 3641 2881 3436 2590 
Q 3231 2300 2841 2188 
z
M 1259 4147 
L 1259 2491 
L 2053 2491 
Q 2509 2491 2742 2702 
Q 2975 2913 2975 3322 
Q 2975 3731 2742 3939 
Q 2509 4147 2053 4147 
L 1259 4147 
z
" transform="scale(0.015625)"/>
       </defs>
       <use xlink:href="#DejaVuSans-45"/>
       <use xlink:href="#DejaVuSans-56" x="63.183594"/>
       <use xlink:href="#DejaVuSans-41" x="125.216797"/>
       <use xlink:href="#DejaVuSans-4c" x="193.625"/>
       <use xlink:href="#DejaVuSans-55" x="244.337891"/>
       <use xlink:href="#DejaVuSans-41" x="317.53125"/>
       <use xlink:href="#DejaVuSans-43" x="384.189453"/>
       <use xlink:href="#DejaVuSans-49" x="454.013672"/>
       <use xlink:href="#DejaVuSans-d3" x="483.505859"/>
       <use xlink:href="#DejaVuSans-4e" x="562.216797"/>
       <use xlink:href="#DejaVuSans-20" x="637.021484"/>
       <use xlink:href="#DejaVuSans-50" x="668.808594"/>
       <use xlink:href="#DejaVuSans-53" x="729.111328"/>
       <use xlink:href="#DejaVuSans-49" x="792.587891"/>
       <use xlink:href="#DejaVuSans-51" x="822.080078"/>
       <use xlink:href="#DejaVuSans-55" x="900.791016"/>
       <use xlink:href="#DejaVuSans-49" x="973.984375"/>
       <use xlink:href="#DejaVuSans-c1" x="1003.476562"/>
       <use xlink:href="#DejaVuSans-54" x="1064.134766"/>
       <use xlink:href="#DejaVuSans-52" x="1125.21875"/>
       <use xlink:href="#DejaVuSans-49" x="1194.701172"/>
       <use xlink:href="#DejaVuSans-43" x="1224.193359"/>
       <use xlink:href="#DejaVuSans-41" x="1294.017578"/>
       <use xlink:href="#DejaVuSans-20" x="1362.425781"/>
       <use xlink:href="#DejaVuSans-50" x="1394.212891"/>
       <use xlink:href="#DejaVuSans-41" x="1448.140625"/>
       <use xlink:href="#DejaVuSans-52" x="1516.548828"/>
       <use xlink:href="#DejaVuSans-41" x="1582.03125"/>
      </g>
      <!-- INTERNAMIENTO -->
      <g style="fill: #555555" transform="translate(131.357812 494.778056) scale(0.09 -0.09)">
       <defs>
        <path id="DejaVuSans-4d" d="M 628 4666 
L 1569 4666 
L 2759 1491 
L 3956 4666 
L 4897 4666 
L 4897 0 
L 4281 0 
L 4281 4097 
L 3078 897 
L 2444 897 
L 1241 4097 
L 1241 0 
L 628 0 
L 628 4666 
z
" transform="scale(0.015625)"/>
        <path id="DejaVuSans-4f" d="M 2522 4238 
Q 1834 4238 1429 3725 
Q 1025 3213 1025 2328 
Q 1025 1447 1429 934 
Q 1834 422 2522 422 
Q 3209 422 3611 934 
Q 4013 1447 4013 2328 
Q 4013 3213 3611 3725 
Q 3209 4238 2522 4238 
z
M 2522 4750 
Q 3503 4750 4090 4092 
Q 4678 3434 4678 2328 
Q 4678 1225 4090 567 
Q 3503 -91 2522 -91 
Q 1538 -91 948 565 
Q 359 1222 359 2328 
Q 359 3434 948 4092 
Q 1538 4750 2522 4750 
z
" transform="scale(0.015625)"/>
       </defs>
       <use xlink:href="#DejaVuSans-49"/>
       <use xlink:href="#DejaVuSans-4e" x="29.492188"/>
       <use xlink:href="#DejaVuSans-54" x="104.296875"/>
       <use xlink:href="#DejaVuSans-45" x="165.380859"/>
       <use xlink:href="#DejaVuSans-52" x="228.564453"/>
       <use xlink:href="#DejaVuSans-4e" x="298.046875"/>
       <use xlink:href="#DejaVuSans-41" x="372.851562"/>
       <use xlink:href="#DejaVuSans-4d" x="441.259766"/>
       <use xlink:href="#DejaVuSans-49" x="527.539062"/>
       <use xlink:href="#DejaVuSans-45" x="557.03125"/>
       <use xlink:href="#DejaVuSans-4e" x="620.214844"/>
       <use xlink:href="#DejaVuSans-54" x="695.019531"/>
       <use xlink:href="#DejaVuSans-4f" x="756.103516"/>
      </g>
     </g>
    </g>
    <g id="ytick_2">
     <g id="line2d_19">
      <path d="M 213.495156 433.142874 
L 993.185156 433.142874 
" clip-path="url(#p985ae5498a)" style="fill: none; stroke: #ffffff; stroke-width: 0.8; stroke-linecap: square"/>
     </g>
     <g id="line2d_20">
      <g>
       <use xlink:href="#m59149498f7" x="213.495156" y="433.142874" style="fill: #555555; stroke: #555555; stroke-width: 0.8"/>
      </g>
     </g>
     <g id="text_11">
      <!-- EXAMEN MICROSCÓPICO DE SANGRE. -->
      <g style="fill: #555555" transform="translate(35.980312 432.207015) scale(0.09 -0.09)">
       <defs>
        <path id="DejaVuSans-58" d="M 403 4666 
L 1081 4666 
L 2241 2931 
L 3406 4666 
L 4084 4666 
L 2584 2425 
L 4184 0 
L 3506 0 
L 2194 1984 
L 872 0 
L 191 0 
L 1856 2491 
L 403 4666 
z
" transform="scale(0.015625)"/>
        <path id="DejaVuSans-44" d="M 1259 4147 
L 1259 519 
L 2022 519 
Q 2988 519 3436 956 
Q 3884 1394 3884 2338 
Q 3884 3275 3436 3711 
Q 2988 4147 2022 4147 
L 1259 4147 
z
M 628 4666 
L 1925 4666 
Q 3281 4666 3915 4102 
Q 4550 3538 4550 2338 
Q 4550 1131 3912 565 
Q 3275 0 1925 0 
L 628 0 
L 628 4666 
z
" transform="scale(0.015625)"/>
        <path id="DejaVuSans-47" d="M 3809 666 
L 3809 1919 
L 2778 1919 
L 2778 2438 
L 4434 2438 
L 4434 434 
Q 4069 175 3628 42 
Q 3188 -91 2688 -91 
Q 1594 -91 976 548 
Q 359 1188 359 2328 
Q 359 3472 976 4111 
Q 1594 4750 2688 4750 
Q 3144 4750 3555 4637 
Q 3966 4525 4313 4306 
L 4313 3634 
Q 3963 3931 3569 4081 
Q 3175 4231 2741 4231 
Q 1884 4231 1454 3753 
Q 1025 3275 1025 2328 
Q 1025 1384 1454 906 
Q 1884 428 2741 428 
Q 3075 428 3337 486 
Q 3600 544 3809 666 
z
" transform="scale(0.015625)"/>
        <path id="DejaVuSans-2e" d="M 684 794 
L 1344 794 
L 1344 0 
L 684 0 
L 684 794 
z
" transform="scale(0.015625)"/>
       </defs>
       <use xlink:href="#DejaVuSans-45"/>
       <use xlink:href="#DejaVuSans-58" x="63.183594"/>
       <use xlink:href="#DejaVuSans-41" x="131.689453"/>
       <use xlink:href="#DejaVuSans-4d" x="200.097656"/>
       <use xlink:href="#DejaVuSans-45" x="286.376953"/>
       <use xlink:href="#DejaVuSans-4e" x="349.560547"/>
       <use xlink:href="#DejaVuSans-20" x="424.365234"/>
       <use xlink:href="#DejaVuSans-4d" x="456.152344"/>
       <use xlink:href="#DejaVuSans-49" x="542.431641"/>
       <use xlink:href="#DejaVuSans-43" x="571.923828"/>
       <use xlink:href="#DejaVuSans-52" x="641.748047"/>
       <use xlink:href="#DejaVuSans-4f" x="711.230469"/>
       <use xlink:href="#DejaVuSans-53" x="789.941406"/>
       <use xlink:href="#DejaVuSans-43" x="853.417969"/>
       <use xlink:href="#DejaVuSans-d3" x="923.242188"/>
       <use xlink:href="#DejaVuSans-50" x="1001.953125"/>
       <use xlink:href="#DejaVuSans-49" x="1062.255859"/>
       <use xlink:href="#DejaVuSans-43" x="1091.748047"/>
       <use xlink:href="#DejaVuSans-4f" x="1161.572266"/>
       <use xlink:href="#DejaVuSans-20" x="1240.283203"/>
       <use xlink:href="#DejaVuSans-44" x="1272.070312"/>
       <use xlink:href="#DejaVuSans-45" x="1349.072266"/>
       <use xlink:href="#DejaVuSans-20" x="1412.255859"/>
       <use xlink:href="#DejaVuSans-53" x="1444.042969"/>
       <use xlink:href="#DejaVuSans-41" x="1509.394531"/>
       <use xlink:href="#DejaVuSans-4e" x="1577.802734"/>
       <use xlink:href="#DejaVuSans-47" x="1652.607422"/>
       <use xlink:href="#DejaVuSans-52" x="1730.097656"/>
       <use xlink:href="#DejaVuSans-45" x="1799.580078"/>
       <use xlink:href="#DejaVuSans-2e" x="1862.763672"/>
      </g>
      <!-- TOXICOLOGÍA -->
      <g style="fill: #555555" transform="translate(144.739687 442.285046) scale(0.09 -0.09)">
       <defs>
        <path id="DejaVuSans-cd" d="M 628 4666 
L 1259 4666 
L 1259 0 
L 628 0 
L 628 4666 
z
M 1119 5935 
L 1697 5935 
L 984 5110 
L 506 5110 
L 1119 5935 
z
" transform="scale(0.015625)"/>
       </defs>
       <use xlink:href="#DejaVuSans-54"/>
       <use xlink:href="#DejaVuSans-4f" x="61.083984"/>
       <use xlink:href="#DejaVuSans-58" x="133.419922"/>
       <use xlink:href="#DejaVuSans-49" x="201.925781"/>
       <use xlink:href="#DejaVuSans-43" x="231.417969"/>
       <use xlink:href="#DejaVuSans-4f" x="301.242188"/>
       <use xlink:href="#DejaVuSans-4c" x="379.953125"/>
       <use xlink:href="#DejaVuSans-4f" x="432.041016"/>
       <use xlink:href="#DejaVuSans-47" x="510.751953"/>
       <use xlink:href="#DejaVuSans-cd" x="588.242188"/>
       <use xlink:href="#DejaVuSans-41" x="617.734375"/>
      </g>
     </g>
    </g>
    <g id="ytick_3">
     <g id="line2d_21">
      <path d="M 213.495156 381.047833 
L 993.185156 381.047833 
" clip-path="url(#p985ae5498a)" style="fill: none; stroke: #ffffff; stroke-width: 0.8; stroke-linecap: square"/>
     </g>
     <g id="line2d_22">
      <g>
       <use xlink:href="#m59149498f7" x="213.495156" y="381.047833" style="fill: #555555; stroke: #555555; stroke-width: 0.8"/>
      </g>
     </g>
     <g id="text_12">
      <!-- DETERMINACIÓN DE ESTADO MENTAL -->
      <g style="fill: #555555" transform="translate(36.805781 374.663739) scale(0.09 -0.09)">
       <use xlink:href="#DejaVuSans-44"/>
       <use xlink:href="#DejaVuSans-45" x="77.001953"/>
       <use xlink:href="#DejaVuSans-54" x="140.185547"/>
       <use xlink:href="#DejaVuSans-45" x="201.269531"/>
       <use xlink:href="#DejaVuSans-52" x="264.453125"/>
       <use xlink:href="#DejaVuSans-4d" x="333.935547"/>
       <use xlink:href="#DejaVuSans-49" x="420.214844"/>
       <use xlink:href="#DejaVuSans-4e" x="449.707031"/>
       <use xlink:href="#DejaVuSans-41" x="524.511719"/>
       <use xlink:href="#DejaVuSans-43" x="591.169922"/>
       <use xlink:href="#DejaVuSans-49" x="660.994141"/>
       <use xlink:href="#DejaVuSans-d3" x="690.486328"/>
       <use xlink:href="#DejaVuSans-4e" x="769.197266"/>
       <use xlink:href="#DejaVuSans-20" x="844.001953"/>
       <use xlink:href="#DejaVuSans-44" x="875.789062"/>
       <use xlink:href="#DejaVuSans-45" x="952.791016"/>
       <use xlink:href="#DejaVuSans-20" x="1015.974609"/>
       <use xlink:href="#DejaVuSans-45" x="1047.761719"/>
       <use xlink:href="#DejaVuSans-53" x="1110.945312"/>
       <use xlink:href="#DejaVuSans-54" x="1174.421875"/>
       <use xlink:href="#DejaVuSans-41" x="1227.755859"/>
       <use xlink:href="#DejaVuSans-44" x="1296.164062"/>
       <use xlink:href="#DejaVuSans-4f" x="1373.166016"/>
       <use xlink:href="#DejaVuSans-20" x="1451.876953"/>
       <use xlink:href="#DejaVuSans-4d" x="1483.664062"/>
       <use xlink:href="#DejaVuSans-45" x="1569.943359"/>
       <use xlink:href="#DejaVuSans-4e" x="1633.126953"/>
       <use xlink:href="#DejaVuSans-54" x="1707.931641"/>
       <use xlink:href="#DejaVuSans-41" x="1761.265625"/>
       <use xlink:href="#DejaVuSans-4c" x="1829.673828"/>
      </g>
      <!-- PSICOLÓGICO, NO ESPECIFICADA DE -->
      <g style="fill: #555555" transform="translate(42.028594 385.560208) scale(0.09 -0.09)">
       <defs>
        <path id="DejaVuSans-2c" d="M 750 794 
L 1409 794 
L 1409 256 
L 897 -744 
L 494 -744 
L 750 256 
L 750 794 
z
" transform="scale(0.015625)"/>
        <path id="DejaVuSans-46" d="M 628 4666 
L 3309 4666 
L 3309 4134 
L 1259 4134 
L 1259 2759 
L 3109 2759 
L 3109 2228 
L 1259 2228 
L 1259 0 
L 628 0 
L 628 4666 
z
" transform="scale(0.015625)"/>
       </defs>
       <use xlink:href="#DejaVuSans-50"/>
       <use xlink:href="#DejaVuSans-53" x="60.302734"/>
       <use xlink:href="#DejaVuSans-49" x="123.779297"/>
       <use xlink:href="#DejaVuSans-43" x="153.271484"/>
       <use xlink:href="#DejaVuSans-4f" x="223.095703"/>
       <use xlink:href="#DejaVuSans-4c" x="301.806641"/>
       <use xlink:href="#DejaVuSans-d3" x="353.894531"/>
       <use xlink:href="#DejaVuSans-47" x="432.605469"/>
       <use xlink:href="#DejaVuSans-49" x="510.095703"/>
       <use xlink:href="#DejaVuSans-43" x="539.587891"/>
       <use xlink:href="#DejaVuSans-4f" x="609.412109"/>
       <use xlink:href="#DejaVuSans-2c" x="688.123047"/>
       <use xlink:href="#DejaVuSans-20" x="719.910156"/>
       <use xlink:href="#DejaVuSans-4e" x="751.697266"/>
       <use xlink:href="#DejaVuSans-4f" x="826.501953"/>
       <use xlink:href="#DejaVuSans-20" x="905.212891"/>
       <use xlink:href="#DejaVuSans-45" x="937"/>
       <use xlink:href="#DejaVuSans-53" x="1000.183594"/>
       <use xlink:href="#DejaVuSans-50" x="1063.660156"/>
       <use xlink:href="#DejaVuSans-45" x="1123.962891"/>
       <use xlink:href="#DejaVuSans-43" x="1187.146484"/>
       <use xlink:href="#DejaVuSans-49" x="1256.970703"/>
       <use xlink:href="#DejaVuSans-46" x="1286.462891"/>
       <use xlink:href="#DejaVuSans-49" x="1343.982422"/>
       <use xlink:href="#DejaVuSans-43" x="1373.474609"/>
       <use xlink:href="#DejaVuSans-41" x="1443.298828"/>
       <use xlink:href="#DejaVuSans-44" x="1511.707031"/>
       <use xlink:href="#DejaVuSans-41" x="1586.958984"/>
       <use xlink:href="#DejaVuSans-20" x="1655.367188"/>
       <use xlink:href="#DejaVuSans-44" x="1687.154297"/>
       <use xlink:href="#DejaVuSans-45" x="1764.15625"/>
      </g>
      <!-- OTRA MANERA -->
      <g style="fill: #555555" transform="translate(140.610937 395.638239) scale(0.09 -0.09)">
       <use xlink:href="#DejaVuSans-4f"/>
       <use xlink:href="#DejaVuSans-54" x="78.710938"/>
       <use xlink:href="#DejaVuSans-52" x="139.794922"/>
       <use xlink:href="#DejaVuSans-41" x="205.277344"/>
       <use xlink:href="#DejaVuSans-20" x="273.685547"/>
       <use xlink:href="#DejaVuSans-4d" x="305.472656"/>
       <use xlink:href="#DejaVuSans-41" x="391.751953"/>
       <use xlink:href="#DejaVuSans-4e" x="460.160156"/>
       <use xlink:href="#DejaVuSans-45" x="534.964844"/>
       <use xlink:href="#DejaVuSans-52" x="598.148438"/>
       <use xlink:href="#DejaVuSans-41" x="663.630859"/>
      </g>
     </g>
    </g>
    <g id="ytick_4">
     <g id="line2d_23">
      <path d="M 213.495156 328.952791 
L 993.185156 328.952791 
" clip-path="url(#p985ae5498a)" style="fill: none; stroke: #ffffff; stroke-width: 0.8; stroke-linecap: square"/>
     </g>
     <g id="line2d_24">
      <g>
       <use xlink:href="#m59149498f7" x="213.495156" y="328.952791" style="fill: #555555; stroke: #555555; stroke-width: 0.8"/>
      </g>
     </g>
     <g id="text_13">
      <!-- OTRA CONSULTA -->
      <g style="fill: #555555" transform="translate(131.866875 332.372088) scale(0.09 -0.09)">
       <use xlink:href="#DejaVuSans-4f"/>
       <use xlink:href="#DejaVuSans-54" x="78.710938"/>
       <use xlink:href="#DejaVuSans-52" x="139.794922"/>
       <use xlink:href="#DejaVuSans-41" x="205.277344"/>
       <use xlink:href="#DejaVuSans-20" x="273.685547"/>
       <use xlink:href="#DejaVuSans-43" x="305.472656"/>
       <use xlink:href="#DejaVuSans-4f" x="375.296875"/>
       <use xlink:href="#DejaVuSans-4e" x="454.007812"/>
       <use xlink:href="#DejaVuSans-53" x="528.8125"/>
       <use xlink:href="#DejaVuSans-55" x="592.289062"/>
       <use xlink:href="#DejaVuSans-4c" x="665.482422"/>
       <use xlink:href="#DejaVuSans-54" x="707.445312"/>
       <use xlink:href="#DejaVuSans-41" x="760.779297"/>
      </g>
     </g>
    </g>
    <g id="ytick_5">
     <g id="line2d_25">
      <path d="M 213.495156 276.85775 
L 993.185156 276.85775 
" clip-path="url(#p985ae5498a)" style="fill: none; stroke: #ffffff; stroke-width: 0.8; stroke-linecap: square"/>
     </g>
     <g id="line2d_26">
      <g>
       <use xlink:href="#m59149498f7" x="213.495156" y="276.85775" style="fill: #555555; stroke: #555555; stroke-width: 0.8"/>
      </g>
     </g>
     <g id="text_14">
      <!-- OTRAS PRUEBAS Y EVALUACIÓN -->
      <g style="fill: #555555" transform="translate(62.738437 275.921891) scale(0.09 -0.09)">
       <defs>
        <path id="DejaVuSans-42" d="M 1259 2228 
L 1259 519 
L 2272 519 
Q 2781 519 3026 730 
Q 3272 941 3272 1375 
Q 3272 1813 3026 2020 
Q 2781 2228 2272 2228 
L 1259 2228 
z
M 1259 4147 
L 1259 2741 
L 2194 2741 
Q 2656 2741 2882 2914 
Q 3109 3088 3109 3444 
Q 3109 3797 2882 3972 
Q 2656 4147 2194 4147 
L 1259 4147 
z
M 628 4666 
L 2241 4666 
Q 2963 4666 3353 4366 
Q 3744 4066 3744 3513 
Q 3744 3084 3544 2831 
Q 3344 2578 2956 2516 
Q 3422 2416 3680 2098 
Q 3938 1781 3938 1306 
Q 3938 681 3513 340 
Q 3088 0 2303 0 
L 628 0 
L 628 4666 
z
" transform="scale(0.015625)"/>
        <path id="DejaVuSans-59" d="M -13 4666 
L 666 4666 
L 1959 2747 
L 3244 4666 
L 3922 4666 
L 2272 2222 
L 2272 0 
L 1638 0 
L 1638 2222 
L -13 4666 
z
" transform="scale(0.015625)"/>
       </defs>
       <use xlink:href="#DejaVuSans-4f"/>
       <use xlink:href="#DejaVuSans-54" x="78.710938"/>
       <use xlink:href="#DejaVuSans-52" x="139.794922"/>
       <use xlink:href="#DejaVuSans-41" x="205.277344"/>
       <use xlink:href="#DejaVuSans-53" x="273.685547"/>
       <use xlink:href="#DejaVuSans-20" x="337.162109"/>
       <use xlink:href="#DejaVuSans-50" x="368.949219"/>
       <use xlink:href="#DejaVuSans-52" x="429.251953"/>
       <use xlink:href="#DejaVuSans-55" x="498.734375"/>
       <use xlink:href="#DejaVuSans-45" x="571.927734"/>
       <use xlink:href="#DejaVuSans-42" x="635.111328"/>
       <use xlink:href="#DejaVuSans-41" x="703.714844"/>
       <use xlink:href="#DejaVuSans-53" x="772.123047"/>
       <use xlink:href="#DejaVuSans-20" x="835.599609"/>
       <use xlink:href="#DejaVuSans-59" x="867.386719"/>
       <use xlink:href="#DejaVuSans-20" x="928.470703"/>
       <use xlink:href="#DejaVuSans-45" x="960.257812"/>
       <use xlink:href="#DejaVuSans-56" x="1023.441406"/>
       <use xlink:href="#DejaVuSans-41" x="1085.474609"/>
       <use xlink:href="#DejaVuSans-4c" x="1153.882812"/>
       <use xlink:href="#DejaVuSans-55" x="1204.595703"/>
       <use xlink:href="#DejaVuSans-41" x="1277.789062"/>
       <use xlink:href="#DejaVuSans-43" x="1344.447266"/>
       <use xlink:href="#DejaVuSans-49" x="1414.271484"/>
       <use xlink:href="#DejaVuSans-d3" x="1443.763672"/>
       <use xlink:href="#DejaVuSans-4e" x="1522.474609"/>
      </g>
      <!-- PSICOLÓGICAS -->
      <g style="fill: #555555" transform="translate(139.774219 285.999922) scale(0.09 -0.09)">
       <use xlink:href="#DejaVuSans-50"/>
       <use xlink:href="#DejaVuSans-53" x="60.302734"/>
       <use xlink:href="#DejaVuSans-49" x="123.779297"/>
       <use xlink:href="#DejaVuSans-43" x="153.271484"/>
       <use xlink:href="#DejaVuSans-4f" x="223.095703"/>
       <use xlink:href="#DejaVuSans-4c" x="301.806641"/>
       <use xlink:href="#DejaVuSans-d3" x="353.894531"/>
       <use xlink:href="#DejaVuSans-47" x="432.605469"/>
       <use xlink:href="#DejaVuSans-49" x="510.095703"/>
       <use xlink:href="#DejaVuSans-43" x="539.587891"/>
       <use xlink:href="#DejaVuSans-41" x="609.412109"/>
       <use xlink:href="#DejaVuSans-53" x="677.820312"/>
      </g>
     </g>
    </g>
    <g id="ytick_6">
     <g id="line2d_27">
      <path d="M 213.495156 224.762709 
L 993.185156 224.762709 
" clip-path="url(#p985ae5498a)" style="fill: none; stroke: #ffffff; stroke-width: 0.8; stroke-linecap: square"/>
     </g>
     <g id="line2d_28">
      <g>
       <use xlink:href="#m59149498f7" x="213.495156" y="224.762709" style="fill: #555555; stroke: #555555; stroke-width: 0.8"/>
      </g>
     </g>
     <g id="text_15">
      <!-- DETERMINACIÓN DE ESTADO MENTAL -->
      <g style="fill: #555555" transform="translate(36.805781 223.428881) scale(0.09 -0.09)">
       <use xlink:href="#DejaVuSans-44"/>
       <use xlink:href="#DejaVuSans-45" x="77.001953"/>
       <use xlink:href="#DejaVuSans-54" x="140.185547"/>
       <use xlink:href="#DejaVuSans-45" x="201.269531"/>
       <use xlink:href="#DejaVuSans-52" x="264.453125"/>
       <use xlink:href="#DejaVuSans-4d" x="333.935547"/>
       <use xlink:href="#DejaVuSans-49" x="420.214844"/>
       <use xlink:href="#DejaVuSans-4e" x="449.707031"/>
       <use xlink:href="#DejaVuSans-41" x="524.511719"/>
       <use xlink:href="#DejaVuSans-43" x="591.169922"/>
       <use xlink:href="#DejaVuSans-49" x="660.994141"/>
       <use xlink:href="#DejaVuSans-d3" x="690.486328"/>
       <use xlink:href="#DejaVuSans-4e" x="769.197266"/>
       <use xlink:href="#DejaVuSans-20" x="844.001953"/>
       <use xlink:href="#DejaVuSans-44" x="875.789062"/>
       <use xlink:href="#DejaVuSans-45" x="952.791016"/>
       <use xlink:href="#DejaVuSans-20" x="1015.974609"/>
       <use xlink:href="#DejaVuSans-45" x="1047.761719"/>
       <use xlink:href="#DejaVuSans-53" x="1110.945312"/>
       <use xlink:href="#DejaVuSans-54" x="1174.421875"/>
       <use xlink:href="#DejaVuSans-41" x="1227.755859"/>
       <use xlink:href="#DejaVuSans-44" x="1296.164062"/>
       <use xlink:href="#DejaVuSans-4f" x="1373.166016"/>
       <use xlink:href="#DejaVuSans-20" x="1451.876953"/>
       <use xlink:href="#DejaVuSans-4d" x="1483.664062"/>
       <use xlink:href="#DejaVuSans-45" x="1569.943359"/>
       <use xlink:href="#DejaVuSans-4e" x="1633.126953"/>
       <use xlink:href="#DejaVuSans-54" x="1707.931641"/>
       <use xlink:href="#DejaVuSans-41" x="1761.265625"/>
       <use xlink:href="#DejaVuSans-4c" x="1829.673828"/>
      </g>
      <!-- PSIQUIÁTRICO -->
      <g style="fill: #555555" transform="translate(143.139375 234.462037) scale(0.09 -0.09)">
       <use xlink:href="#DejaVuSans-50"/>
       <use xlink:href="#DejaVuSans-53" x="60.302734"/>
       <use xlink:href="#DejaVuSans-49" x="123.779297"/>
       <use xlink:href="#DejaVuSans-51" x="153.271484"/>
       <use xlink:href="#DejaVuSans-55" x="231.982422"/>
       <use xlink:href="#DejaVuSans-49" x="305.175781"/>
       <use xlink:href="#DejaVuSans-c1" x="334.667969"/>
       <use xlink:href="#DejaVuSans-54" x="395.326172"/>
       <use xlink:href="#DejaVuSans-52" x="456.410156"/>
       <use xlink:href="#DejaVuSans-49" x="525.892578"/>
       <use xlink:href="#DejaVuSans-43" x="555.384766"/>
       <use xlink:href="#DejaVuSans-4f" x="625.208984"/>
      </g>
     </g>
    </g>
    <g id="ytick_7">
     <g id="line2d_29">
      <path d="M 213.495156 172.667667 
L 993.185156 172.667667 
" clip-path="url(#p985ae5498a)" style="fill: none; stroke: #ffffff; stroke-width: 0.8; stroke-linecap: square"/>
     </g>
     <g id="line2d_30">
      <g>
       <use xlink:href="#m59149498f7" x="213.495156" y="172.667667" style="fill: #555555; stroke: #555555; stroke-width: 0.8"/>
      </g>
     </g>
     <g id="text_16">
      <!-- CONSULTA NO ESPECIFICADA DE OTRA -->
      <g style="fill: #555555" transform="translate(32.196094 171.731808) scale(0.09 -0.09)">
       <use xlink:href="#DejaVuSans-43"/>
       <use xlink:href="#DejaVuSans-4f" x="69.824219"/>
       <use xlink:href="#DejaVuSans-4e" x="148.535156"/>
       <use xlink:href="#DejaVuSans-53" x="223.339844"/>
       <use xlink:href="#DejaVuSans-55" x="286.816406"/>
       <use xlink:href="#DejaVuSans-4c" x="360.009766"/>
       <use xlink:href="#DejaVuSans-54" x="401.972656"/>
       <use xlink:href="#DejaVuSans-41" x="455.306641"/>
       <use xlink:href="#DejaVuSans-20" x="523.714844"/>
       <use xlink:href="#DejaVuSans-4e" x="555.501953"/>
       <use xlink:href="#DejaVuSans-4f" x="630.306641"/>
       <use xlink:href="#DejaVuSans-20" x="709.017578"/>
       <use xlink:href="#DejaVuSans-45" x="740.804688"/>
       <use xlink:href="#DejaVuSans-53" x="803.988281"/>
       <use xlink:href="#DejaVuSans-50" x="867.464844"/>
       <use xlink:href="#DejaVuSans-45" x="927.767578"/>
       <use xlink:href="#DejaVuSans-43" x="990.951172"/>
       <use xlink:href="#DejaVuSans-49" x="1060.775391"/>
       <use xlink:href="#DejaVuSans-46" x="1090.267578"/>
       <use xlink:href="#DejaVuSans-49" x="1147.787109"/>
       <use xlink:href="#DejaVuSans-43" x="1177.279297"/>
       <use xlink:href="#DejaVuSans-41" x="1247.103516"/>
       <use xlink:href="#DejaVuSans-44" x="1315.511719"/>
       <use xlink:href="#DejaVuSans-41" x="1390.763672"/>
       <use xlink:href="#DejaVuSans-20" x="1459.171875"/>
       <use xlink:href="#DejaVuSans-44" x="1490.958984"/>
       <use xlink:href="#DejaVuSans-45" x="1567.960938"/>
       <use xlink:href="#DejaVuSans-20" x="1631.144531"/>
       <use xlink:href="#DejaVuSans-4f" x="1662.931641"/>
       <use xlink:href="#DejaVuSans-54" x="1741.642578"/>
       <use xlink:href="#DejaVuSans-52" x="1802.726562"/>
       <use xlink:href="#DejaVuSans-41" x="1868.208984"/>
      </g>
      <!-- MANERA -->
      <g style="fill: #555555" transform="translate(168.103125 181.809839) scale(0.09 -0.09)">
       <use xlink:href="#DejaVuSans-4d"/>
       <use xlink:href="#DejaVuSans-41" x="86.279297"/>
       <use xlink:href="#DejaVuSans-4e" x="154.6875"/>
       <use xlink:href="#DejaVuSans-45" x="229.492188"/>
       <use xlink:href="#DejaVuSans-52" x="292.675781"/>
       <use xlink:href="#DejaVuSans-41" x="358.158203"/>
      </g>
     </g>
    </g>
    <g id="ytick_8">
     <g id="line2d_31">
      <path d="M 213.495156 120.572626 
L 993.185156 120.572626 
" clip-path="url(#p985ae5498a)" style="fill: none; stroke: #ffffff; stroke-width: 0.8; stroke-linecap: square"/>
     </g>
     <g id="line2d_32">
      <g>
       <use xlink:href="#m59149498f7" x="213.495156" y="120.572626" style="fill: #555555; stroke: #555555; stroke-width: 0.8"/>
      </g>
     </g>
     <g id="text_17">
      <!-- EXAMEN MICROSCÓPICO DE SANGRE. OTRO -->
      <g style="fill: #555555" transform="translate(7.2 119.636767) scale(0.09 -0.09)">
       <use xlink:href="#DejaVuSans-45"/>
       <use xlink:href="#DejaVuSans-58" x="63.183594"/>
       <use xlink:href="#DejaVuSans-41" x="131.689453"/>
       <use xlink:href="#DejaVuSans-4d" x="200.097656"/>
       <use xlink:href="#DejaVuSans-45" x="286.376953"/>
       <use xlink:href="#DejaVuSans-4e" x="349.560547"/>
       <use xlink:href="#DejaVuSans-20" x="424.365234"/>
       <use xlink:href="#DejaVuSans-4d" x="456.152344"/>
       <use xlink:href="#DejaVuSans-49" x="542.431641"/>
       <use xlink:href="#DejaVuSans-43" x="571.923828"/>
       <use xlink:href="#DejaVuSans-52" x="641.748047"/>
       <use xlink:href="#DejaVuSans-4f" x="711.230469"/>
       <use xlink:href="#DejaVuSans-53" x="789.941406"/>
       <use xlink:href="#DejaVuSans-43" x="853.417969"/>
       <use xlink:href="#DejaVuSans-d3" x="923.242188"/>
       <use xlink:href="#DejaVuSans-50" x="1001.953125"/>
       <use xlink:href="#DejaVuSans-49" x="1062.255859"/>
       <use xlink:href="#DejaVuSans-43" x="1091.748047"/>
       <use xlink:href="#DejaVuSans-4f" x="1161.572266"/>
       <use xlink:href="#DejaVuSans-20" x="1240.283203"/>
       <use xlink:href="#DejaVuSans-44" x="1272.070312"/>
       <use xlink:href="#DejaVuSans-45" x="1349.072266"/>
       <use xlink:href="#DejaVuSans-20" x="1412.255859"/>
       <use xlink:href="#DejaVuSans-53" x="1444.042969"/>
       <use xlink:href="#DejaVuSans-41" x="1509.394531"/>
       <use xlink:href="#DejaVuSans-4e" x="1577.802734"/>
       <use xlink:href="#DejaVuSans-47" x="1652.607422"/>
       <use xlink:href="#DejaVuSans-52" x="1730.097656"/>
       <use xlink:href="#DejaVuSans-45" x="1799.580078"/>
       <use xlink:href="#DejaVuSans-2e" x="1862.763672"/>
       <use xlink:href="#DejaVuSans-20" x="1894.550781"/>
       <use xlink:href="#DejaVuSans-4f" x="1926.337891"/>
       <use xlink:href="#DejaVuSans-54" x="2005.048828"/>
       <use xlink:href="#DejaVuSans-52" x="2066.132812"/>
       <use xlink:href="#DejaVuSans-4f" x="2135.615234"/>
      </g>
      <!-- EXAMEN MICROSCÓPICO -->
      <g style="fill: #555555" transform="translate(94.864219 129.714798) scale(0.09 -0.09)">
       <use xlink:href="#DejaVuSans-45"/>
       <use xlink:href="#DejaVuSans-58" x="63.183594"/>
       <use xlink:href="#DejaVuSans-41" x="131.689453"/>
       <use xlink:href="#DejaVuSans-4d" x="200.097656"/>
       <use xlink:href="#DejaVuSans-45" x="286.376953"/>
       <use xlink:href="#DejaVuSans-4e" x="349.560547"/>
       <use xlink:href="#DejaVuSans-20" x="424.365234"/>
       <use xlink:href="#DejaVuSans-4d" x="456.152344"/>
       <use xlink:href="#DejaVuSans-49" x="542.431641"/>
       <use xlink:href="#DejaVuSans-43" x="571.923828"/>
       <use xlink:href="#DejaVuSans-52" x="641.748047"/>
       <use xlink:href="#DejaVuSans-4f" x="711.230469"/>
       <use xlink:href="#DejaVuSans-53" x="789.941406"/>
       <use xlink:href="#DejaVuSans-43" x="853.417969"/>
       <use xlink:href="#DejaVuSans-d3" x="923.242188"/>
       <use xlink:href="#DejaVuSans-50" x="1001.953125"/>
       <use xlink:href="#DejaVuSans-49" x="1062.255859"/>
       <use xlink:href="#DejaVuSans-43" x="1091.748047"/>
       <use xlink:href="#DejaVuSans-4f" x="1161.572266"/>
      </g>
     </g>
    </g>
    <g id="ytick_9">
     <g id="line2d_33">
      <path d="M 213.495156 68.477585 
L 993.185156 68.477585 
" clip-path="url(#p985ae5498a)" style="fill: none; stroke: #ffffff; stroke-width: 0.8; stroke-linecap: square"/>
     </g>
     <g id="line2d_34">
      <g>
       <use xlink:href="#m59149498f7" x="213.495156" y="68.477585" style="fill: #555555; stroke: #555555; stroke-width: 0.8"/>
      </g>
     </g>
     <g id="text_18">
      <!-- CONSULTA PSIQUIÁTRICA RUTINARIA, NO -->
      <g style="fill: #555555" transform="translate(22.725 67.939694) scale(0.09 -0.09)">
       <use xlink:href="#DejaVuSans-43"/>
       <use xlink:href="#DejaVuSans-4f" x="69.824219"/>
       <use xlink:href="#DejaVuSans-4e" x="148.535156"/>
       <use xlink:href="#DejaVuSans-53" x="223.339844"/>
       <use xlink:href="#DejaVuSans-55" x="286.816406"/>
       <use xlink:href="#DejaVuSans-4c" x="360.009766"/>
       <use xlink:href="#DejaVuSans-54" x="401.972656"/>
       <use xlink:href="#DejaVuSans-41" x="455.306641"/>
       <use xlink:href="#DejaVuSans-20" x="523.714844"/>
       <use xlink:href="#DejaVuSans-50" x="555.501953"/>
       <use xlink:href="#DejaVuSans-53" x="615.804688"/>
       <use xlink:href="#DejaVuSans-49" x="679.28125"/>
       <use xlink:href="#DejaVuSans-51" x="708.773438"/>
       <use xlink:href="#DejaVuSans-55" x="787.484375"/>
       <use xlink:href="#DejaVuSans-49" x="860.677734"/>
       <use xlink:href="#DejaVuSans-c1" x="890.169922"/>
       <use xlink:href="#DejaVuSans-54" x="950.828125"/>
       <use xlink:href="#DejaVuSans-52" x="1011.912109"/>
       <use xlink:href="#DejaVuSans-49" x="1081.394531"/>
       <use xlink:href="#DejaVuSans-43" x="1110.886719"/>
       <use xlink:href="#DejaVuSans-41" x="1180.710938"/>
       <use xlink:href="#DejaVuSans-20" x="1249.119141"/>
       <use xlink:href="#DejaVuSans-52" x="1280.90625"/>
       <use xlink:href="#DejaVuSans-55" x="1350.388672"/>
       <use xlink:href="#DejaVuSans-54" x="1423.582031"/>
       <use xlink:href="#DejaVuSans-49" x="1484.666016"/>
       <use xlink:href="#DejaVuSans-4e" x="1514.158203"/>
       <use xlink:href="#DejaVuSans-41" x="1588.962891"/>
       <use xlink:href="#DejaVuSans-52" x="1657.371094"/>
       <use xlink:href="#DejaVuSans-49" x="1726.853516"/>
       <use xlink:href="#DejaVuSans-41" x="1756.345703"/>
       <use xlink:href="#DejaVuSans-2c" x="1824.753906"/>
       <use xlink:href="#DejaVuSans-20" x="1856.541016"/>
       <use xlink:href="#DejaVuSans-4e" x="1888.328125"/>
       <use xlink:href="#DejaVuSans-4f" x="1963.132812"/>
      </g>
      <!-- ESPECIFICADA DE OTRA MANERA -->
      <g style="fill: #555555" transform="translate(57.618281 78.017725) scale(0.09 -0.09)">
       <use xlink:href="#DejaVuSans-45"/>
       <use xlink:href="#DejaVuSans-53" x="63.183594"/>
       <use xlink:href="#DejaVuSans-50" x="126.660156"/>
       <use xlink:href="#DejaVuSans-45" x="186.962891"/>
       <use xlink:href="#DejaVuSans-43" x="250.146484"/>
       <use xlink:href="#DejaVuSans-49" x="319.970703"/>
       <use xlink:href="#DejaVuSans-46" x="349.462891"/>
       <use xlink:href="#DejaVuSans-49" x="406.982422"/>
       <use xlink:href="#DejaVuSans-43" x="436.474609"/>
       <use xlink:href="#DejaVuSans-41" x="506.298828"/>
       <use xlink:href="#DejaVuSans-44" x="574.707031"/>
       <use xlink:href="#DejaVuSans-41" x="649.958984"/>
       <use xlink:href="#DejaVuSans-20" x="718.367188"/>
       <use xlink:href="#DejaVuSans-44" x="750.154297"/>
       <use xlink:href="#DejaVuSans-45" x="827.15625"/>
       <use xlink:href="#DejaVuSans-20" x="890.339844"/>
       <use xlink:href="#DejaVuSans-4f" x="922.126953"/>
       <use xlink:href="#DejaVuSans-54" x="1000.837891"/>
       <use xlink:href="#DejaVuSans-52" x="1061.921875"/>
       <use xlink:href="#DejaVuSans-41" x="1127.404297"/>
       <use xlink:href="#DejaVuSans-20" x="1195.8125"/>
       <use xlink:href="#DejaVuSans-4d" x="1227.599609"/>
       <use xlink:href="#DejaVuSans-41" x="1313.878906"/>
       <use xlink:href="#DejaVuSans-4e" x="1382.287109"/>
       <use xlink:href="#DejaVuSans-45" x="1457.091797"/>
       <use xlink:href="#DejaVuSans-52" x="1520.275391"/>
       <use xlink:href="#DejaVuSans-41" x="1585.757812"/>
      </g>
     </g>
    </g>
   </g>
   <g id="patch_3">
    <path d="M 213.495156 506.075932 
L 223.529777 506.075932 
L 223.529777 464.399899 
L 213.495156 464.399899 
z
" clip-path="url(#p985ae5498a)" style="fill: #1f77b4; opacity: 0.65; stroke: #000000; stroke-width: 0.5; stroke-linejoin: miter"/>
   </g>
   <g id="patch_4">
    <path d="M 213.495156 453.98089 
L 223.529777 453.98089 
L 223.529777 412.304857 
L 213.495156 412.304857 
z
" clip-path="url(#p985ae5498a)" style="fill: #1f77b4; opacity: 0.65; stroke: #000000; stroke-width: 0.5; stroke-linejoin: miter"/>
   </g>
   <g id="patch_5">
    <path d="M 213.495156 401.885849 
L 233.564397 401.885849 
L 233.564397 360.209816 
L 213.495156 360.209816 
z
" clip-path="url(#p985ae5498a)" style="fill: #1f77b4; opacity: 0.65; stroke: #000000; stroke-width: 0.5; stroke-linejoin: miter"/>
   </g>
   <g id="patch_6">
    <path d="M 213.495156 349.790808 
L 243.599017 349.790808 
L 243.599017 308.114775 
L 213.495156 308.114775 
z
" clip-path="url(#p985ae5498a)" style="fill: #1f77b4; opacity: 0.65; stroke: #000000; stroke-width: 0.5; stroke-linejoin: miter"/>
   </g>
   <g id="patch_7">
    <path d="M 213.495156 297.695767 
L 243.599017 297.695767 
L 243.599017 256.019733 
L 213.495156 256.019733 
z
" clip-path="url(#p985ae5498a)" style="fill: #1f77b4; opacity: 0.65; stroke: #000000; stroke-width: 0.5; stroke-linejoin: miter"/>
   </g>
   <g id="patch_8">
    <path d="M 213.495156 245.600725 
L 333.9106 245.600725 
L 333.9106 203.924692 
L 213.495156 203.924692 
z
" clip-path="url(#p985ae5498a)" style="fill: #1f77b4; opacity: 0.65; stroke: #000000; stroke-width: 0.5; stroke-linejoin: miter"/>
   </g>
   <g id="patch_9">
    <path d="M 213.495156 193.505684 
L 343.945221 193.505684 
L 343.945221 151.829651 
L 213.495156 151.829651 
z
" clip-path="url(#p985ae5498a)" style="fill: #1f77b4; opacity: 0.65; stroke: #000000; stroke-width: 0.5; stroke-linejoin: miter"/>
   </g>
   <g id="patch_10">
    <path d="M 213.495156 141.410643 
L 394.118322 141.410643 
L 394.118322 99.73461 
L 213.495156 99.73461 
z
" clip-path="url(#p985ae5498a)" style="fill: #1f77b4; opacity: 0.65; stroke: #000000; stroke-width: 0.5; stroke-linejoin: miter"/>
   </g>
   <g id="patch_11">
    <path d="M 213.495156 89.315601 
L 956.057061 89.315601 
L 956.057061 47.639568 
L 213.495156 47.639568 
z
" clip-path="url(#p985ae5498a)" style="fill: #1f77b4; opacity: 0.65; stroke: #000000; stroke-width: 0.5; stroke-linejoin: miter"/>
   </g>
   <g id="patch_12">
    <path d="M 213.495156 528.99775 
L 213.495156 24.71775 
" style="fill: none; stroke: #ffffff; stroke-linejoin: miter; stroke-linecap: square"/>
   </g>
   <g id="patch_13">
    <path d="M 993.185156 528.99775 
L 993.185156 24.71775 
" style="fill: none; stroke: #ffffff; stroke-linejoin: miter; stroke-linecap: square"/>
   </g>
   <g id="patch_14">
    <path d="M 213.495156 528.99775 
L 993.185156 528.99775 
" style="fill: none; stroke: #ffffff; stroke-linejoin: miter; stroke-linecap: square"/>
   </g>
   <g id="patch_15">
    <path d="M 213.495156 24.71775 
L 993.185156 24.71775 
" style="fill: none; stroke: #ffffff; stroke-linejoin: miter; stroke-linecap: square"/>
   </g>
   <g id="text_19">
    <!-- 1 -->
    <g transform="translate(226.529777 487.99729) scale(0.1 -0.1)">
     <use xlink:href="#DejaVuSans-31"/>
    </g>
   </g>
   <g id="text_20">
    <!-- 1 -->
    <g transform="translate(226.529777 435.902249) scale(0.1 -0.1)">
     <use xlink:href="#DejaVuSans-31"/>
    </g>
   </g>
   <g id="text_21">
    <!-- 2 -->
    <g transform="translate(236.564397 383.807208) scale(0.1 -0.1)">
     <use xlink:href="#DejaVuSans-32"/>
    </g>
   </g>
   <g id="text_22">
    <!-- 3 -->
    <g transform="translate(246.599017 331.712166) scale(0.1 -0.1)">
     <use xlink:href="#DejaVuSans-33"/>
    </g>
   </g>
   <g id="text_23">
    <!-- 3 -->
    <g transform="translate(246.599017 279.617125) scale(0.1 -0.1)">
     <use xlink:href="#DejaVuSans-33"/>
    </g>
   </g>
   <g id="text_24">
    <!-- 12 -->
    <g transform="translate(336.9106 227.522084) scale(0.1 -0.1)">
     <use xlink:href="#DejaVuSans-31"/>
     <use xlink:href="#DejaVuSans-32" x="63.623047"/>
    </g>
   </g>
   <g id="text_25">
    <!-- 13 -->
    <g transform="translate(346.945221 175.427042) scale(0.1 -0.1)">
     <use xlink:href="#DejaVuSans-31"/>
     <use xlink:href="#DejaVuSans-33" x="63.623047"/>
    </g>
   </g>
   <g id="text_26">
    <!-- 18 -->
    <g transform="translate(397.118322 123.332001) scale(0.1 -0.1)">
     <defs>
      <path id="DejaVuSans-38" d="M 2034 2216 
Q 1584 2216 1326 1975 
Q 1069 1734 1069 1313 
Q 1069 891 1326 650 
Q 1584 409 2034 409 
Q 2484 409 2743 651 
Q 3003 894 3003 1313 
Q 3003 1734 2745 1975 
Q 2488 2216 2034 2216 
z
M 1403 2484 
Q 997 2584 770 2862 
Q 544 3141 544 3541 
Q 544 4100 942 4425 
Q 1341 4750 2034 4750 
Q 2731 4750 3128 4425 
Q 3525 4100 3525 3541 
Q 3525 3141 3298 2862 
Q 3072 2584 2669 2484 
Q 3125 2378 3379 2068 
Q 3634 1759 3634 1313 
Q 3634 634 3220 271 
Q 2806 -91 2034 -91 
Q 1263 -91 848 271 
Q 434 634 434 1313 
Q 434 1759 690 2068 
Q 947 2378 1403 2484 
z
M 1172 3481 
Q 1172 3119 1398 2916 
Q 1625 2713 2034 2713 
Q 2441 2713 2670 2916 
Q 2900 3119 2900 3481 
Q 2900 3844 2670 4047 
Q 2441 4250 2034 4250 
Q 1625 4250 1398 4047 
Q 1172 3844 1172 3481 
z
" transform="scale(0.015625)"/>
     </defs>
     <use xlink:href="#DejaVuSans-31"/>
     <use xlink:href="#DejaVuSans-38" x="63.623047"/>
    </g>
   </g>
   <g id="text_27">
    <!-- 74 -->
    <g transform="translate(959.057061 71.23696) scale(0.1 -0.1)">
     <use xlink:href="#DejaVuSans-37"/>
     <use xlink:href="#DejaVuSans-34" x="63.623047"/>
    </g>
   </g>
   <g id="text_28">
    <!-- Procedimientos de diagnóstico -->
    <g transform="translate(492.937156 18.71775) scale(0.144 -0.144)">
     <defs>
      <path id="DejaVuSans-63" d="M 3122 3366 
L 3122 2828 
Q 2878 2963 2633 3030 
Q 2388 3097 2138 3097 
Q 1578 3097 1268 2742 
Q 959 2388 959 1747 
Q 959 1106 1268 751 
Q 1578 397 2138 397 
Q 2388 397 2633 464 
Q 2878 531 3122 666 
L 3122 134 
Q 2881 22 2623 -34 
Q 2366 -91 2075 -91 
Q 1284 -91 818 406 
Q 353 903 353 1747 
Q 353 2603 823 3093 
Q 1294 3584 2113 3584 
Q 2378 3584 2631 3529 
Q 2884 3475 3122 3366 
z
" transform="scale(0.015625)"/>
      <path id="DejaVuSans-69" d="M 603 3500 
L 1178 3500 
L 1178 0 
L 603 0 
L 603 3500 
z
M 603 4863 
L 1178 4863 
L 1178 4134 
L 603 4134 
L 603 4863 
z
" transform="scale(0.015625)"/>
      <path id="DejaVuSans-6e" d="M 3513 2113 
L 3513 0 
L 2938 0 
L 2938 2094 
Q 2938 2591 2744 2837 
Q 2550 3084 2163 3084 
Q 1697 3084 1428 2787 
Q 1159 2491 1159 1978 
L 1159 0 
L 581 0 
L 581 3500 
L 1159 3500 
L 1159 2956 
Q 1366 3272 1645 3428 
Q 1925 3584 2291 3584 
Q 2894 3584 3203 3211 
Q 3513 2838 3513 2113 
z
" transform="scale(0.015625)"/>
      <path id="DejaVuSans-74" d="M 1172 4494 
L 1172 3500 
L 2356 3500 
L 2356 3053 
L 1172 3053 
L 1172 1153 
Q 1172 725 1289 603 
Q 1406 481 1766 481 
L 2356 481 
L 2356 0 
L 1766 0 
Q 1100 0 847 248 
Q 594 497 594 1153 
L 594 3053 
L 172 3053 
L 172 3500 
L 594 3500 
L 594 4494 
L 1172 4494 
z
" transform="scale(0.015625)"/>
      <path id="DejaVuSans-61" d="M 2194 1759 
Q 1497 1759 1228 1600 
Q 959 1441 959 1056 
Q 959 750 1161 570 
Q 1363 391 1709 391 
Q 2188 391 2477 730 
Q 2766 1069 2766 1631 
L 2766 1759 
L 2194 1759 
z
M 3341 1997 
L 3341 0 
L 2766 0 
L 2766 531 
Q 2569 213 2275 61 
Q 1981 -91 1556 -91 
Q 1019 -91 701 211 
Q 384 513 384 1019 
Q 384 1609 779 1909 
Q 1175 2209 1959 2209 
L 2766 2209 
L 2766 2266 
Q 2766 2663 2505 2880 
Q 2244 3097 1772 3097 
Q 1472 3097 1187 3025 
Q 903 2953 641 2809 
L 641 3341 
Q 956 3463 1253 3523 
Q 1550 3584 1831 3584 
Q 2591 3584 2966 3190 
Q 3341 2797 3341 1997 
z
" transform="scale(0.015625)"/>
      <path id="DejaVuSans-f3" d="M 1959 3097 
Q 1497 3097 1228 2736 
Q 959 2375 959 1747 
Q 959 1119 1226 758 
Q 1494 397 1959 397 
Q 2419 397 2687 759 
Q 2956 1122 2956 1747 
Q 2956 2369 2687 2733 
Q 2419 3097 1959 3097 
z
M 1959 3584 
Q 2709 3584 3137 3096 
Q 3566 2609 3566 1747 
Q 3566 888 3137 398 
Q 2709 -91 1959 -91 
Q 1206 -91 779 398 
Q 353 888 353 1747 
Q 353 2609 779 3096 
Q 1206 3584 1959 3584 
z
M 2394 5119 
L 3016 5119 
L 1997 3944 
L 1519 3944 
L 2394 5119 
z
" transform="scale(0.015625)"/>
     </defs>
     <use xlink:href="#DejaVuSans-50"/>
     <use xlink:href="#DejaVuSans-72" x="58.552734"/>
     <use xlink:href="#DejaVuSans-6f" x="97.416016"/>
     <use xlink:href="#DejaVuSans-63" x="158.597656"/>
     <use xlink:href="#DejaVuSans-65" x="213.578125"/>
     <use xlink:href="#DejaVuSans-64" x="275.101562"/>
     <use xlink:href="#DejaVuSans-69" x="338.578125"/>
     <use xlink:href="#DejaVuSans-6d" x="366.361328"/>
     <use xlink:href="#DejaVuSans-69" x="463.773438"/>
     <use xlink:href="#DejaVuSans-65" x="491.556641"/>
     <use xlink:href="#DejaVuSans-6e" x="553.080078"/>
     <use xlink:href="#DejaVuSans-74" x="616.458984"/>
     <use xlink:href="#DejaVuSans-6f" x="655.667969"/>
     <use xlink:href="#DejaVuSans-73" x="716.849609"/>
     <use xlink:href="#DejaVuSans-20" x="768.949219"/>
     <use xlink:href="#DejaVuSans-64" x="800.736328"/>
     <use xlink:href="#DejaVuSans-65" x="864.212891"/>
     <use xlink:href="#DejaVuSans-20" x="925.736328"/>
     <use xlink:href="#DejaVuSans-64" x="957.523438"/>
     <use xlink:href="#DejaVuSans-69" x="1021"/>
     <use xlink:href="#DejaVuSans-61" x="1048.783203"/>
     <use xlink:href="#DejaVuSans-67" x="1110.0625"/>
     <use xlink:href="#DejaVuSans-6e" x="1173.539062"/>
     <use xlink:href="#DejaVuSans-f3" x="1236.917969"/>
     <use xlink:href="#DejaVuSans-73" x="1298.099609"/>
     <use xlink:href="#DejaVuSans-74" x="1350.199219"/>
     <use xlink:href="#DejaVuSans-69" x="1389.408203"/>
     <use xlink:href="#DejaVuSans-63" x="1417.191406"/>
     <use xlink:href="#DejaVuSans-6f" x="1472.171875"/>
    </g>
   </g>
  </g>
 </g>
 <defs>
  <clipPath id="p985ae5498a">
   <rect x="213.495156" y="24.71775" width="779.69" height="504.28"/>
  </clipPath>
 </defs>
</svg>
