<?xml version="1.0" encoding="utf-8" standalone="no"?>
<!DOCTYPE svg PUBLIC "-//W3C//DTD SVG 1.1//EN"
  "http://www.w3.org/Graphics/SVG/1.1/DTD/svg11.dtd">
<svg xmlns:xlink="http://www.w3.org/1999/xlink" width="1000.410469pt" height="568.969625pt" viewBox="0 0 1000.410469 568.969625" xmlns="http://www.w3.org/2000/svg" version="1.1">
 <metadata>
  <rdf:RDF xmlns:dc="http://purl.org/dc/elements/1.1/" xmlns:cc="http://creativecommons.org/ns#" xmlns:rdf="http://www.w3.org/1999/02/22-rdf-syntax-ns#">
   <cc:Work>
    <dc:type rdf:resource="http://purl.org/dc/dcmitype/StillImage"/>
    <dc:date>2026-02-17T08:32:47.316566</dc:date>
    <dc:format>image/svg+xml</dc:format>
    <dc:creator>
     <cc:Agent>
      <dc:title>Matplotlib v3.6.3, https://matplotlib.org/</dc:title>
     </cc:Agent>
    </dc:creator>
   </cc:Work>
  </rdf:RDF>
 </metadata>
 <defs>
  <style type="text/css">*{stroke-linejoin: round; stroke-linecap: butt}</style>
 </defs>
 <g id="figure_1">
  <g id="patch_1">
   <path d="M -0 568.969625 
L 1000.410469 568.969625 
L 1000.410469 0 
L -0 0 
z
" style="fill: #ffffff"/>
  </g>
  <g id="axes_1">
   <g id="patch_2">
    <path d="M 204.340469 528.99775 
L 993.210469 528.99775 
L 993.210469 24.71775 
L 204.340469 24.71775 
z
" style="fill: #e5e5e5"/>
   </g>
   <g id="matplotlib.axis_1">
    <g id="xtick_1">
     <g id="line2d_1">
      <path d="M 204.340469 528.99775 
L 204.340469 24.71775 
" clip-path="url(#p1111524713)" style="fill: none; stroke: #ffffff; stroke-width: 0.8; stroke-linecap: square"/>
     </g>
     <g id="line2d_2">
      <defs>
       <path id="m6668841bcf" d="M 0 0 
L 0 3.5 
" style="stroke: #555555; stroke-width: 0.8"/>
      </defs>
      <g>
       <use xlink:href="#m6668841bcf" x="204.340469" y="528.99775" style="fill: #555555; stroke: #555555; stroke-width: 0.8"/>
      </g>
     </g>
     <g id="text_1">
      <!-- 0 -->
      <g style="fill: #555555" transform="translate(201.159219 543.596187) scale(0.1 -0.1)">
       <defs>
        <path id="DejaVuSans-30" d="M 2034 4250 
Q 1547 4250 1301 3770 
Q 1056 3291 1056 2328 
Q 1056 1369 1301 889 
Q 1547 409 2034 409 
Q 2525 409 2770 889 
Q 3016 1369 3016 2328 
Q 3016 3291 2770 3770 
Q 2525 4250 2034 4250 
z
M 2034 4750 
Q 2819 4750 3233 4129 
Q 3647 3509 3647 2328 
Q 3647 1150 3233 529 
Q 2819 -91 2034 -91 
Q 1250 -91 836 529 
Q 422 1150 422 2328 
Q 422 3509 836 4129 
Q 1250 4750 2034 4750 
z
" transform="scale(0.015625)"/>
       </defs>
       <use xlink:href="#DejaVuSans-30"/>
      </g>
     </g>
    </g>
    <g id="xtick_2">
     <g id="line2d_3">
      <path d="M 373.744023 528.99775 
L 373.744023 24.71775 
" clip-path="url(#p1111524713)" style="fill: none; stroke: #ffffff; stroke-width: 0.8; stroke-linecap: square"/>
     </g>
     <g id="line2d_4">
      <g>
       <use xlink:href="#m6668841bcf" x="373.744023" y="528.99775" style="fill: #555555; stroke: #555555; stroke-width: 0.8"/>
      </g>
     </g>
     <g id="text_2">
      <!-- 200 -->
      <g style="fill: #555555" transform="translate(364.200273 543.596187) scale(0.1 -0.1)">
       <defs>
        <path id="DejaVuSans-32" d="M 1228 531 
L 3431 531 
L 3431 0 
L 469 0 
L 469 531 
Q 828 903 1448 1529 
Q 2069 2156 2228 2338 
Q 2531 2678 2651 2914 
Q 2772 3150 2772 3378 
Q 2772 3750 2511 3984 
Q 2250 4219 1831 4219 
Q 1534 4219 1204 4116 
Q 875 4013 500 3803 
L 500 4441 
Q 881 4594 1212 4672 
Q 1544 4750 1819 4750 
Q 2544 4750 2975 4387 
Q 3406 4025 3406 3419 
Q 3406 3131 3298 2873 
Q 3191 2616 2906 2266 
Q 2828 2175 2409 1742 
Q 1991 1309 1228 531 
z
" transform="scale(0.015625)"/>
       </defs>
       <use xlink:href="#DejaVuSans-32"/>
       <use xlink:href="#DejaVuSans-30" x="63.623047"/>
       <use xlink:href="#DejaVuSans-30" x="127.246094"/>
      </g>
     </g>
    </g>
    <g id="xtick_3">
     <g id="line2d_5">
      <path d="M 543.147577 528.99775 
L 543.147577 24.71775 
" clip-path="url(#p1111524713)" style="fill: none; stroke: #ffffff; stroke-width: 0.8; stroke-linecap: square"/>
     </g>
     <g id="line2d_6">
      <g>
       <use xlink:href="#m6668841bcf" x="543.147577" y="528.99775" style="fill: #555555; stroke: #555555; stroke-width: 0.8"/>
      </g>
     </g>
     <g id="text_3">
      <!-- 400 -->
      <g style="fill: #555555" transform="translate(533.603827 543.596187) scale(0.1 -0.1)">
       <defs>
        <path id="DejaVuSans-34" d="M 2419 4116 
L 825 1625 
L 2419 1625 
L 2419 4116 
z
M 2253 4666 
L 3047 4666 
L 3047 1625 
L 3713 1625 
L 3713 1100 
L 3047 1100 
L 3047 0 
L 2419 0 
L 2419 1100 
L 313 1100 
L 313 1709 
L 2253 4666 
z
" transform="scale(0.015625)"/>
       </defs>
       <use xlink:href="#DejaVuSans-34"/>
       <use xlink:href="#DejaVuSans-30" x="63.623047"/>
       <use xlink:href="#DejaVuSans-30" x="127.246094"/>
      </g>
     </g>
    </g>
    <g id="xtick_4">
     <g id="line2d_7">
      <path d="M 712.551131 528.99775 
L 712.551131 24.71775 
" clip-path="url(#p1111524713)" style="fill: none; stroke: #ffffff; stroke-width: 0.8; stroke-linecap: square"/>
     </g>
     <g id="line2d_8">
      <g>
       <use xlink:href="#m6668841bcf" x="712.551131" y="528.99775" style="fill: #555555; stroke: #555555; stroke-width: 0.8"/>
      </g>
     </g>
     <g id="text_4">
      <!-- 600 -->
      <g style="fill: #555555" transform="translate(703.007381 543.596187) scale(0.1 -0.1)">
       <defs>
        <path id="DejaVuSans-36" d="M 2113 2584 
Q 1688 2584 1439 2293 
Q 1191 2003 1191 1497 
Q 1191 994 1439 701 
Q 1688 409 2113 409 
Q 2538 409 2786 701 
Q 3034 994 3034 1497 
Q 3034 2003 2786 2293 
Q 2538 2584 2113 2584 
z
M 3366 4563 
L 3366 3988 
Q 3128 4100 2886 4159 
Q 2644 4219 2406 4219 
Q 1781 4219 1451 3797 
Q 1122 3375 1075 2522 
Q 1259 2794 1537 2939 
Q 1816 3084 2150 3084 
Q 2853 3084 3261 2657 
Q 3669 2231 3669 1497 
Q 3669 778 3244 343 
Q 2819 -91 2113 -91 
Q 1303 -91 875 529 
Q 447 1150 447 2328 
Q 447 3434 972 4092 
Q 1497 4750 2381 4750 
Q 2619 4750 2861 4703 
Q 3103 4656 3366 4563 
z
" transform="scale(0.015625)"/>
       </defs>
       <use xlink:href="#DejaVuSans-36"/>
       <use xlink:href="#DejaVuSans-30" x="63.623047"/>
       <use xlink:href="#DejaVuSans-30" x="127.246094"/>
      </g>
     </g>
    </g>
    <g id="xtick_5">
     <g id="line2d_9">
      <path d="M 881.954685 528.99775 
L 881.954685 24.71775 
" clip-path="url(#p1111524713)" style="fill: none; stroke: #ffffff; stroke-width: 0.8; stroke-linecap: square"/>
     </g>
     <g id="line2d_10">
      <g>
       <use xlink:href="#m6668841bcf" x="881.954685" y="528.99775" style="fill: #555555; stroke: #555555; stroke-width: 0.8"/>
      </g>
     </g>
     <g id="text_5">
      <!-- 800 -->
      <g style="fill: #555555" transform="translate(872.410935 543.596187) scale(0.1 -0.1)">
       <defs>
        <path id="DejaVuSans-38" d="M 2034 2216 
Q 1584 2216 1326 1975 
Q 1069 1734 1069 1313 
Q 1069 891 1326 650 
Q 1584 409 2034 409 
Q 2484 409 2743 651 
Q 3003 894 3003 1313 
Q 3003 1734 2745 1975 
Q 2488 2216 2034 2216 
z
M 1403 2484 
Q 997 2584 770 2862 
Q 544 3141 544 3541 
Q 544 4100 942 4425 
Q 1341 4750 2034 4750 
Q 2731 4750 3128 4425 
Q 3525 4100 3525 3541 
Q 3525 3141 3298 2862 
Q 3072 2584 2669 2484 
Q 3125 2378 3379 2068 
Q 3634 1759 3634 1313 
Q 3634 634 3220 271 
Q 2806 -91 2034 -91 
Q 1263 -91 848 271 
Q 434 634 434 1313 
Q 434 1759 690 2068 
Q 947 2378 1403 2484 
z
M 1172 3481 
Q 1172 3119 1398 2916 
Q 1625 2713 2034 2713 
Q 2441 2713 2670 2916 
Q 2900 3119 2900 3481 
Q 2900 3844 2670 4047 
Q 2441 4250 2034 4250 
Q 1625 4250 1398 4047 
Q 1172 3844 1172 3481 
z
" transform="scale(0.015625)"/>
       </defs>
       <use xlink:href="#DejaVuSans-38"/>
       <use xlink:href="#DejaVuSans-30" x="63.623047"/>
       <use xlink:href="#DejaVuSans-30" x="127.246094"/>
      </g>
     </g>
    </g>
    <g id="text_6">
     <!-- Número de egresos -->
     <g style="fill: #555555" transform="translate(540.183594 559.274) scale(0.12 -0.12)">
      <defs>
       <path id="DejaVuSans-4e" d="M 628 4666 
L 1478 4666 
L 3547 763 
L 3547 4666 
L 4159 4666 
L 4159 0 
L 3309 0 
L 1241 3903 
L 1241 0 
L 628 0 
L 628 4666 
z
" transform="scale(0.015625)"/>
       <path id="DejaVuSans-fa" d="M 544 1381 
L 544 3500 
L 1119 3500 
L 1119 1403 
Q 1119 906 1312 657 
Q 1506 409 1894 409 
Q 2359 409 2629 706 
Q 2900 1003 2900 1516 
L 2900 3500 
L 3475 3500 
L 3475 0 
L 2900 0 
L 2900 538 
Q 2691 219 2414 64 
Q 2138 -91 1772 -91 
Q 1169 -91 856 284 
Q 544 659 544 1381 
z
M 1991 3584 
L 1991 3584 
z
M 2419 5119 
L 3041 5119 
L 2022 3944 
L 1544 3944 
L 2419 5119 
z
" transform="scale(0.015625)"/>
       <path id="DejaVuSans-6d" d="M 3328 2828 
Q 3544 3216 3844 3400 
Q 4144 3584 4550 3584 
Q 5097 3584 5394 3201 
Q 5691 2819 5691 2113 
L 5691 0 
L 5113 0 
L 5113 2094 
Q 5113 2597 4934 2840 
Q 4756 3084 4391 3084 
Q 3944 3084 3684 2787 
Q 3425 2491 3425 1978 
L 3425 0 
L 2847 0 
L 2847 2094 
Q 2847 2600 2669 2842 
Q 2491 3084 2119 3084 
Q 1678 3084 1418 2786 
Q 1159 2488 1159 1978 
L 1159 0 
L 581 0 
L 581 3500 
L 1159 3500 
L 1159 2956 
Q 1356 3278 1631 3431 
Q 1906 3584 2284 3584 
Q 2666 3584 2933 3390 
Q 3200 3197 3328 2828 
z
" transform="scale(0.015625)"/>
       <path id="DejaVuSans-65" d="M 3597 1894 
L 3597 1613 
L 953 1613 
Q 991 1019 1311 708 
Q 1631 397 2203 397 
Q 2534 397 2845 478 
Q 3156 559 3463 722 
L 3463 178 
Q 3153 47 2828 -22 
Q 2503 -91 2169 -91 
Q 1331 -91 842 396 
Q 353 884 353 1716 
Q 353 2575 817 3079 
Q 1281 3584 2069 3584 
Q 2775 3584 3186 3129 
Q 3597 2675 3597 1894 
z
M 3022 2063 
Q 3016 2534 2758 2815 
Q 2500 3097 2075 3097 
Q 1594 3097 1305 2825 
Q 1016 2553 972 2059 
L 3022 2063 
z
" transform="scale(0.015625)"/>
       <path id="DejaVuSans-72" d="M 2631 2963 
Q 2534 3019 2420 3045 
Q 2306 3072 2169 3072 
Q 1681 3072 1420 2755 
Q 1159 2438 1159 1844 
L 1159 0 
L 581 0 
L 581 3500 
L 1159 3500 
L 1159 2956 
Q 1341 3275 1631 3429 
Q 1922 3584 2338 3584 
Q 2397 3584 2469 3576 
Q 2541 3569 2628 3553 
L 2631 2963 
z
" transform="scale(0.015625)"/>
       <path id="DejaVuSans-6f" d="M 1959 3097 
Q 1497 3097 1228 2736 
Q 959 2375 959 1747 
Q 959 1119 1226 758 
Q 1494 397 1959 397 
Q 2419 397 2687 759 
Q 2956 1122 2956 1747 
Q 2956 2369 2687 2733 
Q 2419 3097 1959 3097 
z
M 1959 3584 
Q 2709 3584 3137 3096 
Q 3566 2609 3566 1747 
Q 3566 888 3137 398 
Q 2709 -91 1959 -91 
Q 1206 -91 779 398 
Q 353 888 353 1747 
Q 353 2609 779 3096 
Q 1206 3584 1959 3584 
z
" transform="scale(0.015625)"/>
       <path id="DejaVuSans-20" transform="scale(0.015625)"/>
       <path id="DejaVuSans-64" d="M 2906 2969 
L 2906 4863 
L 3481 4863 
L 3481 0 
L 2906 0 
L 2906 525 
Q 2725 213 2448 61 
Q 2172 -91 1784 -91 
Q 1150 -91 751 415 
Q 353 922 353 1747 
Q 353 2572 751 3078 
Q 1150 3584 1784 3584 
Q 2172 3584 2448 3432 
Q 2725 3281 2906 2969 
z
M 947 1747 
Q 947 1113 1208 752 
Q 1469 391 1925 391 
Q 2381 391 2643 752 
Q 2906 1113 2906 1747 
Q 2906 2381 2643 2742 
Q 2381 3103 1925 3103 
Q 1469 3103 1208 2742 
Q 947 2381 947 1747 
z
" transform="scale(0.015625)"/>
       <path id="DejaVuSans-67" d="M 2906 1791 
Q 2906 2416 2648 2759 
Q 2391 3103 1925 3103 
Q 1463 3103 1205 2759 
Q 947 2416 947 1791 
Q 947 1169 1205 825 
Q 1463 481 1925 481 
Q 2391 481 2648 825 
Q 2906 1169 2906 1791 
z
M 3481 434 
Q 3481 -459 3084 -895 
Q 2688 -1331 1869 -1331 
Q 1566 -1331 1297 -1286 
Q 1028 -1241 775 -1147 
L 775 -588 
Q 1028 -725 1275 -790 
Q 1522 -856 1778 -856 
Q 2344 -856 2625 -561 
Q 2906 -266 2906 331 
L 2906 616 
Q 2728 306 2450 153 
Q 2172 0 1784 0 
Q 1141 0 747 490 
Q 353 981 353 1791 
Q 353 2603 747 3093 
Q 1141 3584 1784 3584 
Q 2172 3584 2450 3431 
Q 2728 3278 2906 2969 
L 2906 3500 
L 3481 3500 
L 3481 434 
z
" transform="scale(0.015625)"/>
       <path id="DejaVuSans-73" d="M 2834 3397 
L 2834 2853 
Q 2591 2978 2328 3040 
Q 2066 3103 1784 3103 
Q 1356 3103 1142 2972 
Q 928 2841 928 2578 
Q 928 2378 1081 2264 
Q 1234 2150 1697 2047 
L 1894 2003 
Q 2506 1872 2764 1633 
Q 3022 1394 3022 966 
Q 3022 478 2636 193 
Q 2250 -91 1575 -91 
Q 1294 -91 989 -36 
Q 684 19 347 128 
L 347 722 
Q 666 556 975 473 
Q 1284 391 1588 391 
Q 1994 391 2212 530 
Q 2431 669 2431 922 
Q 2431 1156 2273 1281 
Q 2116 1406 1581 1522 
L 1381 1569 
Q 847 1681 609 1914 
Q 372 2147 372 2553 
Q 372 3047 722 3315 
Q 1072 3584 1716 3584 
Q 2034 3584 2315 3537 
Q 2597 3491 2834 3397 
z
" transform="scale(0.015625)"/>
      </defs>
      <use xlink:href="#DejaVuSans-4e"/>
      <use xlink:href="#DejaVuSans-fa" x="74.804688"/>
      <use xlink:href="#DejaVuSans-6d" x="138.183594"/>
      <use xlink:href="#DejaVuSans-65" x="235.595703"/>
      <use xlink:href="#DejaVuSans-72" x="297.119141"/>
      <use xlink:href="#DejaVuSans-6f" x="335.982422"/>
      <use xlink:href="#DejaVuSans-20" x="397.164062"/>
      <use xlink:href="#DejaVuSans-64" x="428.951172"/>
      <use xlink:href="#DejaVuSans-65" x="492.427734"/>
      <use xlink:href="#DejaVuSans-20" x="553.951172"/>
      <use xlink:href="#DejaVuSans-65" x="585.738281"/>
      <use xlink:href="#DejaVuSans-67" x="647.261719"/>
      <use xlink:href="#DejaVuSans-72" x="710.738281"/>
      <use xlink:href="#DejaVuSans-65" x="749.601562"/>
      <use xlink:href="#DejaVuSans-73" x="811.125"/>
      <use xlink:href="#DejaVuSans-6f" x="863.224609"/>
      <use xlink:href="#DejaVuSans-73" x="924.40625"/>
     </g>
    </g>
   </g>
   <g id="matplotlib.axis_2">
    <g id="ytick_1">
     <g id="line2d_11">
      <path d="M 204.340469 487.364244 
L 993.210469 487.364244 
" clip-path="url(#p1111524713)" style="fill: none; stroke: #ffffff; stroke-width: 0.8; stroke-linecap: square"/>
     </g>
     <g id="line2d_12">
      <defs>
       <path id="m8444112346" d="M 0 0 
L -3.5 0 
" style="stroke: #555555; stroke-width: 0.8"/>
      </defs>
      <g>
       <use xlink:href="#m8444112346" x="204.340469" y="487.364244" style="fill: #555555; stroke: #555555; stroke-width: 0.8"/>
      </g>
     </g>
     <g id="text_7">
      <!-- OTRA HISTERECTOMÍA TOTAL ABDOMINAL -->
      <g style="fill: #555555" transform="translate(7.2 486.428384) scale(0.09 -0.09)">
       <defs>
        <path id="DejaVuSans-4f" d="M 2522 4238 
Q 1834 4238 1429 3725 
Q 1025 3213 1025 2328 
Q 1025 1447 1429 934 
Q 1834 422 2522 422 
Q 3209 422 3611 934 
Q 4013 1447 4013 2328 
Q 4013 3213 3611 3725 
Q 3209 4238 2522 4238 
z
M 2522 4750 
Q 3503 4750 4090 4092 
Q 4678 3434 4678 2328 
Q 4678 1225 4090 567 
Q 3503 -91 2522 -91 
Q 1538 -91 948 565 
Q 359 1222 359 2328 
Q 359 3434 948 4092 
Q 1538 4750 2522 4750 
z
" transform="scale(0.015625)"/>
        <path id="DejaVuSans-54" d="M -19 4666 
L 3928 4666 
L 3928 4134 
L 2272 4134 
L 2272 0 
L 1638 0 
L 1638 4134 
L -19 4134 
L -19 4666 
z
" transform="scale(0.015625)"/>
        <path id="DejaVuSans-52" d="M 2841 2188 
Q 3044 2119 3236 1894 
Q 3428 1669 3622 1275 
L 4263 0 
L 3584 0 
L 2988 1197 
Q 2756 1666 2539 1819 
Q 2322 1972 1947 1972 
L 1259 1972 
L 1259 0 
L 628 0 
L 628 4666 
L 2053 4666 
Q 2853 4666 3247 4331 
Q 3641 3997 3641 3322 
Q 3641 2881 3436 2590 
Q 3231 2300 2841 2188 
z
M 1259 4147 
L 1259 2491 
L 2053 2491 
Q 2509 2491 2742 2702 
Q 2975 2913 2975 3322 
Q 2975 3731 2742 3939 
Q 2509 4147 2053 4147 
L 1259 4147 
z
" transform="scale(0.015625)"/>
        <path id="DejaVuSans-41" d="M 2188 4044 
L 1331 1722 
L 3047 1722 
L 2188 4044 
z
M 1831 4666 
L 2547 4666 
L 4325 0 
L 3669 0 
L 3244 1197 
L 1141 1197 
L 716 0 
L 50 0 
L 1831 4666 
z
" transform="scale(0.015625)"/>
        <path id="DejaVuSans-48" d="M 628 4666 
L 1259 4666 
L 1259 2753 
L 3553 2753 
L 3553 4666 
L 4184 4666 
L 4184 0 
L 3553 0 
L 3553 2222 
L 1259 2222 
L 1259 0 
L 628 0 
L 628 4666 
z
" transform="scale(0.015625)"/>
        <path id="DejaVuSans-49" d="M 628 4666 
L 1259 4666 
L 1259 0 
L 628 0 
L 628 4666 
z
" transform="scale(0.015625)"/>
        <path id="DejaVuSans-53" d="M 3425 4513 
L 3425 3897 
Q 3066 4069 2747 4153 
Q 2428 4238 2131 4238 
Q 1616 4238 1336 4038 
Q 1056 3838 1056 3469 
Q 1056 3159 1242 3001 
Q 1428 2844 1947 2747 
L 2328 2669 
Q 3034 2534 3370 2195 
Q 3706 1856 3706 1288 
Q 3706 609 3251 259 
Q 2797 -91 1919 -91 
Q 1588 -91 1214 -16 
Q 841 59 441 206 
L 441 856 
Q 825 641 1194 531 
Q 1563 422 1919 422 
Q 2459 422 2753 634 
Q 3047 847 3047 1241 
Q 3047 1584 2836 1778 
Q 2625 1972 2144 2069 
L 1759 2144 
Q 1053 2284 737 2584 
Q 422 2884 422 3419 
Q 422 4038 858 4394 
Q 1294 4750 2059 4750 
Q 2388 4750 2728 4690 
Q 3069 4631 3425 4513 
z
" transform="scale(0.015625)"/>
        <path id="DejaVuSans-45" d="M 628 4666 
L 3578 4666 
L 3578 4134 
L 1259 4134 
L 1259 2753 
L 3481 2753 
L 3481 2222 
L 1259 2222 
L 1259 531 
L 3634 531 
L 3634 0 
L 628 0 
L 628 4666 
z
" transform="scale(0.015625)"/>
        <path id="DejaVuSans-43" d="M 4122 4306 
L 4122 3641 
Q 3803 3938 3442 4084 
Q 3081 4231 2675 4231 
Q 1875 4231 1450 3742 
Q 1025 3253 1025 2328 
Q 1025 1406 1450 917 
Q 1875 428 2675 428 
Q 3081 428 3442 575 
Q 3803 722 4122 1019 
L 4122 359 
Q 3791 134 3420 21 
Q 3050 -91 2638 -91 
Q 1578 -91 968 557 
Q 359 1206 359 2328 
Q 359 3453 968 4101 
Q 1578 4750 2638 4750 
Q 3056 4750 3426 4639 
Q 3797 4528 4122 4306 
z
" transform="scale(0.015625)"/>
        <path id="DejaVuSans-4d" d="M 628 4666 
L 1569 4666 
L 2759 1491 
L 3956 4666 
L 4897 4666 
L 4897 0 
L 4281 0 
L 4281 4097 
L 3078 897 
L 2444 897 
L 1241 4097 
L 1241 0 
L 628 0 
L 628 4666 
z
" transform="scale(0.015625)"/>
        <path id="DejaVuSans-cd" d="M 628 4666 
L 1259 4666 
L 1259 0 
L 628 0 
L 628 4666 
z
M 1119 5935 
L 1697 5935 
L 984 5110 
L 506 5110 
L 1119 5935 
z
" transform="scale(0.015625)"/>
        <path id="DejaVuSans-4c" d="M 628 4666 
L 1259 4666 
L 1259 531 
L 3531 531 
L 3531 0 
L 628 0 
L 628 4666 
z
" transform="scale(0.015625)"/>
        <path id="DejaVuSans-42" d="M 1259 2228 
L 1259 519 
L 2272 519 
Q 2781 519 3026 730 
Q 3272 941 3272 1375 
Q 3272 1813 3026 2020 
Q 2781 2228 2272 2228 
L 1259 2228 
z
M 1259 4147 
L 1259 2741 
L 2194 2741 
Q 2656 2741 2882 2914 
Q 3109 3088 3109 3444 
Q 3109 3797 2882 3972 
Q 2656 4147 2194 4147 
L 1259 4147 
z
M 628 4666 
L 2241 4666 
Q 2963 4666 3353 4366 
Q 3744 4066 3744 3513 
Q 3744 3084 3544 2831 
Q 3344 2578 2956 2516 
Q 3422 2416 3680 2098 
Q 3938 1781 3938 1306 
Q 3938 681 3513 340 
Q 3088 0 2303 0 
L 628 0 
L 628 4666 
z
" transform="scale(0.015625)"/>
        <path id="DejaVuSans-44" d="M 1259 4147 
L 1259 519 
L 2022 519 
Q 2988 519 3436 956 
Q 3884 1394 3884 2338 
Q 3884 3275 3436 3711 
Q 2988 4147 2022 4147 
L 1259 4147 
z
M 628 4666 
L 1925 4666 
Q 3281 4666 3915 4102 
Q 4550 3538 4550 2338 
Q 4550 1131 3912 565 
Q 3275 0 1925 0 
L 628 0 
L 628 4666 
z
" transform="scale(0.015625)"/>
       </defs>
       <use xlink:href="#DejaVuSans-4f"/>
       <use xlink:href="#DejaVuSans-54" x="78.710938"/>
       <use xlink:href="#DejaVuSans-52" x="139.794922"/>
       <use xlink:href="#DejaVuSans-41" x="205.277344"/>
       <use xlink:href="#DejaVuSans-20" x="273.685547"/>
       <use xlink:href="#DejaVuSans-48" x="305.472656"/>
       <use xlink:href="#DejaVuSans-49" x="380.667969"/>
       <use xlink:href="#DejaVuSans-53" x="410.160156"/>
       <use xlink:href="#DejaVuSans-54" x="473.636719"/>
       <use xlink:href="#DejaVuSans-45" x="534.720703"/>
       <use xlink:href="#DejaVuSans-52" x="597.904297"/>
       <use xlink:href="#DejaVuSans-45" x="667.386719"/>
       <use xlink:href="#DejaVuSans-43" x="730.570312"/>
       <use xlink:href="#DejaVuSans-54" x="800.394531"/>
       <use xlink:href="#DejaVuSans-4f" x="861.478516"/>
       <use xlink:href="#DejaVuSans-4d" x="940.189453"/>
       <use xlink:href="#DejaVuSans-cd" x="1026.46875"/>
       <use xlink:href="#DejaVuSans-41" x="1055.960938"/>
       <use xlink:href="#DejaVuSans-20" x="1124.369141"/>
       <use xlink:href="#DejaVuSans-54" x="1156.15625"/>
       <use xlink:href="#DejaVuSans-4f" x="1217.240234"/>
       <use xlink:href="#DejaVuSans-54" x="1295.951172"/>
       <use xlink:href="#DejaVuSans-41" x="1349.285156"/>
       <use xlink:href="#DejaVuSans-4c" x="1417.693359"/>
       <use xlink:href="#DejaVuSans-20" x="1473.40625"/>
       <use xlink:href="#DejaVuSans-41" x="1505.193359"/>
       <use xlink:href="#DejaVuSans-42" x="1573.601562"/>
       <use xlink:href="#DejaVuSans-44" x="1642.205078"/>
       <use xlink:href="#DejaVuSans-4f" x="1719.207031"/>
       <use xlink:href="#DejaVuSans-4d" x="1797.917969"/>
       <use xlink:href="#DejaVuSans-49" x="1884.197266"/>
       <use xlink:href="#DejaVuSans-4e" x="1913.689453"/>
       <use xlink:href="#DejaVuSans-41" x="1988.494141"/>
       <use xlink:href="#DejaVuSans-4c" x="2056.902344"/>
      </g>
      <!-- Y LA NO ESPECIFICADA -->
      <g style="fill: #555555" transform="translate(93.415781 496.506415) scale(0.09 -0.09)">
       <defs>
        <path id="DejaVuSans-59" d="M -13 4666 
L 666 4666 
L 1959 2747 
L 3244 4666 
L 3922 4666 
L 2272 2222 
L 2272 0 
L 1638 0 
L 1638 2222 
L -13 4666 
z
" transform="scale(0.015625)"/>
        <path id="DejaVuSans-50" d="M 1259 4147 
L 1259 2394 
L 2053 2394 
Q 2494 2394 2734 2622 
Q 2975 2850 2975 3272 
Q 2975 3691 2734 3919 
Q 2494 4147 2053 4147 
L 1259 4147 
z
M 628 4666 
L 2053 4666 
Q 2838 4666 3239 4311 
Q 3641 3956 3641 3272 
Q 3641 2581 3239 2228 
Q 2838 1875 2053 1875 
L 1259 1875 
L 1259 0 
L 628 0 
L 628 4666 
z
" transform="scale(0.015625)"/>
        <path id="DejaVuSans-46" d="M 628 4666 
L 3309 4666 
L 3309 4134 
L 1259 4134 
L 1259 2759 
L 3109 2759 
L 3109 2228 
L 1259 2228 
L 1259 0 
L 628 0 
L 628 4666 
z
" transform="scale(0.015625)"/>
       </defs>
       <use xlink:href="#DejaVuSans-59"/>
       <use xlink:href="#DejaVuSans-20" x="61.083984"/>
       <use xlink:href="#DejaVuSans-4c" x="92.871094"/>
       <use xlink:href="#DejaVuSans-41" x="150.833984"/>
       <use xlink:href="#DejaVuSans-20" x="219.242188"/>
       <use xlink:href="#DejaVuSans-4e" x="251.029297"/>
       <use xlink:href="#DejaVuSans-4f" x="325.833984"/>
       <use xlink:href="#DejaVuSans-20" x="404.544922"/>
       <use xlink:href="#DejaVuSans-45" x="436.332031"/>
       <use xlink:href="#DejaVuSans-53" x="499.515625"/>
       <use xlink:href="#DejaVuSans-50" x="562.992188"/>
       <use xlink:href="#DejaVuSans-45" x="623.294922"/>
       <use xlink:href="#DejaVuSans-43" x="686.478516"/>
       <use xlink:href="#DejaVuSans-49" x="756.302734"/>
       <use xlink:href="#DejaVuSans-46" x="785.794922"/>
       <use xlink:href="#DejaVuSans-49" x="843.314453"/>
       <use xlink:href="#DejaVuSans-43" x="872.806641"/>
       <use xlink:href="#DejaVuSans-41" x="942.630859"/>
       <use xlink:href="#DejaVuSans-44" x="1011.039062"/>
       <use xlink:href="#DejaVuSans-41" x="1086.291016"/>
      </g>
     </g>
    </g>
    <g id="ytick_2">
     <g id="line2d_13">
      <path d="M 204.340469 440.585023 
L 993.210469 440.585023 
" clip-path="url(#p1111524713)" style="fill: none; stroke: #ffffff; stroke-width: 0.8; stroke-linecap: square"/>
     </g>
     <g id="line2d_14">
      <g>
       <use xlink:href="#m8444112346" x="204.340469" y="440.585023" style="fill: #555555; stroke: #555555; stroke-width: 0.8"/>
      </g>
     </g>
     <g id="text_8">
      <!-- COLECISTECTOMÍA -->
      <g style="fill: #555555" transform="translate(111.989531 444.00432) scale(0.09 -0.09)">
       <use xlink:href="#DejaVuSans-43"/>
       <use xlink:href="#DejaVuSans-4f" x="69.824219"/>
       <use xlink:href="#DejaVuSans-4c" x="148.535156"/>
       <use xlink:href="#DejaVuSans-45" x="204.248047"/>
       <use xlink:href="#DejaVuSans-43" x="267.431641"/>
       <use xlink:href="#DejaVuSans-49" x="337.255859"/>
       <use xlink:href="#DejaVuSans-53" x="366.748047"/>
       <use xlink:href="#DejaVuSans-54" x="430.224609"/>
       <use xlink:href="#DejaVuSans-45" x="491.308594"/>
       <use xlink:href="#DejaVuSans-43" x="554.492188"/>
       <use xlink:href="#DejaVuSans-54" x="624.316406"/>
       <use xlink:href="#DejaVuSans-4f" x="685.400391"/>
       <use xlink:href="#DejaVuSans-4d" x="764.111328"/>
       <use xlink:href="#DejaVuSans-cd" x="850.390625"/>
       <use xlink:href="#DejaVuSans-41" x="879.882812"/>
      </g>
     </g>
    </g>
    <g id="ytick_3">
     <g id="line2d_15">
      <path d="M 204.340469 393.805802 
L 993.210469 393.805802 
" clip-path="url(#p1111524713)" style="fill: none; stroke: #ffffff; stroke-width: 0.8; stroke-linecap: square"/>
     </g>
     <g id="line2d_16">
      <g>
       <use xlink:href="#m8444112346" x="204.340469" y="393.805802" style="fill: #555555; stroke: #555555; stroke-width: 0.8"/>
      </g>
     </g>
     <g id="text_9">
      <!-- LAPAROTOMÍA EXPLORADORA -->
      <g style="fill: #555555" transform="translate(62.433281 397.225099) scale(0.09 -0.09)">
       <defs>
        <path id="DejaVuSans-58" d="M 403 4666 
L 1081 4666 
L 2241 2931 
L 3406 4666 
L 4084 4666 
L 2584 2425 
L 4184 0 
L 3506 0 
L 2194 1984 
L 872 0 
L 191 0 
L 1856 2491 
L 403 4666 
z
" transform="scale(0.015625)"/>
       </defs>
       <use xlink:href="#DejaVuSans-4c"/>
       <use xlink:href="#DejaVuSans-41" x="57.962891"/>
       <use xlink:href="#DejaVuSans-50" x="126.371094"/>
       <use xlink:href="#DejaVuSans-41" x="180.298828"/>
       <use xlink:href="#DejaVuSans-52" x="248.707031"/>
       <use xlink:href="#DejaVuSans-4f" x="318.189453"/>
       <use xlink:href="#DejaVuSans-54" x="396.900391"/>
       <use xlink:href="#DejaVuSans-4f" x="457.984375"/>
       <use xlink:href="#DejaVuSans-4d" x="536.695312"/>
       <use xlink:href="#DejaVuSans-cd" x="622.974609"/>
       <use xlink:href="#DejaVuSans-41" x="652.466797"/>
       <use xlink:href="#DejaVuSans-20" x="720.875"/>
       <use xlink:href="#DejaVuSans-45" x="752.662109"/>
       <use xlink:href="#DejaVuSans-58" x="815.845703"/>
       <use xlink:href="#DejaVuSans-50" x="884.351562"/>
       <use xlink:href="#DejaVuSans-4c" x="944.654297"/>
       <use xlink:href="#DejaVuSans-4f" x="996.742188"/>
       <use xlink:href="#DejaVuSans-52" x="1075.453125"/>
       <use xlink:href="#DejaVuSans-41" x="1140.935547"/>
       <use xlink:href="#DejaVuSans-44" x="1209.34375"/>
       <use xlink:href="#DejaVuSans-4f" x="1286.345703"/>
       <use xlink:href="#DejaVuSans-52" x="1365.056641"/>
       <use xlink:href="#DejaVuSans-41" x="1430.539062"/>
      </g>
     </g>
    </g>
    <g id="ytick_4">
     <g id="line2d_17">
      <path d="M 204.340469 347.026581 
L 993.210469 347.026581 
" clip-path="url(#p1111524713)" style="fill: none; stroke: #ffffff; stroke-width: 0.8; stroke-linecap: square"/>
     </g>
     <g id="line2d_18">
      <g>
       <use xlink:href="#m8444112346" x="204.340469" y="347.026581" style="fill: #555555; stroke: #555555; stroke-width: 0.8"/>
      </g>
     </g>
     <g id="text_10">
      <!-- OTRA EXTRACCIÓN DE CATARATA -->
      <g style="fill: #555555" transform="translate(48.376406 350.445878) scale(0.09 -0.09)">
       <defs>
        <path id="DejaVuSans-d3" d="M 2522 4238 
Q 1834 4238 1429 3725 
Q 1025 3213 1025 2328 
Q 1025 1447 1429 934 
Q 1834 422 2522 422 
Q 3209 422 3611 934 
Q 4013 1447 4013 2328 
Q 4013 3213 3611 3725 
Q 3209 4238 2522 4238 
z
M 2522 4750 
Q 3503 4750 4090 4092 
Q 4678 3434 4678 2328 
Q 4678 1225 4090 567 
Q 3503 -91 2522 -91 
Q 1538 -91 948 565 
Q 359 1222 359 2328 
Q 359 3434 948 4092 
Q 1538 4750 2522 4750 
z
M 2694 5935 
L 3272 5935 
L 2559 5110 
L 2081 5110 
L 2694 5935 
z
" transform="scale(0.015625)"/>
       </defs>
       <use xlink:href="#DejaVuSans-4f"/>
       <use xlink:href="#DejaVuSans-54" x="78.710938"/>
       <use xlink:href="#DejaVuSans-52" x="139.794922"/>
       <use xlink:href="#DejaVuSans-41" x="205.277344"/>
       <use xlink:href="#DejaVuSans-20" x="273.685547"/>
       <use xlink:href="#DejaVuSans-45" x="305.472656"/>
       <use xlink:href="#DejaVuSans-58" x="368.65625"/>
       <use xlink:href="#DejaVuSans-54" x="435.412109"/>
       <use xlink:href="#DejaVuSans-52" x="496.496094"/>
       <use xlink:href="#DejaVuSans-41" x="561.978516"/>
       <use xlink:href="#DejaVuSans-43" x="628.636719"/>
       <use xlink:href="#DejaVuSans-43" x="698.460938"/>
       <use xlink:href="#DejaVuSans-49" x="768.285156"/>
       <use xlink:href="#DejaVuSans-d3" x="797.777344"/>
       <use xlink:href="#DejaVuSans-4e" x="876.488281"/>
       <use xlink:href="#DejaVuSans-20" x="951.292969"/>
       <use xlink:href="#DejaVuSans-44" x="983.080078"/>
       <use xlink:href="#DejaVuSans-45" x="1060.082031"/>
       <use xlink:href="#DejaVuSans-20" x="1123.265625"/>
       <use xlink:href="#DejaVuSans-43" x="1155.052734"/>
       <use xlink:href="#DejaVuSans-41" x="1224.876953"/>
       <use xlink:href="#DejaVuSans-54" x="1285.535156"/>
       <use xlink:href="#DejaVuSans-41" x="1338.869141"/>
       <use xlink:href="#DejaVuSans-52" x="1407.277344"/>
       <use xlink:href="#DejaVuSans-41" x="1472.759766"/>
       <use xlink:href="#DejaVuSans-54" x="1533.417969"/>
       <use xlink:href="#DejaVuSans-41" x="1586.751953"/>
      </g>
     </g>
    </g>
    <g id="ytick_5">
     <g id="line2d_19">
      <path d="M 204.340469 300.24736 
L 993.210469 300.24736 
" clip-path="url(#p1111524713)" style="fill: none; stroke: #ffffff; stroke-width: 0.8; stroke-linecap: square"/>
     </g>
     <g id="line2d_20">
      <g>
       <use xlink:href="#m8444112346" x="204.340469" y="300.24736" style="fill: #555555; stroke: #555555; stroke-width: 0.8"/>
      </g>
     </g>
     <g id="text_11">
      <!-- INSERCIÓN DE PRÓTESIS DE CRISTALINO -->
      <g style="fill: #555555" transform="translate(13.934531 288.824251) scale(0.09 -0.09)">
       <use xlink:href="#DejaVuSans-49"/>
       <use xlink:href="#DejaVuSans-4e" x="29.492188"/>
       <use xlink:href="#DejaVuSans-53" x="104.296875"/>
       <use xlink:href="#DejaVuSans-45" x="167.773438"/>
       <use xlink:href="#DejaVuSans-52" x="230.957031"/>
       <use xlink:href="#DejaVuSans-43" x="295.439453"/>
       <use xlink:href="#DejaVuSans-49" x="365.263672"/>
       <use xlink:href="#DejaVuSans-d3" x="394.755859"/>
       <use xlink:href="#DejaVuSans-4e" x="473.466797"/>
       <use xlink:href="#DejaVuSans-20" x="548.271484"/>
       <use xlink:href="#DejaVuSans-44" x="580.058594"/>
       <use xlink:href="#DejaVuSans-45" x="657.060547"/>
       <use xlink:href="#DejaVuSans-20" x="720.244141"/>
       <use xlink:href="#DejaVuSans-50" x="752.03125"/>
       <use xlink:href="#DejaVuSans-52" x="812.333984"/>
       <use xlink:href="#DejaVuSans-d3" x="881.816406"/>
       <use xlink:href="#DejaVuSans-54" x="960.527344"/>
       <use xlink:href="#DejaVuSans-45" x="1021.611328"/>
       <use xlink:href="#DejaVuSans-53" x="1084.794922"/>
       <use xlink:href="#DejaVuSans-49" x="1148.271484"/>
       <use xlink:href="#DejaVuSans-53" x="1177.763672"/>
       <use xlink:href="#DejaVuSans-20" x="1241.240234"/>
       <use xlink:href="#DejaVuSans-44" x="1273.027344"/>
       <use xlink:href="#DejaVuSans-45" x="1350.029297"/>
       <use xlink:href="#DejaVuSans-20" x="1413.212891"/>
       <use xlink:href="#DejaVuSans-43" x="1445"/>
       <use xlink:href="#DejaVuSans-52" x="1514.824219"/>
       <use xlink:href="#DejaVuSans-49" x="1584.306641"/>
       <use xlink:href="#DejaVuSans-53" x="1613.798828"/>
       <use xlink:href="#DejaVuSans-54" x="1677.275391"/>
       <use xlink:href="#DejaVuSans-41" x="1730.609375"/>
       <use xlink:href="#DejaVuSans-4c" x="1799.017578"/>
       <use xlink:href="#DejaVuSans-49" x="1854.730469"/>
       <use xlink:href="#DejaVuSans-4e" x="1884.222656"/>
       <use xlink:href="#DejaVuSans-4f" x="1959.027344"/>
      </g>
      <!-- INTRAOCULAR EN EL MOMENTO DE LA -->
      <g style="fill: #555555" transform="translate(23.948437 298.902282) scale(0.09 -0.09)">
       <defs>
        <path id="DejaVuSans-55" d="M 556 4666 
L 1191 4666 
L 1191 1831 
Q 1191 1081 1462 751 
Q 1734 422 2344 422 
Q 2950 422 3222 751 
Q 3494 1081 3494 1831 
L 3494 4666 
L 4128 4666 
L 4128 1753 
Q 4128 841 3676 375 
Q 3225 -91 2344 -91 
Q 1459 -91 1007 375 
Q 556 841 556 1753 
L 556 4666 
z
" transform="scale(0.015625)"/>
       </defs>
       <use xlink:href="#DejaVuSans-49"/>
       <use xlink:href="#DejaVuSans-4e" x="29.492188"/>
       <use xlink:href="#DejaVuSans-54" x="104.296875"/>
       <use xlink:href="#DejaVuSans-52" x="165.380859"/>
       <use xlink:href="#DejaVuSans-41" x="230.863281"/>
       <use xlink:href="#DejaVuSans-4f" x="297.521484"/>
       <use xlink:href="#DejaVuSans-43" x="376.232422"/>
       <use xlink:href="#DejaVuSans-55" x="446.056641"/>
       <use xlink:href="#DejaVuSans-4c" x="519.25"/>
       <use xlink:href="#DejaVuSans-41" x="577.212891"/>
       <use xlink:href="#DejaVuSans-52" x="645.621094"/>
       <use xlink:href="#DejaVuSans-20" x="715.103516"/>
       <use xlink:href="#DejaVuSans-45" x="746.890625"/>
       <use xlink:href="#DejaVuSans-4e" x="810.074219"/>
       <use xlink:href="#DejaVuSans-20" x="884.878906"/>
       <use xlink:href="#DejaVuSans-45" x="916.666016"/>
       <use xlink:href="#DejaVuSans-4c" x="979.849609"/>
       <use xlink:href="#DejaVuSans-20" x="1035.5625"/>
       <use xlink:href="#DejaVuSans-4d" x="1067.349609"/>
       <use xlink:href="#DejaVuSans-4f" x="1153.628906"/>
       <use xlink:href="#DejaVuSans-4d" x="1232.339844"/>
       <use xlink:href="#DejaVuSans-45" x="1318.619141"/>
       <use xlink:href="#DejaVuSans-4e" x="1381.802734"/>
       <use xlink:href="#DejaVuSans-54" x="1456.607422"/>
       <use xlink:href="#DejaVuSans-4f" x="1517.691406"/>
       <use xlink:href="#DejaVuSans-20" x="1596.402344"/>
       <use xlink:href="#DejaVuSans-44" x="1628.189453"/>
       <use xlink:href="#DejaVuSans-45" x="1705.191406"/>
       <use xlink:href="#DejaVuSans-20" x="1768.375"/>
       <use xlink:href="#DejaVuSans-4c" x="1800.162109"/>
       <use xlink:href="#DejaVuSans-41" x="1858.125"/>
      </g>
      <!-- EXTRACCIÓN DE LA CATARATA, UNA SOLA -->
      <g style="fill: #555555" transform="translate(9.405 309.798751) scale(0.09 -0.09)">
       <defs>
        <path id="DejaVuSans-2c" d="M 750 794 
L 1409 794 
L 1409 256 
L 897 -744 
L 494 -744 
L 750 256 
L 750 794 
z
" transform="scale(0.015625)"/>
       </defs>
       <use xlink:href="#DejaVuSans-45"/>
       <use xlink:href="#DejaVuSans-58" x="63.183594"/>
       <use xlink:href="#DejaVuSans-54" x="129.939453"/>
       <use xlink:href="#DejaVuSans-52" x="191.023438"/>
       <use xlink:href="#DejaVuSans-41" x="256.505859"/>
       <use xlink:href="#DejaVuSans-43" x="323.164062"/>
       <use xlink:href="#DejaVuSans-43" x="392.988281"/>
       <use xlink:href="#DejaVuSans-49" x="462.8125"/>
       <use xlink:href="#DejaVuSans-d3" x="492.304688"/>
       <use xlink:href="#DejaVuSans-4e" x="571.015625"/>
       <use xlink:href="#DejaVuSans-20" x="645.820312"/>
       <use xlink:href="#DejaVuSans-44" x="677.607422"/>
       <use xlink:href="#DejaVuSans-45" x="754.609375"/>
       <use xlink:href="#DejaVuSans-20" x="817.792969"/>
       <use xlink:href="#DejaVuSans-4c" x="849.580078"/>
       <use xlink:href="#DejaVuSans-41" x="907.542969"/>
       <use xlink:href="#DejaVuSans-20" x="975.951172"/>
       <use xlink:href="#DejaVuSans-43" x="1007.738281"/>
       <use xlink:href="#DejaVuSans-41" x="1077.5625"/>
       <use xlink:href="#DejaVuSans-54" x="1138.220703"/>
       <use xlink:href="#DejaVuSans-41" x="1191.554688"/>
       <use xlink:href="#DejaVuSans-52" x="1259.962891"/>
       <use xlink:href="#DejaVuSans-41" x="1325.445312"/>
       <use xlink:href="#DejaVuSans-54" x="1386.103516"/>
       <use xlink:href="#DejaVuSans-41" x="1439.4375"/>
       <use xlink:href="#DejaVuSans-2c" x="1507.845703"/>
       <use xlink:href="#DejaVuSans-20" x="1539.632812"/>
       <use xlink:href="#DejaVuSans-55" x="1571.419922"/>
       <use xlink:href="#DejaVuSans-4e" x="1644.613281"/>
       <use xlink:href="#DejaVuSans-41" x="1719.417969"/>
       <use xlink:href="#DejaVuSans-20" x="1787.826172"/>
       <use xlink:href="#DejaVuSans-53" x="1819.613281"/>
       <use xlink:href="#DejaVuSans-4f" x="1883.089844"/>
       <use xlink:href="#DejaVuSans-4c" x="1961.800781"/>
       <use xlink:href="#DejaVuSans-41" x="2019.763672"/>
      </g>
      <!-- ETAPA -->
      <g style="fill: #555555" transform="translate(169.687969 319.876782) scale(0.09 -0.09)">
       <use xlink:href="#DejaVuSans-45"/>
       <use xlink:href="#DejaVuSans-54" x="63.183594"/>
       <use xlink:href="#DejaVuSans-41" x="116.517578"/>
       <use xlink:href="#DejaVuSans-50" x="184.925781"/>
       <use xlink:href="#DejaVuSans-41" x="238.853516"/>
      </g>
     </g>
    </g>
    <g id="ytick_6">
     <g id="line2d_21">
      <path d="M 204.340469 253.46814 
L 993.210469 253.46814 
" clip-path="url(#p1111524713)" style="fill: none; stroke: #ffffff; stroke-width: 0.8; stroke-linecap: square"/>
     </g>
     <g id="line2d_22">
      <g>
       <use xlink:href="#m8444112346" x="204.340469" y="253.46814" style="fill: #555555; stroke: #555555; stroke-width: 0.8"/>
      </g>
     </g>
     <g id="text_12">
      <!-- OTRA APENDICECTOMÍA -->
      <g style="fill: #555555" transform="translate(88.845469 256.887436) scale(0.09 -0.09)">
       <use xlink:href="#DejaVuSans-4f"/>
       <use xlink:href="#DejaVuSans-54" x="78.710938"/>
       <use xlink:href="#DejaVuSans-52" x="139.794922"/>
       <use xlink:href="#DejaVuSans-41" x="205.277344"/>
       <use xlink:href="#DejaVuSans-20" x="273.685547"/>
       <use xlink:href="#DejaVuSans-41" x="305.472656"/>
       <use xlink:href="#DejaVuSans-50" x="373.880859"/>
       <use xlink:href="#DejaVuSans-45" x="434.183594"/>
       <use xlink:href="#DejaVuSans-4e" x="497.367188"/>
       <use xlink:href="#DejaVuSans-44" x="572.171875"/>
       <use xlink:href="#DejaVuSans-49" x="649.173828"/>
       <use xlink:href="#DejaVuSans-43" x="678.666016"/>
       <use xlink:href="#DejaVuSans-45" x="748.490234"/>
       <use xlink:href="#DejaVuSans-43" x="811.673828"/>
       <use xlink:href="#DejaVuSans-54" x="881.498047"/>
       <use xlink:href="#DejaVuSans-4f" x="942.582031"/>
       <use xlink:href="#DejaVuSans-4d" x="1021.292969"/>
       <use xlink:href="#DejaVuSans-cd" x="1107.572266"/>
       <use xlink:href="#DejaVuSans-41" x="1137.064453"/>
      </g>
     </g>
    </g>
    <g id="ytick_7">
     <g id="line2d_23">
      <path d="M 204.340469 206.688919 
L 993.210469 206.688919 
" clip-path="url(#p1111524713)" style="fill: none; stroke: #ffffff; stroke-width: 0.8; stroke-linecap: square"/>
     </g>
     <g id="line2d_24">
      <g>
       <use xlink:href="#m8444112346" x="204.340469" y="206.688919" style="fill: #555555; stroke: #555555; stroke-width: 0.8"/>
      </g>
     </g>
     <g id="text_13">
      <!-- DILATACIÓN Y LEGRADO DESPUÉS DE -->
      <g style="fill: #555555" transform="translate(28.483594 205.753059) scale(0.09 -0.09)">
       <defs>
        <path id="DejaVuSans-47" d="M 3809 666 
L 3809 1919 
L 2778 1919 
L 2778 2438 
L 4434 2438 
L 4434 434 
Q 4069 175 3628 42 
Q 3188 -91 2688 -91 
Q 1594 -91 976 548 
Q 359 1188 359 2328 
Q 359 3472 976 4111 
Q 1594 4750 2688 4750 
Q 3144 4750 3555 4637 
Q 3966 4525 4313 4306 
L 4313 3634 
Q 3963 3931 3569 4081 
Q 3175 4231 2741 4231 
Q 1884 4231 1454 3753 
Q 1025 3275 1025 2328 
Q 1025 1384 1454 906 
Q 1884 428 2741 428 
Q 3075 428 3337 486 
Q 3600 544 3809 666 
z
" transform="scale(0.015625)"/>
        <path id="DejaVuSans-c9" d="M 628 4666 
L 3578 4666 
L 3578 4134 
L 1259 4134 
L 1259 2753 
L 3481 2753 
L 3481 2222 
L 1259 2222 
L 1259 531 
L 3634 531 
L 3634 0 
L 628 0 
L 628 4666 
z
M 2266 5935 
L 2844 5935 
L 2131 5110 
L 1653 5110 
L 2266 5935 
z
" transform="scale(0.015625)"/>
       </defs>
       <use xlink:href="#DejaVuSans-44"/>
       <use xlink:href="#DejaVuSans-49" x="77.001953"/>
       <use xlink:href="#DejaVuSans-4c" x="106.494141"/>
       <use xlink:href="#DejaVuSans-41" x="164.457031"/>
       <use xlink:href="#DejaVuSans-54" x="225.115234"/>
       <use xlink:href="#DejaVuSans-41" x="278.449219"/>
       <use xlink:href="#DejaVuSans-43" x="345.107422"/>
       <use xlink:href="#DejaVuSans-49" x="414.931641"/>
       <use xlink:href="#DejaVuSans-d3" x="444.423828"/>
       <use xlink:href="#DejaVuSans-4e" x="523.134766"/>
       <use xlink:href="#DejaVuSans-20" x="597.939453"/>
       <use xlink:href="#DejaVuSans-59" x="629.726562"/>
       <use xlink:href="#DejaVuSans-20" x="690.810547"/>
       <use xlink:href="#DejaVuSans-4c" x="722.597656"/>
       <use xlink:href="#DejaVuSans-45" x="778.310547"/>
       <use xlink:href="#DejaVuSans-47" x="841.494141"/>
       <use xlink:href="#DejaVuSans-52" x="918.984375"/>
       <use xlink:href="#DejaVuSans-41" x="984.466797"/>
       <use xlink:href="#DejaVuSans-44" x="1052.875"/>
       <use xlink:href="#DejaVuSans-4f" x="1129.876953"/>
       <use xlink:href="#DejaVuSans-20" x="1208.587891"/>
       <use xlink:href="#DejaVuSans-44" x="1240.375"/>
       <use xlink:href="#DejaVuSans-45" x="1317.376953"/>
       <use xlink:href="#DejaVuSans-53" x="1380.560547"/>
       <use xlink:href="#DejaVuSans-50" x="1444.037109"/>
       <use xlink:href="#DejaVuSans-55" x="1504.339844"/>
       <use xlink:href="#DejaVuSans-c9" x="1577.533203"/>
       <use xlink:href="#DejaVuSans-53" x="1640.716797"/>
       <use xlink:href="#DejaVuSans-20" x="1704.193359"/>
       <use xlink:href="#DejaVuSans-44" x="1735.980469"/>
       <use xlink:href="#DejaVuSans-45" x="1812.982422"/>
      </g>
      <!-- PARTO O ABORTO -->
      <g style="fill: #555555" transform="translate(117.901406 215.831091) scale(0.09 -0.09)">
       <use xlink:href="#DejaVuSans-50"/>
       <use xlink:href="#DejaVuSans-41" x="53.927734"/>
       <use xlink:href="#DejaVuSans-52" x="122.335938"/>
       <use xlink:href="#DejaVuSans-54" x="184.568359"/>
       <use xlink:href="#DejaVuSans-4f" x="245.652344"/>
       <use xlink:href="#DejaVuSans-20" x="324.363281"/>
       <use xlink:href="#DejaVuSans-4f" x="356.150391"/>
       <use xlink:href="#DejaVuSans-20" x="434.861328"/>
       <use xlink:href="#DejaVuSans-41" x="466.648438"/>
       <use xlink:href="#DejaVuSans-42" x="535.056641"/>
       <use xlink:href="#DejaVuSans-4f" x="601.910156"/>
       <use xlink:href="#DejaVuSans-52" x="680.621094"/>
       <use xlink:href="#DejaVuSans-54" x="742.853516"/>
       <use xlink:href="#DejaVuSans-4f" x="803.9375"/>
      </g>
     </g>
    </g>
    <g id="ytick_8">
     <g id="line2d_25">
      <path d="M 204.340469 159.909698 
L 993.210469 159.909698 
" clip-path="url(#p1111524713)" style="fill: none; stroke: #ffffff; stroke-width: 0.8; stroke-linecap: square"/>
     </g>
     <g id="line2d_26">
      <g>
       <use xlink:href="#m8444112346" x="204.340469" y="159.909698" style="fill: #555555; stroke: #555555; stroke-width: 0.8"/>
      </g>
     </g>
     <g id="text_14">
      <!-- COLECISTECTOMÍA LAPAROSCÓPICA -->
      <g style="fill: #555555" transform="translate(33.802031 163.328995) scale(0.09 -0.09)">
       <use xlink:href="#DejaVuSans-43"/>
       <use xlink:href="#DejaVuSans-4f" x="69.824219"/>
       <use xlink:href="#DejaVuSans-4c" x="148.535156"/>
       <use xlink:href="#DejaVuSans-45" x="204.248047"/>
       <use xlink:href="#DejaVuSans-43" x="267.431641"/>
       <use xlink:href="#DejaVuSans-49" x="337.255859"/>
       <use xlink:href="#DejaVuSans-53" x="366.748047"/>
       <use xlink:href="#DejaVuSans-54" x="430.224609"/>
       <use xlink:href="#DejaVuSans-45" x="491.308594"/>
       <use xlink:href="#DejaVuSans-43" x="554.492188"/>
       <use xlink:href="#DejaVuSans-54" x="624.316406"/>
       <use xlink:href="#DejaVuSans-4f" x="685.400391"/>
       <use xlink:href="#DejaVuSans-4d" x="764.111328"/>
       <use xlink:href="#DejaVuSans-cd" x="850.390625"/>
       <use xlink:href="#DejaVuSans-41" x="879.882812"/>
       <use xlink:href="#DejaVuSans-20" x="948.291016"/>
       <use xlink:href="#DejaVuSans-4c" x="980.078125"/>
       <use xlink:href="#DejaVuSans-41" x="1038.041016"/>
       <use xlink:href="#DejaVuSans-50" x="1106.449219"/>
       <use xlink:href="#DejaVuSans-41" x="1160.376953"/>
       <use xlink:href="#DejaVuSans-52" x="1228.785156"/>
       <use xlink:href="#DejaVuSans-4f" x="1298.267578"/>
       <use xlink:href="#DejaVuSans-53" x="1376.978516"/>
       <use xlink:href="#DejaVuSans-43" x="1440.455078"/>
       <use xlink:href="#DejaVuSans-d3" x="1510.279297"/>
       <use xlink:href="#DejaVuSans-50" x="1588.990234"/>
       <use xlink:href="#DejaVuSans-49" x="1649.292969"/>
       <use xlink:href="#DejaVuSans-43" x="1678.785156"/>
       <use xlink:href="#DejaVuSans-41" x="1748.609375"/>
      </g>
     </g>
    </g>
    <g id="ytick_9">
     <g id="line2d_27">
      <path d="M 204.340469 113.130477 
L 993.210469 113.130477 
" clip-path="url(#p1111524713)" style="fill: none; stroke: #ffffff; stroke-width: 0.8; stroke-linecap: square"/>
     </g>
     <g id="line2d_28">
      <g>
       <use xlink:href="#m8444112346" x="204.340469" y="113.130477" style="fill: #555555; stroke: #555555; stroke-width: 0.8"/>
      </g>
     </g>
     <g id="text_15">
      <!-- OTRA DESTRUCCIÓN U OCLUSIÓN -->
      <g style="fill: #555555" transform="translate(45.12375 112.194618) scale(0.09 -0.09)">
       <use xlink:href="#DejaVuSans-4f"/>
       <use xlink:href="#DejaVuSans-54" x="78.710938"/>
       <use xlink:href="#DejaVuSans-52" x="139.794922"/>
       <use xlink:href="#DejaVuSans-41" x="205.277344"/>
       <use xlink:href="#DejaVuSans-20" x="273.685547"/>
       <use xlink:href="#DejaVuSans-44" x="305.472656"/>
       <use xlink:href="#DejaVuSans-45" x="382.474609"/>
       <use xlink:href="#DejaVuSans-53" x="445.658203"/>
       <use xlink:href="#DejaVuSans-54" x="509.134766"/>
       <use xlink:href="#DejaVuSans-52" x="570.21875"/>
       <use xlink:href="#DejaVuSans-55" x="639.701172"/>
       <use xlink:href="#DejaVuSans-43" x="712.894531"/>
       <use xlink:href="#DejaVuSans-43" x="782.71875"/>
       <use xlink:href="#DejaVuSans-49" x="852.542969"/>
       <use xlink:href="#DejaVuSans-d3" x="882.035156"/>
       <use xlink:href="#DejaVuSans-4e" x="960.746094"/>
       <use xlink:href="#DejaVuSans-20" x="1035.550781"/>
       <use xlink:href="#DejaVuSans-55" x="1067.337891"/>
       <use xlink:href="#DejaVuSans-20" x="1140.53125"/>
       <use xlink:href="#DejaVuSans-4f" x="1172.318359"/>
       <use xlink:href="#DejaVuSans-43" x="1251.029297"/>
       <use xlink:href="#DejaVuSans-4c" x="1320.853516"/>
       <use xlink:href="#DejaVuSans-55" x="1371.566406"/>
       <use xlink:href="#DejaVuSans-53" x="1444.759766"/>
       <use xlink:href="#DejaVuSans-49" x="1508.236328"/>
       <use xlink:href="#DejaVuSans-d3" x="1537.728516"/>
       <use xlink:href="#DejaVuSans-4e" x="1616.439453"/>
      </g>
      <!-- BILATERAL DE LAS TROMPAS DE FALOPIO -->
      <g style="fill: #555555" transform="translate(12.187969 122.272649) scale(0.09 -0.09)">
       <use xlink:href="#DejaVuSans-42"/>
       <use xlink:href="#DejaVuSans-49" x="68.603516"/>
       <use xlink:href="#DejaVuSans-4c" x="98.095703"/>
       <use xlink:href="#DejaVuSans-41" x="156.058594"/>
       <use xlink:href="#DejaVuSans-54" x="216.716797"/>
       <use xlink:href="#DejaVuSans-45" x="277.800781"/>
       <use xlink:href="#DejaVuSans-52" x="340.984375"/>
       <use xlink:href="#DejaVuSans-41" x="406.466797"/>
       <use xlink:href="#DejaVuSans-4c" x="474.875"/>
       <use xlink:href="#DejaVuSans-20" x="530.587891"/>
       <use xlink:href="#DejaVuSans-44" x="562.375"/>
       <use xlink:href="#DejaVuSans-45" x="639.376953"/>
       <use xlink:href="#DejaVuSans-20" x="702.560547"/>
       <use xlink:href="#DejaVuSans-4c" x="734.347656"/>
       <use xlink:href="#DejaVuSans-41" x="792.310547"/>
       <use xlink:href="#DejaVuSans-53" x="860.71875"/>
       <use xlink:href="#DejaVuSans-20" x="924.195312"/>
       <use xlink:href="#DejaVuSans-54" x="955.982422"/>
       <use xlink:href="#DejaVuSans-52" x="1017.066406"/>
       <use xlink:href="#DejaVuSans-4f" x="1086.548828"/>
       <use xlink:href="#DejaVuSans-4d" x="1165.259766"/>
       <use xlink:href="#DejaVuSans-50" x="1251.539062"/>
       <use xlink:href="#DejaVuSans-41" x="1305.466797"/>
       <use xlink:href="#DejaVuSans-53" x="1373.875"/>
       <use xlink:href="#DejaVuSans-20" x="1437.351562"/>
       <use xlink:href="#DejaVuSans-44" x="1469.138672"/>
       <use xlink:href="#DejaVuSans-45" x="1546.140625"/>
       <use xlink:href="#DejaVuSans-20" x="1609.324219"/>
       <use xlink:href="#DejaVuSans-46" x="1641.111328"/>
       <use xlink:href="#DejaVuSans-41" x="1689.505859"/>
       <use xlink:href="#DejaVuSans-4c" x="1757.914062"/>
       <use xlink:href="#DejaVuSans-4f" x="1810.001953"/>
       <use xlink:href="#DejaVuSans-50" x="1888.712891"/>
       <use xlink:href="#DejaVuSans-49" x="1949.015625"/>
       <use xlink:href="#DejaVuSans-4f" x="1978.507812"/>
      </g>
     </g>
    </g>
    <g id="ytick_10">
     <g id="line2d_29">
      <path d="M 204.340469 66.351256 
L 993.210469 66.351256 
" clip-path="url(#p1111524713)" style="fill: none; stroke: #ffffff; stroke-width: 0.8; stroke-linecap: square"/>
     </g>
     <g id="line2d_30">
      <g>
       <use xlink:href="#m8444112346" x="204.340469" y="66.351256" style="fill: #555555; stroke: #555555; stroke-width: 0.8"/>
      </g>
     </g>
     <g id="text_16">
      <!-- CESÁREA CLÁSICA BAJA -->
      <g style="fill: #555555" transform="translate(90.059062 70.489147) scale(0.09 -0.09)">
       <defs>
        <path id="DejaVuSans-c1" d="M 2188 4044 
L 1331 1722 
L 3047 1722 
L 2188 4044 
z
M 1831 4666 
L 2547 4666 
L 4325 0 
L 3669 0 
L 3244 1197 
L 1141 1197 
L 716 0 
L 50 0 
L 1831 4666 
z
M 2359 5935 
L 2938 5935 
L 2225 5110 
L 1747 5110 
L 2359 5935 
z
" transform="scale(0.015625)"/>
        <path id="DejaVuSans-4a" d="M 628 4666 
L 1259 4666 
L 1259 325 
Q 1259 -519 939 -900 
Q 619 -1281 -91 -1281 
L -331 -1281 
L -331 -750 
L -134 -750 
Q 284 -750 456 -515 
Q 628 -281 628 325 
L 628 4666 
z
" transform="scale(0.015625)"/>
       </defs>
       <use xlink:href="#DejaVuSans-43"/>
       <use xlink:href="#DejaVuSans-45" x="69.824219"/>
       <use xlink:href="#DejaVuSans-53" x="133.007812"/>
       <use xlink:href="#DejaVuSans-c1" x="198.359375"/>
       <use xlink:href="#DejaVuSans-52" x="266.767578"/>
       <use xlink:href="#DejaVuSans-45" x="336.25"/>
       <use xlink:href="#DejaVuSans-41" x="399.433594"/>
       <use xlink:href="#DejaVuSans-20" x="467.841797"/>
       <use xlink:href="#DejaVuSans-43" x="499.628906"/>
       <use xlink:href="#DejaVuSans-4c" x="569.453125"/>
       <use xlink:href="#DejaVuSans-c1" x="627.416016"/>
       <use xlink:href="#DejaVuSans-53" x="695.824219"/>
       <use xlink:href="#DejaVuSans-49" x="759.300781"/>
       <use xlink:href="#DejaVuSans-43" x="788.792969"/>
       <use xlink:href="#DejaVuSans-41" x="858.617188"/>
       <use xlink:href="#DejaVuSans-20" x="927.025391"/>
       <use xlink:href="#DejaVuSans-42" x="958.8125"/>
       <use xlink:href="#DejaVuSans-41" x="1027.416016"/>
       <use xlink:href="#DejaVuSans-4a" x="1095.824219"/>
       <use xlink:href="#DejaVuSans-41" x="1123.566406"/>
      </g>
     </g>
    </g>
   </g>
   <g id="patch_3">
    <path d="M 204.340469 506.075932 
L 281.419086 506.075932 
L 281.419086 468.652555 
L 204.340469 468.652555 
z
" clip-path="url(#p1111524713)" style="fill: #1f77b4; opacity: 0.65; stroke: #000000; stroke-width: 0.5; stroke-linejoin: miter"/>
   </g>
   <g id="patch_4">
    <path d="M 204.340469 459.296711 
L 302.59453 459.296711 
L 302.59453 421.873334 
L 204.340469 421.873334 
z
" clip-path="url(#p1111524713)" style="fill: #1f77b4; opacity: 0.65; stroke: #000000; stroke-width: 0.5; stroke-linejoin: miter"/>
   </g>
   <g id="patch_5">
    <path d="M 204.340469 412.51749 
L 320.381903 412.51749 
L 320.381903 375.094114 
L 204.340469 375.094114 
z
" clip-path="url(#p1111524713)" style="fill: #1f77b4; opacity: 0.65; stroke: #000000; stroke-width: 0.5; stroke-linejoin: miter"/>
   </g>
   <g id="patch_6">
    <path d="M 204.340469 365.738269 
L 335.628223 365.738269 
L 335.628223 328.314893 
L 204.340469 328.314893 
z
" clip-path="url(#p1111524713)" style="fill: #1f77b4; opacity: 0.65; stroke: #000000; stroke-width: 0.5; stroke-linejoin: miter"/>
   </g>
   <g id="patch_7">
    <path d="M 204.340469 318.959049 
L 344.945419 318.959049 
L 344.945419 281.535672 
L 204.340469 281.535672 
z
" clip-path="url(#p1111524713)" style="fill: #1f77b4; opacity: 0.65; stroke: #000000; stroke-width: 0.5; stroke-linejoin: miter"/>
   </g>
   <g id="patch_8">
    <path d="M 204.340469 272.179828 
L 350.874543 272.179828 
L 350.874543 234.756451 
L 204.340469 234.756451 
z
" clip-path="url(#p1111524713)" style="fill: #1f77b4; opacity: 0.65; stroke: #000000; stroke-width: 0.5; stroke-linejoin: miter"/>
   </g>
   <g id="patch_9">
    <path d="M 204.340469 225.400607 
L 371.202969 225.400607 
L 371.202969 187.977231 
L 204.340469 187.977231 
z
" clip-path="url(#p1111524713)" style="fill: #1f77b4; opacity: 0.65; stroke: #000000; stroke-width: 0.5; stroke-linejoin: miter"/>
   </g>
   <g id="patch_10">
    <path d="M 204.340469 178.621386 
L 398.307538 178.621386 
L 398.307538 141.19801 
L 204.340469 141.19801 
z
" clip-path="url(#p1111524713)" style="fill: #1f77b4; opacity: 0.65; stroke: #000000; stroke-width: 0.5; stroke-linejoin: miter"/>
   </g>
   <g id="patch_11">
    <path d="M 204.340469 131.842166 
L 585.498465 131.842166 
L 585.498465 94.418789 
L 204.340469 94.418789 
z
" clip-path="url(#p1111524713)" style="fill: #1f77b4; opacity: 0.65; stroke: #000000; stroke-width: 0.5; stroke-linejoin: miter"/>
   </g>
   <g id="patch_12">
    <path d="M 204.340469 85.062945 
L 955.645231 85.062945 
L 955.645231 47.639568 
L 204.340469 47.639568 
z
" clip-path="url(#p1111524713)" style="fill: #1f77b4; opacity: 0.65; stroke: #000000; stroke-width: 0.5; stroke-linejoin: miter"/>
   </g>
   <g id="patch_13">
    <path d="M 204.340469 528.99775 
L 204.340469 24.71775 
" style="fill: none; stroke: #ffffff; stroke-linejoin: miter; stroke-linecap: square"/>
   </g>
   <g id="patch_14">
    <path d="M 993.210469 528.99775 
L 993.210469 24.71775 
" style="fill: none; stroke: #ffffff; stroke-linejoin: miter; stroke-linecap: square"/>
   </g>
   <g id="patch_15">
    <path d="M 204.340469 528.99775 
L 993.210469 528.99775 
" style="fill: none; stroke: #ffffff; stroke-linejoin: miter; stroke-linecap: square"/>
   </g>
   <g id="patch_16">
    <path d="M 204.340469 24.71775 
L 993.210469 24.71775 
" style="fill: none; stroke: #ffffff; stroke-linejoin: miter; stroke-linecap: square"/>
   </g>
   <g id="text_17">
    <!-- 91 -->
    <g transform="translate(284.419086 490.123619) scale(0.1 -0.1)">
     <defs>
      <path id="DejaVuSans-39" d="M 703 97 
L 703 672 
Q 941 559 1184 500 
Q 1428 441 1663 441 
Q 2288 441 2617 861 
Q 2947 1281 2994 2138 
Q 2813 1869 2534 1725 
Q 2256 1581 1919 1581 
Q 1219 1581 811 2004 
Q 403 2428 403 3163 
Q 403 3881 828 4315 
Q 1253 4750 1959 4750 
Q 2769 4750 3195 4129 
Q 3622 3509 3622 2328 
Q 3622 1225 3098 567 
Q 2575 -91 1691 -91 
Q 1453 -91 1209 -44 
Q 966 3 703 97 
z
M 1959 2075 
Q 2384 2075 2632 2365 
Q 2881 2656 2881 3163 
Q 2881 3666 2632 3958 
Q 2384 4250 1959 4250 
Q 1534 4250 1286 3958 
Q 1038 3666 1038 3163 
Q 1038 2656 1286 2365 
Q 1534 2075 1959 2075 
z
" transform="scale(0.015625)"/>
      <path id="DejaVuSans-31" d="M 794 531 
L 1825 531 
L 1825 4091 
L 703 3866 
L 703 4441 
L 1819 4666 
L 2450 4666 
L 2450 531 
L 3481 531 
L 3481 0 
L 794 0 
L 794 531 
z
" transform="scale(0.015625)"/>
     </defs>
     <use xlink:href="#DejaVuSans-39"/>
     <use xlink:href="#DejaVuSans-31" x="63.623047"/>
    </g>
   </g>
   <g id="text_18">
    <!-- 116 -->
    <g transform="translate(305.59453 443.344398) scale(0.1 -0.1)">
     <use xlink:href="#DejaVuSans-31"/>
     <use xlink:href="#DejaVuSans-31" x="63.623047"/>
     <use xlink:href="#DejaVuSans-36" x="127.246094"/>
    </g>
   </g>
   <g id="text_19">
    <!-- 137 -->
    <g transform="translate(323.381903 396.565177) scale(0.1 -0.1)">
     <defs>
      <path id="DejaVuSans-33" d="M 2597 2516 
Q 3050 2419 3304 2112 
Q 3559 1806 3559 1356 
Q 3559 666 3084 287 
Q 2609 -91 1734 -91 
Q 1441 -91 1130 -33 
Q 819 25 488 141 
L 488 750 
Q 750 597 1062 519 
Q 1375 441 1716 441 
Q 2309 441 2620 675 
Q 2931 909 2931 1356 
Q 2931 1769 2642 2001 
Q 2353 2234 1838 2234 
L 1294 2234 
L 1294 2753 
L 1863 2753 
Q 2328 2753 2575 2939 
Q 2822 3125 2822 3475 
Q 2822 3834 2567 4026 
Q 2313 4219 1838 4219 
Q 1578 4219 1281 4162 
Q 984 4106 628 3988 
L 628 4550 
Q 988 4650 1302 4700 
Q 1616 4750 1894 4750 
Q 2613 4750 3031 4423 
Q 3450 4097 3450 3541 
Q 3450 3153 3228 2886 
Q 3006 2619 2597 2516 
z
" transform="scale(0.015625)"/>
      <path id="DejaVuSans-37" d="M 525 4666 
L 3525 4666 
L 3525 4397 
L 1831 0 
L 1172 0 
L 2766 4134 
L 525 4134 
L 525 4666 
z
" transform="scale(0.015625)"/>
     </defs>
     <use xlink:href="#DejaVuSans-31"/>
     <use xlink:href="#DejaVuSans-33" x="63.623047"/>
     <use xlink:href="#DejaVuSans-37" x="127.246094"/>
    </g>
   </g>
   <g id="text_20">
    <!-- 155 -->
    <g transform="translate(338.628223 349.785956) scale(0.1 -0.1)">
     <defs>
      <path id="DejaVuSans-35" d="M 691 4666 
L 3169 4666 
L 3169 4134 
L 1269 4134 
L 1269 2991 
Q 1406 3038 1543 3061 
Q 1681 3084 1819 3084 
Q 2600 3084 3056 2656 
Q 3513 2228 3513 1497 
Q 3513 744 3044 326 
Q 2575 -91 1722 -91 
Q 1428 -91 1123 -41 
Q 819 9 494 109 
L 494 744 
Q 775 591 1075 516 
Q 1375 441 1709 441 
Q 2250 441 2565 725 
Q 2881 1009 2881 1497 
Q 2881 1984 2565 2268 
Q 2250 2553 1709 2553 
Q 1456 2553 1204 2497 
Q 953 2441 691 2322 
L 691 4666 
z
" transform="scale(0.015625)"/>
     </defs>
     <use xlink:href="#DejaVuSans-31"/>
     <use xlink:href="#DejaVuSans-35" x="63.623047"/>
     <use xlink:href="#DejaVuSans-35" x="127.246094"/>
    </g>
   </g>
   <g id="text_21">
    <!-- 166 -->
    <g transform="translate(347.945419 303.006735) scale(0.1 -0.1)">
     <use xlink:href="#DejaVuSans-31"/>
     <use xlink:href="#DejaVuSans-36" x="63.623047"/>
     <use xlink:href="#DejaVuSans-36" x="127.246094"/>
    </g>
   </g>
   <g id="text_22">
    <!-- 173 -->
    <g transform="translate(353.874543 256.227515) scale(0.1 -0.1)">
     <use xlink:href="#DejaVuSans-31"/>
     <use xlink:href="#DejaVuSans-37" x="63.623047"/>
     <use xlink:href="#DejaVuSans-33" x="127.246094"/>
    </g>
   </g>
   <g id="text_23">
    <!-- 197 -->
    <g transform="translate(374.202969 209.448294) scale(0.1 -0.1)">
     <use xlink:href="#DejaVuSans-31"/>
     <use xlink:href="#DejaVuSans-39" x="63.623047"/>
     <use xlink:href="#DejaVuSans-37" x="127.246094"/>
    </g>
   </g>
   <g id="text_24">
    <!-- 229 -->
    <g transform="translate(401.307538 162.669073) scale(0.1 -0.1)">
     <use xlink:href="#DejaVuSans-32"/>
     <use xlink:href="#DejaVuSans-32" x="63.623047"/>
     <use xlink:href="#DejaVuSans-39" x="127.246094"/>
    </g>
   </g>
   <g id="text_25">
    <!-- 450 -->
    <g transform="translate(588.498465 115.889852) scale(0.1 -0.1)">
     <use xlink:href="#DejaVuSans-34"/>
     <use xlink:href="#DejaVuSans-35" x="63.623047"/>
     <use xlink:href="#DejaVuSans-30" x="127.246094"/>
    </g>
   </g>
   <g id="text_26">
    <!-- 887 -->
    <g transform="translate(958.645231 69.110631) scale(0.1 -0.1)">
     <use xlink:href="#DejaVuSans-38"/>
     <use xlink:href="#DejaVuSans-38" x="63.623047"/>
     <use xlink:href="#DejaVuSans-37" x="127.246094"/>
    </g>
   </g>
   <g id="text_27">
    <!-- Procedimientos quirúrgico -->
    <g transform="translate(504.696219 18.71775) scale(0.144 -0.144)">
     <defs>
      <path id="DejaVuSans-63" d="M 3122 3366 
L 3122 2828 
Q 2878 2963 2633 3030 
Q 2388 3097 2138 3097 
Q 1578 3097 1268 2742 
Q 959 2388 959 1747 
Q 959 1106 1268 751 
Q 1578 397 2138 397 
Q 2388 397 2633 464 
Q 2878 531 3122 666 
L 3122 134 
Q 2881 22 2623 -34 
Q 2366 -91 2075 -91 
Q 1284 -91 818 406 
Q 353 903 353 1747 
Q 353 2603 823 3093 
Q 1294 3584 2113 3584 
Q 2378 3584 2631 3529 
Q 2884 3475 3122 3366 
z
" transform="scale(0.015625)"/>
      <path id="DejaVuSans-69" d="M 603 3500 
L 1178 3500 
L 1178 0 
L 603 0 
L 603 3500 
z
M 603 4863 
L 1178 4863 
L 1178 4134 
L 603 4134 
L 603 4863 
z
" transform="scale(0.015625)"/>
      <path id="DejaVuSans-6e" d="M 3513 2113 
L 3513 0 
L 2938 0 
L 2938 2094 
Q 2938 2591 2744 2837 
Q 2550 3084 2163 3084 
Q 1697 3084 1428 2787 
Q 1159 2491 1159 1978 
L 1159 0 
L 581 0 
L 581 3500 
L 1159 3500 
L 1159 2956 
Q 1366 3272 1645 3428 
Q 1925 3584 2291 3584 
Q 2894 3584 3203 3211 
Q 3513 2838 3513 2113 
z
" transform="scale(0.015625)"/>
      <path id="DejaVuSans-74" d="M 1172 4494 
L 1172 3500 
L 2356 3500 
L 2356 3053 
L 1172 3053 
L 1172 1153 
Q 1172 725 1289 603 
Q 1406 481 1766 481 
L 2356 481 
L 2356 0 
L 1766 0 
Q 1100 0 847 248 
Q 594 497 594 1153 
L 594 3053 
L 172 3053 
L 172 3500 
L 594 3500 
L 594 4494 
L 1172 4494 
z
" transform="scale(0.015625)"/>
      <path id="DejaVuSans-71" d="M 947 1747 
Q 947 1113 1208 752 
Q 1469 391 1925 391 
Q 2381 391 2643 752 
Q 2906 1113 2906 1747 
Q 2906 2381 2643 2742 
Q 2381 3103 1925 3103 
Q 1469 3103 1208 2742 
Q 947 2381 947 1747 
z
M 2906 525 
Q 2725 213 2448 61 
Q 2172 -91 1784 -91 
Q 1150 -91 751 415 
Q 353 922 353 1747 
Q 353 2572 751 3078 
Q 1150 3584 1784 3584 
Q 2172 3584 2448 3432 
Q 2725 3281 2906 2969 
L 2906 3500 
L 3481 3500 
L 3481 -1331 
L 2906 -1331 
L 2906 525 
z
" transform="scale(0.015625)"/>
      <path id="DejaVuSans-75" d="M 544 1381 
L 544 3500 
L 1119 3500 
L 1119 1403 
Q 1119 906 1312 657 
Q 1506 409 1894 409 
Q 2359 409 2629 706 
Q 2900 1003 2900 1516 
L 2900 3500 
L 3475 3500 
L 3475 0 
L 2900 0 
L 2900 538 
Q 2691 219 2414 64 
Q 2138 -91 1772 -91 
Q 1169 -91 856 284 
Q 544 659 544 1381 
z
M 1991 3584 
L 1991 3584 
z
" transform="scale(0.015625)"/>
     </defs>
     <use xlink:href="#DejaVuSans-50"/>
     <use xlink:href="#DejaVuSans-72" x="58.552734"/>
     <use xlink:href="#DejaVuSans-6f" x="97.416016"/>
     <use xlink:href="#DejaVuSans-63" x="158.597656"/>
     <use xlink:href="#DejaVuSans-65" x="213.578125"/>
     <use xlink:href="#DejaVuSans-64" x="275.101562"/>
     <use xlink:href="#DejaVuSans-69" x="338.578125"/>
     <use xlink:href="#DejaVuSans-6d" x="366.361328"/>
     <use xlink:href="#DejaVuSans-69" x="463.773438"/>
     <use xlink:href="#DejaVuSans-65" x="491.556641"/>
     <use xlink:href="#DejaVuSans-6e" x="553.080078"/>
     <use xlink:href="#DejaVuSans-74" x="616.458984"/>
     <use xlink:href="#DejaVuSans-6f" x="655.667969"/>
     <use xlink:href="#DejaVuSans-73" x="716.849609"/>
     <use xlink:href="#DejaVuSans-20" x="768.949219"/>
     <use xlink:href="#DejaVuSans-71" x="800.736328"/>
     <use xlink:href="#DejaVuSans-75" x="864.212891"/>
     <use xlink:href="#DejaVuSans-69" x="927.591797"/>
     <use xlink:href="#DejaVuSans-72" x="955.375"/>
     <use xlink:href="#DejaVuSans-fa" x="996.488281"/>
     <use xlink:href="#DejaVuSans-72" x="1059.867188"/>
     <use xlink:href="#DejaVuSans-67" x="1099.230469"/>
     <use xlink:href="#DejaVuSans-69" x="1162.707031"/>
     <use xlink:href="#DejaVuSans-63" x="1190.490234"/>
     <use xlink:href="#DejaVuSans-6f" x="1245.470703"/>
    </g>
   </g>
  </g>
 </g>
 <defs>
  <clipPath id="p1111524713">
   <rect x="204.340469" y="24.71775" width="788.87" height="504.28"/>
  </clipPath>
 </defs>
</svg>
