<?xml version="1.0" encoding="utf-8" standalone="no"?>
<!DOCTYPE svg PUBLIC "-//W3C//DTD SVG 1.1//EN"
  "http://www.w3.org/Graphics/SVG/1.1/DTD/svg11.dtd">
<svg xmlns:xlink="http://www.w3.org/1999/xlink" width="1000.674844pt" height="568.969625pt" viewBox="0 0 1000.674844 568.969625" xmlns="http://www.w3.org/2000/svg" version="1.1">
 <metadata>
  <rdf:RDF xmlns:dc="http://purl.org/dc/elements/1.1/" xmlns:cc="http://creativecommons.org/ns#" xmlns:rdf="http://www.w3.org/1999/02/22-rdf-syntax-ns#">
   <cc:Work>
    <dc:type rdf:resource="http://purl.org/dc/dcmitype/StillImage"/>
    <dc:date>2026-02-25T09:46:09.131167</dc:date>
    <dc:format>image/svg+xml</dc:format>
    <dc:creator>
     <cc:Agent>
      <dc:title>Matplotlib v3.6.3, https://matplotlib.org/</dc:title>
     </cc:Agent>
    </dc:creator>
   </cc:Work>
  </rdf:RDF>
 </metadata>
 <defs>
  <style type="text/css">*{stroke-linejoin: round; stroke-linecap: butt}</style>
 </defs>
 <g id="figure_1">
  <g id="patch_1">
   <path d="M 0 568.969625 
L 1000.674844 568.969625 
L 1000.674844 0 
L 0 0 
z
" style="fill: #ffffff"/>
  </g>
  <g id="axes_1">
   <g id="patch_2">
    <path d="M 204.604844 528.99775 
L 993.474844 528.99775 
L 993.474844 24.71775 
L 204.604844 24.71775 
z
" style="fill: #e5e5e5"/>
   </g>
   <g id="matplotlib.axis_1">
    <g id="xtick_1">
     <g id="line2d_1">
      <path d="M 204.604844 528.99775 
L 204.604844 24.71775 
" clip-path="url(#p1815b168b0)" style="fill: none; stroke: #ffffff; stroke-width: 0.8; stroke-linecap: square"/>
     </g>
     <g id="line2d_2">
      <defs>
       <path id="mf40acd2cb6" d="M 0 0 
L 0 3.5 
" style="stroke: #555555; stroke-width: 0.8"/>
      </defs>
      <g>
       <use xlink:href="#mf40acd2cb6" x="204.604844" y="528.99775" style="fill: #555555; stroke: #555555; stroke-width: 0.8"/>
      </g>
     </g>
     <g id="text_1">
      <!-- 0 -->
      <g style="fill: #555555" transform="translate(201.423594 543.596187) scale(0.1 -0.1)">
       <defs>
        <path id="DejaVuSans-30" d="M 2034 4250 
Q 1547 4250 1301 3770 
Q 1056 3291 1056 2328 
Q 1056 1369 1301 889 
Q 1547 409 2034 409 
Q 2525 409 2770 889 
Q 3016 1369 3016 2328 
Q 3016 3291 2770 3770 
Q 2525 4250 2034 4250 
z
M 2034 4750 
Q 2819 4750 3233 4129 
Q 3647 3509 3647 2328 
Q 3647 1150 3233 529 
Q 2819 -91 2034 -91 
Q 1250 -91 836 529 
Q 422 1150 422 2328 
Q 422 3509 836 4129 
Q 1250 4750 2034 4750 
z
" transform="scale(0.015625)"/>
       </defs>
       <use xlink:href="#DejaVuSans-30"/>
      </g>
     </g>
    </g>
    <g id="xtick_2">
     <g id="line2d_3">
      <path d="M 311.934095 528.99775 
L 311.934095 24.71775 
" clip-path="url(#p1815b168b0)" style="fill: none; stroke: #ffffff; stroke-width: 0.8; stroke-linecap: square"/>
     </g>
     <g id="line2d_4">
      <g>
       <use xlink:href="#mf40acd2cb6" x="311.934095" y="528.99775" style="fill: #555555; stroke: #555555; stroke-width: 0.8"/>
      </g>
     </g>
     <g id="text_2">
      <!-- 2 -->
      <g style="fill: #555555" transform="translate(308.752845 543.596187) scale(0.1 -0.1)">
       <defs>
        <path id="DejaVuSans-32" d="M 1228 531 
L 3431 531 
L 3431 0 
L 469 0 
L 469 531 
Q 828 903 1448 1529 
Q 2069 2156 2228 2338 
Q 2531 2678 2651 2914 
Q 2772 3150 2772 3378 
Q 2772 3750 2511 3984 
Q 2250 4219 1831 4219 
Q 1534 4219 1204 4116 
Q 875 4013 500 3803 
L 500 4441 
Q 881 4594 1212 4672 
Q 1544 4750 1819 4750 
Q 2544 4750 2975 4387 
Q 3406 4025 3406 3419 
Q 3406 3131 3298 2873 
Q 3191 2616 2906 2266 
Q 2828 2175 2409 1742 
Q 1991 1309 1228 531 
z
" transform="scale(0.015625)"/>
       </defs>
       <use xlink:href="#DejaVuSans-32"/>
      </g>
     </g>
    </g>
    <g id="xtick_3">
     <g id="line2d_5">
      <path d="M 419.263347 528.99775 
L 419.263347 24.71775 
" clip-path="url(#p1815b168b0)" style="fill: none; stroke: #ffffff; stroke-width: 0.8; stroke-linecap: square"/>
     </g>
     <g id="line2d_6">
      <g>
       <use xlink:href="#mf40acd2cb6" x="419.263347" y="528.99775" style="fill: #555555; stroke: #555555; stroke-width: 0.8"/>
      </g>
     </g>
     <g id="text_3">
      <!-- 4 -->
      <g style="fill: #555555" transform="translate(416.082097 543.596187) scale(0.1 -0.1)">
       <defs>
        <path id="DejaVuSans-34" d="M 2419 4116 
L 825 1625 
L 2419 1625 
L 2419 4116 
z
M 2253 4666 
L 3047 4666 
L 3047 1625 
L 3713 1625 
L 3713 1100 
L 3047 1100 
L 3047 0 
L 2419 0 
L 2419 1100 
L 313 1100 
L 313 1709 
L 2253 4666 
z
" transform="scale(0.015625)"/>
       </defs>
       <use xlink:href="#DejaVuSans-34"/>
      </g>
     </g>
    </g>
    <g id="xtick_4">
     <g id="line2d_7">
      <path d="M 526.592599 528.99775 
L 526.592599 24.71775 
" clip-path="url(#p1815b168b0)" style="fill: none; stroke: #ffffff; stroke-width: 0.8; stroke-linecap: square"/>
     </g>
     <g id="line2d_8">
      <g>
       <use xlink:href="#mf40acd2cb6" x="526.592599" y="528.99775" style="fill: #555555; stroke: #555555; stroke-width: 0.8"/>
      </g>
     </g>
     <g id="text_4">
      <!-- 6 -->
      <g style="fill: #555555" transform="translate(523.411349 543.596187) scale(0.1 -0.1)">
       <defs>
        <path id="DejaVuSans-36" d="M 2113 2584 
Q 1688 2584 1439 2293 
Q 1191 2003 1191 1497 
Q 1191 994 1439 701 
Q 1688 409 2113 409 
Q 2538 409 2786 701 
Q 3034 994 3034 1497 
Q 3034 2003 2786 2293 
Q 2538 2584 2113 2584 
z
M 3366 4563 
L 3366 3988 
Q 3128 4100 2886 4159 
Q 2644 4219 2406 4219 
Q 1781 4219 1451 3797 
Q 1122 3375 1075 2522 
Q 1259 2794 1537 2939 
Q 1816 3084 2150 3084 
Q 2853 3084 3261 2657 
Q 3669 2231 3669 1497 
Q 3669 778 3244 343 
Q 2819 -91 2113 -91 
Q 1303 -91 875 529 
Q 447 1150 447 2328 
Q 447 3434 972 4092 
Q 1497 4750 2381 4750 
Q 2619 4750 2861 4703 
Q 3103 4656 3366 4563 
z
" transform="scale(0.015625)"/>
       </defs>
       <use xlink:href="#DejaVuSans-36"/>
      </g>
     </g>
    </g>
    <g id="xtick_5">
     <g id="line2d_9">
      <path d="M 633.921851 528.99775 
L 633.921851 24.71775 
" clip-path="url(#p1815b168b0)" style="fill: none; stroke: #ffffff; stroke-width: 0.8; stroke-linecap: square"/>
     </g>
     <g id="line2d_10">
      <g>
       <use xlink:href="#mf40acd2cb6" x="633.921851" y="528.99775" style="fill: #555555; stroke: #555555; stroke-width: 0.8"/>
      </g>
     </g>
     <g id="text_5">
      <!-- 8 -->
      <g style="fill: #555555" transform="translate(630.740601 543.596187) scale(0.1 -0.1)">
       <defs>
        <path id="DejaVuSans-38" d="M 2034 2216 
Q 1584 2216 1326 1975 
Q 1069 1734 1069 1313 
Q 1069 891 1326 650 
Q 1584 409 2034 409 
Q 2484 409 2743 651 
Q 3003 894 3003 1313 
Q 3003 1734 2745 1975 
Q 2488 2216 2034 2216 
z
M 1403 2484 
Q 997 2584 770 2862 
Q 544 3141 544 3541 
Q 544 4100 942 4425 
Q 1341 4750 2034 4750 
Q 2731 4750 3128 4425 
Q 3525 4100 3525 3541 
Q 3525 3141 3298 2862 
Q 3072 2584 2669 2484 
Q 3125 2378 3379 2068 
Q 3634 1759 3634 1313 
Q 3634 634 3220 271 
Q 2806 -91 2034 -91 
Q 1263 -91 848 271 
Q 434 634 434 1313 
Q 434 1759 690 2068 
Q 947 2378 1403 2484 
z
M 1172 3481 
Q 1172 3119 1398 2916 
Q 1625 2713 2034 2713 
Q 2441 2713 2670 2916 
Q 2900 3119 2900 3481 
Q 2900 3844 2670 4047 
Q 2441 4250 2034 4250 
Q 1625 4250 1398 4047 
Q 1172 3844 1172 3481 
z
" transform="scale(0.015625)"/>
       </defs>
       <use xlink:href="#DejaVuSans-38"/>
      </g>
     </g>
    </g>
    <g id="xtick_6">
     <g id="line2d_11">
      <path d="M 741.251102 528.99775 
L 741.251102 24.71775 
" clip-path="url(#p1815b168b0)" style="fill: none; stroke: #ffffff; stroke-width: 0.8; stroke-linecap: square"/>
     </g>
     <g id="line2d_12">
      <g>
       <use xlink:href="#mf40acd2cb6" x="741.251102" y="528.99775" style="fill: #555555; stroke: #555555; stroke-width: 0.8"/>
      </g>
     </g>
     <g id="text_6">
      <!-- 10 -->
      <g style="fill: #555555" transform="translate(734.888602 543.596187) scale(0.1 -0.1)">
       <defs>
        <path id="DejaVuSans-31" d="M 794 531 
L 1825 531 
L 1825 4091 
L 703 3866 
L 703 4441 
L 1819 4666 
L 2450 4666 
L 2450 531 
L 3481 531 
L 3481 0 
L 794 0 
L 794 531 
z
" transform="scale(0.015625)"/>
       </defs>
       <use xlink:href="#DejaVuSans-31"/>
       <use xlink:href="#DejaVuSans-30" x="63.623047"/>
      </g>
     </g>
    </g>
    <g id="xtick_7">
     <g id="line2d_13">
      <path d="M 848.580354 528.99775 
L 848.580354 24.71775 
" clip-path="url(#p1815b168b0)" style="fill: none; stroke: #ffffff; stroke-width: 0.8; stroke-linecap: square"/>
     </g>
     <g id="line2d_14">
      <g>
       <use xlink:href="#mf40acd2cb6" x="848.580354" y="528.99775" style="fill: #555555; stroke: #555555; stroke-width: 0.8"/>
      </g>
     </g>
     <g id="text_7">
      <!-- 12 -->
      <g style="fill: #555555" transform="translate(842.217854 543.596187) scale(0.1 -0.1)">
       <use xlink:href="#DejaVuSans-31"/>
       <use xlink:href="#DejaVuSans-32" x="63.623047"/>
      </g>
     </g>
    </g>
    <g id="xtick_8">
     <g id="line2d_15">
      <path d="M 955.909606 528.99775 
L 955.909606 24.71775 
" clip-path="url(#p1815b168b0)" style="fill: none; stroke: #ffffff; stroke-width: 0.8; stroke-linecap: square"/>
     </g>
     <g id="line2d_16">
      <g>
       <use xlink:href="#mf40acd2cb6" x="955.909606" y="528.99775" style="fill: #555555; stroke: #555555; stroke-width: 0.8"/>
      </g>
     </g>
     <g id="text_8">
      <!-- 14 -->
      <g style="fill: #555555" transform="translate(949.547106 543.596187) scale(0.1 -0.1)">
       <use xlink:href="#DejaVuSans-31"/>
       <use xlink:href="#DejaVuSans-34" x="63.623047"/>
      </g>
     </g>
    </g>
    <g id="text_9">
     <!-- Número de egresos -->
     <g style="fill: #555555" transform="translate(540.447969 559.274) scale(0.12 -0.12)">
      <defs>
       <path id="DejaVuSans-4e" d="M 628 4666 
L 1478 4666 
L 3547 763 
L 3547 4666 
L 4159 4666 
L 4159 0 
L 3309 0 
L 1241 3903 
L 1241 0 
L 628 0 
L 628 4666 
z
" transform="scale(0.015625)"/>
       <path id="DejaVuSans-fa" d="M 544 1381 
L 544 3500 
L 1119 3500 
L 1119 1403 
Q 1119 906 1312 657 
Q 1506 409 1894 409 
Q 2359 409 2629 706 
Q 2900 1003 2900 1516 
L 2900 3500 
L 3475 3500 
L 3475 0 
L 2900 0 
L 2900 538 
Q 2691 219 2414 64 
Q 2138 -91 1772 -91 
Q 1169 -91 856 284 
Q 544 659 544 1381 
z
M 1991 3584 
L 1991 3584 
z
M 2419 5119 
L 3041 5119 
L 2022 3944 
L 1544 3944 
L 2419 5119 
z
" transform="scale(0.015625)"/>
       <path id="DejaVuSans-6d" d="M 3328 2828 
Q 3544 3216 3844 3400 
Q 4144 3584 4550 3584 
Q 5097 3584 5394 3201 
Q 5691 2819 5691 2113 
L 5691 0 
L 5113 0 
L 5113 2094 
Q 5113 2597 4934 2840 
Q 4756 3084 4391 3084 
Q 3944 3084 3684 2787 
Q 3425 2491 3425 1978 
L 3425 0 
L 2847 0 
L 2847 2094 
Q 2847 2600 2669 2842 
Q 2491 3084 2119 3084 
Q 1678 3084 1418 2786 
Q 1159 2488 1159 1978 
L 1159 0 
L 581 0 
L 581 3500 
L 1159 3500 
L 1159 2956 
Q 1356 3278 1631 3431 
Q 1906 3584 2284 3584 
Q 2666 3584 2933 3390 
Q 3200 3197 3328 2828 
z
" transform="scale(0.015625)"/>
       <path id="DejaVuSans-65" d="M 3597 1894 
L 3597 1613 
L 953 1613 
Q 991 1019 1311 708 
Q 1631 397 2203 397 
Q 2534 397 2845 478 
Q 3156 559 3463 722 
L 3463 178 
Q 3153 47 2828 -22 
Q 2503 -91 2169 -91 
Q 1331 -91 842 396 
Q 353 884 353 1716 
Q 353 2575 817 3079 
Q 1281 3584 2069 3584 
Q 2775 3584 3186 3129 
Q 3597 2675 3597 1894 
z
M 3022 2063 
Q 3016 2534 2758 2815 
Q 2500 3097 2075 3097 
Q 1594 3097 1305 2825 
Q 1016 2553 972 2059 
L 3022 2063 
z
" transform="scale(0.015625)"/>
       <path id="DejaVuSans-72" d="M 2631 2963 
Q 2534 3019 2420 3045 
Q 2306 3072 2169 3072 
Q 1681 3072 1420 2755 
Q 1159 2438 1159 1844 
L 1159 0 
L 581 0 
L 581 3500 
L 1159 3500 
L 1159 2956 
Q 1341 3275 1631 3429 
Q 1922 3584 2338 3584 
Q 2397 3584 2469 3576 
Q 2541 3569 2628 3553 
L 2631 2963 
z
" transform="scale(0.015625)"/>
       <path id="DejaVuSans-6f" d="M 1959 3097 
Q 1497 3097 1228 2736 
Q 959 2375 959 1747 
Q 959 1119 1226 758 
Q 1494 397 1959 397 
Q 2419 397 2687 759 
Q 2956 1122 2956 1747 
Q 2956 2369 2687 2733 
Q 2419 3097 1959 3097 
z
M 1959 3584 
Q 2709 3584 3137 3096 
Q 3566 2609 3566 1747 
Q 3566 888 3137 398 
Q 2709 -91 1959 -91 
Q 1206 -91 779 398 
Q 353 888 353 1747 
Q 353 2609 779 3096 
Q 1206 3584 1959 3584 
z
" transform="scale(0.015625)"/>
       <path id="DejaVuSans-20" transform="scale(0.015625)"/>
       <path id="DejaVuSans-64" d="M 2906 2969 
L 2906 4863 
L 3481 4863 
L 3481 0 
L 2906 0 
L 2906 525 
Q 2725 213 2448 61 
Q 2172 -91 1784 -91 
Q 1150 -91 751 415 
Q 353 922 353 1747 
Q 353 2572 751 3078 
Q 1150 3584 1784 3584 
Q 2172 3584 2448 3432 
Q 2725 3281 2906 2969 
z
M 947 1747 
Q 947 1113 1208 752 
Q 1469 391 1925 391 
Q 2381 391 2643 752 
Q 2906 1113 2906 1747 
Q 2906 2381 2643 2742 
Q 2381 3103 1925 3103 
Q 1469 3103 1208 2742 
Q 947 2381 947 1747 
z
" transform="scale(0.015625)"/>
       <path id="DejaVuSans-67" d="M 2906 1791 
Q 2906 2416 2648 2759 
Q 2391 3103 1925 3103 
Q 1463 3103 1205 2759 
Q 947 2416 947 1791 
Q 947 1169 1205 825 
Q 1463 481 1925 481 
Q 2391 481 2648 825 
Q 2906 1169 2906 1791 
z
M 3481 434 
Q 3481 -459 3084 -895 
Q 2688 -1331 1869 -1331 
Q 1566 -1331 1297 -1286 
Q 1028 -1241 775 -1147 
L 775 -588 
Q 1028 -725 1275 -790 
Q 1522 -856 1778 -856 
Q 2344 -856 2625 -561 
Q 2906 -266 2906 331 
L 2906 616 
Q 2728 306 2450 153 
Q 2172 0 1784 0 
Q 1141 0 747 490 
Q 353 981 353 1791 
Q 353 2603 747 3093 
Q 1141 3584 1784 3584 
Q 2172 3584 2450 3431 
Q 2728 3278 2906 2969 
L 2906 3500 
L 3481 3500 
L 3481 434 
z
" transform="scale(0.015625)"/>
       <path id="DejaVuSans-73" d="M 2834 3397 
L 2834 2853 
Q 2591 2978 2328 3040 
Q 2066 3103 1784 3103 
Q 1356 3103 1142 2972 
Q 928 2841 928 2578 
Q 928 2378 1081 2264 
Q 1234 2150 1697 2047 
L 1894 2003 
Q 2506 1872 2764 1633 
Q 3022 1394 3022 966 
Q 3022 478 2636 193 
Q 2250 -91 1575 -91 
Q 1294 -91 989 -36 
Q 684 19 347 128 
L 347 722 
Q 666 556 975 473 
Q 1284 391 1588 391 
Q 1994 391 2212 530 
Q 2431 669 2431 922 
Q 2431 1156 2273 1281 
Q 2116 1406 1581 1522 
L 1381 1569 
Q 847 1681 609 1914 
Q 372 2147 372 2553 
Q 372 3047 722 3315 
Q 1072 3584 1716 3584 
Q 2034 3584 2315 3537 
Q 2597 3491 2834 3397 
z
" transform="scale(0.015625)"/>
      </defs>
      <use xlink:href="#DejaVuSans-4e"/>
      <use xlink:href="#DejaVuSans-fa" x="74.804688"/>
      <use xlink:href="#DejaVuSans-6d" x="138.183594"/>
      <use xlink:href="#DejaVuSans-65" x="235.595703"/>
      <use xlink:href="#DejaVuSans-72" x="297.119141"/>
      <use xlink:href="#DejaVuSans-6f" x="335.982422"/>
      <use xlink:href="#DejaVuSans-20" x="397.164062"/>
      <use xlink:href="#DejaVuSans-64" x="428.951172"/>
      <use xlink:href="#DejaVuSans-65" x="492.427734"/>
      <use xlink:href="#DejaVuSans-20" x="553.951172"/>
      <use xlink:href="#DejaVuSans-65" x="585.738281"/>
      <use xlink:href="#DejaVuSans-67" x="647.261719"/>
      <use xlink:href="#DejaVuSans-72" x="710.738281"/>
      <use xlink:href="#DejaVuSans-65" x="749.601562"/>
      <use xlink:href="#DejaVuSans-73" x="811.125"/>
      <use xlink:href="#DejaVuSans-6f" x="863.224609"/>
      <use xlink:href="#DejaVuSans-73" x="924.40625"/>
     </g>
    </g>
   </g>
   <g id="matplotlib.axis_2">
    <g id="ytick_1">
     <g id="line2d_17">
      <path d="M 204.604844 479.109087 
L 993.474844 479.109087 
" clip-path="url(#p1815b168b0)" style="fill: none; stroke: #ffffff; stroke-width: 0.8; stroke-linecap: square"/>
     </g>
     <g id="line2d_18">
      <defs>
       <path id="m13c9761bf0" d="M 0 0 
L -3.5 0 
" style="stroke: #555555; stroke-width: 0.8"/>
      </defs>
      <g>
       <use xlink:href="#m13c9761bf0" x="204.604844" y="479.109087" style="fill: #555555; stroke: #555555; stroke-width: 0.8"/>
      </g>
     </g>
     <g id="text_10">
      <!-- EXTRACCIÓN SIN INCISIÓN DE CUERPO -->
      <g style="fill: #555555" transform="translate(22.481719 472.759587) scale(0.09 -0.09)">
       <defs>
        <path id="DejaVuSans-45" d="M 628 4666 
L 3578 4666 
L 3578 4134 
L 1259 4134 
L 1259 2753 
L 3481 2753 
L 3481 2222 
L 1259 2222 
L 1259 531 
L 3634 531 
L 3634 0 
L 628 0 
L 628 4666 
z
" transform="scale(0.015625)"/>
        <path id="DejaVuSans-58" d="M 403 4666 
L 1081 4666 
L 2241 2931 
L 3406 4666 
L 4084 4666 
L 2584 2425 
L 4184 0 
L 3506 0 
L 2194 1984 
L 872 0 
L 191 0 
L 1856 2491 
L 403 4666 
z
" transform="scale(0.015625)"/>
        <path id="DejaVuSans-54" d="M -19 4666 
L 3928 4666 
L 3928 4134 
L 2272 4134 
L 2272 0 
L 1638 0 
L 1638 4134 
L -19 4134 
L -19 4666 
z
" transform="scale(0.015625)"/>
        <path id="DejaVuSans-52" d="M 2841 2188 
Q 3044 2119 3236 1894 
Q 3428 1669 3622 1275 
L 4263 0 
L 3584 0 
L 2988 1197 
Q 2756 1666 2539 1819 
Q 2322 1972 1947 1972 
L 1259 1972 
L 1259 0 
L 628 0 
L 628 4666 
L 2053 4666 
Q 2853 4666 3247 4331 
Q 3641 3997 3641 3322 
Q 3641 2881 3436 2590 
Q 3231 2300 2841 2188 
z
M 1259 4147 
L 1259 2491 
L 2053 2491 
Q 2509 2491 2742 2702 
Q 2975 2913 2975 3322 
Q 2975 3731 2742 3939 
Q 2509 4147 2053 4147 
L 1259 4147 
z
" transform="scale(0.015625)"/>
        <path id="DejaVuSans-41" d="M 2188 4044 
L 1331 1722 
L 3047 1722 
L 2188 4044 
z
M 1831 4666 
L 2547 4666 
L 4325 0 
L 3669 0 
L 3244 1197 
L 1141 1197 
L 716 0 
L 50 0 
L 1831 4666 
z
" transform="scale(0.015625)"/>
        <path id="DejaVuSans-43" d="M 4122 4306 
L 4122 3641 
Q 3803 3938 3442 4084 
Q 3081 4231 2675 4231 
Q 1875 4231 1450 3742 
Q 1025 3253 1025 2328 
Q 1025 1406 1450 917 
Q 1875 428 2675 428 
Q 3081 428 3442 575 
Q 3803 722 4122 1019 
L 4122 359 
Q 3791 134 3420 21 
Q 3050 -91 2638 -91 
Q 1578 -91 968 557 
Q 359 1206 359 2328 
Q 359 3453 968 4101 
Q 1578 4750 2638 4750 
Q 3056 4750 3426 4639 
Q 3797 4528 4122 4306 
z
" transform="scale(0.015625)"/>
        <path id="DejaVuSans-49" d="M 628 4666 
L 1259 4666 
L 1259 0 
L 628 0 
L 628 4666 
z
" transform="scale(0.015625)"/>
        <path id="DejaVuSans-d3" d="M 2522 4238 
Q 1834 4238 1429 3725 
Q 1025 3213 1025 2328 
Q 1025 1447 1429 934 
Q 1834 422 2522 422 
Q 3209 422 3611 934 
Q 4013 1447 4013 2328 
Q 4013 3213 3611 3725 
Q 3209 4238 2522 4238 
z
M 2522 4750 
Q 3503 4750 4090 4092 
Q 4678 3434 4678 2328 
Q 4678 1225 4090 567 
Q 3503 -91 2522 -91 
Q 1538 -91 948 565 
Q 359 1222 359 2328 
Q 359 3434 948 4092 
Q 1538 4750 2522 4750 
z
M 2694 5935 
L 3272 5935 
L 2559 5110 
L 2081 5110 
L 2694 5935 
z
" transform="scale(0.015625)"/>
        <path id="DejaVuSans-53" d="M 3425 4513 
L 3425 3897 
Q 3066 4069 2747 4153 
Q 2428 4238 2131 4238 
Q 1616 4238 1336 4038 
Q 1056 3838 1056 3469 
Q 1056 3159 1242 3001 
Q 1428 2844 1947 2747 
L 2328 2669 
Q 3034 2534 3370 2195 
Q 3706 1856 3706 1288 
Q 3706 609 3251 259 
Q 2797 -91 1919 -91 
Q 1588 -91 1214 -16 
Q 841 59 441 206 
L 441 856 
Q 825 641 1194 531 
Q 1563 422 1919 422 
Q 2459 422 2753 634 
Q 3047 847 3047 1241 
Q 3047 1584 2836 1778 
Q 2625 1972 2144 2069 
L 1759 2144 
Q 1053 2284 737 2584 
Q 422 2884 422 3419 
Q 422 4038 858 4394 
Q 1294 4750 2059 4750 
Q 2388 4750 2728 4690 
Q 3069 4631 3425 4513 
z
" transform="scale(0.015625)"/>
        <path id="DejaVuSans-44" d="M 1259 4147 
L 1259 519 
L 2022 519 
Q 2988 519 3436 956 
Q 3884 1394 3884 2338 
Q 3884 3275 3436 3711 
Q 2988 4147 2022 4147 
L 1259 4147 
z
M 628 4666 
L 1925 4666 
Q 3281 4666 3915 4102 
Q 4550 3538 4550 2338 
Q 4550 1131 3912 565 
Q 3275 0 1925 0 
L 628 0 
L 628 4666 
z
" transform="scale(0.015625)"/>
        <path id="DejaVuSans-55" d="M 556 4666 
L 1191 4666 
L 1191 1831 
Q 1191 1081 1462 751 
Q 1734 422 2344 422 
Q 2950 422 3222 751 
Q 3494 1081 3494 1831 
L 3494 4666 
L 4128 4666 
L 4128 1753 
Q 4128 841 3676 375 
Q 3225 -91 2344 -91 
Q 1459 -91 1007 375 
Q 556 841 556 1753 
L 556 4666 
z
" transform="scale(0.015625)"/>
        <path id="DejaVuSans-50" d="M 1259 4147 
L 1259 2394 
L 2053 2394 
Q 2494 2394 2734 2622 
Q 2975 2850 2975 3272 
Q 2975 3691 2734 3919 
Q 2494 4147 2053 4147 
L 1259 4147 
z
M 628 4666 
L 2053 4666 
Q 2838 4666 3239 4311 
Q 3641 3956 3641 3272 
Q 3641 2581 3239 2228 
Q 2838 1875 2053 1875 
L 1259 1875 
L 1259 0 
L 628 0 
L 628 4666 
z
" transform="scale(0.015625)"/>
        <path id="DejaVuSans-4f" d="M 2522 4238 
Q 1834 4238 1429 3725 
Q 1025 3213 1025 2328 
Q 1025 1447 1429 934 
Q 1834 422 2522 422 
Q 3209 422 3611 934 
Q 4013 1447 4013 2328 
Q 4013 3213 3611 3725 
Q 3209 4238 2522 4238 
z
M 2522 4750 
Q 3503 4750 4090 4092 
Q 4678 3434 4678 2328 
Q 4678 1225 4090 567 
Q 3503 -91 2522 -91 
Q 1538 -91 948 565 
Q 359 1222 359 2328 
Q 359 3434 948 4092 
Q 1538 4750 2522 4750 
z
" transform="scale(0.015625)"/>
       </defs>
       <use xlink:href="#DejaVuSans-45"/>
       <use xlink:href="#DejaVuSans-58" x="63.183594"/>
       <use xlink:href="#DejaVuSans-54" x="129.939453"/>
       <use xlink:href="#DejaVuSans-52" x="191.023438"/>
       <use xlink:href="#DejaVuSans-41" x="256.505859"/>
       <use xlink:href="#DejaVuSans-43" x="323.164062"/>
       <use xlink:href="#DejaVuSans-43" x="392.988281"/>
       <use xlink:href="#DejaVuSans-49" x="462.8125"/>
       <use xlink:href="#DejaVuSans-d3" x="492.304688"/>
       <use xlink:href="#DejaVuSans-4e" x="571.015625"/>
       <use xlink:href="#DejaVuSans-20" x="645.820312"/>
       <use xlink:href="#DejaVuSans-53" x="677.607422"/>
       <use xlink:href="#DejaVuSans-49" x="741.083984"/>
       <use xlink:href="#DejaVuSans-4e" x="770.576172"/>
       <use xlink:href="#DejaVuSans-20" x="845.380859"/>
       <use xlink:href="#DejaVuSans-49" x="877.167969"/>
       <use xlink:href="#DejaVuSans-4e" x="906.660156"/>
       <use xlink:href="#DejaVuSans-43" x="981.464844"/>
       <use xlink:href="#DejaVuSans-49" x="1051.289062"/>
       <use xlink:href="#DejaVuSans-53" x="1080.78125"/>
       <use xlink:href="#DejaVuSans-49" x="1144.257812"/>
       <use xlink:href="#DejaVuSans-d3" x="1173.75"/>
       <use xlink:href="#DejaVuSans-4e" x="1252.460938"/>
       <use xlink:href="#DejaVuSans-20" x="1327.265625"/>
       <use xlink:href="#DejaVuSans-44" x="1359.052734"/>
       <use xlink:href="#DejaVuSans-45" x="1436.054688"/>
       <use xlink:href="#DejaVuSans-20" x="1499.238281"/>
       <use xlink:href="#DejaVuSans-43" x="1531.025391"/>
       <use xlink:href="#DejaVuSans-55" x="1600.849609"/>
       <use xlink:href="#DejaVuSans-45" x="1674.042969"/>
       <use xlink:href="#DejaVuSans-52" x="1737.226562"/>
       <use xlink:href="#DejaVuSans-50" x="1806.708984"/>
       <use xlink:href="#DejaVuSans-4f" x="1867.011719"/>
      </g>
      <!-- EXTRAÑO EN MIEMBRO SUPERIOR, SALVO -->
      <g style="fill: #555555" transform="translate(9.63 483.586868) scale(0.09 -0.09)">
       <defs>
        <path id="DejaVuSans-d1" d="M 628 4666 
L 1478 4666 
L 3547 763 
L 3547 4666 
L 4159 4666 
L 4159 0 
L 3309 0 
L 1241 3903 
L 1241 0 
L 628 0 
L 628 4666 
z
M 2381 5344 
L 2203 5447 
Q 2125 5491 2076 5508 
Q 2028 5525 1991 5525 
Q 1878 5525 1815 5447 
Q 1753 5369 1753 5229 
L 1753 5210 
L 1363 5210 
Q 1363 5525 1523 5709 
Q 1684 5894 1953 5894 
Q 2066 5894 2161 5869 
Q 2256 5844 2406 5760 
L 2584 5666 
Q 2656 5625 2709 5606 
Q 2763 5588 2809 5588 
Q 2909 5588 2971 5667 
Q 3034 5747 3034 5875 
L 3034 5894 
L 3425 5894 
Q 3419 5582 3258 5396 
Q 3097 5210 2834 5210 
Q 2728 5210 2636 5235 
Q 2544 5260 2381 5344 
z
" transform="scale(0.015625)"/>
        <path id="DejaVuSans-4d" d="M 628 4666 
L 1569 4666 
L 2759 1491 
L 3956 4666 
L 4897 4666 
L 4897 0 
L 4281 0 
L 4281 4097 
L 3078 897 
L 2444 897 
L 1241 4097 
L 1241 0 
L 628 0 
L 628 4666 
z
" transform="scale(0.015625)"/>
        <path id="DejaVuSans-42" d="M 1259 2228 
L 1259 519 
L 2272 519 
Q 2781 519 3026 730 
Q 3272 941 3272 1375 
Q 3272 1813 3026 2020 
Q 2781 2228 2272 2228 
L 1259 2228 
z
M 1259 4147 
L 1259 2741 
L 2194 2741 
Q 2656 2741 2882 2914 
Q 3109 3088 3109 3444 
Q 3109 3797 2882 3972 
Q 2656 4147 2194 4147 
L 1259 4147 
z
M 628 4666 
L 2241 4666 
Q 2963 4666 3353 4366 
Q 3744 4066 3744 3513 
Q 3744 3084 3544 2831 
Q 3344 2578 2956 2516 
Q 3422 2416 3680 2098 
Q 3938 1781 3938 1306 
Q 3938 681 3513 340 
Q 3088 0 2303 0 
L 628 0 
L 628 4666 
z
" transform="scale(0.015625)"/>
        <path id="DejaVuSans-2c" d="M 750 794 
L 1409 794 
L 1409 256 
L 897 -744 
L 494 -744 
L 750 256 
L 750 794 
z
" transform="scale(0.015625)"/>
        <path id="DejaVuSans-4c" d="M 628 4666 
L 1259 4666 
L 1259 531 
L 3531 531 
L 3531 0 
L 628 0 
L 628 4666 
z
" transform="scale(0.015625)"/>
        <path id="DejaVuSans-56" d="M 1831 0 
L 50 4666 
L 709 4666 
L 2188 738 
L 3669 4666 
L 4325 4666 
L 2547 0 
L 1831 0 
z
" transform="scale(0.015625)"/>
       </defs>
       <use xlink:href="#DejaVuSans-45"/>
       <use xlink:href="#DejaVuSans-58" x="63.183594"/>
       <use xlink:href="#DejaVuSans-54" x="129.939453"/>
       <use xlink:href="#DejaVuSans-52" x="191.023438"/>
       <use xlink:href="#DejaVuSans-41" x="256.505859"/>
       <use xlink:href="#DejaVuSans-d1" x="324.914062"/>
       <use xlink:href="#DejaVuSans-4f" x="399.71875"/>
       <use xlink:href="#DejaVuSans-20" x="478.429688"/>
       <use xlink:href="#DejaVuSans-45" x="510.216797"/>
       <use xlink:href="#DejaVuSans-4e" x="573.400391"/>
       <use xlink:href="#DejaVuSans-20" x="648.205078"/>
       <use xlink:href="#DejaVuSans-4d" x="679.992188"/>
       <use xlink:href="#DejaVuSans-49" x="766.271484"/>
       <use xlink:href="#DejaVuSans-45" x="795.763672"/>
       <use xlink:href="#DejaVuSans-4d" x="858.947266"/>
       <use xlink:href="#DejaVuSans-42" x="945.226562"/>
       <use xlink:href="#DejaVuSans-52" x="1013.830078"/>
       <use xlink:href="#DejaVuSans-4f" x="1083.3125"/>
       <use xlink:href="#DejaVuSans-20" x="1162.023438"/>
       <use xlink:href="#DejaVuSans-53" x="1193.810547"/>
       <use xlink:href="#DejaVuSans-55" x="1257.287109"/>
       <use xlink:href="#DejaVuSans-50" x="1330.480469"/>
       <use xlink:href="#DejaVuSans-45" x="1390.783203"/>
       <use xlink:href="#DejaVuSans-52" x="1453.966797"/>
       <use xlink:href="#DejaVuSans-49" x="1523.449219"/>
       <use xlink:href="#DejaVuSans-4f" x="1552.941406"/>
       <use xlink:href="#DejaVuSans-52" x="1631.652344"/>
       <use xlink:href="#DejaVuSans-2c" x="1701.134766"/>
       <use xlink:href="#DejaVuSans-20" x="1732.921875"/>
       <use xlink:href="#DejaVuSans-53" x="1764.708984"/>
       <use xlink:href="#DejaVuSans-41" x="1830.060547"/>
       <use xlink:href="#DejaVuSans-4c" x="1898.46875"/>
       <use xlink:href="#DejaVuSans-56" x="1943.181641"/>
       <use xlink:href="#DejaVuSans-4f" x="2009.839844"/>
      </g>
      <!-- DE LA MANO -->
      <g style="fill: #555555" transform="translate(140.153906 493.664899) scale(0.09 -0.09)">
       <use xlink:href="#DejaVuSans-44"/>
       <use xlink:href="#DejaVuSans-45" x="77.001953"/>
       <use xlink:href="#DejaVuSans-20" x="140.185547"/>
       <use xlink:href="#DejaVuSans-4c" x="171.972656"/>
       <use xlink:href="#DejaVuSans-41" x="229.935547"/>
       <use xlink:href="#DejaVuSans-20" x="298.34375"/>
       <use xlink:href="#DejaVuSans-4d" x="330.130859"/>
       <use xlink:href="#DejaVuSans-41" x="416.410156"/>
       <use xlink:href="#DejaVuSans-4e" x="484.818359"/>
       <use xlink:href="#DejaVuSans-4f" x="559.623047"/>
      </g>
     </g>
    </g>
    <g id="ytick_2">
     <g id="line2d_19">
      <path d="M 204.604844 411.691975 
L 993.474844 411.691975 
" clip-path="url(#p1815b168b0)" style="fill: none; stroke: #ffffff; stroke-width: 0.8; stroke-linecap: square"/>
     </g>
     <g id="line2d_20">
      <g>
       <use xlink:href="#m13c9761bf0" x="204.604844" y="411.691975" style="fill: #555555; stroke: #555555; stroke-width: 0.8"/>
      </g>
     </g>
     <g id="text_11">
      <!-- EXTRACCIÓN SIN INCISIÓN DE CUERPO -->
      <g style="fill: #555555" transform="translate(22.481719 410.756115) scale(0.09 -0.09)">
       <use xlink:href="#DejaVuSans-45"/>
       <use xlink:href="#DejaVuSans-58" x="63.183594"/>
       <use xlink:href="#DejaVuSans-54" x="129.939453"/>
       <use xlink:href="#DejaVuSans-52" x="191.023438"/>
       <use xlink:href="#DejaVuSans-41" x="256.505859"/>
       <use xlink:href="#DejaVuSans-43" x="323.164062"/>
       <use xlink:href="#DejaVuSans-43" x="392.988281"/>
       <use xlink:href="#DejaVuSans-49" x="462.8125"/>
       <use xlink:href="#DejaVuSans-d3" x="492.304688"/>
       <use xlink:href="#DejaVuSans-4e" x="571.015625"/>
       <use xlink:href="#DejaVuSans-20" x="645.820312"/>
       <use xlink:href="#DejaVuSans-53" x="677.607422"/>
       <use xlink:href="#DejaVuSans-49" x="741.083984"/>
       <use xlink:href="#DejaVuSans-4e" x="770.576172"/>
       <use xlink:href="#DejaVuSans-20" x="845.380859"/>
       <use xlink:href="#DejaVuSans-49" x="877.167969"/>
       <use xlink:href="#DejaVuSans-4e" x="906.660156"/>
       <use xlink:href="#DejaVuSans-43" x="981.464844"/>
       <use xlink:href="#DejaVuSans-49" x="1051.289062"/>
       <use xlink:href="#DejaVuSans-53" x="1080.78125"/>
       <use xlink:href="#DejaVuSans-49" x="1144.257812"/>
       <use xlink:href="#DejaVuSans-d3" x="1173.75"/>
       <use xlink:href="#DejaVuSans-4e" x="1252.460938"/>
       <use xlink:href="#DejaVuSans-20" x="1327.265625"/>
       <use xlink:href="#DejaVuSans-44" x="1359.052734"/>
       <use xlink:href="#DejaVuSans-45" x="1436.054688"/>
       <use xlink:href="#DejaVuSans-20" x="1499.238281"/>
       <use xlink:href="#DejaVuSans-43" x="1531.025391"/>
       <use xlink:href="#DejaVuSans-55" x="1600.849609"/>
       <use xlink:href="#DejaVuSans-45" x="1674.042969"/>
       <use xlink:href="#DejaVuSans-52" x="1737.226562"/>
       <use xlink:href="#DejaVuSans-50" x="1806.708984"/>
       <use xlink:href="#DejaVuSans-4f" x="1867.011719"/>
      </g>
      <!-- EXTRAÑO INTRALUMINAL DE LA NARIZ -->
      <g style="fill: #555555" transform="translate(24.73875 420.834146) scale(0.09 -0.09)">
       <defs>
        <path id="DejaVuSans-5a" d="M 359 4666 
L 4025 4666 
L 4025 4184 
L 1075 531 
L 4097 531 
L 4097 0 
L 288 0 
L 288 481 
L 3238 4134 
L 359 4134 
L 359 4666 
z
" transform="scale(0.015625)"/>
       </defs>
       <use xlink:href="#DejaVuSans-45"/>
       <use xlink:href="#DejaVuSans-58" x="63.183594"/>
       <use xlink:href="#DejaVuSans-54" x="129.939453"/>
       <use xlink:href="#DejaVuSans-52" x="191.023438"/>
       <use xlink:href="#DejaVuSans-41" x="256.505859"/>
       <use xlink:href="#DejaVuSans-d1" x="324.914062"/>
       <use xlink:href="#DejaVuSans-4f" x="399.71875"/>
       <use xlink:href="#DejaVuSans-20" x="478.429688"/>
       <use xlink:href="#DejaVuSans-49" x="510.216797"/>
       <use xlink:href="#DejaVuSans-4e" x="539.708984"/>
       <use xlink:href="#DejaVuSans-54" x="614.513672"/>
       <use xlink:href="#DejaVuSans-52" x="675.597656"/>
       <use xlink:href="#DejaVuSans-41" x="741.080078"/>
       <use xlink:href="#DejaVuSans-4c" x="809.488281"/>
       <use xlink:href="#DejaVuSans-55" x="860.201172"/>
       <use xlink:href="#DejaVuSans-4d" x="933.394531"/>
       <use xlink:href="#DejaVuSans-49" x="1019.673828"/>
       <use xlink:href="#DejaVuSans-4e" x="1049.166016"/>
       <use xlink:href="#DejaVuSans-41" x="1123.970703"/>
       <use xlink:href="#DejaVuSans-4c" x="1192.378906"/>
       <use xlink:href="#DejaVuSans-20" x="1248.091797"/>
       <use xlink:href="#DejaVuSans-44" x="1279.878906"/>
       <use xlink:href="#DejaVuSans-45" x="1356.880859"/>
       <use xlink:href="#DejaVuSans-20" x="1420.064453"/>
       <use xlink:href="#DejaVuSans-4c" x="1451.851562"/>
       <use xlink:href="#DejaVuSans-41" x="1509.814453"/>
       <use xlink:href="#DejaVuSans-20" x="1578.222656"/>
       <use xlink:href="#DejaVuSans-4e" x="1610.009766"/>
       <use xlink:href="#DejaVuSans-41" x="1684.814453"/>
       <use xlink:href="#DejaVuSans-52" x="1753.222656"/>
       <use xlink:href="#DejaVuSans-49" x="1822.705078"/>
       <use xlink:href="#DejaVuSans-5a" x="1852.197266"/>
      </g>
     </g>
    </g>
    <g id="ytick_3">
     <g id="line2d_21">
      <path d="M 204.604844 344.274862 
L 993.474844 344.274862 
" clip-path="url(#p1815b168b0)" style="fill: none; stroke: #ffffff; stroke-width: 0.8; stroke-linecap: square"/>
     </g>
     <g id="line2d_22">
      <g>
       <use xlink:href="#m13c9761bf0" x="204.604844" y="344.274862" style="fill: #555555; stroke: #555555; stroke-width: 0.8"/>
      </g>
     </g>
     <g id="text_12">
      <!-- LITOTRICIA POR ONDAS DE CHOQUE -->
      <g style="fill: #555555" transform="translate(33.072187 337.172175) scale(0.09 -0.09)">
       <defs>
        <path id="DejaVuSans-48" d="M 628 4666 
L 1259 4666 
L 1259 2753 
L 3553 2753 
L 3553 4666 
L 4184 4666 
L 4184 0 
L 3553 0 
L 3553 2222 
L 1259 2222 
L 1259 0 
L 628 0 
L 628 4666 
z
" transform="scale(0.015625)"/>
        <path id="DejaVuSans-51" d="M 2522 4238 
Q 1834 4238 1429 3725 
Q 1025 3213 1025 2328 
Q 1025 1447 1429 934 
Q 1834 422 2522 422 
Q 3209 422 3611 934 
Q 4013 1447 4013 2328 
Q 4013 3213 3611 3725 
Q 3209 4238 2522 4238 
z
M 3406 84 
L 4238 -825 
L 3475 -825 
L 2784 -78 
Q 2681 -84 2626 -87 
Q 2572 -91 2522 -91 
Q 1538 -91 948 567 
Q 359 1225 359 2328 
Q 359 3434 948 4092 
Q 1538 4750 2522 4750 
Q 3503 4750 4090 4092 
Q 4678 3434 4678 2328 
Q 4678 1516 4351 937 
Q 4025 359 3406 84 
z
" transform="scale(0.015625)"/>
       </defs>
       <use xlink:href="#DejaVuSans-4c"/>
       <use xlink:href="#DejaVuSans-49" x="55.712891"/>
       <use xlink:href="#DejaVuSans-54" x="85.205078"/>
       <use xlink:href="#DejaVuSans-4f" x="146.289062"/>
       <use xlink:href="#DejaVuSans-54" x="225"/>
       <use xlink:href="#DejaVuSans-52" x="286.083984"/>
       <use xlink:href="#DejaVuSans-49" x="355.566406"/>
       <use xlink:href="#DejaVuSans-43" x="385.058594"/>
       <use xlink:href="#DejaVuSans-49" x="454.882812"/>
       <use xlink:href="#DejaVuSans-41" x="484.375"/>
       <use xlink:href="#DejaVuSans-20" x="552.783203"/>
       <use xlink:href="#DejaVuSans-50" x="584.570312"/>
       <use xlink:href="#DejaVuSans-4f" x="644.873047"/>
       <use xlink:href="#DejaVuSans-52" x="723.583984"/>
       <use xlink:href="#DejaVuSans-20" x="793.066406"/>
       <use xlink:href="#DejaVuSans-4f" x="824.853516"/>
       <use xlink:href="#DejaVuSans-4e" x="903.564453"/>
       <use xlink:href="#DejaVuSans-44" x="978.369141"/>
       <use xlink:href="#DejaVuSans-41" x="1053.621094"/>
       <use xlink:href="#DejaVuSans-53" x="1122.029297"/>
       <use xlink:href="#DejaVuSans-20" x="1185.505859"/>
       <use xlink:href="#DejaVuSans-44" x="1217.292969"/>
       <use xlink:href="#DejaVuSans-45" x="1294.294922"/>
       <use xlink:href="#DejaVuSans-20" x="1357.478516"/>
       <use xlink:href="#DejaVuSans-43" x="1389.265625"/>
       <use xlink:href="#DejaVuSans-48" x="1459.089844"/>
       <use xlink:href="#DejaVuSans-4f" x="1534.285156"/>
       <use xlink:href="#DejaVuSans-51" x="1612.996094"/>
       <use xlink:href="#DejaVuSans-55" x="1691.707031"/>
       <use xlink:href="#DejaVuSans-45" x="1764.900391"/>
      </g>
      <!-- EXTRACORPORALES DEL RIÑÓN, DEL -->
      <g style="fill: #555555" transform="translate(31.757344 348.068644) scale(0.09 -0.09)">
       <use xlink:href="#DejaVuSans-45"/>
       <use xlink:href="#DejaVuSans-58" x="63.183594"/>
       <use xlink:href="#DejaVuSans-54" x="129.939453"/>
       <use xlink:href="#DejaVuSans-52" x="191.023438"/>
       <use xlink:href="#DejaVuSans-41" x="256.505859"/>
       <use xlink:href="#DejaVuSans-43" x="323.164062"/>
       <use xlink:href="#DejaVuSans-4f" x="392.988281"/>
       <use xlink:href="#DejaVuSans-52" x="471.699219"/>
       <use xlink:href="#DejaVuSans-50" x="541.181641"/>
       <use xlink:href="#DejaVuSans-4f" x="601.484375"/>
       <use xlink:href="#DejaVuSans-52" x="680.195312"/>
       <use xlink:href="#DejaVuSans-41" x="745.677734"/>
       <use xlink:href="#DejaVuSans-4c" x="814.085938"/>
       <use xlink:href="#DejaVuSans-45" x="869.798828"/>
       <use xlink:href="#DejaVuSans-53" x="932.982422"/>
       <use xlink:href="#DejaVuSans-20" x="996.458984"/>
       <use xlink:href="#DejaVuSans-44" x="1028.246094"/>
       <use xlink:href="#DejaVuSans-45" x="1105.248047"/>
       <use xlink:href="#DejaVuSans-4c" x="1168.431641"/>
       <use xlink:href="#DejaVuSans-20" x="1224.144531"/>
       <use xlink:href="#DejaVuSans-52" x="1255.931641"/>
       <use xlink:href="#DejaVuSans-49" x="1325.414062"/>
       <use xlink:href="#DejaVuSans-d1" x="1354.90625"/>
       <use xlink:href="#DejaVuSans-d3" x="1429.710938"/>
       <use xlink:href="#DejaVuSans-4e" x="1508.421875"/>
       <use xlink:href="#DejaVuSans-2c" x="1583.226562"/>
       <use xlink:href="#DejaVuSans-20" x="1615.013672"/>
       <use xlink:href="#DejaVuSans-44" x="1646.800781"/>
       <use xlink:href="#DejaVuSans-45" x="1723.802734"/>
       <use xlink:href="#DejaVuSans-4c" x="1786.986328"/>
      </g>
      <!-- URÉTER Y DE LA VEJIGA -->
      <g style="fill: #555555" transform="translate(90.4275 359.8713) scale(0.09 -0.09)">
       <defs>
        <path id="DejaVuSans-c9" d="M 628 4666 
L 3578 4666 
L 3578 4134 
L 1259 4134 
L 1259 2753 
L 3481 2753 
L 3481 2222 
L 1259 2222 
L 1259 531 
L 3634 531 
L 3634 0 
L 628 0 
L 628 4666 
z
M 2266 5935 
L 2844 5935 
L 2131 5110 
L 1653 5110 
L 2266 5935 
z
" transform="scale(0.015625)"/>
        <path id="DejaVuSans-59" d="M -13 4666 
L 666 4666 
L 1959 2747 
L 3244 4666 
L 3922 4666 
L 2272 2222 
L 2272 0 
L 1638 0 
L 1638 2222 
L -13 4666 
z
" transform="scale(0.015625)"/>
        <path id="DejaVuSans-4a" d="M 628 4666 
L 1259 4666 
L 1259 325 
Q 1259 -519 939 -900 
Q 619 -1281 -91 -1281 
L -331 -1281 
L -331 -750 
L -134 -750 
Q 284 -750 456 -515 
Q 628 -281 628 325 
L 628 4666 
z
" transform="scale(0.015625)"/>
        <path id="DejaVuSans-47" d="M 3809 666 
L 3809 1919 
L 2778 1919 
L 2778 2438 
L 4434 2438 
L 4434 434 
Q 4069 175 3628 42 
Q 3188 -91 2688 -91 
Q 1594 -91 976 548 
Q 359 1188 359 2328 
Q 359 3472 976 4111 
Q 1594 4750 2688 4750 
Q 3144 4750 3555 4637 
Q 3966 4525 4313 4306 
L 4313 3634 
Q 3963 3931 3569 4081 
Q 3175 4231 2741 4231 
Q 1884 4231 1454 3753 
Q 1025 3275 1025 2328 
Q 1025 1384 1454 906 
Q 1884 428 2741 428 
Q 3075 428 3337 486 
Q 3600 544 3809 666 
z
" transform="scale(0.015625)"/>
       </defs>
       <use xlink:href="#DejaVuSans-55"/>
       <use xlink:href="#DejaVuSans-52" x="73.193359"/>
       <use xlink:href="#DejaVuSans-c9" x="142.675781"/>
       <use xlink:href="#DejaVuSans-54" x="205.859375"/>
       <use xlink:href="#DejaVuSans-45" x="266.943359"/>
       <use xlink:href="#DejaVuSans-52" x="330.126953"/>
       <use xlink:href="#DejaVuSans-20" x="399.609375"/>
       <use xlink:href="#DejaVuSans-59" x="431.396484"/>
       <use xlink:href="#DejaVuSans-20" x="492.480469"/>
       <use xlink:href="#DejaVuSans-44" x="524.267578"/>
       <use xlink:href="#DejaVuSans-45" x="601.269531"/>
       <use xlink:href="#DejaVuSans-20" x="664.453125"/>
       <use xlink:href="#DejaVuSans-4c" x="696.240234"/>
       <use xlink:href="#DejaVuSans-41" x="754.203125"/>
       <use xlink:href="#DejaVuSans-20" x="822.611328"/>
       <use xlink:href="#DejaVuSans-56" x="854.398438"/>
       <use xlink:href="#DejaVuSans-45" x="922.806641"/>
       <use xlink:href="#DejaVuSans-4a" x="985.990234"/>
       <use xlink:href="#DejaVuSans-49" x="1015.482422"/>
       <use xlink:href="#DejaVuSans-47" x="1044.974609"/>
       <use xlink:href="#DejaVuSans-41" x="1122.464844"/>
      </g>
     </g>
    </g>
    <g id="ytick_4">
     <g id="line2d_23">
      <path d="M 204.604844 276.85775 
L 993.474844 276.85775 
" clip-path="url(#p1815b168b0)" style="fill: none; stroke: #ffffff; stroke-width: 0.8; stroke-linecap: square"/>
     </g>
     <g id="line2d_24">
      <g>
       <use xlink:href="#m13c9761bf0" x="204.604844" y="276.85775" style="fill: #555555; stroke: #555555; stroke-width: 0.8"/>
      </g>
     </g>
     <g id="text_13">
      <!-- IRRIGACIÓN DE URETEROSTOMÍA Y -->
      <g style="fill: #555555" transform="translate(39.441094 275.921891) scale(0.09 -0.09)">
       <defs>
        <path id="DejaVuSans-cd" d="M 628 4666 
L 1259 4666 
L 1259 0 
L 628 0 
L 628 4666 
z
M 1119 5935 
L 1697 5935 
L 984 5110 
L 506 5110 
L 1119 5935 
z
" transform="scale(0.015625)"/>
       </defs>
       <use xlink:href="#DejaVuSans-49"/>
       <use xlink:href="#DejaVuSans-52" x="29.492188"/>
       <use xlink:href="#DejaVuSans-52" x="98.974609"/>
       <use xlink:href="#DejaVuSans-49" x="168.457031"/>
       <use xlink:href="#DejaVuSans-47" x="197.949219"/>
       <use xlink:href="#DejaVuSans-41" x="275.439453"/>
       <use xlink:href="#DejaVuSans-43" x="342.097656"/>
       <use xlink:href="#DejaVuSans-49" x="411.921875"/>
       <use xlink:href="#DejaVuSans-d3" x="441.414062"/>
       <use xlink:href="#DejaVuSans-4e" x="520.125"/>
       <use xlink:href="#DejaVuSans-20" x="594.929688"/>
       <use xlink:href="#DejaVuSans-44" x="626.716797"/>
       <use xlink:href="#DejaVuSans-45" x="703.71875"/>
       <use xlink:href="#DejaVuSans-20" x="766.902344"/>
       <use xlink:href="#DejaVuSans-55" x="798.689453"/>
       <use xlink:href="#DejaVuSans-52" x="871.882812"/>
       <use xlink:href="#DejaVuSans-45" x="941.365234"/>
       <use xlink:href="#DejaVuSans-54" x="1004.548828"/>
       <use xlink:href="#DejaVuSans-45" x="1065.632812"/>
       <use xlink:href="#DejaVuSans-52" x="1128.816406"/>
       <use xlink:href="#DejaVuSans-4f" x="1198.298828"/>
       <use xlink:href="#DejaVuSans-53" x="1277.009766"/>
       <use xlink:href="#DejaVuSans-54" x="1340.486328"/>
       <use xlink:href="#DejaVuSans-4f" x="1401.570312"/>
       <use xlink:href="#DejaVuSans-4d" x="1480.28125"/>
       <use xlink:href="#DejaVuSans-cd" x="1566.560547"/>
       <use xlink:href="#DejaVuSans-41" x="1596.052734"/>
       <use xlink:href="#DejaVuSans-20" x="1664.460938"/>
       <use xlink:href="#DejaVuSans-59" x="1696.248047"/>
      </g>
      <!-- CATÉTER URETERAL -->
      <g style="fill: #555555" transform="translate(107.603437 285.999922) scale(0.09 -0.09)">
       <use xlink:href="#DejaVuSans-43"/>
       <use xlink:href="#DejaVuSans-41" x="69.824219"/>
       <use xlink:href="#DejaVuSans-54" x="130.482422"/>
       <use xlink:href="#DejaVuSans-c9" x="191.566406"/>
       <use xlink:href="#DejaVuSans-54" x="254.75"/>
       <use xlink:href="#DejaVuSans-45" x="315.833984"/>
       <use xlink:href="#DejaVuSans-52" x="379.017578"/>
       <use xlink:href="#DejaVuSans-20" x="448.5"/>
       <use xlink:href="#DejaVuSans-55" x="480.287109"/>
       <use xlink:href="#DejaVuSans-52" x="553.480469"/>
       <use xlink:href="#DejaVuSans-45" x="622.962891"/>
       <use xlink:href="#DejaVuSans-54" x="686.146484"/>
       <use xlink:href="#DejaVuSans-45" x="747.230469"/>
       <use xlink:href="#DejaVuSans-52" x="810.414062"/>
       <use xlink:href="#DejaVuSans-41" x="875.896484"/>
       <use xlink:href="#DejaVuSans-4c" x="944.304688"/>
      </g>
     </g>
    </g>
    <g id="ytick_5">
     <g id="line2d_25">
      <path d="M 204.604844 209.440638 
L 993.474844 209.440638 
" clip-path="url(#p1815b168b0)" style="fill: none; stroke: #ffffff; stroke-width: 0.8; stroke-linecap: square"/>
     </g>
     <g id="line2d_26">
      <g>
       <use xlink:href="#m13c9761bf0" x="204.604844" y="209.440638" style="fill: #555555; stroke: #555555; stroke-width: 0.8"/>
      </g>
     </g>
     <g id="text_14">
      <!-- EXTRACCIÓN SIN INCISIÓN DE CUERPO -->
      <g style="fill: #555555" transform="translate(22.481719 207.815013) scale(0.09 -0.09)">
       <use xlink:href="#DejaVuSans-45"/>
       <use xlink:href="#DejaVuSans-58" x="63.183594"/>
       <use xlink:href="#DejaVuSans-54" x="129.939453"/>
       <use xlink:href="#DejaVuSans-52" x="191.023438"/>
       <use xlink:href="#DejaVuSans-41" x="256.505859"/>
       <use xlink:href="#DejaVuSans-43" x="323.164062"/>
       <use xlink:href="#DejaVuSans-43" x="392.988281"/>
       <use xlink:href="#DejaVuSans-49" x="462.8125"/>
       <use xlink:href="#DejaVuSans-d3" x="492.304688"/>
       <use xlink:href="#DejaVuSans-4e" x="571.015625"/>
       <use xlink:href="#DejaVuSans-20" x="645.820312"/>
       <use xlink:href="#DejaVuSans-53" x="677.607422"/>
       <use xlink:href="#DejaVuSans-49" x="741.083984"/>
       <use xlink:href="#DejaVuSans-4e" x="770.576172"/>
       <use xlink:href="#DejaVuSans-20" x="845.380859"/>
       <use xlink:href="#DejaVuSans-49" x="877.167969"/>
       <use xlink:href="#DejaVuSans-4e" x="906.660156"/>
       <use xlink:href="#DejaVuSans-43" x="981.464844"/>
       <use xlink:href="#DejaVuSans-49" x="1051.289062"/>
       <use xlink:href="#DejaVuSans-53" x="1080.78125"/>
       <use xlink:href="#DejaVuSans-49" x="1144.257812"/>
       <use xlink:href="#DejaVuSans-d3" x="1173.75"/>
       <use xlink:href="#DejaVuSans-4e" x="1252.460938"/>
       <use xlink:href="#DejaVuSans-20" x="1327.265625"/>
       <use xlink:href="#DejaVuSans-44" x="1359.052734"/>
       <use xlink:href="#DejaVuSans-45" x="1436.054688"/>
       <use xlink:href="#DejaVuSans-20" x="1499.238281"/>
       <use xlink:href="#DejaVuSans-43" x="1531.025391"/>
       <use xlink:href="#DejaVuSans-55" x="1600.849609"/>
       <use xlink:href="#DejaVuSans-45" x="1674.042969"/>
       <use xlink:href="#DejaVuSans-52" x="1737.226562"/>
       <use xlink:href="#DejaVuSans-50" x="1806.708984"/>
       <use xlink:href="#DejaVuSans-4f" x="1867.011719"/>
      </g>
      <!-- EXTRAÑO SUPERFICIAL EN OJO -->
      <g style="fill: #555555" transform="translate(59.110312 219.548481) scale(0.09 -0.09)">
       <defs>
        <path id="DejaVuSans-46" d="M 628 4666 
L 3309 4666 
L 3309 4134 
L 1259 4134 
L 1259 2759 
L 3109 2759 
L 3109 2228 
L 1259 2228 
L 1259 0 
L 628 0 
L 628 4666 
z
" transform="scale(0.015625)"/>
       </defs>
       <use xlink:href="#DejaVuSans-45"/>
       <use xlink:href="#DejaVuSans-58" x="63.183594"/>
       <use xlink:href="#DejaVuSans-54" x="129.939453"/>
       <use xlink:href="#DejaVuSans-52" x="191.023438"/>
       <use xlink:href="#DejaVuSans-41" x="256.505859"/>
       <use xlink:href="#DejaVuSans-d1" x="324.914062"/>
       <use xlink:href="#DejaVuSans-4f" x="399.71875"/>
       <use xlink:href="#DejaVuSans-20" x="478.429688"/>
       <use xlink:href="#DejaVuSans-53" x="510.216797"/>
       <use xlink:href="#DejaVuSans-55" x="573.693359"/>
       <use xlink:href="#DejaVuSans-50" x="646.886719"/>
       <use xlink:href="#DejaVuSans-45" x="707.189453"/>
       <use xlink:href="#DejaVuSans-52" x="770.373047"/>
       <use xlink:href="#DejaVuSans-46" x="839.855469"/>
       <use xlink:href="#DejaVuSans-49" x="897.375"/>
       <use xlink:href="#DejaVuSans-43" x="926.867188"/>
       <use xlink:href="#DejaVuSans-49" x="996.691406"/>
       <use xlink:href="#DejaVuSans-41" x="1026.183594"/>
       <use xlink:href="#DejaVuSans-4c" x="1094.591797"/>
       <use xlink:href="#DejaVuSans-20" x="1150.304688"/>
       <use xlink:href="#DejaVuSans-45" x="1182.091797"/>
       <use xlink:href="#DejaVuSans-4e" x="1245.275391"/>
       <use xlink:href="#DejaVuSans-20" x="1320.080078"/>
       <use xlink:href="#DejaVuSans-4f" x="1351.867188"/>
       <use xlink:href="#DejaVuSans-4a" x="1430.578125"/>
       <use xlink:href="#DejaVuSans-4f" x="1460.070312"/>
      </g>
     </g>
    </g>
    <g id="ytick_6">
     <g id="line2d_27">
      <path d="M 204.604844 142.023525 
L 993.474844 142.023525 
" clip-path="url(#p1815b168b0)" style="fill: none; stroke: #ffffff; stroke-width: 0.8; stroke-linecap: square"/>
     </g>
     <g id="line2d_28">
      <g>
       <use xlink:href="#m13c9761bf0" x="204.604844" y="142.023525" style="fill: #555555; stroke: #555555; stroke-width: 0.8"/>
      </g>
     </g>
     <g id="text_15">
      <!-- OTRA IRRIGACIÓN DE HERIDA -->
      <g style="fill: #555555" transform="translate(63.935156 145.442822) scale(0.09 -0.09)">
       <use xlink:href="#DejaVuSans-4f"/>
       <use xlink:href="#DejaVuSans-54" x="78.710938"/>
       <use xlink:href="#DejaVuSans-52" x="139.794922"/>
       <use xlink:href="#DejaVuSans-41" x="205.277344"/>
       <use xlink:href="#DejaVuSans-20" x="273.685547"/>
       <use xlink:href="#DejaVuSans-49" x="305.472656"/>
       <use xlink:href="#DejaVuSans-52" x="334.964844"/>
       <use xlink:href="#DejaVuSans-52" x="404.447266"/>
       <use xlink:href="#DejaVuSans-49" x="473.929688"/>
       <use xlink:href="#DejaVuSans-47" x="503.421875"/>
       <use xlink:href="#DejaVuSans-41" x="580.912109"/>
       <use xlink:href="#DejaVuSans-43" x="647.570312"/>
       <use xlink:href="#DejaVuSans-49" x="717.394531"/>
       <use xlink:href="#DejaVuSans-d3" x="746.886719"/>
       <use xlink:href="#DejaVuSans-4e" x="825.597656"/>
       <use xlink:href="#DejaVuSans-20" x="900.402344"/>
       <use xlink:href="#DejaVuSans-44" x="932.189453"/>
       <use xlink:href="#DejaVuSans-45" x="1009.191406"/>
       <use xlink:href="#DejaVuSans-20" x="1072.375"/>
       <use xlink:href="#DejaVuSans-48" x="1104.162109"/>
       <use xlink:href="#DejaVuSans-45" x="1179.357422"/>
       <use xlink:href="#DejaVuSans-52" x="1242.541016"/>
       <use xlink:href="#DejaVuSans-49" x="1312.023438"/>
       <use xlink:href="#DejaVuSans-44" x="1341.515625"/>
       <use xlink:href="#DejaVuSans-41" x="1416.767578"/>
      </g>
     </g>
    </g>
    <g id="ytick_7">
     <g id="line2d_29">
      <path d="M 204.604844 74.606413 
L 993.474844 74.606413 
" clip-path="url(#p1815b168b0)" style="fill: none; stroke: #ffffff; stroke-width: 0.8; stroke-linecap: square"/>
     </g>
     <g id="line2d_30">
      <g>
       <use xlink:href="#m13c9761bf0" x="204.604844" y="74.606413" style="fill: #555555; stroke: #555555; stroke-width: 0.8"/>
      </g>
     </g>
     <g id="text_16">
      <!-- COLOCACIÓN DE PRÓTESIS ENCIMA DE LA -->
      <g style="fill: #555555" transform="translate(7.2 73.670554) scale(0.09 -0.09)">
       <use xlink:href="#DejaVuSans-43"/>
       <use xlink:href="#DejaVuSans-4f" x="69.824219"/>
       <use xlink:href="#DejaVuSans-4c" x="148.535156"/>
       <use xlink:href="#DejaVuSans-4f" x="200.623047"/>
       <use xlink:href="#DejaVuSans-43" x="279.333984"/>
       <use xlink:href="#DejaVuSans-41" x="349.158203"/>
       <use xlink:href="#DejaVuSans-43" x="415.816406"/>
       <use xlink:href="#DejaVuSans-49" x="485.640625"/>
       <use xlink:href="#DejaVuSans-d3" x="515.132812"/>
       <use xlink:href="#DejaVuSans-4e" x="593.84375"/>
       <use xlink:href="#DejaVuSans-20" x="668.648438"/>
       <use xlink:href="#DejaVuSans-44" x="700.435547"/>
       <use xlink:href="#DejaVuSans-45" x="777.4375"/>
       <use xlink:href="#DejaVuSans-20" x="840.621094"/>
       <use xlink:href="#DejaVuSans-50" x="872.408203"/>
       <use xlink:href="#DejaVuSans-52" x="932.710938"/>
       <use xlink:href="#DejaVuSans-d3" x="1002.193359"/>
       <use xlink:href="#DejaVuSans-54" x="1080.904297"/>
       <use xlink:href="#DejaVuSans-45" x="1141.988281"/>
       <use xlink:href="#DejaVuSans-53" x="1205.171875"/>
       <use xlink:href="#DejaVuSans-49" x="1268.648438"/>
       <use xlink:href="#DejaVuSans-53" x="1298.140625"/>
       <use xlink:href="#DejaVuSans-20" x="1361.617188"/>
       <use xlink:href="#DejaVuSans-45" x="1393.404297"/>
       <use xlink:href="#DejaVuSans-4e" x="1456.587891"/>
       <use xlink:href="#DejaVuSans-43" x="1531.392578"/>
       <use xlink:href="#DejaVuSans-49" x="1601.216797"/>
       <use xlink:href="#DejaVuSans-4d" x="1630.708984"/>
       <use xlink:href="#DejaVuSans-41" x="1716.988281"/>
       <use xlink:href="#DejaVuSans-20" x="1785.396484"/>
       <use xlink:href="#DejaVuSans-44" x="1817.183594"/>
       <use xlink:href="#DejaVuSans-45" x="1894.185547"/>
       <use xlink:href="#DejaVuSans-20" x="1957.369141"/>
       <use xlink:href="#DejaVuSans-4c" x="1989.15625"/>
       <use xlink:href="#DejaVuSans-41" x="2047.119141"/>
      </g>
      <!-- RODILLA -->
      <g style="fill: #555555" transform="translate(158.293125 83.748585) scale(0.09 -0.09)">
       <use xlink:href="#DejaVuSans-52"/>
       <use xlink:href="#DejaVuSans-4f" x="69.482422"/>
       <use xlink:href="#DejaVuSans-44" x="148.193359"/>
       <use xlink:href="#DejaVuSans-49" x="225.195312"/>
       <use xlink:href="#DejaVuSans-4c" x="254.6875"/>
       <use xlink:href="#DejaVuSans-4c" x="310.400391"/>
       <use xlink:href="#DejaVuSans-41" x="368.363281"/>
      </g>
     </g>
    </g>
   </g>
   <g id="patch_3">
    <path d="M 204.604844 506.075932 
L 258.26947 506.075932 
L 258.26947 452.142242 
L 204.604844 452.142242 
z
" clip-path="url(#p1815b168b0)" style="fill: #1f77b4; opacity: 0.65; stroke: #000000; stroke-width: 0.5; stroke-linejoin: miter"/>
   </g>
   <g id="patch_4">
    <path d="M 204.604844 438.65882 
L 258.26947 438.65882 
L 258.26947 384.72513 
L 204.604844 384.72513 
z
" clip-path="url(#p1815b168b0)" style="fill: #1f77b4; opacity: 0.65; stroke: #000000; stroke-width: 0.5; stroke-linejoin: miter"/>
   </g>
   <g id="patch_5">
    <path d="M 204.604844 371.241707 
L 258.26947 371.241707 
L 258.26947 317.308017 
L 204.604844 317.308017 
z
" clip-path="url(#p1815b168b0)" style="fill: #1f77b4; opacity: 0.65; stroke: #000000; stroke-width: 0.5; stroke-linejoin: miter"/>
   </g>
   <g id="patch_6">
    <path d="M 204.604844 303.824595 
L 258.26947 303.824595 
L 258.26947 249.890905 
L 204.604844 249.890905 
z
" clip-path="url(#p1815b168b0)" style="fill: #1f77b4; opacity: 0.65; stroke: #000000; stroke-width: 0.5; stroke-linejoin: miter"/>
   </g>
   <g id="patch_7">
    <path d="M 204.604844 236.407483 
L 258.26947 236.407483 
L 258.26947 182.473793 
L 204.604844 182.473793 
z
" clip-path="url(#p1815b168b0)" style="fill: #1f77b4; opacity: 0.65; stroke: #000000; stroke-width: 0.5; stroke-linejoin: miter"/>
   </g>
   <g id="patch_8">
    <path d="M 204.604844 168.99037 
L 311.934095 168.99037 
L 311.934095 115.05668 
L 204.604844 115.05668 
z
" clip-path="url(#p1815b168b0)" style="fill: #1f77b4; opacity: 0.65; stroke: #000000; stroke-width: 0.5; stroke-linejoin: miter"/>
   </g>
   <g id="patch_9">
    <path d="M 204.604844 101.573258 
L 955.909606 101.573258 
L 955.909606 47.639568 
L 204.604844 47.639568 
z
" clip-path="url(#p1815b168b0)" style="fill: #1f77b4; opacity: 0.65; stroke: #000000; stroke-width: 0.5; stroke-linejoin: miter"/>
   </g>
   <g id="patch_10">
    <path d="M 204.604844 528.99775 
L 204.604844 24.71775 
" style="fill: none; stroke: #ffffff; stroke-linejoin: miter; stroke-linecap: square"/>
   </g>
   <g id="patch_11">
    <path d="M 993.474844 528.99775 
L 993.474844 24.71775 
" style="fill: none; stroke: #ffffff; stroke-linejoin: miter; stroke-linecap: square"/>
   </g>
   <g id="patch_12">
    <path d="M 204.604844 528.99775 
L 993.474844 528.99775 
" style="fill: none; stroke: #ffffff; stroke-linejoin: miter; stroke-linecap: square"/>
   </g>
   <g id="patch_13">
    <path d="M 204.604844 24.71775 
L 993.474844 24.71775 
" style="fill: none; stroke: #ffffff; stroke-linejoin: miter; stroke-linecap: square"/>
   </g>
   <g id="text_17">
    <!-- 1 -->
    <g transform="translate(261.26947 481.868462) scale(0.1 -0.1)">
     <use xlink:href="#DejaVuSans-31"/>
    </g>
   </g>
   <g id="text_18">
    <!-- 1 -->
    <g transform="translate(261.26947 414.45135) scale(0.1 -0.1)">
     <use xlink:href="#DejaVuSans-31"/>
    </g>
   </g>
   <g id="text_19">
    <!-- 1 -->
    <g transform="translate(261.26947 347.034237) scale(0.1 -0.1)">
     <use xlink:href="#DejaVuSans-31"/>
    </g>
   </g>
   <g id="text_20">
    <!-- 1 -->
    <g transform="translate(261.26947 279.617125) scale(0.1 -0.1)">
     <use xlink:href="#DejaVuSans-31"/>
    </g>
   </g>
   <g id="text_21">
    <!-- 1 -->
    <g transform="translate(261.26947 212.200013) scale(0.1 -0.1)">
     <use xlink:href="#DejaVuSans-31"/>
    </g>
   </g>
   <g id="text_22">
    <!-- 2 -->
    <g transform="translate(314.934095 144.7829) scale(0.1 -0.1)">
     <use xlink:href="#DejaVuSans-32"/>
    </g>
   </g>
   <g id="text_23">
    <!-- 14 -->
    <g transform="translate(958.909606 77.365788) scale(0.1 -0.1)">
     <use xlink:href="#DejaVuSans-31"/>
     <use xlink:href="#DejaVuSans-34" x="63.623047"/>
    </g>
   </g>
   <g id="text_24">
    <!-- Procedimientos terapéutico -->
    <g transform="translate(500.010594 18.71775) scale(0.144 -0.144)">
     <defs>
      <path id="DejaVuSans-63" d="M 3122 3366 
L 3122 2828 
Q 2878 2963 2633 3030 
Q 2388 3097 2138 3097 
Q 1578 3097 1268 2742 
Q 959 2388 959 1747 
Q 959 1106 1268 751 
Q 1578 397 2138 397 
Q 2388 397 2633 464 
Q 2878 531 3122 666 
L 3122 134 
Q 2881 22 2623 -34 
Q 2366 -91 2075 -91 
Q 1284 -91 818 406 
Q 353 903 353 1747 
Q 353 2603 823 3093 
Q 1294 3584 2113 3584 
Q 2378 3584 2631 3529 
Q 2884 3475 3122 3366 
z
" transform="scale(0.015625)"/>
      <path id="DejaVuSans-69" d="M 603 3500 
L 1178 3500 
L 1178 0 
L 603 0 
L 603 3500 
z
M 603 4863 
L 1178 4863 
L 1178 4134 
L 603 4134 
L 603 4863 
z
" transform="scale(0.015625)"/>
      <path id="DejaVuSans-6e" d="M 3513 2113 
L 3513 0 
L 2938 0 
L 2938 2094 
Q 2938 2591 2744 2837 
Q 2550 3084 2163 3084 
Q 1697 3084 1428 2787 
Q 1159 2491 1159 1978 
L 1159 0 
L 581 0 
L 581 3500 
L 1159 3500 
L 1159 2956 
Q 1366 3272 1645 3428 
Q 1925 3584 2291 3584 
Q 2894 3584 3203 3211 
Q 3513 2838 3513 2113 
z
" transform="scale(0.015625)"/>
      <path id="DejaVuSans-74" d="M 1172 4494 
L 1172 3500 
L 2356 3500 
L 2356 3053 
L 1172 3053 
L 1172 1153 
Q 1172 725 1289 603 
Q 1406 481 1766 481 
L 2356 481 
L 2356 0 
L 1766 0 
Q 1100 0 847 248 
Q 594 497 594 1153 
L 594 3053 
L 172 3053 
L 172 3500 
L 594 3500 
L 594 4494 
L 1172 4494 
z
" transform="scale(0.015625)"/>
      <path id="DejaVuSans-61" d="M 2194 1759 
Q 1497 1759 1228 1600 
Q 959 1441 959 1056 
Q 959 750 1161 570 
Q 1363 391 1709 391 
Q 2188 391 2477 730 
Q 2766 1069 2766 1631 
L 2766 1759 
L 2194 1759 
z
M 3341 1997 
L 3341 0 
L 2766 0 
L 2766 531 
Q 2569 213 2275 61 
Q 1981 -91 1556 -91 
Q 1019 -91 701 211 
Q 384 513 384 1019 
Q 384 1609 779 1909 
Q 1175 2209 1959 2209 
L 2766 2209 
L 2766 2266 
Q 2766 2663 2505 2880 
Q 2244 3097 1772 3097 
Q 1472 3097 1187 3025 
Q 903 2953 641 2809 
L 641 3341 
Q 956 3463 1253 3523 
Q 1550 3584 1831 3584 
Q 2591 3584 2966 3190 
Q 3341 2797 3341 1997 
z
" transform="scale(0.015625)"/>
      <path id="DejaVuSans-70" d="M 1159 525 
L 1159 -1331 
L 581 -1331 
L 581 3500 
L 1159 3500 
L 1159 2969 
Q 1341 3281 1617 3432 
Q 1894 3584 2278 3584 
Q 2916 3584 3314 3078 
Q 3713 2572 3713 1747 
Q 3713 922 3314 415 
Q 2916 -91 2278 -91 
Q 1894 -91 1617 61 
Q 1341 213 1159 525 
z
M 3116 1747 
Q 3116 2381 2855 2742 
Q 2594 3103 2138 3103 
Q 1681 3103 1420 2742 
Q 1159 2381 1159 1747 
Q 1159 1113 1420 752 
Q 1681 391 2138 391 
Q 2594 391 2855 752 
Q 3116 1113 3116 1747 
z
" transform="scale(0.015625)"/>
      <path id="DejaVuSans-e9" d="M 3597 1894 
L 3597 1613 
L 953 1613 
Q 991 1019 1311 708 
Q 1631 397 2203 397 
Q 2534 397 2845 478 
Q 3156 559 3463 722 
L 3463 178 
Q 3153 47 2828 -22 
Q 2503 -91 2169 -91 
Q 1331 -91 842 396 
Q 353 884 353 1716 
Q 353 2575 817 3079 
Q 1281 3584 2069 3584 
Q 2775 3584 3186 3129 
Q 3597 2675 3597 1894 
z
M 3022 2063 
Q 3016 2534 2758 2815 
Q 2500 3097 2075 3097 
Q 1594 3097 1305 2825 
Q 1016 2553 972 2059 
L 3022 2063 
z
M 2469 5119 
L 3091 5119 
L 2072 3944 
L 1594 3944 
L 2469 5119 
z
" transform="scale(0.015625)"/>
      <path id="DejaVuSans-75" d="M 544 1381 
L 544 3500 
L 1119 3500 
L 1119 1403 
Q 1119 906 1312 657 
Q 1506 409 1894 409 
Q 2359 409 2629 706 
Q 2900 1003 2900 1516 
L 2900 3500 
L 3475 3500 
L 3475 0 
L 2900 0 
L 2900 538 
Q 2691 219 2414 64 
Q 2138 -91 1772 -91 
Q 1169 -91 856 284 
Q 544 659 544 1381 
z
M 1991 3584 
L 1991 3584 
z
" transform="scale(0.015625)"/>
     </defs>
     <use xlink:href="#DejaVuSans-50"/>
     <use xlink:href="#DejaVuSans-72" x="58.552734"/>
     <use xlink:href="#DejaVuSans-6f" x="97.416016"/>
     <use xlink:href="#DejaVuSans-63" x="158.597656"/>
     <use xlink:href="#DejaVuSans-65" x="213.578125"/>
     <use xlink:href="#DejaVuSans-64" x="275.101562"/>
     <use xlink:href="#DejaVuSans-69" x="338.578125"/>
     <use xlink:href="#DejaVuSans-6d" x="366.361328"/>
     <use xlink:href="#DejaVuSans-69" x="463.773438"/>
     <use xlink:href="#DejaVuSans-65" x="491.556641"/>
     <use xlink:href="#DejaVuSans-6e" x="553.080078"/>
     <use xlink:href="#DejaVuSans-74" x="616.458984"/>
     <use xlink:href="#DejaVuSans-6f" x="655.667969"/>
     <use xlink:href="#DejaVuSans-73" x="716.849609"/>
     <use xlink:href="#DejaVuSans-20" x="768.949219"/>
     <use xlink:href="#DejaVuSans-74" x="800.736328"/>
     <use xlink:href="#DejaVuSans-65" x="839.945312"/>
     <use xlink:href="#DejaVuSans-72" x="901.46875"/>
     <use xlink:href="#DejaVuSans-61" x="942.582031"/>
     <use xlink:href="#DejaVuSans-70" x="1003.861328"/>
     <use xlink:href="#DejaVuSans-e9" x="1067.337891"/>
     <use xlink:href="#DejaVuSans-75" x="1128.861328"/>
     <use xlink:href="#DejaVuSans-74" x="1192.240234"/>
     <use xlink:href="#DejaVuSans-69" x="1231.449219"/>
     <use xlink:href="#DejaVuSans-63" x="1259.232422"/>
     <use xlink:href="#DejaVuSans-6f" x="1314.212891"/>
    </g>
   </g>
  </g>
 </g>
 <defs>
  <clipPath id="p1815b168b0">
   <rect x="204.604844" y="24.71775" width="788.87" height="504.28"/>
  </clipPath>
 </defs>
</svg>
