<?xml version="1.0" encoding="utf-8" standalone="no"?>
<!DOCTYPE svg PUBLIC "-//W3C//DTD SVG 1.1//EN"
  "http://www.w3.org/Graphics/SVG/1.1/DTD/svg11.dtd">
<svg xmlns:xlink="http://www.w3.org/1999/xlink" width="1000.411875pt" height="568.969625pt" viewBox="0 0 1000.411875 568.969625" xmlns="http://www.w3.org/2000/svg" version="1.1">
 <metadata>
  <rdf:RDF xmlns:dc="http://purl.org/dc/elements/1.1/" xmlns:cc="http://creativecommons.org/ns#" xmlns:rdf="http://www.w3.org/1999/02/22-rdf-syntax-ns#">
   <cc:Work>
    <dc:type rdf:resource="http://purl.org/dc/dcmitype/StillImage"/>
    <dc:date>2026-02-12T15:19:29.366012</dc:date>
    <dc:format>image/svg+xml</dc:format>
    <dc:creator>
     <cc:Agent>
      <dc:title>Matplotlib v3.6.3, https://matplotlib.org/</dc:title>
     </cc:Agent>
    </dc:creator>
   </cc:Work>
  </rdf:RDF>
 </metadata>
 <defs>
  <style type="text/css">*{stroke-linejoin: round; stroke-linecap: butt}</style>
 </defs>
 <g id="figure_1">
  <g id="patch_1">
   <path d="M 0 568.969625 
L 1000.411875 568.969625 
L 1000.411875 0 
L 0 0 
z
" style="fill: #ffffff"/>
  </g>
  <g id="axes_1">
   <g id="patch_2">
    <path d="M 212.891875 528.99775 
L 993.211875 528.99775 
L 993.211875 24.71775 
L 212.891875 24.71775 
z
" style="fill: #e5e5e5"/>
   </g>
   <g id="matplotlib.axis_1">
    <g id="xtick_1">
     <g id="line2d_1">
      <path d="M 212.891875 528.99775 
L 212.891875 24.71775 
" clip-path="url(#p47543253c0)" style="fill: none; stroke: #ffffff; stroke-width: 0.8; stroke-linecap: square"/>
     </g>
     <g id="line2d_2">
      <defs>
       <path id="mb38ce3d6ff" d="M 0 0 
L 0 3.5 
" style="stroke: #555555; stroke-width: 0.8"/>
      </defs>
      <g>
       <use xlink:href="#mb38ce3d6ff" x="212.891875" y="528.99775" style="fill: #555555; stroke: #555555; stroke-width: 0.8"/>
      </g>
     </g>
     <g id="text_1">
      <!-- 0 -->
      <g style="fill: #555555" transform="translate(209.710625 543.596187) scale(0.1 -0.1)">
       <defs>
        <path id="DejaVuSans-30" d="M 2034 4250 
Q 1547 4250 1301 3770 
Q 1056 3291 1056 2328 
Q 1056 1369 1301 889 
Q 1547 409 2034 409 
Q 2525 409 2770 889 
Q 3016 1369 3016 2328 
Q 3016 3291 2770 3770 
Q 2525 4250 2034 4250 
z
M 2034 4750 
Q 2819 4750 3233 4129 
Q 3647 3509 3647 2328 
Q 3647 1150 3233 529 
Q 2819 -91 2034 -91 
Q 1250 -91 836 529 
Q 422 1150 422 2328 
Q 422 3509 836 4129 
Q 1250 4750 2034 4750 
z
" transform="scale(0.015625)"/>
       </defs>
       <use xlink:href="#DejaVuSans-30"/>
      </g>
     </g>
    </g>
    <g id="xtick_2">
     <g id="line2d_3">
      <path d="M 371.011429 528.99775 
L 371.011429 24.71775 
" clip-path="url(#p47543253c0)" style="fill: none; stroke: #ffffff; stroke-width: 0.8; stroke-linecap: square"/>
     </g>
     <g id="line2d_4">
      <g>
       <use xlink:href="#mb38ce3d6ff" x="371.011429" y="528.99775" style="fill: #555555; stroke: #555555; stroke-width: 0.8"/>
      </g>
     </g>
     <g id="text_2">
      <!-- 10 -->
      <g style="fill: #555555" transform="translate(364.648929 543.596187) scale(0.1 -0.1)">
       <defs>
        <path id="DejaVuSans-31" d="M 794 531 
L 1825 531 
L 1825 4091 
L 703 3866 
L 703 4441 
L 1819 4666 
L 2450 4666 
L 2450 531 
L 3481 531 
L 3481 0 
L 794 0 
L 794 531 
z
" transform="scale(0.015625)"/>
       </defs>
       <use xlink:href="#DejaVuSans-31"/>
       <use xlink:href="#DejaVuSans-30" x="63.623047"/>
      </g>
     </g>
    </g>
    <g id="xtick_3">
     <g id="line2d_5">
      <path d="M 529.130983 528.99775 
L 529.130983 24.71775 
" clip-path="url(#p47543253c0)" style="fill: none; stroke: #ffffff; stroke-width: 0.8; stroke-linecap: square"/>
     </g>
     <g id="line2d_6">
      <g>
       <use xlink:href="#mb38ce3d6ff" x="529.130983" y="528.99775" style="fill: #555555; stroke: #555555; stroke-width: 0.8"/>
      </g>
     </g>
     <g id="text_3">
      <!-- 20 -->
      <g style="fill: #555555" transform="translate(522.768483 543.596187) scale(0.1 -0.1)">
       <defs>
        <path id="DejaVuSans-32" d="M 1228 531 
L 3431 531 
L 3431 0 
L 469 0 
L 469 531 
Q 828 903 1448 1529 
Q 2069 2156 2228 2338 
Q 2531 2678 2651 2914 
Q 2772 3150 2772 3378 
Q 2772 3750 2511 3984 
Q 2250 4219 1831 4219 
Q 1534 4219 1204 4116 
Q 875 4013 500 3803 
L 500 4441 
Q 881 4594 1212 4672 
Q 1544 4750 1819 4750 
Q 2544 4750 2975 4387 
Q 3406 4025 3406 3419 
Q 3406 3131 3298 2873 
Q 3191 2616 2906 2266 
Q 2828 2175 2409 1742 
Q 1991 1309 1228 531 
z
" transform="scale(0.015625)"/>
       </defs>
       <use xlink:href="#DejaVuSans-32"/>
       <use xlink:href="#DejaVuSans-30" x="63.623047"/>
      </g>
     </g>
    </g>
    <g id="xtick_4">
     <g id="line2d_7">
      <path d="M 687.250538 528.99775 
L 687.250538 24.71775 
" clip-path="url(#p47543253c0)" style="fill: none; stroke: #ffffff; stroke-width: 0.8; stroke-linecap: square"/>
     </g>
     <g id="line2d_8">
      <g>
       <use xlink:href="#mb38ce3d6ff" x="687.250538" y="528.99775" style="fill: #555555; stroke: #555555; stroke-width: 0.8"/>
      </g>
     </g>
     <g id="text_4">
      <!-- 30 -->
      <g style="fill: #555555" transform="translate(680.888038 543.596187) scale(0.1 -0.1)">
       <defs>
        <path id="DejaVuSans-33" d="M 2597 2516 
Q 3050 2419 3304 2112 
Q 3559 1806 3559 1356 
Q 3559 666 3084 287 
Q 2609 -91 1734 -91 
Q 1441 -91 1130 -33 
Q 819 25 488 141 
L 488 750 
Q 750 597 1062 519 
Q 1375 441 1716 441 
Q 2309 441 2620 675 
Q 2931 909 2931 1356 
Q 2931 1769 2642 2001 
Q 2353 2234 1838 2234 
L 1294 2234 
L 1294 2753 
L 1863 2753 
Q 2328 2753 2575 2939 
Q 2822 3125 2822 3475 
Q 2822 3834 2567 4026 
Q 2313 4219 1838 4219 
Q 1578 4219 1281 4162 
Q 984 4106 628 3988 
L 628 4550 
Q 988 4650 1302 4700 
Q 1616 4750 1894 4750 
Q 2613 4750 3031 4423 
Q 3450 4097 3450 3541 
Q 3450 3153 3228 2886 
Q 3006 2619 2597 2516 
z
" transform="scale(0.015625)"/>
       </defs>
       <use xlink:href="#DejaVuSans-33"/>
       <use xlink:href="#DejaVuSans-30" x="63.623047"/>
      </g>
     </g>
    </g>
    <g id="xtick_5">
     <g id="line2d_9">
      <path d="M 845.370092 528.99775 
L 845.370092 24.71775 
" clip-path="url(#p47543253c0)" style="fill: none; stroke: #ffffff; stroke-width: 0.8; stroke-linecap: square"/>
     </g>
     <g id="line2d_10">
      <g>
       <use xlink:href="#mb38ce3d6ff" x="845.370092" y="528.99775" style="fill: #555555; stroke: #555555; stroke-width: 0.8"/>
      </g>
     </g>
     <g id="text_5">
      <!-- 40 -->
      <g style="fill: #555555" transform="translate(839.007592 543.596187) scale(0.1 -0.1)">
       <defs>
        <path id="DejaVuSans-34" d="M 2419 4116 
L 825 1625 
L 2419 1625 
L 2419 4116 
z
M 2253 4666 
L 3047 4666 
L 3047 1625 
L 3713 1625 
L 3713 1100 
L 3047 1100 
L 3047 0 
L 2419 0 
L 2419 1100 
L 313 1100 
L 313 1709 
L 2253 4666 
z
" transform="scale(0.015625)"/>
       </defs>
       <use xlink:href="#DejaVuSans-34"/>
       <use xlink:href="#DejaVuSans-30" x="63.623047"/>
      </g>
     </g>
    </g>
    <g id="text_6">
     <!-- Número de egresos -->
     <g style="fill: #555555" transform="translate(544.46 559.274) scale(0.12 -0.12)">
      <defs>
       <path id="DejaVuSans-4e" d="M 628 4666 
L 1478 4666 
L 3547 763 
L 3547 4666 
L 4159 4666 
L 4159 0 
L 3309 0 
L 1241 3903 
L 1241 0 
L 628 0 
L 628 4666 
z
" transform="scale(0.015625)"/>
       <path id="DejaVuSans-fa" d="M 544 1381 
L 544 3500 
L 1119 3500 
L 1119 1403 
Q 1119 906 1312 657 
Q 1506 409 1894 409 
Q 2359 409 2629 706 
Q 2900 1003 2900 1516 
L 2900 3500 
L 3475 3500 
L 3475 0 
L 2900 0 
L 2900 538 
Q 2691 219 2414 64 
Q 2138 -91 1772 -91 
Q 1169 -91 856 284 
Q 544 659 544 1381 
z
M 1991 3584 
L 1991 3584 
z
M 2419 5119 
L 3041 5119 
L 2022 3944 
L 1544 3944 
L 2419 5119 
z
" transform="scale(0.015625)"/>
       <path id="DejaVuSans-6d" d="M 3328 2828 
Q 3544 3216 3844 3400 
Q 4144 3584 4550 3584 
Q 5097 3584 5394 3201 
Q 5691 2819 5691 2113 
L 5691 0 
L 5113 0 
L 5113 2094 
Q 5113 2597 4934 2840 
Q 4756 3084 4391 3084 
Q 3944 3084 3684 2787 
Q 3425 2491 3425 1978 
L 3425 0 
L 2847 0 
L 2847 2094 
Q 2847 2600 2669 2842 
Q 2491 3084 2119 3084 
Q 1678 3084 1418 2786 
Q 1159 2488 1159 1978 
L 1159 0 
L 581 0 
L 581 3500 
L 1159 3500 
L 1159 2956 
Q 1356 3278 1631 3431 
Q 1906 3584 2284 3584 
Q 2666 3584 2933 3390 
Q 3200 3197 3328 2828 
z
" transform="scale(0.015625)"/>
       <path id="DejaVuSans-65" d="M 3597 1894 
L 3597 1613 
L 953 1613 
Q 991 1019 1311 708 
Q 1631 397 2203 397 
Q 2534 397 2845 478 
Q 3156 559 3463 722 
L 3463 178 
Q 3153 47 2828 -22 
Q 2503 -91 2169 -91 
Q 1331 -91 842 396 
Q 353 884 353 1716 
Q 353 2575 817 3079 
Q 1281 3584 2069 3584 
Q 2775 3584 3186 3129 
Q 3597 2675 3597 1894 
z
M 3022 2063 
Q 3016 2534 2758 2815 
Q 2500 3097 2075 3097 
Q 1594 3097 1305 2825 
Q 1016 2553 972 2059 
L 3022 2063 
z
" transform="scale(0.015625)"/>
       <path id="DejaVuSans-72" d="M 2631 2963 
Q 2534 3019 2420 3045 
Q 2306 3072 2169 3072 
Q 1681 3072 1420 2755 
Q 1159 2438 1159 1844 
L 1159 0 
L 581 0 
L 581 3500 
L 1159 3500 
L 1159 2956 
Q 1341 3275 1631 3429 
Q 1922 3584 2338 3584 
Q 2397 3584 2469 3576 
Q 2541 3569 2628 3553 
L 2631 2963 
z
" transform="scale(0.015625)"/>
       <path id="DejaVuSans-6f" d="M 1959 3097 
Q 1497 3097 1228 2736 
Q 959 2375 959 1747 
Q 959 1119 1226 758 
Q 1494 397 1959 397 
Q 2419 397 2687 759 
Q 2956 1122 2956 1747 
Q 2956 2369 2687 2733 
Q 2419 3097 1959 3097 
z
M 1959 3584 
Q 2709 3584 3137 3096 
Q 3566 2609 3566 1747 
Q 3566 888 3137 398 
Q 2709 -91 1959 -91 
Q 1206 -91 779 398 
Q 353 888 353 1747 
Q 353 2609 779 3096 
Q 1206 3584 1959 3584 
z
" transform="scale(0.015625)"/>
       <path id="DejaVuSans-20" transform="scale(0.015625)"/>
       <path id="DejaVuSans-64" d="M 2906 2969 
L 2906 4863 
L 3481 4863 
L 3481 0 
L 2906 0 
L 2906 525 
Q 2725 213 2448 61 
Q 2172 -91 1784 -91 
Q 1150 -91 751 415 
Q 353 922 353 1747 
Q 353 2572 751 3078 
Q 1150 3584 1784 3584 
Q 2172 3584 2448 3432 
Q 2725 3281 2906 2969 
z
M 947 1747 
Q 947 1113 1208 752 
Q 1469 391 1925 391 
Q 2381 391 2643 752 
Q 2906 1113 2906 1747 
Q 2906 2381 2643 2742 
Q 2381 3103 1925 3103 
Q 1469 3103 1208 2742 
Q 947 2381 947 1747 
z
" transform="scale(0.015625)"/>
       <path id="DejaVuSans-67" d="M 2906 1791 
Q 2906 2416 2648 2759 
Q 2391 3103 1925 3103 
Q 1463 3103 1205 2759 
Q 947 2416 947 1791 
Q 947 1169 1205 825 
Q 1463 481 1925 481 
Q 2391 481 2648 825 
Q 2906 1169 2906 1791 
z
M 3481 434 
Q 3481 -459 3084 -895 
Q 2688 -1331 1869 -1331 
Q 1566 -1331 1297 -1286 
Q 1028 -1241 775 -1147 
L 775 -588 
Q 1028 -725 1275 -790 
Q 1522 -856 1778 -856 
Q 2344 -856 2625 -561 
Q 2906 -266 2906 331 
L 2906 616 
Q 2728 306 2450 153 
Q 2172 0 1784 0 
Q 1141 0 747 490 
Q 353 981 353 1791 
Q 353 2603 747 3093 
Q 1141 3584 1784 3584 
Q 2172 3584 2450 3431 
Q 2728 3278 2906 2969 
L 2906 3500 
L 3481 3500 
L 3481 434 
z
" transform="scale(0.015625)"/>
       <path id="DejaVuSans-73" d="M 2834 3397 
L 2834 2853 
Q 2591 2978 2328 3040 
Q 2066 3103 1784 3103 
Q 1356 3103 1142 2972 
Q 928 2841 928 2578 
Q 928 2378 1081 2264 
Q 1234 2150 1697 2047 
L 1894 2003 
Q 2506 1872 2764 1633 
Q 3022 1394 3022 966 
Q 3022 478 2636 193 
Q 2250 -91 1575 -91 
Q 1294 -91 989 -36 
Q 684 19 347 128 
L 347 722 
Q 666 556 975 473 
Q 1284 391 1588 391 
Q 1994 391 2212 530 
Q 2431 669 2431 922 
Q 2431 1156 2273 1281 
Q 2116 1406 1581 1522 
L 1381 1569 
Q 847 1681 609 1914 
Q 372 2147 372 2553 
Q 372 3047 722 3315 
Q 1072 3584 1716 3584 
Q 2034 3584 2315 3537 
Q 2597 3491 2834 3397 
z
" transform="scale(0.015625)"/>
      </defs>
      <use xlink:href="#DejaVuSans-4e"/>
      <use xlink:href="#DejaVuSans-fa" x="74.804688"/>
      <use xlink:href="#DejaVuSans-6d" x="138.183594"/>
      <use xlink:href="#DejaVuSans-65" x="235.595703"/>
      <use xlink:href="#DejaVuSans-72" x="297.119141"/>
      <use xlink:href="#DejaVuSans-6f" x="335.982422"/>
      <use xlink:href="#DejaVuSans-20" x="397.164062"/>
      <use xlink:href="#DejaVuSans-64" x="428.951172"/>
      <use xlink:href="#DejaVuSans-65" x="492.427734"/>
      <use xlink:href="#DejaVuSans-20" x="553.951172"/>
      <use xlink:href="#DejaVuSans-65" x="585.738281"/>
      <use xlink:href="#DejaVuSans-67" x="647.261719"/>
      <use xlink:href="#DejaVuSans-72" x="710.738281"/>
      <use xlink:href="#DejaVuSans-65" x="749.601562"/>
      <use xlink:href="#DejaVuSans-73" x="811.125"/>
      <use xlink:href="#DejaVuSans-6f" x="863.224609"/>
      <use xlink:href="#DejaVuSans-73" x="924.40625"/>
     </g>
    </g>
   </g>
   <g id="matplotlib.axis_2">
    <g id="ytick_1">
     <g id="line2d_11">
      <path d="M 212.891875 487.364244 
L 993.211875 487.364244 
" clip-path="url(#p47543253c0)" style="fill: none; stroke: #ffffff; stroke-width: 0.8; stroke-linecap: square"/>
     </g>
     <g id="line2d_12">
      <defs>
       <path id="m1342d7fdb0" d="M 0 0 
L -3.5 0 
" style="stroke: #555555; stroke-width: 0.8"/>
      </defs>
      <g>
       <use xlink:href="#m1342d7fdb0" x="212.891875" y="487.364244" style="fill: #555555; stroke: #555555; stroke-width: 0.8"/>
      </g>
     </g>
     <g id="text_7">
      <!-- EXTRACCIÓN SIN INCISIÓN DE CUERPO -->
      <g style="fill: #555555" transform="translate(30.76875 481.014744) scale(0.09 -0.09)">
       <defs>
        <path id="DejaVuSans-45" d="M 628 4666 
L 3578 4666 
L 3578 4134 
L 1259 4134 
L 1259 2753 
L 3481 2753 
L 3481 2222 
L 1259 2222 
L 1259 531 
L 3634 531 
L 3634 0 
L 628 0 
L 628 4666 
z
" transform="scale(0.015625)"/>
        <path id="DejaVuSans-58" d="M 403 4666 
L 1081 4666 
L 2241 2931 
L 3406 4666 
L 4084 4666 
L 2584 2425 
L 4184 0 
L 3506 0 
L 2194 1984 
L 872 0 
L 191 0 
L 1856 2491 
L 403 4666 
z
" transform="scale(0.015625)"/>
        <path id="DejaVuSans-54" d="M -19 4666 
L 3928 4666 
L 3928 4134 
L 2272 4134 
L 2272 0 
L 1638 0 
L 1638 4134 
L -19 4134 
L -19 4666 
z
" transform="scale(0.015625)"/>
        <path id="DejaVuSans-52" d="M 2841 2188 
Q 3044 2119 3236 1894 
Q 3428 1669 3622 1275 
L 4263 0 
L 3584 0 
L 2988 1197 
Q 2756 1666 2539 1819 
Q 2322 1972 1947 1972 
L 1259 1972 
L 1259 0 
L 628 0 
L 628 4666 
L 2053 4666 
Q 2853 4666 3247 4331 
Q 3641 3997 3641 3322 
Q 3641 2881 3436 2590 
Q 3231 2300 2841 2188 
z
M 1259 4147 
L 1259 2491 
L 2053 2491 
Q 2509 2491 2742 2702 
Q 2975 2913 2975 3322 
Q 2975 3731 2742 3939 
Q 2509 4147 2053 4147 
L 1259 4147 
z
" transform="scale(0.015625)"/>
        <path id="DejaVuSans-41" d="M 2188 4044 
L 1331 1722 
L 3047 1722 
L 2188 4044 
z
M 1831 4666 
L 2547 4666 
L 4325 0 
L 3669 0 
L 3244 1197 
L 1141 1197 
L 716 0 
L 50 0 
L 1831 4666 
z
" transform="scale(0.015625)"/>
        <path id="DejaVuSans-43" d="M 4122 4306 
L 4122 3641 
Q 3803 3938 3442 4084 
Q 3081 4231 2675 4231 
Q 1875 4231 1450 3742 
Q 1025 3253 1025 2328 
Q 1025 1406 1450 917 
Q 1875 428 2675 428 
Q 3081 428 3442 575 
Q 3803 722 4122 1019 
L 4122 359 
Q 3791 134 3420 21 
Q 3050 -91 2638 -91 
Q 1578 -91 968 557 
Q 359 1206 359 2328 
Q 359 3453 968 4101 
Q 1578 4750 2638 4750 
Q 3056 4750 3426 4639 
Q 3797 4528 4122 4306 
z
" transform="scale(0.015625)"/>
        <path id="DejaVuSans-49" d="M 628 4666 
L 1259 4666 
L 1259 0 
L 628 0 
L 628 4666 
z
" transform="scale(0.015625)"/>
        <path id="DejaVuSans-d3" d="M 2522 4238 
Q 1834 4238 1429 3725 
Q 1025 3213 1025 2328 
Q 1025 1447 1429 934 
Q 1834 422 2522 422 
Q 3209 422 3611 934 
Q 4013 1447 4013 2328 
Q 4013 3213 3611 3725 
Q 3209 4238 2522 4238 
z
M 2522 4750 
Q 3503 4750 4090 4092 
Q 4678 3434 4678 2328 
Q 4678 1225 4090 567 
Q 3503 -91 2522 -91 
Q 1538 -91 948 565 
Q 359 1222 359 2328 
Q 359 3434 948 4092 
Q 1538 4750 2522 4750 
z
M 2694 5935 
L 3272 5935 
L 2559 5110 
L 2081 5110 
L 2694 5935 
z
" transform="scale(0.015625)"/>
        <path id="DejaVuSans-53" d="M 3425 4513 
L 3425 3897 
Q 3066 4069 2747 4153 
Q 2428 4238 2131 4238 
Q 1616 4238 1336 4038 
Q 1056 3838 1056 3469 
Q 1056 3159 1242 3001 
Q 1428 2844 1947 2747 
L 2328 2669 
Q 3034 2534 3370 2195 
Q 3706 1856 3706 1288 
Q 3706 609 3251 259 
Q 2797 -91 1919 -91 
Q 1588 -91 1214 -16 
Q 841 59 441 206 
L 441 856 
Q 825 641 1194 531 
Q 1563 422 1919 422 
Q 2459 422 2753 634 
Q 3047 847 3047 1241 
Q 3047 1584 2836 1778 
Q 2625 1972 2144 2069 
L 1759 2144 
Q 1053 2284 737 2584 
Q 422 2884 422 3419 
Q 422 4038 858 4394 
Q 1294 4750 2059 4750 
Q 2388 4750 2728 4690 
Q 3069 4631 3425 4513 
z
" transform="scale(0.015625)"/>
        <path id="DejaVuSans-44" d="M 1259 4147 
L 1259 519 
L 2022 519 
Q 2988 519 3436 956 
Q 3884 1394 3884 2338 
Q 3884 3275 3436 3711 
Q 2988 4147 2022 4147 
L 1259 4147 
z
M 628 4666 
L 1925 4666 
Q 3281 4666 3915 4102 
Q 4550 3538 4550 2338 
Q 4550 1131 3912 565 
Q 3275 0 1925 0 
L 628 0 
L 628 4666 
z
" transform="scale(0.015625)"/>
        <path id="DejaVuSans-55" d="M 556 4666 
L 1191 4666 
L 1191 1831 
Q 1191 1081 1462 751 
Q 1734 422 2344 422 
Q 2950 422 3222 751 
Q 3494 1081 3494 1831 
L 3494 4666 
L 4128 4666 
L 4128 1753 
Q 4128 841 3676 375 
Q 3225 -91 2344 -91 
Q 1459 -91 1007 375 
Q 556 841 556 1753 
L 556 4666 
z
" transform="scale(0.015625)"/>
        <path id="DejaVuSans-50" d="M 1259 4147 
L 1259 2394 
L 2053 2394 
Q 2494 2394 2734 2622 
Q 2975 2850 2975 3272 
Q 2975 3691 2734 3919 
Q 2494 4147 2053 4147 
L 1259 4147 
z
M 628 4666 
L 2053 4666 
Q 2838 4666 3239 4311 
Q 3641 3956 3641 3272 
Q 3641 2581 3239 2228 
Q 2838 1875 2053 1875 
L 1259 1875 
L 1259 0 
L 628 0 
L 628 4666 
z
" transform="scale(0.015625)"/>
        <path id="DejaVuSans-4f" d="M 2522 4238 
Q 1834 4238 1429 3725 
Q 1025 3213 1025 2328 
Q 1025 1447 1429 934 
Q 1834 422 2522 422 
Q 3209 422 3611 934 
Q 4013 1447 4013 2328 
Q 4013 3213 3611 3725 
Q 3209 4238 2522 4238 
z
M 2522 4750 
Q 3503 4750 4090 4092 
Q 4678 3434 4678 2328 
Q 4678 1225 4090 567 
Q 3503 -91 2522 -91 
Q 1538 -91 948 565 
Q 359 1222 359 2328 
Q 359 3434 948 4092 
Q 1538 4750 2522 4750 
z
" transform="scale(0.015625)"/>
       </defs>
       <use xlink:href="#DejaVuSans-45"/>
       <use xlink:href="#DejaVuSans-58" x="63.183594"/>
       <use xlink:href="#DejaVuSans-54" x="129.939453"/>
       <use xlink:href="#DejaVuSans-52" x="191.023438"/>
       <use xlink:href="#DejaVuSans-41" x="256.505859"/>
       <use xlink:href="#DejaVuSans-43" x="323.164062"/>
       <use xlink:href="#DejaVuSans-43" x="392.988281"/>
       <use xlink:href="#DejaVuSans-49" x="462.8125"/>
       <use xlink:href="#DejaVuSans-d3" x="492.304688"/>
       <use xlink:href="#DejaVuSans-4e" x="571.015625"/>
       <use xlink:href="#DejaVuSans-20" x="645.820312"/>
       <use xlink:href="#DejaVuSans-53" x="677.607422"/>
       <use xlink:href="#DejaVuSans-49" x="741.083984"/>
       <use xlink:href="#DejaVuSans-4e" x="770.576172"/>
       <use xlink:href="#DejaVuSans-20" x="845.380859"/>
       <use xlink:href="#DejaVuSans-49" x="877.167969"/>
       <use xlink:href="#DejaVuSans-4e" x="906.660156"/>
       <use xlink:href="#DejaVuSans-43" x="981.464844"/>
       <use xlink:href="#DejaVuSans-49" x="1051.289062"/>
       <use xlink:href="#DejaVuSans-53" x="1080.78125"/>
       <use xlink:href="#DejaVuSans-49" x="1144.257812"/>
       <use xlink:href="#DejaVuSans-d3" x="1173.75"/>
       <use xlink:href="#DejaVuSans-4e" x="1252.460938"/>
       <use xlink:href="#DejaVuSans-20" x="1327.265625"/>
       <use xlink:href="#DejaVuSans-44" x="1359.052734"/>
       <use xlink:href="#DejaVuSans-45" x="1436.054688"/>
       <use xlink:href="#DejaVuSans-20" x="1499.238281"/>
       <use xlink:href="#DejaVuSans-43" x="1531.025391"/>
       <use xlink:href="#DejaVuSans-55" x="1600.849609"/>
       <use xlink:href="#DejaVuSans-45" x="1674.042969"/>
       <use xlink:href="#DejaVuSans-52" x="1737.226562"/>
       <use xlink:href="#DejaVuSans-50" x="1806.708984"/>
       <use xlink:href="#DejaVuSans-4f" x="1867.011719"/>
      </g>
      <!-- EXTRAÑO EN MIEMBRO SUPERIOR, SALVO -->
      <g style="fill: #555555" transform="translate(17.917031 491.842025) scale(0.09 -0.09)">
       <defs>
        <path id="DejaVuSans-d1" d="M 628 4666 
L 1478 4666 
L 3547 763 
L 3547 4666 
L 4159 4666 
L 4159 0 
L 3309 0 
L 1241 3903 
L 1241 0 
L 628 0 
L 628 4666 
z
M 2381 5344 
L 2203 5447 
Q 2125 5491 2076 5508 
Q 2028 5525 1991 5525 
Q 1878 5525 1815 5447 
Q 1753 5369 1753 5229 
L 1753 5210 
L 1363 5210 
Q 1363 5525 1523 5709 
Q 1684 5894 1953 5894 
Q 2066 5894 2161 5869 
Q 2256 5844 2406 5760 
L 2584 5666 
Q 2656 5625 2709 5606 
Q 2763 5588 2809 5588 
Q 2909 5588 2971 5667 
Q 3034 5747 3034 5875 
L 3034 5894 
L 3425 5894 
Q 3419 5582 3258 5396 
Q 3097 5210 2834 5210 
Q 2728 5210 2636 5235 
Q 2544 5260 2381 5344 
z
" transform="scale(0.015625)"/>
        <path id="DejaVuSans-4d" d="M 628 4666 
L 1569 4666 
L 2759 1491 
L 3956 4666 
L 4897 4666 
L 4897 0 
L 4281 0 
L 4281 4097 
L 3078 897 
L 2444 897 
L 1241 4097 
L 1241 0 
L 628 0 
L 628 4666 
z
" transform="scale(0.015625)"/>
        <path id="DejaVuSans-42" d="M 1259 2228 
L 1259 519 
L 2272 519 
Q 2781 519 3026 730 
Q 3272 941 3272 1375 
Q 3272 1813 3026 2020 
Q 2781 2228 2272 2228 
L 1259 2228 
z
M 1259 4147 
L 1259 2741 
L 2194 2741 
Q 2656 2741 2882 2914 
Q 3109 3088 3109 3444 
Q 3109 3797 2882 3972 
Q 2656 4147 2194 4147 
L 1259 4147 
z
M 628 4666 
L 2241 4666 
Q 2963 4666 3353 4366 
Q 3744 4066 3744 3513 
Q 3744 3084 3544 2831 
Q 3344 2578 2956 2516 
Q 3422 2416 3680 2098 
Q 3938 1781 3938 1306 
Q 3938 681 3513 340 
Q 3088 0 2303 0 
L 628 0 
L 628 4666 
z
" transform="scale(0.015625)"/>
        <path id="DejaVuSans-2c" d="M 750 794 
L 1409 794 
L 1409 256 
L 897 -744 
L 494 -744 
L 750 256 
L 750 794 
z
" transform="scale(0.015625)"/>
        <path id="DejaVuSans-4c" d="M 628 4666 
L 1259 4666 
L 1259 531 
L 3531 531 
L 3531 0 
L 628 0 
L 628 4666 
z
" transform="scale(0.015625)"/>
        <path id="DejaVuSans-56" d="M 1831 0 
L 50 4666 
L 709 4666 
L 2188 738 
L 3669 4666 
L 4325 4666 
L 2547 0 
L 1831 0 
z
" transform="scale(0.015625)"/>
       </defs>
       <use xlink:href="#DejaVuSans-45"/>
       <use xlink:href="#DejaVuSans-58" x="63.183594"/>
       <use xlink:href="#DejaVuSans-54" x="129.939453"/>
       <use xlink:href="#DejaVuSans-52" x="191.023438"/>
       <use xlink:href="#DejaVuSans-41" x="256.505859"/>
       <use xlink:href="#DejaVuSans-d1" x="324.914062"/>
       <use xlink:href="#DejaVuSans-4f" x="399.71875"/>
       <use xlink:href="#DejaVuSans-20" x="478.429688"/>
       <use xlink:href="#DejaVuSans-45" x="510.216797"/>
       <use xlink:href="#DejaVuSans-4e" x="573.400391"/>
       <use xlink:href="#DejaVuSans-20" x="648.205078"/>
       <use xlink:href="#DejaVuSans-4d" x="679.992188"/>
       <use xlink:href="#DejaVuSans-49" x="766.271484"/>
       <use xlink:href="#DejaVuSans-45" x="795.763672"/>
       <use xlink:href="#DejaVuSans-4d" x="858.947266"/>
       <use xlink:href="#DejaVuSans-42" x="945.226562"/>
       <use xlink:href="#DejaVuSans-52" x="1013.830078"/>
       <use xlink:href="#DejaVuSans-4f" x="1083.3125"/>
       <use xlink:href="#DejaVuSans-20" x="1162.023438"/>
       <use xlink:href="#DejaVuSans-53" x="1193.810547"/>
       <use xlink:href="#DejaVuSans-55" x="1257.287109"/>
       <use xlink:href="#DejaVuSans-50" x="1330.480469"/>
       <use xlink:href="#DejaVuSans-45" x="1390.783203"/>
       <use xlink:href="#DejaVuSans-52" x="1453.966797"/>
       <use xlink:href="#DejaVuSans-49" x="1523.449219"/>
       <use xlink:href="#DejaVuSans-4f" x="1552.941406"/>
       <use xlink:href="#DejaVuSans-52" x="1631.652344"/>
       <use xlink:href="#DejaVuSans-2c" x="1701.134766"/>
       <use xlink:href="#DejaVuSans-20" x="1732.921875"/>
       <use xlink:href="#DejaVuSans-53" x="1764.708984"/>
       <use xlink:href="#DejaVuSans-41" x="1830.060547"/>
       <use xlink:href="#DejaVuSans-4c" x="1898.46875"/>
       <use xlink:href="#DejaVuSans-56" x="1943.181641"/>
       <use xlink:href="#DejaVuSans-4f" x="2009.839844"/>
      </g>
      <!-- DE LA MANO -->
      <g style="fill: #555555" transform="translate(148.440937 501.920056) scale(0.09 -0.09)">
       <use xlink:href="#DejaVuSans-44"/>
       <use xlink:href="#DejaVuSans-45" x="77.001953"/>
       <use xlink:href="#DejaVuSans-20" x="140.185547"/>
       <use xlink:href="#DejaVuSans-4c" x="171.972656"/>
       <use xlink:href="#DejaVuSans-41" x="229.935547"/>
       <use xlink:href="#DejaVuSans-20" x="298.34375"/>
       <use xlink:href="#DejaVuSans-4d" x="330.130859"/>
       <use xlink:href="#DejaVuSans-41" x="416.410156"/>
       <use xlink:href="#DejaVuSans-4e" x="484.818359"/>
       <use xlink:href="#DejaVuSans-4f" x="559.623047"/>
      </g>
     </g>
    </g>
    <g id="ytick_2">
     <g id="line2d_13">
      <path d="M 212.891875 440.585023 
L 993.211875 440.585023 
" clip-path="url(#p47543253c0)" style="fill: none; stroke: #ffffff; stroke-width: 0.8; stroke-linecap: square"/>
     </g>
     <g id="line2d_14">
      <g>
       <use xlink:href="#m1342d7fdb0" x="212.891875" y="440.585023" style="fill: #555555; stroke: #555555; stroke-width: 0.8"/>
      </g>
     </g>
     <g id="text_8">
      <!-- EXTRACCIÓN DE TUBO DE TRAQUEOSTOMÍA -->
      <g style="fill: #555555" transform="translate(7.2 444.402288) scale(0.09 -0.09)">
       <defs>
        <path id="DejaVuSans-51" d="M 2522 4238 
Q 1834 4238 1429 3725 
Q 1025 3213 1025 2328 
Q 1025 1447 1429 934 
Q 1834 422 2522 422 
Q 3209 422 3611 934 
Q 4013 1447 4013 2328 
Q 4013 3213 3611 3725 
Q 3209 4238 2522 4238 
z
M 3406 84 
L 4238 -825 
L 3475 -825 
L 2784 -78 
Q 2681 -84 2626 -87 
Q 2572 -91 2522 -91 
Q 1538 -91 948 567 
Q 359 1225 359 2328 
Q 359 3434 948 4092 
Q 1538 4750 2522 4750 
Q 3503 4750 4090 4092 
Q 4678 3434 4678 2328 
Q 4678 1516 4351 937 
Q 4025 359 3406 84 
z
" transform="scale(0.015625)"/>
        <path id="DejaVuSans-cd" d="M 628 4666 
L 1259 4666 
L 1259 0 
L 628 0 
L 628 4666 
z
M 1119 5935 
L 1697 5935 
L 984 5110 
L 506 5110 
L 1119 5935 
z
" transform="scale(0.015625)"/>
       </defs>
       <use xlink:href="#DejaVuSans-45"/>
       <use xlink:href="#DejaVuSans-58" x="63.183594"/>
       <use xlink:href="#DejaVuSans-54" x="129.939453"/>
       <use xlink:href="#DejaVuSans-52" x="191.023438"/>
       <use xlink:href="#DejaVuSans-41" x="256.505859"/>
       <use xlink:href="#DejaVuSans-43" x="323.164062"/>
       <use xlink:href="#DejaVuSans-43" x="392.988281"/>
       <use xlink:href="#DejaVuSans-49" x="462.8125"/>
       <use xlink:href="#DejaVuSans-d3" x="492.304688"/>
       <use xlink:href="#DejaVuSans-4e" x="571.015625"/>
       <use xlink:href="#DejaVuSans-20" x="645.820312"/>
       <use xlink:href="#DejaVuSans-44" x="677.607422"/>
       <use xlink:href="#DejaVuSans-45" x="754.609375"/>
       <use xlink:href="#DejaVuSans-20" x="817.792969"/>
       <use xlink:href="#DejaVuSans-54" x="849.580078"/>
       <use xlink:href="#DejaVuSans-55" x="910.664062"/>
       <use xlink:href="#DejaVuSans-42" x="983.857422"/>
       <use xlink:href="#DejaVuSans-4f" x="1050.710938"/>
       <use xlink:href="#DejaVuSans-20" x="1129.421875"/>
       <use xlink:href="#DejaVuSans-44" x="1161.208984"/>
       <use xlink:href="#DejaVuSans-45" x="1238.210938"/>
       <use xlink:href="#DejaVuSans-20" x="1301.394531"/>
       <use xlink:href="#DejaVuSans-54" x="1333.181641"/>
       <use xlink:href="#DejaVuSans-52" x="1394.265625"/>
       <use xlink:href="#DejaVuSans-41" x="1459.748047"/>
       <use xlink:href="#DejaVuSans-51" x="1526.40625"/>
       <use xlink:href="#DejaVuSans-55" x="1605.117188"/>
       <use xlink:href="#DejaVuSans-45" x="1678.310547"/>
       <use xlink:href="#DejaVuSans-4f" x="1741.494141"/>
       <use xlink:href="#DejaVuSans-53" x="1820.205078"/>
       <use xlink:href="#DejaVuSans-54" x="1883.681641"/>
       <use xlink:href="#DejaVuSans-4f" x="1944.765625"/>
       <use xlink:href="#DejaVuSans-4d" x="2023.476562"/>
       <use xlink:href="#DejaVuSans-cd" x="2109.755859"/>
       <use xlink:href="#DejaVuSans-41" x="2139.248047"/>
      </g>
     </g>
    </g>
    <g id="ytick_3">
     <g id="line2d_15">
      <path d="M 212.891875 393.805802 
L 993.211875 393.805802 
" clip-path="url(#p47543253c0)" style="fill: none; stroke: #ffffff; stroke-width: 0.8; stroke-linecap: square"/>
     </g>
     <g id="line2d_16">
      <g>
       <use xlink:href="#m1342d7fdb0" x="212.891875" y="393.805802" style="fill: #555555; stroke: #555555; stroke-width: 0.8"/>
      </g>
     </g>
     <g id="text_9">
      <!-- EXTRACCIÓN DE OTRO DISPOSITIVO -->
      <g style="fill: #555555" transform="translate(43.23375 392.869943) scale(0.09 -0.09)">
       <use xlink:href="#DejaVuSans-45"/>
       <use xlink:href="#DejaVuSans-58" x="63.183594"/>
       <use xlink:href="#DejaVuSans-54" x="129.939453"/>
       <use xlink:href="#DejaVuSans-52" x="191.023438"/>
       <use xlink:href="#DejaVuSans-41" x="256.505859"/>
       <use xlink:href="#DejaVuSans-43" x="323.164062"/>
       <use xlink:href="#DejaVuSans-43" x="392.988281"/>
       <use xlink:href="#DejaVuSans-49" x="462.8125"/>
       <use xlink:href="#DejaVuSans-d3" x="492.304688"/>
       <use xlink:href="#DejaVuSans-4e" x="571.015625"/>
       <use xlink:href="#DejaVuSans-20" x="645.820312"/>
       <use xlink:href="#DejaVuSans-44" x="677.607422"/>
       <use xlink:href="#DejaVuSans-45" x="754.609375"/>
       <use xlink:href="#DejaVuSans-20" x="817.792969"/>
       <use xlink:href="#DejaVuSans-4f" x="849.580078"/>
       <use xlink:href="#DejaVuSans-54" x="928.291016"/>
       <use xlink:href="#DejaVuSans-52" x="989.375"/>
       <use xlink:href="#DejaVuSans-4f" x="1058.857422"/>
       <use xlink:href="#DejaVuSans-20" x="1137.568359"/>
       <use xlink:href="#DejaVuSans-44" x="1169.355469"/>
       <use xlink:href="#DejaVuSans-49" x="1246.357422"/>
       <use xlink:href="#DejaVuSans-53" x="1275.849609"/>
       <use xlink:href="#DejaVuSans-50" x="1339.326172"/>
       <use xlink:href="#DejaVuSans-4f" x="1399.628906"/>
       <use xlink:href="#DejaVuSans-53" x="1478.339844"/>
       <use xlink:href="#DejaVuSans-49" x="1541.816406"/>
       <use xlink:href="#DejaVuSans-54" x="1571.308594"/>
       <use xlink:href="#DejaVuSans-49" x="1632.392578"/>
       <use xlink:href="#DejaVuSans-56" x="1661.884766"/>
       <use xlink:href="#DejaVuSans-4f" x="1728.542969"/>
      </g>
      <!-- TERAPÉUTICO -->
      <g style="fill: #555555" transform="translate(143.436094 402.947974) scale(0.09 -0.09)">
       <defs>
        <path id="DejaVuSans-c9" d="M 628 4666 
L 3578 4666 
L 3578 4134 
L 1259 4134 
L 1259 2753 
L 3481 2753 
L 3481 2222 
L 1259 2222 
L 1259 531 
L 3634 531 
L 3634 0 
L 628 0 
L 628 4666 
z
M 2266 5935 
L 2844 5935 
L 2131 5110 
L 1653 5110 
L 2266 5935 
z
" transform="scale(0.015625)"/>
       </defs>
       <use xlink:href="#DejaVuSans-54"/>
       <use xlink:href="#DejaVuSans-45" x="61.083984"/>
       <use xlink:href="#DejaVuSans-52" x="124.267578"/>
       <use xlink:href="#DejaVuSans-41" x="189.75"/>
       <use xlink:href="#DejaVuSans-50" x="258.158203"/>
       <use xlink:href="#DejaVuSans-c9" x="318.460938"/>
       <use xlink:href="#DejaVuSans-55" x="381.644531"/>
       <use xlink:href="#DejaVuSans-54" x="454.837891"/>
       <use xlink:href="#DejaVuSans-49" x="515.921875"/>
       <use xlink:href="#DejaVuSans-43" x="545.414062"/>
       <use xlink:href="#DejaVuSans-4f" x="615.238281"/>
      </g>
     </g>
    </g>
    <g id="ytick_4">
     <g id="line2d_17">
      <path d="M 212.891875 347.026581 
L 993.211875 347.026581 
" clip-path="url(#p47543253c0)" style="fill: none; stroke: #ffffff; stroke-width: 0.8; stroke-linecap: square"/>
     </g>
     <g id="line2d_18">
      <g>
       <use xlink:href="#m1342d7fdb0" x="212.891875" y="347.026581" style="fill: #555555; stroke: #555555; stroke-width: 0.8"/>
      </g>
     </g>
     <g id="text_10">
      <!-- LITOTRICIA POR ONDAS DE CHOQUE -->
      <g style="fill: #555555" transform="translate(41.359219 339.923894) scale(0.09 -0.09)">
       <defs>
        <path id="DejaVuSans-48" d="M 628 4666 
L 1259 4666 
L 1259 2753 
L 3553 2753 
L 3553 4666 
L 4184 4666 
L 4184 0 
L 3553 0 
L 3553 2222 
L 1259 2222 
L 1259 0 
L 628 0 
L 628 4666 
z
" transform="scale(0.015625)"/>
       </defs>
       <use xlink:href="#DejaVuSans-4c"/>
       <use xlink:href="#DejaVuSans-49" x="55.712891"/>
       <use xlink:href="#DejaVuSans-54" x="85.205078"/>
       <use xlink:href="#DejaVuSans-4f" x="146.289062"/>
       <use xlink:href="#DejaVuSans-54" x="225"/>
       <use xlink:href="#DejaVuSans-52" x="286.083984"/>
       <use xlink:href="#DejaVuSans-49" x="355.566406"/>
       <use xlink:href="#DejaVuSans-43" x="385.058594"/>
       <use xlink:href="#DejaVuSans-49" x="454.882812"/>
       <use xlink:href="#DejaVuSans-41" x="484.375"/>
       <use xlink:href="#DejaVuSans-20" x="552.783203"/>
       <use xlink:href="#DejaVuSans-50" x="584.570312"/>
       <use xlink:href="#DejaVuSans-4f" x="644.873047"/>
       <use xlink:href="#DejaVuSans-52" x="723.583984"/>
       <use xlink:href="#DejaVuSans-20" x="793.066406"/>
       <use xlink:href="#DejaVuSans-4f" x="824.853516"/>
       <use xlink:href="#DejaVuSans-4e" x="903.564453"/>
       <use xlink:href="#DejaVuSans-44" x="978.369141"/>
       <use xlink:href="#DejaVuSans-41" x="1053.621094"/>
       <use xlink:href="#DejaVuSans-53" x="1122.029297"/>
       <use xlink:href="#DejaVuSans-20" x="1185.505859"/>
       <use xlink:href="#DejaVuSans-44" x="1217.292969"/>
       <use xlink:href="#DejaVuSans-45" x="1294.294922"/>
       <use xlink:href="#DejaVuSans-20" x="1357.478516"/>
       <use xlink:href="#DejaVuSans-43" x="1389.265625"/>
       <use xlink:href="#DejaVuSans-48" x="1459.089844"/>
       <use xlink:href="#DejaVuSans-4f" x="1534.285156"/>
       <use xlink:href="#DejaVuSans-51" x="1612.996094"/>
       <use xlink:href="#DejaVuSans-55" x="1691.707031"/>
       <use xlink:href="#DejaVuSans-45" x="1764.900391"/>
      </g>
      <!-- EXTRACORPORALES DEL RIÑÓN, DEL -->
      <g style="fill: #555555" transform="translate(40.044375 350.820362) scale(0.09 -0.09)">
       <use xlink:href="#DejaVuSans-45"/>
       <use xlink:href="#DejaVuSans-58" x="63.183594"/>
       <use xlink:href="#DejaVuSans-54" x="129.939453"/>
       <use xlink:href="#DejaVuSans-52" x="191.023438"/>
       <use xlink:href="#DejaVuSans-41" x="256.505859"/>
       <use xlink:href="#DejaVuSans-43" x="323.164062"/>
       <use xlink:href="#DejaVuSans-4f" x="392.988281"/>
       <use xlink:href="#DejaVuSans-52" x="471.699219"/>
       <use xlink:href="#DejaVuSans-50" x="541.181641"/>
       <use xlink:href="#DejaVuSans-4f" x="601.484375"/>
       <use xlink:href="#DejaVuSans-52" x="680.195312"/>
       <use xlink:href="#DejaVuSans-41" x="745.677734"/>
       <use xlink:href="#DejaVuSans-4c" x="814.085938"/>
       <use xlink:href="#DejaVuSans-45" x="869.798828"/>
       <use xlink:href="#DejaVuSans-53" x="932.982422"/>
       <use xlink:href="#DejaVuSans-20" x="996.458984"/>
       <use xlink:href="#DejaVuSans-44" x="1028.246094"/>
       <use xlink:href="#DejaVuSans-45" x="1105.248047"/>
       <use xlink:href="#DejaVuSans-4c" x="1168.431641"/>
       <use xlink:href="#DejaVuSans-20" x="1224.144531"/>
       <use xlink:href="#DejaVuSans-52" x="1255.931641"/>
       <use xlink:href="#DejaVuSans-49" x="1325.414062"/>
       <use xlink:href="#DejaVuSans-d1" x="1354.90625"/>
       <use xlink:href="#DejaVuSans-d3" x="1429.710938"/>
       <use xlink:href="#DejaVuSans-4e" x="1508.421875"/>
       <use xlink:href="#DejaVuSans-2c" x="1583.226562"/>
       <use xlink:href="#DejaVuSans-20" x="1615.013672"/>
       <use xlink:href="#DejaVuSans-44" x="1646.800781"/>
       <use xlink:href="#DejaVuSans-45" x="1723.802734"/>
       <use xlink:href="#DejaVuSans-4c" x="1786.986328"/>
      </g>
      <!-- URÉTER Y DE LA VEJIGA -->
      <g style="fill: #555555" transform="translate(98.714531 362.623019) scale(0.09 -0.09)">
       <defs>
        <path id="DejaVuSans-59" d="M -13 4666 
L 666 4666 
L 1959 2747 
L 3244 4666 
L 3922 4666 
L 2272 2222 
L 2272 0 
L 1638 0 
L 1638 2222 
L -13 4666 
z
" transform="scale(0.015625)"/>
        <path id="DejaVuSans-4a" d="M 628 4666 
L 1259 4666 
L 1259 325 
Q 1259 -519 939 -900 
Q 619 -1281 -91 -1281 
L -331 -1281 
L -331 -750 
L -134 -750 
Q 284 -750 456 -515 
Q 628 -281 628 325 
L 628 4666 
z
" transform="scale(0.015625)"/>
        <path id="DejaVuSans-47" d="M 3809 666 
L 3809 1919 
L 2778 1919 
L 2778 2438 
L 4434 2438 
L 4434 434 
Q 4069 175 3628 42 
Q 3188 -91 2688 -91 
Q 1594 -91 976 548 
Q 359 1188 359 2328 
Q 359 3472 976 4111 
Q 1594 4750 2688 4750 
Q 3144 4750 3555 4637 
Q 3966 4525 4313 4306 
L 4313 3634 
Q 3963 3931 3569 4081 
Q 3175 4231 2741 4231 
Q 1884 4231 1454 3753 
Q 1025 3275 1025 2328 
Q 1025 1384 1454 906 
Q 1884 428 2741 428 
Q 3075 428 3337 486 
Q 3600 544 3809 666 
z
" transform="scale(0.015625)"/>
       </defs>
       <use xlink:href="#DejaVuSans-55"/>
       <use xlink:href="#DejaVuSans-52" x="73.193359"/>
       <use xlink:href="#DejaVuSans-c9" x="142.675781"/>
       <use xlink:href="#DejaVuSans-54" x="205.859375"/>
       <use xlink:href="#DejaVuSans-45" x="266.943359"/>
       <use xlink:href="#DejaVuSans-52" x="330.126953"/>
       <use xlink:href="#DejaVuSans-20" x="399.609375"/>
       <use xlink:href="#DejaVuSans-59" x="431.396484"/>
       <use xlink:href="#DejaVuSans-20" x="492.480469"/>
       <use xlink:href="#DejaVuSans-44" x="524.267578"/>
       <use xlink:href="#DejaVuSans-45" x="601.269531"/>
       <use xlink:href="#DejaVuSans-20" x="664.453125"/>
       <use xlink:href="#DejaVuSans-4c" x="696.240234"/>
       <use xlink:href="#DejaVuSans-41" x="754.203125"/>
       <use xlink:href="#DejaVuSans-20" x="822.611328"/>
       <use xlink:href="#DejaVuSans-56" x="854.398438"/>
       <use xlink:href="#DejaVuSans-45" x="922.806641"/>
       <use xlink:href="#DejaVuSans-4a" x="985.990234"/>
       <use xlink:href="#DejaVuSans-49" x="1015.482422"/>
       <use xlink:href="#DejaVuSans-47" x="1044.974609"/>
       <use xlink:href="#DejaVuSans-41" x="1122.464844"/>
      </g>
     </g>
    </g>
    <g id="ytick_5">
     <g id="line2d_19">
      <path d="M 212.891875 300.24736 
L 993.211875 300.24736 
" clip-path="url(#p47543253c0)" style="fill: none; stroke: #ffffff; stroke-width: 0.8; stroke-linecap: square"/>
     </g>
     <g id="line2d_20">
      <g>
       <use xlink:href="#m1342d7fdb0" x="212.891875" y="300.24736" style="fill: #555555; stroke: #555555; stroke-width: 0.8"/>
      </g>
     </g>
     <g id="text_11">
      <!-- SUSTITUCIÓN DE CATÉTER URINARIO -->
      <g style="fill: #555555" transform="translate(38.943281 299.311501) scale(0.09 -0.09)">
       <use xlink:href="#DejaVuSans-53"/>
       <use xlink:href="#DejaVuSans-55" x="63.476562"/>
       <use xlink:href="#DejaVuSans-53" x="136.669922"/>
       <use xlink:href="#DejaVuSans-54" x="200.146484"/>
       <use xlink:href="#DejaVuSans-49" x="261.230469"/>
       <use xlink:href="#DejaVuSans-54" x="290.722656"/>
       <use xlink:href="#DejaVuSans-55" x="351.806641"/>
       <use xlink:href="#DejaVuSans-43" x="425"/>
       <use xlink:href="#DejaVuSans-49" x="494.824219"/>
       <use xlink:href="#DejaVuSans-d3" x="524.316406"/>
       <use xlink:href="#DejaVuSans-4e" x="603.027344"/>
       <use xlink:href="#DejaVuSans-20" x="677.832031"/>
       <use xlink:href="#DejaVuSans-44" x="709.619141"/>
       <use xlink:href="#DejaVuSans-45" x="786.621094"/>
       <use xlink:href="#DejaVuSans-20" x="849.804688"/>
       <use xlink:href="#DejaVuSans-43" x="881.591797"/>
       <use xlink:href="#DejaVuSans-41" x="951.416016"/>
       <use xlink:href="#DejaVuSans-54" x="1012.074219"/>
       <use xlink:href="#DejaVuSans-c9" x="1073.158203"/>
       <use xlink:href="#DejaVuSans-54" x="1136.341797"/>
       <use xlink:href="#DejaVuSans-45" x="1197.425781"/>
       <use xlink:href="#DejaVuSans-52" x="1260.609375"/>
       <use xlink:href="#DejaVuSans-20" x="1330.091797"/>
       <use xlink:href="#DejaVuSans-55" x="1361.878906"/>
       <use xlink:href="#DejaVuSans-52" x="1435.072266"/>
       <use xlink:href="#DejaVuSans-49" x="1504.554688"/>
       <use xlink:href="#DejaVuSans-4e" x="1534.046875"/>
       <use xlink:href="#DejaVuSans-41" x="1608.851562"/>
       <use xlink:href="#DejaVuSans-52" x="1677.259766"/>
       <use xlink:href="#DejaVuSans-49" x="1746.742188"/>
       <use xlink:href="#DejaVuSans-4f" x="1776.234375"/>
      </g>
      <!-- PERMANENTE -->
      <g style="fill: #555555" transform="translate(144.265781 309.389532) scale(0.09 -0.09)">
       <use xlink:href="#DejaVuSans-50"/>
       <use xlink:href="#DejaVuSans-45" x="60.302734"/>
       <use xlink:href="#DejaVuSans-52" x="123.486328"/>
       <use xlink:href="#DejaVuSans-4d" x="192.96875"/>
       <use xlink:href="#DejaVuSans-41" x="279.248047"/>
       <use xlink:href="#DejaVuSans-4e" x="347.65625"/>
       <use xlink:href="#DejaVuSans-45" x="422.460938"/>
       <use xlink:href="#DejaVuSans-4e" x="485.644531"/>
       <use xlink:href="#DejaVuSans-54" x="560.449219"/>
       <use xlink:href="#DejaVuSans-45" x="621.533203"/>
      </g>
     </g>
    </g>
    <g id="ytick_6">
     <g id="line2d_21">
      <path d="M 212.891875 253.46814 
L 993.211875 253.46814 
" clip-path="url(#p47543253c0)" style="fill: none; stroke: #ffffff; stroke-width: 0.8; stroke-linecap: square"/>
     </g>
     <g id="line2d_22">
      <g>
       <use xlink:href="#m1342d7fdb0" x="212.891875" y="253.46814" style="fill: #555555; stroke: #555555; stroke-width: 0.8"/>
      </g>
     </g>
     <g id="text_12">
      <!-- OTRA PUNCIÓN DE VENA -->
      <g style="fill: #555555" transform="translate(93.825 256.887436) scale(0.09 -0.09)">
       <use xlink:href="#DejaVuSans-4f"/>
       <use xlink:href="#DejaVuSans-54" x="78.710938"/>
       <use xlink:href="#DejaVuSans-52" x="139.794922"/>
       <use xlink:href="#DejaVuSans-41" x="205.277344"/>
       <use xlink:href="#DejaVuSans-20" x="273.685547"/>
       <use xlink:href="#DejaVuSans-50" x="305.472656"/>
       <use xlink:href="#DejaVuSans-55" x="365.775391"/>
       <use xlink:href="#DejaVuSans-4e" x="438.96875"/>
       <use xlink:href="#DejaVuSans-43" x="513.773438"/>
       <use xlink:href="#DejaVuSans-49" x="583.597656"/>
       <use xlink:href="#DejaVuSans-d3" x="613.089844"/>
       <use xlink:href="#DejaVuSans-4e" x="691.800781"/>
       <use xlink:href="#DejaVuSans-20" x="766.605469"/>
       <use xlink:href="#DejaVuSans-44" x="798.392578"/>
       <use xlink:href="#DejaVuSans-45" x="875.394531"/>
       <use xlink:href="#DejaVuSans-20" x="938.578125"/>
       <use xlink:href="#DejaVuSans-56" x="970.365234"/>
       <use xlink:href="#DejaVuSans-45" x="1038.773438"/>
       <use xlink:href="#DejaVuSans-4e" x="1101.957031"/>
       <use xlink:href="#DejaVuSans-41" x="1176.761719"/>
      </g>
     </g>
    </g>
    <g id="ytick_7">
     <g id="line2d_23">
      <path d="M 212.891875 206.688919 
L 993.211875 206.688919 
" clip-path="url(#p47543253c0)" style="fill: none; stroke: #ffffff; stroke-width: 0.8; stroke-linecap: square"/>
     </g>
     <g id="line2d_24">
      <g>
       <use xlink:href="#m1342d7fdb0" x="212.891875" y="206.688919" style="fill: #555555; stroke: #555555; stroke-width: 0.8"/>
      </g>
     </g>
     <g id="text_13">
      <!-- EXTRACCIÓN DE OTRO DISPOSITIVO DE -->
      <g style="fill: #555555" transform="translate(27.756562 205.753059) scale(0.09 -0.09)">
       <use xlink:href="#DejaVuSans-45"/>
       <use xlink:href="#DejaVuSans-58" x="63.183594"/>
       <use xlink:href="#DejaVuSans-54" x="129.939453"/>
       <use xlink:href="#DejaVuSans-52" x="191.023438"/>
       <use xlink:href="#DejaVuSans-41" x="256.505859"/>
       <use xlink:href="#DejaVuSans-43" x="323.164062"/>
       <use xlink:href="#DejaVuSans-43" x="392.988281"/>
       <use xlink:href="#DejaVuSans-49" x="462.8125"/>
       <use xlink:href="#DejaVuSans-d3" x="492.304688"/>
       <use xlink:href="#DejaVuSans-4e" x="571.015625"/>
       <use xlink:href="#DejaVuSans-20" x="645.820312"/>
       <use xlink:href="#DejaVuSans-44" x="677.607422"/>
       <use xlink:href="#DejaVuSans-45" x="754.609375"/>
       <use xlink:href="#DejaVuSans-20" x="817.792969"/>
       <use xlink:href="#DejaVuSans-4f" x="849.580078"/>
       <use xlink:href="#DejaVuSans-54" x="928.291016"/>
       <use xlink:href="#DejaVuSans-52" x="989.375"/>
       <use xlink:href="#DejaVuSans-4f" x="1058.857422"/>
       <use xlink:href="#DejaVuSans-20" x="1137.568359"/>
       <use xlink:href="#DejaVuSans-44" x="1169.355469"/>
       <use xlink:href="#DejaVuSans-49" x="1246.357422"/>
       <use xlink:href="#DejaVuSans-53" x="1275.849609"/>
       <use xlink:href="#DejaVuSans-50" x="1339.326172"/>
       <use xlink:href="#DejaVuSans-4f" x="1399.628906"/>
       <use xlink:href="#DejaVuSans-53" x="1478.339844"/>
       <use xlink:href="#DejaVuSans-49" x="1541.816406"/>
       <use xlink:href="#DejaVuSans-54" x="1571.308594"/>
       <use xlink:href="#DejaVuSans-49" x="1632.392578"/>
       <use xlink:href="#DejaVuSans-56" x="1661.884766"/>
       <use xlink:href="#DejaVuSans-4f" x="1728.542969"/>
       <use xlink:href="#DejaVuSans-20" x="1807.253906"/>
       <use xlink:href="#DejaVuSans-44" x="1839.041016"/>
       <use xlink:href="#DejaVuSans-45" x="1916.042969"/>
      </g>
      <!-- DRENAJE URINARIO -->
      <g style="fill: #555555" transform="translate(118.551094 215.831091) scale(0.09 -0.09)">
       <use xlink:href="#DejaVuSans-44"/>
       <use xlink:href="#DejaVuSans-52" x="77.001953"/>
       <use xlink:href="#DejaVuSans-45" x="146.484375"/>
       <use xlink:href="#DejaVuSans-4e" x="209.667969"/>
       <use xlink:href="#DejaVuSans-41" x="284.472656"/>
       <use xlink:href="#DejaVuSans-4a" x="352.880859"/>
       <use xlink:href="#DejaVuSans-45" x="382.373047"/>
       <use xlink:href="#DejaVuSans-20" x="445.556641"/>
       <use xlink:href="#DejaVuSans-55" x="477.34375"/>
       <use xlink:href="#DejaVuSans-52" x="550.537109"/>
       <use xlink:href="#DejaVuSans-49" x="620.019531"/>
       <use xlink:href="#DejaVuSans-4e" x="649.511719"/>
       <use xlink:href="#DejaVuSans-41" x="724.316406"/>
       <use xlink:href="#DejaVuSans-52" x="792.724609"/>
       <use xlink:href="#DejaVuSans-49" x="862.207031"/>
       <use xlink:href="#DejaVuSans-4f" x="891.699219"/>
      </g>
     </g>
    </g>
    <g id="ytick_8">
     <g id="line2d_25">
      <path d="M 212.891875 159.909698 
L 993.211875 159.909698 
" clip-path="url(#p47543253c0)" style="fill: none; stroke: #ffffff; stroke-width: 0.8; stroke-linecap: square"/>
     </g>
     <g id="line2d_26">
      <g>
       <use xlink:href="#m1342d7fdb0" x="212.891875" y="159.909698" style="fill: #555555; stroke: #555555; stroke-width: 0.8"/>
      </g>
     </g>
     <g id="text_14">
      <!-- DRENAJE DE ABSCESO DENTARIO -->
      <g style="fill: #555555" transform="translate(55.635469 163.328995) scale(0.09 -0.09)">
       <use xlink:href="#DejaVuSans-44"/>
       <use xlink:href="#DejaVuSans-52" x="77.001953"/>
       <use xlink:href="#DejaVuSans-45" x="146.484375"/>
       <use xlink:href="#DejaVuSans-4e" x="209.667969"/>
       <use xlink:href="#DejaVuSans-41" x="284.472656"/>
       <use xlink:href="#DejaVuSans-4a" x="352.880859"/>
       <use xlink:href="#DejaVuSans-45" x="382.373047"/>
       <use xlink:href="#DejaVuSans-20" x="445.556641"/>
       <use xlink:href="#DejaVuSans-44" x="477.34375"/>
       <use xlink:href="#DejaVuSans-45" x="554.345703"/>
       <use xlink:href="#DejaVuSans-20" x="617.529297"/>
       <use xlink:href="#DejaVuSans-41" x="649.316406"/>
       <use xlink:href="#DejaVuSans-42" x="717.724609"/>
       <use xlink:href="#DejaVuSans-53" x="784.578125"/>
       <use xlink:href="#DejaVuSans-43" x="848.054688"/>
       <use xlink:href="#DejaVuSans-45" x="917.878906"/>
       <use xlink:href="#DejaVuSans-53" x="981.0625"/>
       <use xlink:href="#DejaVuSans-4f" x="1044.539062"/>
       <use xlink:href="#DejaVuSans-20" x="1123.25"/>
       <use xlink:href="#DejaVuSans-44" x="1155.037109"/>
       <use xlink:href="#DejaVuSans-45" x="1232.039062"/>
       <use xlink:href="#DejaVuSans-4e" x="1295.222656"/>
       <use xlink:href="#DejaVuSans-54" x="1370.027344"/>
       <use xlink:href="#DejaVuSans-41" x="1423.361328"/>
       <use xlink:href="#DejaVuSans-52" x="1491.769531"/>
       <use xlink:href="#DejaVuSans-49" x="1561.251953"/>
       <use xlink:href="#DejaVuSans-4f" x="1590.744141"/>
      </g>
     </g>
    </g>
    <g id="ytick_9">
     <g id="line2d_27">
      <path d="M 212.891875 113.130477 
L 993.211875 113.130477 
" clip-path="url(#p47543253c0)" style="fill: none; stroke: #ffffff; stroke-width: 0.8; stroke-linecap: square"/>
     </g>
     <g id="line2d_28">
      <g>
       <use xlink:href="#m1342d7fdb0" x="212.891875" y="113.130477" style="fill: #555555; stroke: #555555; stroke-width: 0.8"/>
      </g>
     </g>
     <g id="text_15">
      <!-- OTROS PROCEDIMIENTO MISCELÁNEO -->
      <g style="fill: #555555" transform="translate(33.810469 116.549774) scale(0.09 -0.09)">
       <defs>
        <path id="DejaVuSans-c1" d="M 2188 4044 
L 1331 1722 
L 3047 1722 
L 2188 4044 
z
M 1831 4666 
L 2547 4666 
L 4325 0 
L 3669 0 
L 3244 1197 
L 1141 1197 
L 716 0 
L 50 0 
L 1831 4666 
z
M 2359 5935 
L 2938 5935 
L 2225 5110 
L 1747 5110 
L 2359 5935 
z
" transform="scale(0.015625)"/>
       </defs>
       <use xlink:href="#DejaVuSans-4f"/>
       <use xlink:href="#DejaVuSans-54" x="78.710938"/>
       <use xlink:href="#DejaVuSans-52" x="139.794922"/>
       <use xlink:href="#DejaVuSans-4f" x="209.277344"/>
       <use xlink:href="#DejaVuSans-53" x="287.988281"/>
       <use xlink:href="#DejaVuSans-20" x="351.464844"/>
       <use xlink:href="#DejaVuSans-50" x="383.251953"/>
       <use xlink:href="#DejaVuSans-52" x="443.554688"/>
       <use xlink:href="#DejaVuSans-4f" x="513.037109"/>
       <use xlink:href="#DejaVuSans-43" x="591.748047"/>
       <use xlink:href="#DejaVuSans-45" x="661.572266"/>
       <use xlink:href="#DejaVuSans-44" x="724.755859"/>
       <use xlink:href="#DejaVuSans-49" x="801.757812"/>
       <use xlink:href="#DejaVuSans-4d" x="831.25"/>
       <use xlink:href="#DejaVuSans-49" x="917.529297"/>
       <use xlink:href="#DejaVuSans-45" x="947.021484"/>
       <use xlink:href="#DejaVuSans-4e" x="1010.205078"/>
       <use xlink:href="#DejaVuSans-54" x="1085.009766"/>
       <use xlink:href="#DejaVuSans-4f" x="1146.09375"/>
       <use xlink:href="#DejaVuSans-20" x="1224.804688"/>
       <use xlink:href="#DejaVuSans-4d" x="1256.591797"/>
       <use xlink:href="#DejaVuSans-49" x="1342.871094"/>
       <use xlink:href="#DejaVuSans-53" x="1372.363281"/>
       <use xlink:href="#DejaVuSans-43" x="1435.839844"/>
       <use xlink:href="#DejaVuSans-45" x="1505.664062"/>
       <use xlink:href="#DejaVuSans-4c" x="1568.847656"/>
       <use xlink:href="#DejaVuSans-c1" x="1626.810547"/>
       <use xlink:href="#DejaVuSans-4e" x="1695.21875"/>
       <use xlink:href="#DejaVuSans-45" x="1770.023438"/>
       <use xlink:href="#DejaVuSans-4f" x="1833.207031"/>
      </g>
     </g>
    </g>
    <g id="ytick_10">
     <g id="line2d_29">
      <path d="M 212.891875 66.351256 
L 993.211875 66.351256 
" clip-path="url(#p47543253c0)" style="fill: none; stroke: #ffffff; stroke-width: 0.8; stroke-linecap: square"/>
     </g>
     <g id="line2d_30">
      <g>
       <use xlink:href="#m1342d7fdb0" x="212.891875" y="66.351256" style="fill: #555555; stroke: #555555; stroke-width: 0.8"/>
      </g>
     </g>
     <g id="text_16">
      <!-- CATETERISMO VENOSO, NO CLASIFICADO -->
      <g style="fill: #555555" transform="translate(18.275625 65.415397) scale(0.09 -0.09)">
       <defs>
        <path id="DejaVuSans-46" d="M 628 4666 
L 3309 4666 
L 3309 4134 
L 1259 4134 
L 1259 2759 
L 3109 2759 
L 3109 2228 
L 1259 2228 
L 1259 0 
L 628 0 
L 628 4666 
z
" transform="scale(0.015625)"/>
       </defs>
       <use xlink:href="#DejaVuSans-43"/>
       <use xlink:href="#DejaVuSans-41" x="69.824219"/>
       <use xlink:href="#DejaVuSans-54" x="130.482422"/>
       <use xlink:href="#DejaVuSans-45" x="191.566406"/>
       <use xlink:href="#DejaVuSans-54" x="254.75"/>
       <use xlink:href="#DejaVuSans-45" x="315.833984"/>
       <use xlink:href="#DejaVuSans-52" x="379.017578"/>
       <use xlink:href="#DejaVuSans-49" x="448.5"/>
       <use xlink:href="#DejaVuSans-53" x="477.992188"/>
       <use xlink:href="#DejaVuSans-4d" x="541.46875"/>
       <use xlink:href="#DejaVuSans-4f" x="627.748047"/>
       <use xlink:href="#DejaVuSans-20" x="706.458984"/>
       <use xlink:href="#DejaVuSans-56" x="738.246094"/>
       <use xlink:href="#DejaVuSans-45" x="806.654297"/>
       <use xlink:href="#DejaVuSans-4e" x="869.837891"/>
       <use xlink:href="#DejaVuSans-4f" x="944.642578"/>
       <use xlink:href="#DejaVuSans-53" x="1023.353516"/>
       <use xlink:href="#DejaVuSans-4f" x="1086.830078"/>
       <use xlink:href="#DejaVuSans-2c" x="1165.541016"/>
       <use xlink:href="#DejaVuSans-20" x="1197.328125"/>
       <use xlink:href="#DejaVuSans-4e" x="1229.115234"/>
       <use xlink:href="#DejaVuSans-4f" x="1303.919922"/>
       <use xlink:href="#DejaVuSans-20" x="1382.630859"/>
       <use xlink:href="#DejaVuSans-43" x="1414.417969"/>
       <use xlink:href="#DejaVuSans-4c" x="1484.242188"/>
       <use xlink:href="#DejaVuSans-41" x="1542.205078"/>
       <use xlink:href="#DejaVuSans-53" x="1610.613281"/>
       <use xlink:href="#DejaVuSans-49" x="1674.089844"/>
       <use xlink:href="#DejaVuSans-46" x="1703.582031"/>
       <use xlink:href="#DejaVuSans-49" x="1761.101562"/>
       <use xlink:href="#DejaVuSans-43" x="1790.59375"/>
       <use xlink:href="#DejaVuSans-41" x="1860.417969"/>
       <use xlink:href="#DejaVuSans-44" x="1928.826172"/>
       <use xlink:href="#DejaVuSans-4f" x="2005.828125"/>
      </g>
      <!-- BAJO OTRO CONCEPTO -->
      <g style="fill: #555555" transform="translate(102.097969 75.493428) scale(0.09 -0.09)">
       <use xlink:href="#DejaVuSans-42"/>
       <use xlink:href="#DejaVuSans-41" x="68.603516"/>
       <use xlink:href="#DejaVuSans-4a" x="137.011719"/>
       <use xlink:href="#DejaVuSans-4f" x="166.503906"/>
       <use xlink:href="#DejaVuSans-20" x="245.214844"/>
       <use xlink:href="#DejaVuSans-4f" x="277.001953"/>
       <use xlink:href="#DejaVuSans-54" x="355.712891"/>
       <use xlink:href="#DejaVuSans-52" x="416.796875"/>
       <use xlink:href="#DejaVuSans-4f" x="486.279297"/>
       <use xlink:href="#DejaVuSans-20" x="564.990234"/>
       <use xlink:href="#DejaVuSans-43" x="596.777344"/>
       <use xlink:href="#DejaVuSans-4f" x="666.601562"/>
       <use xlink:href="#DejaVuSans-4e" x="745.3125"/>
       <use xlink:href="#DejaVuSans-43" x="820.117188"/>
       <use xlink:href="#DejaVuSans-45" x="889.941406"/>
       <use xlink:href="#DejaVuSans-50" x="953.125"/>
       <use xlink:href="#DejaVuSans-54" x="1013.427734"/>
       <use xlink:href="#DejaVuSans-4f" x="1074.511719"/>
      </g>
     </g>
    </g>
   </g>
   <g id="patch_3">
    <path d="M 212.891875 506.075932 
L 228.70383 506.075932 
L 228.70383 468.652555 
L 212.891875 468.652555 
z
" clip-path="url(#p47543253c0)" style="fill: #1f77b4; opacity: 0.65; stroke: #000000; stroke-width: 0.5; stroke-linejoin: miter"/>
   </g>
   <g id="patch_4">
    <path d="M 212.891875 459.296711 
L 228.70383 459.296711 
L 228.70383 421.873334 
L 212.891875 421.873334 
z
" clip-path="url(#p47543253c0)" style="fill: #1f77b4; opacity: 0.65; stroke: #000000; stroke-width: 0.5; stroke-linejoin: miter"/>
   </g>
   <g id="patch_5">
    <path d="M 212.891875 412.51749 
L 228.70383 412.51749 
L 228.70383 375.094114 
L 212.891875 375.094114 
z
" clip-path="url(#p47543253c0)" style="fill: #1f77b4; opacity: 0.65; stroke: #000000; stroke-width: 0.5; stroke-linejoin: miter"/>
   </g>
   <g id="patch_6">
    <path d="M 212.891875 365.738269 
L 260.327741 365.738269 
L 260.327741 328.314893 
L 212.891875 328.314893 
z
" clip-path="url(#p47543253c0)" style="fill: #1f77b4; opacity: 0.65; stroke: #000000; stroke-width: 0.5; stroke-linejoin: miter"/>
   </g>
   <g id="patch_7">
    <path d="M 212.891875 318.959049 
L 260.327741 318.959049 
L 260.327741 281.535672 
L 212.891875 281.535672 
z
" clip-path="url(#p47543253c0)" style="fill: #1f77b4; opacity: 0.65; stroke: #000000; stroke-width: 0.5; stroke-linejoin: miter"/>
   </g>
   <g id="patch_8">
    <path d="M 212.891875 272.179828 
L 276.139697 272.179828 
L 276.139697 234.756451 
L 212.891875 234.756451 
z
" clip-path="url(#p47543253c0)" style="fill: #1f77b4; opacity: 0.65; stroke: #000000; stroke-width: 0.5; stroke-linejoin: miter"/>
   </g>
   <g id="patch_9">
    <path d="M 212.891875 225.400607 
L 307.763608 225.400607 
L 307.763608 187.977231 
L 212.891875 187.977231 
z
" clip-path="url(#p47543253c0)" style="fill: #1f77b4; opacity: 0.65; stroke: #000000; stroke-width: 0.5; stroke-linejoin: miter"/>
   </g>
   <g id="patch_10">
    <path d="M 212.891875 178.621386 
L 323.575563 178.621386 
L 323.575563 141.19801 
L 212.891875 141.19801 
z
" clip-path="url(#p47543253c0)" style="fill: #1f77b4; opacity: 0.65; stroke: #000000; stroke-width: 0.5; stroke-linejoin: miter"/>
   </g>
   <g id="patch_11">
    <path d="M 212.891875 131.842166 
L 402.63534 131.842166 
L 402.63534 94.418789 
L 212.891875 94.418789 
z
" clip-path="url(#p47543253c0)" style="fill: #1f77b4; opacity: 0.65; stroke: #000000; stroke-width: 0.5; stroke-linejoin: miter"/>
   </g>
   <g id="patch_12">
    <path d="M 212.891875 85.062945 
L 956.05378 85.062945 
L 956.05378 47.639568 
L 212.891875 47.639568 
z
" clip-path="url(#p47543253c0)" style="fill: #1f77b4; opacity: 0.65; stroke: #000000; stroke-width: 0.5; stroke-linejoin: miter"/>
   </g>
   <g id="patch_13">
    <path d="M 212.891875 528.99775 
L 212.891875 24.71775 
" style="fill: none; stroke: #ffffff; stroke-linejoin: miter; stroke-linecap: square"/>
   </g>
   <g id="patch_14">
    <path d="M 993.211875 528.99775 
L 993.211875 24.71775 
" style="fill: none; stroke: #ffffff; stroke-linejoin: miter; stroke-linecap: square"/>
   </g>
   <g id="patch_15">
    <path d="M 212.891875 528.99775 
L 993.211875 528.99775 
" style="fill: none; stroke: #ffffff; stroke-linejoin: miter; stroke-linecap: square"/>
   </g>
   <g id="patch_16">
    <path d="M 212.891875 24.71775 
L 993.211875 24.71775 
" style="fill: none; stroke: #ffffff; stroke-linejoin: miter; stroke-linecap: square"/>
   </g>
   <g id="text_17">
    <!-- 1 -->
    <g transform="translate(231.70383 490.123619) scale(0.1 -0.1)">
     <use xlink:href="#DejaVuSans-31"/>
    </g>
   </g>
   <g id="text_18">
    <!-- 1 -->
    <g transform="translate(231.70383 443.344398) scale(0.1 -0.1)">
     <use xlink:href="#DejaVuSans-31"/>
    </g>
   </g>
   <g id="text_19">
    <!-- 1 -->
    <g transform="translate(231.70383 396.565177) scale(0.1 -0.1)">
     <use xlink:href="#DejaVuSans-31"/>
    </g>
   </g>
   <g id="text_20">
    <!-- 3 -->
    <g transform="translate(263.327741 349.785956) scale(0.1 -0.1)">
     <use xlink:href="#DejaVuSans-33"/>
    </g>
   </g>
   <g id="text_21">
    <!-- 3 -->
    <g transform="translate(263.327741 303.006735) scale(0.1 -0.1)">
     <use xlink:href="#DejaVuSans-33"/>
    </g>
   </g>
   <g id="text_22">
    <!-- 4 -->
    <g transform="translate(279.139697 256.227515) scale(0.1 -0.1)">
     <use xlink:href="#DejaVuSans-34"/>
    </g>
   </g>
   <g id="text_23">
    <!-- 6 -->
    <g transform="translate(310.763608 209.448294) scale(0.1 -0.1)">
     <defs>
      <path id="DejaVuSans-36" d="M 2113 2584 
Q 1688 2584 1439 2293 
Q 1191 2003 1191 1497 
Q 1191 994 1439 701 
Q 1688 409 2113 409 
Q 2538 409 2786 701 
Q 3034 994 3034 1497 
Q 3034 2003 2786 2293 
Q 2538 2584 2113 2584 
z
M 3366 4563 
L 3366 3988 
Q 3128 4100 2886 4159 
Q 2644 4219 2406 4219 
Q 1781 4219 1451 3797 
Q 1122 3375 1075 2522 
Q 1259 2794 1537 2939 
Q 1816 3084 2150 3084 
Q 2853 3084 3261 2657 
Q 3669 2231 3669 1497 
Q 3669 778 3244 343 
Q 2819 -91 2113 -91 
Q 1303 -91 875 529 
Q 447 1150 447 2328 
Q 447 3434 972 4092 
Q 1497 4750 2381 4750 
Q 2619 4750 2861 4703 
Q 3103 4656 3366 4563 
z
" transform="scale(0.015625)"/>
     </defs>
     <use xlink:href="#DejaVuSans-36"/>
    </g>
   </g>
   <g id="text_24">
    <!-- 7 -->
    <g transform="translate(326.575563 162.669073) scale(0.1 -0.1)">
     <defs>
      <path id="DejaVuSans-37" d="M 525 4666 
L 3525 4666 
L 3525 4397 
L 1831 0 
L 1172 0 
L 2766 4134 
L 525 4134 
L 525 4666 
z
" transform="scale(0.015625)"/>
     </defs>
     <use xlink:href="#DejaVuSans-37"/>
    </g>
   </g>
   <g id="text_25">
    <!-- 12 -->
    <g transform="translate(405.63534 115.889852) scale(0.1 -0.1)">
     <use xlink:href="#DejaVuSans-31"/>
     <use xlink:href="#DejaVuSans-32" x="63.623047"/>
    </g>
   </g>
   <g id="text_26">
    <!-- 47 -->
    <g transform="translate(959.05378 69.110631) scale(0.1 -0.1)">
     <use xlink:href="#DejaVuSans-34"/>
     <use xlink:href="#DejaVuSans-37" x="63.623047"/>
    </g>
   </g>
   <g id="text_27">
    <!-- Procedimientos terapéutico -->
    <g transform="translate(504.022625 18.71775) scale(0.144 -0.144)">
     <defs>
      <path id="DejaVuSans-63" d="M 3122 3366 
L 3122 2828 
Q 2878 2963 2633 3030 
Q 2388 3097 2138 3097 
Q 1578 3097 1268 2742 
Q 959 2388 959 1747 
Q 959 1106 1268 751 
Q 1578 397 2138 397 
Q 2388 397 2633 464 
Q 2878 531 3122 666 
L 3122 134 
Q 2881 22 2623 -34 
Q 2366 -91 2075 -91 
Q 1284 -91 818 406 
Q 353 903 353 1747 
Q 353 2603 823 3093 
Q 1294 3584 2113 3584 
Q 2378 3584 2631 3529 
Q 2884 3475 3122 3366 
z
" transform="scale(0.015625)"/>
      <path id="DejaVuSans-69" d="M 603 3500 
L 1178 3500 
L 1178 0 
L 603 0 
L 603 3500 
z
M 603 4863 
L 1178 4863 
L 1178 4134 
L 603 4134 
L 603 4863 
z
" transform="scale(0.015625)"/>
      <path id="DejaVuSans-6e" d="M 3513 2113 
L 3513 0 
L 2938 0 
L 2938 2094 
Q 2938 2591 2744 2837 
Q 2550 3084 2163 3084 
Q 1697 3084 1428 2787 
Q 1159 2491 1159 1978 
L 1159 0 
L 581 0 
L 581 3500 
L 1159 3500 
L 1159 2956 
Q 1366 3272 1645 3428 
Q 1925 3584 2291 3584 
Q 2894 3584 3203 3211 
Q 3513 2838 3513 2113 
z
" transform="scale(0.015625)"/>
      <path id="DejaVuSans-74" d="M 1172 4494 
L 1172 3500 
L 2356 3500 
L 2356 3053 
L 1172 3053 
L 1172 1153 
Q 1172 725 1289 603 
Q 1406 481 1766 481 
L 2356 481 
L 2356 0 
L 1766 0 
Q 1100 0 847 248 
Q 594 497 594 1153 
L 594 3053 
L 172 3053 
L 172 3500 
L 594 3500 
L 594 4494 
L 1172 4494 
z
" transform="scale(0.015625)"/>
      <path id="DejaVuSans-61" d="M 2194 1759 
Q 1497 1759 1228 1600 
Q 959 1441 959 1056 
Q 959 750 1161 570 
Q 1363 391 1709 391 
Q 2188 391 2477 730 
Q 2766 1069 2766 1631 
L 2766 1759 
L 2194 1759 
z
M 3341 1997 
L 3341 0 
L 2766 0 
L 2766 531 
Q 2569 213 2275 61 
Q 1981 -91 1556 -91 
Q 1019 -91 701 211 
Q 384 513 384 1019 
Q 384 1609 779 1909 
Q 1175 2209 1959 2209 
L 2766 2209 
L 2766 2266 
Q 2766 2663 2505 2880 
Q 2244 3097 1772 3097 
Q 1472 3097 1187 3025 
Q 903 2953 641 2809 
L 641 3341 
Q 956 3463 1253 3523 
Q 1550 3584 1831 3584 
Q 2591 3584 2966 3190 
Q 3341 2797 3341 1997 
z
" transform="scale(0.015625)"/>
      <path id="DejaVuSans-70" d="M 1159 525 
L 1159 -1331 
L 581 -1331 
L 581 3500 
L 1159 3500 
L 1159 2969 
Q 1341 3281 1617 3432 
Q 1894 3584 2278 3584 
Q 2916 3584 3314 3078 
Q 3713 2572 3713 1747 
Q 3713 922 3314 415 
Q 2916 -91 2278 -91 
Q 1894 -91 1617 61 
Q 1341 213 1159 525 
z
M 3116 1747 
Q 3116 2381 2855 2742 
Q 2594 3103 2138 3103 
Q 1681 3103 1420 2742 
Q 1159 2381 1159 1747 
Q 1159 1113 1420 752 
Q 1681 391 2138 391 
Q 2594 391 2855 752 
Q 3116 1113 3116 1747 
z
" transform="scale(0.015625)"/>
      <path id="DejaVuSans-e9" d="M 3597 1894 
L 3597 1613 
L 953 1613 
Q 991 1019 1311 708 
Q 1631 397 2203 397 
Q 2534 397 2845 478 
Q 3156 559 3463 722 
L 3463 178 
Q 3153 47 2828 -22 
Q 2503 -91 2169 -91 
Q 1331 -91 842 396 
Q 353 884 353 1716 
Q 353 2575 817 3079 
Q 1281 3584 2069 3584 
Q 2775 3584 3186 3129 
Q 3597 2675 3597 1894 
z
M 3022 2063 
Q 3016 2534 2758 2815 
Q 2500 3097 2075 3097 
Q 1594 3097 1305 2825 
Q 1016 2553 972 2059 
L 3022 2063 
z
M 2469 5119 
L 3091 5119 
L 2072 3944 
L 1594 3944 
L 2469 5119 
z
" transform="scale(0.015625)"/>
      <path id="DejaVuSans-75" d="M 544 1381 
L 544 3500 
L 1119 3500 
L 1119 1403 
Q 1119 906 1312 657 
Q 1506 409 1894 409 
Q 2359 409 2629 706 
Q 2900 1003 2900 1516 
L 2900 3500 
L 3475 3500 
L 3475 0 
L 2900 0 
L 2900 538 
Q 2691 219 2414 64 
Q 2138 -91 1772 -91 
Q 1169 -91 856 284 
Q 544 659 544 1381 
z
M 1991 3584 
L 1991 3584 
z
" transform="scale(0.015625)"/>
     </defs>
     <use xlink:href="#DejaVuSans-50"/>
     <use xlink:href="#DejaVuSans-72" x="58.552734"/>
     <use xlink:href="#DejaVuSans-6f" x="97.416016"/>
     <use xlink:href="#DejaVuSans-63" x="158.597656"/>
     <use xlink:href="#DejaVuSans-65" x="213.578125"/>
     <use xlink:href="#DejaVuSans-64" x="275.101562"/>
     <use xlink:href="#DejaVuSans-69" x="338.578125"/>
     <use xlink:href="#DejaVuSans-6d" x="366.361328"/>
     <use xlink:href="#DejaVuSans-69" x="463.773438"/>
     <use xlink:href="#DejaVuSans-65" x="491.556641"/>
     <use xlink:href="#DejaVuSans-6e" x="553.080078"/>
     <use xlink:href="#DejaVuSans-74" x="616.458984"/>
     <use xlink:href="#DejaVuSans-6f" x="655.667969"/>
     <use xlink:href="#DejaVuSans-73" x="716.849609"/>
     <use xlink:href="#DejaVuSans-20" x="768.949219"/>
     <use xlink:href="#DejaVuSans-74" x="800.736328"/>
     <use xlink:href="#DejaVuSans-65" x="839.945312"/>
     <use xlink:href="#DejaVuSans-72" x="901.46875"/>
     <use xlink:href="#DejaVuSans-61" x="942.582031"/>
     <use xlink:href="#DejaVuSans-70" x="1003.861328"/>
     <use xlink:href="#DejaVuSans-e9" x="1067.337891"/>
     <use xlink:href="#DejaVuSans-75" x="1128.861328"/>
     <use xlink:href="#DejaVuSans-74" x="1192.240234"/>
     <use xlink:href="#DejaVuSans-69" x="1231.449219"/>
     <use xlink:href="#DejaVuSans-63" x="1259.232422"/>
     <use xlink:href="#DejaVuSans-6f" x="1314.212891"/>
    </g>
   </g>
  </g>
 </g>
 <defs>
  <clipPath id="p47543253c0">
   <rect x="212.891875" y="24.71775" width="780.32" height="504.28"/>
  </clipPath>
 </defs>
</svg>
