<?xml version="1.0" encoding="utf-8" standalone="no"?>
<!DOCTYPE svg PUBLIC "-//W3C//DTD SVG 1.1//EN"
  "http://www.w3.org/Graphics/SVG/1.1/DTD/svg11.dtd">
<svg xmlns:xlink="http://www.w3.org/1999/xlink" width="1000.479375pt" height="567.169625pt" viewBox="0 0 1000.479375 567.169625" xmlns="http://www.w3.org/2000/svg" version="1.1">
 <metadata>
  <rdf:RDF xmlns:dc="http://purl.org/dc/elements/1.1/" xmlns:cc="http://creativecommons.org/ns#" xmlns:rdf="http://www.w3.org/1999/02/22-rdf-syntax-ns#">
   <cc:Work>
    <dc:type rdf:resource="http://purl.org/dc/dcmitype/StillImage"/>
    <dc:date>2026-03-06T09:08:52.357520</dc:date>
    <dc:format>image/svg+xml</dc:format>
    <dc:creator>
     <cc:Agent>
      <dc:title>Matplotlib v3.10.8, https://matplotlib.org/</dc:title>
     </cc:Agent>
    </dc:creator>
   </cc:Work>
  </rdf:RDF>
 </metadata>
 <defs>
  <style type="text/css">*{stroke-linejoin: round; stroke-linecap: butt}</style>
 </defs>
 <g id="figure_1">
  <g id="patch_1">
   <path d="M 0 567.169625 
L 1000.479375 567.169625 
L 1000.479375 0 
L 0 0 
z
" style="fill: #ffffff"/>
  </g>
  <g id="axes_1">
   <g id="patch_2">
    <path d="M 208.549375 527.19775 
L 993.279375 527.19775 
L 993.279375 24.71775 
L 208.549375 24.71775 
z
" style="fill: #e5e5e5"/>
   </g>
   <g id="matplotlib.axis_1">
    <g id="xtick_1">
     <g id="line2d_1">
      <path d="M 208.549375 527.19775 
L 208.549375 24.71775 
" clip-path="url(#p761a602fc9)" style="fill: none; stroke: #ffffff; stroke-width: 0.8; stroke-linecap: square"/>
     </g>
     <g id="line2d_2">
      <defs>
       <path id="mf1e5dc2fe3" d="M 0 0 
L 0 3.5 
" style="stroke: #555555; stroke-width: 0.8"/>
      </defs>
      <g>
       <use xlink:href="#mf1e5dc2fe3" x="208.549375" y="527.19775" style="fill: #555555; stroke: #555555; stroke-width: 0.8"/>
      </g>
     </g>
     <g id="text_1">
      <!-- 0 -->
      <g style="fill: #555555" transform="translate(205.368125 541.796187) scale(0.1 -0.1)">
       <defs>
        <path id="DejaVuSans-30" d="M 2034 4250 
Q 1547 4250 1301 3770 
Q 1056 3291 1056 2328 
Q 1056 1369 1301 889 
Q 1547 409 2034 409 
Q 2525 409 2770 889 
Q 3016 1369 3016 2328 
Q 3016 3291 2770 3770 
Q 2525 4250 2034 4250 
z
M 2034 4750 
Q 2819 4750 3233 4129 
Q 3647 3509 3647 2328 
Q 3647 1150 3233 529 
Q 2819 -91 2034 -91 
Q 1250 -91 836 529 
Q 422 1150 422 2328 
Q 422 3509 836 4129 
Q 1250 4750 2034 4750 
z
" transform="scale(0.015625)"/>
       </defs>
       <use xlink:href="#DejaVuSans-30"/>
      </g>
     </g>
    </g>
    <g id="xtick_2">
     <g id="line2d_3">
      <path d="M 337.404876 527.19775 
L 337.404876 24.71775 
" clip-path="url(#p761a602fc9)" style="fill: none; stroke: #ffffff; stroke-width: 0.8; stroke-linecap: square"/>
     </g>
     <g id="line2d_4">
      <g>
       <use xlink:href="#mf1e5dc2fe3" x="337.404876" y="527.19775" style="fill: #555555; stroke: #555555; stroke-width: 0.8"/>
      </g>
     </g>
     <g id="text_2">
      <!-- 5 -->
      <g style="fill: #555555" transform="translate(334.223626 541.796187) scale(0.1 -0.1)">
       <defs>
        <path id="DejaVuSans-35" d="M 691 4666 
L 3169 4666 
L 3169 4134 
L 1269 4134 
L 1269 2991 
Q 1406 3038 1543 3061 
Q 1681 3084 1819 3084 
Q 2600 3084 3056 2656 
Q 3513 2228 3513 1497 
Q 3513 744 3044 326 
Q 2575 -91 1722 -91 
Q 1428 -91 1123 -41 
Q 819 9 494 109 
L 494 744 
Q 775 591 1075 516 
Q 1375 441 1709 441 
Q 2250 441 2565 725 
Q 2881 1009 2881 1497 
Q 2881 1984 2565 2268 
Q 2250 2553 1709 2553 
Q 1456 2553 1204 2497 
Q 953 2441 691 2322 
L 691 4666 
z
" transform="scale(0.015625)"/>
       </defs>
       <use xlink:href="#DejaVuSans-35"/>
      </g>
     </g>
    </g>
    <g id="xtick_3">
     <g id="line2d_5">
      <path d="M 466.260377 527.19775 
L 466.260377 24.71775 
" clip-path="url(#p761a602fc9)" style="fill: none; stroke: #ffffff; stroke-width: 0.8; stroke-linecap: square"/>
     </g>
     <g id="line2d_6">
      <g>
       <use xlink:href="#mf1e5dc2fe3" x="466.260377" y="527.19775" style="fill: #555555; stroke: #555555; stroke-width: 0.8"/>
      </g>
     </g>
     <g id="text_3">
      <!-- 10 -->
      <g style="fill: #555555" transform="translate(459.897877 541.796187) scale(0.1 -0.1)">
       <defs>
        <path id="DejaVuSans-31" d="M 794 531 
L 1825 531 
L 1825 4091 
L 703 3866 
L 703 4441 
L 1819 4666 
L 2450 4666 
L 2450 531 
L 3481 531 
L 3481 0 
L 794 0 
L 794 531 
z
" transform="scale(0.015625)"/>
       </defs>
       <use xlink:href="#DejaVuSans-31"/>
       <use xlink:href="#DejaVuSans-30" transform="translate(63.623047 0)"/>
      </g>
     </g>
    </g>
    <g id="xtick_4">
     <g id="line2d_7">
      <path d="M 595.115877 527.19775 
L 595.115877 24.71775 
" clip-path="url(#p761a602fc9)" style="fill: none; stroke: #ffffff; stroke-width: 0.8; stroke-linecap: square"/>
     </g>
     <g id="line2d_8">
      <g>
       <use xlink:href="#mf1e5dc2fe3" x="595.115877" y="527.19775" style="fill: #555555; stroke: #555555; stroke-width: 0.8"/>
      </g>
     </g>
     <g id="text_4">
      <!-- 15 -->
      <g style="fill: #555555" transform="translate(588.753377 541.796187) scale(0.1 -0.1)">
       <use xlink:href="#DejaVuSans-31"/>
       <use xlink:href="#DejaVuSans-35" transform="translate(63.623047 0)"/>
      </g>
     </g>
    </g>
    <g id="xtick_5">
     <g id="line2d_9">
      <path d="M 723.971378 527.19775 
L 723.971378 24.71775 
" clip-path="url(#p761a602fc9)" style="fill: none; stroke: #ffffff; stroke-width: 0.8; stroke-linecap: square"/>
     </g>
     <g id="line2d_10">
      <g>
       <use xlink:href="#mf1e5dc2fe3" x="723.971378" y="527.19775" style="fill: #555555; stroke: #555555; stroke-width: 0.8"/>
      </g>
     </g>
     <g id="text_5">
      <!-- 20 -->
      <g style="fill: #555555" transform="translate(717.608878 541.796187) scale(0.1 -0.1)">
       <defs>
        <path id="DejaVuSans-32" d="M 1228 531 
L 3431 531 
L 3431 0 
L 469 0 
L 469 531 
Q 828 903 1448 1529 
Q 2069 2156 2228 2338 
Q 2531 2678 2651 2914 
Q 2772 3150 2772 3378 
Q 2772 3750 2511 3984 
Q 2250 4219 1831 4219 
Q 1534 4219 1204 4116 
Q 875 4013 500 3803 
L 500 4441 
Q 881 4594 1212 4672 
Q 1544 4750 1819 4750 
Q 2544 4750 2975 4387 
Q 3406 4025 3406 3419 
Q 3406 3131 3298 2873 
Q 3191 2616 2906 2266 
Q 2828 2175 2409 1742 
Q 1991 1309 1228 531 
z
" transform="scale(0.015625)"/>
       </defs>
       <use xlink:href="#DejaVuSans-32"/>
       <use xlink:href="#DejaVuSans-30" transform="translate(63.623047 0)"/>
      </g>
     </g>
    </g>
    <g id="xtick_6">
     <g id="line2d_11">
      <path d="M 852.826879 527.19775 
L 852.826879 24.71775 
" clip-path="url(#p761a602fc9)" style="fill: none; stroke: #ffffff; stroke-width: 0.8; stroke-linecap: square"/>
     </g>
     <g id="line2d_12">
      <g>
       <use xlink:href="#mf1e5dc2fe3" x="852.826879" y="527.19775" style="fill: #555555; stroke: #555555; stroke-width: 0.8"/>
      </g>
     </g>
     <g id="text_6">
      <!-- 25 -->
      <g style="fill: #555555" transform="translate(846.464379 541.796187) scale(0.1 -0.1)">
       <use xlink:href="#DejaVuSans-32"/>
       <use xlink:href="#DejaVuSans-35" transform="translate(63.623047 0)"/>
      </g>
     </g>
    </g>
    <g id="xtick_7">
     <g id="line2d_13">
      <path d="M 981.68238 527.19775 
L 981.68238 24.71775 
" clip-path="url(#p761a602fc9)" style="fill: none; stroke: #ffffff; stroke-width: 0.8; stroke-linecap: square"/>
     </g>
     <g id="line2d_14">
      <g>
       <use xlink:href="#mf1e5dc2fe3" x="981.68238" y="527.19775" style="fill: #555555; stroke: #555555; stroke-width: 0.8"/>
      </g>
     </g>
     <g id="text_7">
      <!-- 30 -->
      <g style="fill: #555555" transform="translate(975.31988 541.796187) scale(0.1 -0.1)">
       <defs>
        <path id="DejaVuSans-33" d="M 2597 2516 
Q 3050 2419 3304 2112 
Q 3559 1806 3559 1356 
Q 3559 666 3084 287 
Q 2609 -91 1734 -91 
Q 1441 -91 1130 -33 
Q 819 25 488 141 
L 488 750 
Q 750 597 1062 519 
Q 1375 441 1716 441 
Q 2309 441 2620 675 
Q 2931 909 2931 1356 
Q 2931 1769 2642 2001 
Q 2353 2234 1838 2234 
L 1294 2234 
L 1294 2753 
L 1863 2753 
Q 2328 2753 2575 2939 
Q 2822 3125 2822 3475 
Q 2822 3834 2567 4026 
Q 2313 4219 1838 4219 
Q 1578 4219 1281 4162 
Q 984 4106 628 3988 
L 628 4550 
Q 988 4650 1302 4700 
Q 1616 4750 1894 4750 
Q 2613 4750 3031 4423 
Q 3450 4097 3450 3541 
Q 3450 3153 3228 2886 
Q 3006 2619 2597 2516 
z
" transform="scale(0.015625)"/>
       </defs>
       <use xlink:href="#DejaVuSans-33"/>
       <use xlink:href="#DejaVuSans-30" transform="translate(63.623047 0)"/>
      </g>
     </g>
    </g>
    <g id="text_8">
     <!-- Número de egresos -->
     <g style="fill: #555555" transform="translate(542.3225 557.474) scale(0.12 -0.12)">
      <defs>
       <path id="DejaVuSans-4e" d="M 628 4666 
L 1478 4666 
L 3547 763 
L 3547 4666 
L 4159 4666 
L 4159 0 
L 3309 0 
L 1241 3903 
L 1241 0 
L 628 0 
L 628 4666 
z
" transform="scale(0.015625)"/>
       <path id="DejaVuSans-fa" d="M 544 1381 
L 544 3500 
L 1119 3500 
L 1119 1403 
Q 1119 906 1312 657 
Q 1506 409 1894 409 
Q 2359 409 2629 706 
Q 2900 1003 2900 1516 
L 2900 3500 
L 3475 3500 
L 3475 0 
L 2900 0 
L 2900 538 
Q 2691 219 2414 64 
Q 2138 -91 1772 -91 
Q 1169 -91 856 284 
Q 544 659 544 1381 
z
M 1991 3584 
L 1991 3584 
z
M 2418 5119 
L 3040 5119 
L 2022 3944 
L 1543 3944 
L 2418 5119 
z
" transform="scale(0.015625)"/>
       <path id="DejaVuSans-6d" d="M 3328 2828 
Q 3544 3216 3844 3400 
Q 4144 3584 4550 3584 
Q 5097 3584 5394 3201 
Q 5691 2819 5691 2113 
L 5691 0 
L 5113 0 
L 5113 2094 
Q 5113 2597 4934 2840 
Q 4756 3084 4391 3084 
Q 3944 3084 3684 2787 
Q 3425 2491 3425 1978 
L 3425 0 
L 2847 0 
L 2847 2094 
Q 2847 2600 2669 2842 
Q 2491 3084 2119 3084 
Q 1678 3084 1418 2786 
Q 1159 2488 1159 1978 
L 1159 0 
L 581 0 
L 581 3500 
L 1159 3500 
L 1159 2956 
Q 1356 3278 1631 3431 
Q 1906 3584 2284 3584 
Q 2666 3584 2933 3390 
Q 3200 3197 3328 2828 
z
" transform="scale(0.015625)"/>
       <path id="DejaVuSans-65" d="M 3597 1894 
L 3597 1613 
L 953 1613 
Q 991 1019 1311 708 
Q 1631 397 2203 397 
Q 2534 397 2845 478 
Q 3156 559 3463 722 
L 3463 178 
Q 3153 47 2828 -22 
Q 2503 -91 2169 -91 
Q 1331 -91 842 396 
Q 353 884 353 1716 
Q 353 2575 817 3079 
Q 1281 3584 2069 3584 
Q 2775 3584 3186 3129 
Q 3597 2675 3597 1894 
z
M 3022 2063 
Q 3016 2534 2758 2815 
Q 2500 3097 2075 3097 
Q 1594 3097 1305 2825 
Q 1016 2553 972 2059 
L 3022 2063 
z
" transform="scale(0.015625)"/>
       <path id="DejaVuSans-72" d="M 2631 2963 
Q 2534 3019 2420 3045 
Q 2306 3072 2169 3072 
Q 1681 3072 1420 2755 
Q 1159 2438 1159 1844 
L 1159 0 
L 581 0 
L 581 3500 
L 1159 3500 
L 1159 2956 
Q 1341 3275 1631 3429 
Q 1922 3584 2338 3584 
Q 2397 3584 2469 3576 
Q 2541 3569 2628 3553 
L 2631 2963 
z
" transform="scale(0.015625)"/>
       <path id="DejaVuSans-6f" d="M 1959 3097 
Q 1497 3097 1228 2736 
Q 959 2375 959 1747 
Q 959 1119 1226 758 
Q 1494 397 1959 397 
Q 2419 397 2687 759 
Q 2956 1122 2956 1747 
Q 2956 2369 2687 2733 
Q 2419 3097 1959 3097 
z
M 1959 3584 
Q 2709 3584 3137 3096 
Q 3566 2609 3566 1747 
Q 3566 888 3137 398 
Q 2709 -91 1959 -91 
Q 1206 -91 779 398 
Q 353 888 353 1747 
Q 353 2609 779 3096 
Q 1206 3584 1959 3584 
z
" transform="scale(0.015625)"/>
       <path id="DejaVuSans-20" transform="scale(0.015625)"/>
       <path id="DejaVuSans-64" d="M 2906 2969 
L 2906 4863 
L 3481 4863 
L 3481 0 
L 2906 0 
L 2906 525 
Q 2725 213 2448 61 
Q 2172 -91 1784 -91 
Q 1150 -91 751 415 
Q 353 922 353 1747 
Q 353 2572 751 3078 
Q 1150 3584 1784 3584 
Q 2172 3584 2448 3432 
Q 2725 3281 2906 2969 
z
M 947 1747 
Q 947 1113 1208 752 
Q 1469 391 1925 391 
Q 2381 391 2643 752 
Q 2906 1113 2906 1747 
Q 2906 2381 2643 2742 
Q 2381 3103 1925 3103 
Q 1469 3103 1208 2742 
Q 947 2381 947 1747 
z
" transform="scale(0.015625)"/>
       <path id="DejaVuSans-67" d="M 2906 1791 
Q 2906 2416 2648 2759 
Q 2391 3103 1925 3103 
Q 1463 3103 1205 2759 
Q 947 2416 947 1791 
Q 947 1169 1205 825 
Q 1463 481 1925 481 
Q 2391 481 2648 825 
Q 2906 1169 2906 1791 
z
M 3481 434 
Q 3481 -459 3084 -895 
Q 2688 -1331 1869 -1331 
Q 1566 -1331 1297 -1286 
Q 1028 -1241 775 -1147 
L 775 -588 
Q 1028 -725 1275 -790 
Q 1522 -856 1778 -856 
Q 2344 -856 2625 -561 
Q 2906 -266 2906 331 
L 2906 616 
Q 2728 306 2450 153 
Q 2172 0 1784 0 
Q 1141 0 747 490 
Q 353 981 353 1791 
Q 353 2603 747 3093 
Q 1141 3584 1784 3584 
Q 2172 3584 2450 3431 
Q 2728 3278 2906 2969 
L 2906 3500 
L 3481 3500 
L 3481 434 
z
" transform="scale(0.015625)"/>
       <path id="DejaVuSans-73" d="M 2834 3397 
L 2834 2853 
Q 2591 2978 2328 3040 
Q 2066 3103 1784 3103 
Q 1356 3103 1142 2972 
Q 928 2841 928 2578 
Q 928 2378 1081 2264 
Q 1234 2150 1697 2047 
L 1894 2003 
Q 2506 1872 2764 1633 
Q 3022 1394 3022 966 
Q 3022 478 2636 193 
Q 2250 -91 1575 -91 
Q 1294 -91 989 -36 
Q 684 19 347 128 
L 347 722 
Q 666 556 975 473 
Q 1284 391 1588 391 
Q 1994 391 2212 530 
Q 2431 669 2431 922 
Q 2431 1156 2273 1281 
Q 2116 1406 1581 1522 
L 1381 1569 
Q 847 1681 609 1914 
Q 372 2147 372 2553 
Q 372 3047 722 3315 
Q 1072 3584 1716 3584 
Q 2034 3584 2315 3537 
Q 2597 3491 2834 3397 
z
" transform="scale(0.015625)"/>
      </defs>
      <use xlink:href="#DejaVuSans-4e"/>
      <use xlink:href="#DejaVuSans-fa" transform="translate(74.804688 0)"/>
      <use xlink:href="#DejaVuSans-6d" transform="translate(138.183594 0)"/>
      <use xlink:href="#DejaVuSans-65" transform="translate(235.595703 0)"/>
      <use xlink:href="#DejaVuSans-72" transform="translate(297.119141 0)"/>
      <use xlink:href="#DejaVuSans-6f" transform="translate(335.982422 0)"/>
      <use xlink:href="#DejaVuSans-20" transform="translate(397.164062 0)"/>
      <use xlink:href="#DejaVuSans-64" transform="translate(428.951172 0)"/>
      <use xlink:href="#DejaVuSans-65" transform="translate(492.427734 0)"/>
      <use xlink:href="#DejaVuSans-20" transform="translate(553.951172 0)"/>
      <use xlink:href="#DejaVuSans-65" transform="translate(585.738281 0)"/>
      <use xlink:href="#DejaVuSans-67" transform="translate(647.261719 0)"/>
      <use xlink:href="#DejaVuSans-72" transform="translate(710.738281 0)"/>
      <use xlink:href="#DejaVuSans-65" transform="translate(749.601562 0)"/>
      <use xlink:href="#DejaVuSans-73" transform="translate(811.125 0)"/>
      <use xlink:href="#DejaVuSans-6f" transform="translate(863.224609 0)"/>
      <use xlink:href="#DejaVuSans-73" transform="translate(924.40625 0)"/>
     </g>
    </g>
   </g>
   <g id="matplotlib.axis_2">
    <g id="ytick_1">
     <g id="line2d_15">
      <path d="M 208.549375 485.712852 
L 993.279375 485.712852 
" clip-path="url(#p761a602fc9)" style="fill: none; stroke: #ffffff; stroke-width: 0.8; stroke-linecap: square"/>
     </g>
     <g id="line2d_16">
      <defs>
       <path id="m7f6ae81523" d="M 0 0 
L -3.5 0 
" style="stroke: #555555; stroke-width: 0.8"/>
      </defs>
      <g>
       <use xlink:href="#m7f6ae81523" x="208.549375" y="485.712852" style="fill: #555555; stroke: #555555; stroke-width: 0.8"/>
      </g>
     </g>
     <g id="text_9">
      <!-- REPARACIÓN ABIERTA Y OTRA -->
      <g style="fill: #555555" transform="translate(68.009062 479.029227) scale(0.09 -0.09)">
       <defs>
        <path id="DejaVuSans-52" d="M 2841 2188 
Q 3044 2119 3236 1894 
Q 3428 1669 3622 1275 
L 4263 0 
L 3584 0 
L 2988 1197 
Q 2756 1666 2539 1819 
Q 2322 1972 1947 1972 
L 1259 1972 
L 1259 0 
L 628 0 
L 628 4666 
L 2053 4666 
Q 2853 4666 3247 4331 
Q 3641 3997 3641 3322 
Q 3641 2881 3436 2590 
Q 3231 2300 2841 2188 
z
M 1259 4147 
L 1259 2491 
L 2053 2491 
Q 2509 2491 2742 2702 
Q 2975 2913 2975 3322 
Q 2975 3731 2742 3939 
Q 2509 4147 2053 4147 
L 1259 4147 
z
" transform="scale(0.015625)"/>
        <path id="DejaVuSans-45" d="M 628 4666 
L 3578 4666 
L 3578 4134 
L 1259 4134 
L 1259 2753 
L 3481 2753 
L 3481 2222 
L 1259 2222 
L 1259 531 
L 3634 531 
L 3634 0 
L 628 0 
L 628 4666 
z
" transform="scale(0.015625)"/>
        <path id="DejaVuSans-50" d="M 1259 4147 
L 1259 2394 
L 2053 2394 
Q 2494 2394 2734 2622 
Q 2975 2850 2975 3272 
Q 2975 3691 2734 3919 
Q 2494 4147 2053 4147 
L 1259 4147 
z
M 628 4666 
L 2053 4666 
Q 2838 4666 3239 4311 
Q 3641 3956 3641 3272 
Q 3641 2581 3239 2228 
Q 2838 1875 2053 1875 
L 1259 1875 
L 1259 0 
L 628 0 
L 628 4666 
z
" transform="scale(0.015625)"/>
        <path id="DejaVuSans-41" d="M 2188 4044 
L 1331 1722 
L 3047 1722 
L 2188 4044 
z
M 1831 4666 
L 2547 4666 
L 4325 0 
L 3669 0 
L 3244 1197 
L 1141 1197 
L 716 0 
L 50 0 
L 1831 4666 
z
" transform="scale(0.015625)"/>
        <path id="DejaVuSans-43" d="M 4122 4306 
L 4122 3641 
Q 3803 3938 3442 4084 
Q 3081 4231 2675 4231 
Q 1875 4231 1450 3742 
Q 1025 3253 1025 2328 
Q 1025 1406 1450 917 
Q 1875 428 2675 428 
Q 3081 428 3442 575 
Q 3803 722 4122 1019 
L 4122 359 
Q 3791 134 3420 21 
Q 3050 -91 2638 -91 
Q 1578 -91 968 557 
Q 359 1206 359 2328 
Q 359 3453 968 4101 
Q 1578 4750 2638 4750 
Q 3056 4750 3426 4639 
Q 3797 4528 4122 4306 
z
" transform="scale(0.015625)"/>
        <path id="DejaVuSans-49" d="M 628 4666 
L 1259 4666 
L 1259 0 
L 628 0 
L 628 4666 
z
" transform="scale(0.015625)"/>
        <path id="DejaVuSans-d3" d="M 2522 4238 
Q 1834 4238 1429 3725 
Q 1025 3213 1025 2328 
Q 1025 1447 1429 934 
Q 1834 422 2522 422 
Q 3209 422 3611 934 
Q 4013 1447 4013 2328 
Q 4013 3213 3611 3725 
Q 3209 4238 2522 4238 
z
M 2522 4750 
Q 3503 4750 4090 4092 
Q 4678 3434 4678 2328 
Q 4678 1225 4090 567 
Q 3503 -91 2522 -91 
Q 1538 -91 948 565 
Q 359 1222 359 2328 
Q 359 3434 948 4092 
Q 1538 4750 2522 4750 
z
M 2692 5921 
L 3270 5921 
L 2558 5096 
L 2079 5096 
L 2692 5921 
z
" transform="scale(0.015625)"/>
        <path id="DejaVuSans-42" d="M 1259 2228 
L 1259 519 
L 2272 519 
Q 2781 519 3026 730 
Q 3272 941 3272 1375 
Q 3272 1813 3026 2020 
Q 2781 2228 2272 2228 
L 1259 2228 
z
M 1259 4147 
L 1259 2741 
L 2194 2741 
Q 2656 2741 2882 2914 
Q 3109 3088 3109 3444 
Q 3109 3797 2882 3972 
Q 2656 4147 2194 4147 
L 1259 4147 
z
M 628 4666 
L 2241 4666 
Q 2963 4666 3353 4366 
Q 3744 4066 3744 3513 
Q 3744 3084 3544 2831 
Q 3344 2578 2956 2516 
Q 3422 2416 3680 2098 
Q 3938 1781 3938 1306 
Q 3938 681 3513 340 
Q 3088 0 2303 0 
L 628 0 
L 628 4666 
z
" transform="scale(0.015625)"/>
        <path id="DejaVuSans-54" d="M -19 4666 
L 3928 4666 
L 3928 4134 
L 2272 4134 
L 2272 0 
L 1638 0 
L 1638 4134 
L -19 4134 
L -19 4666 
z
" transform="scale(0.015625)"/>
        <path id="DejaVuSans-59" d="M -13 4666 
L 666 4666 
L 1959 2747 
L 3244 4666 
L 3922 4666 
L 2272 2222 
L 2272 0 
L 1638 0 
L 1638 2222 
L -13 4666 
z
" transform="scale(0.015625)"/>
        <path id="DejaVuSans-4f" d="M 2522 4238 
Q 1834 4238 1429 3725 
Q 1025 3213 1025 2328 
Q 1025 1447 1429 934 
Q 1834 422 2522 422 
Q 3209 422 3611 934 
Q 4013 1447 4013 2328 
Q 4013 3213 3611 3725 
Q 3209 4238 2522 4238 
z
M 2522 4750 
Q 3503 4750 4090 4092 
Q 4678 3434 4678 2328 
Q 4678 1225 4090 567 
Q 3503 -91 2522 -91 
Q 1538 -91 948 565 
Q 359 1222 359 2328 
Q 359 3434 948 4092 
Q 1538 4750 2522 4750 
z
" transform="scale(0.015625)"/>
       </defs>
       <use xlink:href="#DejaVuSans-52"/>
       <use xlink:href="#DejaVuSans-45" transform="translate(69.482422 0)"/>
       <use xlink:href="#DejaVuSans-50" transform="translate(132.666016 0)"/>
       <use xlink:href="#DejaVuSans-41" transform="translate(186.59375 0)"/>
       <use xlink:href="#DejaVuSans-52" transform="translate(255.001953 0)"/>
       <use xlink:href="#DejaVuSans-41" transform="translate(320.484375 0)"/>
       <use xlink:href="#DejaVuSans-43" transform="translate(387.142578 0)"/>
       <use xlink:href="#DejaVuSans-49" transform="translate(456.966797 0)"/>
       <use xlink:href="#DejaVuSans-d3" transform="translate(486.458984 0)"/>
       <use xlink:href="#DejaVuSans-4e" transform="translate(565.169922 0)"/>
       <use xlink:href="#DejaVuSans-20" transform="translate(639.974609 0)"/>
       <use xlink:href="#DejaVuSans-41" transform="translate(671.761719 0)"/>
       <use xlink:href="#DejaVuSans-42" transform="translate(740.169922 0)"/>
       <use xlink:href="#DejaVuSans-49" transform="translate(808.773438 0)"/>
       <use xlink:href="#DejaVuSans-45" transform="translate(838.265625 0)"/>
       <use xlink:href="#DejaVuSans-52" transform="translate(901.449219 0)"/>
       <use xlink:href="#DejaVuSans-54" transform="translate(963.681641 0)"/>
       <use xlink:href="#DejaVuSans-41" transform="translate(1017.015625 0)"/>
       <use xlink:href="#DejaVuSans-20" transform="translate(1085.423828 0)"/>
       <use xlink:href="#DejaVuSans-59" transform="translate(1117.210938 0)"/>
       <use xlink:href="#DejaVuSans-20" transform="translate(1178.294922 0)"/>
       <use xlink:href="#DejaVuSans-4f" transform="translate(1210.082031 0)"/>
       <use xlink:href="#DejaVuSans-54" transform="translate(1288.792969 0)"/>
       <use xlink:href="#DejaVuSans-52" transform="translate(1349.876953 0)"/>
       <use xlink:href="#DejaVuSans-41" transform="translate(1415.359375 0)"/>
      </g>
      <!-- REPARACIÓN DE HERNIA UMBILICAL CON -->
      <g style="fill: #555555" transform="translate(17.227969 489.107258) scale(0.09 -0.09)">
       <defs>
        <path id="DejaVuSans-44" d="M 1259 4147 
L 1259 519 
L 2022 519 
Q 2988 519 3436 956 
Q 3884 1394 3884 2338 
Q 3884 3275 3436 3711 
Q 2988 4147 2022 4147 
L 1259 4147 
z
M 628 4666 
L 1925 4666 
Q 3281 4666 3915 4102 
Q 4550 3538 4550 2338 
Q 4550 1131 3912 565 
Q 3275 0 1925 0 
L 628 0 
L 628 4666 
z
" transform="scale(0.015625)"/>
        <path id="DejaVuSans-48" d="M 628 4666 
L 1259 4666 
L 1259 2753 
L 3553 2753 
L 3553 4666 
L 4184 4666 
L 4184 0 
L 3553 0 
L 3553 2222 
L 1259 2222 
L 1259 0 
L 628 0 
L 628 4666 
z
" transform="scale(0.015625)"/>
        <path id="DejaVuSans-55" d="M 556 4666 
L 1191 4666 
L 1191 1831 
Q 1191 1081 1462 751 
Q 1734 422 2344 422 
Q 2950 422 3222 751 
Q 3494 1081 3494 1831 
L 3494 4666 
L 4128 4666 
L 4128 1753 
Q 4128 841 3676 375 
Q 3225 -91 2344 -91 
Q 1459 -91 1007 375 
Q 556 841 556 1753 
L 556 4666 
z
" transform="scale(0.015625)"/>
        <path id="DejaVuSans-4d" d="M 628 4666 
L 1569 4666 
L 2759 1491 
L 3956 4666 
L 4897 4666 
L 4897 0 
L 4281 0 
L 4281 4097 
L 3078 897 
L 2444 897 
L 1241 4097 
L 1241 0 
L 628 0 
L 628 4666 
z
" transform="scale(0.015625)"/>
        <path id="DejaVuSans-4c" d="M 628 4666 
L 1259 4666 
L 1259 531 
L 3531 531 
L 3531 0 
L 628 0 
L 628 4666 
z
" transform="scale(0.015625)"/>
       </defs>
       <use xlink:href="#DejaVuSans-52"/>
       <use xlink:href="#DejaVuSans-45" transform="translate(69.482422 0)"/>
       <use xlink:href="#DejaVuSans-50" transform="translate(132.666016 0)"/>
       <use xlink:href="#DejaVuSans-41" transform="translate(186.59375 0)"/>
       <use xlink:href="#DejaVuSans-52" transform="translate(255.001953 0)"/>
       <use xlink:href="#DejaVuSans-41" transform="translate(320.484375 0)"/>
       <use xlink:href="#DejaVuSans-43" transform="translate(387.142578 0)"/>
       <use xlink:href="#DejaVuSans-49" transform="translate(456.966797 0)"/>
       <use xlink:href="#DejaVuSans-d3" transform="translate(486.458984 0)"/>
       <use xlink:href="#DejaVuSans-4e" transform="translate(565.169922 0)"/>
       <use xlink:href="#DejaVuSans-20" transform="translate(639.974609 0)"/>
       <use xlink:href="#DejaVuSans-44" transform="translate(671.761719 0)"/>
       <use xlink:href="#DejaVuSans-45" transform="translate(748.763672 0)"/>
       <use xlink:href="#DejaVuSans-20" transform="translate(811.947266 0)"/>
       <use xlink:href="#DejaVuSans-48" transform="translate(843.734375 0)"/>
       <use xlink:href="#DejaVuSans-45" transform="translate(918.929688 0)"/>
       <use xlink:href="#DejaVuSans-52" transform="translate(982.113281 0)"/>
       <use xlink:href="#DejaVuSans-4e" transform="translate(1051.595703 0)"/>
       <use xlink:href="#DejaVuSans-49" transform="translate(1126.400391 0)"/>
       <use xlink:href="#DejaVuSans-41" transform="translate(1155.892578 0)"/>
       <use xlink:href="#DejaVuSans-20" transform="translate(1224.300781 0)"/>
       <use xlink:href="#DejaVuSans-55" transform="translate(1256.087891 0)"/>
       <use xlink:href="#DejaVuSans-4d" transform="translate(1329.28125 0)"/>
       <use xlink:href="#DejaVuSans-42" transform="translate(1415.560547 0)"/>
       <use xlink:href="#DejaVuSans-49" transform="translate(1484.164062 0)"/>
       <use xlink:href="#DejaVuSans-4c" transform="translate(1513.65625 0)"/>
       <use xlink:href="#DejaVuSans-49" transform="translate(1569.369141 0)"/>
       <use xlink:href="#DejaVuSans-43" transform="translate(1598.861328 0)"/>
       <use xlink:href="#DejaVuSans-41" transform="translate(1668.685547 0)"/>
       <use xlink:href="#DejaVuSans-4c" transform="translate(1737.09375 0)"/>
       <use xlink:href="#DejaVuSans-20" transform="translate(1792.806641 0)"/>
       <use xlink:href="#DejaVuSans-43" transform="translate(1824.59375 0)"/>
       <use xlink:href="#DejaVuSans-4f" transform="translate(1894.417969 0)"/>
       <use xlink:href="#DejaVuSans-4e" transform="translate(1973.128906 0)"/>
      </g>
      <!-- INJERTO O PRÓTESIS -->
      <g style="fill: #555555" transform="translate(108.800156 500.88629) scale(0.09 -0.09)">
       <defs>
        <path id="DejaVuSans-4a" d="M 628 4666 
L 1259 4666 
L 1259 325 
Q 1259 -519 939 -900 
Q 619 -1281 -91 -1281 
L -331 -1281 
L -331 -750 
L -134 -750 
Q 284 -750 456 -515 
Q 628 -281 628 325 
L 628 4666 
z
" transform="scale(0.015625)"/>
        <path id="DejaVuSans-53" d="M 3425 4513 
L 3425 3897 
Q 3066 4069 2747 4153 
Q 2428 4238 2131 4238 
Q 1616 4238 1336 4038 
Q 1056 3838 1056 3469 
Q 1056 3159 1242 3001 
Q 1428 2844 1947 2747 
L 2328 2669 
Q 3034 2534 3370 2195 
Q 3706 1856 3706 1288 
Q 3706 609 3251 259 
Q 2797 -91 1919 -91 
Q 1588 -91 1214 -16 
Q 841 59 441 206 
L 441 856 
Q 825 641 1194 531 
Q 1563 422 1919 422 
Q 2459 422 2753 634 
Q 3047 847 3047 1241 
Q 3047 1584 2836 1778 
Q 2625 1972 2144 2069 
L 1759 2144 
Q 1053 2284 737 2584 
Q 422 2884 422 3419 
Q 422 4038 858 4394 
Q 1294 4750 2059 4750 
Q 2388 4750 2728 4690 
Q 3069 4631 3425 4513 
z
" transform="scale(0.015625)"/>
       </defs>
       <use xlink:href="#DejaVuSans-49"/>
       <use xlink:href="#DejaVuSans-4e" transform="translate(29.492188 0)"/>
       <use xlink:href="#DejaVuSans-4a" transform="translate(104.296875 0)"/>
       <use xlink:href="#DejaVuSans-45" transform="translate(133.789062 0)"/>
       <use xlink:href="#DejaVuSans-52" transform="translate(196.972656 0)"/>
       <use xlink:href="#DejaVuSans-54" transform="translate(259.205078 0)"/>
       <use xlink:href="#DejaVuSans-4f" transform="translate(320.289062 0)"/>
       <use xlink:href="#DejaVuSans-20" transform="translate(399 0)"/>
       <use xlink:href="#DejaVuSans-4f" transform="translate(430.787109 0)"/>
       <use xlink:href="#DejaVuSans-20" transform="translate(509.498047 0)"/>
       <use xlink:href="#DejaVuSans-50" transform="translate(541.285156 0)"/>
       <use xlink:href="#DejaVuSans-52" transform="translate(601.587891 0)"/>
       <use xlink:href="#DejaVuSans-d3" transform="translate(671.070312 0)"/>
       <use xlink:href="#DejaVuSans-54" transform="translate(749.78125 0)"/>
       <use xlink:href="#DejaVuSans-45" transform="translate(810.865234 0)"/>
       <use xlink:href="#DejaVuSans-53" transform="translate(874.048828 0)"/>
       <use xlink:href="#DejaVuSans-49" transform="translate(937.525391 0)"/>
       <use xlink:href="#DejaVuSans-53" transform="translate(967.017578 0)"/>
      </g>
     </g>
    </g>
    <g id="ytick_2">
     <g id="line2d_17">
      <path d="M 208.549375 439.100607 
L 993.279375 439.100607 
" clip-path="url(#p761a602fc9)" style="fill: none; stroke: #ffffff; stroke-width: 0.8; stroke-linecap: square"/>
     </g>
     <g id="line2d_18">
      <g>
       <use xlink:href="#m7f6ae81523" x="208.549375" y="439.100607" style="fill: #555555; stroke: #555555; stroke-width: 0.8"/>
      </g>
     </g>
     <g id="text_10">
      <!-- OTRAS OPERACIONES SOBRE PIEL Y -->
      <g style="fill: #555555" transform="translate(40.32 437.455998) scale(0.09 -0.09)">
       <use xlink:href="#DejaVuSans-4f"/>
       <use xlink:href="#DejaVuSans-54" transform="translate(78.710938 0)"/>
       <use xlink:href="#DejaVuSans-52" transform="translate(139.794922 0)"/>
       <use xlink:href="#DejaVuSans-41" transform="translate(205.277344 0)"/>
       <use xlink:href="#DejaVuSans-53" transform="translate(273.685547 0)"/>
       <use xlink:href="#DejaVuSans-20" transform="translate(337.162109 0)"/>
       <use xlink:href="#DejaVuSans-4f" transform="translate(368.949219 0)"/>
       <use xlink:href="#DejaVuSans-50" transform="translate(447.660156 0)"/>
       <use xlink:href="#DejaVuSans-45" transform="translate(507.962891 0)"/>
       <use xlink:href="#DejaVuSans-52" transform="translate(571.146484 0)"/>
       <use xlink:href="#DejaVuSans-41" transform="translate(636.628906 0)"/>
       <use xlink:href="#DejaVuSans-43" transform="translate(703.287109 0)"/>
       <use xlink:href="#DejaVuSans-49" transform="translate(773.111328 0)"/>
       <use xlink:href="#DejaVuSans-4f" transform="translate(802.603516 0)"/>
       <use xlink:href="#DejaVuSans-4e" transform="translate(881.314453 0)"/>
       <use xlink:href="#DejaVuSans-45" transform="translate(956.119141 0)"/>
       <use xlink:href="#DejaVuSans-53" transform="translate(1019.302734 0)"/>
       <use xlink:href="#DejaVuSans-20" transform="translate(1082.779297 0)"/>
       <use xlink:href="#DejaVuSans-53" transform="translate(1114.566406 0)"/>
       <use xlink:href="#DejaVuSans-4f" transform="translate(1178.042969 0)"/>
       <use xlink:href="#DejaVuSans-42" transform="translate(1256.753906 0)"/>
       <use xlink:href="#DejaVuSans-52" transform="translate(1325.357422 0)"/>
       <use xlink:href="#DejaVuSans-45" transform="translate(1394.839844 0)"/>
       <use xlink:href="#DejaVuSans-20" transform="translate(1458.023438 0)"/>
       <use xlink:href="#DejaVuSans-50" transform="translate(1489.810547 0)"/>
       <use xlink:href="#DejaVuSans-49" transform="translate(1550.113281 0)"/>
       <use xlink:href="#DejaVuSans-45" transform="translate(1579.605469 0)"/>
       <use xlink:href="#DejaVuSans-4c" transform="translate(1642.789062 0)"/>
       <use xlink:href="#DejaVuSans-20" transform="translate(1698.501953 0)"/>
       <use xlink:href="#DejaVuSans-59" transform="translate(1730.289062 0)"/>
      </g>
      <!-- TEJIDO CELULAR SUBCUTÁNEO -->
      <g style="fill: #555555" transform="translate(62.919844 449.235029) scale(0.09 -0.09)">
       <defs>
        <path id="DejaVuSans-c1" d="M 2188 4044 
L 1331 1722 
L 3047 1722 
L 2188 4044 
z
M 1831 4666 
L 2547 4666 
L 4325 0 
L 3669 0 
L 3244 1197 
L 1141 1197 
L 716 0 
L 50 0 
L 1831 4666 
z
M 2356 5921 
L 2934 5921 
L 2222 5096 
L 1743 5096 
L 2356 5921 
z
" transform="scale(0.015625)"/>
       </defs>
       <use xlink:href="#DejaVuSans-54"/>
       <use xlink:href="#DejaVuSans-45" transform="translate(61.083984 0)"/>
       <use xlink:href="#DejaVuSans-4a" transform="translate(124.267578 0)"/>
       <use xlink:href="#DejaVuSans-49" transform="translate(153.759766 0)"/>
       <use xlink:href="#DejaVuSans-44" transform="translate(183.251953 0)"/>
       <use xlink:href="#DejaVuSans-4f" transform="translate(260.253906 0)"/>
       <use xlink:href="#DejaVuSans-20" transform="translate(338.964844 0)"/>
       <use xlink:href="#DejaVuSans-43" transform="translate(370.751953 0)"/>
       <use xlink:href="#DejaVuSans-45" transform="translate(440.576172 0)"/>
       <use xlink:href="#DejaVuSans-4c" transform="translate(503.759766 0)"/>
       <use xlink:href="#DejaVuSans-55" transform="translate(554.472656 0)"/>
       <use xlink:href="#DejaVuSans-4c" transform="translate(627.666016 0)"/>
       <use xlink:href="#DejaVuSans-41" transform="translate(685.628906 0)"/>
       <use xlink:href="#DejaVuSans-52" transform="translate(754.037109 0)"/>
       <use xlink:href="#DejaVuSans-20" transform="translate(823.519531 0)"/>
       <use xlink:href="#DejaVuSans-53" transform="translate(855.306641 0)"/>
       <use xlink:href="#DejaVuSans-55" transform="translate(918.783203 0)"/>
       <use xlink:href="#DejaVuSans-42" transform="translate(991.976562 0)"/>
       <use xlink:href="#DejaVuSans-43" transform="translate(1058.830078 0)"/>
       <use xlink:href="#DejaVuSans-55" transform="translate(1128.654297 0)"/>
       <use xlink:href="#DejaVuSans-54" transform="translate(1201.847656 0)"/>
       <use xlink:href="#DejaVuSans-c1" transform="translate(1255.181641 0)"/>
       <use xlink:href="#DejaVuSans-4e" transform="translate(1323.589844 0)"/>
       <use xlink:href="#DejaVuSans-45" transform="translate(1398.394531 0)"/>
       <use xlink:href="#DejaVuSans-4f" transform="translate(1461.578125 0)"/>
      </g>
     </g>
    </g>
    <g id="ytick_3">
     <g id="line2d_19">
      <path d="M 208.549375 392.488362 
L 993.279375 392.488362 
" clip-path="url(#p761a602fc9)" style="fill: none; stroke: #ffffff; stroke-width: 0.8; stroke-linecap: square"/>
     </g>
     <g id="line2d_20">
      <g>
       <use xlink:href="#m7f6ae81523" x="208.549375" y="392.488362" style="fill: #555555; stroke: #555555; stroke-width: 0.8"/>
      </g>
     </g>
     <g id="text_11">
      <!-- DILATACIÓN Y LEGRADO DESPUÉS DE -->
      <g style="fill: #555555" transform="translate(32.6925 391.552503) scale(0.09 -0.09)">
       <defs>
        <path id="DejaVuSans-47" d="M 3809 666 
L 3809 1919 
L 2778 1919 
L 2778 2438 
L 4434 2438 
L 4434 434 
Q 4069 175 3628 42 
Q 3188 -91 2688 -91 
Q 1594 -91 976 548 
Q 359 1188 359 2328 
Q 359 3472 976 4111 
Q 1594 4750 2688 4750 
Q 3144 4750 3555 4637 
Q 3966 4525 4313 4306 
L 4313 3634 
Q 3963 3931 3569 4081 
Q 3175 4231 2741 4231 
Q 1884 4231 1454 3753 
Q 1025 3275 1025 2328 
Q 1025 1384 1454 906 
Q 1884 428 2741 428 
Q 3075 428 3337 486 
Q 3600 544 3809 666 
z
" transform="scale(0.015625)"/>
        <path id="DejaVuSans-c9" d="M 628 4666 
L 3578 4666 
L 3578 4134 
L 1259 4134 
L 1259 2753 
L 3481 2753 
L 3481 2222 
L 1259 2222 
L 1259 531 
L 3634 531 
L 3634 0 
L 628 0 
L 628 4666 
z
M 2268 5921 
L 2846 5921 
L 2134 5096 
L 1655 5096 
L 2268 5921 
z
" transform="scale(0.015625)"/>
       </defs>
       <use xlink:href="#DejaVuSans-44"/>
       <use xlink:href="#DejaVuSans-49" transform="translate(77.001953 0)"/>
       <use xlink:href="#DejaVuSans-4c" transform="translate(106.494141 0)"/>
       <use xlink:href="#DejaVuSans-41" transform="translate(164.457031 0)"/>
       <use xlink:href="#DejaVuSans-54" transform="translate(225.115234 0)"/>
       <use xlink:href="#DejaVuSans-41" transform="translate(278.449219 0)"/>
       <use xlink:href="#DejaVuSans-43" transform="translate(345.107422 0)"/>
       <use xlink:href="#DejaVuSans-49" transform="translate(414.931641 0)"/>
       <use xlink:href="#DejaVuSans-d3" transform="translate(444.423828 0)"/>
       <use xlink:href="#DejaVuSans-4e" transform="translate(523.134766 0)"/>
       <use xlink:href="#DejaVuSans-20" transform="translate(597.939453 0)"/>
       <use xlink:href="#DejaVuSans-59" transform="translate(629.726562 0)"/>
       <use xlink:href="#DejaVuSans-20" transform="translate(690.810547 0)"/>
       <use xlink:href="#DejaVuSans-4c" transform="translate(722.597656 0)"/>
       <use xlink:href="#DejaVuSans-45" transform="translate(778.310547 0)"/>
       <use xlink:href="#DejaVuSans-47" transform="translate(841.494141 0)"/>
       <use xlink:href="#DejaVuSans-52" transform="translate(918.984375 0)"/>
       <use xlink:href="#DejaVuSans-41" transform="translate(984.466797 0)"/>
       <use xlink:href="#DejaVuSans-44" transform="translate(1052.875 0)"/>
       <use xlink:href="#DejaVuSans-4f" transform="translate(1129.876953 0)"/>
       <use xlink:href="#DejaVuSans-20" transform="translate(1208.587891 0)"/>
       <use xlink:href="#DejaVuSans-44" transform="translate(1240.375 0)"/>
       <use xlink:href="#DejaVuSans-45" transform="translate(1317.376953 0)"/>
       <use xlink:href="#DejaVuSans-53" transform="translate(1380.560547 0)"/>
       <use xlink:href="#DejaVuSans-50" transform="translate(1444.037109 0)"/>
       <use xlink:href="#DejaVuSans-55" transform="translate(1504.339844 0)"/>
       <use xlink:href="#DejaVuSans-c9" transform="translate(1577.533203 0)"/>
       <use xlink:href="#DejaVuSans-53" transform="translate(1640.716797 0)"/>
       <use xlink:href="#DejaVuSans-20" transform="translate(1704.193359 0)"/>
       <use xlink:href="#DejaVuSans-44" transform="translate(1735.980469 0)"/>
       <use xlink:href="#DejaVuSans-45" transform="translate(1812.982422 0)"/>
      </g>
      <!-- PARTO O ABORTO -->
      <g style="fill: #555555" transform="translate(122.110312 401.630534) scale(0.09 -0.09)">
       <use xlink:href="#DejaVuSans-50"/>
       <use xlink:href="#DejaVuSans-41" transform="translate(53.927734 0)"/>
       <use xlink:href="#DejaVuSans-52" transform="translate(122.335938 0)"/>
       <use xlink:href="#DejaVuSans-54" transform="translate(184.568359 0)"/>
       <use xlink:href="#DejaVuSans-4f" transform="translate(245.652344 0)"/>
       <use xlink:href="#DejaVuSans-20" transform="translate(324.363281 0)"/>
       <use xlink:href="#DejaVuSans-4f" transform="translate(356.150391 0)"/>
       <use xlink:href="#DejaVuSans-20" transform="translate(434.861328 0)"/>
       <use xlink:href="#DejaVuSans-41" transform="translate(466.648438 0)"/>
       <use xlink:href="#DejaVuSans-42" transform="translate(535.056641 0)"/>
       <use xlink:href="#DejaVuSans-4f" transform="translate(601.910156 0)"/>
       <use xlink:href="#DejaVuSans-52" transform="translate(680.621094 0)"/>
       <use xlink:href="#DejaVuSans-54" transform="translate(742.853516 0)"/>
       <use xlink:href="#DejaVuSans-4f" transform="translate(803.9375 0)"/>
      </g>
     </g>
    </g>
    <g id="ytick_4">
     <g id="line2d_21">
      <path d="M 208.549375 345.876117 
L 993.279375 345.876117 
" clip-path="url(#p761a602fc9)" style="fill: none; stroke: #ffffff; stroke-width: 0.8; stroke-linecap: square"/>
     </g>
     <g id="line2d_22">
      <g>
       <use xlink:href="#m7f6ae81523" x="208.549375" y="345.876117" style="fill: #555555; stroke: #555555; stroke-width: 0.8"/>
      </g>
     </g>
     <g id="text_12">
      <!-- INYECCIÓN DE AGENTE ESCLEROSANTE EN -->
      <g style="fill: #555555" transform="translate(7.2 344.940258) scale(0.09 -0.09)">
       <use xlink:href="#DejaVuSans-49"/>
       <use xlink:href="#DejaVuSans-4e" transform="translate(29.492188 0)"/>
       <use xlink:href="#DejaVuSans-59" transform="translate(104.296875 0)"/>
       <use xlink:href="#DejaVuSans-45" transform="translate(165.380859 0)"/>
       <use xlink:href="#DejaVuSans-43" transform="translate(228.564453 0)"/>
       <use xlink:href="#DejaVuSans-43" transform="translate(298.388672 0)"/>
       <use xlink:href="#DejaVuSans-49" transform="translate(368.212891 0)"/>
       <use xlink:href="#DejaVuSans-d3" transform="translate(397.705078 0)"/>
       <use xlink:href="#DejaVuSans-4e" transform="translate(476.416016 0)"/>
       <use xlink:href="#DejaVuSans-20" transform="translate(551.220703 0)"/>
       <use xlink:href="#DejaVuSans-44" transform="translate(583.007812 0)"/>
       <use xlink:href="#DejaVuSans-45" transform="translate(660.009766 0)"/>
       <use xlink:href="#DejaVuSans-20" transform="translate(723.193359 0)"/>
       <use xlink:href="#DejaVuSans-41" transform="translate(754.980469 0)"/>
       <use xlink:href="#DejaVuSans-47" transform="translate(821.638672 0)"/>
       <use xlink:href="#DejaVuSans-45" transform="translate(899.128906 0)"/>
       <use xlink:href="#DejaVuSans-4e" transform="translate(962.3125 0)"/>
       <use xlink:href="#DejaVuSans-54" transform="translate(1037.117188 0)"/>
       <use xlink:href="#DejaVuSans-45" transform="translate(1098.201172 0)"/>
       <use xlink:href="#DejaVuSans-20" transform="translate(1161.384766 0)"/>
       <use xlink:href="#DejaVuSans-45" transform="translate(1193.171875 0)"/>
       <use xlink:href="#DejaVuSans-53" transform="translate(1256.355469 0)"/>
       <use xlink:href="#DejaVuSans-43" transform="translate(1319.832031 0)"/>
       <use xlink:href="#DejaVuSans-4c" transform="translate(1389.65625 0)"/>
       <use xlink:href="#DejaVuSans-45" transform="translate(1445.369141 0)"/>
       <use xlink:href="#DejaVuSans-52" transform="translate(1508.552734 0)"/>
       <use xlink:href="#DejaVuSans-4f" transform="translate(1578.035156 0)"/>
       <use xlink:href="#DejaVuSans-53" transform="translate(1656.746094 0)"/>
       <use xlink:href="#DejaVuSans-41" transform="translate(1722.097656 0)"/>
       <use xlink:href="#DejaVuSans-4e" transform="translate(1790.505859 0)"/>
       <use xlink:href="#DejaVuSans-54" transform="translate(1865.310547 0)"/>
       <use xlink:href="#DejaVuSans-45" transform="translate(1926.394531 0)"/>
       <use xlink:href="#DejaVuSans-20" transform="translate(1989.578125 0)"/>
       <use xlink:href="#DejaVuSans-45" transform="translate(2021.365234 0)"/>
       <use xlink:href="#DejaVuSans-4e" transform="translate(2084.548828 0)"/>
      </g>
      <!-- VENA -->
      <g style="fill: #555555" transform="translate(176.81625 355.018289) scale(0.09 -0.09)">
       <defs>
        <path id="DejaVuSans-56" d="M 1831 0 
L 50 4666 
L 709 4666 
L 2188 738 
L 3669 4666 
L 4325 4666 
L 2547 0 
L 1831 0 
z
" transform="scale(0.015625)"/>
       </defs>
       <use xlink:href="#DejaVuSans-56"/>
       <use xlink:href="#DejaVuSans-45" transform="translate(68.408203 0)"/>
       <use xlink:href="#DejaVuSans-4e" transform="translate(131.591797 0)"/>
       <use xlink:href="#DejaVuSans-41" transform="translate(206.396484 0)"/>
      </g>
     </g>
    </g>
    <g id="ytick_5">
     <g id="line2d_23">
      <path d="M 208.549375 299.263872 
L 993.279375 299.263872 
" clip-path="url(#p761a602fc9)" style="fill: none; stroke: #ffffff; stroke-width: 0.8; stroke-linecap: square"/>
     </g>
     <g id="line2d_24">
      <g>
       <use xlink:href="#m7f6ae81523" x="208.549375" y="299.263872" style="fill: #555555; stroke: #555555; stroke-width: 0.8"/>
      </g>
     </g>
     <g id="text_13">
      <!-- OTRA INCISIÓN CON DRENAJE DE PIEL Y -->
      <g style="fill: #555555" transform="translate(22.14 298.328013) scale(0.09 -0.09)">
       <use xlink:href="#DejaVuSans-4f"/>
       <use xlink:href="#DejaVuSans-54" transform="translate(78.710938 0)"/>
       <use xlink:href="#DejaVuSans-52" transform="translate(139.794922 0)"/>
       <use xlink:href="#DejaVuSans-41" transform="translate(205.277344 0)"/>
       <use xlink:href="#DejaVuSans-20" transform="translate(273.685547 0)"/>
       <use xlink:href="#DejaVuSans-49" transform="translate(305.472656 0)"/>
       <use xlink:href="#DejaVuSans-4e" transform="translate(334.964844 0)"/>
       <use xlink:href="#DejaVuSans-43" transform="translate(409.769531 0)"/>
       <use xlink:href="#DejaVuSans-49" transform="translate(479.59375 0)"/>
       <use xlink:href="#DejaVuSans-53" transform="translate(509.085938 0)"/>
       <use xlink:href="#DejaVuSans-49" transform="translate(572.5625 0)"/>
       <use xlink:href="#DejaVuSans-d3" transform="translate(602.054688 0)"/>
       <use xlink:href="#DejaVuSans-4e" transform="translate(680.765625 0)"/>
       <use xlink:href="#DejaVuSans-20" transform="translate(755.570312 0)"/>
       <use xlink:href="#DejaVuSans-43" transform="translate(787.357422 0)"/>
       <use xlink:href="#DejaVuSans-4f" transform="translate(857.181641 0)"/>
       <use xlink:href="#DejaVuSans-4e" transform="translate(935.892578 0)"/>
       <use xlink:href="#DejaVuSans-20" transform="translate(1010.697266 0)"/>
       <use xlink:href="#DejaVuSans-44" transform="translate(1042.484375 0)"/>
       <use xlink:href="#DejaVuSans-52" transform="translate(1119.486328 0)"/>
       <use xlink:href="#DejaVuSans-45" transform="translate(1188.96875 0)"/>
       <use xlink:href="#DejaVuSans-4e" transform="translate(1252.152344 0)"/>
       <use xlink:href="#DejaVuSans-41" transform="translate(1326.957031 0)"/>
       <use xlink:href="#DejaVuSans-4a" transform="translate(1395.365234 0)"/>
       <use xlink:href="#DejaVuSans-45" transform="translate(1424.857422 0)"/>
       <use xlink:href="#DejaVuSans-20" transform="translate(1488.041016 0)"/>
       <use xlink:href="#DejaVuSans-44" transform="translate(1519.828125 0)"/>
       <use xlink:href="#DejaVuSans-45" transform="translate(1596.830078 0)"/>
       <use xlink:href="#DejaVuSans-20" transform="translate(1660.013672 0)"/>
       <use xlink:href="#DejaVuSans-50" transform="translate(1691.800781 0)"/>
       <use xlink:href="#DejaVuSans-49" transform="translate(1752.103516 0)"/>
       <use xlink:href="#DejaVuSans-45" transform="translate(1781.595703 0)"/>
       <use xlink:href="#DejaVuSans-4c" transform="translate(1844.779297 0)"/>
       <use xlink:href="#DejaVuSans-20" transform="translate(1900.492188 0)"/>
       <use xlink:href="#DejaVuSans-59" transform="translate(1932.279297 0)"/>
      </g>
      <!-- TEJIDO SUBCUTÁNEO -->
      <g style="fill: #555555" transform="translate(106.530469 310.107044) scale(0.09 -0.09)">
       <use xlink:href="#DejaVuSans-54"/>
       <use xlink:href="#DejaVuSans-45" transform="translate(61.083984 0)"/>
       <use xlink:href="#DejaVuSans-4a" transform="translate(124.267578 0)"/>
       <use xlink:href="#DejaVuSans-49" transform="translate(153.759766 0)"/>
       <use xlink:href="#DejaVuSans-44" transform="translate(183.251953 0)"/>
       <use xlink:href="#DejaVuSans-4f" transform="translate(260.253906 0)"/>
       <use xlink:href="#DejaVuSans-20" transform="translate(338.964844 0)"/>
       <use xlink:href="#DejaVuSans-53" transform="translate(370.751953 0)"/>
       <use xlink:href="#DejaVuSans-55" transform="translate(434.228516 0)"/>
       <use xlink:href="#DejaVuSans-42" transform="translate(507.421875 0)"/>
       <use xlink:href="#DejaVuSans-43" transform="translate(574.275391 0)"/>
       <use xlink:href="#DejaVuSans-55" transform="translate(644.099609 0)"/>
       <use xlink:href="#DejaVuSans-54" transform="translate(717.292969 0)"/>
       <use xlink:href="#DejaVuSans-c1" transform="translate(770.626953 0)"/>
       <use xlink:href="#DejaVuSans-4e" transform="translate(839.035156 0)"/>
       <use xlink:href="#DejaVuSans-45" transform="translate(913.839844 0)"/>
       <use xlink:href="#DejaVuSans-4f" transform="translate(977.023438 0)"/>
      </g>
     </g>
    </g>
    <g id="ytick_6">
     <g id="line2d_25">
      <path d="M 208.549375 252.651628 
L 993.279375 252.651628 
" clip-path="url(#p761a602fc9)" style="fill: none; stroke: #ffffff; stroke-width: 0.8; stroke-linecap: square"/>
     </g>
     <g id="line2d_26">
      <g>
       <use xlink:href="#m7f6ae81523" x="208.549375" y="252.651628" style="fill: #555555; stroke: #555555; stroke-width: 0.8"/>
      </g>
     </g>
     <g id="text_14">
      <!-- OTRA REPARACIÓN LAPAROSCÓPICA DE -->
      <g style="fill: #555555" transform="translate(22.7925 251.715768) scale(0.09 -0.09)">
       <use xlink:href="#DejaVuSans-4f"/>
       <use xlink:href="#DejaVuSans-54" transform="translate(78.710938 0)"/>
       <use xlink:href="#DejaVuSans-52" transform="translate(139.794922 0)"/>
       <use xlink:href="#DejaVuSans-41" transform="translate(205.277344 0)"/>
       <use xlink:href="#DejaVuSans-20" transform="translate(273.685547 0)"/>
       <use xlink:href="#DejaVuSans-52" transform="translate(305.472656 0)"/>
       <use xlink:href="#DejaVuSans-45" transform="translate(374.955078 0)"/>
       <use xlink:href="#DejaVuSans-50" transform="translate(438.138672 0)"/>
       <use xlink:href="#DejaVuSans-41" transform="translate(492.066406 0)"/>
       <use xlink:href="#DejaVuSans-52" transform="translate(560.474609 0)"/>
       <use xlink:href="#DejaVuSans-41" transform="translate(625.957031 0)"/>
       <use xlink:href="#DejaVuSans-43" transform="translate(692.615234 0)"/>
       <use xlink:href="#DejaVuSans-49" transform="translate(762.439453 0)"/>
       <use xlink:href="#DejaVuSans-d3" transform="translate(791.931641 0)"/>
       <use xlink:href="#DejaVuSans-4e" transform="translate(870.642578 0)"/>
       <use xlink:href="#DejaVuSans-20" transform="translate(945.447266 0)"/>
       <use xlink:href="#DejaVuSans-4c" transform="translate(977.234375 0)"/>
       <use xlink:href="#DejaVuSans-41" transform="translate(1035.197266 0)"/>
       <use xlink:href="#DejaVuSans-50" transform="translate(1103.605469 0)"/>
       <use xlink:href="#DejaVuSans-41" transform="translate(1157.533203 0)"/>
       <use xlink:href="#DejaVuSans-52" transform="translate(1225.941406 0)"/>
       <use xlink:href="#DejaVuSans-4f" transform="translate(1295.423828 0)"/>
       <use xlink:href="#DejaVuSans-53" transform="translate(1374.134766 0)"/>
       <use xlink:href="#DejaVuSans-43" transform="translate(1437.611328 0)"/>
       <use xlink:href="#DejaVuSans-d3" transform="translate(1507.435547 0)"/>
       <use xlink:href="#DejaVuSans-50" transform="translate(1586.146484 0)"/>
       <use xlink:href="#DejaVuSans-49" transform="translate(1646.449219 0)"/>
       <use xlink:href="#DejaVuSans-43" transform="translate(1675.941406 0)"/>
       <use xlink:href="#DejaVuSans-41" transform="translate(1745.765625 0)"/>
       <use xlink:href="#DejaVuSans-20" transform="translate(1814.173828 0)"/>
       <use xlink:href="#DejaVuSans-44" transform="translate(1845.960938 0)"/>
       <use xlink:href="#DejaVuSans-45" transform="translate(1922.962891 0)"/>
      </g>
      <!-- HERNIA UMBILICAL -->
      <g style="fill: #555555" transform="translate(116.128125 261.793799) scale(0.09 -0.09)">
       <use xlink:href="#DejaVuSans-48"/>
       <use xlink:href="#DejaVuSans-45" transform="translate(75.195312 0)"/>
       <use xlink:href="#DejaVuSans-52" transform="translate(138.378906 0)"/>
       <use xlink:href="#DejaVuSans-4e" transform="translate(207.861328 0)"/>
       <use xlink:href="#DejaVuSans-49" transform="translate(282.666016 0)"/>
       <use xlink:href="#DejaVuSans-41" transform="translate(312.158203 0)"/>
       <use xlink:href="#DejaVuSans-20" transform="translate(380.566406 0)"/>
       <use xlink:href="#DejaVuSans-55" transform="translate(412.353516 0)"/>
       <use xlink:href="#DejaVuSans-4d" transform="translate(485.546875 0)"/>
       <use xlink:href="#DejaVuSans-42" transform="translate(571.826172 0)"/>
       <use xlink:href="#DejaVuSans-49" transform="translate(640.429688 0)"/>
       <use xlink:href="#DejaVuSans-4c" transform="translate(669.921875 0)"/>
       <use xlink:href="#DejaVuSans-49" transform="translate(725.634766 0)"/>
       <use xlink:href="#DejaVuSans-43" transform="translate(755.126953 0)"/>
       <use xlink:href="#DejaVuSans-41" transform="translate(824.951172 0)"/>
       <use xlink:href="#DejaVuSans-4c" transform="translate(893.359375 0)"/>
      </g>
     </g>
    </g>
    <g id="ytick_7">
     <g id="line2d_27">
      <path d="M 208.549375 206.039383 
L 993.279375 206.039383 
" clip-path="url(#p761a602fc9)" style="fill: none; stroke: #ffffff; stroke-width: 0.8; stroke-linecap: square"/>
     </g>
     <g id="line2d_28">
      <g>
       <use xlink:href="#m7f6ae81523" x="208.549375" y="206.039383" style="fill: #555555; stroke: #555555; stroke-width: 0.8"/>
      </g>
     </g>
     <g id="text_15">
      <!-- EPISIOTOMÍA -->
      <g style="fill: #555555" transform="translate(143.168906 209.45868) scale(0.09 -0.09)">
       <defs>
        <path id="DejaVuSans-cd" d="M 628 4666 
L 1259 4666 
L 1259 0 
L 628 0 
L 628 4666 
z
M 1116 5921 
L 1694 5921 
L 982 5096 
L 503 5096 
L 1116 5921 
z
" transform="scale(0.015625)"/>
       </defs>
       <use xlink:href="#DejaVuSans-45"/>
       <use xlink:href="#DejaVuSans-50" transform="translate(63.183594 0)"/>
       <use xlink:href="#DejaVuSans-49" transform="translate(123.486328 0)"/>
       <use xlink:href="#DejaVuSans-53" transform="translate(152.978516 0)"/>
       <use xlink:href="#DejaVuSans-49" transform="translate(216.455078 0)"/>
       <use xlink:href="#DejaVuSans-4f" transform="translate(245.947266 0)"/>
       <use xlink:href="#DejaVuSans-54" transform="translate(324.658203 0)"/>
       <use xlink:href="#DejaVuSans-4f" transform="translate(385.742188 0)"/>
       <use xlink:href="#DejaVuSans-4d" transform="translate(464.453125 0)"/>
       <use xlink:href="#DejaVuSans-cd" transform="translate(550.732422 0)"/>
       <use xlink:href="#DejaVuSans-41" transform="translate(580.224609 0)"/>
      </g>
     </g>
    </g>
    <g id="ytick_8">
     <g id="line2d_29">
      <path d="M 208.549375 159.427138 
L 993.279375 159.427138 
" clip-path="url(#p761a602fc9)" style="fill: none; stroke: #ffffff; stroke-width: 0.8; stroke-linecap: square"/>
     </g>
     <g id="line2d_30">
      <g>
       <use xlink:href="#m7f6ae81523" x="208.549375" y="159.427138" style="fill: #555555; stroke: #555555; stroke-width: 0.8"/>
      </g>
     </g>
     <g id="text_16">
      <!-- OTRA DESTRUCCIÓN U OCLUSIÓN -->
      <g style="fill: #555555" transform="translate(49.332656 153.452263) scale(0.09 -0.09)">
       <use xlink:href="#DejaVuSans-4f"/>
       <use xlink:href="#DejaVuSans-54" transform="translate(78.710938 0)"/>
       <use xlink:href="#DejaVuSans-52" transform="translate(139.794922 0)"/>
       <use xlink:href="#DejaVuSans-41" transform="translate(205.277344 0)"/>
       <use xlink:href="#DejaVuSans-20" transform="translate(273.685547 0)"/>
       <use xlink:href="#DejaVuSans-44" transform="translate(305.472656 0)"/>
       <use xlink:href="#DejaVuSans-45" transform="translate(382.474609 0)"/>
       <use xlink:href="#DejaVuSans-53" transform="translate(445.658203 0)"/>
       <use xlink:href="#DejaVuSans-54" transform="translate(509.134766 0)"/>
       <use xlink:href="#DejaVuSans-52" transform="translate(570.21875 0)"/>
       <use xlink:href="#DejaVuSans-55" transform="translate(639.701172 0)"/>
       <use xlink:href="#DejaVuSans-43" transform="translate(712.894531 0)"/>
       <use xlink:href="#DejaVuSans-43" transform="translate(782.71875 0)"/>
       <use xlink:href="#DejaVuSans-49" transform="translate(852.542969 0)"/>
       <use xlink:href="#DejaVuSans-d3" transform="translate(882.035156 0)"/>
       <use xlink:href="#DejaVuSans-4e" transform="translate(960.746094 0)"/>
       <use xlink:href="#DejaVuSans-20" transform="translate(1035.550781 0)"/>
       <use xlink:href="#DejaVuSans-55" transform="translate(1067.337891 0)"/>
       <use xlink:href="#DejaVuSans-20" transform="translate(1140.53125 0)"/>
       <use xlink:href="#DejaVuSans-4f" transform="translate(1172.318359 0)"/>
       <use xlink:href="#DejaVuSans-43" transform="translate(1251.029297 0)"/>
       <use xlink:href="#DejaVuSans-4c" transform="translate(1320.853516 0)"/>
       <use xlink:href="#DejaVuSans-55" transform="translate(1371.566406 0)"/>
       <use xlink:href="#DejaVuSans-53" transform="translate(1444.759766 0)"/>
       <use xlink:href="#DejaVuSans-49" transform="translate(1508.236328 0)"/>
       <use xlink:href="#DejaVuSans-d3" transform="translate(1537.728516 0)"/>
       <use xlink:href="#DejaVuSans-4e" transform="translate(1616.439453 0)"/>
      </g>
      <!-- ENDOSCÓPICA BILATERAL DE LAS -->
      <g style="fill: #555555" transform="translate(49.469062 163.530294) scale(0.09 -0.09)">
       <use xlink:href="#DejaVuSans-45"/>
       <use xlink:href="#DejaVuSans-4e" transform="translate(63.183594 0)"/>
       <use xlink:href="#DejaVuSans-44" transform="translate(137.988281 0)"/>
       <use xlink:href="#DejaVuSans-4f" transform="translate(214.990234 0)"/>
       <use xlink:href="#DejaVuSans-53" transform="translate(293.701172 0)"/>
       <use xlink:href="#DejaVuSans-43" transform="translate(357.177734 0)"/>
       <use xlink:href="#DejaVuSans-d3" transform="translate(427.001953 0)"/>
       <use xlink:href="#DejaVuSans-50" transform="translate(505.712891 0)"/>
       <use xlink:href="#DejaVuSans-49" transform="translate(566.015625 0)"/>
       <use xlink:href="#DejaVuSans-43" transform="translate(595.507812 0)"/>
       <use xlink:href="#DejaVuSans-41" transform="translate(665.332031 0)"/>
       <use xlink:href="#DejaVuSans-20" transform="translate(733.740234 0)"/>
       <use xlink:href="#DejaVuSans-42" transform="translate(765.527344 0)"/>
       <use xlink:href="#DejaVuSans-49" transform="translate(834.130859 0)"/>
       <use xlink:href="#DejaVuSans-4c" transform="translate(863.623047 0)"/>
       <use xlink:href="#DejaVuSans-41" transform="translate(921.585938 0)"/>
       <use xlink:href="#DejaVuSans-54" transform="translate(982.244141 0)"/>
       <use xlink:href="#DejaVuSans-45" transform="translate(1043.328125 0)"/>
       <use xlink:href="#DejaVuSans-52" transform="translate(1106.511719 0)"/>
       <use xlink:href="#DejaVuSans-41" transform="translate(1171.994141 0)"/>
       <use xlink:href="#DejaVuSans-4c" transform="translate(1240.402344 0)"/>
       <use xlink:href="#DejaVuSans-20" transform="translate(1296.115234 0)"/>
       <use xlink:href="#DejaVuSans-44" transform="translate(1327.902344 0)"/>
       <use xlink:href="#DejaVuSans-45" transform="translate(1404.904297 0)"/>
       <use xlink:href="#DejaVuSans-20" transform="translate(1468.087891 0)"/>
       <use xlink:href="#DejaVuSans-4c" transform="translate(1499.875 0)"/>
       <use xlink:href="#DejaVuSans-41" transform="translate(1557.837891 0)"/>
       <use xlink:href="#DejaVuSans-53" transform="translate(1626.246094 0)"/>
      </g>
      <!-- TROMPAS DE FALOPIO -->
      <g style="fill: #555555" transform="translate(102.436875 173.608325) scale(0.09 -0.09)">
       <defs>
        <path id="DejaVuSans-46" d="M 628 4666 
L 3309 4666 
L 3309 4134 
L 1259 4134 
L 1259 2759 
L 3109 2759 
L 3109 2228 
L 1259 2228 
L 1259 0 
L 628 0 
L 628 4666 
z
" transform="scale(0.015625)"/>
       </defs>
       <use xlink:href="#DejaVuSans-54"/>
       <use xlink:href="#DejaVuSans-52" transform="translate(61.083984 0)"/>
       <use xlink:href="#DejaVuSans-4f" transform="translate(130.566406 0)"/>
       <use xlink:href="#DejaVuSans-4d" transform="translate(209.277344 0)"/>
       <use xlink:href="#DejaVuSans-50" transform="translate(295.556641 0)"/>
       <use xlink:href="#DejaVuSans-41" transform="translate(349.484375 0)"/>
       <use xlink:href="#DejaVuSans-53" transform="translate(417.892578 0)"/>
       <use xlink:href="#DejaVuSans-20" transform="translate(481.369141 0)"/>
       <use xlink:href="#DejaVuSans-44" transform="translate(513.15625 0)"/>
       <use xlink:href="#DejaVuSans-45" transform="translate(590.158203 0)"/>
       <use xlink:href="#DejaVuSans-20" transform="translate(653.341797 0)"/>
       <use xlink:href="#DejaVuSans-46" transform="translate(685.128906 0)"/>
       <use xlink:href="#DejaVuSans-41" transform="translate(733.523438 0)"/>
       <use xlink:href="#DejaVuSans-4c" transform="translate(801.931641 0)"/>
       <use xlink:href="#DejaVuSans-4f" transform="translate(854.019531 0)"/>
       <use xlink:href="#DejaVuSans-50" transform="translate(932.730469 0)"/>
       <use xlink:href="#DejaVuSans-49" transform="translate(993.033203 0)"/>
       <use xlink:href="#DejaVuSans-4f" transform="translate(1022.525391 0)"/>
      </g>
     </g>
    </g>
    <g id="ytick_9">
     <g id="line2d_31">
      <path d="M 208.549375 112.814893 
L 993.279375 112.814893 
" clip-path="url(#p761a602fc9)" style="fill: none; stroke: #ffffff; stroke-width: 0.8; stroke-linecap: square"/>
     </g>
     <g id="line2d_32">
      <g>
       <use xlink:href="#m7f6ae81523" x="208.549375" y="112.814893" style="fill: #555555; stroke: #555555; stroke-width: 0.8"/>
      </g>
     </g>
     <g id="text_17">
      <!-- EXPLORACIÓN MANUAL DE LA CAVIDAD -->
      <g style="fill: #555555" transform="translate(23.464687 111.547862) scale(0.09 -0.09)">
       <defs>
        <path id="DejaVuSans-58" d="M 403 4666 
L 1081 4666 
L 2241 2931 
L 3406 4666 
L 4084 4666 
L 2584 2425 
L 4184 0 
L 3506 0 
L 2194 1984 
L 872 0 
L 191 0 
L 1856 2491 
L 403 4666 
z
" transform="scale(0.015625)"/>
       </defs>
       <use xlink:href="#DejaVuSans-45"/>
       <use xlink:href="#DejaVuSans-58" transform="translate(63.183594 0)"/>
       <use xlink:href="#DejaVuSans-50" transform="translate(131.689453 0)"/>
       <use xlink:href="#DejaVuSans-4c" transform="translate(191.992188 0)"/>
       <use xlink:href="#DejaVuSans-4f" transform="translate(244.080078 0)"/>
       <use xlink:href="#DejaVuSans-52" transform="translate(322.791016 0)"/>
       <use xlink:href="#DejaVuSans-41" transform="translate(388.273438 0)"/>
       <use xlink:href="#DejaVuSans-43" transform="translate(454.931641 0)"/>
       <use xlink:href="#DejaVuSans-49" transform="translate(524.755859 0)"/>
       <use xlink:href="#DejaVuSans-d3" transform="translate(554.248047 0)"/>
       <use xlink:href="#DejaVuSans-4e" transform="translate(632.958984 0)"/>
       <use xlink:href="#DejaVuSans-20" transform="translate(707.763672 0)"/>
       <use xlink:href="#DejaVuSans-4d" transform="translate(739.550781 0)"/>
       <use xlink:href="#DejaVuSans-41" transform="translate(825.830078 0)"/>
       <use xlink:href="#DejaVuSans-4e" transform="translate(894.238281 0)"/>
       <use xlink:href="#DejaVuSans-55" transform="translate(969.042969 0)"/>
       <use xlink:href="#DejaVuSans-41" transform="translate(1042.236328 0)"/>
       <use xlink:href="#DejaVuSans-4c" transform="translate(1110.644531 0)"/>
       <use xlink:href="#DejaVuSans-20" transform="translate(1166.357422 0)"/>
       <use xlink:href="#DejaVuSans-44" transform="translate(1198.144531 0)"/>
       <use xlink:href="#DejaVuSans-45" transform="translate(1275.146484 0)"/>
       <use xlink:href="#DejaVuSans-20" transform="translate(1338.330078 0)"/>
       <use xlink:href="#DejaVuSans-4c" transform="translate(1370.117188 0)"/>
       <use xlink:href="#DejaVuSans-41" transform="translate(1428.080078 0)"/>
       <use xlink:href="#DejaVuSans-20" transform="translate(1496.488281 0)"/>
       <use xlink:href="#DejaVuSans-43" transform="translate(1528.275391 0)"/>
       <use xlink:href="#DejaVuSans-41" transform="translate(1598.099609 0)"/>
       <use xlink:href="#DejaVuSans-56" transform="translate(1660.132812 0)"/>
       <use xlink:href="#DejaVuSans-49" transform="translate(1728.541016 0)"/>
       <use xlink:href="#DejaVuSans-44" transform="translate(1758.033203 0)"/>
       <use xlink:href="#DejaVuSans-41" transform="translate(1833.285156 0)"/>
       <use xlink:href="#DejaVuSans-44" transform="translate(1901.693359 0)"/>
      </g>
      <!-- UTERINA, DESPUÉS DEL PARTO -->
      <g style="fill: #555555" transform="translate(61.970625 122.420705) scale(0.09 -0.09)">
       <defs>
        <path id="DejaVuSans-2c" d="M 750 794 
L 1409 794 
L 1409 256 
L 897 -744 
L 494 -744 
L 750 256 
L 750 794 
z
" transform="scale(0.015625)"/>
       </defs>
       <use xlink:href="#DejaVuSans-55"/>
       <use xlink:href="#DejaVuSans-54" transform="translate(73.193359 0)"/>
       <use xlink:href="#DejaVuSans-45" transform="translate(134.277344 0)"/>
       <use xlink:href="#DejaVuSans-52" transform="translate(197.460938 0)"/>
       <use xlink:href="#DejaVuSans-49" transform="translate(266.943359 0)"/>
       <use xlink:href="#DejaVuSans-4e" transform="translate(296.435547 0)"/>
       <use xlink:href="#DejaVuSans-41" transform="translate(371.240234 0)"/>
       <use xlink:href="#DejaVuSans-2c" transform="translate(439.648438 0)"/>
       <use xlink:href="#DejaVuSans-20" transform="translate(471.435547 0)"/>
       <use xlink:href="#DejaVuSans-44" transform="translate(503.222656 0)"/>
       <use xlink:href="#DejaVuSans-45" transform="translate(580.224609 0)"/>
       <use xlink:href="#DejaVuSans-53" transform="translate(643.408203 0)"/>
       <use xlink:href="#DejaVuSans-50" transform="translate(706.884766 0)"/>
       <use xlink:href="#DejaVuSans-55" transform="translate(767.1875 0)"/>
       <use xlink:href="#DejaVuSans-c9" transform="translate(840.380859 0)"/>
       <use xlink:href="#DejaVuSans-53" transform="translate(903.564453 0)"/>
       <use xlink:href="#DejaVuSans-20" transform="translate(967.041016 0)"/>
       <use xlink:href="#DejaVuSans-44" transform="translate(998.828125 0)"/>
       <use xlink:href="#DejaVuSans-45" transform="translate(1075.830078 0)"/>
       <use xlink:href="#DejaVuSans-4c" transform="translate(1139.013672 0)"/>
       <use xlink:href="#DejaVuSans-20" transform="translate(1194.726562 0)"/>
       <use xlink:href="#DejaVuSans-50" transform="translate(1226.513672 0)"/>
       <use xlink:href="#DejaVuSans-41" transform="translate(1280.441406 0)"/>
       <use xlink:href="#DejaVuSans-52" transform="translate(1348.849609 0)"/>
       <use xlink:href="#DejaVuSans-54" transform="translate(1411.082031 0)"/>
       <use xlink:href="#DejaVuSans-4f" transform="translate(1472.166016 0)"/>
      </g>
     </g>
    </g>
    <g id="ytick_10">
     <g id="line2d_33">
      <path d="M 208.549375 66.202648 
L 993.279375 66.202648 
" clip-path="url(#p761a602fc9)" style="fill: none; stroke: #ffffff; stroke-width: 0.8; stroke-linecap: square"/>
     </g>
     <g id="line2d_34">
      <g>
       <use xlink:href="#m7f6ae81523" x="208.549375" y="66.202648" style="fill: #555555; stroke: #555555; stroke-width: 0.8"/>
      </g>
     </g>
     <g id="text_18">
      <!-- OTRA LIGADURA Y SECCIÓN BILATERAL -->
      <g style="fill: #555555" transform="translate(25.415156 65.266789) scale(0.09 -0.09)">
       <use xlink:href="#DejaVuSans-4f"/>
       <use xlink:href="#DejaVuSans-54" transform="translate(78.710938 0)"/>
       <use xlink:href="#DejaVuSans-52" transform="translate(139.794922 0)"/>
       <use xlink:href="#DejaVuSans-41" transform="translate(205.277344 0)"/>
       <use xlink:href="#DejaVuSans-20" transform="translate(273.685547 0)"/>
       <use xlink:href="#DejaVuSans-4c" transform="translate(305.472656 0)"/>
       <use xlink:href="#DejaVuSans-49" transform="translate(361.185547 0)"/>
       <use xlink:href="#DejaVuSans-47" transform="translate(390.677734 0)"/>
       <use xlink:href="#DejaVuSans-41" transform="translate(468.167969 0)"/>
       <use xlink:href="#DejaVuSans-44" transform="translate(536.576172 0)"/>
       <use xlink:href="#DejaVuSans-55" transform="translate(613.578125 0)"/>
       <use xlink:href="#DejaVuSans-52" transform="translate(686.771484 0)"/>
       <use xlink:href="#DejaVuSans-41" transform="translate(752.253906 0)"/>
       <use xlink:href="#DejaVuSans-20" transform="translate(820.662109 0)"/>
       <use xlink:href="#DejaVuSans-59" transform="translate(852.449219 0)"/>
       <use xlink:href="#DejaVuSans-20" transform="translate(913.533203 0)"/>
       <use xlink:href="#DejaVuSans-53" transform="translate(945.320312 0)"/>
       <use xlink:href="#DejaVuSans-45" transform="translate(1008.796875 0)"/>
       <use xlink:href="#DejaVuSans-43" transform="translate(1071.980469 0)"/>
       <use xlink:href="#DejaVuSans-43" transform="translate(1141.804688 0)"/>
       <use xlink:href="#DejaVuSans-49" transform="translate(1211.628906 0)"/>
       <use xlink:href="#DejaVuSans-d3" transform="translate(1241.121094 0)"/>
       <use xlink:href="#DejaVuSans-4e" transform="translate(1319.832031 0)"/>
       <use xlink:href="#DejaVuSans-20" transform="translate(1394.636719 0)"/>
       <use xlink:href="#DejaVuSans-42" transform="translate(1426.423828 0)"/>
       <use xlink:href="#DejaVuSans-49" transform="translate(1495.027344 0)"/>
       <use xlink:href="#DejaVuSans-4c" transform="translate(1524.519531 0)"/>
       <use xlink:href="#DejaVuSans-41" transform="translate(1582.482422 0)"/>
       <use xlink:href="#DejaVuSans-54" transform="translate(1643.140625 0)"/>
       <use xlink:href="#DejaVuSans-45" transform="translate(1704.224609 0)"/>
       <use xlink:href="#DejaVuSans-52" transform="translate(1767.408203 0)"/>
       <use xlink:href="#DejaVuSans-41" transform="translate(1832.890625 0)"/>
       <use xlink:href="#DejaVuSans-4c" transform="translate(1901.298828 0)"/>
      </g>
      <!-- DE LAS TROMPAS DE FALOPIO -->
      <g style="fill: #555555" transform="translate(67.012031 75.34482) scale(0.09 -0.09)">
       <use xlink:href="#DejaVuSans-44"/>
       <use xlink:href="#DejaVuSans-45" transform="translate(77.001953 0)"/>
       <use xlink:href="#DejaVuSans-20" transform="translate(140.185547 0)"/>
       <use xlink:href="#DejaVuSans-4c" transform="translate(171.972656 0)"/>
       <use xlink:href="#DejaVuSans-41" transform="translate(229.935547 0)"/>
       <use xlink:href="#DejaVuSans-53" transform="translate(298.34375 0)"/>
       <use xlink:href="#DejaVuSans-20" transform="translate(361.820312 0)"/>
       <use xlink:href="#DejaVuSans-54" transform="translate(393.607422 0)"/>
       <use xlink:href="#DejaVuSans-52" transform="translate(454.691406 0)"/>
       <use xlink:href="#DejaVuSans-4f" transform="translate(524.173828 0)"/>
       <use xlink:href="#DejaVuSans-4d" transform="translate(602.884766 0)"/>
       <use xlink:href="#DejaVuSans-50" transform="translate(689.164062 0)"/>
       <use xlink:href="#DejaVuSans-41" transform="translate(743.091797 0)"/>
       <use xlink:href="#DejaVuSans-53" transform="translate(811.5 0)"/>
       <use xlink:href="#DejaVuSans-20" transform="translate(874.976562 0)"/>
       <use xlink:href="#DejaVuSans-44" transform="translate(906.763672 0)"/>
       <use xlink:href="#DejaVuSans-45" transform="translate(983.765625 0)"/>
       <use xlink:href="#DejaVuSans-20" transform="translate(1046.949219 0)"/>
       <use xlink:href="#DejaVuSans-46" transform="translate(1078.736328 0)"/>
       <use xlink:href="#DejaVuSans-41" transform="translate(1127.130859 0)"/>
       <use xlink:href="#DejaVuSans-4c" transform="translate(1195.539062 0)"/>
       <use xlink:href="#DejaVuSans-4f" transform="translate(1247.626953 0)"/>
       <use xlink:href="#DejaVuSans-50" transform="translate(1326.337891 0)"/>
       <use xlink:href="#DejaVuSans-49" transform="translate(1386.640625 0)"/>
       <use xlink:href="#DejaVuSans-4f" transform="translate(1416.132812 0)"/>
      </g>
     </g>
    </g>
   </g>
   <g id="patch_3">
    <path d="M 208.549375 504.35775 
L 285.862675 504.35775 
L 285.862675 467.067954 
L 208.549375 467.067954 
z
" clip-path="url(#p761a602fc9)" style="fill: #1f77b4; opacity: 0.65; stroke: #000000; stroke-width: 0.5; stroke-linejoin: miter"/>
   </g>
   <g id="patch_4">
    <path d="M 208.549375 457.745505 
L 285.862675 457.745505 
L 285.862675 420.455709 
L 208.549375 420.455709 
z
" clip-path="url(#p761a602fc9)" style="fill: #1f77b4; opacity: 0.65; stroke: #000000; stroke-width: 0.5; stroke-linejoin: miter"/>
   </g>
   <g id="patch_5">
    <path d="M 208.549375 411.13326 
L 311.633776 411.13326 
L 311.633776 373.843464 
L 208.549375 373.843464 
z
" clip-path="url(#p761a602fc9)" style="fill: #1f77b4; opacity: 0.65; stroke: #000000; stroke-width: 0.5; stroke-linejoin: miter"/>
   </g>
   <g id="patch_6">
    <path d="M 208.549375 364.521015 
L 363.175976 364.521015 
L 363.175976 327.231219 
L 208.549375 327.231219 
z
" clip-path="url(#p761a602fc9)" style="fill: #1f77b4; opacity: 0.65; stroke: #000000; stroke-width: 0.5; stroke-linejoin: miter"/>
   </g>
   <g id="patch_7">
    <path d="M 208.549375 317.90877 
L 363.175976 317.90877 
L 363.175976 280.618974 
L 208.549375 280.618974 
z
" clip-path="url(#p761a602fc9)" style="fill: #1f77b4; opacity: 0.65; stroke: #000000; stroke-width: 0.5; stroke-linejoin: miter"/>
   </g>
   <g id="patch_8">
    <path d="M 208.549375 271.296526 
L 414.718176 271.296526 
L 414.718176 234.00673 
L 208.549375 234.00673 
z
" clip-path="url(#p761a602fc9)" style="fill: #1f77b4; opacity: 0.65; stroke: #000000; stroke-width: 0.5; stroke-linejoin: miter"/>
   </g>
   <g id="patch_9">
    <path d="M 208.549375 224.684281 
L 414.718176 224.684281 
L 414.718176 187.394485 
L 208.549375 187.394485 
z
" clip-path="url(#p761a602fc9)" style="fill: #1f77b4; opacity: 0.65; stroke: #000000; stroke-width: 0.5; stroke-linejoin: miter"/>
   </g>
   <g id="patch_10">
    <path d="M 208.549375 178.072036 
L 517.802577 178.072036 
L 517.802577 140.78224 
L 208.549375 140.78224 
z
" clip-path="url(#p761a602fc9)" style="fill: #1f77b4; opacity: 0.65; stroke: #000000; stroke-width: 0.5; stroke-linejoin: miter"/>
   </g>
   <g id="patch_11">
    <path d="M 208.549375 131.459791 
L 569.344777 131.459791 
L 569.344777 94.169995 
L 208.549375 94.169995 
z
" clip-path="url(#p761a602fc9)" style="fill: #1f77b4; opacity: 0.65; stroke: #000000; stroke-width: 0.5; stroke-linejoin: miter"/>
   </g>
   <g id="patch_12">
    <path d="M 208.549375 84.847546 
L 955.91128 84.847546 
L 955.91128 47.55775 
L 208.549375 47.55775 
z
" clip-path="url(#p761a602fc9)" style="fill: #1f77b4; opacity: 0.65; stroke: #000000; stroke-width: 0.5; stroke-linejoin: miter"/>
   </g>
   <g id="patch_13">
    <path d="M 208.549375 527.19775 
L 208.549375 24.71775 
" style="fill: none; stroke: #ffffff; stroke-linejoin: miter; stroke-linecap: square"/>
   </g>
   <g id="patch_14">
    <path d="M 993.279375 527.19775 
L 993.279375 24.71775 
" style="fill: none; stroke: #ffffff; stroke-linejoin: miter; stroke-linecap: square"/>
   </g>
   <g id="patch_15">
    <path d="M 208.549375 527.19775 
L 993.279375 527.19775 
" style="fill: none; stroke: #ffffff; stroke-linejoin: miter; stroke-linecap: square"/>
   </g>
   <g id="patch_16">
    <path d="M 208.549375 24.71775 
L 993.279375 24.71775 
" style="fill: none; stroke: #ffffff; stroke-linejoin: miter; stroke-linecap: square"/>
   </g>
   <g id="text_19">
    <!-- 3 -->
    <g transform="translate(288.862675 488.472227) scale(0.1 -0.1)">
     <use xlink:href="#DejaVuSans-33"/>
    </g>
   </g>
   <g id="text_20">
    <!-- 3 -->
    <g transform="translate(288.862675 441.859982) scale(0.1 -0.1)">
     <use xlink:href="#DejaVuSans-33"/>
    </g>
   </g>
   <g id="text_21">
    <!-- 4 -->
    <g transform="translate(314.633776 395.247737) scale(0.1 -0.1)">
     <defs>
      <path id="DejaVuSans-34" d="M 2419 4116 
L 825 1625 
L 2419 1625 
L 2419 4116 
z
M 2253 4666 
L 3047 4666 
L 3047 1625 
L 3713 1625 
L 3713 1100 
L 3047 1100 
L 3047 0 
L 2419 0 
L 2419 1100 
L 313 1100 
L 313 1709 
L 2253 4666 
z
" transform="scale(0.015625)"/>
     </defs>
     <use xlink:href="#DejaVuSans-34"/>
    </g>
   </g>
   <g id="text_22">
    <!-- 6 -->
    <g transform="translate(366.175976 348.635492) scale(0.1 -0.1)">
     <defs>
      <path id="DejaVuSans-36" d="M 2113 2584 
Q 1688 2584 1439 2293 
Q 1191 2003 1191 1497 
Q 1191 994 1439 701 
Q 1688 409 2113 409 
Q 2538 409 2786 701 
Q 3034 994 3034 1497 
Q 3034 2003 2786 2293 
Q 2538 2584 2113 2584 
z
M 3366 4563 
L 3366 3988 
Q 3128 4100 2886 4159 
Q 2644 4219 2406 4219 
Q 1781 4219 1451 3797 
Q 1122 3375 1075 2522 
Q 1259 2794 1537 2939 
Q 1816 3084 2150 3084 
Q 2853 3084 3261 2657 
Q 3669 2231 3669 1497 
Q 3669 778 3244 343 
Q 2819 -91 2113 -91 
Q 1303 -91 875 529 
Q 447 1150 447 2328 
Q 447 3434 972 4092 
Q 1497 4750 2381 4750 
Q 2619 4750 2861 4703 
Q 3103 4656 3366 4563 
z
" transform="scale(0.015625)"/>
     </defs>
     <use xlink:href="#DejaVuSans-36"/>
    </g>
   </g>
   <g id="text_23">
    <!-- 6 -->
    <g transform="translate(366.175976 302.023247) scale(0.1 -0.1)">
     <use xlink:href="#DejaVuSans-36"/>
    </g>
   </g>
   <g id="text_24">
    <!-- 8 -->
    <g transform="translate(417.718176 255.411003) scale(0.1 -0.1)">
     <defs>
      <path id="DejaVuSans-38" d="M 2034 2216 
Q 1584 2216 1326 1975 
Q 1069 1734 1069 1313 
Q 1069 891 1326 650 
Q 1584 409 2034 409 
Q 2484 409 2743 651 
Q 3003 894 3003 1313 
Q 3003 1734 2745 1975 
Q 2488 2216 2034 2216 
z
M 1403 2484 
Q 997 2584 770 2862 
Q 544 3141 544 3541 
Q 544 4100 942 4425 
Q 1341 4750 2034 4750 
Q 2731 4750 3128 4425 
Q 3525 4100 3525 3541 
Q 3525 3141 3298 2862 
Q 3072 2584 2669 2484 
Q 3125 2378 3379 2068 
Q 3634 1759 3634 1313 
Q 3634 634 3220 271 
Q 2806 -91 2034 -91 
Q 1263 -91 848 271 
Q 434 634 434 1313 
Q 434 1759 690 2068 
Q 947 2378 1403 2484 
z
M 1172 3481 
Q 1172 3119 1398 2916 
Q 1625 2713 2034 2713 
Q 2441 2713 2670 2916 
Q 2900 3119 2900 3481 
Q 2900 3844 2670 4047 
Q 2441 4250 2034 4250 
Q 1625 4250 1398 4047 
Q 1172 3844 1172 3481 
z
" transform="scale(0.015625)"/>
     </defs>
     <use xlink:href="#DejaVuSans-38"/>
    </g>
   </g>
   <g id="text_25">
    <!-- 8 -->
    <g transform="translate(417.718176 208.798758) scale(0.1 -0.1)">
     <use xlink:href="#DejaVuSans-38"/>
    </g>
   </g>
   <g id="text_26">
    <!-- 12 -->
    <g transform="translate(520.802577 162.186513) scale(0.1 -0.1)">
     <use xlink:href="#DejaVuSans-31"/>
     <use xlink:href="#DejaVuSans-32" transform="translate(63.623047 0)"/>
    </g>
   </g>
   <g id="text_27">
    <!-- 14 -->
    <g transform="translate(572.344777 115.574268) scale(0.1 -0.1)">
     <use xlink:href="#DejaVuSans-31"/>
     <use xlink:href="#DejaVuSans-34" transform="translate(63.623047 0)"/>
    </g>
   </g>
   <g id="text_28">
    <!-- 29 -->
    <g transform="translate(958.91128 68.962023) scale(0.1 -0.1)">
     <defs>
      <path id="DejaVuSans-39" d="M 703 97 
L 703 672 
Q 941 559 1184 500 
Q 1428 441 1663 441 
Q 2288 441 2617 861 
Q 2947 1281 2994 2138 
Q 2813 1869 2534 1725 
Q 2256 1581 1919 1581 
Q 1219 1581 811 2004 
Q 403 2428 403 3163 
Q 403 3881 828 4315 
Q 1253 4750 1959 4750 
Q 2769 4750 3195 4129 
Q 3622 3509 3622 2328 
Q 3622 1225 3098 567 
Q 2575 -91 1691 -91 
Q 1453 -91 1209 -44 
Q 966 3 703 97 
z
M 1959 2075 
Q 2384 2075 2632 2365 
Q 2881 2656 2881 3163 
Q 2881 3666 2632 3958 
Q 2384 4250 1959 4250 
Q 1534 4250 1286 3958 
Q 1038 3666 1038 3163 
Q 1038 2656 1286 2365 
Q 1534 2075 1959 2075 
z
" transform="scale(0.015625)"/>
     </defs>
     <use xlink:href="#DejaVuSans-32"/>
     <use xlink:href="#DejaVuSans-39" transform="translate(63.623047 0)"/>
    </g>
   </g>
   <g id="text_29">
    <!-- Procedimientos quirúrgico -->
    <g transform="translate(506.835125 18.71775) scale(0.144 -0.144)">
     <defs>
      <path id="DejaVuSans-63" d="M 3122 3366 
L 3122 2828 
Q 2878 2963 2633 3030 
Q 2388 3097 2138 3097 
Q 1578 3097 1268 2742 
Q 959 2388 959 1747 
Q 959 1106 1268 751 
Q 1578 397 2138 397 
Q 2388 397 2633 464 
Q 2878 531 3122 666 
L 3122 134 
Q 2881 22 2623 -34 
Q 2366 -91 2075 -91 
Q 1284 -91 818 406 
Q 353 903 353 1747 
Q 353 2603 823 3093 
Q 1294 3584 2113 3584 
Q 2378 3584 2631 3529 
Q 2884 3475 3122 3366 
z
" transform="scale(0.015625)"/>
      <path id="DejaVuSans-69" d="M 603 3500 
L 1178 3500 
L 1178 0 
L 603 0 
L 603 3500 
z
M 603 4863 
L 1178 4863 
L 1178 4134 
L 603 4134 
L 603 4863 
z
" transform="scale(0.015625)"/>
      <path id="DejaVuSans-6e" d="M 3513 2113 
L 3513 0 
L 2938 0 
L 2938 2094 
Q 2938 2591 2744 2837 
Q 2550 3084 2163 3084 
Q 1697 3084 1428 2787 
Q 1159 2491 1159 1978 
L 1159 0 
L 581 0 
L 581 3500 
L 1159 3500 
L 1159 2956 
Q 1366 3272 1645 3428 
Q 1925 3584 2291 3584 
Q 2894 3584 3203 3211 
Q 3513 2838 3513 2113 
z
" transform="scale(0.015625)"/>
      <path id="DejaVuSans-74" d="M 1172 4494 
L 1172 3500 
L 2356 3500 
L 2356 3053 
L 1172 3053 
L 1172 1153 
Q 1172 725 1289 603 
Q 1406 481 1766 481 
L 2356 481 
L 2356 0 
L 1766 0 
Q 1100 0 847 248 
Q 594 497 594 1153 
L 594 3053 
L 172 3053 
L 172 3500 
L 594 3500 
L 594 4494 
L 1172 4494 
z
" transform="scale(0.015625)"/>
      <path id="DejaVuSans-71" d="M 947 1747 
Q 947 1113 1208 752 
Q 1469 391 1925 391 
Q 2381 391 2643 752 
Q 2906 1113 2906 1747 
Q 2906 2381 2643 2742 
Q 2381 3103 1925 3103 
Q 1469 3103 1208 2742 
Q 947 2381 947 1747 
z
M 2906 525 
Q 2725 213 2448 61 
Q 2172 -91 1784 -91 
Q 1150 -91 751 415 
Q 353 922 353 1747 
Q 353 2572 751 3078 
Q 1150 3584 1784 3584 
Q 2172 3584 2448 3432 
Q 2725 3281 2906 2969 
L 2906 3500 
L 3481 3500 
L 3481 -1331 
L 2906 -1331 
L 2906 525 
z
" transform="scale(0.015625)"/>
      <path id="DejaVuSans-75" d="M 544 1381 
L 544 3500 
L 1119 3500 
L 1119 1403 
Q 1119 906 1312 657 
Q 1506 409 1894 409 
Q 2359 409 2629 706 
Q 2900 1003 2900 1516 
L 2900 3500 
L 3475 3500 
L 3475 0 
L 2900 0 
L 2900 538 
Q 2691 219 2414 64 
Q 2138 -91 1772 -91 
Q 1169 -91 856 284 
Q 544 659 544 1381 
z
M 1991 3584 
L 1991 3584 
z
" transform="scale(0.015625)"/>
     </defs>
     <use xlink:href="#DejaVuSans-50"/>
     <use xlink:href="#DejaVuSans-72" transform="translate(58.552734 0)"/>
     <use xlink:href="#DejaVuSans-6f" transform="translate(97.416016 0)"/>
     <use xlink:href="#DejaVuSans-63" transform="translate(158.597656 0)"/>
     <use xlink:href="#DejaVuSans-65" transform="translate(213.578125 0)"/>
     <use xlink:href="#DejaVuSans-64" transform="translate(275.101562 0)"/>
     <use xlink:href="#DejaVuSans-69" transform="translate(338.578125 0)"/>
     <use xlink:href="#DejaVuSans-6d" transform="translate(366.361328 0)"/>
     <use xlink:href="#DejaVuSans-69" transform="translate(463.773438 0)"/>
     <use xlink:href="#DejaVuSans-65" transform="translate(491.556641 0)"/>
     <use xlink:href="#DejaVuSans-6e" transform="translate(553.080078 0)"/>
     <use xlink:href="#DejaVuSans-74" transform="translate(616.458984 0)"/>
     <use xlink:href="#DejaVuSans-6f" transform="translate(655.667969 0)"/>
     <use xlink:href="#DejaVuSans-73" transform="translate(716.849609 0)"/>
     <use xlink:href="#DejaVuSans-20" transform="translate(768.949219 0)"/>
     <use xlink:href="#DejaVuSans-71" transform="translate(800.736328 0)"/>
     <use xlink:href="#DejaVuSans-75" transform="translate(864.212891 0)"/>
     <use xlink:href="#DejaVuSans-69" transform="translate(927.591797 0)"/>
     <use xlink:href="#DejaVuSans-72" transform="translate(955.375 0)"/>
     <use xlink:href="#DejaVuSans-fa" transform="translate(996.488281 0)"/>
     <use xlink:href="#DejaVuSans-72" transform="translate(1059.867188 0)"/>
     <use xlink:href="#DejaVuSans-67" transform="translate(1099.230469 0)"/>
     <use xlink:href="#DejaVuSans-69" transform="translate(1162.707031 0)"/>
     <use xlink:href="#DejaVuSans-63" transform="translate(1190.490234 0)"/>
     <use xlink:href="#DejaVuSans-6f" transform="translate(1245.470703 0)"/>
    </g>
   </g>
  </g>
 </g>
 <defs>
  <clipPath id="p761a602fc9">
   <rect x="208.549375" y="24.71775" width="784.73" height="502.48"/>
  </clipPath>
 </defs>
</svg>
