<?xml version="1.0" encoding="utf-8" standalone="no"?>
<!DOCTYPE svg PUBLIC "-//W3C//DTD SVG 1.1//EN"
  "http://www.w3.org/Graphics/SVG/1.1/DTD/svg11.dtd">
<svg xmlns:xlink="http://www.w3.org/1999/xlink" width="1000.724063pt" height="567.169625pt" viewBox="0 0 1000.724063 567.169625" xmlns="http://www.w3.org/2000/svg" version="1.1">
 <metadata>
  <rdf:RDF xmlns:dc="http://purl.org/dc/elements/1.1/" xmlns:cc="http://creativecommons.org/ns#" xmlns:rdf="http://www.w3.org/1999/02/22-rdf-syntax-ns#">
   <cc:Work>
    <dc:type rdf:resource="http://purl.org/dc/dcmitype/StillImage"/>
    <dc:date>2026-03-06T09:18:22.070665</dc:date>
    <dc:format>image/svg+xml</dc:format>
    <dc:creator>
     <cc:Agent>
      <dc:title>Matplotlib v3.10.8, https://matplotlib.org/</dc:title>
     </cc:Agent>
    </dc:creator>
   </cc:Work>
  </rdf:RDF>
 </metadata>
 <defs>
  <style type="text/css">*{stroke-linejoin: round; stroke-linecap: butt}</style>
 </defs>
 <g id="figure_1">
  <g id="patch_1">
   <path d="M 0 567.169625 
L 1000.724063 567.169625 
L 1000.724063 0 
L 0 0 
z
" style="fill: #ffffff"/>
  </g>
  <g id="axes_1">
   <g id="patch_2">
    <path d="M 200.424062 527.19775 
L 993.524063 527.19775 
L 993.524063 24.71775 
L 200.424062 24.71775 
z
" style="fill: #e5e5e5"/>
   </g>
   <g id="matplotlib.axis_1">
    <g id="xtick_1">
     <g id="line2d_1">
      <path d="M 200.424062 527.19775 
L 200.424062 24.71775 
" clip-path="url(#pf64f856743)" style="fill: none; stroke: #ffffff; stroke-width: 0.8; stroke-linecap: square"/>
     </g>
     <g id="line2d_2">
      <defs>
       <path id="m298378cad4" d="M 0 0 
L 0 3.5 
" style="stroke: #555555; stroke-width: 0.8"/>
      </defs>
      <g>
       <use xlink:href="#m298378cad4" x="200.424062" y="527.19775" style="fill: #555555; stroke: #555555; stroke-width: 0.8"/>
      </g>
     </g>
     <g id="text_1">
      <!-- 0 -->
      <g style="fill: #555555" transform="translate(197.242812 541.796187) scale(0.1 -0.1)">
       <defs>
        <path id="DejaVuSans-30" d="M 2034 4250 
Q 1547 4250 1301 3770 
Q 1056 3291 1056 2328 
Q 1056 1369 1301 889 
Q 1547 409 2034 409 
Q 2525 409 2770 889 
Q 3016 1369 3016 2328 
Q 3016 3291 2770 3770 
Q 2525 4250 2034 4250 
z
M 2034 4750 
Q 2819 4750 3233 4129 
Q 3647 3509 3647 2328 
Q 3647 1150 3233 529 
Q 2819 -91 2034 -91 
Q 1250 -91 836 529 
Q 422 1150 422 2328 
Q 422 3509 836 4129 
Q 1250 4750 2034 4750 
z
" transform="scale(0.015625)"/>
       </defs>
       <use xlink:href="#DejaVuSans-30"/>
      </g>
     </g>
    </g>
    <g id="xtick_2">
     <g id="line2d_3">
      <path d="M 308.328824 527.19775 
L 308.328824 24.71775 
" clip-path="url(#pf64f856743)" style="fill: none; stroke: #ffffff; stroke-width: 0.8; stroke-linecap: square"/>
     </g>
     <g id="line2d_4">
      <g>
       <use xlink:href="#m298378cad4" x="308.328824" y="527.19775" style="fill: #555555; stroke: #555555; stroke-width: 0.8"/>
      </g>
     </g>
     <g id="text_2">
      <!-- 2 -->
      <g style="fill: #555555" transform="translate(305.147574 541.796187) scale(0.1 -0.1)">
       <defs>
        <path id="DejaVuSans-32" d="M 1228 531 
L 3431 531 
L 3431 0 
L 469 0 
L 469 531 
Q 828 903 1448 1529 
Q 2069 2156 2228 2338 
Q 2531 2678 2651 2914 
Q 2772 3150 2772 3378 
Q 2772 3750 2511 3984 
Q 2250 4219 1831 4219 
Q 1534 4219 1204 4116 
Q 875 4013 500 3803 
L 500 4441 
Q 881 4594 1212 4672 
Q 1544 4750 1819 4750 
Q 2544 4750 2975 4387 
Q 3406 4025 3406 3419 
Q 3406 3131 3298 2873 
Q 3191 2616 2906 2266 
Q 2828 2175 2409 1742 
Q 1991 1309 1228 531 
z
" transform="scale(0.015625)"/>
       </defs>
       <use xlink:href="#DejaVuSans-32"/>
      </g>
     </g>
    </g>
    <g id="xtick_3">
     <g id="line2d_5">
      <path d="M 416.233586 527.19775 
L 416.233586 24.71775 
" clip-path="url(#pf64f856743)" style="fill: none; stroke: #ffffff; stroke-width: 0.8; stroke-linecap: square"/>
     </g>
     <g id="line2d_6">
      <g>
       <use xlink:href="#m298378cad4" x="416.233586" y="527.19775" style="fill: #555555; stroke: #555555; stroke-width: 0.8"/>
      </g>
     </g>
     <g id="text_3">
      <!-- 4 -->
      <g style="fill: #555555" transform="translate(413.052336 541.796187) scale(0.1 -0.1)">
       <defs>
        <path id="DejaVuSans-34" d="M 2419 4116 
L 825 1625 
L 2419 1625 
L 2419 4116 
z
M 2253 4666 
L 3047 4666 
L 3047 1625 
L 3713 1625 
L 3713 1100 
L 3047 1100 
L 3047 0 
L 2419 0 
L 2419 1100 
L 313 1100 
L 313 1709 
L 2253 4666 
z
" transform="scale(0.015625)"/>
       </defs>
       <use xlink:href="#DejaVuSans-34"/>
      </g>
     </g>
    </g>
    <g id="xtick_4">
     <g id="line2d_7">
      <path d="M 524.138348 527.19775 
L 524.138348 24.71775 
" clip-path="url(#pf64f856743)" style="fill: none; stroke: #ffffff; stroke-width: 0.8; stroke-linecap: square"/>
     </g>
     <g id="line2d_8">
      <g>
       <use xlink:href="#m298378cad4" x="524.138348" y="527.19775" style="fill: #555555; stroke: #555555; stroke-width: 0.8"/>
      </g>
     </g>
     <g id="text_4">
      <!-- 6 -->
      <g style="fill: #555555" transform="translate(520.957098 541.796187) scale(0.1 -0.1)">
       <defs>
        <path id="DejaVuSans-36" d="M 2113 2584 
Q 1688 2584 1439 2293 
Q 1191 2003 1191 1497 
Q 1191 994 1439 701 
Q 1688 409 2113 409 
Q 2538 409 2786 701 
Q 3034 994 3034 1497 
Q 3034 2003 2786 2293 
Q 2538 2584 2113 2584 
z
M 3366 4563 
L 3366 3988 
Q 3128 4100 2886 4159 
Q 2644 4219 2406 4219 
Q 1781 4219 1451 3797 
Q 1122 3375 1075 2522 
Q 1259 2794 1537 2939 
Q 1816 3084 2150 3084 
Q 2853 3084 3261 2657 
Q 3669 2231 3669 1497 
Q 3669 778 3244 343 
Q 2819 -91 2113 -91 
Q 1303 -91 875 529 
Q 447 1150 447 2328 
Q 447 3434 972 4092 
Q 1497 4750 2381 4750 
Q 2619 4750 2861 4703 
Q 3103 4656 3366 4563 
z
" transform="scale(0.015625)"/>
       </defs>
       <use xlink:href="#DejaVuSans-36"/>
      </g>
     </g>
    </g>
    <g id="xtick_5">
     <g id="line2d_9">
      <path d="M 632.04311 527.19775 
L 632.04311 24.71775 
" clip-path="url(#pf64f856743)" style="fill: none; stroke: #ffffff; stroke-width: 0.8; stroke-linecap: square"/>
     </g>
     <g id="line2d_10">
      <g>
       <use xlink:href="#m298378cad4" x="632.04311" y="527.19775" style="fill: #555555; stroke: #555555; stroke-width: 0.8"/>
      </g>
     </g>
     <g id="text_5">
      <!-- 8 -->
      <g style="fill: #555555" transform="translate(628.86186 541.796187) scale(0.1 -0.1)">
       <defs>
        <path id="DejaVuSans-38" d="M 2034 2216 
Q 1584 2216 1326 1975 
Q 1069 1734 1069 1313 
Q 1069 891 1326 650 
Q 1584 409 2034 409 
Q 2484 409 2743 651 
Q 3003 894 3003 1313 
Q 3003 1734 2745 1975 
Q 2488 2216 2034 2216 
z
M 1403 2484 
Q 997 2584 770 2862 
Q 544 3141 544 3541 
Q 544 4100 942 4425 
Q 1341 4750 2034 4750 
Q 2731 4750 3128 4425 
Q 3525 4100 3525 3541 
Q 3525 3141 3298 2862 
Q 3072 2584 2669 2484 
Q 3125 2378 3379 2068 
Q 3634 1759 3634 1313 
Q 3634 634 3220 271 
Q 2806 -91 2034 -91 
Q 1263 -91 848 271 
Q 434 634 434 1313 
Q 434 1759 690 2068 
Q 947 2378 1403 2484 
z
M 1172 3481 
Q 1172 3119 1398 2916 
Q 1625 2713 2034 2713 
Q 2441 2713 2670 2916 
Q 2900 3119 2900 3481 
Q 2900 3844 2670 4047 
Q 2441 4250 2034 4250 
Q 1625 4250 1398 4047 
Q 1172 3844 1172 3481 
z
" transform="scale(0.015625)"/>
       </defs>
       <use xlink:href="#DejaVuSans-38"/>
      </g>
     </g>
    </g>
    <g id="xtick_6">
     <g id="line2d_11">
      <path d="M 739.947872 527.19775 
L 739.947872 24.71775 
" clip-path="url(#pf64f856743)" style="fill: none; stroke: #ffffff; stroke-width: 0.8; stroke-linecap: square"/>
     </g>
     <g id="line2d_12">
      <g>
       <use xlink:href="#m298378cad4" x="739.947872" y="527.19775" style="fill: #555555; stroke: #555555; stroke-width: 0.8"/>
      </g>
     </g>
     <g id="text_6">
      <!-- 10 -->
      <g style="fill: #555555" transform="translate(733.585372 541.796187) scale(0.1 -0.1)">
       <defs>
        <path id="DejaVuSans-31" d="M 794 531 
L 1825 531 
L 1825 4091 
L 703 3866 
L 703 4441 
L 1819 4666 
L 2450 4666 
L 2450 531 
L 3481 531 
L 3481 0 
L 794 0 
L 794 531 
z
" transform="scale(0.015625)"/>
       </defs>
       <use xlink:href="#DejaVuSans-31"/>
       <use xlink:href="#DejaVuSans-30" transform="translate(63.623047 0)"/>
      </g>
     </g>
    </g>
    <g id="xtick_7">
     <g id="line2d_13">
      <path d="M 847.852634 527.19775 
L 847.852634 24.71775 
" clip-path="url(#pf64f856743)" style="fill: none; stroke: #ffffff; stroke-width: 0.8; stroke-linecap: square"/>
     </g>
     <g id="line2d_14">
      <g>
       <use xlink:href="#m298378cad4" x="847.852634" y="527.19775" style="fill: #555555; stroke: #555555; stroke-width: 0.8"/>
      </g>
     </g>
     <g id="text_7">
      <!-- 12 -->
      <g style="fill: #555555" transform="translate(841.490134 541.796187) scale(0.1 -0.1)">
       <use xlink:href="#DejaVuSans-31"/>
       <use xlink:href="#DejaVuSans-32" transform="translate(63.623047 0)"/>
      </g>
     </g>
    </g>
    <g id="xtick_8">
     <g id="line2d_15">
      <path d="M 955.757396 527.19775 
L 955.757396 24.71775 
" clip-path="url(#pf64f856743)" style="fill: none; stroke: #ffffff; stroke-width: 0.8; stroke-linecap: square"/>
     </g>
     <g id="line2d_16">
      <g>
       <use xlink:href="#m298378cad4" x="955.757396" y="527.19775" style="fill: #555555; stroke: #555555; stroke-width: 0.8"/>
      </g>
     </g>
     <g id="text_8">
      <!-- 14 -->
      <g style="fill: #555555" transform="translate(949.394896 541.796187) scale(0.1 -0.1)">
       <use xlink:href="#DejaVuSans-31"/>
       <use xlink:href="#DejaVuSans-34" transform="translate(63.623047 0)"/>
      </g>
     </g>
    </g>
    <g id="text_9">
     <!-- Número de egresos -->
     <g style="fill: #555555" transform="translate(538.382188 557.474) scale(0.12 -0.12)">
      <defs>
       <path id="DejaVuSans-4e" d="M 628 4666 
L 1478 4666 
L 3547 763 
L 3547 4666 
L 4159 4666 
L 4159 0 
L 3309 0 
L 1241 3903 
L 1241 0 
L 628 0 
L 628 4666 
z
" transform="scale(0.015625)"/>
       <path id="DejaVuSans-fa" d="M 544 1381 
L 544 3500 
L 1119 3500 
L 1119 1403 
Q 1119 906 1312 657 
Q 1506 409 1894 409 
Q 2359 409 2629 706 
Q 2900 1003 2900 1516 
L 2900 3500 
L 3475 3500 
L 3475 0 
L 2900 0 
L 2900 538 
Q 2691 219 2414 64 
Q 2138 -91 1772 -91 
Q 1169 -91 856 284 
Q 544 659 544 1381 
z
M 1991 3584 
L 1991 3584 
z
M 2418 5119 
L 3040 5119 
L 2022 3944 
L 1543 3944 
L 2418 5119 
z
" transform="scale(0.015625)"/>
       <path id="DejaVuSans-6d" d="M 3328 2828 
Q 3544 3216 3844 3400 
Q 4144 3584 4550 3584 
Q 5097 3584 5394 3201 
Q 5691 2819 5691 2113 
L 5691 0 
L 5113 0 
L 5113 2094 
Q 5113 2597 4934 2840 
Q 4756 3084 4391 3084 
Q 3944 3084 3684 2787 
Q 3425 2491 3425 1978 
L 3425 0 
L 2847 0 
L 2847 2094 
Q 2847 2600 2669 2842 
Q 2491 3084 2119 3084 
Q 1678 3084 1418 2786 
Q 1159 2488 1159 1978 
L 1159 0 
L 581 0 
L 581 3500 
L 1159 3500 
L 1159 2956 
Q 1356 3278 1631 3431 
Q 1906 3584 2284 3584 
Q 2666 3584 2933 3390 
Q 3200 3197 3328 2828 
z
" transform="scale(0.015625)"/>
       <path id="DejaVuSans-65" d="M 3597 1894 
L 3597 1613 
L 953 1613 
Q 991 1019 1311 708 
Q 1631 397 2203 397 
Q 2534 397 2845 478 
Q 3156 559 3463 722 
L 3463 178 
Q 3153 47 2828 -22 
Q 2503 -91 2169 -91 
Q 1331 -91 842 396 
Q 353 884 353 1716 
Q 353 2575 817 3079 
Q 1281 3584 2069 3584 
Q 2775 3584 3186 3129 
Q 3597 2675 3597 1894 
z
M 3022 2063 
Q 3016 2534 2758 2815 
Q 2500 3097 2075 3097 
Q 1594 3097 1305 2825 
Q 1016 2553 972 2059 
L 3022 2063 
z
" transform="scale(0.015625)"/>
       <path id="DejaVuSans-72" d="M 2631 2963 
Q 2534 3019 2420 3045 
Q 2306 3072 2169 3072 
Q 1681 3072 1420 2755 
Q 1159 2438 1159 1844 
L 1159 0 
L 581 0 
L 581 3500 
L 1159 3500 
L 1159 2956 
Q 1341 3275 1631 3429 
Q 1922 3584 2338 3584 
Q 2397 3584 2469 3576 
Q 2541 3569 2628 3553 
L 2631 2963 
z
" transform="scale(0.015625)"/>
       <path id="DejaVuSans-6f" d="M 1959 3097 
Q 1497 3097 1228 2736 
Q 959 2375 959 1747 
Q 959 1119 1226 758 
Q 1494 397 1959 397 
Q 2419 397 2687 759 
Q 2956 1122 2956 1747 
Q 2956 2369 2687 2733 
Q 2419 3097 1959 3097 
z
M 1959 3584 
Q 2709 3584 3137 3096 
Q 3566 2609 3566 1747 
Q 3566 888 3137 398 
Q 2709 -91 1959 -91 
Q 1206 -91 779 398 
Q 353 888 353 1747 
Q 353 2609 779 3096 
Q 1206 3584 1959 3584 
z
" transform="scale(0.015625)"/>
       <path id="DejaVuSans-20" transform="scale(0.015625)"/>
       <path id="DejaVuSans-64" d="M 2906 2969 
L 2906 4863 
L 3481 4863 
L 3481 0 
L 2906 0 
L 2906 525 
Q 2725 213 2448 61 
Q 2172 -91 1784 -91 
Q 1150 -91 751 415 
Q 353 922 353 1747 
Q 353 2572 751 3078 
Q 1150 3584 1784 3584 
Q 2172 3584 2448 3432 
Q 2725 3281 2906 2969 
z
M 947 1747 
Q 947 1113 1208 752 
Q 1469 391 1925 391 
Q 2381 391 2643 752 
Q 2906 1113 2906 1747 
Q 2906 2381 2643 2742 
Q 2381 3103 1925 3103 
Q 1469 3103 1208 2742 
Q 947 2381 947 1747 
z
" transform="scale(0.015625)"/>
       <path id="DejaVuSans-67" d="M 2906 1791 
Q 2906 2416 2648 2759 
Q 2391 3103 1925 3103 
Q 1463 3103 1205 2759 
Q 947 2416 947 1791 
Q 947 1169 1205 825 
Q 1463 481 1925 481 
Q 2391 481 2648 825 
Q 2906 1169 2906 1791 
z
M 3481 434 
Q 3481 -459 3084 -895 
Q 2688 -1331 1869 -1331 
Q 1566 -1331 1297 -1286 
Q 1028 -1241 775 -1147 
L 775 -588 
Q 1028 -725 1275 -790 
Q 1522 -856 1778 -856 
Q 2344 -856 2625 -561 
Q 2906 -266 2906 331 
L 2906 616 
Q 2728 306 2450 153 
Q 2172 0 1784 0 
Q 1141 0 747 490 
Q 353 981 353 1791 
Q 353 2603 747 3093 
Q 1141 3584 1784 3584 
Q 2172 3584 2450 3431 
Q 2728 3278 2906 2969 
L 2906 3500 
L 3481 3500 
L 3481 434 
z
" transform="scale(0.015625)"/>
       <path id="DejaVuSans-73" d="M 2834 3397 
L 2834 2853 
Q 2591 2978 2328 3040 
Q 2066 3103 1784 3103 
Q 1356 3103 1142 2972 
Q 928 2841 928 2578 
Q 928 2378 1081 2264 
Q 1234 2150 1697 2047 
L 1894 2003 
Q 2506 1872 2764 1633 
Q 3022 1394 3022 966 
Q 3022 478 2636 193 
Q 2250 -91 1575 -91 
Q 1294 -91 989 -36 
Q 684 19 347 128 
L 347 722 
Q 666 556 975 473 
Q 1284 391 1588 391 
Q 1994 391 2212 530 
Q 2431 669 2431 922 
Q 2431 1156 2273 1281 
Q 2116 1406 1581 1522 
L 1381 1569 
Q 847 1681 609 1914 
Q 372 2147 372 2553 
Q 372 3047 722 3315 
Q 1072 3584 1716 3584 
Q 2034 3584 2315 3537 
Q 2597 3491 2834 3397 
z
" transform="scale(0.015625)"/>
      </defs>
      <use xlink:href="#DejaVuSans-4e"/>
      <use xlink:href="#DejaVuSans-fa" transform="translate(74.804688 0)"/>
      <use xlink:href="#DejaVuSans-6d" transform="translate(138.183594 0)"/>
      <use xlink:href="#DejaVuSans-65" transform="translate(235.595703 0)"/>
      <use xlink:href="#DejaVuSans-72" transform="translate(297.119141 0)"/>
      <use xlink:href="#DejaVuSans-6f" transform="translate(335.982422 0)"/>
      <use xlink:href="#DejaVuSans-20" transform="translate(397.164062 0)"/>
      <use xlink:href="#DejaVuSans-64" transform="translate(428.951172 0)"/>
      <use xlink:href="#DejaVuSans-65" transform="translate(492.427734 0)"/>
      <use xlink:href="#DejaVuSans-20" transform="translate(553.951172 0)"/>
      <use xlink:href="#DejaVuSans-65" transform="translate(585.738281 0)"/>
      <use xlink:href="#DejaVuSans-67" transform="translate(647.261719 0)"/>
      <use xlink:href="#DejaVuSans-72" transform="translate(710.738281 0)"/>
      <use xlink:href="#DejaVuSans-65" transform="translate(749.601562 0)"/>
      <use xlink:href="#DejaVuSans-73" transform="translate(811.125 0)"/>
      <use xlink:href="#DejaVuSans-6f" transform="translate(863.224609 0)"/>
      <use xlink:href="#DejaVuSans-73" transform="translate(924.40625 0)"/>
     </g>
    </g>
   </g>
   <g id="matplotlib.axis_2">
    <g id="ytick_1">
     <g id="line2d_17">
      <path d="M 200.424062 477.487162 
L 993.524063 477.487162 
" clip-path="url(#pf64f856743)" style="fill: none; stroke: #ffffff; stroke-width: 0.8; stroke-linecap: square"/>
     </g>
     <g id="line2d_18">
      <defs>
       <path id="m38b9b5cbc4" d="M 0 0 
L -3.5 0 
" style="stroke: #555555; stroke-width: 0.8"/>
      </defs>
      <g>
       <use xlink:href="#m38b9b5cbc4" x="200.424062" y="477.487162" style="fill: #555555; stroke: #555555; stroke-width: 0.8"/>
      </g>
     </g>
     <g id="text_10">
      <!-- EXCISIÓN DE OTRA LESIÓN DE TEJIDO -->
      <g style="fill: #555555" transform="translate(23.535 477.260052) scale(0.09 -0.09)">
       <defs>
        <path id="DejaVuSans-45" d="M 628 4666 
L 3578 4666 
L 3578 4134 
L 1259 4134 
L 1259 2753 
L 3481 2753 
L 3481 2222 
L 1259 2222 
L 1259 531 
L 3634 531 
L 3634 0 
L 628 0 
L 628 4666 
z
" transform="scale(0.015625)"/>
        <path id="DejaVuSans-58" d="M 403 4666 
L 1081 4666 
L 2241 2931 
L 3406 4666 
L 4084 4666 
L 2584 2425 
L 4184 0 
L 3506 0 
L 2194 1984 
L 872 0 
L 191 0 
L 1856 2491 
L 403 4666 
z
" transform="scale(0.015625)"/>
        <path id="DejaVuSans-43" d="M 4122 4306 
L 4122 3641 
Q 3803 3938 3442 4084 
Q 3081 4231 2675 4231 
Q 1875 4231 1450 3742 
Q 1025 3253 1025 2328 
Q 1025 1406 1450 917 
Q 1875 428 2675 428 
Q 3081 428 3442 575 
Q 3803 722 4122 1019 
L 4122 359 
Q 3791 134 3420 21 
Q 3050 -91 2638 -91 
Q 1578 -91 968 557 
Q 359 1206 359 2328 
Q 359 3453 968 4101 
Q 1578 4750 2638 4750 
Q 3056 4750 3426 4639 
Q 3797 4528 4122 4306 
z
" transform="scale(0.015625)"/>
        <path id="DejaVuSans-49" d="M 628 4666 
L 1259 4666 
L 1259 0 
L 628 0 
L 628 4666 
z
" transform="scale(0.015625)"/>
        <path id="DejaVuSans-53" d="M 3425 4513 
L 3425 3897 
Q 3066 4069 2747 4153 
Q 2428 4238 2131 4238 
Q 1616 4238 1336 4038 
Q 1056 3838 1056 3469 
Q 1056 3159 1242 3001 
Q 1428 2844 1947 2747 
L 2328 2669 
Q 3034 2534 3370 2195 
Q 3706 1856 3706 1288 
Q 3706 609 3251 259 
Q 2797 -91 1919 -91 
Q 1588 -91 1214 -16 
Q 841 59 441 206 
L 441 856 
Q 825 641 1194 531 
Q 1563 422 1919 422 
Q 2459 422 2753 634 
Q 3047 847 3047 1241 
Q 3047 1584 2836 1778 
Q 2625 1972 2144 2069 
L 1759 2144 
Q 1053 2284 737 2584 
Q 422 2884 422 3419 
Q 422 4038 858 4394 
Q 1294 4750 2059 4750 
Q 2388 4750 2728 4690 
Q 3069 4631 3425 4513 
z
" transform="scale(0.015625)"/>
        <path id="DejaVuSans-d3" d="M 2522 4238 
Q 1834 4238 1429 3725 
Q 1025 3213 1025 2328 
Q 1025 1447 1429 934 
Q 1834 422 2522 422 
Q 3209 422 3611 934 
Q 4013 1447 4013 2328 
Q 4013 3213 3611 3725 
Q 3209 4238 2522 4238 
z
M 2522 4750 
Q 3503 4750 4090 4092 
Q 4678 3434 4678 2328 
Q 4678 1225 4090 567 
Q 3503 -91 2522 -91 
Q 1538 -91 948 565 
Q 359 1222 359 2328 
Q 359 3434 948 4092 
Q 1538 4750 2522 4750 
z
M 2692 5921 
L 3270 5921 
L 2558 5096 
L 2079 5096 
L 2692 5921 
z
" transform="scale(0.015625)"/>
        <path id="DejaVuSans-44" d="M 1259 4147 
L 1259 519 
L 2022 519 
Q 2988 519 3436 956 
Q 3884 1394 3884 2338 
Q 3884 3275 3436 3711 
Q 2988 4147 2022 4147 
L 1259 4147 
z
M 628 4666 
L 1925 4666 
Q 3281 4666 3915 4102 
Q 4550 3538 4550 2338 
Q 4550 1131 3912 565 
Q 3275 0 1925 0 
L 628 0 
L 628 4666 
z
" transform="scale(0.015625)"/>
        <path id="DejaVuSans-4f" d="M 2522 4238 
Q 1834 4238 1429 3725 
Q 1025 3213 1025 2328 
Q 1025 1447 1429 934 
Q 1834 422 2522 422 
Q 3209 422 3611 934 
Q 4013 1447 4013 2328 
Q 4013 3213 3611 3725 
Q 3209 4238 2522 4238 
z
M 2522 4750 
Q 3503 4750 4090 4092 
Q 4678 3434 4678 2328 
Q 4678 1225 4090 567 
Q 3503 -91 2522 -91 
Q 1538 -91 948 565 
Q 359 1222 359 2328 
Q 359 3434 948 4092 
Q 1538 4750 2522 4750 
z
" transform="scale(0.015625)"/>
        <path id="DejaVuSans-54" d="M -19 4666 
L 3928 4666 
L 3928 4134 
L 2272 4134 
L 2272 0 
L 1638 0 
L 1638 4134 
L -19 4134 
L -19 4666 
z
" transform="scale(0.015625)"/>
        <path id="DejaVuSans-52" d="M 2841 2188 
Q 3044 2119 3236 1894 
Q 3428 1669 3622 1275 
L 4263 0 
L 3584 0 
L 2988 1197 
Q 2756 1666 2539 1819 
Q 2322 1972 1947 1972 
L 1259 1972 
L 1259 0 
L 628 0 
L 628 4666 
L 2053 4666 
Q 2853 4666 3247 4331 
Q 3641 3997 3641 3322 
Q 3641 2881 3436 2590 
Q 3231 2300 2841 2188 
z
M 1259 4147 
L 1259 2491 
L 2053 2491 
Q 2509 2491 2742 2702 
Q 2975 2913 2975 3322 
Q 2975 3731 2742 3939 
Q 2509 4147 2053 4147 
L 1259 4147 
z
" transform="scale(0.015625)"/>
        <path id="DejaVuSans-41" d="M 2188 4044 
L 1331 1722 
L 3047 1722 
L 2188 4044 
z
M 1831 4666 
L 2547 4666 
L 4325 0 
L 3669 0 
L 3244 1197 
L 1141 1197 
L 716 0 
L 50 0 
L 1831 4666 
z
" transform="scale(0.015625)"/>
        <path id="DejaVuSans-4c" d="M 628 4666 
L 1259 4666 
L 1259 531 
L 3531 531 
L 3531 0 
L 628 0 
L 628 4666 
z
" transform="scale(0.015625)"/>
        <path id="DejaVuSans-4a" d="M 628 4666 
L 1259 4666 
L 1259 325 
Q 1259 -519 939 -900 
Q 619 -1281 -91 -1281 
L -331 -1281 
L -331 -750 
L -134 -750 
Q 284 -750 456 -515 
Q 628 -281 628 325 
L 628 4666 
z
" transform="scale(0.015625)"/>
       </defs>
       <use xlink:href="#DejaVuSans-45"/>
       <use xlink:href="#DejaVuSans-58" transform="translate(63.183594 0)"/>
       <use xlink:href="#DejaVuSans-43" transform="translate(124.439453 0)"/>
       <use xlink:href="#DejaVuSans-49" transform="translate(194.263672 0)"/>
       <use xlink:href="#DejaVuSans-53" transform="translate(223.755859 0)"/>
       <use xlink:href="#DejaVuSans-49" transform="translate(287.232422 0)"/>
       <use xlink:href="#DejaVuSans-d3" transform="translate(316.724609 0)"/>
       <use xlink:href="#DejaVuSans-4e" transform="translate(395.435547 0)"/>
       <use xlink:href="#DejaVuSans-20" transform="translate(470.240234 0)"/>
       <use xlink:href="#DejaVuSans-44" transform="translate(502.027344 0)"/>
       <use xlink:href="#DejaVuSans-45" transform="translate(579.029297 0)"/>
       <use xlink:href="#DejaVuSans-20" transform="translate(642.212891 0)"/>
       <use xlink:href="#DejaVuSans-4f" transform="translate(674 0)"/>
       <use xlink:href="#DejaVuSans-54" transform="translate(752.710938 0)"/>
       <use xlink:href="#DejaVuSans-52" transform="translate(813.794922 0)"/>
       <use xlink:href="#DejaVuSans-41" transform="translate(879.277344 0)"/>
       <use xlink:href="#DejaVuSans-20" transform="translate(947.685547 0)"/>
       <use xlink:href="#DejaVuSans-4c" transform="translate(979.472656 0)"/>
       <use xlink:href="#DejaVuSans-45" transform="translate(1035.185547 0)"/>
       <use xlink:href="#DejaVuSans-53" transform="translate(1098.369141 0)"/>
       <use xlink:href="#DejaVuSans-49" transform="translate(1161.845703 0)"/>
       <use xlink:href="#DejaVuSans-d3" transform="translate(1191.337891 0)"/>
       <use xlink:href="#DejaVuSans-4e" transform="translate(1270.048828 0)"/>
       <use xlink:href="#DejaVuSans-20" transform="translate(1344.853516 0)"/>
       <use xlink:href="#DejaVuSans-44" transform="translate(1376.640625 0)"/>
       <use xlink:href="#DejaVuSans-45" transform="translate(1453.642578 0)"/>
       <use xlink:href="#DejaVuSans-20" transform="translate(1516.826172 0)"/>
       <use xlink:href="#DejaVuSans-54" transform="translate(1548.613281 0)"/>
       <use xlink:href="#DejaVuSans-45" transform="translate(1609.697266 0)"/>
       <use xlink:href="#DejaVuSans-4a" transform="translate(1672.880859 0)"/>
       <use xlink:href="#DejaVuSans-49" transform="translate(1702.373047 0)"/>
       <use xlink:href="#DejaVuSans-44" transform="translate(1731.865234 0)"/>
       <use xlink:href="#DejaVuSans-4f" transform="translate(1808.867188 0)"/>
      </g>
      <!-- DE MANO -->
      <g style="fill: #555555" transform="translate(150.207187 487.338084) scale(0.09 -0.09)">
       <defs>
        <path id="DejaVuSans-4d" d="M 628 4666 
L 1569 4666 
L 2759 1491 
L 3956 4666 
L 4897 4666 
L 4897 0 
L 4281 0 
L 4281 4097 
L 3078 897 
L 2444 897 
L 1241 4097 
L 1241 0 
L 628 0 
L 628 4666 
z
" transform="scale(0.015625)"/>
       </defs>
       <use xlink:href="#DejaVuSans-44"/>
       <use xlink:href="#DejaVuSans-45" transform="translate(77.001953 0)"/>
       <use xlink:href="#DejaVuSans-20" transform="translate(140.185547 0)"/>
       <use xlink:href="#DejaVuSans-4d" transform="translate(171.972656 0)"/>
       <use xlink:href="#DejaVuSans-41" transform="translate(258.251953 0)"/>
       <use xlink:href="#DejaVuSans-4e" transform="translate(326.660156 0)"/>
       <use xlink:href="#DejaVuSans-4f" transform="translate(401.464844 0)"/>
      </g>
     </g>
    </g>
    <g id="ytick_2">
     <g id="line2d_19">
      <path d="M 200.424062 410.310691 
L 993.524063 410.310691 
" clip-path="url(#pf64f856743)" style="fill: none; stroke: #ffffff; stroke-width: 0.8; stroke-linecap: square"/>
     </g>
     <g id="line2d_20">
      <g>
       <use xlink:href="#m38b9b5cbc4" x="200.424062" y="410.310691" style="fill: #555555; stroke: #555555; stroke-width: 0.8"/>
      </g>
     </g>
     <g id="text_11">
      <!-- EPISIOTOMÍA -->
      <g style="fill: #555555" transform="translate(135.043594 413.729988) scale(0.09 -0.09)">
       <defs>
        <path id="DejaVuSans-50" d="M 1259 4147 
L 1259 2394 
L 2053 2394 
Q 2494 2394 2734 2622 
Q 2975 2850 2975 3272 
Q 2975 3691 2734 3919 
Q 2494 4147 2053 4147 
L 1259 4147 
z
M 628 4666 
L 2053 4666 
Q 2838 4666 3239 4311 
Q 3641 3956 3641 3272 
Q 3641 2581 3239 2228 
Q 2838 1875 2053 1875 
L 1259 1875 
L 1259 0 
L 628 0 
L 628 4666 
z
" transform="scale(0.015625)"/>
        <path id="DejaVuSans-cd" d="M 628 4666 
L 1259 4666 
L 1259 0 
L 628 0 
L 628 4666 
z
M 1116 5921 
L 1694 5921 
L 982 5096 
L 503 5096 
L 1116 5921 
z
" transform="scale(0.015625)"/>
       </defs>
       <use xlink:href="#DejaVuSans-45"/>
       <use xlink:href="#DejaVuSans-50" transform="translate(63.183594 0)"/>
       <use xlink:href="#DejaVuSans-49" transform="translate(123.486328 0)"/>
       <use xlink:href="#DejaVuSans-53" transform="translate(152.978516 0)"/>
       <use xlink:href="#DejaVuSans-49" transform="translate(216.455078 0)"/>
       <use xlink:href="#DejaVuSans-4f" transform="translate(245.947266 0)"/>
       <use xlink:href="#DejaVuSans-54" transform="translate(324.658203 0)"/>
       <use xlink:href="#DejaVuSans-4f" transform="translate(385.742188 0)"/>
       <use xlink:href="#DejaVuSans-4d" transform="translate(464.453125 0)"/>
       <use xlink:href="#DejaVuSans-cd" transform="translate(550.732422 0)"/>
       <use xlink:href="#DejaVuSans-41" transform="translate(580.224609 0)"/>
      </g>
     </g>
    </g>
    <g id="ytick_3">
     <g id="line2d_21">
      <path d="M 200.424062 343.134221 
L 993.524063 343.134221 
" clip-path="url(#pf64f856743)" style="fill: none; stroke: #ffffff; stroke-width: 0.8; stroke-linecap: square"/>
     </g>
     <g id="line2d_22">
      <g>
       <use xlink:href="#m38b9b5cbc4" x="200.424062" y="343.134221" style="fill: #555555; stroke: #555555; stroke-width: 0.8"/>
      </g>
     </g>
     <g id="text_12">
      <!-- EXCISIÓN DE LESIÓN DE OTRO TEJIDO -->
      <g style="fill: #555555" transform="translate(22.246875 342.907111) scale(0.09 -0.09)">
       <use xlink:href="#DejaVuSans-45"/>
       <use xlink:href="#DejaVuSans-58" transform="translate(63.183594 0)"/>
       <use xlink:href="#DejaVuSans-43" transform="translate(124.439453 0)"/>
       <use xlink:href="#DejaVuSans-49" transform="translate(194.263672 0)"/>
       <use xlink:href="#DejaVuSans-53" transform="translate(223.755859 0)"/>
       <use xlink:href="#DejaVuSans-49" transform="translate(287.232422 0)"/>
       <use xlink:href="#DejaVuSans-d3" transform="translate(316.724609 0)"/>
       <use xlink:href="#DejaVuSans-4e" transform="translate(395.435547 0)"/>
       <use xlink:href="#DejaVuSans-20" transform="translate(470.240234 0)"/>
       <use xlink:href="#DejaVuSans-44" transform="translate(502.027344 0)"/>
       <use xlink:href="#DejaVuSans-45" transform="translate(579.029297 0)"/>
       <use xlink:href="#DejaVuSans-20" transform="translate(642.212891 0)"/>
       <use xlink:href="#DejaVuSans-4c" transform="translate(674 0)"/>
       <use xlink:href="#DejaVuSans-45" transform="translate(729.712891 0)"/>
       <use xlink:href="#DejaVuSans-53" transform="translate(792.896484 0)"/>
       <use xlink:href="#DejaVuSans-49" transform="translate(856.373047 0)"/>
       <use xlink:href="#DejaVuSans-d3" transform="translate(885.865234 0)"/>
       <use xlink:href="#DejaVuSans-4e" transform="translate(964.576172 0)"/>
       <use xlink:href="#DejaVuSans-20" transform="translate(1039.380859 0)"/>
       <use xlink:href="#DejaVuSans-44" transform="translate(1071.167969 0)"/>
       <use xlink:href="#DejaVuSans-45" transform="translate(1148.169922 0)"/>
       <use xlink:href="#DejaVuSans-20" transform="translate(1211.353516 0)"/>
       <use xlink:href="#DejaVuSans-4f" transform="translate(1243.140625 0)"/>
       <use xlink:href="#DejaVuSans-54" transform="translate(1321.851562 0)"/>
       <use xlink:href="#DejaVuSans-52" transform="translate(1382.935547 0)"/>
       <use xlink:href="#DejaVuSans-4f" transform="translate(1452.417969 0)"/>
       <use xlink:href="#DejaVuSans-20" transform="translate(1531.128906 0)"/>
       <use xlink:href="#DejaVuSans-54" transform="translate(1562.916016 0)"/>
       <use xlink:href="#DejaVuSans-45" transform="translate(1624 0)"/>
       <use xlink:href="#DejaVuSans-4a" transform="translate(1687.183594 0)"/>
       <use xlink:href="#DejaVuSans-49" transform="translate(1716.675781 0)"/>
       <use xlink:href="#DejaVuSans-44" transform="translate(1746.167969 0)"/>
       <use xlink:href="#DejaVuSans-4f" transform="translate(1823.169922 0)"/>
      </g>
      <!-- BLANDO -->
      <g style="fill: #555555" transform="translate(155.127656 352.985142) scale(0.09 -0.09)">
       <defs>
        <path id="DejaVuSans-42" d="M 1259 2228 
L 1259 519 
L 2272 519 
Q 2781 519 3026 730 
Q 3272 941 3272 1375 
Q 3272 1813 3026 2020 
Q 2781 2228 2272 2228 
L 1259 2228 
z
M 1259 4147 
L 1259 2741 
L 2194 2741 
Q 2656 2741 2882 2914 
Q 3109 3088 3109 3444 
Q 3109 3797 2882 3972 
Q 2656 4147 2194 4147 
L 1259 4147 
z
M 628 4666 
L 2241 4666 
Q 2963 4666 3353 4366 
Q 3744 4066 3744 3513 
Q 3744 3084 3544 2831 
Q 3344 2578 2956 2516 
Q 3422 2416 3680 2098 
Q 3938 1781 3938 1306 
Q 3938 681 3513 340 
Q 3088 0 2303 0 
L 628 0 
L 628 4666 
z
" transform="scale(0.015625)"/>
       </defs>
       <use xlink:href="#DejaVuSans-42"/>
       <use xlink:href="#DejaVuSans-4c" transform="translate(68.603516 0)"/>
       <use xlink:href="#DejaVuSans-41" transform="translate(126.566406 0)"/>
       <use xlink:href="#DejaVuSans-4e" transform="translate(194.974609 0)"/>
       <use xlink:href="#DejaVuSans-44" transform="translate(269.779297 0)"/>
       <use xlink:href="#DejaVuSans-4f" transform="translate(346.78125 0)"/>
      </g>
     </g>
    </g>
    <g id="ytick_4">
     <g id="line2d_23">
      <path d="M 200.424062 275.95775 
L 993.524063 275.95775 
" clip-path="url(#pf64f856743)" style="fill: none; stroke: #ffffff; stroke-width: 0.8; stroke-linecap: square"/>
     </g>
     <g id="line2d_24">
      <g>
       <use xlink:href="#m38b9b5cbc4" x="200.424062" y="275.95775" style="fill: #555555; stroke: #555555; stroke-width: 0.8"/>
      </g>
     </g>
     <g id="text_13">
      <!-- OTRA HERNIORRAFIA UMBILICAL ABIERTA -->
      <g style="fill: #555555" transform="translate(7.2 279.377047) scale(0.09 -0.09)">
       <defs>
        <path id="DejaVuSans-48" d="M 628 4666 
L 1259 4666 
L 1259 2753 
L 3553 2753 
L 3553 4666 
L 4184 4666 
L 4184 0 
L 3553 0 
L 3553 2222 
L 1259 2222 
L 1259 0 
L 628 0 
L 628 4666 
z
" transform="scale(0.015625)"/>
        <path id="DejaVuSans-46" d="M 628 4666 
L 3309 4666 
L 3309 4134 
L 1259 4134 
L 1259 2759 
L 3109 2759 
L 3109 2228 
L 1259 2228 
L 1259 0 
L 628 0 
L 628 4666 
z
" transform="scale(0.015625)"/>
        <path id="DejaVuSans-55" d="M 556 4666 
L 1191 4666 
L 1191 1831 
Q 1191 1081 1462 751 
Q 1734 422 2344 422 
Q 2950 422 3222 751 
Q 3494 1081 3494 1831 
L 3494 4666 
L 4128 4666 
L 4128 1753 
Q 4128 841 3676 375 
Q 3225 -91 2344 -91 
Q 1459 -91 1007 375 
Q 556 841 556 1753 
L 556 4666 
z
" transform="scale(0.015625)"/>
       </defs>
       <use xlink:href="#DejaVuSans-4f"/>
       <use xlink:href="#DejaVuSans-54" transform="translate(78.710938 0)"/>
       <use xlink:href="#DejaVuSans-52" transform="translate(139.794922 0)"/>
       <use xlink:href="#DejaVuSans-41" transform="translate(205.277344 0)"/>
       <use xlink:href="#DejaVuSans-20" transform="translate(273.685547 0)"/>
       <use xlink:href="#DejaVuSans-48" transform="translate(305.472656 0)"/>
       <use xlink:href="#DejaVuSans-45" transform="translate(380.667969 0)"/>
       <use xlink:href="#DejaVuSans-52" transform="translate(443.851562 0)"/>
       <use xlink:href="#DejaVuSans-4e" transform="translate(513.333984 0)"/>
       <use xlink:href="#DejaVuSans-49" transform="translate(588.138672 0)"/>
       <use xlink:href="#DejaVuSans-4f" transform="translate(617.630859 0)"/>
       <use xlink:href="#DejaVuSans-52" transform="translate(696.341797 0)"/>
       <use xlink:href="#DejaVuSans-52" transform="translate(765.824219 0)"/>
       <use xlink:href="#DejaVuSans-41" transform="translate(831.306641 0)"/>
       <use xlink:href="#DejaVuSans-46" transform="translate(899.714844 0)"/>
       <use xlink:href="#DejaVuSans-49" transform="translate(957.234375 0)"/>
       <use xlink:href="#DejaVuSans-41" transform="translate(986.726562 0)"/>
       <use xlink:href="#DejaVuSans-20" transform="translate(1055.134766 0)"/>
       <use xlink:href="#DejaVuSans-55" transform="translate(1086.921875 0)"/>
       <use xlink:href="#DejaVuSans-4d" transform="translate(1160.115234 0)"/>
       <use xlink:href="#DejaVuSans-42" transform="translate(1246.394531 0)"/>
       <use xlink:href="#DejaVuSans-49" transform="translate(1314.998047 0)"/>
       <use xlink:href="#DejaVuSans-4c" transform="translate(1344.490234 0)"/>
       <use xlink:href="#DejaVuSans-49" transform="translate(1400.203125 0)"/>
       <use xlink:href="#DejaVuSans-43" transform="translate(1429.695312 0)"/>
       <use xlink:href="#DejaVuSans-41" transform="translate(1499.519531 0)"/>
       <use xlink:href="#DejaVuSans-4c" transform="translate(1567.927734 0)"/>
       <use xlink:href="#DejaVuSans-20" transform="translate(1623.640625 0)"/>
       <use xlink:href="#DejaVuSans-41" transform="translate(1655.427734 0)"/>
       <use xlink:href="#DejaVuSans-42" transform="translate(1723.835938 0)"/>
       <use xlink:href="#DejaVuSans-49" transform="translate(1792.439453 0)"/>
       <use xlink:href="#DejaVuSans-45" transform="translate(1821.931641 0)"/>
       <use xlink:href="#DejaVuSans-52" transform="translate(1885.115234 0)"/>
       <use xlink:href="#DejaVuSans-54" transform="translate(1947.347656 0)"/>
       <use xlink:href="#DejaVuSans-41" transform="translate(2000.681641 0)"/>
      </g>
     </g>
    </g>
    <g id="ytick_5">
     <g id="line2d_25">
      <path d="M 200.424062 208.781279 
L 993.524063 208.781279 
" clip-path="url(#pf64f856743)" style="fill: none; stroke: #ffffff; stroke-width: 0.8; stroke-linecap: square"/>
     </g>
     <g id="line2d_26">
      <g>
       <use xlink:href="#m38b9b5cbc4" x="200.424062" y="208.781279" style="fill: #555555; stroke: #555555; stroke-width: 0.8"/>
      </g>
     </g>
     <g id="text_14">
      <!-- OTRA DESTRUCCIÓN U OCLUSIÓN -->
      <g style="fill: #555555" transform="translate(41.207344 207.84542) scale(0.09 -0.09)">
       <use xlink:href="#DejaVuSans-4f"/>
       <use xlink:href="#DejaVuSans-54" transform="translate(78.710938 0)"/>
       <use xlink:href="#DejaVuSans-52" transform="translate(139.794922 0)"/>
       <use xlink:href="#DejaVuSans-41" transform="translate(205.277344 0)"/>
       <use xlink:href="#DejaVuSans-20" transform="translate(273.685547 0)"/>
       <use xlink:href="#DejaVuSans-44" transform="translate(305.472656 0)"/>
       <use xlink:href="#DejaVuSans-45" transform="translate(382.474609 0)"/>
       <use xlink:href="#DejaVuSans-53" transform="translate(445.658203 0)"/>
       <use xlink:href="#DejaVuSans-54" transform="translate(509.134766 0)"/>
       <use xlink:href="#DejaVuSans-52" transform="translate(570.21875 0)"/>
       <use xlink:href="#DejaVuSans-55" transform="translate(639.701172 0)"/>
       <use xlink:href="#DejaVuSans-43" transform="translate(712.894531 0)"/>
       <use xlink:href="#DejaVuSans-43" transform="translate(782.71875 0)"/>
       <use xlink:href="#DejaVuSans-49" transform="translate(852.542969 0)"/>
       <use xlink:href="#DejaVuSans-d3" transform="translate(882.035156 0)"/>
       <use xlink:href="#DejaVuSans-4e" transform="translate(960.746094 0)"/>
       <use xlink:href="#DejaVuSans-20" transform="translate(1035.550781 0)"/>
       <use xlink:href="#DejaVuSans-55" transform="translate(1067.337891 0)"/>
       <use xlink:href="#DejaVuSans-20" transform="translate(1140.53125 0)"/>
       <use xlink:href="#DejaVuSans-4f" transform="translate(1172.318359 0)"/>
       <use xlink:href="#DejaVuSans-43" transform="translate(1251.029297 0)"/>
       <use xlink:href="#DejaVuSans-4c" transform="translate(1320.853516 0)"/>
       <use xlink:href="#DejaVuSans-55" transform="translate(1371.566406 0)"/>
       <use xlink:href="#DejaVuSans-53" transform="translate(1444.759766 0)"/>
       <use xlink:href="#DejaVuSans-49" transform="translate(1508.236328 0)"/>
       <use xlink:href="#DejaVuSans-d3" transform="translate(1537.728516 0)"/>
       <use xlink:href="#DejaVuSans-4e" transform="translate(1616.439453 0)"/>
      </g>
      <!-- BILATERAL DE LAS TROMPAS DE FALOPIO -->
      <g style="fill: #555555" transform="translate(8.271562 217.923451) scale(0.09 -0.09)">
       <use xlink:href="#DejaVuSans-42"/>
       <use xlink:href="#DejaVuSans-49" transform="translate(68.603516 0)"/>
       <use xlink:href="#DejaVuSans-4c" transform="translate(98.095703 0)"/>
       <use xlink:href="#DejaVuSans-41" transform="translate(156.058594 0)"/>
       <use xlink:href="#DejaVuSans-54" transform="translate(216.716797 0)"/>
       <use xlink:href="#DejaVuSans-45" transform="translate(277.800781 0)"/>
       <use xlink:href="#DejaVuSans-52" transform="translate(340.984375 0)"/>
       <use xlink:href="#DejaVuSans-41" transform="translate(406.466797 0)"/>
       <use xlink:href="#DejaVuSans-4c" transform="translate(474.875 0)"/>
       <use xlink:href="#DejaVuSans-20" transform="translate(530.587891 0)"/>
       <use xlink:href="#DejaVuSans-44" transform="translate(562.375 0)"/>
       <use xlink:href="#DejaVuSans-45" transform="translate(639.376953 0)"/>
       <use xlink:href="#DejaVuSans-20" transform="translate(702.560547 0)"/>
       <use xlink:href="#DejaVuSans-4c" transform="translate(734.347656 0)"/>
       <use xlink:href="#DejaVuSans-41" transform="translate(792.310547 0)"/>
       <use xlink:href="#DejaVuSans-53" transform="translate(860.71875 0)"/>
       <use xlink:href="#DejaVuSans-20" transform="translate(924.195312 0)"/>
       <use xlink:href="#DejaVuSans-54" transform="translate(955.982422 0)"/>
       <use xlink:href="#DejaVuSans-52" transform="translate(1017.066406 0)"/>
       <use xlink:href="#DejaVuSans-4f" transform="translate(1086.548828 0)"/>
       <use xlink:href="#DejaVuSans-4d" transform="translate(1165.259766 0)"/>
       <use xlink:href="#DejaVuSans-50" transform="translate(1251.539062 0)"/>
       <use xlink:href="#DejaVuSans-41" transform="translate(1305.466797 0)"/>
       <use xlink:href="#DejaVuSans-53" transform="translate(1373.875 0)"/>
       <use xlink:href="#DejaVuSans-20" transform="translate(1437.351562 0)"/>
       <use xlink:href="#DejaVuSans-44" transform="translate(1469.138672 0)"/>
       <use xlink:href="#DejaVuSans-45" transform="translate(1546.140625 0)"/>
       <use xlink:href="#DejaVuSans-20" transform="translate(1609.324219 0)"/>
       <use xlink:href="#DejaVuSans-46" transform="translate(1641.111328 0)"/>
       <use xlink:href="#DejaVuSans-41" transform="translate(1689.505859 0)"/>
       <use xlink:href="#DejaVuSans-4c" transform="translate(1757.914062 0)"/>
       <use xlink:href="#DejaVuSans-4f" transform="translate(1810.001953 0)"/>
       <use xlink:href="#DejaVuSans-50" transform="translate(1888.712891 0)"/>
       <use xlink:href="#DejaVuSans-49" transform="translate(1949.015625 0)"/>
       <use xlink:href="#DejaVuSans-4f" transform="translate(1978.507812 0)"/>
      </g>
     </g>
    </g>
    <g id="ytick_6">
     <g id="line2d_27">
      <path d="M 200.424062 141.604809 
L 993.524063 141.604809 
" clip-path="url(#pf64f856743)" style="fill: none; stroke: #ffffff; stroke-width: 0.8; stroke-linecap: square"/>
     </g>
     <g id="line2d_28">
      <g>
       <use xlink:href="#m38b9b5cbc4" x="200.424062" y="141.604809" style="fill: #555555; stroke: #555555; stroke-width: 0.8"/>
      </g>
     </g>
     <g id="text_15">
      <!-- OTRA EXTIRPACIÓN LOCAL O -->
      <g style="fill: #555555" transform="translate(64.188281 134.070684) scale(0.09 -0.09)">
       <use xlink:href="#DejaVuSans-4f"/>
       <use xlink:href="#DejaVuSans-54" transform="translate(78.710938 0)"/>
       <use xlink:href="#DejaVuSans-52" transform="translate(139.794922 0)"/>
       <use xlink:href="#DejaVuSans-41" transform="translate(205.277344 0)"/>
       <use xlink:href="#DejaVuSans-20" transform="translate(273.685547 0)"/>
       <use xlink:href="#DejaVuSans-45" transform="translate(305.472656 0)"/>
       <use xlink:href="#DejaVuSans-58" transform="translate(368.65625 0)"/>
       <use xlink:href="#DejaVuSans-54" transform="translate(435.412109 0)"/>
       <use xlink:href="#DejaVuSans-49" transform="translate(496.496094 0)"/>
       <use xlink:href="#DejaVuSans-52" transform="translate(525.988281 0)"/>
       <use xlink:href="#DejaVuSans-50" transform="translate(595.470703 0)"/>
       <use xlink:href="#DejaVuSans-41" transform="translate(649.398438 0)"/>
       <use xlink:href="#DejaVuSans-43" transform="translate(716.056641 0)"/>
       <use xlink:href="#DejaVuSans-49" transform="translate(785.880859 0)"/>
       <use xlink:href="#DejaVuSans-d3" transform="translate(815.373047 0)"/>
       <use xlink:href="#DejaVuSans-4e" transform="translate(894.083984 0)"/>
       <use xlink:href="#DejaVuSans-20" transform="translate(968.888672 0)"/>
       <use xlink:href="#DejaVuSans-4c" transform="translate(1000.675781 0)"/>
       <use xlink:href="#DejaVuSans-4f" transform="translate(1052.763672 0)"/>
       <use xlink:href="#DejaVuSans-43" transform="translate(1131.474609 0)"/>
       <use xlink:href="#DejaVuSans-41" transform="translate(1201.298828 0)"/>
       <use xlink:href="#DejaVuSans-4c" transform="translate(1269.707031 0)"/>
       <use xlink:href="#DejaVuSans-20" transform="translate(1325.419922 0)"/>
       <use xlink:href="#DejaVuSans-4f" transform="translate(1357.207031 0)"/>
      </g>
      <!-- DESTRUCCIÓN DE LESIÓN O TEJIDO DE -->
      <g style="fill: #555555" transform="translate(17.697656 145.849715) scale(0.09 -0.09)">
       <use xlink:href="#DejaVuSans-44"/>
       <use xlink:href="#DejaVuSans-45" transform="translate(77.001953 0)"/>
       <use xlink:href="#DejaVuSans-53" transform="translate(140.185547 0)"/>
       <use xlink:href="#DejaVuSans-54" transform="translate(203.662109 0)"/>
       <use xlink:href="#DejaVuSans-52" transform="translate(264.746094 0)"/>
       <use xlink:href="#DejaVuSans-55" transform="translate(334.228516 0)"/>
       <use xlink:href="#DejaVuSans-43" transform="translate(407.421875 0)"/>
       <use xlink:href="#DejaVuSans-43" transform="translate(477.246094 0)"/>
       <use xlink:href="#DejaVuSans-49" transform="translate(547.070312 0)"/>
       <use xlink:href="#DejaVuSans-d3" transform="translate(576.5625 0)"/>
       <use xlink:href="#DejaVuSans-4e" transform="translate(655.273438 0)"/>
       <use xlink:href="#DejaVuSans-20" transform="translate(730.078125 0)"/>
       <use xlink:href="#DejaVuSans-44" transform="translate(761.865234 0)"/>
       <use xlink:href="#DejaVuSans-45" transform="translate(838.867188 0)"/>
       <use xlink:href="#DejaVuSans-20" transform="translate(902.050781 0)"/>
       <use xlink:href="#DejaVuSans-4c" transform="translate(933.837891 0)"/>
       <use xlink:href="#DejaVuSans-45" transform="translate(989.550781 0)"/>
       <use xlink:href="#DejaVuSans-53" transform="translate(1052.734375 0)"/>
       <use xlink:href="#DejaVuSans-49" transform="translate(1116.210938 0)"/>
       <use xlink:href="#DejaVuSans-d3" transform="translate(1145.703125 0)"/>
       <use xlink:href="#DejaVuSans-4e" transform="translate(1224.414062 0)"/>
       <use xlink:href="#DejaVuSans-20" transform="translate(1299.21875 0)"/>
       <use xlink:href="#DejaVuSans-4f" transform="translate(1331.005859 0)"/>
       <use xlink:href="#DejaVuSans-20" transform="translate(1409.716797 0)"/>
       <use xlink:href="#DejaVuSans-54" transform="translate(1441.503906 0)"/>
       <use xlink:href="#DejaVuSans-45" transform="translate(1502.587891 0)"/>
       <use xlink:href="#DejaVuSans-4a" transform="translate(1565.771484 0)"/>
       <use xlink:href="#DejaVuSans-49" transform="translate(1595.263672 0)"/>
       <use xlink:href="#DejaVuSans-44" transform="translate(1624.755859 0)"/>
       <use xlink:href="#DejaVuSans-4f" transform="translate(1701.757812 0)"/>
       <use xlink:href="#DejaVuSans-20" transform="translate(1780.46875 0)"/>
       <use xlink:href="#DejaVuSans-44" transform="translate(1812.255859 0)"/>
       <use xlink:href="#DejaVuSans-45" transform="translate(1889.257812 0)"/>
      </g>
      <!-- PIEL Y TEJIDO SUBCUTÁNEO -->
      <g style="fill: #555555" transform="translate(68.404219 157.628746) scale(0.09 -0.09)">
       <defs>
        <path id="DejaVuSans-59" d="M -13 4666 
L 666 4666 
L 1959 2747 
L 3244 4666 
L 3922 4666 
L 2272 2222 
L 2272 0 
L 1638 0 
L 1638 2222 
L -13 4666 
z
" transform="scale(0.015625)"/>
        <path id="DejaVuSans-c1" d="M 2188 4044 
L 1331 1722 
L 3047 1722 
L 2188 4044 
z
M 1831 4666 
L 2547 4666 
L 4325 0 
L 3669 0 
L 3244 1197 
L 1141 1197 
L 716 0 
L 50 0 
L 1831 4666 
z
M 2356 5921 
L 2934 5921 
L 2222 5096 
L 1743 5096 
L 2356 5921 
z
" transform="scale(0.015625)"/>
       </defs>
       <use xlink:href="#DejaVuSans-50"/>
       <use xlink:href="#DejaVuSans-49" transform="translate(60.302734 0)"/>
       <use xlink:href="#DejaVuSans-45" transform="translate(89.794922 0)"/>
       <use xlink:href="#DejaVuSans-4c" transform="translate(152.978516 0)"/>
       <use xlink:href="#DejaVuSans-20" transform="translate(208.691406 0)"/>
       <use xlink:href="#DejaVuSans-59" transform="translate(240.478516 0)"/>
       <use xlink:href="#DejaVuSans-20" transform="translate(301.5625 0)"/>
       <use xlink:href="#DejaVuSans-54" transform="translate(333.349609 0)"/>
       <use xlink:href="#DejaVuSans-45" transform="translate(394.433594 0)"/>
       <use xlink:href="#DejaVuSans-4a" transform="translate(457.617188 0)"/>
       <use xlink:href="#DejaVuSans-49" transform="translate(487.109375 0)"/>
       <use xlink:href="#DejaVuSans-44" transform="translate(516.601562 0)"/>
       <use xlink:href="#DejaVuSans-4f" transform="translate(593.603516 0)"/>
       <use xlink:href="#DejaVuSans-20" transform="translate(672.314453 0)"/>
       <use xlink:href="#DejaVuSans-53" transform="translate(704.101562 0)"/>
       <use xlink:href="#DejaVuSans-55" transform="translate(767.578125 0)"/>
       <use xlink:href="#DejaVuSans-42" transform="translate(840.771484 0)"/>
       <use xlink:href="#DejaVuSans-43" transform="translate(907.625 0)"/>
       <use xlink:href="#DejaVuSans-55" transform="translate(977.449219 0)"/>
       <use xlink:href="#DejaVuSans-54" transform="translate(1050.642578 0)"/>
       <use xlink:href="#DejaVuSans-c1" transform="translate(1103.976562 0)"/>
       <use xlink:href="#DejaVuSans-4e" transform="translate(1172.384766 0)"/>
       <use xlink:href="#DejaVuSans-45" transform="translate(1247.189453 0)"/>
       <use xlink:href="#DejaVuSans-4f" transform="translate(1310.373047 0)"/>
      </g>
     </g>
    </g>
    <g id="ytick_7">
     <g id="line2d_29">
      <path d="M 200.424062 74.428338 
L 993.524063 74.428338 
" clip-path="url(#pf64f856743)" style="fill: none; stroke: #ffffff; stroke-width: 0.8; stroke-linecap: square"/>
     </g>
     <g id="line2d_30">
      <g>
       <use xlink:href="#m38b9b5cbc4" x="200.424062" y="74.428338" style="fill: #555555; stroke: #555555; stroke-width: 0.8"/>
      </g>
     </g>
     <g id="text_16">
      <!-- REPARACIÓN UNILATERAL DE HERNIA -->
      <g style="fill: #555555" transform="translate(25.472813 68.453463) scale(0.09 -0.09)">
       <use xlink:href="#DejaVuSans-52"/>
       <use xlink:href="#DejaVuSans-45" transform="translate(69.482422 0)"/>
       <use xlink:href="#DejaVuSans-50" transform="translate(132.666016 0)"/>
       <use xlink:href="#DejaVuSans-41" transform="translate(186.59375 0)"/>
       <use xlink:href="#DejaVuSans-52" transform="translate(255.001953 0)"/>
       <use xlink:href="#DejaVuSans-41" transform="translate(320.484375 0)"/>
       <use xlink:href="#DejaVuSans-43" transform="translate(387.142578 0)"/>
       <use xlink:href="#DejaVuSans-49" transform="translate(456.966797 0)"/>
       <use xlink:href="#DejaVuSans-d3" transform="translate(486.458984 0)"/>
       <use xlink:href="#DejaVuSans-4e" transform="translate(565.169922 0)"/>
       <use xlink:href="#DejaVuSans-20" transform="translate(639.974609 0)"/>
       <use xlink:href="#DejaVuSans-55" transform="translate(671.761719 0)"/>
       <use xlink:href="#DejaVuSans-4e" transform="translate(744.955078 0)"/>
       <use xlink:href="#DejaVuSans-49" transform="translate(819.759766 0)"/>
       <use xlink:href="#DejaVuSans-4c" transform="translate(849.251953 0)"/>
       <use xlink:href="#DejaVuSans-41" transform="translate(907.214844 0)"/>
       <use xlink:href="#DejaVuSans-54" transform="translate(967.873047 0)"/>
       <use xlink:href="#DejaVuSans-45" transform="translate(1028.957031 0)"/>
       <use xlink:href="#DejaVuSans-52" transform="translate(1092.140625 0)"/>
       <use xlink:href="#DejaVuSans-41" transform="translate(1157.623047 0)"/>
       <use xlink:href="#DejaVuSans-4c" transform="translate(1226.03125 0)"/>
       <use xlink:href="#DejaVuSans-20" transform="translate(1281.744141 0)"/>
       <use xlink:href="#DejaVuSans-44" transform="translate(1313.53125 0)"/>
       <use xlink:href="#DejaVuSans-45" transform="translate(1390.533203 0)"/>
       <use xlink:href="#DejaVuSans-20" transform="translate(1453.716797 0)"/>
       <use xlink:href="#DejaVuSans-48" transform="translate(1485.503906 0)"/>
       <use xlink:href="#DejaVuSans-45" transform="translate(1560.699219 0)"/>
       <use xlink:href="#DejaVuSans-52" transform="translate(1623.882812 0)"/>
       <use xlink:href="#DejaVuSans-4e" transform="translate(1693.365234 0)"/>
       <use xlink:href="#DejaVuSans-49" transform="translate(1768.169922 0)"/>
       <use xlink:href="#DejaVuSans-41" transform="translate(1797.662109 0)"/>
      </g>
      <!-- INGUINAL, NO ESPECIFICADA DE OTRA -->
      <g style="fill: #555555" transform="translate(19.892812 78.531494) scale(0.09 -0.09)">
       <defs>
        <path id="DejaVuSans-47" d="M 3809 666 
L 3809 1919 
L 2778 1919 
L 2778 2438 
L 4434 2438 
L 4434 434 
Q 4069 175 3628 42 
Q 3188 -91 2688 -91 
Q 1594 -91 976 548 
Q 359 1188 359 2328 
Q 359 3472 976 4111 
Q 1594 4750 2688 4750 
Q 3144 4750 3555 4637 
Q 3966 4525 4313 4306 
L 4313 3634 
Q 3963 3931 3569 4081 
Q 3175 4231 2741 4231 
Q 1884 4231 1454 3753 
Q 1025 3275 1025 2328 
Q 1025 1384 1454 906 
Q 1884 428 2741 428 
Q 3075 428 3337 486 
Q 3600 544 3809 666 
z
" transform="scale(0.015625)"/>
        <path id="DejaVuSans-2c" d="M 750 794 
L 1409 794 
L 1409 256 
L 897 -744 
L 494 -744 
L 750 256 
L 750 794 
z
" transform="scale(0.015625)"/>
       </defs>
       <use xlink:href="#DejaVuSans-49"/>
       <use xlink:href="#DejaVuSans-4e" transform="translate(29.492188 0)"/>
       <use xlink:href="#DejaVuSans-47" transform="translate(104.296875 0)"/>
       <use xlink:href="#DejaVuSans-55" transform="translate(181.787109 0)"/>
       <use xlink:href="#DejaVuSans-49" transform="translate(254.980469 0)"/>
       <use xlink:href="#DejaVuSans-4e" transform="translate(284.472656 0)"/>
       <use xlink:href="#DejaVuSans-41" transform="translate(359.277344 0)"/>
       <use xlink:href="#DejaVuSans-4c" transform="translate(427.685547 0)"/>
       <use xlink:href="#DejaVuSans-2c" transform="translate(483.398438 0)"/>
       <use xlink:href="#DejaVuSans-20" transform="translate(515.185547 0)"/>
       <use xlink:href="#DejaVuSans-4e" transform="translate(546.972656 0)"/>
       <use xlink:href="#DejaVuSans-4f" transform="translate(621.777344 0)"/>
       <use xlink:href="#DejaVuSans-20" transform="translate(700.488281 0)"/>
       <use xlink:href="#DejaVuSans-45" transform="translate(732.275391 0)"/>
       <use xlink:href="#DejaVuSans-53" transform="translate(795.458984 0)"/>
       <use xlink:href="#DejaVuSans-50" transform="translate(858.935547 0)"/>
       <use xlink:href="#DejaVuSans-45" transform="translate(919.238281 0)"/>
       <use xlink:href="#DejaVuSans-43" transform="translate(982.421875 0)"/>
       <use xlink:href="#DejaVuSans-49" transform="translate(1052.246094 0)"/>
       <use xlink:href="#DejaVuSans-46" transform="translate(1081.738281 0)"/>
       <use xlink:href="#DejaVuSans-49" transform="translate(1139.257812 0)"/>
       <use xlink:href="#DejaVuSans-43" transform="translate(1168.75 0)"/>
       <use xlink:href="#DejaVuSans-41" transform="translate(1238.574219 0)"/>
       <use xlink:href="#DejaVuSans-44" transform="translate(1306.982422 0)"/>
       <use xlink:href="#DejaVuSans-41" transform="translate(1382.234375 0)"/>
       <use xlink:href="#DejaVuSans-20" transform="translate(1450.642578 0)"/>
       <use xlink:href="#DejaVuSans-44" transform="translate(1482.429688 0)"/>
       <use xlink:href="#DejaVuSans-45" transform="translate(1559.431641 0)"/>
       <use xlink:href="#DejaVuSans-20" transform="translate(1622.615234 0)"/>
       <use xlink:href="#DejaVuSans-4f" transform="translate(1654.402344 0)"/>
       <use xlink:href="#DejaVuSans-54" transform="translate(1733.113281 0)"/>
       <use xlink:href="#DejaVuSans-52" transform="translate(1794.197266 0)"/>
       <use xlink:href="#DejaVuSans-41" transform="translate(1859.679688 0)"/>
      </g>
      <!-- MANERA -->
      <g style="fill: #555555" transform="translate(155.032031 88.609526) scale(0.09 -0.09)">
       <use xlink:href="#DejaVuSans-4d"/>
       <use xlink:href="#DejaVuSans-41" transform="translate(86.279297 0)"/>
       <use xlink:href="#DejaVuSans-4e" transform="translate(154.6875 0)"/>
       <use xlink:href="#DejaVuSans-45" transform="translate(229.492188 0)"/>
       <use xlink:href="#DejaVuSans-52" transform="translate(292.675781 0)"/>
       <use xlink:href="#DejaVuSans-41" transform="translate(358.158203 0)"/>
      </g>
     </g>
    </g>
   </g>
   <g id="patch_3">
    <path d="M 200.424062 504.35775 
L 254.376443 504.35775 
L 254.376443 450.616574 
L 200.424062 450.616574 
z
" clip-path="url(#pf64f856743)" style="fill: #1f77b4; opacity: 0.65; stroke: #000000; stroke-width: 0.5; stroke-linejoin: miter"/>
   </g>
   <g id="patch_4">
    <path d="M 200.424062 437.181279 
L 254.376443 437.181279 
L 254.376443 383.440103 
L 200.424062 383.440103 
z
" clip-path="url(#pf64f856743)" style="fill: #1f77b4; opacity: 0.65; stroke: #000000; stroke-width: 0.5; stroke-linejoin: miter"/>
   </g>
   <g id="patch_5">
    <path d="M 200.424062 370.004809 
L 362.281205 370.004809 
L 362.281205 316.263632 
L 200.424062 316.263632 
z
" clip-path="url(#pf64f856743)" style="fill: #1f77b4; opacity: 0.65; stroke: #000000; stroke-width: 0.5; stroke-linejoin: miter"/>
   </g>
   <g id="patch_6">
    <path d="M 200.424062 302.828338 
L 524.138348 302.828338 
L 524.138348 249.087162 
L 200.424062 249.087162 
z
" clip-path="url(#pf64f856743)" style="fill: #1f77b4; opacity: 0.65; stroke: #000000; stroke-width: 0.5; stroke-linejoin: miter"/>
   </g>
   <g id="patch_7">
    <path d="M 200.424062 235.651868 
L 578.090729 235.651868 
L 578.090729 181.910691 
L 200.424062 181.910691 
z
" clip-path="url(#pf64f856743)" style="fill: #1f77b4; opacity: 0.65; stroke: #000000; stroke-width: 0.5; stroke-linejoin: miter"/>
   </g>
   <g id="patch_8">
    <path d="M 200.424062 168.475397 
L 685.995491 168.475397 
L 685.995491 114.734221 
L 200.424062 114.734221 
z
" clip-path="url(#pf64f856743)" style="fill: #1f77b4; opacity: 0.65; stroke: #000000; stroke-width: 0.5; stroke-linejoin: miter"/>
   </g>
   <g id="patch_9">
    <path d="M 200.424062 101.298926 
L 955.757396 101.298926 
L 955.757396 47.55775 
L 200.424062 47.55775 
z
" clip-path="url(#pf64f856743)" style="fill: #1f77b4; opacity: 0.65; stroke: #000000; stroke-width: 0.5; stroke-linejoin: miter"/>
   </g>
   <g id="patch_10">
    <path d="M 200.424062 527.19775 
L 200.424062 24.71775 
" style="fill: none; stroke: #ffffff; stroke-linejoin: miter; stroke-linecap: square"/>
   </g>
   <g id="patch_11">
    <path d="M 993.524063 527.19775 
L 993.524063 24.71775 
" style="fill: none; stroke: #ffffff; stroke-linejoin: miter; stroke-linecap: square"/>
   </g>
   <g id="patch_12">
    <path d="M 200.424062 527.19775 
L 993.524063 527.19775 
" style="fill: none; stroke: #ffffff; stroke-linejoin: miter; stroke-linecap: square"/>
   </g>
   <g id="patch_13">
    <path d="M 200.424062 24.71775 
L 993.524063 24.71775 
" style="fill: none; stroke: #ffffff; stroke-linejoin: miter; stroke-linecap: square"/>
   </g>
   <g id="text_17">
    <!-- 1 -->
    <g transform="translate(257.376443 480.246537) scale(0.1 -0.1)">
     <use xlink:href="#DejaVuSans-31"/>
    </g>
   </g>
   <g id="text_18">
    <!-- 1 -->
    <g transform="translate(257.376443 413.070066) scale(0.1 -0.1)">
     <use xlink:href="#DejaVuSans-31"/>
    </g>
   </g>
   <g id="text_19">
    <!-- 3 -->
    <g transform="translate(365.281205 345.893596) scale(0.1 -0.1)">
     <defs>
      <path id="DejaVuSans-33" d="M 2597 2516 
Q 3050 2419 3304 2112 
Q 3559 1806 3559 1356 
Q 3559 666 3084 287 
Q 2609 -91 1734 -91 
Q 1441 -91 1130 -33 
Q 819 25 488 141 
L 488 750 
Q 750 597 1062 519 
Q 1375 441 1716 441 
Q 2309 441 2620 675 
Q 2931 909 2931 1356 
Q 2931 1769 2642 2001 
Q 2353 2234 1838 2234 
L 1294 2234 
L 1294 2753 
L 1863 2753 
Q 2328 2753 2575 2939 
Q 2822 3125 2822 3475 
Q 2822 3834 2567 4026 
Q 2313 4219 1838 4219 
Q 1578 4219 1281 4162 
Q 984 4106 628 3988 
L 628 4550 
Q 988 4650 1302 4700 
Q 1616 4750 1894 4750 
Q 2613 4750 3031 4423 
Q 3450 4097 3450 3541 
Q 3450 3153 3228 2886 
Q 3006 2619 2597 2516 
z
" transform="scale(0.015625)"/>
     </defs>
     <use xlink:href="#DejaVuSans-33"/>
    </g>
   </g>
   <g id="text_20">
    <!-- 6 -->
    <g transform="translate(527.138348 278.717125) scale(0.1 -0.1)">
     <use xlink:href="#DejaVuSans-36"/>
    </g>
   </g>
   <g id="text_21">
    <!-- 7 -->
    <g transform="translate(581.090729 211.540654) scale(0.1 -0.1)">
     <defs>
      <path id="DejaVuSans-37" d="M 525 4666 
L 3525 4666 
L 3525 4397 
L 1831 0 
L 1172 0 
L 2766 4134 
L 525 4134 
L 525 4666 
z
" transform="scale(0.015625)"/>
     </defs>
     <use xlink:href="#DejaVuSans-37"/>
    </g>
   </g>
   <g id="text_22">
    <!-- 9 -->
    <g transform="translate(688.995491 144.364184) scale(0.1 -0.1)">
     <defs>
      <path id="DejaVuSans-39" d="M 703 97 
L 703 672 
Q 941 559 1184 500 
Q 1428 441 1663 441 
Q 2288 441 2617 861 
Q 2947 1281 2994 2138 
Q 2813 1869 2534 1725 
Q 2256 1581 1919 1581 
Q 1219 1581 811 2004 
Q 403 2428 403 3163 
Q 403 3881 828 4315 
Q 1253 4750 1959 4750 
Q 2769 4750 3195 4129 
Q 3622 3509 3622 2328 
Q 3622 1225 3098 567 
Q 2575 -91 1691 -91 
Q 1453 -91 1209 -44 
Q 966 3 703 97 
z
M 1959 2075 
Q 2384 2075 2632 2365 
Q 2881 2656 2881 3163 
Q 2881 3666 2632 3958 
Q 2384 4250 1959 4250 
Q 1534 4250 1286 3958 
Q 1038 3666 1038 3163 
Q 1038 2656 1286 2365 
Q 1534 2075 1959 2075 
z
" transform="scale(0.015625)"/>
     </defs>
     <use xlink:href="#DejaVuSans-39"/>
    </g>
   </g>
   <g id="text_23">
    <!-- 14 -->
    <g transform="translate(958.757396 77.187713) scale(0.1 -0.1)">
     <use xlink:href="#DejaVuSans-31"/>
     <use xlink:href="#DejaVuSans-34" transform="translate(63.623047 0)"/>
    </g>
   </g>
   <g id="text_24">
    <!-- Procedimientos quirúrgico -->
    <g transform="translate(502.894813 18.71775) scale(0.144 -0.144)">
     <defs>
      <path id="DejaVuSans-63" d="M 3122 3366 
L 3122 2828 
Q 2878 2963 2633 3030 
Q 2388 3097 2138 3097 
Q 1578 3097 1268 2742 
Q 959 2388 959 1747 
Q 959 1106 1268 751 
Q 1578 397 2138 397 
Q 2388 397 2633 464 
Q 2878 531 3122 666 
L 3122 134 
Q 2881 22 2623 -34 
Q 2366 -91 2075 -91 
Q 1284 -91 818 406 
Q 353 903 353 1747 
Q 353 2603 823 3093 
Q 1294 3584 2113 3584 
Q 2378 3584 2631 3529 
Q 2884 3475 3122 3366 
z
" transform="scale(0.015625)"/>
      <path id="DejaVuSans-69" d="M 603 3500 
L 1178 3500 
L 1178 0 
L 603 0 
L 603 3500 
z
M 603 4863 
L 1178 4863 
L 1178 4134 
L 603 4134 
L 603 4863 
z
" transform="scale(0.015625)"/>
      <path id="DejaVuSans-6e" d="M 3513 2113 
L 3513 0 
L 2938 0 
L 2938 2094 
Q 2938 2591 2744 2837 
Q 2550 3084 2163 3084 
Q 1697 3084 1428 2787 
Q 1159 2491 1159 1978 
L 1159 0 
L 581 0 
L 581 3500 
L 1159 3500 
L 1159 2956 
Q 1366 3272 1645 3428 
Q 1925 3584 2291 3584 
Q 2894 3584 3203 3211 
Q 3513 2838 3513 2113 
z
" transform="scale(0.015625)"/>
      <path id="DejaVuSans-74" d="M 1172 4494 
L 1172 3500 
L 2356 3500 
L 2356 3053 
L 1172 3053 
L 1172 1153 
Q 1172 725 1289 603 
Q 1406 481 1766 481 
L 2356 481 
L 2356 0 
L 1766 0 
Q 1100 0 847 248 
Q 594 497 594 1153 
L 594 3053 
L 172 3053 
L 172 3500 
L 594 3500 
L 594 4494 
L 1172 4494 
z
" transform="scale(0.015625)"/>
      <path id="DejaVuSans-71" d="M 947 1747 
Q 947 1113 1208 752 
Q 1469 391 1925 391 
Q 2381 391 2643 752 
Q 2906 1113 2906 1747 
Q 2906 2381 2643 2742 
Q 2381 3103 1925 3103 
Q 1469 3103 1208 2742 
Q 947 2381 947 1747 
z
M 2906 525 
Q 2725 213 2448 61 
Q 2172 -91 1784 -91 
Q 1150 -91 751 415 
Q 353 922 353 1747 
Q 353 2572 751 3078 
Q 1150 3584 1784 3584 
Q 2172 3584 2448 3432 
Q 2725 3281 2906 2969 
L 2906 3500 
L 3481 3500 
L 3481 -1331 
L 2906 -1331 
L 2906 525 
z
" transform="scale(0.015625)"/>
      <path id="DejaVuSans-75" d="M 544 1381 
L 544 3500 
L 1119 3500 
L 1119 1403 
Q 1119 906 1312 657 
Q 1506 409 1894 409 
Q 2359 409 2629 706 
Q 2900 1003 2900 1516 
L 2900 3500 
L 3475 3500 
L 3475 0 
L 2900 0 
L 2900 538 
Q 2691 219 2414 64 
Q 2138 -91 1772 -91 
Q 1169 -91 856 284 
Q 544 659 544 1381 
z
M 1991 3584 
L 1991 3584 
z
" transform="scale(0.015625)"/>
     </defs>
     <use xlink:href="#DejaVuSans-50"/>
     <use xlink:href="#DejaVuSans-72" transform="translate(58.552734 0)"/>
     <use xlink:href="#DejaVuSans-6f" transform="translate(97.416016 0)"/>
     <use xlink:href="#DejaVuSans-63" transform="translate(158.597656 0)"/>
     <use xlink:href="#DejaVuSans-65" transform="translate(213.578125 0)"/>
     <use xlink:href="#DejaVuSans-64" transform="translate(275.101562 0)"/>
     <use xlink:href="#DejaVuSans-69" transform="translate(338.578125 0)"/>
     <use xlink:href="#DejaVuSans-6d" transform="translate(366.361328 0)"/>
     <use xlink:href="#DejaVuSans-69" transform="translate(463.773438 0)"/>
     <use xlink:href="#DejaVuSans-65" transform="translate(491.556641 0)"/>
     <use xlink:href="#DejaVuSans-6e" transform="translate(553.080078 0)"/>
     <use xlink:href="#DejaVuSans-74" transform="translate(616.458984 0)"/>
     <use xlink:href="#DejaVuSans-6f" transform="translate(655.667969 0)"/>
     <use xlink:href="#DejaVuSans-73" transform="translate(716.849609 0)"/>
     <use xlink:href="#DejaVuSans-20" transform="translate(768.949219 0)"/>
     <use xlink:href="#DejaVuSans-71" transform="translate(800.736328 0)"/>
     <use xlink:href="#DejaVuSans-75" transform="translate(864.212891 0)"/>
     <use xlink:href="#DejaVuSans-69" transform="translate(927.591797 0)"/>
     <use xlink:href="#DejaVuSans-72" transform="translate(955.375 0)"/>
     <use xlink:href="#DejaVuSans-fa" transform="translate(996.488281 0)"/>
     <use xlink:href="#DejaVuSans-72" transform="translate(1059.867188 0)"/>
     <use xlink:href="#DejaVuSans-67" transform="translate(1099.230469 0)"/>
     <use xlink:href="#DejaVuSans-69" transform="translate(1162.707031 0)"/>
     <use xlink:href="#DejaVuSans-63" transform="translate(1190.490234 0)"/>
     <use xlink:href="#DejaVuSans-6f" transform="translate(1245.470703 0)"/>
    </g>
   </g>
  </g>
 </g>
 <defs>
  <clipPath id="pf64f856743">
   <rect x="200.424062" y="24.71775" width="793.1" height="502.48"/>
  </clipPath>
 </defs>
</svg>
